G04 DesignSpark PCB Gerber Version 12.0 Build 5941*
G04 #@! TF.Part,Single*
G04 #@! TF.FileFunction,Copper,L2,Bot*
G04 #@! TF.FilePolarity,Positive*
%FSLAX35Y35*%
%MOIN*%
G04 #@! TA.AperFunction,WasherPad*
%ADD14R,0.11811X0.19685*%
G04 #@! TD.AperFunction*
%ADD10C,0.03937*%
G04 #@! TA.AperFunction,ComponentPad*
%ADD16C,0.06000*%
G04 #@! TA.AperFunction,WasherPad*
%ADD11C,0.06890*%
%ADD12C,0.07087*%
G04 #@! TA.AperFunction,ComponentPad*
%ADD17C,0.07874*%
G04 #@! TA.AperFunction,WasherPad*
%ADD13C,0.11811*%
%ADD15C,0.14173*%
G04 #@! TD.AperFunction*
X0Y0D02*
D02*
D10*
X20250Y70250D02*
X610250D01*
X20250Y100250D02*
X610250D01*
X20250Y120250D02*
X610250D01*
X50250Y420250D02*
G75*
G03*
X40250Y430250I-10000J0D01*
G01*
X50250Y420250D02*
Y180250D01*
G75*
G03*
X90250Y140250I40000J0D01*
G01*
X100250D01*
G75*
G03*
X130250Y170250I0J30000D01*
G01*
Y210250D01*
G75*
G03*
X120250Y220250I-10000J0D01*
G01*
X50250Y430250D02*
Y420250D01*
X60250Y20250D02*
Y30250D01*
G75*
G02*
X70250Y40250I10000J0D01*
G01*
X570250D01*
X60250Y430250D02*
Y180250D01*
G75*
G03*
X90250Y150250I30000J0D01*
G01*
X100250D01*
G75*
G03*
X120250Y170250I0J20000D01*
G01*
Y210250D01*
X70250Y20250D02*
G75*
G02*
X60250Y30250I0J10000D01*
G01*
X70250Y430250D02*
Y180250D01*
G75*
G03*
X90250Y160250I20000J0D01*
G01*
G75*
G03*
X110250Y180250I0J20000D01*
G01*
Y220250D01*
G75*
G02*
X120250Y230250I10000J0D01*
G01*
X80250Y430250D02*
Y180250D01*
G75*
G03*
X90250Y170250I10000J0D01*
G01*
G75*
G03*
X100250Y180250I0J10000D01*
G01*
Y220250D01*
G75*
G02*
X120250Y240250I20000J0D01*
G01*
X90250Y390250D02*
Y280250D01*
G75*
G03*
X110250Y260250I20000J0D01*
G01*
X170250D01*
G75*
G02*
X180250Y250250I0J-10000D01*
G01*
G75*
G03*
X210250Y220250I30000J0D01*
G01*
X580250D01*
G75*
G02*
X590250Y210250I0J-10000D01*
G01*
Y200250D01*
X90250Y400250D02*
Y390250D01*
X100250Y420250D02*
Y280250D01*
G75*
G03*
X110250Y270250I10000J0D01*
G01*
X160250D01*
G75*
G03*
X170250Y280250I0J10000D01*
G01*
X100250Y430250D02*
Y420250D01*
Y430250D02*
X110250D01*
Y290250D02*
Y310250D01*
Y330250D01*
Y350250D01*
Y380250D02*
X200250D01*
G75*
G03*
X210250Y390250I0J10000D01*
G01*
G75*
G02*
X230250Y410250I20000J0D01*
G01*
X330250D01*
G75*
G02*
X340250Y400250I0J-10000D01*
G01*
X110250Y390250D02*
X120250D01*
X110250Y430250D02*
G75*
G03*
X100250Y420250I0J-10000D01*
G01*
X110250Y430250D02*
X101746D01*
G75*
G02*
X100250Y431746I0J1496D01*
G01*
Y430250D01*
X110250D02*
X120250D01*
Y390250D02*
G75*
G02*
X110250Y400250I0J10000D01*
G01*
X140250Y430250D02*
X150250D01*
G75*
G02*
X160250Y420250I0J-10000D01*
G01*
X150250Y430250D02*
X160250D01*
Y230250D02*
G75*
G03*
X150250Y220250I0J-10000D01*
G01*
Y180250D01*
G75*
G03*
X180250Y150250I30000J0D01*
G01*
X510250D01*
X160250Y420250D02*
Y400250D01*
G75*
G02*
X150250Y390250I-10000J0D01*
G01*
X120250D01*
X160250Y430250D02*
Y420250D01*
X170250Y280250D02*
G75*
G03*
X180250Y270250I10000J0D01*
G01*
G75*
G02*
X190250Y260250I0J-10000D01*
G01*
G75*
G03*
X220250Y230250I30000J0D01*
G01*
X430250D01*
G75*
G03*
X440250Y240250I0J10000D01*
G01*
Y290250D01*
G75*
G03*
X430250Y300250I-10000J0D01*
G01*
X400250D01*
G75*
G02*
X390250Y310250I0J10000D01*
G01*
Y350250D01*
X180250Y300250D02*
Y290250D01*
Y310250D02*
Y300250D01*
Y330250D02*
Y340250D01*
Y350250D01*
Y430250D02*
X190250D01*
X200250Y420250D02*
X190250D01*
G75*
G02*
X180250Y430250I0J10000D01*
G01*
X200250Y420250D02*
G75*
G02*
X190250Y430250I0J10000D01*
G01*
X200250D02*
G75*
G03*
X210250Y420250I10000J0D01*
G01*
X200250Y430250D02*
X190250D01*
X210250Y420250D02*
X200250D01*
X210250D02*
X330250D01*
X250250Y280250D02*
X230250D01*
G75*
G02*
X220250Y290250I0J10000D01*
G01*
Y340250D01*
G75*
G03*
X200250Y360250I-20000J0D01*
G01*
X180250D01*
G75*
G03*
X170250Y350250I0J-10000D01*
G01*
Y280250D01*
X255762Y347258D02*
X247258D01*
G75*
G03*
X240250Y340250I0J-7008D01*
G01*
Y330250D01*
G75*
G03*
X250250Y320250I10000J0D01*
G01*
X300250D01*
G75*
G02*
X310250Y310250I0J-10000D01*
G01*
Y250250D01*
G75*
G02*
X300250Y240250I-10000J0D01*
G01*
X220250D01*
G75*
G02*
X200250Y260250I0J20000D01*
G01*
Y300250D01*
G75*
G03*
X190250Y310250I-10000J0D01*
G01*
G75*
G03*
X180250Y300250I0J-10000D01*
G01*
X256156Y293242D02*
X237258D01*
G75*
G02*
X230250Y300250I0J7008D01*
G01*
Y350250D01*
G75*
G02*
X240250Y360250I10000J0D01*
G01*
X250250D01*
X256156Y373242D02*
X237258D01*
G75*
G02*
X230250Y380250I0J7008D01*
G01*
G75*
G02*
X240250Y390250I10000J0D01*
G01*
X320250D01*
G75*
G02*
X330250Y380250I0J-10000D01*
G01*
Y300250D01*
G75*
G03*
X340250Y290250I10000J0D01*
G01*
G75*
G03*
X350250Y300250I0J10000D01*
G01*
X268360Y261746D02*
Y258360D01*
G75*
G02*
X260250Y250250I-8110J0D01*
G01*
X220250D01*
G75*
G02*
X210250Y260250I0J10000D01*
G01*
Y340250D01*
G75*
G03*
X200250Y350250I-10000J0D01*
G01*
X190250D01*
G75*
G03*
X180250Y340250I0J-10000D01*
G01*
X268360Y298754D02*
X268754D01*
G75*
G02*
X280250Y310250I11496J0D01*
G01*
X300250D01*
X268360Y298754D02*
X270250D01*
Y278754D01*
G75*
G03*
X278754Y270250I8504J0D01*
G01*
X280250D01*
X282140Y268360D01*
Y266864D01*
X268360Y378754D02*
X270250D01*
Y358754D01*
G75*
G03*
X278754Y350250I8504J0D01*
G01*
X280250D01*
X282140Y348360D01*
Y346864D01*
X283636D01*
G75*
G03*
X300250Y330250I16614J0D01*
G01*
X282140Y373636D02*
X283636D01*
G75*
G02*
X290250Y380250I6614J0D01*
G01*
X300250D01*
X290250Y300250D02*
X288754D01*
G75*
G03*
X282140Y293636I0J-6614D01*
G01*
X300250Y280250D02*
Y290250D01*
G75*
G03*
X290250Y300250I-10000J0D01*
G01*
X300250D02*
X290250D01*
X320250Y370250D02*
G75*
G03*
X310250Y380250I-10000J0D01*
G01*
X300250D01*
X330250Y400250D02*
X230250D01*
G75*
G03*
X220250Y390250I0J-10000D01*
G01*
G75*
G02*
X200250Y370250I-20000J0D01*
G01*
X120250D01*
G75*
G03*
X110250Y360250I0J-10000D01*
G01*
Y350250D01*
X330250Y420250D02*
X370250D01*
X330250D02*
G75*
G02*
X350250Y400250I0J-20000D01*
G01*
X340250Y280250D02*
X360250D01*
X340250Y300250D02*
Y380250D01*
Y400250D01*
X350250Y300250D02*
Y400250D01*
G75*
G02*
X370250Y420250I20000J0D01*
G01*
X360250Y300250D02*
Y370250D01*
Y400250D01*
G75*
G02*
X370250Y410250I10000J0D01*
G01*
X450250D01*
G75*
G02*
X470250Y390250I0J-20000D01*
G01*
Y340250D01*
G75*
G03*
X480250Y330250I10000J0D01*
G01*
X510250D01*
G75*
G03*
X520250Y340250I0J10000D01*
G01*
Y360250D01*
X370250Y400250D02*
X450250D01*
G75*
G02*
X460250Y390250I0J-10000D01*
G01*
Y300250D01*
G75*
G03*
X470250Y290250I10000J0D01*
G01*
X480250D01*
X370250Y420250D02*
X570250D01*
G75*
G02*
X580250Y410250I0J-10000D01*
G01*
Y260250D01*
G75*
G03*
X590250Y250250I10000J0D01*
G01*
G75*
G02*
X620250Y220250I0J-30000D01*
G01*
Y160250D01*
G75*
G02*
X600250Y140250I-20000J0D01*
G01*
X580250D01*
X390250Y270250D02*
X330250D01*
G75*
G02*
X320250Y280250I0J10000D01*
G01*
Y310250D01*
G75*
G03*
X300250Y330250I-20000J0D01*
G01*
X420250Y270250D02*
Y280250D01*
G75*
G03*
X410250Y290250I-10000J0D01*
G01*
X360250D01*
G75*
G02*
X350250Y300250I0J10000D01*
G01*
X420250Y340250D02*
Y320250D01*
G75*
G03*
X430250Y310250I10000J0D01*
G01*
G75*
G02*
X450250Y290250I0J-20000D01*
G01*
Y240250D01*
G75*
G03*
X460250Y230250I10000J0D01*
G01*
X590250D01*
G75*
G02*
X600250Y220250I0J-10000D01*
G01*
Y160250D01*
X480250Y20250D02*
X510250D01*
X480250Y290250D02*
G75*
G02*
X490250Y280250I0J-10000D01*
G01*
X480250Y290250D02*
X490250D01*
Y260250D02*
Y280250D01*
Y290250D01*
X510250Y20250D02*
X540250D01*
X510250Y30250D02*
X480250D01*
X510250Y140250D02*
X180250D01*
G75*
G02*
X140250Y180250I0J40000D01*
G01*
Y220250D01*
G75*
G02*
X160250Y240250I20000J0D01*
G01*
X510250Y160250D02*
X180250D01*
G75*
G02*
X160250Y180250I0J20000D01*
G01*
Y210250D01*
X510250Y170250D02*
X180250D01*
G75*
G02*
X170250Y180250I0J10000D01*
G01*
Y210250D01*
G75*
G03*
X160250Y220250I-10000J0D01*
G01*
X510250Y180250D02*
X480250D01*
G75*
G02*
X470250Y190250I0J10000D01*
G01*
Y210250D01*
X520250Y390250D02*
Y360250D01*
X540250Y20250D02*
X600250D01*
X540250Y30250D02*
X510250D01*
X560250Y260250D02*
Y290250D01*
Y260250D02*
G75*
G03*
X580250Y240250I20000J0D01*
G01*
X590250D01*
G75*
G02*
X610250Y220250I0J-20000D01*
G01*
Y160250D01*
G75*
G02*
X600250Y150250I-10000J0D01*
G01*
X560250Y290250D02*
Y360250D01*
Y390250D01*
X570250Y130250D02*
X610250D01*
X570250Y210250D02*
X580250D01*
G75*
G02*
X590250Y200250I0J-10000D01*
G01*
X580250Y40250D02*
G75*
G02*
X570250Y30250I-10000J0D01*
G01*
X540250D01*
X580250Y40250D02*
X610250D01*
X580250Y140250D02*
X540250D01*
G75*
G02*
X530250Y150250I0J10000D01*
G01*
Y160250D01*
G75*
G02*
X540250Y170250I10000J0D01*
G01*
X590250Y150250D02*
X600250D01*
X590250Y200250D02*
Y160250D01*
G75*
G03*
X600250Y150250I10000J0D01*
G01*
Y20250D02*
X610250D01*
X620250D01*
X610250Y30250D02*
X590250D01*
X610250Y40250D02*
X620250D01*
X610250Y50250D02*
X20250D01*
X610250Y60250D02*
X20250D01*
X610250D02*
X620250D01*
X610250Y80250D02*
X20250D01*
X610250Y90250D02*
X20250D01*
X610250D02*
X620250D01*
X610250Y110250D02*
X20250D01*
X610250D02*
X620250D01*
Y30250D02*
X610250D01*
X620250Y50250D02*
X610250D01*
X620250Y70250D02*
X610250D01*
X620250Y80250D02*
X610250D01*
X620250Y100250D02*
X610250D01*
X620250Y120250D02*
X610250D01*
X620250Y130250D02*
X610250D01*
D02*
D11*
X20250Y50250D03*
Y60250D03*
Y70250D03*
Y80250D03*
Y90250D03*
Y100250D03*
Y110250D03*
Y120250D03*
Y380250D03*
Y390250D03*
Y400250D03*
X40250Y430250D03*
X50250D03*
X60250D03*
X70250D03*
X80250D03*
X100250D03*
X110250Y290250D03*
Y310250D03*
Y330250D03*
Y350250D03*
Y430250D03*
X120250D03*
X140250D03*
X150250D03*
X160250D03*
X180250Y290250D03*
Y310250D03*
Y330250D03*
Y350250D03*
Y430250D03*
X190250D03*
X200250D03*
X470250Y210250D03*
X510250Y140250D03*
Y150250D03*
Y160250D03*
Y170250D03*
Y180250D03*
X540250Y150250D03*
Y160250D03*
Y170250D03*
Y180250D03*
X570250Y210250D03*
D02*
D12*
X40250Y140250D03*
Y190250D03*
X50250Y380250D03*
X60250Y20250D03*
X70250D03*
X90250Y390250D03*
Y400250D03*
X110250Y380250D03*
Y390250D03*
Y400250D03*
X300250Y310250D03*
Y330250D03*
X330250Y400250D03*
X360250Y280250D03*
Y300250D03*
X370250Y400250D03*
X570250Y40250D03*
Y130250D03*
X580250Y40250D03*
Y140250D03*
X590250Y30250D03*
Y150250D03*
X600250Y20250D03*
Y160250D03*
X610250Y20250D03*
Y30250D03*
Y40250D03*
Y50250D03*
Y60250D03*
Y70250D03*
Y80250D03*
Y90250D03*
Y100250D03*
Y110250D03*
Y120250D03*
Y130250D03*
X620250Y20250D03*
Y30250D03*
Y40250D03*
Y50250D03*
Y60250D03*
Y70250D03*
Y80250D03*
Y90250D03*
Y100250D03*
Y110250D03*
Y120250D03*
Y130250D03*
D02*
D13*
X250250Y280250D03*
Y360250D03*
X255762Y267258D03*
Y347258D03*
X256156Y293242D03*
Y373242D03*
X268360Y261746D03*
Y298754D03*
Y341746D03*
Y378754D03*
X282140Y266864D03*
Y293636D03*
Y346864D03*
Y373636D03*
D02*
D14*
X490250Y260250D03*
Y290250D03*
Y360250D03*
Y390250D03*
X520250Y260250D03*
Y290250D03*
Y360250D03*
Y390250D03*
X560250Y260250D03*
Y290250D03*
Y360250D03*
Y390250D03*
D02*
D15*
X390250Y270250D03*
Y350250D03*
X420250Y270250D03*
Y340250D03*
Y370250D03*
D02*
D16*
X120250Y210250D03*
Y220250D03*
Y230250D03*
Y240250D03*
X160250Y210250D03*
Y220250D03*
Y230250D03*
Y240250D03*
X300250Y280250D03*
Y300250D03*
Y380250D03*
X320250Y370250D03*
X340250Y280250D03*
Y300250D03*
Y380250D03*
X360250Y370250D03*
D02*
D17*
X480250Y20250D03*
Y30250D03*
X510250Y20250D03*
Y30250D03*
X540250Y20250D03*
Y30250D03*
X0Y0D02*
M02*
