G04 DesignSpark PCB Gerber Version 12.0 Build 5941*
G04 #@! TF.Part,Single*
G04 #@! TF.FilePolarity,Positive*
%FSLAX35Y35*%
%MOIN*%
G04 #@! TA.AperFunction,ComponentDrill*
%ADD71C,0.03150*%
%ADD70C,0.03200*%
G04 #@! TA.AperFunction,MechanicalDrill*
%ADD18C,0.03500*%
%ADD19C,0.08661*%
G04 #@! TD.AperFunction*
X0Y0D02*
D02*
D18*
X20250Y50250D03*
Y60250D03*
Y70250D03*
Y80250D03*
Y90250D03*
Y100250D03*
Y110250D03*
Y120250D03*
Y380250D03*
Y390250D03*
Y400250D03*
X40250Y140250D03*
Y190250D03*
Y430250D03*
X50250Y380250D03*
Y430250D03*
X60250Y20250D03*
Y430250D03*
X70250Y20250D03*
Y430250D03*
X80250D03*
X90250Y390250D03*
Y400250D03*
X100250Y430250D03*
X110250Y290250D03*
Y310250D03*
Y330250D03*
Y350250D03*
Y380250D03*
Y390250D03*
Y400250D03*
Y430250D03*
X120250D03*
X140250D03*
X150250D03*
X160250D03*
X180250Y290250D03*
Y310250D03*
Y330250D03*
Y350250D03*
Y430250D03*
X190250D03*
X200250D03*
X300250Y310250D03*
Y330250D03*
X330250Y400250D03*
X360250Y280250D03*
Y300250D03*
X370250Y400250D03*
X390250Y270250D03*
Y350250D03*
X420250Y270250D03*
Y340250D03*
Y370250D03*
X470250Y210250D03*
X510250Y140250D03*
Y150250D03*
Y160250D03*
Y170250D03*
Y180250D03*
X540250Y150250D03*
Y160250D03*
Y170250D03*
Y180250D03*
X570250Y40250D03*
Y130250D03*
Y210250D03*
X580250Y40250D03*
Y140250D03*
X590250Y30250D03*
Y150250D03*
X600250Y20250D03*
Y160250D03*
X610250Y20250D03*
Y30250D03*
Y40250D03*
Y50250D03*
Y60250D03*
Y70250D03*
Y80250D03*
Y90250D03*
Y100250D03*
Y110250D03*
Y120250D03*
Y130250D03*
X620250Y20250D03*
Y30250D03*
Y40250D03*
Y50250D03*
Y60250D03*
Y70250D03*
Y80250D03*
Y90250D03*
Y100250D03*
Y110250D03*
Y120250D03*
Y130250D03*
D02*
D19*
X250250Y280250D03*
Y360250D03*
X255762Y267258D03*
Y347258D03*
X256156Y293242D03*
Y373242D03*
X268360Y261746D03*
Y298754D03*
Y341746D03*
Y378754D03*
X282140Y266864D03*
Y293636D03*
Y346864D03*
Y373636D03*
D02*
D70*
X120250Y210250D03*
Y220250D03*
Y230250D03*
Y240250D03*
X160250Y210250D03*
Y220250D03*
Y230250D03*
Y240250D03*
X300250Y280250D03*
Y300250D03*
Y380250D03*
X320250Y370250D03*
X340250Y280250D03*
Y300250D03*
Y380250D03*
X360250Y370250D03*
D02*
D71*
X480250Y20250D03*
Y30250D03*
X510250Y20250D03*
Y30250D03*
X540250Y20250D03*
Y30250D03*
X0Y0D02*
M02*
