G05
M48
;#@! TF.GenerationSoftware,DesignSpark,DesignSpark PCB,12.0.5940
;#@! TF.CreationDate,2024-12-08T19:19:15+06:00*
;#@! TF.FileFunction,Plated,1,2,PTH
;FILE_FORMAT=3:5
;TYPE=PLATED
INCH,TZ
FMAT,2
T1C000.03150
T2C000.03200
T3C000.03500
T4C000.08661
%
T001
X4.80250Y0.20250
X4.80250Y0.30250
X5.10250Y0.20250
X5.10250Y0.30250
X5.40250Y0.20250
X5.40250Y0.30250
T002
X1.20250Y2.10250
X1.20250Y2.20250
X1.20250Y2.30250
X1.20250Y2.40250
X1.60250Y2.10250
X1.60250Y2.20250
X1.60250Y2.30250
X1.60250Y2.40250
X3.00250Y2.80250
X3.00250Y3.00250
X3.00250Y3.80250
X3.20250Y3.70250
X3.40250Y2.80250
X3.40250Y3.00250
X3.40250Y3.80250
X3.60250Y3.70250
T003
X0.20250Y0.50250
X0.20250Y0.60250
X0.20250Y0.70250
X0.20250Y0.80250
X0.20250Y0.90250
X0.20250Y1.00250
X0.20250Y1.10250
X0.20250Y1.20250
X0.20250Y3.80250
X0.20250Y3.90250
X0.20250Y4.00250
X0.40250Y1.40250
X0.40250Y1.90250
X0.40250Y4.30250
X0.50250Y3.80250
X0.50250Y4.30250
X0.60250Y0.20250
X0.60250Y4.30250
X0.70250Y0.20250
X0.70250Y4.30250
X0.80250Y4.30250
X0.90250Y3.90250
X0.90250Y4.00250
X1.00250Y4.30250
X1.10250Y2.90250
X1.10250Y3.10250
X1.10250Y3.30250
X1.10250Y3.50250
X1.10250Y3.80250
X1.10250Y3.90250
X1.10250Y4.00250
X1.10250Y4.30250
X1.20250Y4.30250
X1.40250Y4.30250
X1.50250Y4.30250
X1.60250Y4.30250
X1.80250Y2.90250
X1.80250Y3.10250
X1.80250Y3.30250
X1.80250Y3.50250
X1.80250Y4.30250
X1.90250Y4.30250
X2.00250Y4.30250
X3.00250Y3.10250
X3.00250Y3.30250
X3.30250Y4.00250
X3.60250Y2.80250
X3.60250Y3.00250
X3.70250Y4.00250
X3.90250Y2.70250
X3.90250Y3.50250
X4.20250Y2.70250
X4.20250Y3.40250
X4.20250Y3.70250
X4.70250Y2.10250
X5.10250Y1.40250
X5.10250Y1.50250
X5.10250Y1.60250
X5.10250Y1.70250
X5.10250Y1.80250
X5.40250Y1.50250
X5.40250Y1.60250
X5.40250Y1.70250
X5.40250Y1.80250
X5.70250Y0.40250
X5.70250Y1.30250
X5.70250Y2.10250
X5.80250Y0.40250
X5.80250Y1.40250
X5.90250Y0.30250
X5.90250Y1.50250
X6.00250Y0.20250
X6.00250Y1.60250
X6.10250Y0.20250
X6.10250Y0.30250
X6.10250Y0.40250
X6.10250Y0.50250
X6.10250Y0.60250
X6.10250Y0.70250
X6.10250Y0.80250
X6.10250Y0.90250
X6.10250Y1.00250
X6.10250Y1.10250
X6.10250Y1.20250
X6.10250Y1.30250
X6.20250Y0.20250
X6.20250Y0.30250
X6.20250Y0.40250
X6.20250Y0.50250
X6.20250Y0.60250
X6.20250Y0.70250
X6.20250Y0.80250
X6.20250Y0.90250
X6.20250Y1.00250
X6.20250Y1.10250
X6.20250Y1.20250
X6.20250Y1.30250
T004
X2.50250Y2.80250
X2.50250Y3.60250
X2.55762Y2.67258
X2.55762Y3.47258
X2.56156Y2.93242
X2.56156Y3.73242
X2.68360Y2.61746
X2.68360Y2.98754
X2.68360Y3.41746
X2.68360Y3.78754
X2.82140Y2.66864
X2.82140Y2.93636
X2.82140Y3.46864
X2.82140Y3.73636
M30
