G04 DesignSpark PCB Gerber Version 12.0 Build 5941*
G04 #@! TF.Part,Single*
G04 #@! TF.FileFunction,Drillmap*
G04 #@! TF.FilePolarity,Positive*
%FSLAX35Y35*%
%MOIN*%
%ADD21C,0.00500*%
G04 #@! TA.AperFunction,WasherPad*
%ADD20C,0.10000*%
G04 #@! TD.AperFunction*
X0Y0D02*
D02*
D20*
X20250Y50250D03*
Y60250D03*
Y70250D03*
Y80250D03*
Y90250D03*
Y100250D03*
Y110250D03*
Y120250D03*
Y380250D03*
Y390250D03*
Y400250D03*
X40250Y140250D03*
Y190250D03*
Y430250D03*
X50250Y380250D03*
Y430250D03*
X60250Y20250D03*
Y430250D03*
X70250Y20250D03*
Y430250D03*
X80250D03*
X90250Y390250D03*
Y400250D03*
X100250Y430250D03*
X110250Y290250D03*
Y310250D03*
Y330250D03*
Y350250D03*
Y380250D03*
Y390250D03*
Y400250D03*
Y430250D03*
X120250Y210250D03*
Y220250D03*
Y230250D03*
Y240250D03*
Y430250D03*
X140250D03*
X150250D03*
X160250Y210250D03*
Y220250D03*
Y230250D03*
Y240250D03*
Y430250D03*
X180250Y290250D03*
Y310250D03*
Y330250D03*
Y350250D03*
Y430250D03*
X190250D03*
X200250D03*
X250250Y280250D03*
Y360250D03*
X255762Y267258D03*
Y347258D03*
X256156Y293242D03*
Y373242D03*
X268360Y261746D03*
Y298754D03*
Y341746D03*
Y378754D03*
X282140Y266864D03*
Y293636D03*
Y346864D03*
Y373636D03*
X300250Y280250D03*
Y300250D03*
Y310250D03*
Y330250D03*
Y380250D03*
X320250Y370250D03*
X330250Y400250D03*
X340250Y280250D03*
Y300250D03*
Y380250D03*
X360250Y280250D03*
Y300250D03*
Y370250D03*
X370250Y400250D03*
X390250Y270250D03*
Y350250D03*
X420250Y270250D03*
Y340250D03*
Y370250D03*
X470250Y210250D03*
X480250Y20250D03*
Y30250D03*
X510250Y20250D03*
Y30250D03*
Y140250D03*
Y150250D03*
Y160250D03*
Y170250D03*
Y180250D03*
X540250Y20250D03*
Y30250D03*
Y150250D03*
Y160250D03*
Y170250D03*
Y180250D03*
X570250Y40250D03*
Y130250D03*
Y210250D03*
X580250Y40250D03*
Y140250D03*
X590250Y30250D03*
Y150250D03*
X600250Y20250D03*
Y160250D03*
X610250Y20250D03*
Y30250D03*
Y40250D03*
Y50250D03*
Y60250D03*
Y70250D03*
Y80250D03*
Y90250D03*
Y100250D03*
Y110250D03*
Y120250D03*
Y130250D03*
X620250Y20250D03*
Y30250D03*
Y40250D03*
Y50250D03*
Y60250D03*
Y70250D03*
Y80250D03*
Y90250D03*
Y100250D03*
Y110250D03*
Y120250D03*
Y130250D03*
D02*
D21*
X32437Y58063D02*
X33063Y57750D01*
X33375Y57125D01*
X33063Y56500D01*
X32437Y56187D01*
X30250D01*
Y59937D01*
X32437D01*
X33063Y59625D01*
X33375Y59000D01*
X33063Y58375D01*
X32437Y58063D01*
X30250D01*
X32437Y68063D02*
X33063Y67750D01*
X33375Y67125D01*
X33063Y66500D01*
X32437Y66187D01*
X30250D01*
Y69937D01*
X32437D01*
X33063Y69625D01*
X33375Y69000D01*
X33063Y68375D01*
X32437Y68063D01*
X30250D01*
X32437Y78063D02*
X33063Y77750D01*
X33375Y77125D01*
X33063Y76500D01*
X32437Y76187D01*
X30250D01*
Y79937D01*
X32437D01*
X33063Y79625D01*
X33375Y79000D01*
X33063Y78375D01*
X32437Y78063D01*
X30250D01*
X32437Y88063D02*
X33063Y87750D01*
X33375Y87125D01*
X33063Y86500D01*
X32437Y86187D01*
X30250D01*
Y89937D01*
X32437D01*
X33063Y89625D01*
X33375Y89000D01*
X33063Y88375D01*
X32437Y88063D01*
X30250D01*
X32437Y98063D02*
X33063Y97750D01*
X33375Y97125D01*
X33063Y96500D01*
X32437Y96187D01*
X30250D01*
Y99937D01*
X32437D01*
X33063Y99625D01*
X33375Y99000D01*
X33063Y98375D01*
X32437Y98063D01*
X30250D01*
X32437Y108063D02*
X33063Y107750D01*
X33375Y107125D01*
X33063Y106500D01*
X32437Y106187D01*
X30250D01*
Y109937D01*
X32437D01*
X33063Y109625D01*
X33375Y109000D01*
X33063Y108375D01*
X32437Y108063D01*
X30250D01*
X32437Y118063D02*
X33063Y117750D01*
X33375Y117125D01*
X33063Y116500D01*
X32437Y116187D01*
X30250D01*
Y119937D01*
X32437D01*
X33063Y119625D01*
X33375Y119000D01*
X33063Y118375D01*
X32437Y118063D01*
X30250D01*
X32437Y128063D02*
X33063Y127750D01*
X33375Y127125D01*
X33063Y126500D01*
X32437Y126187D01*
X30250D01*
Y129937D01*
X32437D01*
X33063Y129625D01*
X33375Y129000D01*
X33063Y128375D01*
X32437Y128063D01*
X30250D01*
X32437Y388063D02*
X33063Y387750D01*
X33375Y387125D01*
X33063Y386500D01*
X32437Y386187D01*
X30250D01*
Y389937D01*
X32437D01*
X33063Y389625D01*
X33375Y389000D01*
X33063Y388375D01*
X32437Y388063D01*
X30250D01*
X32437Y398063D02*
X33063Y397750D01*
X33375Y397125D01*
X33063Y396500D01*
X32437Y396187D01*
X30250D01*
Y399937D01*
X32437D01*
X33063Y399625D01*
X33375Y399000D01*
X33063Y398375D01*
X32437Y398063D01*
X30250D01*
X32437Y408063D02*
X33063Y407750D01*
X33375Y407125D01*
X33063Y406500D01*
X32437Y406187D01*
X30250D01*
Y409937D01*
X32437D01*
X33063Y409625D01*
X33375Y409000D01*
X33063Y408375D01*
X32437Y408063D01*
X30250D01*
X52437Y148063D02*
X53063Y147750D01*
X53375Y147125D01*
X53063Y146500D01*
X52437Y146187D01*
X50250D01*
Y149937D01*
X52437D01*
X53063Y149625D01*
X53375Y149000D01*
X53063Y148375D01*
X52437Y148063D01*
X50250D01*
X52437Y198063D02*
X53063Y197750D01*
X53375Y197125D01*
X53063Y196500D01*
X52437Y196187D01*
X50250D01*
Y199937D01*
X52437D01*
X53063Y199625D01*
X53375Y199000D01*
X53063Y198375D01*
X52437Y198063D01*
X50250D01*
X52437Y438063D02*
X53063Y437750D01*
X53375Y437125D01*
X53063Y436500D01*
X52437Y436187D01*
X50250D01*
Y439937D01*
X52437D01*
X53063Y439625D01*
X53375Y439000D01*
X53063Y438375D01*
X52437Y438063D01*
X50250D01*
X62437Y388063D02*
X63063Y387750D01*
X63375Y387125D01*
X63063Y386500D01*
X62437Y386187D01*
X60250D01*
Y389937D01*
X62437D01*
X63063Y389625D01*
X63375Y389000D01*
X63063Y388375D01*
X62437Y388063D01*
X60250D01*
X62437Y438063D02*
X63063Y437750D01*
X63375Y437125D01*
X63063Y436500D01*
X62437Y436187D01*
X60250D01*
Y439937D01*
X62437D01*
X63063Y439625D01*
X63375Y439000D01*
X63063Y438375D01*
X62437Y438063D01*
X60250D01*
X72437Y28063D02*
X73063Y27750D01*
X73375Y27125D01*
X73063Y26500D01*
X72437Y26187D01*
X70250D01*
Y29937D01*
X72437D01*
X73063Y29625D01*
X73375Y29000D01*
X73063Y28375D01*
X72437Y28063D01*
X70250D01*
X72437Y438063D02*
X73063Y437750D01*
X73375Y437125D01*
X73063Y436500D01*
X72437Y436187D01*
X70250D01*
Y439937D01*
X72437D01*
X73063Y439625D01*
X73375Y439000D01*
X73063Y438375D01*
X72437Y438063D01*
X70250D01*
X82437Y28063D02*
X83063Y27750D01*
X83375Y27125D01*
X83063Y26500D01*
X82437Y26187D01*
X80250D01*
Y29937D01*
X82437D01*
X83063Y29625D01*
X83375Y29000D01*
X83063Y28375D01*
X82437Y28063D01*
X80250D01*
X82437Y438063D02*
X83063Y437750D01*
X83375Y437125D01*
X83063Y436500D01*
X82437Y436187D01*
X80250D01*
Y439937D01*
X82437D01*
X83063Y439625D01*
X83375Y439000D01*
X83063Y438375D01*
X82437Y438063D01*
X80250D01*
X92437D02*
X93063Y437750D01*
X93375Y437125D01*
X93063Y436500D01*
X92437Y436187D01*
X90250D01*
Y439937D01*
X92437D01*
X93063Y439625D01*
X93375Y439000D01*
X93063Y438375D01*
X92437Y438063D01*
X90250D01*
X102437Y398063D02*
X103063Y397750D01*
X103375Y397125D01*
X103063Y396500D01*
X102437Y396187D01*
X100250D01*
Y399937D01*
X102437D01*
X103063Y399625D01*
X103375Y399000D01*
X103063Y398375D01*
X102437Y398063D01*
X100250D01*
X102437Y408063D02*
X103063Y407750D01*
X103375Y407125D01*
X103063Y406500D01*
X102437Y406187D01*
X100250D01*
Y409937D01*
X102437D01*
X103063Y409625D01*
X103375Y409000D01*
X103063Y408375D01*
X102437Y408063D01*
X100250D01*
X112437Y438063D02*
X113063Y437750D01*
X113375Y437125D01*
X113063Y436500D01*
X112437Y436187D01*
X110250D01*
Y439937D01*
X112437D01*
X113063Y439625D01*
X113375Y439000D01*
X113063Y438375D01*
X112437Y438063D01*
X110250D01*
X122437Y298063D02*
X123063Y297750D01*
X123375Y297125D01*
X123063Y296500D01*
X122437Y296187D01*
X120250D01*
Y299937D01*
X122437D01*
X123063Y299625D01*
X123375Y299000D01*
X123063Y298375D01*
X122437Y298063D01*
X120250D01*
X122437Y318063D02*
X123063Y317750D01*
X123375Y317125D01*
X123063Y316500D01*
X122437Y316187D01*
X120250D01*
Y319937D01*
X122437D01*
X123063Y319625D01*
X123375Y319000D01*
X123063Y318375D01*
X122437Y318063D01*
X120250D01*
X122437Y338063D02*
X123063Y337750D01*
X123375Y337125D01*
X123063Y336500D01*
X122437Y336187D01*
X120250D01*
Y339937D01*
X122437D01*
X123063Y339625D01*
X123375Y339000D01*
X123063Y338375D01*
X122437Y338063D01*
X120250D01*
X122437Y358063D02*
X123063Y357750D01*
X123375Y357125D01*
X123063Y356500D01*
X122437Y356187D01*
X120250D01*
Y359937D01*
X122437D01*
X123063Y359625D01*
X123375Y359000D01*
X123063Y358375D01*
X122437Y358063D01*
X120250D01*
X122437Y388063D02*
X123063Y387750D01*
X123375Y387125D01*
X123063Y386500D01*
X122437Y386187D01*
X120250D01*
Y389937D01*
X122437D01*
X123063Y389625D01*
X123375Y389000D01*
X123063Y388375D01*
X122437Y388063D01*
X120250D01*
X122437Y398063D02*
X123063Y397750D01*
X123375Y397125D01*
X123063Y396500D01*
X122437Y396187D01*
X120250D01*
Y399937D01*
X122437D01*
X123063Y399625D01*
X123375Y399000D01*
X123063Y398375D01*
X122437Y398063D01*
X120250D01*
X122437Y408063D02*
X123063Y407750D01*
X123375Y407125D01*
X123063Y406500D01*
X122437Y406187D01*
X120250D01*
Y409937D01*
X122437D01*
X123063Y409625D01*
X123375Y409000D01*
X123063Y408375D01*
X122437Y408063D01*
X120250D01*
X122437Y438063D02*
X123063Y437750D01*
X123375Y437125D01*
X123063Y436500D01*
X122437Y436187D01*
X120250D01*
Y439937D01*
X122437D01*
X123063Y439625D01*
X123375Y439000D01*
X123063Y438375D01*
X122437Y438063D01*
X120250D01*
X130250Y216187D02*
Y219937D01*
X132125D01*
X132750Y219625D01*
X133063Y219313D01*
X133375Y218687D01*
Y217437D01*
X133063Y216813D01*
X132750Y216500D01*
X132125Y216187D01*
X130250D01*
Y226187D02*
Y229937D01*
X132125D01*
X132750Y229625D01*
X133063Y229313D01*
X133375Y228687D01*
Y227437D01*
X133063Y226813D01*
X132750Y226500D01*
X132125Y226187D01*
X130250D01*
Y236187D02*
Y239937D01*
X132125D01*
X132750Y239625D01*
X133063Y239313D01*
X133375Y238687D01*
Y237437D01*
X133063Y236813D01*
X132750Y236500D01*
X132125Y236187D01*
X130250D01*
Y246187D02*
Y249937D01*
X132125D01*
X132750Y249625D01*
X133063Y249313D01*
X133375Y248687D01*
Y247437D01*
X133063Y246813D01*
X132750Y246500D01*
X132125Y246187D01*
X130250D01*
X132437Y438063D02*
X133063Y437750D01*
X133375Y437125D01*
X133063Y436500D01*
X132437Y436187D01*
X130250D01*
Y439937D01*
X132437D01*
X133063Y439625D01*
X133375Y439000D01*
X133063Y438375D01*
X132437Y438063D01*
X130250D01*
X152437D02*
X153063Y437750D01*
X153375Y437125D01*
X153063Y436500D01*
X152437Y436187D01*
X150250D01*
Y439937D01*
X152437D01*
X153063Y439625D01*
X153375Y439000D01*
X153063Y438375D01*
X152437Y438063D01*
X150250D01*
X162437D02*
X163063Y437750D01*
X163375Y437125D01*
X163063Y436500D01*
X162437Y436187D01*
X160250D01*
Y439937D01*
X162437D01*
X163063Y439625D01*
X163375Y439000D01*
X163063Y438375D01*
X162437Y438063D01*
X160250D01*
X170250Y216187D02*
Y219937D01*
X172125D01*
X172750Y219625D01*
X173063Y219313D01*
X173375Y218687D01*
Y217437D01*
X173063Y216813D01*
X172750Y216500D01*
X172125Y216187D01*
X170250D01*
Y226187D02*
Y229937D01*
X172125D01*
X172750Y229625D01*
X173063Y229313D01*
X173375Y228687D01*
Y227437D01*
X173063Y226813D01*
X172750Y226500D01*
X172125Y226187D01*
X170250D01*
Y236187D02*
Y239937D01*
X172125D01*
X172750Y239625D01*
X173063Y239313D01*
X173375Y238687D01*
Y237437D01*
X173063Y236813D01*
X172750Y236500D01*
X172125Y236187D01*
X170250D01*
Y246187D02*
Y249937D01*
X172125D01*
X172750Y249625D01*
X173063Y249313D01*
X173375Y248687D01*
Y247437D01*
X173063Y246813D01*
X172750Y246500D01*
X172125Y246187D01*
X170250D01*
X172437Y438063D02*
X173063Y437750D01*
X173375Y437125D01*
X173063Y436500D01*
X172437Y436187D01*
X170250D01*
Y439937D01*
X172437D01*
X173063Y439625D01*
X173375Y439000D01*
X173063Y438375D01*
X172437Y438063D01*
X170250D01*
X192437Y298063D02*
X193063Y297750D01*
X193375Y297125D01*
X193063Y296500D01*
X192437Y296187D01*
X190250D01*
Y299937D01*
X192437D01*
X193063Y299625D01*
X193375Y299000D01*
X193063Y298375D01*
X192437Y298063D01*
X190250D01*
X192437Y318063D02*
X193063Y317750D01*
X193375Y317125D01*
X193063Y316500D01*
X192437Y316187D01*
X190250D01*
Y319937D01*
X192437D01*
X193063Y319625D01*
X193375Y319000D01*
X193063Y318375D01*
X192437Y318063D01*
X190250D01*
X192437Y338063D02*
X193063Y337750D01*
X193375Y337125D01*
X193063Y336500D01*
X192437Y336187D01*
X190250D01*
Y339937D01*
X192437D01*
X193063Y339625D01*
X193375Y339000D01*
X193063Y338375D01*
X192437Y338063D01*
X190250D01*
X192437Y358063D02*
X193063Y357750D01*
X193375Y357125D01*
X193063Y356500D01*
X192437Y356187D01*
X190250D01*
Y359937D01*
X192437D01*
X193063Y359625D01*
X193375Y359000D01*
X193063Y358375D01*
X192437Y358063D01*
X190250D01*
X192437Y438063D02*
X193063Y437750D01*
X193375Y437125D01*
X193063Y436500D01*
X192437Y436187D01*
X190250D01*
Y439937D01*
X192437D01*
X193063Y439625D01*
X193375Y439000D01*
X193063Y438375D01*
X192437Y438063D01*
X190250D01*
X202437D02*
X203063Y437750D01*
X203375Y437125D01*
X203063Y436500D01*
X202437Y436187D01*
X200250D01*
Y439937D01*
X202437D01*
X203063Y439625D01*
X203375Y439000D01*
X203063Y438375D01*
X202437Y438063D01*
X200250D01*
X212437D02*
X213063Y437750D01*
X213375Y437125D01*
X213063Y436500D01*
X212437Y436187D01*
X210250D01*
Y439937D01*
X212437D01*
X213063Y439625D01*
X213375Y439000D01*
X213063Y438375D01*
X212437Y438063D01*
X210250D01*
X263375Y286813D02*
X263063Y286500D01*
X262437Y286187D01*
X261500D01*
X260875Y286500D01*
X260563Y286813D01*
X260250Y287437D01*
Y288687D01*
X260563Y289313D01*
X260875Y289625D01*
X261500Y289937D01*
X262437D01*
X263063Y289625D01*
X263375Y289313D01*
Y366813D02*
X263063Y366500D01*
X262437Y366187D01*
X261500D01*
X260875Y366500D01*
X260563Y366813D01*
X260250Y367437D01*
Y368687D01*
X260563Y369313D01*
X260875Y369625D01*
X261500Y369937D01*
X262437D01*
X263063Y369625D01*
X263375Y369313D01*
X268887Y273820D02*
X268574Y273508D01*
X267949Y273195D01*
X267012D01*
X266387Y273508D01*
X266074Y273820D01*
X265762Y274445D01*
Y275695D01*
X266074Y276320D01*
X266387Y276633D01*
X267012Y276945D01*
X267949D01*
X268574Y276633D01*
X268887Y276320D01*
Y353820D02*
X268574Y353508D01*
X267949Y353195D01*
X267012D01*
X266387Y353508D01*
X266074Y353820D01*
X265762Y354445D01*
Y355695D01*
X266074Y356320D01*
X266387Y356633D01*
X267012Y356945D01*
X267949D01*
X268574Y356633D01*
X268887Y356320D01*
X269281Y299805D02*
X268968Y299492D01*
X268343Y299180D01*
X267406D01*
X266781Y299492D01*
X266468Y299805D01*
X266156Y300430D01*
Y301680D01*
X266468Y302305D01*
X266781Y302617D01*
X267406Y302930D01*
X268343D01*
X268968Y302617D01*
X269281Y302305D01*
Y379805D02*
X268968Y379492D01*
X268343Y379180D01*
X267406D01*
X266781Y379492D01*
X266468Y379805D01*
X266156Y380430D01*
Y381680D01*
X266468Y382305D01*
X266781Y382617D01*
X267406Y382930D01*
X268343D01*
X268968Y382617D01*
X269281Y382305D01*
X281485Y268309D02*
X281173Y267996D01*
X280548Y267683D01*
X279610D01*
X278985Y267996D01*
X278673Y268309D01*
X278360Y268933D01*
Y270183D01*
X278673Y270809D01*
X278985Y271121D01*
X279610Y271433D01*
X280548D01*
X281173Y271121D01*
X281485Y270809D01*
Y305317D02*
X281173Y305004D01*
X280548Y304691D01*
X279610D01*
X278985Y305004D01*
X278673Y305317D01*
X278360Y305941D01*
Y307191D01*
X278673Y307817D01*
X278985Y308129D01*
X279610Y308441D01*
X280548D01*
X281173Y308129D01*
X281485Y307817D01*
Y348309D02*
X281173Y347996D01*
X280548Y347683D01*
X279610D01*
X278985Y347996D01*
X278673Y348309D01*
X278360Y348933D01*
Y350183D01*
X278673Y350809D01*
X278985Y351121D01*
X279610Y351433D01*
X280548D01*
X281173Y351121D01*
X281485Y350809D01*
Y385317D02*
X281173Y385004D01*
X280548Y384691D01*
X279610D01*
X278985Y385004D01*
X278673Y385317D01*
X278360Y385941D01*
Y387191D01*
X278673Y387817D01*
X278985Y388129D01*
X279610Y388441D01*
X280548D01*
X281173Y388129D01*
X281485Y387817D01*
X295265Y273427D02*
X294952Y273114D01*
X294327Y272802D01*
X293390D01*
X292765Y273114D01*
X292452Y273427D01*
X292140Y274052D01*
Y275302D01*
X292452Y275927D01*
X292765Y276239D01*
X293390Y276552D01*
X294327D01*
X294952Y276239D01*
X295265Y275927D01*
Y300198D02*
X294952Y299886D01*
X294327Y299573D01*
X293390D01*
X292765Y299886D01*
X292452Y300198D01*
X292140Y300823D01*
Y302073D01*
X292452Y302698D01*
X292765Y303011D01*
X293390Y303323D01*
X294327D01*
X294952Y303011D01*
X295265Y302698D01*
Y353427D02*
X294952Y353114D01*
X294327Y352802D01*
X293390D01*
X292765Y353114D01*
X292452Y353427D01*
X292140Y354052D01*
Y355302D01*
X292452Y355927D01*
X292765Y356239D01*
X293390Y356552D01*
X294327D01*
X294952Y356239D01*
X295265Y355927D01*
Y380198D02*
X294952Y379886D01*
X294327Y379573D01*
X293390D01*
X292765Y379886D01*
X292452Y380198D01*
X292140Y380823D01*
Y382073D01*
X292452Y382698D01*
X292765Y383011D01*
X293390Y383323D01*
X294327D01*
X294952Y383011D01*
X295265Y382698D01*
X310250Y286187D02*
Y289937D01*
X312125D01*
X312750Y289625D01*
X313063Y289313D01*
X313375Y288687D01*
Y287437D01*
X313063Y286813D01*
X312750Y286500D01*
X312125Y286187D01*
X310250D01*
Y306187D02*
Y309937D01*
X312125D01*
X312750Y309625D01*
X313063Y309313D01*
X313375Y308687D01*
Y307437D01*
X313063Y306813D01*
X312750Y306500D01*
X312125Y306187D01*
X310250D01*
X312437Y318063D02*
X313063Y317750D01*
X313375Y317125D01*
X313063Y316500D01*
X312437Y316187D01*
X310250D01*
Y319937D01*
X312437D01*
X313063Y319625D01*
X313375Y319000D01*
X313063Y318375D01*
X312437Y318063D01*
X310250D01*
X312437Y338063D02*
X313063Y337750D01*
X313375Y337125D01*
X313063Y336500D01*
X312437Y336187D01*
X310250D01*
Y339937D01*
X312437D01*
X313063Y339625D01*
X313375Y339000D01*
X313063Y338375D01*
X312437Y338063D01*
X310250D01*
Y386187D02*
Y389937D01*
X312125D01*
X312750Y389625D01*
X313063Y389313D01*
X313375Y388687D01*
Y387437D01*
X313063Y386813D01*
X312750Y386500D01*
X312125Y386187D01*
X310250D01*
X330250Y376187D02*
Y379937D01*
X332125D01*
X332750Y379625D01*
X333063Y379313D01*
X333375Y378687D01*
Y377437D01*
X333063Y376813D01*
X332750Y376500D01*
X332125Y376187D01*
X330250D01*
X342437Y408063D02*
X343063Y407750D01*
X343375Y407125D01*
X343063Y406500D01*
X342437Y406187D01*
X340250D01*
Y409937D01*
X342437D01*
X343063Y409625D01*
X343375Y409000D01*
X343063Y408375D01*
X342437Y408063D01*
X340250D01*
X350250Y286187D02*
Y289937D01*
X352125D01*
X352750Y289625D01*
X353063Y289313D01*
X353375Y288687D01*
Y287437D01*
X353063Y286813D01*
X352750Y286500D01*
X352125Y286187D01*
X350250D01*
Y306187D02*
Y309937D01*
X352125D01*
X352750Y309625D01*
X353063Y309313D01*
X353375Y308687D01*
Y307437D01*
X353063Y306813D01*
X352750Y306500D01*
X352125Y306187D01*
X350250D01*
Y386187D02*
Y389937D01*
X352125D01*
X352750Y389625D01*
X353063Y389313D01*
X353375Y388687D01*
Y387437D01*
X353063Y386813D01*
X352750Y386500D01*
X352125Y386187D01*
X350250D01*
X372437Y288063D02*
X373063Y287750D01*
X373375Y287125D01*
X373063Y286500D01*
X372437Y286187D01*
X370250D01*
Y289937D01*
X372437D01*
X373063Y289625D01*
X373375Y289000D01*
X373063Y288375D01*
X372437Y288063D01*
X370250D01*
X372437Y308063D02*
X373063Y307750D01*
X373375Y307125D01*
X373063Y306500D01*
X372437Y306187D01*
X370250D01*
Y309937D01*
X372437D01*
X373063Y309625D01*
X373375Y309000D01*
X373063Y308375D01*
X372437Y308063D01*
X370250D01*
Y376187D02*
Y379937D01*
X372125D01*
X372750Y379625D01*
X373063Y379313D01*
X373375Y378687D01*
Y377437D01*
X373063Y376813D01*
X372750Y376500D01*
X372125Y376187D01*
X370250D01*
X382437Y408063D02*
X383063Y407750D01*
X383375Y407125D01*
X383063Y406500D01*
X382437Y406187D01*
X380250D01*
Y409937D01*
X382437D01*
X383063Y409625D01*
X383375Y409000D01*
X383063Y408375D01*
X382437Y408063D01*
X380250D01*
X402437Y278063D02*
X403063Y277750D01*
X403375Y277125D01*
X403063Y276500D01*
X402437Y276187D01*
X400250D01*
Y279937D01*
X402437D01*
X403063Y279625D01*
X403375Y279000D01*
X403063Y278375D01*
X402437Y278063D01*
X400250D01*
X402437Y358063D02*
X403063Y357750D01*
X403375Y357125D01*
X403063Y356500D01*
X402437Y356187D01*
X400250D01*
Y359937D01*
X402437D01*
X403063Y359625D01*
X403375Y359000D01*
X403063Y358375D01*
X402437Y358063D01*
X400250D01*
X432437Y278063D02*
X433063Y277750D01*
X433375Y277125D01*
X433063Y276500D01*
X432437Y276187D01*
X430250D01*
Y279937D01*
X432437D01*
X433063Y279625D01*
X433375Y279000D01*
X433063Y278375D01*
X432437Y278063D01*
X430250D01*
X432437Y348063D02*
X433063Y347750D01*
X433375Y347125D01*
X433063Y346500D01*
X432437Y346187D01*
X430250D01*
Y349937D01*
X432437D01*
X433063Y349625D01*
X433375Y349000D01*
X433063Y348375D01*
X432437Y348063D01*
X430250D01*
X432437Y378063D02*
X433063Y377750D01*
X433375Y377125D01*
X433063Y376500D01*
X432437Y376187D01*
X430250D01*
Y379937D01*
X432437D01*
X433063Y379625D01*
X433375Y379000D01*
X433063Y378375D01*
X432437Y378063D01*
X430250D01*
X482437Y218063D02*
X483063Y217750D01*
X483375Y217125D01*
X483063Y216500D01*
X482437Y216187D01*
X480250D01*
Y219937D01*
X482437D01*
X483063Y219625D01*
X483375Y219000D01*
X483063Y218375D01*
X482437Y218063D01*
X480250D01*
X490250Y26187D02*
Y29937D01*
X493375D01*
X492750Y28063D02*
X490250D01*
Y26187D02*
X493375D01*
X490250Y36187D02*
Y39937D01*
X493375D01*
X492750Y38063D02*
X490250D01*
Y36187D02*
X493375D01*
X520250Y26187D02*
Y29937D01*
X523375D01*
X522750Y28063D02*
X520250D01*
Y26187D02*
X523375D01*
X520250Y36187D02*
Y39937D01*
X523375D01*
X522750Y38063D02*
X520250D01*
Y36187D02*
X523375D01*
X522437Y148063D02*
X523063Y147750D01*
X523375Y147125D01*
X523063Y146500D01*
X522437Y146187D01*
X520250D01*
Y149937D01*
X522437D01*
X523063Y149625D01*
X523375Y149000D01*
X523063Y148375D01*
X522437Y148063D01*
X520250D01*
X522437Y158063D02*
X523063Y157750D01*
X523375Y157125D01*
X523063Y156500D01*
X522437Y156187D01*
X520250D01*
Y159937D01*
X522437D01*
X523063Y159625D01*
X523375Y159000D01*
X523063Y158375D01*
X522437Y158063D01*
X520250D01*
X522437Y168063D02*
X523063Y167750D01*
X523375Y167125D01*
X523063Y166500D01*
X522437Y166187D01*
X520250D01*
Y169937D01*
X522437D01*
X523063Y169625D01*
X523375Y169000D01*
X523063Y168375D01*
X522437Y168063D01*
X520250D01*
X522437Y178063D02*
X523063Y177750D01*
X523375Y177125D01*
X523063Y176500D01*
X522437Y176187D01*
X520250D01*
Y179937D01*
X522437D01*
X523063Y179625D01*
X523375Y179000D01*
X523063Y178375D01*
X522437Y178063D01*
X520250D01*
X522437Y188063D02*
X523063Y187750D01*
X523375Y187125D01*
X523063Y186500D01*
X522437Y186187D01*
X520250D01*
Y189937D01*
X522437D01*
X523063Y189625D01*
X523375Y189000D01*
X523063Y188375D01*
X522437Y188063D01*
X520250D01*
X550250Y26187D02*
Y29937D01*
X553375D01*
X552750Y28063D02*
X550250D01*
Y26187D02*
X553375D01*
X550250Y36187D02*
Y39937D01*
X553375D01*
X552750Y38063D02*
X550250D01*
Y36187D02*
X553375D01*
X552437Y158063D02*
X553063Y157750D01*
X553375Y157125D01*
X553063Y156500D01*
X552437Y156187D01*
X550250D01*
Y159937D01*
X552437D01*
X553063Y159625D01*
X553375Y159000D01*
X553063Y158375D01*
X552437Y158063D01*
X550250D01*
X552437Y168063D02*
X553063Y167750D01*
X553375Y167125D01*
X553063Y166500D01*
X552437Y166187D01*
X550250D01*
Y169937D01*
X552437D01*
X553063Y169625D01*
X553375Y169000D01*
X553063Y168375D01*
X552437Y168063D01*
X550250D01*
X552437Y178063D02*
X553063Y177750D01*
X553375Y177125D01*
X553063Y176500D01*
X552437Y176187D01*
X550250D01*
Y179937D01*
X552437D01*
X553063Y179625D01*
X553375Y179000D01*
X553063Y178375D01*
X552437Y178063D01*
X550250D01*
X552437Y188063D02*
X553063Y187750D01*
X553375Y187125D01*
X553063Y186500D01*
X552437Y186187D01*
X550250D01*
Y189937D01*
X552437D01*
X553063Y189625D01*
X553375Y189000D01*
X553063Y188375D01*
X552437Y188063D01*
X550250D01*
X582437Y48063D02*
X583063Y47750D01*
X583375Y47125D01*
X583063Y46500D01*
X582437Y46187D01*
X580250D01*
Y49937D01*
X582437D01*
X583063Y49625D01*
X583375Y49000D01*
X583063Y48375D01*
X582437Y48063D01*
X580250D01*
X582437Y138063D02*
X583063Y137750D01*
X583375Y137125D01*
X583063Y136500D01*
X582437Y136187D01*
X580250D01*
Y139937D01*
X582437D01*
X583063Y139625D01*
X583375Y139000D01*
X583063Y138375D01*
X582437Y138063D01*
X580250D01*
X582437Y218063D02*
X583063Y217750D01*
X583375Y217125D01*
X583063Y216500D01*
X582437Y216187D01*
X580250D01*
Y219937D01*
X582437D01*
X583063Y219625D01*
X583375Y219000D01*
X583063Y218375D01*
X582437Y218063D01*
X580250D01*
X592437Y48063D02*
X593063Y47750D01*
X593375Y47125D01*
X593063Y46500D01*
X592437Y46187D01*
X590250D01*
Y49937D01*
X592437D01*
X593063Y49625D01*
X593375Y49000D01*
X593063Y48375D01*
X592437Y48063D01*
X590250D01*
X592437Y148063D02*
X593063Y147750D01*
X593375Y147125D01*
X593063Y146500D01*
X592437Y146187D01*
X590250D01*
Y149937D01*
X592437D01*
X593063Y149625D01*
X593375Y149000D01*
X593063Y148375D01*
X592437Y148063D01*
X590250D01*
X602437Y38063D02*
X603063Y37750D01*
X603375Y37125D01*
X603063Y36500D01*
X602437Y36187D01*
X600250D01*
Y39937D01*
X602437D01*
X603063Y39625D01*
X603375Y39000D01*
X603063Y38375D01*
X602437Y38063D01*
X600250D01*
X602437Y158063D02*
X603063Y157750D01*
X603375Y157125D01*
X603063Y156500D01*
X602437Y156187D01*
X600250D01*
Y159937D01*
X602437D01*
X603063Y159625D01*
X603375Y159000D01*
X603063Y158375D01*
X602437Y158063D01*
X600250D01*
X612437Y28063D02*
X613063Y27750D01*
X613375Y27125D01*
X613063Y26500D01*
X612437Y26187D01*
X610250D01*
Y29937D01*
X612437D01*
X613063Y29625D01*
X613375Y29000D01*
X613063Y28375D01*
X612437Y28063D01*
X610250D01*
X612437Y168063D02*
X613063Y167750D01*
X613375Y167125D01*
X613063Y166500D01*
X612437Y166187D01*
X610250D01*
Y169937D01*
X612437D01*
X613063Y169625D01*
X613375Y169000D01*
X613063Y168375D01*
X612437Y168063D01*
X610250D01*
X622437Y28063D02*
X623063Y27750D01*
X623375Y27125D01*
X623063Y26500D01*
X622437Y26187D01*
X620250D01*
Y29937D01*
X622437D01*
X623063Y29625D01*
X623375Y29000D01*
X623063Y28375D01*
X622437Y28063D01*
X620250D01*
X622437Y38063D02*
X623063Y37750D01*
X623375Y37125D01*
X623063Y36500D01*
X622437Y36187D01*
X620250D01*
Y39937D01*
X622437D01*
X623063Y39625D01*
X623375Y39000D01*
X623063Y38375D01*
X622437Y38063D01*
X620250D01*
X622437Y48063D02*
X623063Y47750D01*
X623375Y47125D01*
X623063Y46500D01*
X622437Y46187D01*
X620250D01*
Y49937D01*
X622437D01*
X623063Y49625D01*
X623375Y49000D01*
X623063Y48375D01*
X622437Y48063D01*
X620250D01*
X622437Y58063D02*
X623063Y57750D01*
X623375Y57125D01*
X623063Y56500D01*
X622437Y56187D01*
X620250D01*
Y59937D01*
X622437D01*
X623063Y59625D01*
X623375Y59000D01*
X623063Y58375D01*
X622437Y58063D01*
X620250D01*
X622437Y68063D02*
X623063Y67750D01*
X623375Y67125D01*
X623063Y66500D01*
X622437Y66187D01*
X620250D01*
Y69937D01*
X622437D01*
X623063Y69625D01*
X623375Y69000D01*
X623063Y68375D01*
X622437Y68063D01*
X620250D01*
X622437Y78063D02*
X623063Y77750D01*
X623375Y77125D01*
X623063Y76500D01*
X622437Y76187D01*
X620250D01*
Y79937D01*
X622437D01*
X623063Y79625D01*
X623375Y79000D01*
X623063Y78375D01*
X622437Y78063D01*
X620250D01*
X622437Y88063D02*
X623063Y87750D01*
X623375Y87125D01*
X623063Y86500D01*
X622437Y86187D01*
X620250D01*
Y89937D01*
X622437D01*
X623063Y89625D01*
X623375Y89000D01*
X623063Y88375D01*
X622437Y88063D01*
X620250D01*
X622437Y98063D02*
X623063Y97750D01*
X623375Y97125D01*
X623063Y96500D01*
X622437Y96187D01*
X620250D01*
Y99937D01*
X622437D01*
X623063Y99625D01*
X623375Y99000D01*
X623063Y98375D01*
X622437Y98063D01*
X620250D01*
X622437Y108063D02*
X623063Y107750D01*
X623375Y107125D01*
X623063Y106500D01*
X622437Y106187D01*
X620250D01*
Y109937D01*
X622437D01*
X623063Y109625D01*
X623375Y109000D01*
X623063Y108375D01*
X622437Y108063D01*
X620250D01*
X622437Y118063D02*
X623063Y117750D01*
X623375Y117125D01*
X623063Y116500D01*
X622437Y116187D01*
X620250D01*
Y119937D01*
X622437D01*
X623063Y119625D01*
X623375Y119000D01*
X623063Y118375D01*
X622437Y118063D01*
X620250D01*
X622437Y128063D02*
X623063Y127750D01*
X623375Y127125D01*
X623063Y126500D01*
X622437Y126187D01*
X620250D01*
Y129937D01*
X622437D01*
X623063Y129625D01*
X623375Y129000D01*
X623063Y128375D01*
X622437Y128063D01*
X620250D01*
X622437Y138063D02*
X623063Y137750D01*
X623375Y137125D01*
X623063Y136500D01*
X622437Y136187D01*
X620250D01*
Y139937D01*
X622437D01*
X623063Y139625D01*
X623375Y139000D01*
X623063Y138375D01*
X622437Y138063D01*
X620250D01*
X632437Y28063D02*
X633063Y27750D01*
X633375Y27125D01*
X633063Y26500D01*
X632437Y26187D01*
X630250D01*
Y29937D01*
X632437D01*
X633063Y29625D01*
X633375Y29000D01*
X633063Y28375D01*
X632437Y28063D01*
X630250D01*
X632437Y38063D02*
X633063Y37750D01*
X633375Y37125D01*
X633063Y36500D01*
X632437Y36187D01*
X630250D01*
Y39937D01*
X632437D01*
X633063Y39625D01*
X633375Y39000D01*
X633063Y38375D01*
X632437Y38063D01*
X630250D01*
X632437Y48063D02*
X633063Y47750D01*
X633375Y47125D01*
X633063Y46500D01*
X632437Y46187D01*
X630250D01*
Y49937D01*
X632437D01*
X633063Y49625D01*
X633375Y49000D01*
X633063Y48375D01*
X632437Y48063D01*
X630250D01*
X632437Y58063D02*
X633063Y57750D01*
X633375Y57125D01*
X633063Y56500D01*
X632437Y56187D01*
X630250D01*
Y59937D01*
X632437D01*
X633063Y59625D01*
X633375Y59000D01*
X633063Y58375D01*
X632437Y58063D01*
X630250D01*
X632437Y68063D02*
X633063Y67750D01*
X633375Y67125D01*
X633063Y66500D01*
X632437Y66187D01*
X630250D01*
Y69937D01*
X632437D01*
X633063Y69625D01*
X633375Y69000D01*
X633063Y68375D01*
X632437Y68063D01*
X630250D01*
X632437Y78063D02*
X633063Y77750D01*
X633375Y77125D01*
X633063Y76500D01*
X632437Y76187D01*
X630250D01*
Y79937D01*
X632437D01*
X633063Y79625D01*
X633375Y79000D01*
X633063Y78375D01*
X632437Y78063D01*
X630250D01*
X632437Y88063D02*
X633063Y87750D01*
X633375Y87125D01*
X633063Y86500D01*
X632437Y86187D01*
X630250D01*
Y89937D01*
X632437D01*
X633063Y89625D01*
X633375Y89000D01*
X633063Y88375D01*
X632437Y88063D01*
X630250D01*
X632437Y98063D02*
X633063Y97750D01*
X633375Y97125D01*
X633063Y96500D01*
X632437Y96187D01*
X630250D01*
Y99937D01*
X632437D01*
X633063Y99625D01*
X633375Y99000D01*
X633063Y98375D01*
X632437Y98063D01*
X630250D01*
X632437Y108063D02*
X633063Y107750D01*
X633375Y107125D01*
X633063Y106500D01*
X632437Y106187D01*
X630250D01*
Y109937D01*
X632437D01*
X633063Y109625D01*
X633375Y109000D01*
X633063Y108375D01*
X632437Y108063D01*
X630250D01*
X632437Y118063D02*
X633063Y117750D01*
X633375Y117125D01*
X633063Y116500D01*
X632437Y116187D01*
X630250D01*
Y119937D01*
X632437D01*
X633063Y119625D01*
X633375Y119000D01*
X633063Y118375D01*
X632437Y118063D01*
X630250D01*
X632437Y128063D02*
X633063Y127750D01*
X633375Y127125D01*
X633063Y126500D01*
X632437Y126187D01*
X630250D01*
Y129937D01*
X632437D01*
X633063Y129625D01*
X633375Y129000D01*
X633063Y128375D01*
X632437Y128063D01*
X630250D01*
X632437Y138063D02*
X633063Y137750D01*
X633375Y137125D01*
X633063Y136500D01*
X632437Y136187D01*
X630250D01*
Y139937D01*
X632437D01*
X633063Y139625D01*
X633375Y139000D01*
X633063Y138375D01*
X632437Y138063D01*
X630250D01*
X0Y0D02*
M02*
