G04 DesignSpark PCB Gerber Version 12.0 Build 5941*
G04 #@! TF.Part,Single*
G04 #@! TF.FileFunction,Drillmap*
G04 #@! TF.FilePolarity,Positive*
%FSLAX35Y35*%
%MOIN*%
%ADD15C,0.00500*%
G04 #@! TA.AperFunction,WasherPad*
%ADD14C,0.10000*%
G04 #@! TD.AperFunction*
X0Y0D02*
D02*
D14*
X20250Y20250D03*
Y30250D03*
Y40250D03*
Y50250D03*
Y60250D03*
Y70250D03*
Y80250D03*
Y90250D03*
Y100250D03*
Y110250D03*
Y120250D03*
Y130250D03*
Y140250D03*
Y150250D03*
Y160250D03*
Y170250D03*
X70250Y20250D03*
Y30250D03*
Y40250D03*
Y50250D03*
Y60250D03*
Y70250D03*
Y80250D03*
Y90250D03*
Y100250D03*
Y110250D03*
Y120250D03*
Y130250D03*
Y140250D03*
Y150250D03*
Y160250D03*
Y170250D03*
X120250Y20250D03*
Y30250D03*
Y40250D03*
Y50250D03*
Y60250D03*
Y70250D03*
Y80250D03*
Y90250D03*
Y100250D03*
Y110250D03*
Y120250D03*
Y130250D03*
Y140250D03*
Y150250D03*
Y160250D03*
Y170250D03*
X150250Y20250D03*
Y30250D03*
Y40250D03*
Y50250D03*
Y60250D03*
Y70250D03*
Y90250D03*
Y100250D03*
Y110250D03*
Y120250D03*
Y130250D03*
Y140250D03*
Y150250D03*
Y160250D03*
Y170250D03*
X160250Y20250D03*
Y30250D03*
Y40250D03*
Y50250D03*
Y60250D03*
Y70250D03*
Y90250D03*
Y100250D03*
Y110250D03*
Y120250D03*
Y130250D03*
Y140250D03*
Y150250D03*
Y160250D03*
Y170250D03*
X210015Y80250D03*
Y90250D03*
Y100250D03*
Y110250D03*
X210250Y20250D03*
Y30250D03*
Y40250D03*
Y50250D03*
Y60250D03*
Y70250D03*
Y120250D03*
Y130250D03*
Y140250D03*
Y150250D03*
Y160250D03*
X220015Y80250D03*
Y90250D03*
Y100250D03*
Y110250D03*
X220250Y20250D03*
Y30250D03*
Y40250D03*
Y50250D03*
Y60250D03*
Y70250D03*
Y120250D03*
Y130250D03*
Y140250D03*
Y150250D03*
Y160250D03*
X250015Y80250D03*
Y90250D03*
Y100250D03*
Y110250D03*
X250250Y20250D03*
Y30250D03*
Y40250D03*
Y50250D03*
Y60250D03*
Y70250D03*
Y120250D03*
Y130250D03*
Y140250D03*
Y150250D03*
Y160250D03*
X260250Y180250D03*
Y230250D03*
X270250Y180250D03*
Y230250D03*
X280250Y180250D03*
Y230250D03*
X290250Y180250D03*
Y230250D03*
X300250Y20250D03*
Y30250D03*
Y40250D03*
Y50250D03*
Y60250D03*
Y70250D03*
Y80250D03*
Y90250D03*
Y180250D03*
Y230250D03*
X350250Y20250D03*
Y30250D03*
Y40250D03*
Y50250D03*
Y60250D03*
Y70250D03*
Y80250D03*
Y90250D03*
D02*
D15*
X32437Y28063D02*
X33063Y27750D01*
X33375Y27125D01*
X33063Y26500D01*
X32437Y26187D01*
X30250D01*
Y29937D01*
X32437D01*
X33063Y29625D01*
X33375Y29000D01*
X33063Y28375D01*
X32437Y28063D01*
X30250D01*
X32437Y38063D02*
X33063Y37750D01*
X33375Y37125D01*
X33063Y36500D01*
X32437Y36187D01*
X30250D01*
Y39937D01*
X32437D01*
X33063Y39625D01*
X33375Y39000D01*
X33063Y38375D01*
X32437Y38063D01*
X30250D01*
X32437Y48063D02*
X33063Y47750D01*
X33375Y47125D01*
X33063Y46500D01*
X32437Y46187D01*
X30250D01*
Y49937D01*
X32437D01*
X33063Y49625D01*
X33375Y49000D01*
X33063Y48375D01*
X32437Y48063D01*
X30250D01*
X32437Y58063D02*
X33063Y57750D01*
X33375Y57125D01*
X33063Y56500D01*
X32437Y56187D01*
X30250D01*
Y59937D01*
X32437D01*
X33063Y59625D01*
X33375Y59000D01*
X33063Y58375D01*
X32437Y58063D01*
X30250D01*
X32437Y68063D02*
X33063Y67750D01*
X33375Y67125D01*
X33063Y66500D01*
X32437Y66187D01*
X30250D01*
Y69937D01*
X32437D01*
X33063Y69625D01*
X33375Y69000D01*
X33063Y68375D01*
X32437Y68063D01*
X30250D01*
X32437Y78063D02*
X33063Y77750D01*
X33375Y77125D01*
X33063Y76500D01*
X32437Y76187D01*
X30250D01*
Y79937D01*
X32437D01*
X33063Y79625D01*
X33375Y79000D01*
X33063Y78375D01*
X32437Y78063D01*
X30250D01*
X32437Y88063D02*
X33063Y87750D01*
X33375Y87125D01*
X33063Y86500D01*
X32437Y86187D01*
X30250D01*
Y89937D01*
X32437D01*
X33063Y89625D01*
X33375Y89000D01*
X33063Y88375D01*
X32437Y88063D01*
X30250D01*
X32437Y98063D02*
X33063Y97750D01*
X33375Y97125D01*
X33063Y96500D01*
X32437Y96187D01*
X30250D01*
Y99937D01*
X32437D01*
X33063Y99625D01*
X33375Y99000D01*
X33063Y98375D01*
X32437Y98063D01*
X30250D01*
X32437Y108063D02*
X33063Y107750D01*
X33375Y107125D01*
X33063Y106500D01*
X32437Y106187D01*
X30250D01*
Y109937D01*
X32437D01*
X33063Y109625D01*
X33375Y109000D01*
X33063Y108375D01*
X32437Y108063D01*
X30250D01*
X32437Y118063D02*
X33063Y117750D01*
X33375Y117125D01*
X33063Y116500D01*
X32437Y116187D01*
X30250D01*
Y119937D01*
X32437D01*
X33063Y119625D01*
X33375Y119000D01*
X33063Y118375D01*
X32437Y118063D01*
X30250D01*
X32437Y128063D02*
X33063Y127750D01*
X33375Y127125D01*
X33063Y126500D01*
X32437Y126187D01*
X30250D01*
Y129937D01*
X32437D01*
X33063Y129625D01*
X33375Y129000D01*
X33063Y128375D01*
X32437Y128063D01*
X30250D01*
X32437Y138063D02*
X33063Y137750D01*
X33375Y137125D01*
X33063Y136500D01*
X32437Y136187D01*
X30250D01*
Y139937D01*
X32437D01*
X33063Y139625D01*
X33375Y139000D01*
X33063Y138375D01*
X32437Y138063D01*
X30250D01*
X32437Y148063D02*
X33063Y147750D01*
X33375Y147125D01*
X33063Y146500D01*
X32437Y146187D01*
X30250D01*
Y149937D01*
X32437D01*
X33063Y149625D01*
X33375Y149000D01*
X33063Y148375D01*
X32437Y148063D01*
X30250D01*
X32437Y158063D02*
X33063Y157750D01*
X33375Y157125D01*
X33063Y156500D01*
X32437Y156187D01*
X30250D01*
Y159937D01*
X32437D01*
X33063Y159625D01*
X33375Y159000D01*
X33063Y158375D01*
X32437Y158063D01*
X30250D01*
X32437Y168063D02*
X33063Y167750D01*
X33375Y167125D01*
X33063Y166500D01*
X32437Y166187D01*
X30250D01*
Y169937D01*
X32437D01*
X33063Y169625D01*
X33375Y169000D01*
X33063Y168375D01*
X32437Y168063D01*
X30250D01*
X32437Y178063D02*
X33063Y177750D01*
X33375Y177125D01*
X33063Y176500D01*
X32437Y176187D01*
X30250D01*
Y179937D01*
X32437D01*
X33063Y179625D01*
X33375Y179000D01*
X33063Y178375D01*
X32437Y178063D01*
X30250D01*
X82437Y28063D02*
X83063Y27750D01*
X83375Y27125D01*
X83063Y26500D01*
X82437Y26187D01*
X80250D01*
Y29937D01*
X82437D01*
X83063Y29625D01*
X83375Y29000D01*
X83063Y28375D01*
X82437Y28063D01*
X80250D01*
X82437Y38063D02*
X83063Y37750D01*
X83375Y37125D01*
X83063Y36500D01*
X82437Y36187D01*
X80250D01*
Y39937D01*
X82437D01*
X83063Y39625D01*
X83375Y39000D01*
X83063Y38375D01*
X82437Y38063D01*
X80250D01*
X82437Y48063D02*
X83063Y47750D01*
X83375Y47125D01*
X83063Y46500D01*
X82437Y46187D01*
X80250D01*
Y49937D01*
X82437D01*
X83063Y49625D01*
X83375Y49000D01*
X83063Y48375D01*
X82437Y48063D01*
X80250D01*
X82437Y58063D02*
X83063Y57750D01*
X83375Y57125D01*
X83063Y56500D01*
X82437Y56187D01*
X80250D01*
Y59937D01*
X82437D01*
X83063Y59625D01*
X83375Y59000D01*
X83063Y58375D01*
X82437Y58063D01*
X80250D01*
X82437Y68063D02*
X83063Y67750D01*
X83375Y67125D01*
X83063Y66500D01*
X82437Y66187D01*
X80250D01*
Y69937D01*
X82437D01*
X83063Y69625D01*
X83375Y69000D01*
X83063Y68375D01*
X82437Y68063D01*
X80250D01*
X82437Y78063D02*
X83063Y77750D01*
X83375Y77125D01*
X83063Y76500D01*
X82437Y76187D01*
X80250D01*
Y79937D01*
X82437D01*
X83063Y79625D01*
X83375Y79000D01*
X83063Y78375D01*
X82437Y78063D01*
X80250D01*
X82437Y88063D02*
X83063Y87750D01*
X83375Y87125D01*
X83063Y86500D01*
X82437Y86187D01*
X80250D01*
Y89937D01*
X82437D01*
X83063Y89625D01*
X83375Y89000D01*
X83063Y88375D01*
X82437Y88063D01*
X80250D01*
X82437Y98063D02*
X83063Y97750D01*
X83375Y97125D01*
X83063Y96500D01*
X82437Y96187D01*
X80250D01*
Y99937D01*
X82437D01*
X83063Y99625D01*
X83375Y99000D01*
X83063Y98375D01*
X82437Y98063D01*
X80250D01*
X82437Y108063D02*
X83063Y107750D01*
X83375Y107125D01*
X83063Y106500D01*
X82437Y106187D01*
X80250D01*
Y109937D01*
X82437D01*
X83063Y109625D01*
X83375Y109000D01*
X83063Y108375D01*
X82437Y108063D01*
X80250D01*
X82437Y118063D02*
X83063Y117750D01*
X83375Y117125D01*
X83063Y116500D01*
X82437Y116187D01*
X80250D01*
Y119937D01*
X82437D01*
X83063Y119625D01*
X83375Y119000D01*
X83063Y118375D01*
X82437Y118063D01*
X80250D01*
X82437Y128063D02*
X83063Y127750D01*
X83375Y127125D01*
X83063Y126500D01*
X82437Y126187D01*
X80250D01*
Y129937D01*
X82437D01*
X83063Y129625D01*
X83375Y129000D01*
X83063Y128375D01*
X82437Y128063D01*
X80250D01*
X82437Y138063D02*
X83063Y137750D01*
X83375Y137125D01*
X83063Y136500D01*
X82437Y136187D01*
X80250D01*
Y139937D01*
X82437D01*
X83063Y139625D01*
X83375Y139000D01*
X83063Y138375D01*
X82437Y138063D01*
X80250D01*
X82437Y148063D02*
X83063Y147750D01*
X83375Y147125D01*
X83063Y146500D01*
X82437Y146187D01*
X80250D01*
Y149937D01*
X82437D01*
X83063Y149625D01*
X83375Y149000D01*
X83063Y148375D01*
X82437Y148063D01*
X80250D01*
X82437Y158063D02*
X83063Y157750D01*
X83375Y157125D01*
X83063Y156500D01*
X82437Y156187D01*
X80250D01*
Y159937D01*
X82437D01*
X83063Y159625D01*
X83375Y159000D01*
X83063Y158375D01*
X82437Y158063D01*
X80250D01*
X82437Y168063D02*
X83063Y167750D01*
X83375Y167125D01*
X83063Y166500D01*
X82437Y166187D01*
X80250D01*
Y169937D01*
X82437D01*
X83063Y169625D01*
X83375Y169000D01*
X83063Y168375D01*
X82437Y168063D01*
X80250D01*
X82437Y178063D02*
X83063Y177750D01*
X83375Y177125D01*
X83063Y176500D01*
X82437Y176187D01*
X80250D01*
Y179937D01*
X82437D01*
X83063Y179625D01*
X83375Y179000D01*
X83063Y178375D01*
X82437Y178063D01*
X80250D01*
X132437Y28063D02*
X133063Y27750D01*
X133375Y27125D01*
X133063Y26500D01*
X132437Y26187D01*
X130250D01*
Y29937D01*
X132437D01*
X133063Y29625D01*
X133375Y29000D01*
X133063Y28375D01*
X132437Y28063D01*
X130250D01*
X132437Y38063D02*
X133063Y37750D01*
X133375Y37125D01*
X133063Y36500D01*
X132437Y36187D01*
X130250D01*
Y39937D01*
X132437D01*
X133063Y39625D01*
X133375Y39000D01*
X133063Y38375D01*
X132437Y38063D01*
X130250D01*
X132437Y48063D02*
X133063Y47750D01*
X133375Y47125D01*
X133063Y46500D01*
X132437Y46187D01*
X130250D01*
Y49937D01*
X132437D01*
X133063Y49625D01*
X133375Y49000D01*
X133063Y48375D01*
X132437Y48063D01*
X130250D01*
X132437Y58063D02*
X133063Y57750D01*
X133375Y57125D01*
X133063Y56500D01*
X132437Y56187D01*
X130250D01*
Y59937D01*
X132437D01*
X133063Y59625D01*
X133375Y59000D01*
X133063Y58375D01*
X132437Y58063D01*
X130250D01*
X132437Y68063D02*
X133063Y67750D01*
X133375Y67125D01*
X133063Y66500D01*
X132437Y66187D01*
X130250D01*
Y69937D01*
X132437D01*
X133063Y69625D01*
X133375Y69000D01*
X133063Y68375D01*
X132437Y68063D01*
X130250D01*
X132437Y78063D02*
X133063Y77750D01*
X133375Y77125D01*
X133063Y76500D01*
X132437Y76187D01*
X130250D01*
Y79937D01*
X132437D01*
X133063Y79625D01*
X133375Y79000D01*
X133063Y78375D01*
X132437Y78063D01*
X130250D01*
X132437Y88063D02*
X133063Y87750D01*
X133375Y87125D01*
X133063Y86500D01*
X132437Y86187D01*
X130250D01*
Y89937D01*
X132437D01*
X133063Y89625D01*
X133375Y89000D01*
X133063Y88375D01*
X132437Y88063D01*
X130250D01*
X132437Y98063D02*
X133063Y97750D01*
X133375Y97125D01*
X133063Y96500D01*
X132437Y96187D01*
X130250D01*
Y99937D01*
X132437D01*
X133063Y99625D01*
X133375Y99000D01*
X133063Y98375D01*
X132437Y98063D01*
X130250D01*
X132437Y108063D02*
X133063Y107750D01*
X133375Y107125D01*
X133063Y106500D01*
X132437Y106187D01*
X130250D01*
Y109937D01*
X132437D01*
X133063Y109625D01*
X133375Y109000D01*
X133063Y108375D01*
X132437Y108063D01*
X130250D01*
X132437Y118063D02*
X133063Y117750D01*
X133375Y117125D01*
X133063Y116500D01*
X132437Y116187D01*
X130250D01*
Y119937D01*
X132437D01*
X133063Y119625D01*
X133375Y119000D01*
X133063Y118375D01*
X132437Y118063D01*
X130250D01*
X132437Y128063D02*
X133063Y127750D01*
X133375Y127125D01*
X133063Y126500D01*
X132437Y126187D01*
X130250D01*
Y129937D01*
X132437D01*
X133063Y129625D01*
X133375Y129000D01*
X133063Y128375D01*
X132437Y128063D01*
X130250D01*
X132437Y138063D02*
X133063Y137750D01*
X133375Y137125D01*
X133063Y136500D01*
X132437Y136187D01*
X130250D01*
Y139937D01*
X132437D01*
X133063Y139625D01*
X133375Y139000D01*
X133063Y138375D01*
X132437Y138063D01*
X130250D01*
X132437Y148063D02*
X133063Y147750D01*
X133375Y147125D01*
X133063Y146500D01*
X132437Y146187D01*
X130250D01*
Y149937D01*
X132437D01*
X133063Y149625D01*
X133375Y149000D01*
X133063Y148375D01*
X132437Y148063D01*
X130250D01*
X132437Y158063D02*
X133063Y157750D01*
X133375Y157125D01*
X133063Y156500D01*
X132437Y156187D01*
X130250D01*
Y159937D01*
X132437D01*
X133063Y159625D01*
X133375Y159000D01*
X133063Y158375D01*
X132437Y158063D01*
X130250D01*
X132437Y168063D02*
X133063Y167750D01*
X133375Y167125D01*
X133063Y166500D01*
X132437Y166187D01*
X130250D01*
Y169937D01*
X132437D01*
X133063Y169625D01*
X133375Y169000D01*
X133063Y168375D01*
X132437Y168063D01*
X130250D01*
X132437Y178063D02*
X133063Y177750D01*
X133375Y177125D01*
X133063Y176500D01*
X132437Y176187D01*
X130250D01*
Y179937D01*
X132437D01*
X133063Y179625D01*
X133375Y179000D01*
X133063Y178375D01*
X132437Y178063D01*
X130250D01*
X162437Y28063D02*
X163063Y27750D01*
X163375Y27125D01*
X163063Y26500D01*
X162437Y26187D01*
X160250D01*
Y29937D01*
X162437D01*
X163063Y29625D01*
X163375Y29000D01*
X163063Y28375D01*
X162437Y28063D01*
X160250D01*
X162437Y38063D02*
X163063Y37750D01*
X163375Y37125D01*
X163063Y36500D01*
X162437Y36187D01*
X160250D01*
Y39937D01*
X162437D01*
X163063Y39625D01*
X163375Y39000D01*
X163063Y38375D01*
X162437Y38063D01*
X160250D01*
X162437Y48063D02*
X163063Y47750D01*
X163375Y47125D01*
X163063Y46500D01*
X162437Y46187D01*
X160250D01*
Y49937D01*
X162437D01*
X163063Y49625D01*
X163375Y49000D01*
X163063Y48375D01*
X162437Y48063D01*
X160250D01*
X162437Y58063D02*
X163063Y57750D01*
X163375Y57125D01*
X163063Y56500D01*
X162437Y56187D01*
X160250D01*
Y59937D01*
X162437D01*
X163063Y59625D01*
X163375Y59000D01*
X163063Y58375D01*
X162437Y58063D01*
X160250D01*
X162437Y68063D02*
X163063Y67750D01*
X163375Y67125D01*
X163063Y66500D01*
X162437Y66187D01*
X160250D01*
Y69937D01*
X162437D01*
X163063Y69625D01*
X163375Y69000D01*
X163063Y68375D01*
X162437Y68063D01*
X160250D01*
X162437Y78063D02*
X163063Y77750D01*
X163375Y77125D01*
X163063Y76500D01*
X162437Y76187D01*
X160250D01*
Y79937D01*
X162437D01*
X163063Y79625D01*
X163375Y79000D01*
X163063Y78375D01*
X162437Y78063D01*
X160250D01*
X162437Y98063D02*
X163063Y97750D01*
X163375Y97125D01*
X163063Y96500D01*
X162437Y96187D01*
X160250D01*
Y99937D01*
X162437D01*
X163063Y99625D01*
X163375Y99000D01*
X163063Y98375D01*
X162437Y98063D01*
X160250D01*
X162437Y108063D02*
X163063Y107750D01*
X163375Y107125D01*
X163063Y106500D01*
X162437Y106187D01*
X160250D01*
Y109937D01*
X162437D01*
X163063Y109625D01*
X163375Y109000D01*
X163063Y108375D01*
X162437Y108063D01*
X160250D01*
X162437Y118063D02*
X163063Y117750D01*
X163375Y117125D01*
X163063Y116500D01*
X162437Y116187D01*
X160250D01*
Y119937D01*
X162437D01*
X163063Y119625D01*
X163375Y119000D01*
X163063Y118375D01*
X162437Y118063D01*
X160250D01*
X162437Y128063D02*
X163063Y127750D01*
X163375Y127125D01*
X163063Y126500D01*
X162437Y126187D01*
X160250D01*
Y129937D01*
X162437D01*
X163063Y129625D01*
X163375Y129000D01*
X163063Y128375D01*
X162437Y128063D01*
X160250D01*
X162437Y138063D02*
X163063Y137750D01*
X163375Y137125D01*
X163063Y136500D01*
X162437Y136187D01*
X160250D01*
Y139937D01*
X162437D01*
X163063Y139625D01*
X163375Y139000D01*
X163063Y138375D01*
X162437Y138063D01*
X160250D01*
X162437Y148063D02*
X163063Y147750D01*
X163375Y147125D01*
X163063Y146500D01*
X162437Y146187D01*
X160250D01*
Y149937D01*
X162437D01*
X163063Y149625D01*
X163375Y149000D01*
X163063Y148375D01*
X162437Y148063D01*
X160250D01*
X162437Y158063D02*
X163063Y157750D01*
X163375Y157125D01*
X163063Y156500D01*
X162437Y156187D01*
X160250D01*
Y159937D01*
X162437D01*
X163063Y159625D01*
X163375Y159000D01*
X163063Y158375D01*
X162437Y158063D01*
X160250D01*
X162437Y168063D02*
X163063Y167750D01*
X163375Y167125D01*
X163063Y166500D01*
X162437Y166187D01*
X160250D01*
Y169937D01*
X162437D01*
X163063Y169625D01*
X163375Y169000D01*
X163063Y168375D01*
X162437Y168063D01*
X160250D01*
X162437Y178063D02*
X163063Y177750D01*
X163375Y177125D01*
X163063Y176500D01*
X162437Y176187D01*
X160250D01*
Y179937D01*
X162437D01*
X163063Y179625D01*
X163375Y179000D01*
X163063Y178375D01*
X162437Y178063D01*
X160250D01*
X172437Y28063D02*
X173063Y27750D01*
X173375Y27125D01*
X173063Y26500D01*
X172437Y26187D01*
X170250D01*
Y29937D01*
X172437D01*
X173063Y29625D01*
X173375Y29000D01*
X173063Y28375D01*
X172437Y28063D01*
X170250D01*
X172437Y38063D02*
X173063Y37750D01*
X173375Y37125D01*
X173063Y36500D01*
X172437Y36187D01*
X170250D01*
Y39937D01*
X172437D01*
X173063Y39625D01*
X173375Y39000D01*
X173063Y38375D01*
X172437Y38063D01*
X170250D01*
X172437Y48063D02*
X173063Y47750D01*
X173375Y47125D01*
X173063Y46500D01*
X172437Y46187D01*
X170250D01*
Y49937D01*
X172437D01*
X173063Y49625D01*
X173375Y49000D01*
X173063Y48375D01*
X172437Y48063D01*
X170250D01*
X172437Y58063D02*
X173063Y57750D01*
X173375Y57125D01*
X173063Y56500D01*
X172437Y56187D01*
X170250D01*
Y59937D01*
X172437D01*
X173063Y59625D01*
X173375Y59000D01*
X173063Y58375D01*
X172437Y58063D01*
X170250D01*
X172437Y68063D02*
X173063Y67750D01*
X173375Y67125D01*
X173063Y66500D01*
X172437Y66187D01*
X170250D01*
Y69937D01*
X172437D01*
X173063Y69625D01*
X173375Y69000D01*
X173063Y68375D01*
X172437Y68063D01*
X170250D01*
X172437Y78063D02*
X173063Y77750D01*
X173375Y77125D01*
X173063Y76500D01*
X172437Y76187D01*
X170250D01*
Y79937D01*
X172437D01*
X173063Y79625D01*
X173375Y79000D01*
X173063Y78375D01*
X172437Y78063D01*
X170250D01*
X172437Y98063D02*
X173063Y97750D01*
X173375Y97125D01*
X173063Y96500D01*
X172437Y96187D01*
X170250D01*
Y99937D01*
X172437D01*
X173063Y99625D01*
X173375Y99000D01*
X173063Y98375D01*
X172437Y98063D01*
X170250D01*
X172437Y108063D02*
X173063Y107750D01*
X173375Y107125D01*
X173063Y106500D01*
X172437Y106187D01*
X170250D01*
Y109937D01*
X172437D01*
X173063Y109625D01*
X173375Y109000D01*
X173063Y108375D01*
X172437Y108063D01*
X170250D01*
X172437Y118063D02*
X173063Y117750D01*
X173375Y117125D01*
X173063Y116500D01*
X172437Y116187D01*
X170250D01*
Y119937D01*
X172437D01*
X173063Y119625D01*
X173375Y119000D01*
X173063Y118375D01*
X172437Y118063D01*
X170250D01*
X172437Y128063D02*
X173063Y127750D01*
X173375Y127125D01*
X173063Y126500D01*
X172437Y126187D01*
X170250D01*
Y129937D01*
X172437D01*
X173063Y129625D01*
X173375Y129000D01*
X173063Y128375D01*
X172437Y128063D01*
X170250D01*
X172437Y138063D02*
X173063Y137750D01*
X173375Y137125D01*
X173063Y136500D01*
X172437Y136187D01*
X170250D01*
Y139937D01*
X172437D01*
X173063Y139625D01*
X173375Y139000D01*
X173063Y138375D01*
X172437Y138063D01*
X170250D01*
X172437Y148063D02*
X173063Y147750D01*
X173375Y147125D01*
X173063Y146500D01*
X172437Y146187D01*
X170250D01*
Y149937D01*
X172437D01*
X173063Y149625D01*
X173375Y149000D01*
X173063Y148375D01*
X172437Y148063D01*
X170250D01*
X172437Y158063D02*
X173063Y157750D01*
X173375Y157125D01*
X173063Y156500D01*
X172437Y156187D01*
X170250D01*
Y159937D01*
X172437D01*
X173063Y159625D01*
X173375Y159000D01*
X173063Y158375D01*
X172437Y158063D01*
X170250D01*
X172437Y168063D02*
X173063Y167750D01*
X173375Y167125D01*
X173063Y166500D01*
X172437Y166187D01*
X170250D01*
Y169937D01*
X172437D01*
X173063Y169625D01*
X173375Y169000D01*
X173063Y168375D01*
X172437Y168063D01*
X170250D01*
X172437Y178063D02*
X173063Y177750D01*
X173375Y177125D01*
X173063Y176500D01*
X172437Y176187D01*
X170250D01*
Y179937D01*
X172437D01*
X173063Y179625D01*
X173375Y179000D01*
X173063Y178375D01*
X172437Y178063D01*
X170250D01*
X222203Y88063D02*
X222828Y87750D01*
X223141Y87125D01*
X222828Y86500D01*
X222203Y86187D01*
X220015D01*
Y89937D01*
X222203D01*
X222828Y89625D01*
X223141Y89000D01*
X222828Y88375D01*
X222203Y88063D01*
X220015D01*
X222203Y98063D02*
X222828Y97750D01*
X223141Y97125D01*
X222828Y96500D01*
X222203Y96187D01*
X220015D01*
Y99937D01*
X222203D01*
X222828Y99625D01*
X223141Y99000D01*
X222828Y98375D01*
X222203Y98063D01*
X220015D01*
X222203Y108063D02*
X222828Y107750D01*
X223141Y107125D01*
X222828Y106500D01*
X222203Y106187D01*
X220015D01*
Y109937D01*
X222203D01*
X222828Y109625D01*
X223141Y109000D01*
X222828Y108375D01*
X222203Y108063D01*
X220015D01*
X222203Y118063D02*
X222828Y117750D01*
X223141Y117125D01*
X222828Y116500D01*
X222203Y116187D01*
X220015D01*
Y119937D01*
X222203D01*
X222828Y119625D01*
X223141Y119000D01*
X222828Y118375D01*
X222203Y118063D01*
X220015D01*
X222437Y28063D02*
X223063Y27750D01*
X223375Y27125D01*
X223063Y26500D01*
X222437Y26187D01*
X220250D01*
Y29937D01*
X222437D01*
X223063Y29625D01*
X223375Y29000D01*
X223063Y28375D01*
X222437Y28063D01*
X220250D01*
X222437Y38063D02*
X223063Y37750D01*
X223375Y37125D01*
X223063Y36500D01*
X222437Y36187D01*
X220250D01*
Y39937D01*
X222437D01*
X223063Y39625D01*
X223375Y39000D01*
X223063Y38375D01*
X222437Y38063D01*
X220250D01*
X222437Y48063D02*
X223063Y47750D01*
X223375Y47125D01*
X223063Y46500D01*
X222437Y46187D01*
X220250D01*
Y49937D01*
X222437D01*
X223063Y49625D01*
X223375Y49000D01*
X223063Y48375D01*
X222437Y48063D01*
X220250D01*
X222437Y58063D02*
X223063Y57750D01*
X223375Y57125D01*
X223063Y56500D01*
X222437Y56187D01*
X220250D01*
Y59937D01*
X222437D01*
X223063Y59625D01*
X223375Y59000D01*
X223063Y58375D01*
X222437Y58063D01*
X220250D01*
X222437Y68063D02*
X223063Y67750D01*
X223375Y67125D01*
X223063Y66500D01*
X222437Y66187D01*
X220250D01*
Y69937D01*
X222437D01*
X223063Y69625D01*
X223375Y69000D01*
X223063Y68375D01*
X222437Y68063D01*
X220250D01*
X222437Y78063D02*
X223063Y77750D01*
X223375Y77125D01*
X223063Y76500D01*
X222437Y76187D01*
X220250D01*
Y79937D01*
X222437D01*
X223063Y79625D01*
X223375Y79000D01*
X223063Y78375D01*
X222437Y78063D01*
X220250D01*
X222437Y128063D02*
X223063Y127750D01*
X223375Y127125D01*
X223063Y126500D01*
X222437Y126187D01*
X220250D01*
Y129937D01*
X222437D01*
X223063Y129625D01*
X223375Y129000D01*
X223063Y128375D01*
X222437Y128063D01*
X220250D01*
X222437Y138063D02*
X223063Y137750D01*
X223375Y137125D01*
X223063Y136500D01*
X222437Y136187D01*
X220250D01*
Y139937D01*
X222437D01*
X223063Y139625D01*
X223375Y139000D01*
X223063Y138375D01*
X222437Y138063D01*
X220250D01*
X222437Y148063D02*
X223063Y147750D01*
X223375Y147125D01*
X223063Y146500D01*
X222437Y146187D01*
X220250D01*
Y149937D01*
X222437D01*
X223063Y149625D01*
X223375Y149000D01*
X223063Y148375D01*
X222437Y148063D01*
X220250D01*
X222437Y158063D02*
X223063Y157750D01*
X223375Y157125D01*
X223063Y156500D01*
X222437Y156187D01*
X220250D01*
Y159937D01*
X222437D01*
X223063Y159625D01*
X223375Y159000D01*
X223063Y158375D01*
X222437Y158063D01*
X220250D01*
X222437Y168063D02*
X223063Y167750D01*
X223375Y167125D01*
X223063Y166500D01*
X222437Y166187D01*
X220250D01*
Y169937D01*
X222437D01*
X223063Y169625D01*
X223375Y169000D01*
X223063Y168375D01*
X222437Y168063D01*
X220250D01*
X232203Y88063D02*
X232828Y87750D01*
X233141Y87125D01*
X232828Y86500D01*
X232203Y86187D01*
X230015D01*
Y89937D01*
X232203D01*
X232828Y89625D01*
X233141Y89000D01*
X232828Y88375D01*
X232203Y88063D01*
X230015D01*
X232203Y98063D02*
X232828Y97750D01*
X233141Y97125D01*
X232828Y96500D01*
X232203Y96187D01*
X230015D01*
Y99937D01*
X232203D01*
X232828Y99625D01*
X233141Y99000D01*
X232828Y98375D01*
X232203Y98063D01*
X230015D01*
X232203Y108063D02*
X232828Y107750D01*
X233141Y107125D01*
X232828Y106500D01*
X232203Y106187D01*
X230015D01*
Y109937D01*
X232203D01*
X232828Y109625D01*
X233141Y109000D01*
X232828Y108375D01*
X232203Y108063D01*
X230015D01*
X232203Y118063D02*
X232828Y117750D01*
X233141Y117125D01*
X232828Y116500D01*
X232203Y116187D01*
X230015D01*
Y119937D01*
X232203D01*
X232828Y119625D01*
X233141Y119000D01*
X232828Y118375D01*
X232203Y118063D01*
X230015D01*
X232437Y28063D02*
X233063Y27750D01*
X233375Y27125D01*
X233063Y26500D01*
X232437Y26187D01*
X230250D01*
Y29937D01*
X232437D01*
X233063Y29625D01*
X233375Y29000D01*
X233063Y28375D01*
X232437Y28063D01*
X230250D01*
X232437Y38063D02*
X233063Y37750D01*
X233375Y37125D01*
X233063Y36500D01*
X232437Y36187D01*
X230250D01*
Y39937D01*
X232437D01*
X233063Y39625D01*
X233375Y39000D01*
X233063Y38375D01*
X232437Y38063D01*
X230250D01*
X232437Y48063D02*
X233063Y47750D01*
X233375Y47125D01*
X233063Y46500D01*
X232437Y46187D01*
X230250D01*
Y49937D01*
X232437D01*
X233063Y49625D01*
X233375Y49000D01*
X233063Y48375D01*
X232437Y48063D01*
X230250D01*
X232437Y58063D02*
X233063Y57750D01*
X233375Y57125D01*
X233063Y56500D01*
X232437Y56187D01*
X230250D01*
Y59937D01*
X232437D01*
X233063Y59625D01*
X233375Y59000D01*
X233063Y58375D01*
X232437Y58063D01*
X230250D01*
X232437Y68063D02*
X233063Y67750D01*
X233375Y67125D01*
X233063Y66500D01*
X232437Y66187D01*
X230250D01*
Y69937D01*
X232437D01*
X233063Y69625D01*
X233375Y69000D01*
X233063Y68375D01*
X232437Y68063D01*
X230250D01*
X232437Y78063D02*
X233063Y77750D01*
X233375Y77125D01*
X233063Y76500D01*
X232437Y76187D01*
X230250D01*
Y79937D01*
X232437D01*
X233063Y79625D01*
X233375Y79000D01*
X233063Y78375D01*
X232437Y78063D01*
X230250D01*
X232437Y128063D02*
X233063Y127750D01*
X233375Y127125D01*
X233063Y126500D01*
X232437Y126187D01*
X230250D01*
Y129937D01*
X232437D01*
X233063Y129625D01*
X233375Y129000D01*
X233063Y128375D01*
X232437Y128063D01*
X230250D01*
X232437Y138063D02*
X233063Y137750D01*
X233375Y137125D01*
X233063Y136500D01*
X232437Y136187D01*
X230250D01*
Y139937D01*
X232437D01*
X233063Y139625D01*
X233375Y139000D01*
X233063Y138375D01*
X232437Y138063D01*
X230250D01*
X232437Y148063D02*
X233063Y147750D01*
X233375Y147125D01*
X233063Y146500D01*
X232437Y146187D01*
X230250D01*
Y149937D01*
X232437D01*
X233063Y149625D01*
X233375Y149000D01*
X233063Y148375D01*
X232437Y148063D01*
X230250D01*
X232437Y158063D02*
X233063Y157750D01*
X233375Y157125D01*
X233063Y156500D01*
X232437Y156187D01*
X230250D01*
Y159937D01*
X232437D01*
X233063Y159625D01*
X233375Y159000D01*
X233063Y158375D01*
X232437Y158063D01*
X230250D01*
X232437Y168063D02*
X233063Y167750D01*
X233375Y167125D01*
X233063Y166500D01*
X232437Y166187D01*
X230250D01*
Y169937D01*
X232437D01*
X233063Y169625D01*
X233375Y169000D01*
X233063Y168375D01*
X232437Y168063D01*
X230250D01*
X262203Y88063D02*
X262828Y87750D01*
X263141Y87125D01*
X262828Y86500D01*
X262203Y86187D01*
X260015D01*
Y89937D01*
X262203D01*
X262828Y89625D01*
X263141Y89000D01*
X262828Y88375D01*
X262203Y88063D01*
X260015D01*
X262203Y98063D02*
X262828Y97750D01*
X263141Y97125D01*
X262828Y96500D01*
X262203Y96187D01*
X260015D01*
Y99937D01*
X262203D01*
X262828Y99625D01*
X263141Y99000D01*
X262828Y98375D01*
X262203Y98063D01*
X260015D01*
X262203Y108063D02*
X262828Y107750D01*
X263141Y107125D01*
X262828Y106500D01*
X262203Y106187D01*
X260015D01*
Y109937D01*
X262203D01*
X262828Y109625D01*
X263141Y109000D01*
X262828Y108375D01*
X262203Y108063D01*
X260015D01*
X262203Y118063D02*
X262828Y117750D01*
X263141Y117125D01*
X262828Y116500D01*
X262203Y116187D01*
X260015D01*
Y119937D01*
X262203D01*
X262828Y119625D01*
X263141Y119000D01*
X262828Y118375D01*
X262203Y118063D01*
X260015D01*
X262437Y28063D02*
X263063Y27750D01*
X263375Y27125D01*
X263063Y26500D01*
X262437Y26187D01*
X260250D01*
Y29937D01*
X262437D01*
X263063Y29625D01*
X263375Y29000D01*
X263063Y28375D01*
X262437Y28063D01*
X260250D01*
X262437Y38063D02*
X263063Y37750D01*
X263375Y37125D01*
X263063Y36500D01*
X262437Y36187D01*
X260250D01*
Y39937D01*
X262437D01*
X263063Y39625D01*
X263375Y39000D01*
X263063Y38375D01*
X262437Y38063D01*
X260250D01*
X262437Y48063D02*
X263063Y47750D01*
X263375Y47125D01*
X263063Y46500D01*
X262437Y46187D01*
X260250D01*
Y49937D01*
X262437D01*
X263063Y49625D01*
X263375Y49000D01*
X263063Y48375D01*
X262437Y48063D01*
X260250D01*
X262437Y58063D02*
X263063Y57750D01*
X263375Y57125D01*
X263063Y56500D01*
X262437Y56187D01*
X260250D01*
Y59937D01*
X262437D01*
X263063Y59625D01*
X263375Y59000D01*
X263063Y58375D01*
X262437Y58063D01*
X260250D01*
X262437Y68063D02*
X263063Y67750D01*
X263375Y67125D01*
X263063Y66500D01*
X262437Y66187D01*
X260250D01*
Y69937D01*
X262437D01*
X263063Y69625D01*
X263375Y69000D01*
X263063Y68375D01*
X262437Y68063D01*
X260250D01*
X262437Y78063D02*
X263063Y77750D01*
X263375Y77125D01*
X263063Y76500D01*
X262437Y76187D01*
X260250D01*
Y79937D01*
X262437D01*
X263063Y79625D01*
X263375Y79000D01*
X263063Y78375D01*
X262437Y78063D01*
X260250D01*
X262437Y128063D02*
X263063Y127750D01*
X263375Y127125D01*
X263063Y126500D01*
X262437Y126187D01*
X260250D01*
Y129937D01*
X262437D01*
X263063Y129625D01*
X263375Y129000D01*
X263063Y128375D01*
X262437Y128063D01*
X260250D01*
X262437Y138063D02*
X263063Y137750D01*
X263375Y137125D01*
X263063Y136500D01*
X262437Y136187D01*
X260250D01*
Y139937D01*
X262437D01*
X263063Y139625D01*
X263375Y139000D01*
X263063Y138375D01*
X262437Y138063D01*
X260250D01*
X262437Y148063D02*
X263063Y147750D01*
X263375Y147125D01*
X263063Y146500D01*
X262437Y146187D01*
X260250D01*
Y149937D01*
X262437D01*
X263063Y149625D01*
X263375Y149000D01*
X263063Y148375D01*
X262437Y148063D01*
X260250D01*
X262437Y158063D02*
X263063Y157750D01*
X263375Y157125D01*
X263063Y156500D01*
X262437Y156187D01*
X260250D01*
Y159937D01*
X262437D01*
X263063Y159625D01*
X263375Y159000D01*
X263063Y158375D01*
X262437Y158063D01*
X260250D01*
X262437Y168063D02*
X263063Y167750D01*
X263375Y167125D01*
X263063Y166500D01*
X262437Y166187D01*
X260250D01*
Y169937D01*
X262437D01*
X263063Y169625D01*
X263375Y169000D01*
X263063Y168375D01*
X262437Y168063D01*
X260250D01*
X272437Y188063D02*
X273063Y187750D01*
X273375Y187125D01*
X273063Y186500D01*
X272437Y186187D01*
X270250D01*
Y189937D01*
X272437D01*
X273063Y189625D01*
X273375Y189000D01*
X273063Y188375D01*
X272437Y188063D01*
X270250D01*
X272437Y238063D02*
X273063Y237750D01*
X273375Y237125D01*
X273063Y236500D01*
X272437Y236187D01*
X270250D01*
Y239937D01*
X272437D01*
X273063Y239625D01*
X273375Y239000D01*
X273063Y238375D01*
X272437Y238063D01*
X270250D01*
X282437Y188063D02*
X283063Y187750D01*
X283375Y187125D01*
X283063Y186500D01*
X282437Y186187D01*
X280250D01*
Y189937D01*
X282437D01*
X283063Y189625D01*
X283375Y189000D01*
X283063Y188375D01*
X282437Y188063D01*
X280250D01*
X282437Y238063D02*
X283063Y237750D01*
X283375Y237125D01*
X283063Y236500D01*
X282437Y236187D01*
X280250D01*
Y239937D01*
X282437D01*
X283063Y239625D01*
X283375Y239000D01*
X283063Y238375D01*
X282437Y238063D01*
X280250D01*
X292437Y188063D02*
X293063Y187750D01*
X293375Y187125D01*
X293063Y186500D01*
X292437Y186187D01*
X290250D01*
Y189937D01*
X292437D01*
X293063Y189625D01*
X293375Y189000D01*
X293063Y188375D01*
X292437Y188063D01*
X290250D01*
X292437Y238063D02*
X293063Y237750D01*
X293375Y237125D01*
X293063Y236500D01*
X292437Y236187D01*
X290250D01*
Y239937D01*
X292437D01*
X293063Y239625D01*
X293375Y239000D01*
X293063Y238375D01*
X292437Y238063D01*
X290250D01*
X302437Y188063D02*
X303063Y187750D01*
X303375Y187125D01*
X303063Y186500D01*
X302437Y186187D01*
X300250D01*
Y189937D01*
X302437D01*
X303063Y189625D01*
X303375Y189000D01*
X303063Y188375D01*
X302437Y188063D01*
X300250D01*
X302437Y238063D02*
X303063Y237750D01*
X303375Y237125D01*
X303063Y236500D01*
X302437Y236187D01*
X300250D01*
Y239937D01*
X302437D01*
X303063Y239625D01*
X303375Y239000D01*
X303063Y238375D01*
X302437Y238063D01*
X300250D01*
X312437Y28063D02*
X313063Y27750D01*
X313375Y27125D01*
X313063Y26500D01*
X312437Y26187D01*
X310250D01*
Y29937D01*
X312437D01*
X313063Y29625D01*
X313375Y29000D01*
X313063Y28375D01*
X312437Y28063D01*
X310250D01*
X312437Y38063D02*
X313063Y37750D01*
X313375Y37125D01*
X313063Y36500D01*
X312437Y36187D01*
X310250D01*
Y39937D01*
X312437D01*
X313063Y39625D01*
X313375Y39000D01*
X313063Y38375D01*
X312437Y38063D01*
X310250D01*
X312437Y48063D02*
X313063Y47750D01*
X313375Y47125D01*
X313063Y46500D01*
X312437Y46187D01*
X310250D01*
Y49937D01*
X312437D01*
X313063Y49625D01*
X313375Y49000D01*
X313063Y48375D01*
X312437Y48063D01*
X310250D01*
X312437Y58063D02*
X313063Y57750D01*
X313375Y57125D01*
X313063Y56500D01*
X312437Y56187D01*
X310250D01*
Y59937D01*
X312437D01*
X313063Y59625D01*
X313375Y59000D01*
X313063Y58375D01*
X312437Y58063D01*
X310250D01*
X312437Y68063D02*
X313063Y67750D01*
X313375Y67125D01*
X313063Y66500D01*
X312437Y66187D01*
X310250D01*
Y69937D01*
X312437D01*
X313063Y69625D01*
X313375Y69000D01*
X313063Y68375D01*
X312437Y68063D01*
X310250D01*
X312437Y78063D02*
X313063Y77750D01*
X313375Y77125D01*
X313063Y76500D01*
X312437Y76187D01*
X310250D01*
Y79937D01*
X312437D01*
X313063Y79625D01*
X313375Y79000D01*
X313063Y78375D01*
X312437Y78063D01*
X310250D01*
X312437Y88063D02*
X313063Y87750D01*
X313375Y87125D01*
X313063Y86500D01*
X312437Y86187D01*
X310250D01*
Y89937D01*
X312437D01*
X313063Y89625D01*
X313375Y89000D01*
X313063Y88375D01*
X312437Y88063D01*
X310250D01*
X312437Y98063D02*
X313063Y97750D01*
X313375Y97125D01*
X313063Y96500D01*
X312437Y96187D01*
X310250D01*
Y99937D01*
X312437D01*
X313063Y99625D01*
X313375Y99000D01*
X313063Y98375D01*
X312437Y98063D01*
X310250D01*
X312437Y188063D02*
X313063Y187750D01*
X313375Y187125D01*
X313063Y186500D01*
X312437Y186187D01*
X310250D01*
Y189937D01*
X312437D01*
X313063Y189625D01*
X313375Y189000D01*
X313063Y188375D01*
X312437Y188063D01*
X310250D01*
X312437Y238063D02*
X313063Y237750D01*
X313375Y237125D01*
X313063Y236500D01*
X312437Y236187D01*
X310250D01*
Y239937D01*
X312437D01*
X313063Y239625D01*
X313375Y239000D01*
X313063Y238375D01*
X312437Y238063D01*
X310250D01*
X362437Y28063D02*
X363063Y27750D01*
X363375Y27125D01*
X363063Y26500D01*
X362437Y26187D01*
X360250D01*
Y29937D01*
X362437D01*
X363063Y29625D01*
X363375Y29000D01*
X363063Y28375D01*
X362437Y28063D01*
X360250D01*
X362437Y38063D02*
X363063Y37750D01*
X363375Y37125D01*
X363063Y36500D01*
X362437Y36187D01*
X360250D01*
Y39937D01*
X362437D01*
X363063Y39625D01*
X363375Y39000D01*
X363063Y38375D01*
X362437Y38063D01*
X360250D01*
X362437Y48063D02*
X363063Y47750D01*
X363375Y47125D01*
X363063Y46500D01*
X362437Y46187D01*
X360250D01*
Y49937D01*
X362437D01*
X363063Y49625D01*
X363375Y49000D01*
X363063Y48375D01*
X362437Y48063D01*
X360250D01*
X362437Y58063D02*
X363063Y57750D01*
X363375Y57125D01*
X363063Y56500D01*
X362437Y56187D01*
X360250D01*
Y59937D01*
X362437D01*
X363063Y59625D01*
X363375Y59000D01*
X363063Y58375D01*
X362437Y58063D01*
X360250D01*
X362437Y68063D02*
X363063Y67750D01*
X363375Y67125D01*
X363063Y66500D01*
X362437Y66187D01*
X360250D01*
Y69937D01*
X362437D01*
X363063Y69625D01*
X363375Y69000D01*
X363063Y68375D01*
X362437Y68063D01*
X360250D01*
X362437Y78063D02*
X363063Y77750D01*
X363375Y77125D01*
X363063Y76500D01*
X362437Y76187D01*
X360250D01*
Y79937D01*
X362437D01*
X363063Y79625D01*
X363375Y79000D01*
X363063Y78375D01*
X362437Y78063D01*
X360250D01*
X362437Y88063D02*
X363063Y87750D01*
X363375Y87125D01*
X363063Y86500D01*
X362437Y86187D01*
X360250D01*
Y89937D01*
X362437D01*
X363063Y89625D01*
X363375Y89000D01*
X363063Y88375D01*
X362437Y88063D01*
X360250D01*
X362437Y98063D02*
X363063Y97750D01*
X363375Y97125D01*
X363063Y96500D01*
X362437Y96187D01*
X360250D01*
Y99937D01*
X362437D01*
X363063Y99625D01*
X363375Y99000D01*
X363063Y98375D01*
X362437Y98063D01*
X360250D01*
X0Y0D02*
M02*
