G04 DesignSpark PCB Gerber Version 12.0 Build 5941*
G04 #@! TF.Part,Single*
G04 #@! TF.FileFunction,Copper,L2,Bot*
G04 #@! TF.FilePolarity,Positive*
%FSLAX35Y35*%
%MOIN*%
%ADD10C,0.03937*%
G04 #@! TA.AperFunction,WasherPad*
%ADD11C,0.06890*%
%ADD12C,0.07087*%
G04 #@! TD.AperFunction*
X0Y0D02*
D02*
D10*
X20250Y20250D02*
X70250D01*
X20250Y30250D02*
Y20250D01*
Y60250D02*
X70250D01*
X20250Y80250D02*
X70250D01*
X20250Y140250D02*
X70250D01*
X20250Y160250D02*
X70250D01*
Y30250D02*
X20250D01*
X70250D02*
Y20250D01*
Y70250D02*
X20250D01*
X70250Y90250D02*
X20250D01*
X70250Y150250D02*
X20250D01*
X70250Y170250D02*
X20250D01*
X120250Y20250D02*
X150250D01*
X120250Y40250D02*
X150250D01*
X120250Y70250D02*
X150250D01*
X120250Y100250D02*
X150250D01*
X120250Y120250D02*
X150250D01*
X120250Y140250D02*
X150250D01*
X120250Y160250D02*
X150250D01*
Y30250D02*
X120250D01*
X150250Y40250D02*
X160250D01*
X150250Y50250D02*
X120250D01*
X150250Y60250D02*
X120250D01*
X150250Y70250D02*
X160250D01*
X150250Y90250D02*
X120250D01*
X150250Y100250D02*
X160250D01*
X150250Y110250D02*
X120250D01*
X150250Y120250D02*
X160250D01*
X150250Y130250D02*
X120250D01*
X150250Y140250D02*
X160250D01*
X150250Y150250D02*
X120250D01*
X150250Y160250D02*
X160250D01*
X150250Y170250D02*
X120250D01*
X160250Y20250D02*
X150250D01*
X160250Y30250D02*
X150250D01*
X160250Y50250D02*
X150250D01*
X160250Y60250D02*
X150250D01*
X160250Y90250D02*
X150250D01*
X160250Y110250D02*
X150250D01*
X160250Y130250D02*
X150250D01*
X160250Y150250D02*
X150250D01*
X160250Y170250D02*
X150250D01*
X210015Y80250D02*
X220015D01*
X210015Y100250D02*
X220015D01*
X210250Y20250D02*
X220250D01*
X210250Y40250D02*
X220250D01*
X210250Y60250D02*
X220250D01*
X210250Y120250D02*
X220250D01*
X210250Y140250D02*
X220250D01*
X210250Y160250D02*
X220250D01*
X220015Y80250D02*
X250015D01*
X220015Y90250D02*
X210015D01*
X220015Y100250D02*
X250015D01*
X220015Y110250D02*
X210015D01*
X220250Y20250D02*
X250250D01*
X220250Y30250D02*
X210250D01*
X220250Y40250D02*
X250250D01*
X220250Y50250D02*
X210250D01*
X220250Y60250D02*
X250250D01*
X220250Y70250D02*
X210250D01*
X220250Y120250D02*
X250250D01*
X220250Y130250D02*
X210250D01*
X220250Y140250D02*
X250250D01*
X220250Y150250D02*
X210250D01*
X220250Y160250D02*
X250250D01*
X250015Y90250D02*
X220015D01*
X250015Y110250D02*
X220015D01*
X250250Y30250D02*
X220250D01*
X250250Y50250D02*
X220250D01*
X250250Y70250D02*
X220250D01*
X250250Y130250D02*
X220250D01*
X250250Y150250D02*
X220250D01*
X260250Y180250D02*
Y230250D01*
X270250D02*
Y180250D01*
X280250D02*
Y230250D01*
X290250D02*
Y180250D01*
X300250Y20250D02*
X350250D01*
X300250Y40250D02*
X350250D01*
X300250Y60250D02*
X350250D01*
X300250Y70250D02*
X350250D01*
X300250Y90250D02*
X350250D01*
X300250Y180250D02*
Y230250D01*
X350250Y30250D02*
X300250D01*
X350250Y50250D02*
X300250D01*
X350250Y80250D02*
X300250D01*
D02*
D11*
X120250Y20250D03*
Y30250D03*
Y40250D03*
Y50250D03*
Y60250D03*
Y70250D03*
Y90250D03*
Y100250D03*
Y110250D03*
Y120250D03*
Y130250D03*
Y140250D03*
Y150250D03*
Y160250D03*
Y170250D03*
X150250Y20250D03*
Y30250D03*
Y40250D03*
Y50250D03*
Y60250D03*
Y70250D03*
Y90250D03*
Y100250D03*
Y110250D03*
Y120250D03*
Y130250D03*
Y140250D03*
Y150250D03*
Y160250D03*
Y170250D03*
X160250Y20250D03*
Y30250D03*
Y40250D03*
Y50250D03*
Y60250D03*
Y70250D03*
Y90250D03*
Y100250D03*
Y110250D03*
Y120250D03*
Y130250D03*
Y140250D03*
Y150250D03*
Y160250D03*
Y170250D03*
X210015Y80250D03*
Y90250D03*
Y100250D03*
Y110250D03*
X210250Y20250D03*
Y30250D03*
Y40250D03*
Y50250D03*
Y60250D03*
Y70250D03*
Y120250D03*
Y130250D03*
Y140250D03*
Y150250D03*
Y160250D03*
X220015Y80250D03*
Y90250D03*
Y100250D03*
Y110250D03*
X220250Y20250D03*
Y30250D03*
Y40250D03*
Y50250D03*
Y60250D03*
Y70250D03*
Y120250D03*
Y130250D03*
Y140250D03*
Y150250D03*
Y160250D03*
X250015Y80250D03*
Y90250D03*
Y100250D03*
Y110250D03*
X250250Y20250D03*
Y30250D03*
Y40250D03*
Y50250D03*
Y60250D03*
Y70250D03*
Y120250D03*
Y130250D03*
Y140250D03*
Y150250D03*
Y160250D03*
X260250Y180250D03*
Y230250D03*
X270250Y180250D03*
Y230250D03*
X280250Y180250D03*
Y230250D03*
X290250Y180250D03*
Y230250D03*
X300250Y20250D03*
Y30250D03*
Y40250D03*
Y50250D03*
Y60250D03*
Y70250D03*
Y80250D03*
Y90250D03*
Y180250D03*
Y230250D03*
X350250Y20250D03*
Y30250D03*
Y40250D03*
Y50250D03*
Y60250D03*
Y70250D03*
Y80250D03*
Y90250D03*
D02*
D12*
X20250Y20250D03*
Y30250D03*
Y40250D03*
Y50250D03*
Y60250D03*
Y70250D03*
Y80250D03*
Y90250D03*
Y100250D03*
Y110250D03*
Y120250D03*
Y130250D03*
Y140250D03*
Y150250D03*
Y160250D03*
Y170250D03*
X70250Y20250D03*
Y30250D03*
Y40250D03*
Y50250D03*
Y60250D03*
Y70250D03*
Y80250D03*
Y90250D03*
Y100250D03*
Y110250D03*
Y120250D03*
Y130250D03*
Y140250D03*
Y150250D03*
Y160250D03*
Y170250D03*
X120250Y80250D03*
X0Y0D02*
M02*
