G05
M48
;#@! TF.GenerationSoftware,DesignSpark,DesignSpark PCB,12.0.5940
;#@! TF.CreationDate,2024-12-10T17:22:42+06:00*
;#@! TF.FileFunction,Plated,1,2,PTH
;FILE_FORMAT=3:5
;TYPE=PLATED
INCH,TZ
FMAT,2
T1C000.03500
%
T001
X0.20250Y0.20250
X0.20250Y0.30250
X0.20250Y0.40250
X0.20250Y0.50250
X0.20250Y0.60250
X0.20250Y0.70250
X0.20250Y0.80250
X0.20250Y0.90250
X0.20250Y1.00250
X0.20250Y1.10250
X0.20250Y1.20250
X0.20250Y1.30250
X0.20250Y1.40250
X0.20250Y1.50250
X0.20250Y1.60250
X0.20250Y1.70250
X0.70250Y0.20250
X0.70250Y0.30250
X0.70250Y0.40250
X0.70250Y0.50250
X0.70250Y0.60250
X0.70250Y0.70250
X0.70250Y0.80250
X0.70250Y0.90250
X0.70250Y1.00250
X0.70250Y1.10250
X0.70250Y1.20250
X0.70250Y1.30250
X0.70250Y1.40250
X0.70250Y1.50250
X0.70250Y1.60250
X0.70250Y1.70250
X1.20250Y0.20250
X1.20250Y0.30250
X1.20250Y0.40250
X1.20250Y0.50250
X1.20250Y0.60250
X1.20250Y0.70250
X1.20250Y0.80250
X1.20250Y0.90250
X1.20250Y1.00250
X1.20250Y1.10250
X1.20250Y1.20250
X1.20250Y1.30250
X1.20250Y1.40250
X1.20250Y1.50250
X1.20250Y1.60250
X1.20250Y1.70250
X1.50250Y0.20250
X1.50250Y0.30250
X1.50250Y0.40250
X1.50250Y0.50250
X1.50250Y0.60250
X1.50250Y0.70250
X1.50250Y0.90250
X1.50250Y1.00250
X1.50250Y1.10250
X1.50250Y1.20250
X1.50250Y1.30250
X1.50250Y1.40250
X1.50250Y1.50250
X1.50250Y1.60250
X1.50250Y1.70250
X1.60250Y0.20250
X1.60250Y0.30250
X1.60250Y0.40250
X1.60250Y0.50250
X1.60250Y0.60250
X1.60250Y0.70250
X1.60250Y0.90250
X1.60250Y1.00250
X1.60250Y1.10250
X1.60250Y1.20250
X1.60250Y1.30250
X1.60250Y1.40250
X1.60250Y1.50250
X1.60250Y1.60250
X1.60250Y1.70250
X2.10015Y0.80250
X2.10015Y0.90250
X2.10015Y1.00250
X2.10015Y1.10250
X2.10250Y0.20250
X2.10250Y0.30250
X2.10250Y0.40250
X2.10250Y0.50250
X2.10250Y0.60250
X2.10250Y0.70250
X2.10250Y1.20250
X2.10250Y1.30250
X2.10250Y1.40250
X2.10250Y1.50250
X2.10250Y1.60250
X2.20015Y0.80250
X2.20015Y0.90250
X2.20015Y1.00250
X2.20015Y1.10250
X2.20250Y0.20250
X2.20250Y0.30250
X2.20250Y0.40250
X2.20250Y0.50250
X2.20250Y0.60250
X2.20250Y0.70250
X2.20250Y1.20250
X2.20250Y1.30250
X2.20250Y1.40250
X2.20250Y1.50250
X2.20250Y1.60250
X2.50015Y0.80250
X2.50015Y0.90250
X2.50015Y1.00250
X2.50015Y1.10250
X2.50250Y0.20250
X2.50250Y0.30250
X2.50250Y0.40250
X2.50250Y0.50250
X2.50250Y0.60250
X2.50250Y0.70250
X2.50250Y1.20250
X2.50250Y1.30250
X2.50250Y1.40250
X2.50250Y1.50250
X2.50250Y1.60250
X2.60250Y1.80250
X2.60250Y2.30250
X2.70250Y1.80250
X2.70250Y2.30250
X2.80250Y1.80250
X2.80250Y2.30250
X2.90250Y1.80250
X2.90250Y2.30250
X3.00250Y0.20250
X3.00250Y0.30250
X3.00250Y0.40250
X3.00250Y0.50250
X3.00250Y0.60250
X3.00250Y0.70250
X3.00250Y0.80250
X3.00250Y0.90250
X3.00250Y1.80250
X3.00250Y2.30250
X3.50250Y0.20250
X3.50250Y0.30250
X3.50250Y0.40250
X3.50250Y0.50250
X3.50250Y0.60250
X3.50250Y0.70250
X3.50250Y0.80250
X3.50250Y0.90250
M30
