G04 DesignSpark PCB Gerber Version 12.0 Build 5941*
G04 #@! TF.Part,Single*
%FSLAX35Y35*%
%MOIN*%
%ADD11C,0.00500*%
G04 #@! TD.AperFunction*
X0Y0D02*
D02*
D11*
X250Y1160250D02*
X1220250D01*
Y1530250D01*
X250D01*
Y1160250D01*
Y3230250D02*
X200250D01*
Y3760250D01*
X250D01*
Y3230250D01*
X130250Y1400250D02*
G75*
G03*
X120250Y1390250I-5000J-5000D01*
G01*
G75*
G03*
X130250Y1400250I5000J5000D01*
G01*
X150250Y2320250D02*
G75*
G03*
X140250Y2310250I-5000J-5000D01*
G01*
G75*
G03*
X150250Y2320250I5000J5000D01*
G01*
Y3160250D02*
G75*
G03*
X140250Y3150250I-5000J-5000D01*
G01*
G75*
G03*
X150250Y3160250I5000J5000D01*
G01*
X160250Y210250D02*
G75*
G03*
X150250Y200250I-5000J-5000D01*
G01*
G75*
G03*
X160250Y210250I5000J5000D01*
G01*
Y480250D02*
G75*
G03*
X150250Y470250I-5000J-5000D01*
G01*
G75*
G03*
X160250Y480250I5000J5000D01*
G01*
Y750250D02*
G75*
G03*
X150250Y740250I-5000J-5000D01*
G01*
G75*
G03*
X160250Y750250I5000J5000D01*
G01*
Y1050250D02*
G75*
G03*
X150250Y1040250I-5000J-5000D01*
G01*
G75*
G03*
X160250Y1050250I5000J5000D01*
G01*
X190250Y3400250D02*
G75*
G03*
X180250Y3390250I-5000J-5000D01*
G01*
G75*
G03*
X190250Y3400250I5000J5000D01*
G01*
Y3660250D02*
G75*
G03*
X180250Y3650250I-5000J-5000D01*
G01*
G75*
G03*
X190250Y3660250I5000J5000D01*
G01*
X191746Y1046470D02*
G75*
G03*
Y1037809I0J-4331D01*
G01*
G75*
G03*
Y1046470I0J4331D01*
G01*
X196864Y1032691D02*
G75*
G03*
Y1024030I0J-4331D01*
G01*
G75*
G03*
Y1032691I0J4331D01*
G01*
X197258Y1059069D02*
G75*
G03*
Y1050407I0J-4331D01*
G01*
G75*
G03*
Y1059069I0J4331D01*
G01*
X200250Y2370250D02*
Y1540250D01*
X250D01*
Y2370250D01*
X200250D01*
Y3220250D02*
Y2380250D01*
X250D01*
Y3220250D01*
X200250D01*
X210250Y1064581D02*
G75*
G03*
Y1055919I0J-4331D01*
G01*
G75*
G03*
Y1064581I0J4331D01*
G01*
Y2410250D02*
X660250D01*
Y3050250D01*
X210250D01*
Y2410250D01*
Y3390250D02*
Y3060250D01*
X810250D01*
Y3390250D01*
X210250D01*
Y3760250D02*
Y3400250D01*
X1550250D01*
Y3760250D01*
X210250D01*
X221746Y1426470D02*
G75*
G03*
Y1417809I0J-4331D01*
G01*
G75*
G03*
Y1426470I0J4331D01*
G01*
X223242Y1058675D02*
G75*
G03*
Y1050014I0J-4331D01*
G01*
G75*
G03*
Y1058675I0J4331D01*
G01*
X223636Y1032691D02*
G75*
G03*
Y1024030I0J-4331D01*
G01*
G75*
G03*
Y1032691I0J4331D01*
G01*
X226864Y1412691D02*
G75*
G03*
Y1404030I0J-4331D01*
G01*
G75*
G03*
Y1412691I0J4331D01*
G01*
X227258Y1439069D02*
G75*
G03*
Y1430407I0J-4331D01*
G01*
G75*
G03*
Y1439069I0J4331D01*
G01*
X228754Y1046470D02*
G75*
G03*
Y1037809I0J-4331D01*
G01*
G75*
G03*
Y1046470I0J4331D01*
G01*
X230250Y3460250D02*
G75*
G03*
X220250Y3450250I-5000J-5000D01*
G01*
G75*
G03*
X230250Y3460250I5000J5000D01*
G01*
Y3660250D02*
G75*
G03*
X220250Y3650250I-5000J-5000D01*
G01*
G75*
G03*
X230250Y3660250I5000J5000D01*
G01*
X240250Y1444581D02*
G75*
G03*
Y1435919I0J-4331D01*
G01*
G75*
G03*
Y1444581I0J4331D01*
G01*
Y2440250D02*
G75*
G03*
X230250Y2430250I-5000J-5000D01*
G01*
G75*
G03*
X240250Y2440250I5000J5000D01*
G01*
Y3030250D02*
G75*
G03*
X230250Y3020250I-5000J-5000D01*
G01*
G75*
G03*
X240250Y3030250I5000J5000D01*
G01*
Y3180250D02*
G75*
G03*
X230250Y3170250I-5000J-5000D01*
G01*
G75*
G03*
X240250Y3180250I5000J5000D01*
G01*
X253242Y1438675D02*
G75*
G03*
Y1430014I0J-4331D01*
G01*
G75*
G03*
Y1438675I0J4331D01*
G01*
X253636Y1412691D02*
G75*
G03*
Y1404030I0J-4331D01*
G01*
G75*
G03*
Y1412691I0J4331D01*
G01*
X258754Y1426470D02*
G75*
G03*
Y1417809I0J-4331D01*
G01*
G75*
G03*
Y1426470I0J4331D01*
G01*
X260250Y1200250D02*
G75*
G03*
X250250Y1190250I-5000J-5000D01*
G01*
G75*
G03*
X260250Y1200250I5000J5000D01*
G01*
X271746Y1046470D02*
G75*
G03*
Y1037809I0J-4331D01*
G01*
G75*
G03*
Y1046470I0J4331D01*
G01*
X276864Y1032691D02*
G75*
G03*
Y1024030I0J-4331D01*
G01*
G75*
G03*
Y1032691I0J4331D01*
G01*
X277258Y1059069D02*
G75*
G03*
Y1050407I0J-4331D01*
G01*
G75*
G03*
Y1059069I0J4331D01*
G01*
X280250Y3590250D02*
Y3580250D01*
X260250D01*
Y3590250D01*
X280250D01*
Y3630250D02*
Y3620250D01*
X260250D01*
Y3630250D01*
X280250D01*
Y3650250D02*
Y3640250D01*
X260250D01*
Y3650250D01*
X280250D01*
X290250Y1064581D02*
G75*
G03*
Y1055919I0J-4331D01*
G01*
G75*
G03*
Y1064581I0J4331D01*
G01*
X300250Y2590250D02*
X310250D01*
Y2570250D01*
X300250D01*
Y2590250D01*
Y2650250D02*
X310250D01*
Y2630250D01*
X300250D01*
Y2650250D01*
Y2710250D02*
X310250D01*
Y2690250D01*
X300250D01*
Y2710250D01*
Y2770250D02*
X310250D01*
Y2750250D01*
X300250D01*
Y2770250D01*
Y2830250D02*
X310250D01*
Y2810250D01*
X300250D01*
Y2830250D01*
Y2890250D02*
X310250D01*
Y2870250D01*
X300250D01*
Y2890250D01*
Y2950250D02*
X310250D01*
Y2930250D01*
X300250D01*
Y2950250D01*
Y3010250D02*
X310250D01*
Y2990250D01*
X300250D01*
Y3010250D01*
Y3560250D02*
G75*
G03*
X319935I9843J0D01*
G01*
G75*
G03*
X300250I-9843J0D01*
G01*
X301746Y1426470D02*
G75*
G03*
Y1417809I0J-4331D01*
G01*
G75*
G03*
Y1426470I0J4331D01*
G01*
X303242Y1058675D02*
G75*
G03*
Y1050014I0J-4331D01*
G01*
G75*
G03*
Y1058675I0J4331D01*
G01*
X303636Y1032691D02*
G75*
G03*
Y1024030I0J-4331D01*
G01*
G75*
G03*
Y1032691I0J4331D01*
G01*
X306864Y1412691D02*
G75*
G03*
Y1404030I0J-4331D01*
G01*
G75*
G03*
Y1412691I0J4331D01*
G01*
X307258Y1439069D02*
G75*
G03*
Y1430407I0J-4331D01*
G01*
G75*
G03*
Y1439069I0J4331D01*
G01*
X308754Y1046470D02*
G75*
G03*
Y1037809I0J-4331D01*
G01*
G75*
G03*
Y1046470I0J4331D01*
G01*
X320250Y1444581D02*
G75*
G03*
Y1435919I0J-4331D01*
G01*
G75*
G03*
Y1444581I0J4331D01*
G01*
Y2590250D02*
X330250D01*
Y2570250D01*
X320250D01*
Y2590250D01*
Y2650250D02*
X330250D01*
Y2630250D01*
X320250D01*
Y2650250D01*
Y2710250D02*
X330250D01*
Y2690250D01*
X320250D01*
Y2710250D01*
Y2770250D02*
X330250D01*
Y2750250D01*
X320250D01*
Y2770250D01*
Y2830250D02*
X330250D01*
Y2810250D01*
X320250D01*
Y2830250D01*
Y2890250D02*
X330250D01*
Y2870250D01*
X320250D01*
Y2890250D01*
Y2950250D02*
X330250D01*
Y2930250D01*
X320250D01*
Y2950250D01*
Y3010250D02*
X330250D01*
Y2990250D01*
X320250D01*
Y3010250D01*
X330250Y2460250D02*
Y2450250D01*
X310250D01*
Y2460250D01*
X330250D01*
Y2500250D02*
Y2490250D01*
X310250D01*
Y2500250D01*
X330250D01*
Y2520250D02*
Y2510250D01*
X310250D01*
Y2520250D01*
X330250D01*
X331746Y3206470D02*
G75*
G03*
Y3197809I0J-4331D01*
G01*
G75*
G03*
Y3206470I0J4331D01*
G01*
X333242Y1438675D02*
G75*
G03*
Y1430014I0J-4331D01*
G01*
G75*
G03*
Y1438675I0J4331D01*
G01*
X333636Y1412691D02*
G75*
G03*
Y1404030I0J-4331D01*
G01*
G75*
G03*
Y1412691I0J4331D01*
G01*
X336864Y3192691D02*
G75*
G03*
Y3184030I0J-4331D01*
G01*
G75*
G03*
Y3192691I0J4331D01*
G01*
X337258Y3219069D02*
G75*
G03*
Y3210407I0J-4331D01*
G01*
G75*
G03*
Y3219069I0J4331D01*
G01*
X338754Y1426470D02*
G75*
G03*
Y1417809I0J-4331D01*
G01*
G75*
G03*
Y1426470I0J4331D01*
G01*
X350250Y3224581D02*
G75*
G03*
Y3215919I0J-4331D01*
G01*
G75*
G03*
Y3224581I0J4331D01*
G01*
X360250Y2460250D02*
Y2450250D01*
X340250D01*
Y2460250D01*
X360250D01*
Y2500250D02*
Y2490250D01*
X340250D01*
Y2500250D01*
X360250D01*
Y2520250D02*
Y2510250D01*
X340250D01*
Y2520250D01*
X360250D01*
Y2590250D02*
X370250D01*
Y2570250D01*
X360250D01*
Y2590250D01*
Y2650250D02*
X370250D01*
Y2630250D01*
X360250D01*
Y2650250D01*
Y2710250D02*
X370250D01*
Y2690250D01*
X360250D01*
Y2710250D01*
Y2770250D02*
X370250D01*
Y2750250D01*
X360250D01*
Y2770250D01*
Y2830250D02*
X370250D01*
Y2810250D01*
X360250D01*
Y2830250D01*
Y2890250D02*
X370250D01*
Y2870250D01*
X360250D01*
Y2890250D01*
Y2950250D02*
X370250D01*
Y2930250D01*
X360250D01*
Y2950250D01*
Y3010250D02*
X370250D01*
Y2990250D01*
X360250D01*
Y3010250D01*
Y3590250D02*
Y3580250D01*
X340250D01*
Y3590250D01*
X360250D01*
Y3630250D02*
Y3620250D01*
X340250D01*
Y3630250D01*
X360250D01*
Y3650250D02*
Y3640250D01*
X340250D01*
Y3650250D01*
X360250D01*
X363242Y3218675D02*
G75*
G03*
Y3210014I0J-4331D01*
G01*
G75*
G03*
Y3218675I0J4331D01*
G01*
X363636Y3192691D02*
G75*
G03*
Y3184030I0J-4331D01*
G01*
G75*
G03*
Y3192691I0J4331D01*
G01*
X368754Y3206470D02*
G75*
G03*
Y3197809I0J-4331D01*
G01*
G75*
G03*
Y3206470I0J4331D01*
G01*
X380250Y3560250D02*
G75*
G03*
X399935I9843J0D01*
G01*
G75*
G03*
X380250I-9843J0D01*
G01*
X391746Y1426470D02*
G75*
G03*
Y1417809I0J-4331D01*
G01*
G75*
G03*
Y1426470I0J4331D01*
G01*
X396864Y1412691D02*
G75*
G03*
Y1404030I0J-4331D01*
G01*
G75*
G03*
Y1412691I0J4331D01*
G01*
X397258Y1439069D02*
G75*
G03*
Y1430407I0J-4331D01*
G01*
G75*
G03*
Y1439069I0J4331D01*
G01*
X400250Y2700250D02*
G75*
G03*
Y2680565I0J-9843D01*
G01*
G75*
G03*
Y2700250I0J9843D01*
G01*
Y2939935D02*
G75*
G03*
Y2920250I0J-9843D01*
G01*
G75*
G03*
Y2939935I0J9843D01*
G01*
X410250Y250D02*
X250D01*
Y620015D01*
X410250D01*
Y250D01*
Y620250D02*
X250D01*
Y1160015D01*
X410250D01*
Y620250D01*
Y1444581D02*
G75*
G03*
Y1435919I0J-4331D01*
G01*
G75*
G03*
Y1444581I0J4331D01*
G01*
X420250Y310250D02*
Y250D01*
X2310250D01*
Y310250D01*
X420250D01*
Y620250D02*
Y310250D01*
X2310250D01*
Y620250D01*
X420250D01*
Y890250D02*
Y620250D01*
X2310250D01*
Y890250D01*
X420250D01*
Y1160250D02*
Y890250D01*
X2310250D01*
Y1160250D01*
X420250D01*
X423242Y1438675D02*
G75*
G03*
Y1430014I0J-4331D01*
G01*
G75*
G03*
Y1438675I0J4331D01*
G01*
X423636Y1412691D02*
G75*
G03*
Y1404030I0J-4331D01*
G01*
G75*
G03*
Y1412691I0J4331D01*
G01*
X428754Y1426470D02*
G75*
G03*
Y1417809I0J-4331D01*
G01*
G75*
G03*
Y1426470I0J4331D01*
G01*
X440250Y170250D02*
G75*
G03*
X430250Y160250I-5000J-5000D01*
G01*
G75*
G03*
X440250Y170250I5000J5000D01*
G01*
Y480250D02*
G75*
G03*
X430250Y470250I-5000J-5000D01*
G01*
G75*
G03*
X440250Y480250I5000J5000D01*
G01*
Y750250D02*
G75*
G03*
X430250Y740250I-5000J-5000D01*
G01*
G75*
G03*
X440250Y750250I5000J5000D01*
G01*
Y1020250D02*
G75*
G03*
X430250Y1010250I-5000J-5000D01*
G01*
G75*
G03*
X440250Y1020250I5000J5000D01*
G01*
Y3590250D02*
Y3580250D01*
X420250D01*
Y3590250D01*
X440250D01*
Y3630250D02*
Y3620250D01*
X420250D01*
Y3630250D01*
X440250D01*
Y3650250D02*
Y3640250D01*
X420250D01*
Y3650250D01*
X440250D01*
X441746Y3206470D02*
G75*
G03*
Y3197809I0J-4331D01*
G01*
G75*
G03*
Y3206470I0J4331D01*
G01*
X446864Y3192691D02*
G75*
G03*
Y3184030I0J-4331D01*
G01*
G75*
G03*
Y3192691I0J4331D01*
G01*
X447258Y3219069D02*
G75*
G03*
Y3210407I0J-4331D01*
G01*
G75*
G03*
Y3219069I0J4331D01*
G01*
X450250Y1900250D02*
G75*
G03*
X440250Y1890250I-5000J-5000D01*
G01*
G75*
G03*
X450250Y1900250I5000J5000D01*
G01*
X451746Y1996470D02*
G75*
G03*
Y1987809I0J-4331D01*
G01*
G75*
G03*
Y1996470I0J4331D01*
G01*
X456864Y1982691D02*
G75*
G03*
Y1974030I0J-4331D01*
G01*
G75*
G03*
Y1982691I0J4331D01*
G01*
X457258Y2009069D02*
G75*
G03*
Y2000407I0J-4331D01*
G01*
G75*
G03*
Y2009069I0J4331D01*
G01*
X460250Y2070250D02*
G75*
G03*
X450250Y2060250I-5000J-5000D01*
G01*
G75*
G03*
X460250Y2070250I5000J5000D01*
G01*
Y3224581D02*
G75*
G03*
Y3215919I0J-4331D01*
G01*
G75*
G03*
Y3224581I0J4331D01*
G01*
Y3560250D02*
G75*
G03*
X479935I9843J0D01*
G01*
G75*
G03*
X460250I-9843J0D01*
G01*
X470250Y2014581D02*
G75*
G03*
Y2005919I0J-4331D01*
G01*
G75*
G03*
Y2014581I0J4331D01*
G01*
X471746Y1426470D02*
G75*
G03*
Y1417809I0J-4331D01*
G01*
G75*
G03*
Y1426470I0J4331D01*
G01*
X473242Y3218675D02*
G75*
G03*
Y3210014I0J-4331D01*
G01*
G75*
G03*
Y3218675I0J4331D01*
G01*
X473636Y3192691D02*
G75*
G03*
Y3184030I0J-4331D01*
G01*
G75*
G03*
Y3192691I0J4331D01*
G01*
X476864Y1412691D02*
G75*
G03*
Y1404030I0J-4331D01*
G01*
G75*
G03*
Y1412691I0J4331D01*
G01*
X477258Y1439069D02*
G75*
G03*
Y1430407I0J-4331D01*
G01*
G75*
G03*
Y1439069I0J4331D01*
G01*
X478754Y3206470D02*
G75*
G03*
Y3197809I0J-4331D01*
G01*
G75*
G03*
Y3206470I0J4331D01*
G01*
X480250Y2960250D02*
G75*
G03*
X470250Y2950250I-5000J-5000D01*
G01*
G75*
G03*
X480250Y2960250I5000J5000D01*
G01*
X483242Y2008675D02*
G75*
G03*
Y2000014I0J-4331D01*
G01*
G75*
G03*
Y2008675I0J4331D01*
G01*
X483636Y1982691D02*
G75*
G03*
Y1974030I0J-4331D01*
G01*
G75*
G03*
Y1982691I0J4331D01*
G01*
X488754Y1996470D02*
G75*
G03*
Y1987809I0J-4331D01*
G01*
G75*
G03*
Y1996470I0J4331D01*
G01*
X490250Y1444581D02*
G75*
G03*
Y1435919I0J-4331D01*
G01*
G75*
G03*
Y1444581I0J4331D01*
G01*
X491746Y796470D02*
G75*
G03*
Y787809I0J-4331D01*
G01*
G75*
G03*
Y796470I0J4331D01*
G01*
Y1066470D02*
G75*
G03*
Y1057809I0J-4331D01*
G01*
G75*
G03*
Y1066470I0J4331D01*
G01*
X496864Y782691D02*
G75*
G03*
Y774030I0J-4331D01*
G01*
G75*
G03*
Y782691I0J4331D01*
G01*
Y1052691D02*
G75*
G03*
Y1044030I0J-4331D01*
G01*
G75*
G03*
Y1052691I0J4331D01*
G01*
X497258Y809069D02*
G75*
G03*
Y800407I0J-4331D01*
G01*
G75*
G03*
Y809069I0J4331D01*
G01*
Y1079069D02*
G75*
G03*
Y1070407I0J-4331D01*
G01*
G75*
G03*
Y1079069I0J4331D01*
G01*
X503242Y1438675D02*
G75*
G03*
Y1430014I0J-4331D01*
G01*
G75*
G03*
Y1438675I0J4331D01*
G01*
X503636Y1412691D02*
G75*
G03*
Y1404030I0J-4331D01*
G01*
G75*
G03*
Y1412691I0J4331D01*
G01*
X508754Y1426470D02*
G75*
G03*
Y1417809I0J-4331D01*
G01*
G75*
G03*
Y1426470I0J4331D01*
G01*
X510250Y814581D02*
G75*
G03*
Y805919I0J-4331D01*
G01*
G75*
G03*
Y814581I0J4331D01*
G01*
Y1084581D02*
G75*
G03*
Y1075919I0J-4331D01*
G01*
G75*
G03*
Y1084581I0J4331D01*
G01*
Y2650250D02*
G75*
G03*
X500250Y2640250I-5000J-5000D01*
G01*
G75*
G03*
X510250Y2650250I5000J5000D01*
G01*
X520250Y3590250D02*
Y3580250D01*
X500250D01*
Y3590250D01*
X520250D01*
Y3630250D02*
Y3620250D01*
X500250D01*
Y3630250D01*
X520250D01*
Y3650250D02*
Y3640250D01*
X500250D01*
Y3650250D01*
X520250D01*
X523242Y808675D02*
G75*
G03*
Y800014I0J-4331D01*
G01*
G75*
G03*
Y808675I0J4331D01*
G01*
Y1078675D02*
G75*
G03*
Y1070014I0J-4331D01*
G01*
G75*
G03*
Y1078675I0J4331D01*
G01*
X523636Y782691D02*
G75*
G03*
Y774030I0J-4331D01*
G01*
G75*
G03*
Y782691I0J4331D01*
G01*
Y1052691D02*
G75*
G03*
Y1044030I0J-4331D01*
G01*
G75*
G03*
Y1052691I0J4331D01*
G01*
X528754Y796470D02*
G75*
G03*
Y787809I0J-4331D01*
G01*
G75*
G03*
Y796470I0J4331D01*
G01*
Y1066470D02*
G75*
G03*
Y1057809I0J-4331D01*
G01*
G75*
G03*
Y1066470I0J4331D01*
G01*
X530250Y2140250D02*
G75*
G03*
Y1780250I0J-180000D01*
G01*
G75*
G03*
Y2140250I0J180000D01*
G01*
X540250Y3560250D02*
G75*
G03*
X559935I9843J0D01*
G01*
G75*
G03*
X540250I-9843J0D01*
G01*
X551746Y216470D02*
G75*
G03*
Y207809I0J-4331D01*
G01*
G75*
G03*
Y216470I0J4331D01*
G01*
Y526470D02*
G75*
G03*
Y517809I0J-4331D01*
G01*
G75*
G03*
Y526470I0J4331D01*
G01*
Y1426470D02*
G75*
G03*
Y1417809I0J-4331D01*
G01*
G75*
G03*
Y1426470I0J4331D01*
G01*
X556864Y202691D02*
G75*
G03*
Y194030I0J-4331D01*
G01*
G75*
G03*
Y202691I0J4331D01*
G01*
Y512691D02*
G75*
G03*
Y504030I0J-4331D01*
G01*
G75*
G03*
Y512691I0J4331D01*
G01*
Y1412691D02*
G75*
G03*
Y1404030I0J-4331D01*
G01*
G75*
G03*
Y1412691I0J4331D01*
G01*
X557258Y229069D02*
G75*
G03*
Y220407I0J-4331D01*
G01*
G75*
G03*
Y229069I0J4331D01*
G01*
Y539069D02*
G75*
G03*
Y530407I0J-4331D01*
G01*
G75*
G03*
Y539069I0J4331D01*
G01*
Y1439069D02*
G75*
G03*
Y1430407I0J-4331D01*
G01*
G75*
G03*
Y1439069I0J4331D01*
G01*
X570250Y234581D02*
G75*
G03*
Y225919I0J-4331D01*
G01*
G75*
G03*
Y234581I0J4331D01*
G01*
Y544581D02*
G75*
G03*
Y535919I0J-4331D01*
G01*
G75*
G03*
Y544581I0J4331D01*
G01*
Y1444581D02*
G75*
G03*
Y1435919I0J-4331D01*
G01*
G75*
G03*
Y1444581I0J4331D01*
G01*
X571746Y1996470D02*
G75*
G03*
Y1987809I0J-4331D01*
G01*
G75*
G03*
Y1996470I0J4331D01*
G01*
X576864Y1982691D02*
G75*
G03*
Y1974030I0J-4331D01*
G01*
G75*
G03*
Y1982691I0J4331D01*
G01*
X577258Y2009069D02*
G75*
G03*
Y2000407I0J-4331D01*
G01*
G75*
G03*
Y2009069I0J4331D01*
G01*
X581746Y796470D02*
G75*
G03*
Y787809I0J-4331D01*
G01*
G75*
G03*
Y796470I0J4331D01*
G01*
Y1066470D02*
G75*
G03*
Y1057809I0J-4331D01*
G01*
G75*
G03*
Y1066470I0J4331D01*
G01*
X583242Y228675D02*
G75*
G03*
Y220014I0J-4331D01*
G01*
G75*
G03*
Y228675I0J4331D01*
G01*
Y538675D02*
G75*
G03*
Y530014I0J-4331D01*
G01*
G75*
G03*
Y538675I0J4331D01*
G01*
Y1438675D02*
G75*
G03*
Y1430014I0J-4331D01*
G01*
G75*
G03*
Y1438675I0J4331D01*
G01*
X583636Y202691D02*
G75*
G03*
Y194030I0J-4331D01*
G01*
G75*
G03*
Y202691I0J4331D01*
G01*
Y512691D02*
G75*
G03*
Y504030I0J-4331D01*
G01*
G75*
G03*
Y512691I0J4331D01*
G01*
Y1412691D02*
G75*
G03*
Y1404030I0J-4331D01*
G01*
G75*
G03*
Y1412691I0J4331D01*
G01*
X586864Y782691D02*
G75*
G03*
Y774030I0J-4331D01*
G01*
G75*
G03*
Y782691I0J4331D01*
G01*
Y1052691D02*
G75*
G03*
Y1044030I0J-4331D01*
G01*
G75*
G03*
Y1052691I0J4331D01*
G01*
X587258Y809069D02*
G75*
G03*
Y800407I0J-4331D01*
G01*
G75*
G03*
Y809069I0J4331D01*
G01*
Y1079069D02*
G75*
G03*
Y1070407I0J-4331D01*
G01*
G75*
G03*
Y1079069I0J4331D01*
G01*
X588754Y216470D02*
G75*
G03*
Y207809I0J-4331D01*
G01*
G75*
G03*
Y216470I0J4331D01*
G01*
Y526470D02*
G75*
G03*
Y517809I0J-4331D01*
G01*
G75*
G03*
Y526470I0J4331D01*
G01*
Y1426470D02*
G75*
G03*
Y1417809I0J-4331D01*
G01*
G75*
G03*
Y1426470I0J4331D01*
G01*
X590250Y2014581D02*
G75*
G03*
Y2005919I0J-4331D01*
G01*
G75*
G03*
Y2014581I0J4331D01*
G01*
X600250Y814581D02*
G75*
G03*
Y805919I0J-4331D01*
G01*
G75*
G03*
Y814581I0J4331D01*
G01*
Y1084581D02*
G75*
G03*
Y1075919I0J-4331D01*
G01*
G75*
G03*
Y1084581I0J4331D01*
G01*
Y3590250D02*
Y3580250D01*
X580250D01*
Y3590250D01*
X600250D01*
Y3630250D02*
Y3620250D01*
X580250D01*
Y3630250D01*
X600250D01*
Y3650250D02*
Y3640250D01*
X580250D01*
Y3650250D01*
X600250D01*
X603242Y2008675D02*
G75*
G03*
Y2000014I0J-4331D01*
G01*
G75*
G03*
Y2008675I0J4331D01*
G01*
X603636Y1982691D02*
G75*
G03*
Y1974030I0J-4331D01*
G01*
G75*
G03*
Y1982691I0J4331D01*
G01*
X608754Y1996470D02*
G75*
G03*
Y1987809I0J-4331D01*
G01*
G75*
G03*
Y1996470I0J4331D01*
G01*
X610250Y2070250D02*
G75*
G03*
X600250Y2060250I-5000J-5000D01*
G01*
G75*
G03*
X610250Y2070250I5000J5000D01*
G01*
X613242Y808675D02*
G75*
G03*
Y800014I0J-4331D01*
G01*
G75*
G03*
Y808675I0J4331D01*
G01*
Y1078675D02*
G75*
G03*
Y1070014I0J-4331D01*
G01*
G75*
G03*
Y1078675I0J4331D01*
G01*
X613636Y782691D02*
G75*
G03*
Y774030I0J-4331D01*
G01*
G75*
G03*
Y782691I0J4331D01*
G01*
Y1052691D02*
G75*
G03*
Y1044030I0J-4331D01*
G01*
G75*
G03*
Y1052691I0J4331D01*
G01*
X618754Y796470D02*
G75*
G03*
Y787809I0J-4331D01*
G01*
G75*
G03*
Y796470I0J4331D01*
G01*
Y1066470D02*
G75*
G03*
Y1057809I0J-4331D01*
G01*
G75*
G03*
Y1066470I0J4331D01*
G01*
X620250Y1900250D02*
G75*
G03*
X610250Y1890250I-5000J-5000D01*
G01*
G75*
G03*
X620250Y1900250I5000J5000D01*
G01*
Y3560250D02*
G75*
G03*
X639935I9843J0D01*
G01*
G75*
G03*
X620250I-9843J0D01*
G01*
X641746Y216470D02*
G75*
G03*
Y207809I0J-4331D01*
G01*
G75*
G03*
Y216470I0J4331D01*
G01*
Y526470D02*
G75*
G03*
Y517809I0J-4331D01*
G01*
G75*
G03*
Y526470I0J4331D01*
G01*
Y1426470D02*
G75*
G03*
Y1417809I0J-4331D01*
G01*
G75*
G03*
Y1426470I0J4331D01*
G01*
X646864Y202691D02*
G75*
G03*
Y194030I0J-4331D01*
G01*
G75*
G03*
Y202691I0J4331D01*
G01*
Y512691D02*
G75*
G03*
Y504030I0J-4331D01*
G01*
G75*
G03*
Y512691I0J4331D01*
G01*
Y1412691D02*
G75*
G03*
Y1404030I0J-4331D01*
G01*
G75*
G03*
Y1412691I0J4331D01*
G01*
X647258Y229069D02*
G75*
G03*
Y220407I0J-4331D01*
G01*
G75*
G03*
Y229069I0J4331D01*
G01*
Y539069D02*
G75*
G03*
Y530407I0J-4331D01*
G01*
G75*
G03*
Y539069I0J4331D01*
G01*
Y1439069D02*
G75*
G03*
Y1430407I0J-4331D01*
G01*
G75*
G03*
Y1439069I0J4331D01*
G01*
X660250Y234581D02*
G75*
G03*
Y225919I0J-4331D01*
G01*
G75*
G03*
Y234581I0J4331D01*
G01*
Y544581D02*
G75*
G03*
Y535919I0J-4331D01*
G01*
G75*
G03*
Y544581I0J4331D01*
G01*
Y1444581D02*
G75*
G03*
Y1435919I0J-4331D01*
G01*
G75*
G03*
Y1444581I0J4331D01*
G01*
X673242Y228675D02*
G75*
G03*
Y220014I0J-4331D01*
G01*
G75*
G03*
Y228675I0J4331D01*
G01*
Y538675D02*
G75*
G03*
Y530014I0J-4331D01*
G01*
G75*
G03*
Y538675I0J4331D01*
G01*
Y1438675D02*
G75*
G03*
Y1430014I0J-4331D01*
G01*
G75*
G03*
Y1438675I0J4331D01*
G01*
X673636Y202691D02*
G75*
G03*
Y194030I0J-4331D01*
G01*
G75*
G03*
Y202691I0J4331D01*
G01*
Y512691D02*
G75*
G03*
Y504030I0J-4331D01*
G01*
G75*
G03*
Y512691I0J4331D01*
G01*
Y1412691D02*
G75*
G03*
Y1404030I0J-4331D01*
G01*
G75*
G03*
Y1412691I0J4331D01*
G01*
X678754Y216470D02*
G75*
G03*
Y207809I0J-4331D01*
G01*
G75*
G03*
Y216470I0J4331D01*
G01*
Y526470D02*
G75*
G03*
Y517809I0J-4331D01*
G01*
G75*
G03*
Y526470I0J4331D01*
G01*
Y1426470D02*
G75*
G03*
Y1417809I0J-4331D01*
G01*
G75*
G03*
Y1426470I0J4331D01*
G01*
X680250Y3590250D02*
Y3580250D01*
X660250D01*
Y3590250D01*
X680250D01*
Y3630250D02*
Y3620250D01*
X660250D01*
Y3630250D01*
X680250D01*
Y3650250D02*
Y3640250D01*
X660250D01*
Y3650250D01*
X680250D01*
X700250Y3560250D02*
G75*
G03*
X719935I9843J0D01*
G01*
G75*
G03*
X700250I-9843J0D01*
G01*
X721746Y1426470D02*
G75*
G03*
Y1417809I0J-4331D01*
G01*
G75*
G03*
Y1426470I0J4331D01*
G01*
X726864Y1412691D02*
G75*
G03*
Y1404030I0J-4331D01*
G01*
G75*
G03*
Y1412691I0J4331D01*
G01*
X727258Y1439069D02*
G75*
G03*
Y1430407I0J-4331D01*
G01*
G75*
G03*
Y1439069I0J4331D01*
G01*
X740250Y1444581D02*
G75*
G03*
Y1435919I0J-4331D01*
G01*
G75*
G03*
Y1444581I0J4331D01*
G01*
X741746Y796470D02*
G75*
G03*
Y787809I0J-4331D01*
G01*
G75*
G03*
Y796470I0J4331D01*
G01*
Y1066470D02*
G75*
G03*
Y1057809I0J-4331D01*
G01*
G75*
G03*
Y1066470I0J4331D01*
G01*
X746864Y782691D02*
G75*
G03*
Y774030I0J-4331D01*
G01*
G75*
G03*
Y782691I0J4331D01*
G01*
Y1052691D02*
G75*
G03*
Y1044030I0J-4331D01*
G01*
G75*
G03*
Y1052691I0J4331D01*
G01*
X747258Y809069D02*
G75*
G03*
Y800407I0J-4331D01*
G01*
G75*
G03*
Y809069I0J4331D01*
G01*
Y1079069D02*
G75*
G03*
Y1070407I0J-4331D01*
G01*
G75*
G03*
Y1079069I0J4331D01*
G01*
X753242Y1438675D02*
G75*
G03*
Y1430014I0J-4331D01*
G01*
G75*
G03*
Y1438675I0J4331D01*
G01*
X753636Y1412691D02*
G75*
G03*
Y1404030I0J-4331D01*
G01*
G75*
G03*
Y1412691I0J4331D01*
G01*
X758754Y1426470D02*
G75*
G03*
Y1417809I0J-4331D01*
G01*
G75*
G03*
Y1426470I0J4331D01*
G01*
X760250Y814581D02*
G75*
G03*
Y805919I0J-4331D01*
G01*
G75*
G03*
Y814581I0J4331D01*
G01*
Y1084581D02*
G75*
G03*
Y1075919I0J-4331D01*
G01*
G75*
G03*
Y1084581I0J4331D01*
G01*
Y3590250D02*
Y3580250D01*
X740250D01*
Y3590250D01*
X760250D01*
Y3630250D02*
Y3620250D01*
X740250D01*
Y3630250D01*
X760250D01*
Y3650250D02*
Y3640250D01*
X740250D01*
Y3650250D01*
X760250D01*
X773242Y808675D02*
G75*
G03*
Y800014I0J-4331D01*
G01*
G75*
G03*
Y808675I0J4331D01*
G01*
Y1078675D02*
G75*
G03*
Y1070014I0J-4331D01*
G01*
G75*
G03*
Y1078675I0J4331D01*
G01*
X773636Y782691D02*
G75*
G03*
Y774030I0J-4331D01*
G01*
G75*
G03*
Y782691I0J4331D01*
G01*
Y1052691D02*
G75*
G03*
Y1044030I0J-4331D01*
G01*
G75*
G03*
Y1052691I0J4331D01*
G01*
X778754Y796470D02*
G75*
G03*
Y787809I0J-4331D01*
G01*
G75*
G03*
Y796470I0J4331D01*
G01*
Y1066470D02*
G75*
G03*
Y1057809I0J-4331D01*
G01*
G75*
G03*
Y1066470I0J4331D01*
G01*
X780250Y3560250D02*
G75*
G03*
X799935I9843J0D01*
G01*
G75*
G03*
X780250I-9843J0D01*
G01*
X790250Y3100250D02*
G75*
G03*
X780250Y3090250I-5000J-5000D01*
G01*
G75*
G03*
X790250Y3100250I5000J5000D01*
G01*
X801746Y216470D02*
G75*
G03*
Y207809I0J-4331D01*
G01*
G75*
G03*
Y216470I0J4331D01*
G01*
Y526470D02*
G75*
G03*
Y517809I0J-4331D01*
G01*
G75*
G03*
Y526470I0J4331D01*
G01*
Y1426470D02*
G75*
G03*
Y1417809I0J-4331D01*
G01*
G75*
G03*
Y1426470I0J4331D01*
G01*
X806864Y202691D02*
G75*
G03*
Y194030I0J-4331D01*
G01*
G75*
G03*
Y202691I0J4331D01*
G01*
Y512691D02*
G75*
G03*
Y504030I0J-4331D01*
G01*
G75*
G03*
Y512691I0J4331D01*
G01*
Y1412691D02*
G75*
G03*
Y1404030I0J-4331D01*
G01*
G75*
G03*
Y1412691I0J4331D01*
G01*
X807258Y229069D02*
G75*
G03*
Y220407I0J-4331D01*
G01*
G75*
G03*
Y229069I0J4331D01*
G01*
Y539069D02*
G75*
G03*
Y530407I0J-4331D01*
G01*
G75*
G03*
Y539069I0J4331D01*
G01*
Y1439069D02*
G75*
G03*
Y1430407I0J-4331D01*
G01*
G75*
G03*
Y1439069I0J4331D01*
G01*
X820250Y234581D02*
G75*
G03*
Y225919I0J-4331D01*
G01*
G75*
G03*
Y234581I0J4331D01*
G01*
Y544581D02*
G75*
G03*
Y535919I0J-4331D01*
G01*
G75*
G03*
Y544581I0J4331D01*
G01*
Y1444581D02*
G75*
G03*
Y1435919I0J-4331D01*
G01*
G75*
G03*
Y1444581I0J4331D01*
G01*
Y3390250D02*
Y3060250D01*
X2310250D01*
Y3390250D01*
X820250D01*
X831746Y3636470D02*
G75*
G03*
Y3627809I0J-4331D01*
G01*
G75*
G03*
Y3636470I0J4331D01*
G01*
X833242Y228675D02*
G75*
G03*
Y220014I0J-4331D01*
G01*
G75*
G03*
Y228675I0J4331D01*
G01*
Y538675D02*
G75*
G03*
Y530014I0J-4331D01*
G01*
G75*
G03*
Y538675I0J4331D01*
G01*
Y1438675D02*
G75*
G03*
Y1430014I0J-4331D01*
G01*
G75*
G03*
Y1438675I0J4331D01*
G01*
X833636Y202691D02*
G75*
G03*
Y194030I0J-4331D01*
G01*
G75*
G03*
Y202691I0J4331D01*
G01*
Y512691D02*
G75*
G03*
Y504030I0J-4331D01*
G01*
G75*
G03*
Y512691I0J4331D01*
G01*
Y1412691D02*
G75*
G03*
Y1404030I0J-4331D01*
G01*
G75*
G03*
Y1412691I0J4331D01*
G01*
X836864Y3622691D02*
G75*
G03*
Y3614030I0J-4331D01*
G01*
G75*
G03*
Y3622691I0J4331D01*
G01*
X837258Y3649069D02*
G75*
G03*
Y3640407I0J-4331D01*
G01*
G75*
G03*
Y3649069I0J4331D01*
G01*
X838754Y216470D02*
G75*
G03*
Y207809I0J-4331D01*
G01*
G75*
G03*
Y216470I0J4331D01*
G01*
Y526470D02*
G75*
G03*
Y517809I0J-4331D01*
G01*
G75*
G03*
Y526470I0J4331D01*
G01*
Y1426470D02*
G75*
G03*
Y1417809I0J-4331D01*
G01*
G75*
G03*
Y1426470I0J4331D01*
G01*
X841746Y796470D02*
G75*
G03*
Y787809I0J-4331D01*
G01*
G75*
G03*
Y796470I0J4331D01*
G01*
Y1066470D02*
G75*
G03*
Y1057809I0J-4331D01*
G01*
G75*
G03*
Y1066470I0J4331D01*
G01*
X846864Y782691D02*
G75*
G03*
Y774030I0J-4331D01*
G01*
G75*
G03*
Y782691I0J4331D01*
G01*
Y1052691D02*
G75*
G03*
Y1044030I0J-4331D01*
G01*
G75*
G03*
Y1052691I0J4331D01*
G01*
X847258Y809069D02*
G75*
G03*
Y800407I0J-4331D01*
G01*
G75*
G03*
Y809069I0J4331D01*
G01*
Y1079069D02*
G75*
G03*
Y1070407I0J-4331D01*
G01*
G75*
G03*
Y1079069I0J4331D01*
G01*
X850250Y3100250D02*
G75*
G03*
X840250Y3090250I-5000J-5000D01*
G01*
G75*
G03*
X850250Y3100250I5000J5000D01*
G01*
Y3654581D02*
G75*
G03*
Y3645919I0J-4331D01*
G01*
G75*
G03*
Y3654581I0J4331D01*
G01*
X860250Y814581D02*
G75*
G03*
Y805919I0J-4331D01*
G01*
G75*
G03*
Y814581I0J4331D01*
G01*
Y1084581D02*
G75*
G03*
Y1075919I0J-4331D01*
G01*
G75*
G03*
Y1084581I0J4331D01*
G01*
X863242Y3648675D02*
G75*
G03*
Y3640014I0J-4331D01*
G01*
G75*
G03*
Y3648675I0J4331D01*
G01*
X863636Y3622691D02*
G75*
G03*
Y3614030I0J-4331D01*
G01*
G75*
G03*
Y3622691I0J4331D01*
G01*
X868754Y3636470D02*
G75*
G03*
Y3627809I0J-4331D01*
G01*
G75*
G03*
Y3636470I0J4331D01*
G01*
X873242Y808675D02*
G75*
G03*
Y800014I0J-4331D01*
G01*
G75*
G03*
Y808675I0J4331D01*
G01*
Y1078675D02*
G75*
G03*
Y1070014I0J-4331D01*
G01*
G75*
G03*
Y1078675I0J4331D01*
G01*
X873636Y782691D02*
G75*
G03*
Y774030I0J-4331D01*
G01*
G75*
G03*
Y782691I0J4331D01*
G01*
Y1052691D02*
G75*
G03*
Y1044030I0J-4331D01*
G01*
G75*
G03*
Y1052691I0J4331D01*
G01*
X878754Y796470D02*
G75*
G03*
Y787809I0J-4331D01*
G01*
G75*
G03*
Y796470I0J4331D01*
G01*
Y1066470D02*
G75*
G03*
Y1057809I0J-4331D01*
G01*
G75*
G03*
Y1066470I0J4331D01*
G01*
X881746Y216470D02*
G75*
G03*
Y207809I0J-4331D01*
G01*
G75*
G03*
Y216470I0J4331D01*
G01*
Y526470D02*
G75*
G03*
Y517809I0J-4331D01*
G01*
G75*
G03*
Y526470I0J4331D01*
G01*
X886864Y202691D02*
G75*
G03*
Y194030I0J-4331D01*
G01*
G75*
G03*
Y202691I0J4331D01*
G01*
Y512691D02*
G75*
G03*
Y504030I0J-4331D01*
G01*
G75*
G03*
Y512691I0J4331D01*
G01*
X887258Y229069D02*
G75*
G03*
Y220407I0J-4331D01*
G01*
G75*
G03*
Y229069I0J4331D01*
G01*
Y539069D02*
G75*
G03*
Y530407I0J-4331D01*
G01*
G75*
G03*
Y539069I0J4331D01*
G01*
X891746Y1426470D02*
G75*
G03*
Y1417809I0J-4331D01*
G01*
G75*
G03*
Y1426470I0J4331D01*
G01*
X896864Y1412691D02*
G75*
G03*
Y1404030I0J-4331D01*
G01*
G75*
G03*
Y1412691I0J4331D01*
G01*
X897258Y1439069D02*
G75*
G03*
Y1430407I0J-4331D01*
G01*
G75*
G03*
Y1439069I0J4331D01*
G01*
X900250Y234581D02*
G75*
G03*
Y225919I0J-4331D01*
G01*
G75*
G03*
Y234581I0J4331D01*
G01*
Y544581D02*
G75*
G03*
Y535919I0J-4331D01*
G01*
G75*
G03*
Y544581I0J4331D01*
G01*
X910250Y1444581D02*
G75*
G03*
Y1435919I0J-4331D01*
G01*
G75*
G03*
Y1444581I0J4331D01*
G01*
X913242Y228675D02*
G75*
G03*
Y220014I0J-4331D01*
G01*
G75*
G03*
Y228675I0J4331D01*
G01*
Y538675D02*
G75*
G03*
Y530014I0J-4331D01*
G01*
G75*
G03*
Y538675I0J4331D01*
G01*
X913636Y202691D02*
G75*
G03*
Y194030I0J-4331D01*
G01*
G75*
G03*
Y202691I0J4331D01*
G01*
Y512691D02*
G75*
G03*
Y504030I0J-4331D01*
G01*
G75*
G03*
Y512691I0J4331D01*
G01*
X918754Y216470D02*
G75*
G03*
Y207809I0J-4331D01*
G01*
G75*
G03*
Y216470I0J4331D01*
G01*
Y526470D02*
G75*
G03*
Y517809I0J-4331D01*
G01*
G75*
G03*
Y526470I0J4331D01*
G01*
X920250Y840250D02*
G75*
G03*
X910250Y830250I-5000J-5000D01*
G01*
G75*
G03*
X920250Y840250I5000J5000D01*
G01*
Y1110250D02*
G75*
G03*
X910250Y1100250I-5000J-5000D01*
G01*
G75*
G03*
X920250Y1110250I5000J5000D01*
G01*
X921746Y3636470D02*
G75*
G03*
Y3627809I0J-4331D01*
G01*
G75*
G03*
Y3636470I0J4331D01*
G01*
X923242Y1438675D02*
G75*
G03*
Y1430014I0J-4331D01*
G01*
G75*
G03*
Y1438675I0J4331D01*
G01*
X923636Y1412691D02*
G75*
G03*
Y1404030I0J-4331D01*
G01*
G75*
G03*
Y1412691I0J4331D01*
G01*
X926864Y3622691D02*
G75*
G03*
Y3614030I0J-4331D01*
G01*
G75*
G03*
Y3622691I0J4331D01*
G01*
X927258Y3649069D02*
G75*
G03*
Y3640407I0J-4331D01*
G01*
G75*
G03*
Y3649069I0J4331D01*
G01*
X928754Y1426470D02*
G75*
G03*
Y1417809I0J-4331D01*
G01*
G75*
G03*
Y1426470I0J4331D01*
G01*
X940250Y3654581D02*
G75*
G03*
Y3645919I0J-4331D01*
G01*
G75*
G03*
Y3654581I0J4331D01*
G01*
X941746Y3276470D02*
G75*
G03*
Y3267809I0J-4331D01*
G01*
G75*
G03*
Y3276470I0J4331D01*
G01*
X946864Y3262691D02*
G75*
G03*
Y3254030I0J-4331D01*
G01*
G75*
G03*
Y3262691I0J4331D01*
G01*
X947258Y3289069D02*
G75*
G03*
Y3280407I0J-4331D01*
G01*
G75*
G03*
Y3289069I0J4331D01*
G01*
X951746Y796470D02*
G75*
G03*
Y787809I0J-4331D01*
G01*
G75*
G03*
Y796470I0J4331D01*
G01*
Y1066470D02*
G75*
G03*
Y1057809I0J-4331D01*
G01*
G75*
G03*
Y1066470I0J4331D01*
G01*
X953242Y3648675D02*
G75*
G03*
Y3640014I0J-4331D01*
G01*
G75*
G03*
Y3648675I0J4331D01*
G01*
X953636Y3622691D02*
G75*
G03*
Y3614030I0J-4331D01*
G01*
G75*
G03*
Y3622691I0J4331D01*
G01*
X956864Y782691D02*
G75*
G03*
Y774030I0J-4331D01*
G01*
G75*
G03*
Y782691I0J4331D01*
G01*
Y1052691D02*
G75*
G03*
Y1044030I0J-4331D01*
G01*
G75*
G03*
Y1052691I0J4331D01*
G01*
X957258Y809069D02*
G75*
G03*
Y800407I0J-4331D01*
G01*
G75*
G03*
Y809069I0J4331D01*
G01*
Y1079069D02*
G75*
G03*
Y1070407I0J-4331D01*
G01*
G75*
G03*
Y1079069I0J4331D01*
G01*
X958754Y3636470D02*
G75*
G03*
Y3627809I0J-4331D01*
G01*
G75*
G03*
Y3636470I0J4331D01*
G01*
X960250Y3294581D02*
G75*
G03*
Y3285919I0J-4331D01*
G01*
G75*
G03*
Y3294581I0J4331D01*
G01*
X970250Y814581D02*
G75*
G03*
Y805919I0J-4331D01*
G01*
G75*
G03*
Y814581I0J4331D01*
G01*
Y1084581D02*
G75*
G03*
Y1075919I0J-4331D01*
G01*
G75*
G03*
Y1084581I0J4331D01*
G01*
X971746Y1426470D02*
G75*
G03*
Y1417809I0J-4331D01*
G01*
G75*
G03*
Y1426470I0J4331D01*
G01*
X973242Y3288675D02*
G75*
G03*
Y3280014I0J-4331D01*
G01*
G75*
G03*
Y3288675I0J4331D01*
G01*
X973636Y3262691D02*
G75*
G03*
Y3254030I0J-4331D01*
G01*
G75*
G03*
Y3262691I0J4331D01*
G01*
X976864Y1412691D02*
G75*
G03*
Y1404030I0J-4331D01*
G01*
G75*
G03*
Y1412691I0J4331D01*
G01*
X977258Y1439069D02*
G75*
G03*
Y1430407I0J-4331D01*
G01*
G75*
G03*
Y1439069I0J4331D01*
G01*
X978754Y3276470D02*
G75*
G03*
Y3267809I0J-4331D01*
G01*
G75*
G03*
Y3276470I0J4331D01*
G01*
X981746Y216470D02*
G75*
G03*
Y207809I0J-4331D01*
G01*
G75*
G03*
Y216470I0J4331D01*
G01*
Y526470D02*
G75*
G03*
Y517809I0J-4331D01*
G01*
G75*
G03*
Y526470I0J4331D01*
G01*
X983242Y808675D02*
G75*
G03*
Y800014I0J-4331D01*
G01*
G75*
G03*
Y808675I0J4331D01*
G01*
Y1078675D02*
G75*
G03*
Y1070014I0J-4331D01*
G01*
G75*
G03*
Y1078675I0J4331D01*
G01*
X983636Y782691D02*
G75*
G03*
Y774030I0J-4331D01*
G01*
G75*
G03*
Y782691I0J4331D01*
G01*
Y1052691D02*
G75*
G03*
Y1044030I0J-4331D01*
G01*
G75*
G03*
Y1052691I0J4331D01*
G01*
X986864Y202691D02*
G75*
G03*
Y194030I0J-4331D01*
G01*
G75*
G03*
Y202691I0J4331D01*
G01*
Y512691D02*
G75*
G03*
Y504030I0J-4331D01*
G01*
G75*
G03*
Y512691I0J4331D01*
G01*
X987258Y229069D02*
G75*
G03*
Y220407I0J-4331D01*
G01*
G75*
G03*
Y229069I0J4331D01*
G01*
Y539069D02*
G75*
G03*
Y530407I0J-4331D01*
G01*
G75*
G03*
Y539069I0J4331D01*
G01*
X988754Y796470D02*
G75*
G03*
Y787809I0J-4331D01*
G01*
G75*
G03*
Y796470I0J4331D01*
G01*
Y1066470D02*
G75*
G03*
Y1057809I0J-4331D01*
G01*
G75*
G03*
Y1066470I0J4331D01*
G01*
X990250Y1444581D02*
G75*
G03*
Y1435919I0J-4331D01*
G01*
G75*
G03*
Y1444581I0J4331D01*
G01*
X1000250Y234581D02*
G75*
G03*
Y225919I0J-4331D01*
G01*
G75*
G03*
Y234581I0J4331D01*
G01*
Y544581D02*
G75*
G03*
Y535919I0J-4331D01*
G01*
G75*
G03*
Y544581I0J4331D01*
G01*
X1003242Y1438675D02*
G75*
G03*
Y1430014I0J-4331D01*
G01*
G75*
G03*
Y1438675I0J4331D01*
G01*
X1003636Y1412691D02*
G75*
G03*
Y1404030I0J-4331D01*
G01*
G75*
G03*
Y1412691I0J4331D01*
G01*
X1008754Y1426470D02*
G75*
G03*
Y1417809I0J-4331D01*
G01*
G75*
G03*
Y1426470I0J4331D01*
G01*
X1011746Y3636470D02*
G75*
G03*
Y3627809I0J-4331D01*
G01*
G75*
G03*
Y3636470I0J4331D01*
G01*
X1013242Y228675D02*
G75*
G03*
Y220014I0J-4331D01*
G01*
G75*
G03*
Y228675I0J4331D01*
G01*
Y538675D02*
G75*
G03*
Y530014I0J-4331D01*
G01*
G75*
G03*
Y538675I0J4331D01*
G01*
X1013636Y202691D02*
G75*
G03*
Y194030I0J-4331D01*
G01*
G75*
G03*
Y202691I0J4331D01*
G01*
Y512691D02*
G75*
G03*
Y504030I0J-4331D01*
G01*
G75*
G03*
Y512691I0J4331D01*
G01*
X1016864Y3622691D02*
G75*
G03*
Y3614030I0J-4331D01*
G01*
G75*
G03*
Y3622691I0J4331D01*
G01*
X1017258Y3649069D02*
G75*
G03*
Y3640407I0J-4331D01*
G01*
G75*
G03*
Y3649069I0J4331D01*
G01*
X1018754Y216470D02*
G75*
G03*
Y207809I0J-4331D01*
G01*
G75*
G03*
Y216470I0J4331D01*
G01*
Y526470D02*
G75*
G03*
Y517809I0J-4331D01*
G01*
G75*
G03*
Y526470I0J4331D01*
G01*
X1021746Y3276470D02*
G75*
G03*
Y3267809I0J-4331D01*
G01*
G75*
G03*
Y3276470I0J4331D01*
G01*
X1026864Y3262691D02*
G75*
G03*
Y3254030I0J-4331D01*
G01*
G75*
G03*
Y3262691I0J4331D01*
G01*
X1027258Y3289069D02*
G75*
G03*
Y3280407I0J-4331D01*
G01*
G75*
G03*
Y3289069I0J4331D01*
G01*
X1030250Y3654581D02*
G75*
G03*
Y3645919I0J-4331D01*
G01*
G75*
G03*
Y3654581I0J4331D01*
G01*
X1040250Y3294581D02*
G75*
G03*
Y3285919I0J-4331D01*
G01*
G75*
G03*
Y3294581I0J4331D01*
G01*
X1041746Y796470D02*
G75*
G03*
Y787809I0J-4331D01*
G01*
G75*
G03*
Y796470I0J4331D01*
G01*
Y1066470D02*
G75*
G03*
Y1057809I0J-4331D01*
G01*
G75*
G03*
Y1066470I0J4331D01*
G01*
X1043242Y3648675D02*
G75*
G03*
Y3640014I0J-4331D01*
G01*
G75*
G03*
Y3648675I0J4331D01*
G01*
X1043636Y3622691D02*
G75*
G03*
Y3614030I0J-4331D01*
G01*
G75*
G03*
Y3622691I0J4331D01*
G01*
X1046864Y782691D02*
G75*
G03*
Y774030I0J-4331D01*
G01*
G75*
G03*
Y782691I0J4331D01*
G01*
Y1052691D02*
G75*
G03*
Y1044030I0J-4331D01*
G01*
G75*
G03*
Y1052691I0J4331D01*
G01*
X1047258Y809069D02*
G75*
G03*
Y800407I0J-4331D01*
G01*
G75*
G03*
Y809069I0J4331D01*
G01*
Y1079069D02*
G75*
G03*
Y1070407I0J-4331D01*
G01*
G75*
G03*
Y1079069I0J4331D01*
G01*
X1048754Y3636470D02*
G75*
G03*
Y3627809I0J-4331D01*
G01*
G75*
G03*
Y3636470I0J4331D01*
G01*
X1051746Y1426470D02*
G75*
G03*
Y1417809I0J-4331D01*
G01*
G75*
G03*
Y1426470I0J4331D01*
G01*
X1053242Y3288675D02*
G75*
G03*
Y3280014I0J-4331D01*
G01*
G75*
G03*
Y3288675I0J4331D01*
G01*
X1053636Y3262691D02*
G75*
G03*
Y3254030I0J-4331D01*
G01*
G75*
G03*
Y3262691I0J4331D01*
G01*
X1056864Y1412691D02*
G75*
G03*
Y1404030I0J-4331D01*
G01*
G75*
G03*
Y1412691I0J4331D01*
G01*
X1057258Y1439069D02*
G75*
G03*
Y1430407I0J-4331D01*
G01*
G75*
G03*
Y1439069I0J4331D01*
G01*
X1058754Y3276470D02*
G75*
G03*
Y3267809I0J-4331D01*
G01*
G75*
G03*
Y3276470I0J4331D01*
G01*
X1060250Y814581D02*
G75*
G03*
Y805919I0J-4331D01*
G01*
G75*
G03*
Y814581I0J4331D01*
G01*
Y1084581D02*
G75*
G03*
Y1075919I0J-4331D01*
G01*
G75*
G03*
Y1084581I0J4331D01*
G01*
X1070250Y1444581D02*
G75*
G03*
Y1435919I0J-4331D01*
G01*
G75*
G03*
Y1444581I0J4331D01*
G01*
Y2520250D02*
G75*
G03*
X1090250Y2500250I20000J0D01*
G01*
X1110250D01*
G75*
G03*
X1130250Y2520250I0J20000D01*
G01*
Y2530250D01*
G75*
G02*
X1150250Y2550250I20000J0D01*
G01*
X1230250D01*
G75*
G03*
X1250250Y2570250I0J20000D01*
G01*
Y2800250D01*
G75*
G03*
X1230250Y2820250I-20000J0D01*
G01*
X1090250D01*
G75*
G03*
X1070250Y2800250I0J-20000D01*
G01*
Y2520250D01*
X1071746Y216470D02*
G75*
G03*
Y207809I0J-4331D01*
G01*
G75*
G03*
Y216470I0J4331D01*
G01*
Y526470D02*
G75*
G03*
Y517809I0J-4331D01*
G01*
G75*
G03*
Y526470I0J4331D01*
G01*
X1073242Y808675D02*
G75*
G03*
Y800014I0J-4331D01*
G01*
G75*
G03*
Y808675I0J4331D01*
G01*
Y1078675D02*
G75*
G03*
Y1070014I0J-4331D01*
G01*
G75*
G03*
Y1078675I0J4331D01*
G01*
X1073636Y782691D02*
G75*
G03*
Y774030I0J-4331D01*
G01*
G75*
G03*
Y782691I0J4331D01*
G01*
Y1052691D02*
G75*
G03*
Y1044030I0J-4331D01*
G01*
G75*
G03*
Y1052691I0J4331D01*
G01*
X1076864Y202691D02*
G75*
G03*
Y194030I0J-4331D01*
G01*
G75*
G03*
Y202691I0J4331D01*
G01*
Y512691D02*
G75*
G03*
Y504030I0J-4331D01*
G01*
G75*
G03*
Y512691I0J4331D01*
G01*
X1077258Y229069D02*
G75*
G03*
Y220407I0J-4331D01*
G01*
G75*
G03*
Y229069I0J4331D01*
G01*
Y539069D02*
G75*
G03*
Y530407I0J-4331D01*
G01*
G75*
G03*
Y539069I0J4331D01*
G01*
X1078754Y796470D02*
G75*
G03*
Y787809I0J-4331D01*
G01*
G75*
G03*
Y796470I0J4331D01*
G01*
Y1066470D02*
G75*
G03*
Y1057809I0J-4331D01*
G01*
G75*
G03*
Y1066470I0J4331D01*
G01*
X1083242Y1438675D02*
G75*
G03*
Y1430014I0J-4331D01*
G01*
G75*
G03*
Y1438675I0J4331D01*
G01*
X1083636Y1412691D02*
G75*
G03*
Y1404030I0J-4331D01*
G01*
G75*
G03*
Y1412691I0J4331D01*
G01*
X1088754Y1426470D02*
G75*
G03*
Y1417809I0J-4331D01*
G01*
G75*
G03*
Y1426470I0J4331D01*
G01*
X1090250Y234581D02*
G75*
G03*
Y225919I0J-4331D01*
G01*
G75*
G03*
Y234581I0J4331D01*
G01*
Y544581D02*
G75*
G03*
Y535919I0J-4331D01*
G01*
G75*
G03*
Y544581I0J4331D01*
G01*
X1100250Y2540250D02*
G75*
G03*
Y2520250I0J-10000D01*
G01*
G75*
G03*
Y2540250I0J10000D01*
G01*
X1101746Y3276470D02*
G75*
G03*
Y3267809I0J-4331D01*
G01*
G75*
G03*
Y3276470I0J4331D01*
G01*
Y3636470D02*
G75*
G03*
Y3627809I0J-4331D01*
G01*
G75*
G03*
Y3636470I0J4331D01*
G01*
X1103242Y228675D02*
G75*
G03*
Y220014I0J-4331D01*
G01*
G75*
G03*
Y228675I0J4331D01*
G01*
Y538675D02*
G75*
G03*
Y530014I0J-4331D01*
G01*
G75*
G03*
Y538675I0J4331D01*
G01*
X1103636Y202691D02*
G75*
G03*
Y194030I0J-4331D01*
G01*
G75*
G03*
Y202691I0J4331D01*
G01*
Y512691D02*
G75*
G03*
Y504030I0J-4331D01*
G01*
G75*
G03*
Y512691I0J4331D01*
G01*
X1106864Y3262691D02*
G75*
G03*
Y3254030I0J-4331D01*
G01*
G75*
G03*
Y3262691I0J4331D01*
G01*
Y3622691D02*
G75*
G03*
Y3614030I0J-4331D01*
G01*
G75*
G03*
Y3622691I0J4331D01*
G01*
X1107258Y3289069D02*
G75*
G03*
Y3280407I0J-4331D01*
G01*
G75*
G03*
Y3289069I0J4331D01*
G01*
Y3649069D02*
G75*
G03*
Y3640407I0J-4331D01*
G01*
G75*
G03*
Y3649069I0J4331D01*
G01*
X1108754Y216470D02*
G75*
G03*
Y207809I0J-4331D01*
G01*
G75*
G03*
Y216470I0J4331D01*
G01*
Y526470D02*
G75*
G03*
Y517809I0J-4331D01*
G01*
G75*
G03*
Y526470I0J4331D01*
G01*
X1120250Y3294581D02*
G75*
G03*
Y3285919I0J-4331D01*
G01*
G75*
G03*
Y3294581I0J4331D01*
G01*
Y3654581D02*
G75*
G03*
Y3645919I0J-4331D01*
G01*
G75*
G03*
Y3654581I0J4331D01*
G01*
X1133242Y3288675D02*
G75*
G03*
Y3280014I0J-4331D01*
G01*
G75*
G03*
Y3288675I0J4331D01*
G01*
Y3648675D02*
G75*
G03*
Y3640014I0J-4331D01*
G01*
G75*
G03*
Y3648675I0J4331D01*
G01*
X1133636Y3262691D02*
G75*
G03*
Y3254030I0J-4331D01*
G01*
G75*
G03*
Y3262691I0J4331D01*
G01*
Y3622691D02*
G75*
G03*
Y3614030I0J-4331D01*
G01*
G75*
G03*
Y3622691I0J4331D01*
G01*
X1138754Y3276470D02*
G75*
G03*
Y3267809I0J-4331D01*
G01*
G75*
G03*
Y3276470I0J4331D01*
G01*
Y3636470D02*
G75*
G03*
Y3627809I0J-4331D01*
G01*
G75*
G03*
Y3636470I0J4331D01*
G01*
X1141746Y1426470D02*
G75*
G03*
Y1417809I0J-4331D01*
G01*
G75*
G03*
Y1426470I0J4331D01*
G01*
X1146864Y1412691D02*
G75*
G03*
Y1404030I0J-4331D01*
G01*
G75*
G03*
Y1412691I0J4331D01*
G01*
X1147258Y1439069D02*
G75*
G03*
Y1430407I0J-4331D01*
G01*
G75*
G03*
Y1439069I0J4331D01*
G01*
X1160250Y1444581D02*
G75*
G03*
Y1435919I0J-4331D01*
G01*
G75*
G03*
Y1444581I0J4331D01*
G01*
X1173242Y1438675D02*
G75*
G03*
Y1430014I0J-4331D01*
G01*
G75*
G03*
Y1438675I0J4331D01*
G01*
X1173636Y1412691D02*
G75*
G03*
Y1404030I0J-4331D01*
G01*
G75*
G03*
Y1412691I0J4331D01*
G01*
X1178754Y1426470D02*
G75*
G03*
Y1417809I0J-4331D01*
G01*
G75*
G03*
Y1426470I0J4331D01*
G01*
X1181746Y3276470D02*
G75*
G03*
Y3267809I0J-4331D01*
G01*
G75*
G03*
Y3276470I0J4331D01*
G01*
X1186864Y3262691D02*
G75*
G03*
Y3254030I0J-4331D01*
G01*
G75*
G03*
Y3262691I0J4331D01*
G01*
X1187258Y3289069D02*
G75*
G03*
Y3280407I0J-4331D01*
G01*
G75*
G03*
Y3289069I0J4331D01*
G01*
X1191746Y3636470D02*
G75*
G03*
Y3627809I0J-4331D01*
G01*
G75*
G03*
Y3636470I0J4331D01*
G01*
X1196864Y3622691D02*
G75*
G03*
Y3614030I0J-4331D01*
G01*
G75*
G03*
Y3622691I0J4331D01*
G01*
X1197258Y3649069D02*
G75*
G03*
Y3640407I0J-4331D01*
G01*
G75*
G03*
Y3649069I0J4331D01*
G01*
X1200250Y3294581D02*
G75*
G03*
Y3285919I0J-4331D01*
G01*
G75*
G03*
Y3294581I0J4331D01*
G01*
X1201746Y796470D02*
G75*
G03*
Y787809I0J-4331D01*
G01*
G75*
G03*
Y796470I0J4331D01*
G01*
Y1066470D02*
G75*
G03*
Y1057809I0J-4331D01*
G01*
G75*
G03*
Y1066470I0J4331D01*
G01*
X1206864Y782691D02*
G75*
G03*
Y774030I0J-4331D01*
G01*
G75*
G03*
Y782691I0J4331D01*
G01*
Y1052691D02*
G75*
G03*
Y1044030I0J-4331D01*
G01*
G75*
G03*
Y1052691I0J4331D01*
G01*
X1207258Y809069D02*
G75*
G03*
Y800407I0J-4331D01*
G01*
G75*
G03*
Y809069I0J4331D01*
G01*
Y1079069D02*
G75*
G03*
Y1070407I0J-4331D01*
G01*
G75*
G03*
Y1079069I0J4331D01*
G01*
X1210250Y1200250D02*
G75*
G03*
X1200250Y1190250I-5000J-5000D01*
G01*
G75*
G03*
X1210250Y1200250I5000J5000D01*
G01*
Y1340250D02*
G75*
G03*
X1200250Y1330250I-5000J-5000D01*
G01*
G75*
G03*
X1210250Y1340250I5000J5000D01*
G01*
Y3654581D02*
G75*
G03*
Y3645919I0J-4331D01*
G01*
G75*
G03*
Y3654581I0J4331D01*
G01*
X1213242Y3288675D02*
G75*
G03*
Y3280014I0J-4331D01*
G01*
G75*
G03*
Y3288675I0J4331D01*
G01*
X1213636Y3262691D02*
G75*
G03*
Y3254030I0J-4331D01*
G01*
G75*
G03*
Y3262691I0J4331D01*
G01*
X1218754Y3276470D02*
G75*
G03*
Y3267809I0J-4331D01*
G01*
G75*
G03*
Y3276470I0J4331D01*
G01*
X1220250Y814581D02*
G75*
G03*
Y805919I0J-4331D01*
G01*
G75*
G03*
Y814581I0J4331D01*
G01*
Y1084581D02*
G75*
G03*
Y1075919I0J-4331D01*
G01*
G75*
G03*
Y1084581I0J4331D01*
G01*
X1223242Y3648675D02*
G75*
G03*
Y3640014I0J-4331D01*
G01*
G75*
G03*
Y3648675I0J4331D01*
G01*
X1223636Y3622691D02*
G75*
G03*
Y3614030I0J-4331D01*
G01*
G75*
G03*
Y3622691I0J4331D01*
G01*
X1228754Y3636470D02*
G75*
G03*
Y3627809I0J-4331D01*
G01*
G75*
G03*
Y3636470I0J4331D01*
G01*
X1230250Y1160250D02*
X2310250D01*
Y1530250D01*
X1230250D01*
Y1160250D01*
X1231746Y216470D02*
G75*
G03*
Y207809I0J-4331D01*
G01*
G75*
G03*
Y216470I0J4331D01*
G01*
Y526470D02*
G75*
G03*
Y517809I0J-4331D01*
G01*
G75*
G03*
Y526470I0J4331D01*
G01*
X1233242Y808675D02*
G75*
G03*
Y800014I0J-4331D01*
G01*
G75*
G03*
Y808675I0J4331D01*
G01*
Y1078675D02*
G75*
G03*
Y1070014I0J-4331D01*
G01*
G75*
G03*
Y1078675I0J4331D01*
G01*
X1233636Y782691D02*
G75*
G03*
Y774030I0J-4331D01*
G01*
G75*
G03*
Y782691I0J4331D01*
G01*
Y1052691D02*
G75*
G03*
Y1044030I0J-4331D01*
G01*
G75*
G03*
Y1052691I0J4331D01*
G01*
X1236864Y202691D02*
G75*
G03*
Y194030I0J-4331D01*
G01*
G75*
G03*
Y202691I0J4331D01*
G01*
Y512691D02*
G75*
G03*
Y504030I0J-4331D01*
G01*
G75*
G03*
Y512691I0J4331D01*
G01*
X1237258Y229069D02*
G75*
G03*
Y220407I0J-4331D01*
G01*
G75*
G03*
Y229069I0J4331D01*
G01*
Y539069D02*
G75*
G03*
Y530407I0J-4331D01*
G01*
G75*
G03*
Y539069I0J4331D01*
G01*
X1238754Y796470D02*
G75*
G03*
Y787809I0J-4331D01*
G01*
G75*
G03*
Y796470I0J4331D01*
G01*
Y1066470D02*
G75*
G03*
Y1057809I0J-4331D01*
G01*
G75*
G03*
Y1066470I0J4331D01*
G01*
X1250250Y234581D02*
G75*
G03*
Y225919I0J-4331D01*
G01*
G75*
G03*
Y234581I0J4331D01*
G01*
Y544581D02*
G75*
G03*
Y535919I0J-4331D01*
G01*
G75*
G03*
Y544581I0J4331D01*
G01*
Y1200250D02*
G75*
G03*
X1240250Y1190250I-5000J-5000D01*
G01*
G75*
G03*
X1250250Y1200250I5000J5000D01*
G01*
Y1450250D02*
G75*
G03*
X1240250Y1440250I-5000J-5000D01*
G01*
G75*
G03*
X1250250Y1450250I5000J5000D01*
G01*
X1261746Y3276470D02*
G75*
G03*
Y3267809I0J-4331D01*
G01*
G75*
G03*
Y3276470I0J4331D01*
G01*
X1263242Y228675D02*
G75*
G03*
Y220014I0J-4331D01*
G01*
G75*
G03*
Y228675I0J4331D01*
G01*
Y538675D02*
G75*
G03*
Y530014I0J-4331D01*
G01*
G75*
G03*
Y538675I0J4331D01*
G01*
X1263636Y202691D02*
G75*
G03*
Y194030I0J-4331D01*
G01*
G75*
G03*
Y202691I0J4331D01*
G01*
Y512691D02*
G75*
G03*
Y504030I0J-4331D01*
G01*
G75*
G03*
Y512691I0J4331D01*
G01*
X1266864Y3262691D02*
G75*
G03*
Y3254030I0J-4331D01*
G01*
G75*
G03*
Y3262691I0J4331D01*
G01*
X1267258Y3289069D02*
G75*
G03*
Y3280407I0J-4331D01*
G01*
G75*
G03*
Y3289069I0J4331D01*
G01*
X1268754Y216470D02*
G75*
G03*
Y207809I0J-4331D01*
G01*
G75*
G03*
Y216470I0J4331D01*
G01*
Y526470D02*
G75*
G03*
Y517809I0J-4331D01*
G01*
G75*
G03*
Y526470I0J4331D01*
G01*
X1280250Y3294581D02*
G75*
G03*
Y3285919I0J-4331D01*
G01*
G75*
G03*
Y3294581I0J4331D01*
G01*
X1281746Y3636470D02*
G75*
G03*
Y3627809I0J-4331D01*
G01*
G75*
G03*
Y3636470I0J4331D01*
G01*
X1286864Y3622691D02*
G75*
G03*
Y3614030I0J-4331D01*
G01*
G75*
G03*
Y3622691I0J4331D01*
G01*
X1287258Y3649069D02*
G75*
G03*
Y3640407I0J-4331D01*
G01*
G75*
G03*
Y3649069I0J4331D01*
G01*
X1293242Y3288675D02*
G75*
G03*
Y3280014I0J-4331D01*
G01*
G75*
G03*
Y3288675I0J4331D01*
G01*
X1293636Y3262691D02*
G75*
G03*
Y3254030I0J-4331D01*
G01*
G75*
G03*
Y3262691I0J4331D01*
G01*
X1298754Y3276470D02*
G75*
G03*
Y3267809I0J-4331D01*
G01*
G75*
G03*
Y3276470I0J4331D01*
G01*
X1300250Y3654581D02*
G75*
G03*
Y3645919I0J-4331D01*
G01*
G75*
G03*
Y3654581I0J4331D01*
G01*
X1301746Y796470D02*
G75*
G03*
Y787809I0J-4331D01*
G01*
G75*
G03*
Y796470I0J4331D01*
G01*
Y1066470D02*
G75*
G03*
Y1057809I0J-4331D01*
G01*
G75*
G03*
Y1066470I0J4331D01*
G01*
X1306864Y782691D02*
G75*
G03*
Y774030I0J-4331D01*
G01*
G75*
G03*
Y782691I0J4331D01*
G01*
Y1052691D02*
G75*
G03*
Y1044030I0J-4331D01*
G01*
G75*
G03*
Y1052691I0J4331D01*
G01*
X1307258Y809069D02*
G75*
G03*
Y800407I0J-4331D01*
G01*
G75*
G03*
Y809069I0J4331D01*
G01*
Y1079069D02*
G75*
G03*
Y1070407I0J-4331D01*
G01*
G75*
G03*
Y1079069I0J4331D01*
G01*
X1311746Y216470D02*
G75*
G03*
Y207809I0J-4331D01*
G01*
G75*
G03*
Y216470I0J4331D01*
G01*
Y526470D02*
G75*
G03*
Y517809I0J-4331D01*
G01*
G75*
G03*
Y526470I0J4331D01*
G01*
X1313242Y3648675D02*
G75*
G03*
Y3640014I0J-4331D01*
G01*
G75*
G03*
Y3648675I0J4331D01*
G01*
X1313636Y3622691D02*
G75*
G03*
Y3614030I0J-4331D01*
G01*
G75*
G03*
Y3622691I0J4331D01*
G01*
X1316864Y202691D02*
G75*
G03*
Y194030I0J-4331D01*
G01*
G75*
G03*
Y202691I0J4331D01*
G01*
Y512691D02*
G75*
G03*
Y504030I0J-4331D01*
G01*
G75*
G03*
Y512691I0J4331D01*
G01*
X1317258Y229069D02*
G75*
G03*
Y220407I0J-4331D01*
G01*
G75*
G03*
Y229069I0J4331D01*
G01*
Y539069D02*
G75*
G03*
Y530407I0J-4331D01*
G01*
G75*
G03*
Y539069I0J4331D01*
G01*
X1318754Y3636470D02*
G75*
G03*
Y3627809I0J-4331D01*
G01*
G75*
G03*
Y3636470I0J4331D01*
G01*
X1320250Y814581D02*
G75*
G03*
Y805919I0J-4331D01*
G01*
G75*
G03*
Y814581I0J4331D01*
G01*
Y1084581D02*
G75*
G03*
Y1075919I0J-4331D01*
G01*
G75*
G03*
Y1084581I0J4331D01*
G01*
X1330250Y234581D02*
G75*
G03*
Y225919I0J-4331D01*
G01*
G75*
G03*
Y234581I0J4331D01*
G01*
Y544581D02*
G75*
G03*
Y535919I0J-4331D01*
G01*
G75*
G03*
Y544581I0J4331D01*
G01*
X1333242Y808675D02*
G75*
G03*
Y800014I0J-4331D01*
G01*
G75*
G03*
Y808675I0J4331D01*
G01*
Y1078675D02*
G75*
G03*
Y1070014I0J-4331D01*
G01*
G75*
G03*
Y1078675I0J4331D01*
G01*
X1333636Y782691D02*
G75*
G03*
Y774030I0J-4331D01*
G01*
G75*
G03*
Y782691I0J4331D01*
G01*
Y1052691D02*
G75*
G03*
Y1044030I0J-4331D01*
G01*
G75*
G03*
Y1052691I0J4331D01*
G01*
X1338754Y796470D02*
G75*
G03*
Y787809I0J-4331D01*
G01*
G75*
G03*
Y796470I0J4331D01*
G01*
Y1066470D02*
G75*
G03*
Y1057809I0J-4331D01*
G01*
G75*
G03*
Y1066470I0J4331D01*
G01*
X1341746Y3276470D02*
G75*
G03*
Y3267809I0J-4331D01*
G01*
G75*
G03*
Y3276470I0J4331D01*
G01*
X1343242Y228675D02*
G75*
G03*
Y220014I0J-4331D01*
G01*
G75*
G03*
Y228675I0J4331D01*
G01*
Y538675D02*
G75*
G03*
Y530014I0J-4331D01*
G01*
G75*
G03*
Y538675I0J4331D01*
G01*
X1343636Y202691D02*
G75*
G03*
Y194030I0J-4331D01*
G01*
G75*
G03*
Y202691I0J4331D01*
G01*
Y512691D02*
G75*
G03*
Y504030I0J-4331D01*
G01*
G75*
G03*
Y512691I0J4331D01*
G01*
X1346864Y3262691D02*
G75*
G03*
Y3254030I0J-4331D01*
G01*
G75*
G03*
Y3262691I0J4331D01*
G01*
X1347258Y3289069D02*
G75*
G03*
Y3280407I0J-4331D01*
G01*
G75*
G03*
Y3289069I0J4331D01*
G01*
X1348754Y216470D02*
G75*
G03*
Y207809I0J-4331D01*
G01*
G75*
G03*
Y216470I0J4331D01*
G01*
Y526470D02*
G75*
G03*
Y517809I0J-4331D01*
G01*
G75*
G03*
Y526470I0J4331D01*
G01*
X1360250Y3294581D02*
G75*
G03*
Y3285919I0J-4331D01*
G01*
G75*
G03*
Y3294581I0J4331D01*
G01*
X1371746Y3636470D02*
G75*
G03*
Y3627809I0J-4331D01*
G01*
G75*
G03*
Y3636470I0J4331D01*
G01*
X1373242Y3288675D02*
G75*
G03*
Y3280014I0J-4331D01*
G01*
G75*
G03*
Y3288675I0J4331D01*
G01*
X1373636Y3262691D02*
G75*
G03*
Y3254030I0J-4331D01*
G01*
G75*
G03*
Y3262691I0J4331D01*
G01*
X1376864Y3622691D02*
G75*
G03*
Y3614030I0J-4331D01*
G01*
G75*
G03*
Y3622691I0J4331D01*
G01*
X1377258Y3649069D02*
G75*
G03*
Y3640407I0J-4331D01*
G01*
G75*
G03*
Y3649069I0J4331D01*
G01*
X1378754Y3276470D02*
G75*
G03*
Y3267809I0J-4331D01*
G01*
G75*
G03*
Y3276470I0J4331D01*
G01*
X1380250Y260250D02*
G75*
G03*
X1370250Y250250I-5000J-5000D01*
G01*
G75*
G03*
X1380250Y260250I5000J5000D01*
G01*
Y570250D02*
G75*
G03*
X1370250Y560250I-5000J-5000D01*
G01*
G75*
G03*
X1380250Y570250I5000J5000D01*
G01*
Y840250D02*
G75*
G03*
X1370250Y830250I-5000J-5000D01*
G01*
G75*
G03*
X1380250Y840250I5000J5000D01*
G01*
Y1110250D02*
G75*
G03*
X1370250Y1100250I-5000J-5000D01*
G01*
G75*
G03*
X1380250Y1110250I5000J5000D01*
G01*
X1390250Y3654581D02*
G75*
G03*
Y3645919I0J-4331D01*
G01*
G75*
G03*
Y3654581I0J4331D01*
G01*
X1403242Y3648675D02*
G75*
G03*
Y3640014I0J-4331D01*
G01*
G75*
G03*
Y3648675I0J4331D01*
G01*
X1403636Y3622691D02*
G75*
G03*
Y3614030I0J-4331D01*
G01*
G75*
G03*
Y3622691I0J4331D01*
G01*
X1408754Y3636470D02*
G75*
G03*
Y3627809I0J-4331D01*
G01*
G75*
G03*
Y3636470I0J4331D01*
G01*
X1411746Y216470D02*
G75*
G03*
Y207809I0J-4331D01*
G01*
G75*
G03*
Y216470I0J4331D01*
G01*
Y526470D02*
G75*
G03*
Y517809I0J-4331D01*
G01*
G75*
G03*
Y526470I0J4331D01*
G01*
Y796470D02*
G75*
G03*
Y787809I0J-4331D01*
G01*
G75*
G03*
Y796470I0J4331D01*
G01*
Y1066470D02*
G75*
G03*
Y1057809I0J-4331D01*
G01*
G75*
G03*
Y1066470I0J4331D01*
G01*
X1416864Y202691D02*
G75*
G03*
Y194030I0J-4331D01*
G01*
G75*
G03*
Y202691I0J4331D01*
G01*
Y512691D02*
G75*
G03*
Y504030I0J-4331D01*
G01*
G75*
G03*
Y512691I0J4331D01*
G01*
Y782691D02*
G75*
G03*
Y774030I0J-4331D01*
G01*
G75*
G03*
Y782691I0J4331D01*
G01*
Y1052691D02*
G75*
G03*
Y1044030I0J-4331D01*
G01*
G75*
G03*
Y1052691I0J4331D01*
G01*
X1417258Y229069D02*
G75*
G03*
Y220407I0J-4331D01*
G01*
G75*
G03*
Y229069I0J4331D01*
G01*
Y539069D02*
G75*
G03*
Y530407I0J-4331D01*
G01*
G75*
G03*
Y539069I0J4331D01*
G01*
Y809069D02*
G75*
G03*
Y800407I0J-4331D01*
G01*
G75*
G03*
Y809069I0J4331D01*
G01*
Y1079069D02*
G75*
G03*
Y1070407I0J-4331D01*
G01*
G75*
G03*
Y1079069I0J4331D01*
G01*
X1421746Y3276470D02*
G75*
G03*
Y3267809I0J-4331D01*
G01*
G75*
G03*
Y3276470I0J4331D01*
G01*
X1426864Y3262691D02*
G75*
G03*
Y3254030I0J-4331D01*
G01*
G75*
G03*
Y3262691I0J4331D01*
G01*
X1427258Y3289069D02*
G75*
G03*
Y3280407I0J-4331D01*
G01*
G75*
G03*
Y3289069I0J4331D01*
G01*
X1430250Y234581D02*
G75*
G03*
Y225919I0J-4331D01*
G01*
G75*
G03*
Y234581I0J4331D01*
G01*
Y544581D02*
G75*
G03*
Y535919I0J-4331D01*
G01*
G75*
G03*
Y544581I0J4331D01*
G01*
Y814581D02*
G75*
G03*
Y805919I0J-4331D01*
G01*
G75*
G03*
Y814581I0J4331D01*
G01*
Y1084581D02*
G75*
G03*
Y1075919I0J-4331D01*
G01*
G75*
G03*
Y1084581I0J4331D01*
G01*
X1440250Y3294581D02*
G75*
G03*
Y3285919I0J-4331D01*
G01*
G75*
G03*
Y3294581I0J4331D01*
G01*
X1443242Y228675D02*
G75*
G03*
Y220014I0J-4331D01*
G01*
G75*
G03*
Y228675I0J4331D01*
G01*
Y538675D02*
G75*
G03*
Y530014I0J-4331D01*
G01*
G75*
G03*
Y538675I0J4331D01*
G01*
Y808675D02*
G75*
G03*
Y800014I0J-4331D01*
G01*
G75*
G03*
Y808675I0J4331D01*
G01*
Y1078675D02*
G75*
G03*
Y1070014I0J-4331D01*
G01*
G75*
G03*
Y1078675I0J4331D01*
G01*
X1443636Y202691D02*
G75*
G03*
Y194030I0J-4331D01*
G01*
G75*
G03*
Y202691I0J4331D01*
G01*
Y512691D02*
G75*
G03*
Y504030I0J-4331D01*
G01*
G75*
G03*
Y512691I0J4331D01*
G01*
Y782691D02*
G75*
G03*
Y774030I0J-4331D01*
G01*
G75*
G03*
Y782691I0J4331D01*
G01*
Y1052691D02*
G75*
G03*
Y1044030I0J-4331D01*
G01*
G75*
G03*
Y1052691I0J4331D01*
G01*
X1448754Y216470D02*
G75*
G03*
Y207809I0J-4331D01*
G01*
G75*
G03*
Y216470I0J4331D01*
G01*
Y526470D02*
G75*
G03*
Y517809I0J-4331D01*
G01*
G75*
G03*
Y526470I0J4331D01*
G01*
Y796470D02*
G75*
G03*
Y787809I0J-4331D01*
G01*
G75*
G03*
Y796470I0J4331D01*
G01*
Y1066470D02*
G75*
G03*
Y1057809I0J-4331D01*
G01*
G75*
G03*
Y1066470I0J4331D01*
G01*
X1453242Y3288675D02*
G75*
G03*
Y3280014I0J-4331D01*
G01*
G75*
G03*
Y3288675I0J4331D01*
G01*
X1453636Y3262691D02*
G75*
G03*
Y3254030I0J-4331D01*
G01*
G75*
G03*
Y3262691I0J4331D01*
G01*
X1458754Y3276470D02*
G75*
G03*
Y3267809I0J-4331D01*
G01*
G75*
G03*
Y3276470I0J4331D01*
G01*
X1461746Y3636470D02*
G75*
G03*
Y3627809I0J-4331D01*
G01*
G75*
G03*
Y3636470I0J4331D01*
G01*
X1466864Y3622691D02*
G75*
G03*
Y3614030I0J-4331D01*
G01*
G75*
G03*
Y3622691I0J4331D01*
G01*
X1467258Y3649069D02*
G75*
G03*
Y3640407I0J-4331D01*
G01*
G75*
G03*
Y3649069I0J4331D01*
G01*
X1480250Y3654581D02*
G75*
G03*
Y3645919I0J-4331D01*
G01*
G75*
G03*
Y3654581I0J4331D01*
G01*
X1493242Y3648675D02*
G75*
G03*
Y3640014I0J-4331D01*
G01*
G75*
G03*
Y3648675I0J4331D01*
G01*
X1493636Y3622691D02*
G75*
G03*
Y3614030I0J-4331D01*
G01*
G75*
G03*
Y3622691I0J4331D01*
G01*
X1498754Y3636470D02*
G75*
G03*
Y3627809I0J-4331D01*
G01*
G75*
G03*
Y3636470I0J4331D01*
G01*
X1501746Y216470D02*
G75*
G03*
Y207809I0J-4331D01*
G01*
G75*
G03*
Y216470I0J4331D01*
G01*
Y526470D02*
G75*
G03*
Y517809I0J-4331D01*
G01*
G75*
G03*
Y526470I0J4331D01*
G01*
Y796470D02*
G75*
G03*
Y787809I0J-4331D01*
G01*
G75*
G03*
Y796470I0J4331D01*
G01*
Y1066470D02*
G75*
G03*
Y1057809I0J-4331D01*
G01*
G75*
G03*
Y1066470I0J4331D01*
G01*
Y3276470D02*
G75*
G03*
Y3267809I0J-4331D01*
G01*
G75*
G03*
Y3276470I0J4331D01*
G01*
X1506864Y202691D02*
G75*
G03*
Y194030I0J-4331D01*
G01*
G75*
G03*
Y202691I0J4331D01*
G01*
Y512691D02*
G75*
G03*
Y504030I0J-4331D01*
G01*
G75*
G03*
Y512691I0J4331D01*
G01*
Y782691D02*
G75*
G03*
Y774030I0J-4331D01*
G01*
G75*
G03*
Y782691I0J4331D01*
G01*
Y1052691D02*
G75*
G03*
Y1044030I0J-4331D01*
G01*
G75*
G03*
Y1052691I0J4331D01*
G01*
Y3262691D02*
G75*
G03*
Y3254030I0J-4331D01*
G01*
G75*
G03*
Y3262691I0J4331D01*
G01*
X1507258Y229069D02*
G75*
G03*
Y220407I0J-4331D01*
G01*
G75*
G03*
Y229069I0J4331D01*
G01*
Y539069D02*
G75*
G03*
Y530407I0J-4331D01*
G01*
G75*
G03*
Y539069I0J4331D01*
G01*
Y809069D02*
G75*
G03*
Y800407I0J-4331D01*
G01*
G75*
G03*
Y809069I0J4331D01*
G01*
Y1079069D02*
G75*
G03*
Y1070407I0J-4331D01*
G01*
G75*
G03*
Y1079069I0J4331D01*
G01*
Y3289069D02*
G75*
G03*
Y3280407I0J-4331D01*
G01*
G75*
G03*
Y3289069I0J4331D01*
G01*
X1520250Y234581D02*
G75*
G03*
Y225919I0J-4331D01*
G01*
G75*
G03*
Y234581I0J4331D01*
G01*
Y544581D02*
G75*
G03*
Y535919I0J-4331D01*
G01*
G75*
G03*
Y544581I0J4331D01*
G01*
Y814581D02*
G75*
G03*
Y805919I0J-4331D01*
G01*
G75*
G03*
Y814581I0J4331D01*
G01*
Y1084581D02*
G75*
G03*
Y1075919I0J-4331D01*
G01*
G75*
G03*
Y1084581I0J4331D01*
G01*
Y3294581D02*
G75*
G03*
Y3285919I0J-4331D01*
G01*
G75*
G03*
Y3294581I0J4331D01*
G01*
X1533242Y228675D02*
G75*
G03*
Y220014I0J-4331D01*
G01*
G75*
G03*
Y228675I0J4331D01*
G01*
Y538675D02*
G75*
G03*
Y530014I0J-4331D01*
G01*
G75*
G03*
Y538675I0J4331D01*
G01*
Y808675D02*
G75*
G03*
Y800014I0J-4331D01*
G01*
G75*
G03*
Y808675I0J4331D01*
G01*
Y1078675D02*
G75*
G03*
Y1070014I0J-4331D01*
G01*
G75*
G03*
Y1078675I0J4331D01*
G01*
Y3288675D02*
G75*
G03*
Y3280014I0J-4331D01*
G01*
G75*
G03*
Y3288675I0J4331D01*
G01*
X1533636Y202691D02*
G75*
G03*
Y194030I0J-4331D01*
G01*
G75*
G03*
Y202691I0J4331D01*
G01*
Y512691D02*
G75*
G03*
Y504030I0J-4331D01*
G01*
G75*
G03*
Y512691I0J4331D01*
G01*
Y782691D02*
G75*
G03*
Y774030I0J-4331D01*
G01*
G75*
G03*
Y782691I0J4331D01*
G01*
Y1052691D02*
G75*
G03*
Y1044030I0J-4331D01*
G01*
G75*
G03*
Y1052691I0J4331D01*
G01*
Y3262691D02*
G75*
G03*
Y3254030I0J-4331D01*
G01*
G75*
G03*
Y3262691I0J4331D01*
G01*
X1538754Y216470D02*
G75*
G03*
Y207809I0J-4331D01*
G01*
G75*
G03*
Y216470I0J4331D01*
G01*
Y526470D02*
G75*
G03*
Y517809I0J-4331D01*
G01*
G75*
G03*
Y526470I0J4331D01*
G01*
Y796470D02*
G75*
G03*
Y787809I0J-4331D01*
G01*
G75*
G03*
Y796470I0J4331D01*
G01*
Y1066470D02*
G75*
G03*
Y1057809I0J-4331D01*
G01*
G75*
G03*
Y1066470I0J4331D01*
G01*
Y3276470D02*
G75*
G03*
Y3267809I0J-4331D01*
G01*
G75*
G03*
Y3276470I0J4331D01*
G01*
X1540250Y3590250D02*
G75*
G03*
X1530250Y3580250I-5000J-5000D01*
G01*
G75*
G03*
X1540250Y3590250I5000J5000D01*
G01*
X1560250Y3760250D02*
Y3400250D01*
X2310250D01*
Y3760250D01*
X1560250D01*
X1580250Y3590250D02*
G75*
G03*
X1570250Y3580250I-5000J-5000D01*
G01*
G75*
G03*
X1580250Y3590250I5000J5000D01*
G01*
Y3670250D02*
G75*
G03*
X1570250Y3660250I-5000J-5000D01*
G01*
G75*
G03*
X1580250Y3670250I5000J5000D01*
G01*
X1581746Y3276470D02*
G75*
G03*
Y3267809I0J-4331D01*
G01*
G75*
G03*
Y3276470I0J4331D01*
G01*
X1586864Y3262691D02*
G75*
G03*
Y3254030I0J-4331D01*
G01*
G75*
G03*
Y3262691I0J4331D01*
G01*
X1587258Y3289069D02*
G75*
G03*
Y3280407I0J-4331D01*
G01*
G75*
G03*
Y3289069I0J4331D01*
G01*
X1591746Y1426470D02*
G75*
G03*
Y1417809I0J-4331D01*
G01*
G75*
G03*
Y1426470I0J4331D01*
G01*
X1596864Y1412691D02*
G75*
G03*
Y1404030I0J-4331D01*
G01*
G75*
G03*
Y1412691I0J4331D01*
G01*
X1597258Y1439069D02*
G75*
G03*
Y1430407I0J-4331D01*
G01*
G75*
G03*
Y1439069I0J4331D01*
G01*
X1600250Y3294581D02*
G75*
G03*
Y3285919I0J-4331D01*
G01*
G75*
G03*
Y3294581I0J4331D01*
G01*
X1610250Y1444581D02*
G75*
G03*
Y1435919I0J-4331D01*
G01*
G75*
G03*
Y1444581I0J4331D01*
G01*
X1613242Y3288675D02*
G75*
G03*
Y3280014I0J-4331D01*
G01*
G75*
G03*
Y3288675I0J4331D01*
G01*
X1613636Y3262691D02*
G75*
G03*
Y3254030I0J-4331D01*
G01*
G75*
G03*
Y3262691I0J4331D01*
G01*
X1618754Y3276470D02*
G75*
G03*
Y3267809I0J-4331D01*
G01*
G75*
G03*
Y3276470I0J4331D01*
G01*
X1623242Y1438675D02*
G75*
G03*
Y1430014I0J-4331D01*
G01*
G75*
G03*
Y1438675I0J4331D01*
G01*
X1623636Y1412691D02*
G75*
G03*
Y1404030I0J-4331D01*
G01*
G75*
G03*
Y1412691I0J4331D01*
G01*
X1628754Y1426470D02*
G75*
G03*
Y1417809I0J-4331D01*
G01*
G75*
G03*
Y1426470I0J4331D01*
G01*
X1640250Y3110250D02*
G75*
G03*
X1630250Y3100250I-5000J-5000D01*
G01*
G75*
G03*
X1640250Y3110250I5000J5000D01*
G01*
X1661746Y216470D02*
G75*
G03*
Y207809I0J-4331D01*
G01*
G75*
G03*
Y216470I0J4331D01*
G01*
Y526470D02*
G75*
G03*
Y517809I0J-4331D01*
G01*
G75*
G03*
Y526470I0J4331D01*
G01*
Y796470D02*
G75*
G03*
Y787809I0J-4331D01*
G01*
G75*
G03*
Y796470I0J4331D01*
G01*
Y1066470D02*
G75*
G03*
Y1057809I0J-4331D01*
G01*
G75*
G03*
Y1066470I0J4331D01*
G01*
X1666864Y202691D02*
G75*
G03*
Y194030I0J-4331D01*
G01*
G75*
G03*
Y202691I0J4331D01*
G01*
Y512691D02*
G75*
G03*
Y504030I0J-4331D01*
G01*
G75*
G03*
Y512691I0J4331D01*
G01*
Y782691D02*
G75*
G03*
Y774030I0J-4331D01*
G01*
G75*
G03*
Y782691I0J4331D01*
G01*
Y1052691D02*
G75*
G03*
Y1044030I0J-4331D01*
G01*
G75*
G03*
Y1052691I0J4331D01*
G01*
X1667258Y229069D02*
G75*
G03*
Y220407I0J-4331D01*
G01*
G75*
G03*
Y229069I0J4331D01*
G01*
Y539069D02*
G75*
G03*
Y530407I0J-4331D01*
G01*
G75*
G03*
Y539069I0J4331D01*
G01*
Y809069D02*
G75*
G03*
Y800407I0J-4331D01*
G01*
G75*
G03*
Y809069I0J4331D01*
G01*
Y1079069D02*
G75*
G03*
Y1070407I0J-4331D01*
G01*
G75*
G03*
Y1079069I0J4331D01*
G01*
X1671746Y3276470D02*
G75*
G03*
Y3267809I0J-4331D01*
G01*
G75*
G03*
Y3276470I0J4331D01*
G01*
X1676864Y3262691D02*
G75*
G03*
Y3254030I0J-4331D01*
G01*
G75*
G03*
Y3262691I0J4331D01*
G01*
X1677258Y3289069D02*
G75*
G03*
Y3280407I0J-4331D01*
G01*
G75*
G03*
Y3289069I0J4331D01*
G01*
X1680250Y234581D02*
G75*
G03*
Y225919I0J-4331D01*
G01*
G75*
G03*
Y234581I0J4331D01*
G01*
Y544581D02*
G75*
G03*
Y535919I0J-4331D01*
G01*
G75*
G03*
Y544581I0J4331D01*
G01*
Y814581D02*
G75*
G03*
Y805919I0J-4331D01*
G01*
G75*
G03*
Y814581I0J4331D01*
G01*
Y1084581D02*
G75*
G03*
Y1075919I0J-4331D01*
G01*
G75*
G03*
Y1084581I0J4331D01*
G01*
X1681746Y1426470D02*
G75*
G03*
Y1417809I0J-4331D01*
G01*
G75*
G03*
Y1426470I0J4331D01*
G01*
X1686864Y1412691D02*
G75*
G03*
Y1404030I0J-4331D01*
G01*
G75*
G03*
Y1412691I0J4331D01*
G01*
X1687258Y1439069D02*
G75*
G03*
Y1430407I0J-4331D01*
G01*
G75*
G03*
Y1439069I0J4331D01*
G01*
X1690250Y3294581D02*
G75*
G03*
Y3285919I0J-4331D01*
G01*
G75*
G03*
Y3294581I0J4331D01*
G01*
X1693242Y228675D02*
G75*
G03*
Y220014I0J-4331D01*
G01*
G75*
G03*
Y228675I0J4331D01*
G01*
Y538675D02*
G75*
G03*
Y530014I0J-4331D01*
G01*
G75*
G03*
Y538675I0J4331D01*
G01*
Y808675D02*
G75*
G03*
Y800014I0J-4331D01*
G01*
G75*
G03*
Y808675I0J4331D01*
G01*
Y1078675D02*
G75*
G03*
Y1070014I0J-4331D01*
G01*
G75*
G03*
Y1078675I0J4331D01*
G01*
X1693636Y202691D02*
G75*
G03*
Y194030I0J-4331D01*
G01*
G75*
G03*
Y202691I0J4331D01*
G01*
Y512691D02*
G75*
G03*
Y504030I0J-4331D01*
G01*
G75*
G03*
Y512691I0J4331D01*
G01*
Y782691D02*
G75*
G03*
Y774030I0J-4331D01*
G01*
G75*
G03*
Y782691I0J4331D01*
G01*
Y1052691D02*
G75*
G03*
Y1044030I0J-4331D01*
G01*
G75*
G03*
Y1052691I0J4331D01*
G01*
X1698754Y216470D02*
G75*
G03*
Y207809I0J-4331D01*
G01*
G75*
G03*
Y216470I0J4331D01*
G01*
Y526470D02*
G75*
G03*
Y517809I0J-4331D01*
G01*
G75*
G03*
Y526470I0J4331D01*
G01*
Y796470D02*
G75*
G03*
Y787809I0J-4331D01*
G01*
G75*
G03*
Y796470I0J4331D01*
G01*
Y1066470D02*
G75*
G03*
Y1057809I0J-4331D01*
G01*
G75*
G03*
Y1066470I0J4331D01*
G01*
X1700250Y1444581D02*
G75*
G03*
Y1435919I0J-4331D01*
G01*
G75*
G03*
Y1444581I0J4331D01*
G01*
X1703242Y3288675D02*
G75*
G03*
Y3280014I0J-4331D01*
G01*
G75*
G03*
Y3288675I0J4331D01*
G01*
X1703636Y3262691D02*
G75*
G03*
Y3254030I0J-4331D01*
G01*
G75*
G03*
Y3262691I0J4331D01*
G01*
X1708754Y3276470D02*
G75*
G03*
Y3267809I0J-4331D01*
G01*
G75*
G03*
Y3276470I0J4331D01*
G01*
X1713242Y1438675D02*
G75*
G03*
Y1430014I0J-4331D01*
G01*
G75*
G03*
Y1438675I0J4331D01*
G01*
X1713636Y1412691D02*
G75*
G03*
Y1404030I0J-4331D01*
G01*
G75*
G03*
Y1412691I0J4331D01*
G01*
X1718754Y1426470D02*
G75*
G03*
Y1417809I0J-4331D01*
G01*
G75*
G03*
Y1426470I0J4331D01*
G01*
X1721746Y3698360D02*
G75*
G03*
Y3689699I0J-4331D01*
G01*
G75*
G03*
Y3698360I0J4331D01*
G01*
X1726864Y3684581D02*
G75*
G03*
Y3675919I0J-4331D01*
G01*
G75*
G03*
Y3684581I0J4331D01*
G01*
X1727258Y3710959D02*
G75*
G03*
Y3702297I0J-4331D01*
G01*
G75*
G03*
Y3710959I0J4331D01*
G01*
X1738045Y3564187D02*
G75*
G03*
X1734108Y3568124I-1969J1969D01*
G01*
G75*
G03*
X1738045Y3564187I1969J-1969D01*
G01*
X1740250Y3716470D02*
G75*
G03*
Y3707809I0J-4331D01*
G01*
G75*
G03*
Y3716470I0J4331D01*
G01*
X1741746Y216470D02*
G75*
G03*
Y207809I0J-4331D01*
G01*
G75*
G03*
Y216470I0J4331D01*
G01*
Y526470D02*
G75*
G03*
Y517809I0J-4331D01*
G01*
G75*
G03*
Y526470I0J4331D01*
G01*
X1746864Y202691D02*
G75*
G03*
Y194030I0J-4331D01*
G01*
G75*
G03*
Y202691I0J4331D01*
G01*
Y512691D02*
G75*
G03*
Y504030I0J-4331D01*
G01*
G75*
G03*
Y512691I0J4331D01*
G01*
X1747258Y229069D02*
G75*
G03*
Y220407I0J-4331D01*
G01*
G75*
G03*
Y229069I0J4331D01*
G01*
Y539069D02*
G75*
G03*
Y530407I0J-4331D01*
G01*
G75*
G03*
Y539069I0J4331D01*
G01*
X1748518Y3611431D02*
G75*
G03*
X1744581Y3615368I-1969J1969D01*
G01*
G75*
G03*
X1748518Y3611431I1969J-1969D01*
G01*
X1753242Y3710565D02*
G75*
G03*
Y3701904I0J-4331D01*
G01*
G75*
G03*
Y3710565I0J4331D01*
G01*
X1753636Y3684581D02*
G75*
G03*
Y3675919I0J-4331D01*
G01*
G75*
G03*
Y3684581I0J4331D01*
G01*
X1758754Y3698360D02*
G75*
G03*
Y3689699I0J-4331D01*
G01*
G75*
G03*
Y3698360I0J4331D01*
G01*
X1760250Y234581D02*
G75*
G03*
Y225919I0J-4331D01*
G01*
G75*
G03*
Y234581I0J4331D01*
G01*
Y544581D02*
G75*
G03*
Y535919I0J-4331D01*
G01*
G75*
G03*
Y544581I0J4331D01*
G01*
X1761746Y796470D02*
G75*
G03*
Y787809I0J-4331D01*
G01*
G75*
G03*
Y796470I0J4331D01*
G01*
Y1066470D02*
G75*
G03*
Y1057809I0J-4331D01*
G01*
G75*
G03*
Y1066470I0J4331D01*
G01*
Y3276470D02*
G75*
G03*
Y3267809I0J-4331D01*
G01*
G75*
G03*
Y3276470I0J4331D01*
G01*
X1766864Y782691D02*
G75*
G03*
Y774030I0J-4331D01*
G01*
G75*
G03*
Y782691I0J4331D01*
G01*
Y1052691D02*
G75*
G03*
Y1044030I0J-4331D01*
G01*
G75*
G03*
Y1052691I0J4331D01*
G01*
Y3262691D02*
G75*
G03*
Y3254030I0J-4331D01*
G01*
G75*
G03*
Y3262691I0J4331D01*
G01*
X1767258Y809069D02*
G75*
G03*
Y800407I0J-4331D01*
G01*
G75*
G03*
Y809069I0J4331D01*
G01*
Y1079069D02*
G75*
G03*
Y1070407I0J-4331D01*
G01*
G75*
G03*
Y1079069I0J4331D01*
G01*
Y3289069D02*
G75*
G03*
Y3280407I0J-4331D01*
G01*
G75*
G03*
Y3289069I0J4331D01*
G01*
X1771746Y1426470D02*
G75*
G03*
Y1417809I0J-4331D01*
G01*
G75*
G03*
Y1426470I0J4331D01*
G01*
X1773242Y228675D02*
G75*
G03*
Y220014I0J-4331D01*
G01*
G75*
G03*
Y228675I0J4331D01*
G01*
Y538675D02*
G75*
G03*
Y530014I0J-4331D01*
G01*
G75*
G03*
Y538675I0J4331D01*
G01*
X1773636Y202691D02*
G75*
G03*
Y194030I0J-4331D01*
G01*
G75*
G03*
Y202691I0J4331D01*
G01*
Y512691D02*
G75*
G03*
Y504030I0J-4331D01*
G01*
G75*
G03*
Y512691I0J4331D01*
G01*
X1776864Y1412691D02*
G75*
G03*
Y1404030I0J-4331D01*
G01*
G75*
G03*
Y1412691I0J4331D01*
G01*
X1777258Y1439069D02*
G75*
G03*
Y1430407I0J-4331D01*
G01*
G75*
G03*
Y1439069I0J4331D01*
G01*
X1778754Y216470D02*
G75*
G03*
Y207809I0J-4331D01*
G01*
G75*
G03*
Y216470I0J4331D01*
G01*
Y526470D02*
G75*
G03*
Y517809I0J-4331D01*
G01*
G75*
G03*
Y526470I0J4331D01*
G01*
X1780250Y814581D02*
G75*
G03*
Y805919I0J-4331D01*
G01*
G75*
G03*
Y814581I0J4331D01*
G01*
Y1084581D02*
G75*
G03*
Y1075919I0J-4331D01*
G01*
G75*
G03*
Y1084581I0J4331D01*
G01*
Y3294581D02*
G75*
G03*
Y3285919I0J-4331D01*
G01*
G75*
G03*
Y3294581I0J4331D01*
G01*
X1790250Y1444581D02*
G75*
G03*
Y1435919I0J-4331D01*
G01*
G75*
G03*
Y1444581I0J4331D01*
G01*
X1793242Y808675D02*
G75*
G03*
Y800014I0J-4331D01*
G01*
G75*
G03*
Y808675I0J4331D01*
G01*
Y1078675D02*
G75*
G03*
Y1070014I0J-4331D01*
G01*
G75*
G03*
Y1078675I0J4331D01*
G01*
Y3288675D02*
G75*
G03*
Y3280014I0J-4331D01*
G01*
G75*
G03*
Y3288675I0J4331D01*
G01*
X1793636Y782691D02*
G75*
G03*
Y774030I0J-4331D01*
G01*
G75*
G03*
Y782691I0J4331D01*
G01*
Y1052691D02*
G75*
G03*
Y1044030I0J-4331D01*
G01*
G75*
G03*
Y1052691I0J4331D01*
G01*
Y3262691D02*
G75*
G03*
Y3254030I0J-4331D01*
G01*
G75*
G03*
Y3262691I0J4331D01*
G01*
X1798754Y796470D02*
G75*
G03*
Y787809I0J-4331D01*
G01*
G75*
G03*
Y796470I0J4331D01*
G01*
Y1066470D02*
G75*
G03*
Y1057809I0J-4331D01*
G01*
G75*
G03*
Y1066470I0J4331D01*
G01*
Y3276470D02*
G75*
G03*
Y3267809I0J-4331D01*
G01*
G75*
G03*
Y3276470I0J4331D01*
G01*
X1803242Y1438675D02*
G75*
G03*
Y1430014I0J-4331D01*
G01*
G75*
G03*
Y1438675I0J4331D01*
G01*
X1803636Y1412691D02*
G75*
G03*
Y1404030I0J-4331D01*
G01*
G75*
G03*
Y1412691I0J4331D01*
G01*
X1808754Y1426470D02*
G75*
G03*
Y1417809I0J-4331D01*
G01*
G75*
G03*
Y1426470I0J4331D01*
G01*
X1811746Y3698360D02*
G75*
G03*
Y3689699I0J-4331D01*
G01*
G75*
G03*
Y3698360I0J4331D01*
G01*
X1816864Y3684581D02*
G75*
G03*
Y3675919I0J-4331D01*
G01*
G75*
G03*
Y3684581I0J4331D01*
G01*
X1817258Y3710959D02*
G75*
G03*
Y3702297I0J-4331D01*
G01*
G75*
G03*
Y3710959I0J4331D01*
G01*
X1820250Y1310250D02*
G75*
G03*
X1810250Y1300250I-5000J-5000D01*
G01*
G75*
G03*
X1820250Y1310250I5000J5000D01*
G01*
X1830250Y3716470D02*
G75*
G03*
Y3707809I0J-4331D01*
G01*
G75*
G03*
Y3716470I0J4331D01*
G01*
X1835132Y3611431D02*
G75*
G03*
X1831195Y3615368I-1969J1969D01*
G01*
G75*
G03*
X1835132Y3611431I1969J-1969D01*
G01*
X1840250Y840250D02*
G75*
G03*
X1830250Y830250I-5000J-5000D01*
G01*
G75*
G03*
X1840250Y840250I5000J5000D01*
G01*
Y1110250D02*
G75*
G03*
X1830250Y1100250I-5000J-5000D01*
G01*
G75*
G03*
X1840250Y1110250I5000J5000D01*
G01*
X1841746Y216470D02*
G75*
G03*
Y207809I0J-4331D01*
G01*
G75*
G03*
Y216470I0J4331D01*
G01*
Y526470D02*
G75*
G03*
Y517809I0J-4331D01*
G01*
G75*
G03*
Y526470I0J4331D01*
G01*
X1843242Y3710565D02*
G75*
G03*
Y3701904I0J-4331D01*
G01*
G75*
G03*
Y3710565I0J4331D01*
G01*
X1843636Y3684581D02*
G75*
G03*
Y3675919I0J-4331D01*
G01*
G75*
G03*
Y3684581I0J4331D01*
G01*
X1846313Y3564187D02*
G75*
G03*
X1842376Y3568124I-1969J1969D01*
G01*
G75*
G03*
X1846313Y3564187I1969J-1969D01*
G01*
X1846864Y202691D02*
G75*
G03*
Y194030I0J-4331D01*
G01*
G75*
G03*
Y202691I0J4331D01*
G01*
Y512691D02*
G75*
G03*
Y504030I0J-4331D01*
G01*
G75*
G03*
Y512691I0J4331D01*
G01*
X1847258Y229069D02*
G75*
G03*
Y220407I0J-4331D01*
G01*
G75*
G03*
Y229069I0J4331D01*
G01*
Y539069D02*
G75*
G03*
Y530407I0J-4331D01*
G01*
G75*
G03*
Y539069I0J4331D01*
G01*
X1848754Y3698360D02*
G75*
G03*
Y3689699I0J-4331D01*
G01*
G75*
G03*
Y3698360I0J4331D01*
G01*
X1851746Y3276470D02*
G75*
G03*
Y3267809I0J-4331D01*
G01*
G75*
G03*
Y3276470I0J4331D01*
G01*
X1856864Y3262691D02*
G75*
G03*
Y3254030I0J-4331D01*
G01*
G75*
G03*
Y3262691I0J4331D01*
G01*
X1857258Y3289069D02*
G75*
G03*
Y3280407I0J-4331D01*
G01*
G75*
G03*
Y3289069I0J4331D01*
G01*
X1860250Y234581D02*
G75*
G03*
Y225919I0J-4331D01*
G01*
G75*
G03*
Y234581I0J4331D01*
G01*
Y544581D02*
G75*
G03*
Y535919I0J-4331D01*
G01*
G75*
G03*
Y544581I0J4331D01*
G01*
Y2410250D02*
X2310250D01*
Y3050250D01*
X1860250D01*
Y2410250D01*
X1861746Y1426470D02*
G75*
G03*
Y1417809I0J-4331D01*
G01*
G75*
G03*
Y1426470I0J4331D01*
G01*
X1866864Y1412691D02*
G75*
G03*
Y1404030I0J-4331D01*
G01*
G75*
G03*
Y1412691I0J4331D01*
G01*
X1867258Y1439069D02*
G75*
G03*
Y1430407I0J-4331D01*
G01*
G75*
G03*
Y1439069I0J4331D01*
G01*
X1870250Y3294581D02*
G75*
G03*
Y3285919I0J-4331D01*
G01*
G75*
G03*
Y3294581I0J4331D01*
G01*
X1871746Y796470D02*
G75*
G03*
Y787809I0J-4331D01*
G01*
G75*
G03*
Y796470I0J4331D01*
G01*
Y1066470D02*
G75*
G03*
Y1057809I0J-4331D01*
G01*
G75*
G03*
Y1066470I0J4331D01*
G01*
X1873242Y228675D02*
G75*
G03*
Y220014I0J-4331D01*
G01*
G75*
G03*
Y228675I0J4331D01*
G01*
Y538675D02*
G75*
G03*
Y530014I0J-4331D01*
G01*
G75*
G03*
Y538675I0J4331D01*
G01*
X1873636Y202691D02*
G75*
G03*
Y194030I0J-4331D01*
G01*
G75*
G03*
Y202691I0J4331D01*
G01*
Y512691D02*
G75*
G03*
Y504030I0J-4331D01*
G01*
G75*
G03*
Y512691I0J4331D01*
G01*
X1876864Y782691D02*
G75*
G03*
Y774030I0J-4331D01*
G01*
G75*
G03*
Y782691I0J4331D01*
G01*
Y1052691D02*
G75*
G03*
Y1044030I0J-4331D01*
G01*
G75*
G03*
Y1052691I0J4331D01*
G01*
X1877258Y809069D02*
G75*
G03*
Y800407I0J-4331D01*
G01*
G75*
G03*
Y809069I0J4331D01*
G01*
Y1079069D02*
G75*
G03*
Y1070407I0J-4331D01*
G01*
G75*
G03*
Y1079069I0J4331D01*
G01*
X1878754Y216470D02*
G75*
G03*
Y207809I0J-4331D01*
G01*
G75*
G03*
Y216470I0J4331D01*
G01*
Y526470D02*
G75*
G03*
Y517809I0J-4331D01*
G01*
G75*
G03*
Y526470I0J4331D01*
G01*
X1880250Y1444581D02*
G75*
G03*
Y1435919I0J-4331D01*
G01*
G75*
G03*
Y1444581I0J4331D01*
G01*
X1883242Y3288675D02*
G75*
G03*
Y3280014I0J-4331D01*
G01*
G75*
G03*
Y3288675I0J4331D01*
G01*
X1883636Y3262691D02*
G75*
G03*
Y3254030I0J-4331D01*
G01*
G75*
G03*
Y3262691I0J4331D01*
G01*
X1888754Y3276470D02*
G75*
G03*
Y3267809I0J-4331D01*
G01*
G75*
G03*
Y3276470I0J4331D01*
G01*
X1890250Y814581D02*
G75*
G03*
Y805919I0J-4331D01*
G01*
G75*
G03*
Y814581I0J4331D01*
G01*
Y1084581D02*
G75*
G03*
Y1075919I0J-4331D01*
G01*
G75*
G03*
Y1084581I0J4331D01*
G01*
Y3030250D02*
G75*
G03*
X1880250Y3020250I-5000J-5000D01*
G01*
G75*
G03*
X1890250Y3030250I5000J5000D01*
G01*
X1893242Y1438675D02*
G75*
G03*
Y1430014I0J-4331D01*
G01*
G75*
G03*
Y1438675I0J4331D01*
G01*
X1893636Y1412691D02*
G75*
G03*
Y1404030I0J-4331D01*
G01*
G75*
G03*
Y1412691I0J4331D01*
G01*
X1898754Y1426470D02*
G75*
G03*
Y1417809I0J-4331D01*
G01*
G75*
G03*
Y1426470I0J4331D01*
G01*
X1903242Y808675D02*
G75*
G03*
Y800014I0J-4331D01*
G01*
G75*
G03*
Y808675I0J4331D01*
G01*
Y1078675D02*
G75*
G03*
Y1070014I0J-4331D01*
G01*
G75*
G03*
Y1078675I0J4331D01*
G01*
X1903636Y782691D02*
G75*
G03*
Y774030I0J-4331D01*
G01*
G75*
G03*
Y782691I0J4331D01*
G01*
Y1052691D02*
G75*
G03*
Y1044030I0J-4331D01*
G01*
G75*
G03*
Y1052691I0J4331D01*
G01*
X1908754Y796470D02*
G75*
G03*
Y787809I0J-4331D01*
G01*
G75*
G03*
Y796470I0J4331D01*
G01*
Y1066470D02*
G75*
G03*
Y1057809I0J-4331D01*
G01*
G75*
G03*
Y1066470I0J4331D01*
G01*
X1931746Y216470D02*
G75*
G03*
Y207809I0J-4331D01*
G01*
G75*
G03*
Y216470I0J4331D01*
G01*
Y526470D02*
G75*
G03*
Y517809I0J-4331D01*
G01*
G75*
G03*
Y526470I0J4331D01*
G01*
X1936864Y202691D02*
G75*
G03*
Y194030I0J-4331D01*
G01*
G75*
G03*
Y202691I0J4331D01*
G01*
Y512691D02*
G75*
G03*
Y504030I0J-4331D01*
G01*
G75*
G03*
Y512691I0J4331D01*
G01*
X1937258Y229069D02*
G75*
G03*
Y220407I0J-4331D01*
G01*
G75*
G03*
Y229069I0J4331D01*
G01*
Y539069D02*
G75*
G03*
Y530407I0J-4331D01*
G01*
G75*
G03*
Y539069I0J4331D01*
G01*
X1941746Y3276470D02*
G75*
G03*
Y3267809I0J-4331D01*
G01*
G75*
G03*
Y3276470I0J4331D01*
G01*
X1946864Y3262691D02*
G75*
G03*
Y3254030I0J-4331D01*
G01*
G75*
G03*
Y3262691I0J4331D01*
G01*
X1947258Y3289069D02*
G75*
G03*
Y3280407I0J-4331D01*
G01*
G75*
G03*
Y3289069I0J4331D01*
G01*
X1950250Y234581D02*
G75*
G03*
Y225919I0J-4331D01*
G01*
G75*
G03*
Y234581I0J4331D01*
G01*
Y544581D02*
G75*
G03*
Y535919I0J-4331D01*
G01*
G75*
G03*
Y544581I0J4331D01*
G01*
X1951746Y1426470D02*
G75*
G03*
Y1417809I0J-4331D01*
G01*
G75*
G03*
Y1426470I0J4331D01*
G01*
X1956864Y1412691D02*
G75*
G03*
Y1404030I0J-4331D01*
G01*
G75*
G03*
Y1412691I0J4331D01*
G01*
X1957258Y1439069D02*
G75*
G03*
Y1430407I0J-4331D01*
G01*
G75*
G03*
Y1439069I0J4331D01*
G01*
X1960250Y3294581D02*
G75*
G03*
Y3285919I0J-4331D01*
G01*
G75*
G03*
Y3294581I0J4331D01*
G01*
X1961746Y796470D02*
G75*
G03*
Y787809I0J-4331D01*
G01*
G75*
G03*
Y796470I0J4331D01*
G01*
Y1066470D02*
G75*
G03*
Y1057809I0J-4331D01*
G01*
G75*
G03*
Y1066470I0J4331D01*
G01*
X1963242Y228675D02*
G75*
G03*
Y220014I0J-4331D01*
G01*
G75*
G03*
Y228675I0J4331D01*
G01*
Y538675D02*
G75*
G03*
Y530014I0J-4331D01*
G01*
G75*
G03*
Y538675I0J4331D01*
G01*
X1963636Y202691D02*
G75*
G03*
Y194030I0J-4331D01*
G01*
G75*
G03*
Y202691I0J4331D01*
G01*
Y512691D02*
G75*
G03*
Y504030I0J-4331D01*
G01*
G75*
G03*
Y512691I0J4331D01*
G01*
X1966864Y782691D02*
G75*
G03*
Y774030I0J-4331D01*
G01*
G75*
G03*
Y782691I0J4331D01*
G01*
Y1052691D02*
G75*
G03*
Y1044030I0J-4331D01*
G01*
G75*
G03*
Y1052691I0J4331D01*
G01*
X1967258Y809069D02*
G75*
G03*
Y800407I0J-4331D01*
G01*
G75*
G03*
Y809069I0J4331D01*
G01*
Y1079069D02*
G75*
G03*
Y1070407I0J-4331D01*
G01*
G75*
G03*
Y1079069I0J4331D01*
G01*
X1968754Y216470D02*
G75*
G03*
Y207809I0J-4331D01*
G01*
G75*
G03*
Y216470I0J4331D01*
G01*
Y526470D02*
G75*
G03*
Y517809I0J-4331D01*
G01*
G75*
G03*
Y526470I0J4331D01*
G01*
X1970250Y1444581D02*
G75*
G03*
Y1435919I0J-4331D01*
G01*
G75*
G03*
Y1444581I0J4331D01*
G01*
X1973242Y3288675D02*
G75*
G03*
Y3280014I0J-4331D01*
G01*
G75*
G03*
Y3288675I0J4331D01*
G01*
X1973636Y3262691D02*
G75*
G03*
Y3254030I0J-4331D01*
G01*
G75*
G03*
Y3262691I0J4331D01*
G01*
X1978754Y3276470D02*
G75*
G03*
Y3267809I0J-4331D01*
G01*
G75*
G03*
Y3276470I0J4331D01*
G01*
X1980250Y814581D02*
G75*
G03*
Y805919I0J-4331D01*
G01*
G75*
G03*
Y814581I0J4331D01*
G01*
Y1084581D02*
G75*
G03*
Y1075919I0J-4331D01*
G01*
G75*
G03*
Y1084581I0J4331D01*
G01*
X1983242Y1438675D02*
G75*
G03*
Y1430014I0J-4331D01*
G01*
G75*
G03*
Y1438675I0J4331D01*
G01*
X1983636Y1412691D02*
G75*
G03*
Y1404030I0J-4331D01*
G01*
G75*
G03*
Y1412691I0J4331D01*
G01*
X1988754Y1426470D02*
G75*
G03*
Y1417809I0J-4331D01*
G01*
G75*
G03*
Y1426470I0J4331D01*
G01*
X1990250Y3180250D02*
G75*
G03*
X1980250Y3170250I-5000J-5000D01*
G01*
G75*
G03*
X1990250Y3180250I5000J5000D01*
G01*
X1993242Y808675D02*
G75*
G03*
Y800014I0J-4331D01*
G01*
G75*
G03*
Y808675I0J4331D01*
G01*
Y1078675D02*
G75*
G03*
Y1070014I0J-4331D01*
G01*
G75*
G03*
Y1078675I0J4331D01*
G01*
X1993636Y782691D02*
G75*
G03*
Y774030I0J-4331D01*
G01*
G75*
G03*
Y782691I0J4331D01*
G01*
Y1052691D02*
G75*
G03*
Y1044030I0J-4331D01*
G01*
G75*
G03*
Y1052691I0J4331D01*
G01*
X1998754Y796470D02*
G75*
G03*
Y787809I0J-4331D01*
G01*
G75*
G03*
Y796470I0J4331D01*
G01*
Y1066470D02*
G75*
G03*
Y1057809I0J-4331D01*
G01*
G75*
G03*
Y1066470I0J4331D01*
G01*
X2031746Y3276470D02*
G75*
G03*
Y3267809I0J-4331D01*
G01*
G75*
G03*
Y3276470I0J4331D01*
G01*
X2036864Y3262691D02*
G75*
G03*
Y3254030I0J-4331D01*
G01*
G75*
G03*
Y3262691I0J4331D01*
G01*
X2037258Y3289069D02*
G75*
G03*
Y3280407I0J-4331D01*
G01*
G75*
G03*
Y3289069I0J4331D01*
G01*
X2041746Y1426470D02*
G75*
G03*
Y1417809I0J-4331D01*
G01*
G75*
G03*
Y1426470I0J4331D01*
G01*
X2046864Y1412691D02*
G75*
G03*
Y1404030I0J-4331D01*
G01*
G75*
G03*
Y1412691I0J4331D01*
G01*
X2047258Y1439069D02*
G75*
G03*
Y1430407I0J-4331D01*
G01*
G75*
G03*
Y1439069I0J4331D01*
G01*
X2050250Y3294581D02*
G75*
G03*
Y3285919I0J-4331D01*
G01*
G75*
G03*
Y3294581I0J4331D01*
G01*
X2060250Y1444581D02*
G75*
G03*
Y1435919I0J-4331D01*
G01*
G75*
G03*
Y1444581I0J4331D01*
G01*
Y3580250D02*
G75*
G03*
X2040250I-10000J0D01*
G01*
G75*
G03*
X2060250I10000J0D01*
G01*
X2063242Y3288675D02*
G75*
G03*
Y3280014I0J-4331D01*
G01*
G75*
G03*
Y3288675I0J4331D01*
G01*
X2063636Y3262691D02*
G75*
G03*
Y3254030I0J-4331D01*
G01*
G75*
G03*
Y3262691I0J4331D01*
G01*
X2068754Y3276470D02*
G75*
G03*
Y3267809I0J-4331D01*
G01*
G75*
G03*
Y3276470I0J4331D01*
G01*
X2073242Y1438675D02*
G75*
G03*
Y1430014I0J-4331D01*
G01*
G75*
G03*
Y1438675I0J4331D01*
G01*
X2073636Y1412691D02*
G75*
G03*
Y1404030I0J-4331D01*
G01*
G75*
G03*
Y1412691I0J4331D01*
G01*
X2078754Y1426470D02*
G75*
G03*
Y1417809I0J-4331D01*
G01*
G75*
G03*
Y1426470I0J4331D01*
G01*
X2091746Y216470D02*
G75*
G03*
Y207809I0J-4331D01*
G01*
G75*
G03*
Y216470I0J4331D01*
G01*
Y526470D02*
G75*
G03*
Y517809I0J-4331D01*
G01*
G75*
G03*
Y526470I0J4331D01*
G01*
X2096864Y202691D02*
G75*
G03*
Y194030I0J-4331D01*
G01*
G75*
G03*
Y202691I0J4331D01*
G01*
Y512691D02*
G75*
G03*
Y504030I0J-4331D01*
G01*
G75*
G03*
Y512691I0J4331D01*
G01*
X2097258Y229069D02*
G75*
G03*
Y220407I0J-4331D01*
G01*
G75*
G03*
Y229069I0J4331D01*
G01*
Y539069D02*
G75*
G03*
Y530407I0J-4331D01*
G01*
G75*
G03*
Y539069I0J4331D01*
G01*
X2110250Y234581D02*
G75*
G03*
Y225919I0J-4331D01*
G01*
G75*
G03*
Y234581I0J4331D01*
G01*
Y544581D02*
G75*
G03*
Y535919I0J-4331D01*
G01*
G75*
G03*
Y544581I0J4331D01*
G01*
X2121746Y796470D02*
G75*
G03*
Y787809I0J-4331D01*
G01*
G75*
G03*
Y796470I0J4331D01*
G01*
Y1066470D02*
G75*
G03*
Y1057809I0J-4331D01*
G01*
G75*
G03*
Y1066470I0J4331D01*
G01*
Y2786470D02*
G75*
G03*
Y2777809I0J-4331D01*
G01*
G75*
G03*
Y2786470I0J4331D01*
G01*
Y3276470D02*
G75*
G03*
Y3267809I0J-4331D01*
G01*
G75*
G03*
Y3276470I0J4331D01*
G01*
X2123242Y228675D02*
G75*
G03*
Y220014I0J-4331D01*
G01*
G75*
G03*
Y228675I0J4331D01*
G01*
Y538675D02*
G75*
G03*
Y530014I0J-4331D01*
G01*
G75*
G03*
Y538675I0J4331D01*
G01*
X2123636Y202691D02*
G75*
G03*
Y194030I0J-4331D01*
G01*
G75*
G03*
Y202691I0J4331D01*
G01*
Y512691D02*
G75*
G03*
Y504030I0J-4331D01*
G01*
G75*
G03*
Y512691I0J4331D01*
G01*
X2126864Y782691D02*
G75*
G03*
Y774030I0J-4331D01*
G01*
G75*
G03*
Y782691I0J4331D01*
G01*
Y1052691D02*
G75*
G03*
Y1044030I0J-4331D01*
G01*
G75*
G03*
Y1052691I0J4331D01*
G01*
Y2772691D02*
G75*
G03*
Y2764030I0J-4331D01*
G01*
G75*
G03*
Y2772691I0J4331D01*
G01*
Y3262691D02*
G75*
G03*
Y3254030I0J-4331D01*
G01*
G75*
G03*
Y3262691I0J4331D01*
G01*
X2127258Y809069D02*
G75*
G03*
Y800407I0J-4331D01*
G01*
G75*
G03*
Y809069I0J4331D01*
G01*
Y1079069D02*
G75*
G03*
Y1070407I0J-4331D01*
G01*
G75*
G03*
Y1079069I0J4331D01*
G01*
Y2799069D02*
G75*
G03*
Y2790407I0J-4331D01*
G01*
G75*
G03*
Y2799069I0J4331D01*
G01*
Y3289069D02*
G75*
G03*
Y3280407I0J-4331D01*
G01*
G75*
G03*
Y3289069I0J4331D01*
G01*
X2128754Y216470D02*
G75*
G03*
Y207809I0J-4331D01*
G01*
G75*
G03*
Y216470I0J4331D01*
G01*
Y526470D02*
G75*
G03*
Y517809I0J-4331D01*
G01*
G75*
G03*
Y526470I0J4331D01*
G01*
X2130250Y2500250D02*
Y2490250D01*
X2110250D01*
Y2500250D01*
X2130250D01*
Y2540250D02*
Y2530250D01*
X2110250D01*
Y2540250D01*
X2130250D01*
Y2560250D02*
Y2550250D01*
X2110250D01*
Y2560250D01*
X2130250D01*
X2131746Y1426470D02*
G75*
G03*
Y1417809I0J-4331D01*
G01*
G75*
G03*
Y1426470I0J4331D01*
G01*
X2136864Y1412691D02*
G75*
G03*
Y1404030I0J-4331D01*
G01*
G75*
G03*
Y1412691I0J4331D01*
G01*
X2137258Y1439069D02*
G75*
G03*
Y1430407I0J-4331D01*
G01*
G75*
G03*
Y1439069I0J4331D01*
G01*
X2140250Y814581D02*
G75*
G03*
Y805919I0J-4331D01*
G01*
G75*
G03*
Y814581I0J4331D01*
G01*
Y1084581D02*
G75*
G03*
Y1075919I0J-4331D01*
G01*
G75*
G03*
Y1084581I0J4331D01*
G01*
Y2450250D02*
G75*
G03*
X2130250Y2440250I-5000J-5000D01*
G01*
G75*
G03*
X2140250Y2450250I5000J5000D01*
G01*
Y2804581D02*
G75*
G03*
Y2795919I0J-4331D01*
G01*
G75*
G03*
Y2804581I0J4331D01*
G01*
Y3294581D02*
G75*
G03*
Y3285919I0J-4331D01*
G01*
G75*
G03*
Y3294581I0J4331D01*
G01*
X2150250Y1444581D02*
G75*
G03*
Y1435919I0J-4331D01*
G01*
G75*
G03*
Y1444581I0J4331D01*
G01*
X2153242Y808675D02*
G75*
G03*
Y800014I0J-4331D01*
G01*
G75*
G03*
Y808675I0J4331D01*
G01*
Y1078675D02*
G75*
G03*
Y1070014I0J-4331D01*
G01*
G75*
G03*
Y1078675I0J4331D01*
G01*
Y2798675D02*
G75*
G03*
Y2790014I0J-4331D01*
G01*
G75*
G03*
Y2798675I0J4331D01*
G01*
Y3288675D02*
G75*
G03*
Y3280014I0J-4331D01*
G01*
G75*
G03*
Y3288675I0J4331D01*
G01*
X2153636Y782691D02*
G75*
G03*
Y774030I0J-4331D01*
G01*
G75*
G03*
Y782691I0J4331D01*
G01*
Y1052691D02*
G75*
G03*
Y1044030I0J-4331D01*
G01*
G75*
G03*
Y1052691I0J4331D01*
G01*
Y2772691D02*
G75*
G03*
Y2764030I0J-4331D01*
G01*
G75*
G03*
Y2772691I0J4331D01*
G01*
Y3262691D02*
G75*
G03*
Y3254030I0J-4331D01*
G01*
G75*
G03*
Y3262691I0J4331D01*
G01*
X2158754Y796470D02*
G75*
G03*
Y787809I0J-4331D01*
G01*
G75*
G03*
Y796470I0J4331D01*
G01*
Y1066470D02*
G75*
G03*
Y1057809I0J-4331D01*
G01*
G75*
G03*
Y1066470I0J4331D01*
G01*
Y2786470D02*
G75*
G03*
Y2777809I0J-4331D01*
G01*
G75*
G03*
Y2786470I0J4331D01*
G01*
Y3276470D02*
G75*
G03*
Y3267809I0J-4331D01*
G01*
G75*
G03*
Y3276470I0J4331D01*
G01*
X2160250Y2500250D02*
Y2490250D01*
X2140250D01*
Y2500250D01*
X2160250D01*
Y2540250D02*
Y2530250D01*
X2140250D01*
Y2540250D01*
X2160250D01*
Y2560250D02*
Y2550250D01*
X2140250D01*
Y2560250D01*
X2160250D01*
X2163242Y1438675D02*
G75*
G03*
Y1430014I0J-4331D01*
G01*
G75*
G03*
Y1438675I0J4331D01*
G01*
X2163636Y1412691D02*
G75*
G03*
Y1404030I0J-4331D01*
G01*
G75*
G03*
Y1412691I0J4331D01*
G01*
X2168754Y1426470D02*
G75*
G03*
Y1417809I0J-4331D01*
G01*
G75*
G03*
Y1426470I0J4331D01*
G01*
X2171746Y216470D02*
G75*
G03*
Y207809I0J-4331D01*
G01*
G75*
G03*
Y216470I0J4331D01*
G01*
Y526470D02*
G75*
G03*
Y517809I0J-4331D01*
G01*
G75*
G03*
Y526470I0J4331D01*
G01*
X2176864Y202691D02*
G75*
G03*
Y194030I0J-4331D01*
G01*
G75*
G03*
Y202691I0J4331D01*
G01*
Y512691D02*
G75*
G03*
Y504030I0J-4331D01*
G01*
G75*
G03*
Y512691I0J4331D01*
G01*
X2177258Y229069D02*
G75*
G03*
Y220407I0J-4331D01*
G01*
G75*
G03*
Y229069I0J4331D01*
G01*
Y539069D02*
G75*
G03*
Y530407I0J-4331D01*
G01*
G75*
G03*
Y539069I0J4331D01*
G01*
X2180250Y3740250D02*
G75*
G03*
X2170250Y3730250I-5000J-5000D01*
G01*
G75*
G03*
X2180250Y3740250I5000J5000D01*
G01*
X2190250Y234581D02*
G75*
G03*
Y225919I0J-4331D01*
G01*
G75*
G03*
Y234581I0J4331D01*
G01*
Y544581D02*
G75*
G03*
Y535919I0J-4331D01*
G01*
G75*
G03*
Y544581I0J4331D01*
G01*
X2200250Y3030250D02*
G75*
G03*
X2190250Y3020250I-5000J-5000D01*
G01*
G75*
G03*
X2200250Y3030250I5000J5000D01*
G01*
X2201746Y2786470D02*
G75*
G03*
Y2777809I0J-4331D01*
G01*
G75*
G03*
Y2786470I0J4331D01*
G01*
X2203242Y228675D02*
G75*
G03*
Y220014I0J-4331D01*
G01*
G75*
G03*
Y228675I0J4331D01*
G01*
Y538675D02*
G75*
G03*
Y530014I0J-4331D01*
G01*
G75*
G03*
Y538675I0J4331D01*
G01*
X2203636Y202691D02*
G75*
G03*
Y194030I0J-4331D01*
G01*
G75*
G03*
Y202691I0J4331D01*
G01*
Y512691D02*
G75*
G03*
Y504030I0J-4331D01*
G01*
G75*
G03*
Y512691I0J4331D01*
G01*
X2206864Y2772691D02*
G75*
G03*
Y2764030I0J-4331D01*
G01*
G75*
G03*
Y2772691I0J4331D01*
G01*
X2207258Y2799069D02*
G75*
G03*
Y2790407I0J-4331D01*
G01*
G75*
G03*
Y2799069I0J4331D01*
G01*
X2208754Y216470D02*
G75*
G03*
Y207809I0J-4331D01*
G01*
G75*
G03*
Y216470I0J4331D01*
G01*
Y526470D02*
G75*
G03*
Y517809I0J-4331D01*
G01*
G75*
G03*
Y526470I0J4331D01*
G01*
X2211746Y3276470D02*
G75*
G03*
Y3267809I0J-4331D01*
G01*
G75*
G03*
Y3276470I0J4331D01*
G01*
X2216864Y3262691D02*
G75*
G03*
Y3254030I0J-4331D01*
G01*
G75*
G03*
Y3262691I0J4331D01*
G01*
X2217258Y3289069D02*
G75*
G03*
Y3280407I0J-4331D01*
G01*
G75*
G03*
Y3289069I0J4331D01*
G01*
X2220250Y2804581D02*
G75*
G03*
Y2795919I0J-4331D01*
G01*
G75*
G03*
Y2804581I0J4331D01*
G01*
X2221746Y796470D02*
G75*
G03*
Y787809I0J-4331D01*
G01*
G75*
G03*
Y796470I0J4331D01*
G01*
Y1066470D02*
G75*
G03*
Y1057809I0J-4331D01*
G01*
G75*
G03*
Y1066470I0J4331D01*
G01*
Y1426470D02*
G75*
G03*
Y1417809I0J-4331D01*
G01*
G75*
G03*
Y1426470I0J4331D01*
G01*
X2226864Y782691D02*
G75*
G03*
Y774030I0J-4331D01*
G01*
G75*
G03*
Y782691I0J4331D01*
G01*
Y1052691D02*
G75*
G03*
Y1044030I0J-4331D01*
G01*
G75*
G03*
Y1052691I0J4331D01*
G01*
Y1412691D02*
G75*
G03*
Y1404030I0J-4331D01*
G01*
G75*
G03*
Y1412691I0J4331D01*
G01*
X2227258Y809069D02*
G75*
G03*
Y800407I0J-4331D01*
G01*
G75*
G03*
Y809069I0J4331D01*
G01*
Y1079069D02*
G75*
G03*
Y1070407I0J-4331D01*
G01*
G75*
G03*
Y1079069I0J4331D01*
G01*
Y1439069D02*
G75*
G03*
Y1430407I0J-4331D01*
G01*
G75*
G03*
Y1439069I0J4331D01*
G01*
X2230250Y2500250D02*
Y2490250D01*
X2210250D01*
Y2500250D01*
X2230250D01*
Y2540250D02*
Y2530250D01*
X2210250D01*
Y2540250D01*
X2230250D01*
Y2560250D02*
Y2550250D01*
X2210250D01*
Y2560250D01*
X2230250D01*
Y3294581D02*
G75*
G03*
Y3285919I0J-4331D01*
G01*
G75*
G03*
Y3294581I0J4331D01*
G01*
Y3580250D02*
G75*
G03*
X2210250I-10000J0D01*
G01*
G75*
G03*
X2230250I10000J0D01*
G01*
X2233242Y2798675D02*
G75*
G03*
Y2790014I0J-4331D01*
G01*
G75*
G03*
Y2798675I0J4331D01*
G01*
X2233636Y2772691D02*
G75*
G03*
Y2764030I0J-4331D01*
G01*
G75*
G03*
Y2772691I0J4331D01*
G01*
X2238754Y2786470D02*
G75*
G03*
Y2777809I0J-4331D01*
G01*
G75*
G03*
Y2786470I0J4331D01*
G01*
X2240250Y814581D02*
G75*
G03*
Y805919I0J-4331D01*
G01*
G75*
G03*
Y814581I0J4331D01*
G01*
Y1084581D02*
G75*
G03*
Y1075919I0J-4331D01*
G01*
G75*
G03*
Y1084581I0J4331D01*
G01*
Y1444581D02*
G75*
G03*
Y1435919I0J-4331D01*
G01*
G75*
G03*
Y1444581I0J4331D01*
G01*
Y2450250D02*
G75*
G03*
X2230250Y2440250I-5000J-5000D01*
G01*
G75*
G03*
X2240250Y2450250I5000J5000D01*
G01*
X2243242Y3288675D02*
G75*
G03*
Y3280014I0J-4331D01*
G01*
G75*
G03*
Y3288675I0J4331D01*
G01*
X2243636Y3262691D02*
G75*
G03*
Y3254030I0J-4331D01*
G01*
G75*
G03*
Y3262691I0J4331D01*
G01*
X2248754Y3276470D02*
G75*
G03*
Y3267809I0J-4331D01*
G01*
G75*
G03*
Y3276470I0J4331D01*
G01*
X2253242Y808675D02*
G75*
G03*
Y800014I0J-4331D01*
G01*
G75*
G03*
Y808675I0J4331D01*
G01*
Y1078675D02*
G75*
G03*
Y1070014I0J-4331D01*
G01*
G75*
G03*
Y1078675I0J4331D01*
G01*
Y1438675D02*
G75*
G03*
Y1430014I0J-4331D01*
G01*
G75*
G03*
Y1438675I0J4331D01*
G01*
X2253636Y782691D02*
G75*
G03*
Y774030I0J-4331D01*
G01*
G75*
G03*
Y782691I0J4331D01*
G01*
Y1052691D02*
G75*
G03*
Y1044030I0J-4331D01*
G01*
G75*
G03*
Y1052691I0J4331D01*
G01*
Y1412691D02*
G75*
G03*
Y1404030I0J-4331D01*
G01*
G75*
G03*
Y1412691I0J4331D01*
G01*
X2258754Y796470D02*
G75*
G03*
Y787809I0J-4331D01*
G01*
G75*
G03*
Y796470I0J4331D01*
G01*
Y1066470D02*
G75*
G03*
Y1057809I0J-4331D01*
G01*
G75*
G03*
Y1066470I0J4331D01*
G01*
Y1426470D02*
G75*
G03*
Y1417809I0J-4331D01*
G01*
G75*
G03*
Y1426470I0J4331D01*
G01*
X2260250Y2500250D02*
Y2490250D01*
X2240250D01*
Y2500250D01*
X2260250D01*
Y2540250D02*
Y2530250D01*
X2240250D01*
Y2540250D01*
X2260250D01*
Y2560250D02*
Y2550250D01*
X2240250D01*
Y2560250D01*
X2260250D01*
Y3170250D02*
G75*
G03*
X2250250Y3160250I-5000J-5000D01*
G01*
G75*
G03*
X2260250Y3170250I5000J5000D01*
G01*
X2300250Y170250D02*
G75*
G03*
X2290250Y160250I-5000J-5000D01*
G01*
G75*
G03*
X2300250Y170250I5000J5000D01*
G01*
Y480250D02*
G75*
G03*
X2290250Y470250I-5000J-5000D01*
G01*
G75*
G03*
X2300250Y480250I5000J5000D01*
G01*
Y750250D02*
G75*
G03*
X2290250Y740250I-5000J-5000D01*
G01*
G75*
G03*
X2300250Y750250I5000J5000D01*
G01*
Y1020250D02*
G75*
G03*
X2290250Y1010250I-5000J-5000D01*
G01*
G75*
G03*
X2300250Y1020250I5000J5000D01*
G01*
X2320250Y1540250D02*
X2690250D01*
Y1870250D01*
X2320250D01*
Y1540250D01*
Y1880250D02*
X2690250D01*
Y2470250D01*
X2320250D01*
Y1880250D01*
Y2480250D02*
X2690250D01*
Y3390250D01*
X2320250D01*
Y2480250D01*
Y3760250D02*
Y3400250D01*
X2690250D01*
Y3760250D01*
X2320250D01*
X2340250Y200250D02*
G75*
G03*
X2330250Y190250I-5000J-5000D01*
G01*
G75*
G03*
X2340250Y200250I5000J5000D01*
G01*
Y510250D02*
G75*
G03*
X2330250Y500250I-5000J-5000D01*
G01*
G75*
G03*
X2340250Y510250I5000J5000D01*
G01*
Y780250D02*
G75*
G03*
X2330250Y770250I-5000J-5000D01*
G01*
G75*
G03*
X2340250Y780250I5000J5000D01*
G01*
Y1050250D02*
G75*
G03*
X2330250Y1040250I-5000J-5000D01*
G01*
G75*
G03*
X2340250Y1050250I5000J5000D01*
G01*
Y1390250D02*
G75*
G03*
X2330250Y1380250I-5000J-5000D01*
G01*
G75*
G03*
X2340250Y1390250I5000J5000D01*
G01*
Y1620250D02*
G75*
G03*
X2330250Y1610250I-5000J-5000D01*
G01*
G75*
G03*
X2340250Y1620250I5000J5000D01*
G01*
Y1960250D02*
G75*
G03*
X2330250Y1950250I-5000J-5000D01*
G01*
G75*
G03*
X2340250Y1960250I5000J5000D01*
G01*
Y2210250D02*
G75*
G03*
X2330250Y2200250I-5000J-5000D01*
G01*
G75*
G03*
X2340250Y2210250I5000J5000D01*
G01*
Y2590250D02*
G75*
G03*
X2330250Y2580250I-5000J-5000D01*
G01*
G75*
G03*
X2340250Y2590250I5000J5000D01*
G01*
Y2810250D02*
G75*
G03*
X2330250Y2800250I-5000J-5000D01*
G01*
G75*
G03*
X2340250Y2810250I5000J5000D01*
G01*
Y3320250D02*
G75*
G03*
X2330250Y3310250I-5000J-5000D01*
G01*
G75*
G03*
X2340250Y3320250I5000J5000D01*
G01*
Y3620250D02*
G75*
G03*
X2330250Y3610250I-5000J-5000D01*
G01*
G75*
G03*
X2340250Y3620250I5000J5000D01*
G01*
X2361746Y796470D02*
G75*
G03*
Y787809I0J-4331D01*
G01*
G75*
G03*
Y796470I0J4331D01*
G01*
Y1066470D02*
G75*
G03*
Y1057809I0J-4331D01*
G01*
G75*
G03*
Y1066470I0J4331D01*
G01*
Y1646470D02*
G75*
G03*
Y1637809I0J-4331D01*
G01*
G75*
G03*
Y1646470I0J4331D01*
G01*
Y1794030D02*
G75*
G03*
Y1802691I0J4331D01*
G01*
G75*
G03*
Y1794030I0J-4331D01*
G01*
X2366864Y782691D02*
G75*
G03*
Y774030I0J-4331D01*
G01*
G75*
G03*
Y782691I0J4331D01*
G01*
Y1052691D02*
G75*
G03*
Y1044030I0J-4331D01*
G01*
G75*
G03*
Y1052691I0J4331D01*
G01*
Y1632691D02*
G75*
G03*
Y1624030I0J-4331D01*
G01*
G75*
G03*
Y1632691I0J4331D01*
G01*
Y1807809D02*
G75*
G03*
Y1816470I0J4331D01*
G01*
G75*
G03*
Y1807809I0J-4331D01*
G01*
X2367258Y809069D02*
G75*
G03*
Y800407I0J-4331D01*
G01*
G75*
G03*
Y809069I0J4331D01*
G01*
Y1079069D02*
G75*
G03*
Y1070407I0J-4331D01*
G01*
G75*
G03*
Y1079069I0J4331D01*
G01*
Y1659069D02*
G75*
G03*
Y1650407I0J-4331D01*
G01*
G75*
G03*
Y1659069I0J4331D01*
G01*
Y1781825D02*
G75*
G03*
Y1790486I0J4331D01*
G01*
G75*
G03*
Y1781825I0J-4331D01*
G01*
X2380250Y814581D02*
G75*
G03*
Y805919I0J-4331D01*
G01*
G75*
G03*
Y814581I0J4331D01*
G01*
Y1084581D02*
G75*
G03*
Y1075919I0J-4331D01*
G01*
G75*
G03*
Y1084581I0J4331D01*
G01*
Y1664581D02*
G75*
G03*
Y1655919I0J-4331D01*
G01*
G75*
G03*
Y1664581I0J4331D01*
G01*
Y1775919D02*
G75*
G03*
Y1784581I0J4331D01*
G01*
G75*
G03*
Y1775919I0J-4331D01*
G01*
X2393242Y808675D02*
G75*
G03*
Y800014I0J-4331D01*
G01*
G75*
G03*
Y808675I0J4331D01*
G01*
Y1078675D02*
G75*
G03*
Y1070014I0J-4331D01*
G01*
G75*
G03*
Y1078675I0J4331D01*
G01*
Y1658675D02*
G75*
G03*
Y1650014I0J-4331D01*
G01*
G75*
G03*
Y1658675I0J4331D01*
G01*
Y1781431D02*
G75*
G03*
Y1790093I0J4331D01*
G01*
G75*
G03*
Y1781431I0J-4331D01*
G01*
X2393636Y782691D02*
G75*
G03*
Y774030I0J-4331D01*
G01*
G75*
G03*
Y782691I0J4331D01*
G01*
Y1052691D02*
G75*
G03*
Y1044030I0J-4331D01*
G01*
G75*
G03*
Y1052691I0J4331D01*
G01*
Y1632691D02*
G75*
G03*
Y1624030I0J-4331D01*
G01*
G75*
G03*
Y1632691I0J4331D01*
G01*
Y1807809D02*
G75*
G03*
Y1816470I0J4331D01*
G01*
G75*
G03*
Y1807809I0J-4331D01*
G01*
X2398754Y796470D02*
G75*
G03*
Y787809I0J-4331D01*
G01*
G75*
G03*
Y796470I0J4331D01*
G01*
Y1066470D02*
G75*
G03*
Y1057809I0J-4331D01*
G01*
G75*
G03*
Y1066470I0J4331D01*
G01*
Y1646470D02*
G75*
G03*
Y1637809I0J-4331D01*
G01*
G75*
G03*
Y1646470I0J4331D01*
G01*
Y1794030D02*
G75*
G03*
Y1802691I0J4331D01*
G01*
G75*
G03*
Y1794030I0J-4331D01*
G01*
X2420250Y3170250D02*
G75*
G03*
X2410250Y3160250I-5000J-5000D01*
G01*
G75*
G03*
X2420250Y3170250I5000J5000D01*
G01*
X2500250Y1260250D02*
G75*
G03*
X2490250Y1250250I-5000J-5000D01*
G01*
G75*
G03*
X2500250Y1260250I5000J5000D01*
G01*
Y3490250D02*
G75*
G03*
X2490250Y3480250I-5000J-5000D01*
G01*
G75*
G03*
X2500250Y3490250I5000J5000D01*
G01*
X2690250Y250D02*
X2320250D01*
Y620015D01*
X2690250D01*
Y250D01*
Y620250D02*
X2320250D01*
Y1160015D01*
X2690250D01*
Y620250D01*
Y1160250D02*
X2320250D01*
Y1530250D01*
X2690250D01*
Y1160250D01*
X0Y0D02*
M02*
