G05
M48
;#@! TF.GenerationSoftware,DesignSpark,DesignSpark PCB,12.0.5940
;#@! TF.CreationDate,2025-04-30T15:17:23+06:00*
;#@! TF.FileFunction,Plated,1,2,PTH
;FILE_FORMAT=3:5
;TYPE=PLATED
INCH,TZ
FMAT,2
T1C000.03150
T2C000.03200
T3C000.03500
T4C000.03543
T5C000.06299
T6C000.08661
T7C000.23622
%
T001
X18.80250Y25.10250
X18.80250Y25.40250
X18.80250Y25.70250
X18.90250Y25.10250
X18.90250Y25.40250
X18.90250Y25.70250
T002
X1.60250Y3.00250
X1.60250Y3.40250
X1.70250Y3.00250
X1.70250Y3.40250
X1.80250Y3.00250
X1.80250Y3.40250
X1.90250Y3.00250
X1.90250Y3.40250
X1.90250Y9.90250
X1.90250Y10.00250
X1.90250Y10.80250
X1.90250Y11.20250
X2.00250Y10.80250
X2.00250Y11.20250
X2.20250Y13.70250
X2.20250Y13.80250
X2.20250Y14.60250
X2.20250Y15.00250
X2.30250Y9.90250
X2.30250Y10.00250
X2.30250Y14.60250
X2.30250Y15.00250
X2.40250Y10.50250
X2.40250Y10.90250
X2.60250Y13.70250
X2.60250Y13.80250
X2.70250Y9.90250
X2.70250Y10.00250
X2.70250Y10.80250
X2.70250Y11.20250
X2.70250Y14.30250
X2.70250Y14.70250
X2.80250Y10.80250
X2.80250Y11.20250
X3.00250Y14.60250
X3.00250Y15.00250
X3.00250Y32.00250
X3.00250Y32.40250
X3.10250Y9.90250
X3.10250Y10.00250
X3.10250Y14.60250
X3.10250Y15.00250
X3.10250Y32.00250
X3.10250Y32.40250
X3.20250Y10.50250
X3.20250Y10.90250
X3.20250Y13.50250
X3.20250Y13.90250
X3.30250Y13.50250
X3.30250Y13.90250
X3.30250Y31.30250
X3.30250Y31.70250
X3.50250Y0.70250
X3.50250Y1.10250
X3.60250Y0.60250
X3.60250Y1.00250
X3.60250Y13.50250
X3.60250Y13.90250
X3.70250Y0.50250
X3.70250Y0.90250
X3.70250Y31.50250
X3.70250Y31.60250
X3.80250Y0.50250
X3.80250Y0.90250
X3.90250Y13.70250
X3.90250Y13.80250
X3.90250Y14.60250
X3.90250Y15.00250
X4.00250Y14.60250
X4.00250Y15.00250
X4.00250Y31.10250
X4.00250Y31.40250
X4.00250Y31.70250
X4.00250Y32.00250
X4.10250Y25.60250
X4.10250Y26.00250
X4.10250Y28.00250
X4.10250Y28.40250
X4.10250Y31.10250
X4.10250Y31.50250
X4.10250Y31.60250
X4.10250Y32.00250
X4.10250Y32.40250
X4.20250Y25.70250
X4.20250Y26.10250
X4.20250Y28.10250
X4.20250Y28.50250
X4.20250Y32.00250
X4.20250Y32.40250
X4.30250Y13.70250
X4.30250Y13.80250
X4.30250Y25.80250
X4.30250Y26.20250
X4.30250Y28.20250
X4.30250Y28.60250
X4.40250Y14.30250
X4.40250Y14.70250
X4.40250Y25.90250
X4.40250Y26.30250
X4.40250Y28.30250
X4.40250Y28.70250
X4.50250Y31.10250
X4.60250Y7.40250
X4.60250Y7.70250
X4.60250Y7.80250
X4.60250Y8.10250
X4.60250Y10.10250
X4.60250Y10.40250
X4.60250Y10.50250
X4.60250Y10.80250
X4.60250Y19.40250
X4.70250Y7.40250
X4.70250Y7.70250
X4.70250Y10.10250
X4.70250Y10.40250
X4.70250Y13.70250
X4.70250Y13.80250
X4.70250Y14.60250
X4.70250Y15.00250
X4.70250Y31.30250
X4.70250Y31.70250
X4.80250Y7.40250
X4.80250Y7.70250
X4.80250Y8.20250
X4.80250Y8.60250
X4.80250Y10.10250
X4.80250Y10.40250
X4.80250Y10.90250
X4.80250Y11.30250
X4.80250Y14.60250
X4.80250Y15.00250
X4.90250Y7.30250
X4.90250Y7.60250
X4.90250Y8.20250
X4.90250Y8.60250
X4.90250Y10.00250
X4.90250Y10.30250
X4.90250Y10.90250
X4.90250Y11.30250
X5.00250Y19.40250
X5.10250Y7.30250
X5.10250Y7.40250
X5.10250Y10.00250
X5.10250Y10.10250
X5.10250Y13.70250
X5.10250Y13.80250
X5.20250Y1.60250
X5.20250Y1.90250
X5.20250Y2.00250
X5.20250Y2.30250
X5.20250Y4.70250
X5.20250Y5.00250
X5.20250Y5.10250
X5.20250Y5.40250
X5.20250Y7.50250
X5.20250Y7.60250
X5.20250Y10.20250
X5.20250Y10.30250
X5.20250Y14.30250
X5.20250Y14.70250
X5.30250Y1.60250
X5.30250Y1.90250
X5.30250Y4.70250
X5.30250Y5.00250
X5.40250Y1.60250
X5.40250Y1.90250
X5.40250Y2.40250
X5.40250Y2.80250
X5.40250Y4.70250
X5.40250Y5.00250
X5.40250Y5.50250
X5.40250Y5.90250
X5.40250Y7.30250
X5.40250Y7.40250
X5.40250Y10.00250
X5.40250Y10.10250
X5.50250Y1.50250
X5.50250Y1.80250
X5.50250Y2.40250
X5.50250Y2.80250
X5.50250Y4.60250
X5.50250Y4.90250
X5.50250Y5.50250
X5.50250Y5.90250
X5.50250Y8.30250
X5.50250Y8.70250
X5.50250Y11.00250
X5.50250Y11.40250
X5.50250Y14.60250
X5.50250Y15.00250
X5.60250Y7.30250
X5.60250Y7.50250
X5.60250Y7.60250
X5.60250Y10.00250
X5.60250Y10.20250
X5.60250Y10.30250
X5.60250Y14.60250
X5.60250Y15.00250
X5.60250Y19.40250
X5.70250Y1.50250
X5.70250Y1.60250
X5.70250Y4.60250
X5.70250Y4.70250
X5.70250Y8.20250
X5.70250Y8.60250
X5.70250Y10.90250
X5.70250Y11.30250
X5.70250Y13.50250
X5.70250Y13.90250
X5.80250Y1.70250
X5.80250Y1.80250
X5.80250Y4.80250
X5.80250Y4.90250
X5.80250Y8.20250
X5.80250Y8.60250
X5.80250Y10.90250
X5.80250Y11.30250
X5.80250Y13.50250
X5.80250Y13.90250
X6.00250Y1.50250
X6.00250Y1.60250
X6.00250Y4.60250
X6.00250Y4.70250
X6.00250Y7.30250
X6.00250Y7.50250
X6.00250Y7.60250
X6.00250Y10.00250
X6.00250Y10.20250
X6.00250Y10.30250
X6.00250Y19.40250
X6.10250Y2.50250
X6.10250Y2.90250
X6.10250Y5.60250
X6.10250Y6.00250
X6.10250Y13.50250
X6.10250Y13.90250
X6.20250Y1.50250
X6.20250Y1.70250
X6.20250Y1.80250
X6.20250Y4.60250
X6.20250Y4.80250
X6.20250Y4.90250
X6.30250Y2.40250
X6.30250Y2.80250
X6.30250Y5.50250
X6.30250Y5.90250
X6.30250Y7.50250
X6.30250Y7.70250
X6.30250Y10.20250
X6.30250Y10.40250
X6.40250Y2.40250
X6.40250Y2.80250
X6.40250Y5.50250
X6.40250Y5.90250
X6.40250Y7.40250
X6.40250Y7.60250
X6.40250Y10.10250
X6.40250Y10.30250
X6.40250Y13.70250
X6.40250Y13.80250
X6.40250Y14.60250
X6.40250Y15.00250
X6.50250Y8.30250
X6.50250Y8.70250
X6.50250Y11.00250
X6.50250Y11.40250
X6.50250Y14.60250
X6.50250Y15.00250
X6.60250Y1.50250
X6.60250Y1.60250
X6.60250Y1.80250
X6.60250Y4.60250
X6.60250Y4.70250
X6.60250Y4.90250
X6.60250Y7.70250
X6.60250Y7.80250
X6.60250Y8.20250
X6.60250Y8.30250
X6.60250Y8.70250
X6.60250Y10.40250
X6.60250Y10.50250
X6.60250Y10.90250
X6.60250Y11.00250
X6.60250Y11.40250
X6.70250Y7.40250
X6.70250Y7.80250
X6.70250Y8.20250
X6.70250Y10.10250
X6.70250Y10.50250
X6.70250Y10.90250
X6.80250Y13.70250
X6.80250Y13.80250
X6.90250Y1.60250
X6.90250Y1.90250
X6.90250Y4.70250
X6.90250Y5.00250
X6.90250Y14.30250
X6.90250Y14.70250
X7.00250Y1.60250
X7.00250Y1.80250
X7.00250Y4.70250
X7.00250Y4.90250
X7.10250Y2.50250
X7.10250Y2.90250
X7.10250Y5.60250
X7.10250Y6.00250
X7.10250Y7.30250
X7.10250Y8.20250
X7.10250Y8.60250
X7.10250Y10.00250
X7.10250Y10.90250
X7.10250Y11.30250
X7.20250Y1.90250
X7.20250Y2.00250
X7.20250Y2.40250
X7.20250Y2.50250
X7.20250Y2.90250
X7.20250Y5.00250
X7.20250Y5.10250
X7.20250Y5.50250
X7.20250Y5.60250
X7.20250Y6.00250
X7.20250Y8.00250
X7.20250Y8.30250
X7.20250Y10.70250
X7.20250Y11.00250
X7.20250Y13.70250
X7.20250Y13.80250
X7.20250Y14.60250
X7.20250Y15.00250
X7.30250Y1.60250
X7.30250Y2.00250
X7.30250Y2.40250
X7.30250Y4.70250
X7.30250Y5.10250
X7.30250Y5.50250
X7.30250Y8.20250
X7.30250Y8.60250
X7.30250Y10.90250
X7.30250Y11.30250
X7.30250Y14.60250
X7.30250Y15.00250
X7.40250Y7.60250
X7.40250Y8.20250
X7.40250Y8.60250
X7.40250Y10.30250
X7.40250Y10.90250
X7.40250Y11.30250
X7.50250Y7.30250
X7.50250Y10.00250
X7.60250Y13.70250
X7.60250Y13.80250
X7.70250Y1.50250
X7.70250Y2.40250
X7.70250Y2.80250
X7.70250Y4.60250
X7.70250Y5.50250
X7.70250Y5.90250
X7.70250Y14.30250
X7.70250Y14.70250
X7.80250Y2.20250
X7.80250Y2.50250
X7.80250Y5.30250
X7.80250Y5.60250
X7.80250Y7.60250
X7.80250Y10.30250
X7.90250Y2.40250
X7.90250Y2.80250
X7.90250Y5.50250
X7.90250Y5.90250
X8.00250Y1.80250
X8.00250Y2.40250
X8.00250Y2.80250
X8.00250Y4.90250
X8.00250Y5.50250
X8.00250Y5.90250
X8.00250Y14.60250
X8.00250Y15.00250
X8.10250Y1.50250
X8.10250Y4.60250
X8.10250Y7.60250
X8.10250Y7.90250
X8.10250Y8.30250
X8.10250Y8.70250
X8.10250Y10.30250
X8.10250Y10.60250
X8.10250Y11.00250
X8.10250Y11.40250
X8.10250Y14.60250
X8.10250Y15.00250
X8.20250Y7.50250
X8.20250Y7.80250
X8.20250Y10.20250
X8.20250Y10.50250
X8.20250Y13.50250
X8.20250Y13.90250
X8.30250Y7.50250
X8.30250Y7.80250
X8.30250Y8.20250
X8.30250Y8.60250
X8.30250Y10.20250
X8.30250Y10.50250
X8.30250Y10.90250
X8.30250Y11.30250
X8.30250Y13.50250
X8.30250Y13.90250
X8.30250Y36.80250
X8.30250Y37.20250
X8.40250Y1.80250
X8.40250Y4.90250
X8.40250Y8.20250
X8.40250Y8.60250
X8.40250Y10.90250
X8.40250Y11.30250
X8.40250Y35.60250
X8.40250Y36.00250
X8.40250Y36.80250
X8.40250Y37.20250
X8.50250Y7.30250
X8.50250Y7.60250
X8.50250Y8.30250
X8.50250Y10.00250
X8.50250Y10.30250
X8.50250Y11.00250
X8.60250Y7.50250
X8.60250Y7.60250
X8.60250Y10.20250
X8.60250Y10.30250
X8.60250Y13.50250
X8.60250Y13.90250
X8.60250Y35.60250
X8.60250Y36.00250
X8.70250Y2.50250
X8.70250Y2.90250
X8.70250Y5.60250
X8.70250Y6.00250
X8.80250Y1.60250
X8.80250Y1.70250
X8.80250Y1.80250
X8.80250Y2.40250
X8.80250Y2.80250
X8.80250Y4.70250
X8.80250Y4.80250
X8.80250Y4.90250
X8.80250Y5.50250
X8.80250Y5.90250
X8.80250Y8.30250
X8.80250Y11.00250
X8.90250Y2.40250
X8.90250Y2.80250
X8.90250Y5.50250
X8.90250Y5.90250
X8.90250Y13.70250
X8.90250Y13.80250
X8.90250Y14.60250
X8.90250Y15.00250
X8.90250Y35.60250
X8.90250Y36.00250
X9.00250Y7.50250
X9.00250Y7.60250
X9.00250Y8.30250
X9.00250Y8.70250
X9.00250Y10.20250
X9.00250Y10.30250
X9.00250Y11.00250
X9.00250Y11.40250
X9.00250Y14.60250
X9.00250Y15.00250
X9.20250Y1.60250
X9.20250Y1.70250
X9.20250Y1.80250
X9.20250Y4.70250
X9.20250Y4.80250
X9.20250Y4.90250
X9.20250Y7.40250
X9.20250Y7.70250
X9.20250Y7.80250
X9.20250Y8.10250
X9.20250Y10.10250
X9.20250Y10.40250
X9.20250Y10.50250
X9.20250Y10.80250
X9.20250Y36.80250
X9.20250Y37.20250
X9.30250Y7.40250
X9.30250Y7.70250
X9.30250Y10.10250
X9.30250Y10.40250
X9.30250Y13.70250
X9.30250Y13.80250
X9.30250Y35.60250
X9.30250Y36.00250
X9.30250Y36.80250
X9.30250Y37.20250
X9.40250Y7.40250
X9.40250Y7.70250
X9.40250Y8.20250
X9.40250Y8.60250
X9.40250Y10.10250
X9.40250Y10.40250
X9.40250Y10.90250
X9.40250Y11.30250
X9.40250Y14.30250
X9.40250Y14.70250
X9.40250Y32.20250
X9.40250Y32.30250
X9.40250Y33.10250
X9.40250Y33.50250
X9.50250Y1.60250
X9.50250Y1.90250
X9.50250Y2.00250
X9.50250Y2.30250
X9.50250Y4.70250
X9.50250Y5.00250
X9.50250Y5.10250
X9.50250Y5.40250
X9.50250Y7.30250
X9.50250Y7.60250
X9.50250Y8.20250
X9.50250Y8.60250
X9.50250Y10.00250
X9.50250Y10.30250
X9.50250Y10.90250
X9.50250Y11.30250
X9.50250Y33.10250
X9.50250Y33.50250
X9.50250Y35.60250
X9.50250Y36.00250
X9.60250Y1.60250
X9.60250Y1.90250
X9.60250Y4.70250
X9.60250Y5.00250
X9.70250Y1.60250
X9.70250Y1.90250
X9.70250Y2.40250
X9.70250Y2.80250
X9.70250Y4.70250
X9.70250Y5.00250
X9.70250Y5.50250
X9.70250Y5.90250
X9.70250Y7.30250
X9.70250Y7.40250
X9.70250Y10.00250
X9.70250Y10.10250
X9.70250Y13.70250
X9.70250Y13.80250
X9.70250Y14.60250
X9.70250Y15.00250
X9.80250Y1.50250
X9.80250Y1.80250
X9.80250Y2.40250
X9.80250Y2.80250
X9.80250Y4.60250
X9.80250Y4.90250
X9.80250Y5.50250
X9.80250Y5.90250
X9.80250Y7.50250
X9.80250Y7.60250
X9.80250Y10.20250
X9.80250Y10.30250
X9.80250Y14.60250
X9.80250Y15.00250
X9.80250Y32.20250
X9.80250Y32.30250
X9.80250Y35.60250
X9.80250Y36.00250
X9.90250Y32.80250
X9.90250Y33.20250
X10.00250Y1.50250
X10.00250Y1.60250
X10.00250Y4.60250
X10.00250Y4.70250
X10.00250Y7.30250
X10.00250Y7.40250
X10.00250Y10.00250
X10.00250Y10.10250
X10.10250Y1.70250
X10.10250Y1.80250
X10.10250Y4.80250
X10.10250Y4.90250
X10.10250Y8.30250
X10.10250Y8.70250
X10.10250Y11.00250
X10.10250Y11.40250
X10.10250Y13.70250
X10.10250Y13.80250
X10.10250Y36.80250
X10.10250Y37.20250
X10.20250Y7.30250
X10.20250Y7.50250
X10.20250Y7.60250
X10.20250Y10.00250
X10.20250Y10.20250
X10.20250Y10.30250
X10.20250Y14.30250
X10.20250Y14.70250
X10.20250Y32.20250
X10.20250Y32.30250
X10.20250Y33.10250
X10.20250Y33.50250
X10.20250Y35.60250
X10.20250Y36.00250
X10.20250Y36.80250
X10.20250Y37.20250
X10.30250Y1.50250
X10.30250Y1.60250
X10.30250Y4.60250
X10.30250Y4.70250
X10.30250Y8.20250
X10.30250Y8.60250
X10.30250Y10.90250
X10.30250Y11.30250
X10.30250Y33.10250
X10.30250Y33.50250
X10.40250Y2.50250
X10.40250Y2.90250
X10.40250Y5.60250
X10.40250Y6.00250
X10.40250Y8.20250
X10.40250Y8.60250
X10.40250Y10.90250
X10.40250Y11.30250
X10.40250Y35.60250
X10.40250Y36.00250
X10.50250Y1.50250
X10.50250Y1.70250
X10.50250Y1.80250
X10.50250Y4.60250
X10.50250Y4.80250
X10.50250Y4.90250
X10.50250Y14.60250
X10.50250Y15.00250
X10.60250Y2.40250
X10.60250Y2.80250
X10.60250Y5.50250
X10.60250Y5.90250
X10.60250Y7.30250
X10.60250Y7.50250
X10.60250Y7.60250
X10.60250Y10.00250
X10.60250Y10.20250
X10.60250Y10.30250
X10.60250Y14.60250
X10.60250Y15.00250
X10.60250Y32.20250
X10.60250Y32.30250
X10.70250Y2.40250
X10.70250Y2.80250
X10.70250Y5.50250
X10.70250Y5.90250
X10.70250Y13.50250
X10.70250Y13.90250
X10.70250Y32.80250
X10.70250Y33.20250
X10.70250Y35.60250
X10.70250Y36.00250
X10.80250Y13.50250
X10.80250Y13.90250
X10.90250Y1.50250
X10.90250Y1.60250
X10.90250Y1.80250
X10.90250Y4.60250
X10.90250Y4.70250
X10.90250Y4.90250
X10.90250Y7.50250
X10.90250Y7.70250
X10.90250Y10.20250
X10.90250Y10.40250
X11.00250Y7.40250
X11.00250Y7.60250
X11.00250Y10.10250
X11.00250Y10.30250
X11.00250Y32.20250
X11.00250Y32.30250
X11.00250Y33.10250
X11.00250Y33.50250
X11.00250Y36.80250
X11.00250Y37.20250
X11.10250Y8.30250
X11.10250Y8.70250
X11.10250Y11.00250
X11.10250Y11.40250
X11.10250Y13.50250
X11.10250Y13.90250
X11.10250Y33.10250
X11.10250Y33.50250
X11.10250Y35.60250
X11.10250Y36.00250
X11.10250Y36.80250
X11.10250Y37.20250
X11.20250Y1.60250
X11.20250Y1.90250
X11.20250Y4.70250
X11.20250Y5.00250
X11.20250Y7.70250
X11.20250Y7.80250
X11.20250Y8.20250
X11.20250Y8.30250
X11.20250Y8.70250
X11.20250Y10.40250
X11.20250Y10.50250
X11.20250Y10.90250
X11.20250Y11.00250
X11.20250Y11.40250
X11.30250Y1.60250
X11.30250Y1.80250
X11.30250Y4.70250
X11.30250Y4.90250
X11.30250Y7.40250
X11.30250Y7.80250
X11.30250Y8.20250
X11.30250Y10.10250
X11.30250Y10.50250
X11.30250Y10.90250
X11.30250Y35.60250
X11.30250Y36.00250
X11.40250Y2.50250
X11.40250Y2.90250
X11.40250Y5.60250
X11.40250Y6.00250
X11.40250Y13.70250
X11.40250Y13.80250
X11.40250Y14.60250
X11.40250Y15.00250
X11.40250Y32.20250
X11.40250Y32.30250
X11.50250Y1.90250
X11.50250Y2.00250
X11.50250Y2.40250
X11.50250Y2.50250
X11.50250Y2.90250
X11.50250Y5.00250
X11.50250Y5.10250
X11.50250Y5.50250
X11.50250Y5.60250
X11.50250Y6.00250
X11.50250Y14.60250
X11.50250Y15.00250
X11.50250Y27.50250
X11.50250Y27.90250
X11.50250Y32.80250
X11.50250Y33.20250
X11.60250Y1.60250
X11.60250Y2.00250
X11.60250Y2.40250
X11.60250Y4.70250
X11.60250Y5.10250
X11.60250Y5.50250
X11.60250Y27.50250
X11.60250Y27.90250
X11.60250Y35.60250
X11.60250Y36.00250
X11.70250Y7.30250
X11.70250Y8.20250
X11.70250Y8.60250
X11.70250Y10.00250
X11.70250Y10.90250
X11.70250Y11.30250
X11.70250Y27.50250
X11.70250Y27.90250
X11.80250Y8.00250
X11.80250Y8.30250
X11.80250Y10.70250
X11.80250Y11.00250
X11.80250Y13.70250
X11.80250Y13.80250
X11.80250Y27.50250
X11.80250Y27.90250
X11.80250Y32.20250
X11.80250Y32.30250
X11.80250Y33.10250
X11.80250Y33.50250
X11.90250Y8.20250
X11.90250Y8.60250
X11.90250Y10.90250
X11.90250Y11.30250
X11.90250Y14.30250
X11.90250Y14.70250
X11.90250Y27.50250
X11.90250Y27.90250
X11.90250Y33.10250
X11.90250Y33.50250
X11.90250Y36.80250
X11.90250Y37.20250
X12.00250Y1.50250
X12.00250Y2.40250
X12.00250Y2.80250
X12.00250Y4.60250
X12.00250Y5.50250
X12.00250Y5.90250
X12.00250Y7.60250
X12.00250Y8.20250
X12.00250Y8.60250
X12.00250Y10.30250
X12.00250Y10.90250
X12.00250Y11.30250
X12.00250Y27.50250
X12.00250Y27.90250
X12.00250Y35.60250
X12.00250Y36.00250
X12.00250Y36.80250
X12.00250Y37.20250
X12.10250Y2.20250
X12.10250Y2.50250
X12.10250Y5.30250
X12.10250Y5.60250
X12.10250Y7.30250
X12.10250Y10.00250
X12.10250Y27.50250
X12.10250Y27.90250
X12.20250Y2.40250
X12.20250Y2.80250
X12.20250Y5.50250
X12.20250Y5.90250
X12.20250Y27.50250
X12.20250Y27.90250
X12.20250Y32.20250
X12.20250Y32.30250
X12.20250Y35.60250
X12.20250Y36.00250
X12.30250Y1.80250
X12.30250Y2.40250
X12.30250Y2.80250
X12.30250Y4.90250
X12.30250Y5.50250
X12.30250Y5.90250
X12.30250Y27.50250
X12.30250Y27.90250
X12.30250Y32.80250
X12.30250Y33.20250
X12.40250Y1.50250
X12.40250Y4.60250
X12.40250Y7.60250
X12.40250Y10.30250
X12.50250Y35.60250
X12.50250Y36.00250
X12.60250Y13.20250
X12.60250Y13.50250
X12.60250Y32.20250
X12.60250Y32.30250
X12.60250Y33.10250
X12.60250Y33.50250
X12.70250Y1.80250
X12.70250Y4.90250
X12.70250Y7.60250
X12.70250Y7.90250
X12.70250Y8.30250
X12.70250Y8.70250
X12.70250Y10.30250
X12.70250Y10.60250
X12.70250Y11.00250
X12.70250Y11.40250
X12.70250Y13.20250
X12.70250Y13.50250
X12.70250Y33.10250
X12.70250Y33.50250
X12.80250Y7.50250
X12.80250Y7.80250
X12.80250Y10.20250
X12.80250Y10.50250
X12.80250Y13.20250
X12.80250Y13.50250
X12.80250Y36.80250
X12.80250Y37.20250
X12.90250Y7.50250
X12.90250Y7.80250
X12.90250Y8.20250
X12.90250Y8.60250
X12.90250Y10.20250
X12.90250Y10.50250
X12.90250Y10.90250
X12.90250Y11.30250
X12.90250Y13.20250
X12.90250Y13.50250
X12.90250Y35.60250
X12.90250Y36.00250
X12.90250Y36.80250
X12.90250Y37.20250
X13.00250Y2.50250
X13.00250Y2.90250
X13.00250Y5.60250
X13.00250Y6.00250
X13.00250Y8.20250
X13.00250Y8.60250
X13.00250Y10.90250
X13.00250Y11.30250
X13.00250Y13.20250
X13.00250Y13.50250
X13.00250Y32.20250
X13.00250Y32.30250
X13.10250Y1.60250
X13.10250Y1.70250
X13.10250Y1.80250
X13.10250Y2.40250
X13.10250Y2.80250
X13.10250Y4.70250
X13.10250Y4.80250
X13.10250Y4.90250
X13.10250Y5.50250
X13.10250Y5.90250
X13.10250Y7.30250
X13.10250Y7.60250
X13.10250Y8.30250
X13.10250Y10.00250
X13.10250Y10.30250
X13.10250Y11.00250
X13.10250Y13.20250
X13.10250Y13.50250
X13.10250Y32.80250
X13.10250Y33.20250
X13.10250Y35.60250
X13.10250Y36.00250
X13.20250Y2.40250
X13.20250Y2.80250
X13.20250Y5.50250
X13.20250Y5.90250
X13.20250Y7.50250
X13.20250Y7.60250
X13.20250Y10.20250
X13.20250Y10.30250
X13.20250Y13.20250
X13.20250Y13.50250
X13.30250Y13.20250
X13.30250Y13.50250
X13.40250Y8.30250
X13.40250Y11.00250
X13.40250Y13.20250
X13.40250Y13.50250
X13.40250Y32.20250
X13.40250Y32.30250
X13.40250Y33.10250
X13.40250Y33.50250
X13.40250Y35.60250
X13.40250Y36.00250
X13.50250Y1.60250
X13.50250Y1.70250
X13.50250Y1.80250
X13.50250Y4.70250
X13.50250Y4.80250
X13.50250Y4.90250
X13.50250Y13.20250
X13.50250Y13.50250
X13.50250Y33.10250
X13.50250Y33.50250
X13.60250Y7.50250
X13.60250Y7.60250
X13.60250Y8.30250
X13.60250Y8.70250
X13.60250Y10.20250
X13.60250Y10.30250
X13.60250Y11.00250
X13.60250Y11.40250
X13.60250Y13.20250
X13.60250Y13.50250
X13.70250Y13.20250
X13.70250Y13.50250
X13.70250Y36.80250
X13.70250Y37.20250
X13.80250Y1.60250
X13.80250Y1.90250
X13.80250Y2.00250
X13.80250Y2.30250
X13.80250Y4.70250
X13.80250Y5.00250
X13.80250Y5.10250
X13.80250Y5.40250
X13.80250Y7.40250
X13.80250Y7.70250
X13.80250Y7.80250
X13.80250Y8.10250
X13.80250Y10.10250
X13.80250Y10.40250
X13.80250Y10.50250
X13.80250Y10.80250
X13.80250Y13.20250
X13.80250Y13.50250
X13.80250Y32.20250
X13.80250Y32.30250
X13.80250Y35.60250
X13.80250Y36.00250
X13.80250Y36.80250
X13.80250Y37.20250
X13.90250Y1.60250
X13.90250Y1.90250
X13.90250Y4.70250
X13.90250Y5.00250
X13.90250Y7.40250
X13.90250Y7.70250
X13.90250Y10.10250
X13.90250Y10.40250
X13.90250Y13.20250
X13.90250Y13.50250
X13.90250Y32.80250
X13.90250Y33.20250
X14.00250Y1.60250
X14.00250Y1.90250
X14.00250Y2.40250
X14.00250Y2.80250
X14.00250Y4.70250
X14.00250Y5.00250
X14.00250Y5.50250
X14.00250Y5.90250
X14.00250Y7.40250
X14.00250Y7.70250
X14.00250Y8.20250
X14.00250Y8.60250
X14.00250Y10.10250
X14.00250Y10.40250
X14.00250Y10.90250
X14.00250Y11.30250
X14.00250Y13.20250
X14.00250Y13.50250
X14.00250Y35.60250
X14.00250Y36.00250
X14.10250Y1.50250
X14.10250Y1.80250
X14.10250Y2.40250
X14.10250Y2.80250
X14.10250Y4.60250
X14.10250Y4.90250
X14.10250Y5.50250
X14.10250Y5.90250
X14.10250Y7.30250
X14.10250Y7.60250
X14.10250Y8.20250
X14.10250Y8.60250
X14.10250Y10.00250
X14.10250Y10.30250
X14.10250Y10.90250
X14.10250Y11.30250
X14.10250Y13.20250
X14.10250Y13.50250
X14.20250Y13.20250
X14.20250Y13.50250
X14.20250Y32.20250
X14.20250Y32.30250
X14.20250Y33.10250
X14.20250Y33.50250
X14.30250Y1.50250
X14.30250Y1.60250
X14.30250Y4.60250
X14.30250Y4.70250
X14.30250Y7.30250
X14.30250Y7.40250
X14.30250Y10.00250
X14.30250Y10.10250
X14.30250Y13.20250
X14.30250Y13.50250
X14.30250Y33.10250
X14.30250Y33.50250
X14.30250Y35.60250
X14.30250Y36.00250
X14.40250Y1.70250
X14.40250Y1.80250
X14.40250Y4.80250
X14.40250Y4.90250
X14.40250Y7.50250
X14.40250Y7.60250
X14.40250Y10.20250
X14.40250Y10.30250
X14.40250Y13.20250
X14.40250Y13.50250
X14.50250Y13.20250
X14.50250Y13.50250
X14.60250Y1.50250
X14.60250Y1.60250
X14.60250Y4.60250
X14.60250Y4.70250
X14.60250Y7.30250
X14.60250Y7.40250
X14.60250Y10.00250
X14.60250Y10.10250
X14.60250Y13.20250
X14.60250Y13.50250
X14.60250Y32.20250
X14.60250Y32.30250
X14.60250Y36.80250
X14.60250Y37.20250
X14.70250Y2.50250
X14.70250Y2.90250
X14.70250Y5.60250
X14.70250Y6.00250
X14.70250Y8.30250
X14.70250Y8.70250
X14.70250Y11.00250
X14.70250Y11.40250
X14.70250Y13.20250
X14.70250Y13.50250
X14.70250Y32.80250
X14.70250Y33.20250
X14.70250Y36.80250
X14.70250Y37.20250
X14.80250Y1.50250
X14.80250Y1.70250
X14.80250Y1.80250
X14.80250Y4.60250
X14.80250Y4.80250
X14.80250Y4.90250
X14.80250Y7.30250
X14.80250Y7.50250
X14.80250Y7.60250
X14.80250Y10.00250
X14.80250Y10.20250
X14.80250Y10.30250
X14.80250Y13.20250
X14.80250Y13.50250
X14.90250Y2.40250
X14.90250Y2.80250
X14.90250Y5.50250
X14.90250Y5.90250
X14.90250Y8.20250
X14.90250Y8.60250
X14.90250Y10.90250
X14.90250Y11.30250
X14.90250Y13.20250
X14.90250Y13.50250
X15.00250Y2.40250
X15.00250Y2.80250
X15.00250Y5.50250
X15.00250Y5.90250
X15.00250Y8.20250
X15.00250Y8.60250
X15.00250Y10.90250
X15.00250Y11.30250
X15.00250Y32.20250
X15.00250Y32.30250
X15.00250Y33.10250
X15.00250Y33.50250
X15.10250Y33.10250
X15.10250Y33.50250
X15.10250Y36.40250
X15.10250Y36.80250
X15.20250Y1.50250
X15.20250Y1.60250
X15.20250Y1.80250
X15.20250Y4.60250
X15.20250Y4.70250
X15.20250Y4.90250
X15.20250Y7.30250
X15.20250Y7.50250
X15.20250Y7.60250
X15.20250Y10.00250
X15.20250Y10.20250
X15.20250Y10.30250
X15.40250Y32.20250
X15.40250Y32.30250
X15.50250Y1.60250
X15.50250Y1.90250
X15.50250Y4.70250
X15.50250Y5.00250
X15.50250Y7.50250
X15.50250Y7.70250
X15.50250Y10.20250
X15.50250Y10.40250
X15.50250Y32.80250
X15.50250Y33.20250
X15.60250Y1.60250
X15.60250Y1.80250
X15.60250Y4.70250
X15.60250Y4.90250
X15.60250Y7.40250
X15.60250Y7.60250
X15.60250Y10.10250
X15.60250Y10.30250
X15.70250Y2.50250
X15.70250Y2.90250
X15.70250Y5.60250
X15.70250Y6.00250
X15.70250Y8.30250
X15.70250Y8.70250
X15.70250Y11.00250
X15.70250Y11.40250
X15.80250Y1.90250
X15.80250Y2.00250
X15.80250Y2.40250
X15.80250Y2.50250
X15.80250Y2.90250
X15.80250Y5.00250
X15.80250Y5.10250
X15.80250Y5.50250
X15.80250Y5.60250
X15.80250Y6.00250
X15.80250Y7.70250
X15.80250Y7.80250
X15.80250Y8.20250
X15.80250Y8.30250
X15.80250Y8.70250
X15.80250Y10.40250
X15.80250Y10.50250
X15.80250Y10.90250
X15.80250Y11.00250
X15.80250Y11.40250
X15.80250Y33.10250
X15.80250Y33.50250
X15.90250Y1.60250
X15.90250Y2.00250
X15.90250Y2.40250
X15.90250Y4.70250
X15.90250Y5.10250
X15.90250Y5.50250
X15.90250Y7.40250
X15.90250Y7.80250
X15.90250Y8.20250
X15.90250Y10.10250
X15.90250Y10.50250
X15.90250Y10.90250
X15.90250Y13.20250
X15.90250Y13.50250
X15.90250Y13.60250
X15.90250Y13.90250
X15.90250Y14.60250
X15.90250Y15.00250
X15.90250Y33.10250
X15.90250Y33.50250
X16.00250Y13.20250
X16.00250Y13.50250
X16.00250Y14.60250
X16.00250Y15.00250
X16.00250Y32.00250
X16.00250Y32.40250
X16.10250Y13.50250
X16.10250Y13.90250
X16.10250Y32.00250
X16.10250Y32.40250
X16.20250Y13.50250
X16.20250Y13.90250
X16.30250Y1.50250
X16.30250Y2.40250
X16.30250Y2.80250
X16.30250Y4.60250
X16.30250Y5.50250
X16.30250Y5.90250
X16.30250Y7.30250
X16.30250Y8.20250
X16.30250Y8.60250
X16.30250Y10.00250
X16.30250Y10.90250
X16.30250Y11.30250
X16.40250Y2.20250
X16.40250Y2.50250
X16.40250Y5.30250
X16.40250Y5.60250
X16.40250Y8.00250
X16.40250Y8.30250
X16.40250Y10.70250
X16.40250Y11.00250
X16.40250Y32.00250
X16.40250Y32.40250
X16.50250Y2.40250
X16.50250Y2.80250
X16.50250Y5.50250
X16.50250Y5.90250
X16.50250Y8.20250
X16.50250Y8.60250
X16.50250Y10.90250
X16.50250Y11.30250
X16.50250Y13.50250
X16.50250Y13.90250
X16.60250Y1.80250
X16.60250Y2.40250
X16.60250Y2.80250
X16.60250Y4.90250
X16.60250Y5.50250
X16.60250Y5.90250
X16.60250Y7.60250
X16.60250Y8.20250
X16.60250Y8.60250
X16.60250Y10.30250
X16.60250Y10.90250
X16.60250Y11.30250
X16.60250Y13.50250
X16.60250Y13.80250
X16.70250Y1.50250
X16.70250Y4.60250
X16.70250Y7.30250
X16.70250Y10.00250
X16.70250Y13.30250
X16.70250Y13.60250
X16.70250Y33.10250
X16.70250Y33.50250
X16.80250Y13.20250
X16.80250Y13.50250
X16.80250Y14.60250
X16.80250Y15.00250
X16.80250Y33.10250
X16.80250Y33.50250
X16.90250Y13.20250
X16.90250Y13.50250
X16.90250Y14.60250
X16.90250Y15.00250
X16.90250Y32.00250
X16.90250Y32.40250
X17.00250Y1.80250
X17.00250Y4.90250
X17.00250Y7.60250
X17.00250Y10.30250
X17.00250Y13.50250
X17.00250Y13.90250
X17.00250Y32.00250
X17.00250Y32.40250
X17.10250Y13.50250
X17.10250Y13.90250
X17.30250Y2.50250
X17.30250Y2.90250
X17.30250Y5.60250
X17.30250Y6.00250
X17.30250Y7.60250
X17.30250Y7.90250
X17.30250Y8.30250
X17.30250Y8.70250
X17.30250Y10.30250
X17.30250Y10.60250
X17.30250Y11.00250
X17.30250Y11.40250
X17.30250Y32.00250
X17.30250Y32.40250
X17.40250Y1.60250
X17.40250Y1.70250
X17.40250Y1.80250
X17.40250Y2.40250
X17.40250Y2.80250
X17.40250Y4.70250
X17.40250Y4.80250
X17.40250Y4.90250
X17.40250Y5.50250
X17.40250Y5.90250
X17.40250Y7.50250
X17.40250Y7.80250
X17.40250Y10.20250
X17.40250Y10.50250
X17.40250Y13.50250
X17.40250Y13.90250
X17.50250Y2.40250
X17.50250Y2.80250
X17.50250Y5.50250
X17.50250Y5.90250
X17.50250Y7.50250
X17.50250Y7.80250
X17.50250Y8.20250
X17.50250Y8.60250
X17.50250Y10.20250
X17.50250Y10.50250
X17.50250Y10.90250
X17.50250Y11.30250
X17.50250Y13.50250
X17.50250Y13.80250
X17.60250Y8.20250
X17.60250Y8.60250
X17.60250Y10.90250
X17.60250Y11.30250
X17.60250Y13.30250
X17.60250Y13.60250
X17.60250Y33.10250
X17.60250Y33.50250
X17.70250Y7.30250
X17.70250Y7.60250
X17.70250Y8.30250
X17.70250Y10.00250
X17.70250Y10.30250
X17.70250Y11.00250
X17.70250Y13.20250
X17.70250Y13.50250
X17.70250Y14.60250
X17.70250Y15.00250
X17.70250Y33.10250
X17.70250Y33.50250
X17.80250Y1.60250
X17.80250Y1.70250
X17.80250Y1.80250
X17.80250Y4.70250
X17.80250Y4.80250
X17.80250Y4.90250
X17.80250Y7.50250
X17.80250Y7.60250
X17.80250Y10.20250
X17.80250Y10.30250
X17.80250Y13.20250
X17.80250Y13.50250
X17.80250Y14.60250
X17.80250Y15.00250
X17.80250Y32.00250
X17.80250Y32.40250
X17.90250Y13.50250
X17.90250Y13.90250
X17.90250Y32.00250
X17.90250Y32.40250
X18.00250Y8.30250
X18.00250Y11.00250
X18.00250Y13.50250
X18.00250Y13.90250
X18.10250Y1.60250
X18.10250Y1.90250
X18.10250Y2.00250
X18.10250Y2.30250
X18.10250Y4.70250
X18.10250Y5.00250
X18.10250Y5.10250
X18.10250Y5.40250
X18.20250Y1.60250
X18.20250Y1.90250
X18.20250Y4.70250
X18.20250Y5.00250
X18.20250Y7.50250
X18.20250Y7.60250
X18.20250Y8.30250
X18.20250Y8.70250
X18.20250Y10.20250
X18.20250Y10.30250
X18.20250Y11.00250
X18.20250Y11.40250
X18.20250Y32.00250
X18.20250Y32.40250
X18.30250Y1.60250
X18.30250Y1.90250
X18.30250Y2.40250
X18.30250Y2.80250
X18.30250Y4.70250
X18.30250Y5.00250
X18.30250Y5.50250
X18.30250Y5.90250
X18.30250Y13.50250
X18.30250Y13.90250
X18.40250Y1.50250
X18.40250Y1.80250
X18.40250Y2.40250
X18.40250Y2.80250
X18.40250Y4.60250
X18.40250Y4.90250
X18.40250Y5.50250
X18.40250Y5.90250
X18.40250Y7.40250
X18.40250Y7.70250
X18.40250Y7.80250
X18.40250Y8.10250
X18.40250Y10.10250
X18.40250Y10.40250
X18.40250Y10.50250
X18.40250Y10.80250
X18.40250Y13.50250
X18.40250Y13.80250
X18.50250Y7.40250
X18.50250Y7.70250
X18.50250Y10.10250
X18.50250Y10.40250
X18.50250Y13.30250
X18.50250Y13.60250
X18.50250Y33.10250
X18.50250Y33.50250
X18.60250Y1.50250
X18.60250Y1.60250
X18.60250Y4.60250
X18.60250Y4.70250
X18.60250Y7.40250
X18.60250Y7.70250
X18.60250Y8.20250
X18.60250Y8.60250
X18.60250Y10.10250
X18.60250Y10.40250
X18.60250Y10.90250
X18.60250Y11.30250
X18.60250Y13.20250
X18.60250Y13.50250
X18.60250Y14.60250
X18.60250Y15.00250
X18.60250Y33.10250
X18.60250Y33.50250
X18.70250Y1.70250
X18.70250Y1.80250
X18.70250Y4.80250
X18.70250Y4.90250
X18.70250Y7.30250
X18.70250Y7.60250
X18.70250Y8.20250
X18.70250Y8.60250
X18.70250Y10.00250
X18.70250Y10.30250
X18.70250Y10.90250
X18.70250Y11.30250
X18.70250Y13.20250
X18.70250Y13.50250
X18.70250Y14.60250
X18.70250Y15.00250
X18.70250Y32.00250
X18.70250Y32.40250
X18.80250Y13.50250
X18.80250Y13.90250
X18.80250Y32.00250
X18.80250Y32.40250
X18.90250Y1.50250
X18.90250Y1.60250
X18.90250Y4.60250
X18.90250Y4.70250
X18.90250Y7.30250
X18.90250Y7.40250
X18.90250Y10.00250
X18.90250Y10.10250
X18.90250Y13.50250
X18.90250Y13.90250
X19.00250Y2.50250
X19.00250Y2.90250
X19.00250Y5.60250
X19.00250Y6.00250
X19.00250Y7.50250
X19.00250Y7.60250
X19.00250Y10.20250
X19.00250Y10.30250
X19.00250Y36.30250
X19.00250Y36.40250
X19.10250Y1.50250
X19.10250Y1.70250
X19.10250Y1.80250
X19.10250Y4.60250
X19.10250Y4.80250
X19.10250Y4.90250
X19.10250Y32.00250
X19.10250Y32.40250
X19.20250Y2.40250
X19.20250Y2.80250
X19.20250Y5.50250
X19.20250Y5.90250
X19.20250Y7.30250
X19.20250Y7.40250
X19.20250Y10.00250
X19.20250Y10.10250
X19.20250Y13.50250
X19.20250Y13.90250
X19.30250Y2.40250
X19.30250Y2.80250
X19.30250Y5.50250
X19.30250Y5.90250
X19.30250Y8.30250
X19.30250Y8.70250
X19.30250Y11.00250
X19.30250Y11.40250
X19.30250Y13.50250
X19.30250Y13.80250
X19.40250Y7.30250
X19.40250Y7.50250
X19.40250Y7.60250
X19.40250Y10.00250
X19.40250Y10.20250
X19.40250Y10.30250
X19.40250Y13.30250
X19.40250Y13.60250
X19.40250Y33.10250
X19.40250Y33.50250
X19.40250Y36.30250
X19.40250Y36.40250
X19.50250Y1.50250
X19.50250Y1.60250
X19.50250Y1.80250
X19.50250Y4.60250
X19.50250Y4.70250
X19.50250Y4.90250
X19.50250Y8.20250
X19.50250Y8.60250
X19.50250Y10.90250
X19.50250Y11.30250
X19.50250Y13.20250
X19.50250Y13.50250
X19.50250Y14.60250
X19.50250Y15.00250
X19.50250Y33.10250
X19.50250Y33.50250
X19.60250Y8.20250
X19.60250Y8.60250
X19.60250Y10.90250
X19.60250Y11.30250
X19.60250Y13.20250
X19.60250Y13.50250
X19.60250Y14.60250
X19.60250Y15.00250
X19.60250Y32.00250
X19.60250Y32.40250
X19.70250Y13.50250
X19.70250Y13.90250
X19.70250Y32.00250
X19.70250Y32.40250
X19.80250Y1.60250
X19.80250Y1.90250
X19.80250Y4.70250
X19.80250Y5.00250
X19.80250Y7.30250
X19.80250Y7.50250
X19.80250Y7.60250
X19.80250Y10.00250
X19.80250Y10.20250
X19.80250Y10.30250
X19.80250Y13.50250
X19.80250Y13.90250
X19.90250Y1.60250
X19.90250Y1.80250
X19.90250Y4.70250
X19.90250Y4.90250
X20.00250Y2.50250
X20.00250Y2.90250
X20.00250Y5.60250
X20.00250Y6.00250
X20.00250Y32.00250
X20.00250Y32.40250
X20.10250Y1.90250
X20.10250Y2.00250
X20.10250Y2.40250
X20.10250Y2.50250
X20.10250Y2.90250
X20.10250Y5.00250
X20.10250Y5.10250
X20.10250Y5.50250
X20.10250Y5.60250
X20.10250Y6.00250
X20.10250Y7.50250
X20.10250Y7.70250
X20.10250Y10.20250
X20.10250Y10.40250
X20.10250Y13.50250
X20.10250Y13.90250
X20.20250Y1.60250
X20.20250Y2.00250
X20.20250Y2.40250
X20.20250Y4.70250
X20.20250Y5.10250
X20.20250Y5.50250
X20.20250Y7.40250
X20.20250Y7.60250
X20.20250Y10.10250
X20.20250Y10.30250
X20.20250Y13.50250
X20.20250Y13.80250
X20.30250Y8.30250
X20.30250Y8.70250
X20.30250Y11.00250
X20.30250Y11.40250
X20.30250Y13.30250
X20.30250Y13.60250
X20.30250Y33.10250
X20.30250Y33.50250
X20.40250Y7.70250
X20.40250Y7.80250
X20.40250Y8.20250
X20.40250Y8.30250
X20.40250Y8.70250
X20.40250Y10.40250
X20.40250Y10.50250
X20.40250Y10.90250
X20.40250Y11.00250
X20.40250Y11.40250
X20.40250Y13.20250
X20.40250Y13.50250
X20.40250Y14.60250
X20.40250Y15.00250
X20.40250Y33.10250
X20.40250Y33.50250
X20.50250Y7.40250
X20.50250Y7.80250
X20.50250Y8.20250
X20.50250Y10.10250
X20.50250Y10.50250
X20.50250Y10.90250
X20.50250Y13.20250
X20.50250Y13.50250
X20.50250Y14.60250
X20.50250Y15.00250
X20.50250Y32.00250
X20.50250Y32.40250
X20.60250Y1.50250
X20.60250Y2.40250
X20.60250Y2.80250
X20.60250Y4.60250
X20.60250Y5.50250
X20.60250Y5.90250
X20.60250Y13.50250
X20.60250Y13.90250
X20.60250Y32.00250
X20.60250Y32.40250
X20.70250Y2.20250
X20.70250Y2.50250
X20.70250Y5.30250
X20.70250Y5.60250
X20.70250Y13.50250
X20.70250Y13.90250
X20.70250Y28.90250
X20.70250Y29.30250
X20.80250Y2.40250
X20.80250Y2.80250
X20.80250Y5.50250
X20.80250Y5.90250
X20.80250Y28.90250
X20.80250Y29.30250
X20.90250Y1.80250
X20.90250Y2.40250
X20.90250Y2.80250
X20.90250Y4.90250
X20.90250Y5.50250
X20.90250Y5.90250
X20.90250Y7.30250
X20.90250Y8.20250
X20.90250Y8.60250
X20.90250Y10.00250
X20.90250Y10.90250
X20.90250Y11.30250
X20.90250Y28.90250
X20.90250Y29.30250
X20.90250Y32.00250
X20.90250Y32.40250
X21.00250Y1.50250
X21.00250Y4.60250
X21.00250Y8.00250
X21.00250Y8.30250
X21.00250Y10.70250
X21.00250Y11.00250
X21.00250Y13.50250
X21.00250Y13.90250
X21.00250Y28.90250
X21.00250Y29.30250
X21.10250Y8.20250
X21.10250Y8.60250
X21.10250Y10.90250
X21.10250Y11.30250
X21.10250Y13.50250
X21.10250Y13.80250
X21.20250Y7.60250
X21.20250Y8.20250
X21.20250Y8.60250
X21.20250Y10.30250
X21.20250Y10.90250
X21.20250Y11.30250
X21.20250Y13.30250
X21.20250Y13.60250
X21.20250Y33.10250
X21.20250Y33.50250
X21.30250Y1.80250
X21.30250Y4.90250
X21.30250Y7.30250
X21.30250Y10.00250
X21.30250Y13.20250
X21.30250Y13.50250
X21.30250Y14.60250
X21.30250Y15.00250
X21.30250Y33.10250
X21.30250Y33.50250
X21.40250Y13.20250
X21.40250Y13.50250
X21.40250Y14.60250
X21.40250Y15.00250
X21.40250Y27.10250
X21.40250Y27.50250
X21.40250Y32.00250
X21.40250Y32.40250
X21.50250Y13.50250
X21.50250Y13.90250
X21.50250Y32.00250
X21.50250Y32.40250
X21.60250Y2.50250
X21.60250Y2.90250
X21.60250Y5.60250
X21.60250Y6.00250
X21.60250Y7.60250
X21.60250Y10.30250
X21.60250Y13.50250
X21.60250Y13.90250
X21.60250Y27.10250
X21.60250Y27.50250
X21.70250Y1.60250
X21.70250Y1.70250
X21.70250Y1.80250
X21.70250Y2.40250
X21.70250Y2.80250
X21.70250Y4.70250
X21.70250Y4.80250
X21.70250Y4.90250
X21.70250Y5.50250
X21.70250Y5.90250
X21.80250Y2.40250
X21.80250Y2.80250
X21.80250Y5.50250
X21.80250Y5.90250
X21.80250Y32.00250
X21.80250Y32.40250
X21.90250Y7.60250
X21.90250Y7.90250
X21.90250Y8.30250
X21.90250Y8.70250
X21.90250Y10.30250
X21.90250Y10.60250
X21.90250Y11.00250
X21.90250Y11.40250
X21.90250Y13.50250
X21.90250Y13.90250
X22.00250Y7.50250
X22.00250Y7.80250
X22.00250Y10.20250
X22.00250Y10.50250
X22.00250Y13.50250
X22.00250Y13.80250
X22.10250Y1.60250
X22.10250Y1.70250
X22.10250Y1.80250
X22.10250Y4.70250
X22.10250Y4.80250
X22.10250Y4.90250
X22.10250Y7.50250
X22.10250Y7.80250
X22.10250Y8.20250
X22.10250Y8.60250
X22.10250Y10.20250
X22.10250Y10.50250
X22.10250Y10.90250
X22.10250Y11.30250
X22.10250Y13.30250
X22.10250Y13.60250
X22.10250Y33.10250
X22.10250Y33.50250
X22.20250Y8.20250
X22.20250Y8.60250
X22.20250Y10.90250
X22.20250Y11.30250
X22.20250Y13.60250
X22.20250Y13.90250
X22.20250Y14.60250
X22.20250Y15.00250
X22.20250Y33.10250
X22.20250Y33.50250
X22.30250Y7.30250
X22.30250Y7.60250
X22.30250Y8.30250
X22.30250Y10.00250
X22.30250Y10.30250
X22.30250Y11.00250
X22.30250Y13.60250
X22.30250Y13.90250
X22.30250Y14.60250
X22.30250Y15.00250
X22.30250Y26.90250
X22.30250Y27.30250
X22.30250Y32.00250
X22.30250Y32.40250
X22.40250Y7.50250
X22.40250Y7.60250
X22.40250Y10.20250
X22.40250Y10.30250
X22.40250Y13.50250
X22.40250Y13.90250
X22.40250Y27.10250
X22.40250Y27.50250
X22.40250Y32.00250
X22.40250Y32.40250
X22.50250Y13.50250
X22.50250Y13.90250
X22.60250Y8.30250
X22.60250Y11.00250
X22.70250Y32.00250
X22.70250Y32.40250
X22.80250Y7.50250
X22.80250Y7.60250
X22.80250Y8.30250
X22.80250Y8.70250
X22.80250Y10.20250
X22.80250Y10.30250
X22.80250Y11.00250
X22.80250Y11.40250
X22.80250Y13.50250
X22.80250Y13.90250
X22.90250Y13.50250
X22.90250Y13.80250
X23.50250Y17.50250
X23.50250Y17.90250
X23.60250Y7.40250
X23.60250Y7.50250
X23.60250Y7.60250
X23.60250Y8.20250
X23.60250Y8.60250
X23.60250Y10.10250
X23.60250Y10.20250
X23.60250Y10.30250
X23.60250Y10.90250
X23.60250Y11.30250
X23.60250Y15.90250
X23.60250Y16.00250
X23.60250Y16.80250
X23.60250Y17.20250
X23.60250Y18.30250
X23.60250Y18.40250
X23.70250Y8.20250
X23.70250Y8.60250
X23.70250Y10.90250
X23.70250Y11.30250
X23.70250Y16.80250
X23.70250Y17.20250
X23.90250Y17.20250
X23.90250Y17.60250
X24.00250Y7.40250
X24.00250Y7.50250
X24.00250Y7.60250
X24.00250Y10.10250
X24.00250Y10.20250
X24.00250Y10.30250
X24.00250Y15.90250
X24.00250Y16.00250
X24.00250Y17.20250
X24.00250Y17.60250
X24.00250Y18.30250
X24.00250Y18.40250
X24.10250Y16.50250
X24.10250Y16.90250
T003
X0.20250Y0.20015
X0.20250Y2.80250
X0.20250Y5.90250
X0.20250Y6.00015
X0.20250Y6.40015
X0.20250Y8.60250
X0.20250Y11.30250
X0.20250Y11.40015
X0.20250Y11.80250
X0.20250Y14.80250
X0.20250Y15.10250
X0.20250Y15.60250
X0.20250Y16.60250
X0.20250Y16.70250
X0.20250Y16.80250
X0.20250Y23.50250
X0.20250Y24.00250
X0.20250Y28.90250
X0.20250Y29.00250
X0.20250Y29.10250
X0.20250Y32.00250
X0.20250Y32.50250
X0.20250Y33.60250
X0.20250Y36.90250
X0.20250Y37.40250
X0.30250Y0.20015
X0.30250Y6.00015
X0.30250Y6.40015
X0.30250Y11.40015
X0.30250Y11.80250
X0.30250Y15.10250
X0.30250Y15.60250
X0.30250Y23.50250
X0.30250Y24.00250
X0.30250Y32.00250
X0.30250Y32.50250
X0.30250Y37.40250
X0.40250Y0.20015
X0.40250Y1.60250
X0.40250Y2.70250
X0.40250Y5.80250
X0.40250Y6.00015
X0.40250Y6.40015
X0.40250Y8.50250
X0.40250Y11.20250
X0.40250Y11.40015
X0.40250Y11.80250
X0.40250Y14.70250
X0.40250Y15.10250
X0.40250Y15.60250
X0.40250Y16.20250
X0.40250Y16.30250
X0.40250Y16.40250
X0.40250Y23.50250
X0.40250Y24.00250
X0.40250Y28.50250
X0.40250Y28.60250
X0.40250Y28.70250
X0.40250Y31.10250
X0.40250Y32.00250
X0.40250Y32.50250
X0.40250Y33.50250
X0.40250Y37.00250
X0.40250Y37.10250
X0.40250Y37.40250
X0.50250Y0.20015
X0.50250Y6.00015
X0.50250Y6.40015
X0.50250Y11.40015
X0.50250Y11.80250
X0.50250Y15.10250
X0.50250Y15.60250
X0.50250Y23.50250
X0.50250Y24.00250
X0.50250Y32.00250
X0.50250Y32.50250
X0.50250Y37.40250
X0.60250Y0.20015
X0.60250Y1.70250
X0.60250Y2.60250
X0.60250Y5.70250
X0.60250Y6.00015
X0.60250Y6.40015
X0.60250Y8.40250
X0.60250Y11.10250
X0.60250Y11.40015
X0.60250Y11.80250
X0.60250Y14.60250
X0.60250Y15.10250
X0.60250Y15.60250
X0.60250Y15.80250
X0.60250Y15.90250
X0.60250Y16.00250
X0.60250Y23.50250
X0.60250Y24.00250
X0.60250Y28.10250
X0.60250Y28.20250
X0.60250Y28.30250
X0.60250Y31.20250
X0.60250Y32.00250
X0.60250Y32.50250
X0.60250Y33.40250
X0.60250Y37.20250
X0.60250Y37.30250
X0.60250Y37.40250
X0.70250Y0.20015
X0.70250Y6.00015
X0.70250Y6.40015
X0.70250Y11.40015
X0.70250Y11.80250
X0.70250Y15.10250
X0.70250Y15.60250
X0.70250Y23.50250
X0.70250Y24.00250
X0.70250Y32.00250
X0.70250Y32.50250
X0.70250Y37.40250
X0.80250Y0.20015
X0.80250Y6.00015
X0.80250Y6.40015
X0.80250Y11.40015
X0.80250Y11.80485
X0.80250Y13.10250
X0.80250Y15.10250
X0.80250Y15.60485
X0.80250Y23.50250
X0.80250Y24.00485
X0.80250Y32.00250
X0.80250Y32.50250
X0.80250Y33.30250
X0.80250Y37.40485
X0.90250Y0.20015
X0.90250Y6.00015
X0.90250Y6.40015
X0.90250Y11.40015
X0.90250Y11.80485
X0.90250Y13.20250
X0.90250Y15.10250
X0.90250Y15.60485
X0.90250Y23.50250
X0.90250Y24.00485
X0.90250Y32.00250
X0.90250Y32.50250
X0.90250Y33.20250
X0.90250Y37.40485
X1.00250Y0.20015
X1.00250Y6.00015
X1.00250Y6.40015
X1.00250Y11.40015
X1.00250Y11.80485
X1.00250Y13.30250
X1.00250Y15.10250
X1.00250Y15.60485
X1.00250Y23.50250
X1.00250Y24.00485
X1.00250Y32.00250
X1.00250Y32.50250
X1.00250Y33.10250
X1.00250Y37.40485
X1.10250Y0.20015
X1.10250Y6.00015
X1.10250Y6.40015
X1.10250Y11.40015
X1.10250Y11.80485
X1.10250Y15.10250
X1.10250Y15.60485
X1.10250Y23.50250
X1.10250Y24.00485
X1.10250Y32.00250
X1.10250Y32.50250
X1.10250Y33.00250
X1.10250Y37.40485
X1.20250Y0.20250
X1.20250Y6.00250
X1.20250Y6.40250
X1.20250Y9.70250
X1.20250Y9.80250
X1.20250Y11.40250
X1.20250Y11.80485
X1.20250Y12.50250
X1.20250Y12.60250
X1.20250Y12.70250
X1.20250Y12.80250
X1.20250Y12.90250
X1.20250Y13.00250
X1.20250Y13.10250
X1.20250Y13.20250
X1.20250Y13.30250
X1.20250Y14.60250
X1.20250Y14.70250
X1.20250Y14.80250
X1.20250Y15.60250
X1.20250Y23.50250
X1.20250Y24.00250
X1.20250Y32.00250
X1.20250Y32.50250
X1.20250Y37.40250
X1.30250Y0.20250
X1.30250Y6.00250
X1.30250Y6.40250
X1.30250Y11.40250
X1.30250Y11.80485
X1.30250Y15.80250
X1.30250Y15.90250
X1.30250Y16.00250
X1.30250Y16.20250
X1.30250Y16.30250
X1.30250Y16.40250
X1.30250Y16.60250
X1.30250Y16.70250
X1.30250Y16.80250
X1.30250Y28.10250
X1.30250Y28.20250
X1.30250Y28.30250
X1.30250Y28.50250
X1.30250Y28.60250
X1.30250Y28.70250
X1.30250Y28.90250
X1.30250Y29.00250
X1.30250Y29.10250
X1.30250Y31.10250
X1.30250Y31.20250
X1.30250Y37.40250
X1.40250Y1.60250
X1.40250Y1.70250
X1.40250Y2.60250
X1.40250Y2.70250
X1.40250Y2.80250
X1.40250Y5.70250
X1.40250Y5.80250
X1.40250Y5.90250
X1.40250Y9.70250
X1.40250Y9.80250
X1.40250Y11.10250
X1.40250Y11.20250
X1.40250Y11.30250
X1.40250Y37.40250
X1.50250Y0.30250
X1.50250Y1.30250
X1.50250Y8.40250
X1.50250Y8.50250
X1.50250Y8.60250
X1.50250Y37.40250
X1.60250Y2.40250
X1.60250Y2.90250
X1.60250Y37.40250
X1.70250Y0.30250
X1.70250Y1.30250
X1.70250Y2.40250
X1.70250Y2.90250
X1.70250Y33.00250
X1.70250Y33.10250
X1.70250Y33.20250
X1.70250Y33.30250
X1.70250Y33.40250
X1.70250Y33.50250
X1.70250Y33.60250
X1.70250Y36.90250
X1.70250Y37.00250
X1.70250Y37.10250
X1.70250Y37.20250
X1.70250Y37.30250
X1.80250Y2.40250
X1.80250Y2.90250
X1.80250Y15.80250
X1.80250Y15.90250
X1.80250Y16.00250
X1.80250Y16.20250
X1.80250Y16.30250
X1.80250Y16.40250
X1.80250Y16.60250
X1.80250Y16.70250
X1.80250Y16.80250
X1.80250Y28.10250
X1.80250Y28.20250
X1.80250Y28.30250
X1.80250Y28.50250
X1.80250Y28.60250
X1.80250Y28.70250
X1.80250Y28.90250
X1.80250Y29.00250
X1.80250Y29.10250
X1.80250Y31.10250
X1.80250Y31.20250
X1.80250Y32.50250
X1.80250Y32.60250
X1.80250Y32.70250
X1.80250Y32.80250
X1.80250Y32.90250
X1.80250Y33.00250
X1.80250Y33.10250
X1.80250Y33.20250
X1.80250Y33.30250
X1.80250Y33.40250
X1.80250Y33.50250
X1.80250Y33.60250
X1.80250Y36.90250
X1.80250Y37.00250
X1.80250Y37.10250
X1.80250Y37.20250
X1.80250Y37.30250
X1.90250Y2.40250
X1.90250Y2.90250
X2.00250Y0.70250
X2.00250Y5.40250
X2.10250Y0.40250
X2.10250Y0.70250
X2.10250Y11.00250
X2.10250Y11.30250
X2.20250Y0.40250
X2.20250Y0.70250
X2.30250Y0.40250
X2.30250Y0.70250
X2.30250Y11.00250
X2.30250Y13.00250
X2.30250Y13.50250
X2.30250Y15.80250
X2.30250Y15.90250
X2.30250Y16.00250
X2.30250Y16.20250
X2.30250Y16.30250
X2.30250Y16.40250
X2.30250Y16.60250
X2.30250Y16.70250
X2.30250Y16.80250
X2.30250Y28.10250
X2.30250Y28.20250
X2.30250Y28.30250
X2.30250Y28.50250
X2.30250Y28.60250
X2.30250Y28.70250
X2.30250Y28.90250
X2.30250Y29.00250
X2.30250Y29.10250
X2.30250Y31.10250
X2.30250Y31.10250
X2.30250Y31.20250
X2.30250Y31.20250
X2.30250Y32.50250
X2.30250Y32.60250
X2.30250Y32.70250
X2.30250Y32.80250
X2.30250Y32.90250
X2.30250Y33.00250
X2.30250Y33.10250
X2.30250Y33.20250
X2.30250Y33.30250
X2.30250Y33.40250
X2.30250Y33.50250
X2.30250Y33.60250
X2.30250Y36.90250
X2.30250Y37.00250
X2.30250Y37.10250
X2.30250Y37.20250
X2.30250Y37.30250
X2.40250Y0.40250
X2.40250Y0.70250
X2.40250Y14.80250
X2.40250Y15.00250
X2.40250Y36.90250
X2.40250Y37.40250
X2.50250Y5.40250
X2.60250Y9.70250
X2.60250Y11.00250
X2.60250Y14.80250
X2.70250Y28.50250
X2.70250Y28.70250
X2.80250Y0.70250
X2.80250Y5.40250
X2.90250Y0.40250
X2.90250Y0.70250
X2.90250Y9.70250
X2.90250Y14.80250
X3.00250Y0.40250
X3.00250Y0.70250
X3.10250Y0.40250
X3.10250Y0.70250
X3.20250Y0.40250
X3.20250Y0.70250
X3.20250Y14.70250
X3.30250Y5.40250
X3.40250Y14.80250
X3.50250Y14.90250
X3.50250Y15.00250
X3.50250Y32.40250
X3.50250Y33.40250
X3.70250Y14.70250
X3.70250Y14.80250
X3.70250Y14.90250
X3.70250Y15.00250
X3.90250Y0.20250
X3.90250Y0.30250
X3.90250Y0.40250
X3.90250Y0.50250
X3.90250Y0.60250
X3.90250Y0.70250
X3.90250Y0.80250
X3.90250Y0.90250
X3.90250Y1.00250
X3.90250Y1.10250
X3.90250Y1.20250
X3.90250Y1.30250
X3.90250Y1.40250
X3.90250Y2.60250
X3.90250Y2.70250
X3.90250Y2.80250
X3.90250Y3.30250
X3.90250Y3.40250
X3.90250Y3.50250
X3.90250Y3.60250
X3.90250Y3.70250
X3.90250Y3.80250
X3.90250Y3.90250
X3.90250Y4.00250
X3.90250Y4.10250
X3.90250Y4.20250
X3.90250Y4.30250
X3.90250Y4.40250
X3.90250Y4.50250
X3.90250Y5.70250
X3.90250Y5.80250
X3.90250Y5.90250
X3.90250Y6.40250
X3.90250Y6.50250
X3.90250Y6.60250
X3.90250Y6.70250
X3.90250Y6.80250
X3.90250Y6.90250
X3.90250Y7.00250
X3.90250Y7.10250
X3.90250Y7.20250
X3.90250Y8.40250
X3.90250Y8.50250
X3.90250Y8.60250
X3.90250Y9.10250
X3.90250Y9.20250
X3.90250Y9.30250
X3.90250Y9.40250
X3.90250Y9.50250
X3.90250Y9.60250
X3.90250Y9.70250
X3.90250Y9.80250
X3.90250Y9.90250
X3.90250Y11.10250
X3.90250Y11.20250
X3.90250Y11.30250
X3.90250Y24.50250
X3.90250Y25.50250
X4.00250Y12.90250
X4.00250Y13.40250
X4.20250Y32.50250
X4.20250Y33.50250
X4.30250Y14.80250
X4.40250Y0.20250
X4.40250Y0.30250
X4.40250Y0.40250
X4.40250Y0.50250
X4.40250Y0.60250
X4.40250Y0.70250
X4.40250Y0.80250
X4.40250Y0.90250
X4.40250Y1.00250
X4.40250Y1.10250
X4.40250Y1.20250
X4.40250Y1.30250
X4.40250Y1.40250
X4.40250Y2.60250
X4.40250Y2.70250
X4.40250Y2.80250
X4.40250Y3.30250
X4.40250Y3.40250
X4.40250Y3.50250
X4.40250Y3.60250
X4.40250Y3.70250
X4.40250Y3.80250
X4.40250Y3.90250
X4.40250Y4.00250
X4.40250Y4.10250
X4.40250Y4.20250
X4.40250Y4.30250
X4.40250Y4.40250
X4.40250Y4.50250
X4.40250Y5.70250
X4.40250Y5.80250
X4.40250Y5.90250
X4.40250Y6.40250
X4.40250Y6.50250
X4.40250Y6.60250
X4.40250Y6.70250
X4.40250Y6.80250
X4.40250Y6.90250
X4.40250Y7.00250
X4.40250Y7.10250
X4.40250Y7.20250
X4.40250Y8.40250
X4.40250Y8.50250
X4.40250Y8.60250
X4.40250Y9.10250
X4.40250Y9.20250
X4.40250Y9.30250
X4.40250Y9.40250
X4.40250Y9.50250
X4.40250Y9.60250
X4.40250Y9.70250
X4.40250Y9.80250
X4.40250Y9.90250
X4.40250Y11.10250
X4.40250Y11.20250
X4.40250Y11.30250
X4.50250Y25.90250
X4.50250Y26.40250
X4.60250Y7.00250
X4.60250Y7.30250
X4.60250Y9.70250
X4.60250Y10.00250
X4.60250Y14.80250
X4.60250Y25.90250
X4.60250Y26.40250
X4.70250Y6.90250
X4.70250Y7.30250
X4.70250Y9.60250
X4.70250Y10.00250
X4.70250Y25.90250
X4.70250Y26.40250
X4.80093Y18.82848
X4.80093Y19.08439
X4.80250Y6.50250
X4.80250Y7.30250
X4.80250Y9.20250
X4.80250Y10.00250
X4.80250Y12.80250
X4.80250Y13.40250
X4.80250Y18.20250
X4.80250Y18.30250
X4.80250Y25.90250
X4.80250Y26.40250
X4.80250Y30.30250
X4.80250Y30.80250
X4.90250Y18.20250
X4.90250Y18.30250
X4.90250Y20.30250
X4.90250Y21.00250
X4.90250Y30.30250
X4.90250Y30.80250
X4.90250Y32.40250
X4.90250Y33.40250
X5.00250Y8.30250
X5.00250Y8.50250
X5.00250Y11.00250
X5.00250Y11.20250
X5.00250Y18.20250
X5.00250Y18.30250
X5.00250Y24.60250
X5.00250Y25.60250
X5.00250Y32.50250
X5.00250Y33.60250
X5.10250Y18.20250
X5.10250Y18.30250
X5.10250Y20.30250
X5.10250Y21.00250
X5.20250Y1.20250
X5.20250Y1.50250
X5.20250Y4.30250
X5.20250Y4.60250
X5.20250Y8.50250
X5.20250Y11.20250
X5.20250Y18.20250
X5.20250Y18.30250
X5.20250Y24.70250
X5.20250Y29.40250
X5.20250Y30.30250
X5.20250Y30.80250
X5.20250Y32.40250
X5.20250Y33.30250
X5.30250Y1.10250
X5.30250Y1.50250
X5.30250Y4.20250
X5.30250Y4.60250
X5.30250Y8.30250
X5.30250Y11.00250
X5.30250Y18.20250
X5.30250Y18.30250
X5.30250Y24.40250
X5.30250Y24.70250
X5.30250Y30.30250
X5.30250Y30.80250
X5.30250Y32.40250
X5.30250Y33.20250
X5.37179Y18.82848
X5.37179Y19.08439
X5.40250Y0.70250
X5.40250Y1.50250
X5.40250Y3.80250
X5.40250Y4.60250
X5.40250Y24.40250
X5.40250Y24.70250
X5.40250Y30.30250
X5.40250Y30.80250
X5.40250Y32.40250
X5.40250Y33.10250
X5.50250Y18.20250
X5.50250Y18.30250
X5.50250Y20.30250
X5.50250Y21.00250
X5.50250Y24.40250
X5.50250Y24.70250
X5.50250Y30.30250
X5.50250Y30.80250
X5.50250Y32.40250
X5.50250Y33.00250
X5.54896Y18.82848
X5.54896Y19.08439
X5.60250Y2.50250
X5.60250Y2.70250
X5.60250Y5.60250
X5.60250Y5.80250
X5.60250Y18.20250
X5.60250Y18.30250
X5.60250Y24.40250
X5.60250Y24.70250
X5.70250Y14.70250
X5.70250Y18.20250
X5.70250Y18.30250
X5.70250Y20.30250
X5.70250Y21.00250
X5.70250Y29.40250
X5.72612Y18.82848
X5.72612Y19.08439
X5.80250Y2.70250
X5.80250Y5.80250
X5.80250Y14.80250
X5.80250Y15.00250
X5.80250Y18.20250
X5.80250Y18.30250
X5.90250Y2.50250
X5.90250Y5.60250
X5.90250Y14.80250
X5.90250Y24.70250
X5.90250Y29.40250
X6.00250Y14.90250
X6.00250Y15.00250
X6.00250Y24.40250
X6.00250Y24.70250
X6.00250Y30.30250
X6.00250Y30.80250
X6.00250Y32.40250
X6.00250Y32.90250
X6.10250Y24.40250
X6.10250Y24.70250
X6.10250Y30.30250
X6.10250Y30.80250
X6.10250Y32.40250
X6.10250Y32.80250
X6.20250Y8.40250
X6.20250Y11.10250
X6.20250Y14.70250
X6.20250Y14.80250
X6.20250Y14.90250
X6.20250Y15.00250
X6.20250Y24.40250
X6.20250Y24.70250
X6.20250Y30.30250
X6.20250Y30.80250
X6.20250Y32.40250
X6.20250Y32.70250
X6.30250Y19.30250
X6.30250Y24.40250
X6.30250Y24.70250
X6.30250Y30.30250
X6.30250Y30.80250
X6.30250Y32.40250
X6.30250Y32.60250
X6.40250Y8.40250
X6.40250Y11.10250
X6.40250Y29.40250
X6.50250Y12.70250
X6.50250Y13.30250
X6.60250Y19.30250
X6.80250Y2.60250
X6.80250Y5.70250
X6.80250Y7.40250
X6.80250Y7.60250
X6.80250Y10.10250
X6.80250Y10.30250
X6.80250Y14.80250
X6.90250Y7.50250
X6.90250Y7.80250
X6.90250Y8.60250
X6.90250Y10.20250
X6.90250Y10.50250
X6.90250Y11.30250
X7.00250Y2.60250
X7.00250Y5.70250
X7.00250Y7.40250
X7.00250Y10.10250
X7.10250Y14.80250
X7.30250Y12.60250
X7.30250Y13.30250
X7.40250Y1.60250
X7.40250Y1.80250
X7.40250Y4.70250
X7.40250Y4.90250
X7.40250Y30.80250
X7.50250Y1.70250
X7.50250Y2.00250
X7.50250Y2.80250
X7.50250Y4.80250
X7.50250Y5.10250
X7.50250Y5.90250
X7.50250Y30.80250
X7.50250Y30.90250
X7.60250Y1.60250
X7.60250Y4.70250
X7.60250Y14.80250
X7.70250Y7.50250
X7.70250Y10.20250
X7.80250Y8.40250
X7.80250Y11.10250
X7.90250Y14.80250
X7.90250Y32.60250
X7.90250Y32.70250
X7.90250Y32.80250
X7.90250Y32.90250
X7.90250Y33.00250
X7.90250Y33.10250
X7.90250Y33.20250
X7.90250Y33.30250
X7.90250Y33.40250
X7.90250Y33.50250
X7.90250Y33.60250
X8.00250Y8.40250
X8.00250Y11.10250
X8.10250Y7.30250
X8.10250Y7.50250
X8.10250Y10.00250
X8.10250Y10.20250
X8.20250Y7.10250
X8.20250Y7.30250
X8.20250Y9.80250
X8.20250Y10.00250
X8.20250Y14.70250
X8.20250Y36.90250
X8.20250Y37.20250
X8.30250Y1.70250
X8.30250Y4.80250
X8.30250Y7.00250
X8.30250Y7.30250
X8.30250Y9.70250
X8.30250Y10.00250
X8.40250Y2.60250
X8.40250Y5.70250
X8.40250Y6.90250
X8.40250Y7.30250
X8.40250Y9.60250
X8.40250Y10.00250
X8.40250Y32.60250
X8.40250Y32.70250
X8.40250Y32.80250
X8.40250Y32.90250
X8.40250Y33.00250
X8.40250Y33.10250
X8.40250Y33.20250
X8.40250Y33.30250
X8.40250Y33.40250
X8.40250Y33.50250
X8.40250Y33.60250
X8.50250Y8.30250
X8.50250Y11.00250
X8.50250Y14.90250
X8.50250Y15.00250
X8.50250Y36.80250
X8.60250Y2.60250
X8.60250Y5.70250
X8.60250Y36.90250
X8.60250Y37.20250
X8.70250Y1.70250
X8.70250Y4.80250
X8.70250Y14.70250
X8.70250Y14.90250
X8.70250Y15.00250
X8.70250Y36.90250
X8.80250Y37.00250
X8.80250Y37.10250
X8.80250Y37.20250
X8.80250Y37.30250
X8.90250Y6.40250
X8.90250Y7.30250
X8.90250Y9.10250
X8.90250Y10.00250
X9.00250Y12.50250
X9.00250Y13.20250
X9.00250Y31.50250
X9.00250Y33.50250
X9.00250Y34.80250
X9.00250Y35.60250
X9.00250Y36.80250
X9.00250Y36.90250
X9.00250Y37.00250
X9.00250Y37.10250
X9.00250Y37.20250
X9.00250Y37.30250
X9.10250Y14.80250
X9.10250Y15.00250
X9.10250Y31.50250
X9.10250Y33.60250
X9.20250Y7.00250
X9.20250Y7.30250
X9.20250Y9.70250
X9.20250Y10.00250
X9.20250Y31.50250
X9.20250Y33.40250
X9.20250Y35.40250
X9.20250Y35.60250
X9.30250Y0.50250
X9.30250Y1.50250
X9.30250Y3.60250
X9.30250Y4.60250
X9.30250Y6.80250
X9.30250Y7.30250
X9.30250Y9.50250
X9.30250Y10.00250
X9.30250Y14.80250
X9.30250Y31.50250
X9.30250Y32.20250
X9.40250Y6.50250
X9.40250Y7.30250
X9.40250Y9.20250
X9.40250Y10.00250
X9.40250Y36.80250
X9.50250Y1.20250
X9.50250Y1.50250
X9.50250Y4.30250
X9.50250Y4.60250
X9.60250Y1.00250
X9.60250Y1.50250
X9.60250Y4.10250
X9.60250Y4.60250
X9.60250Y8.30250
X9.60250Y8.50250
X9.60250Y11.00250
X9.60250Y11.20250
X9.60250Y14.80250
X9.60250Y33.30250
X9.60250Y33.50250
X9.60250Y36.90250
X9.70250Y0.70250
X9.70250Y1.50250
X9.70250Y3.80250
X9.70250Y4.60250
X9.70250Y32.40250
X9.70250Y37.00250
X9.70250Y37.10250
X9.70250Y37.20250
X9.70250Y37.30250
X9.80250Y8.50250
X9.80250Y11.20250
X9.80250Y12.40250
X9.80250Y13.20250
X9.80250Y33.30250
X9.90250Y2.50250
X9.90250Y2.70250
X9.90250Y5.60250
X9.90250Y5.80250
X9.90250Y8.30250
X9.90250Y11.00250
X9.90250Y34.80250
X9.90250Y35.60250
X9.90250Y36.80250
X9.90250Y36.90250
X9.90250Y37.00250
X9.90250Y37.10250
X9.90250Y37.20250
X9.90250Y37.30250
X10.10250Y2.70250
X10.10250Y5.80250
X10.10250Y14.80250
X10.10250Y31.50250
X10.10250Y32.20250
X10.10250Y32.40250
X10.10250Y33.30250
X10.10250Y35.30250
X10.10250Y35.60250
X10.20250Y2.50250
X10.20250Y5.60250
X10.30250Y36.80250
X10.40250Y14.80250
X10.50250Y36.90250
X10.60250Y33.30250
X10.60250Y37.00250
X10.60250Y37.10250
X10.60250Y37.20250
X10.60250Y37.30250
X10.70250Y14.70250
X10.80250Y8.40250
X10.80250Y11.10250
X10.80250Y34.80250
X10.80250Y35.60250
X10.80250Y36.80250
X10.80250Y36.90250
X10.80250Y37.00250
X10.80250Y37.10250
X10.80250Y37.20250
X10.80250Y37.30250
X10.90250Y14.80250
X10.90250Y26.10250
X10.90250Y26.20250
X10.90250Y31.50250
X10.90250Y32.20250
X10.90250Y33.30250
X11.00250Y8.40250
X11.00250Y11.10250
X11.00250Y14.90250
X11.00250Y15.00250
X11.00250Y26.10250
X11.00250Y26.20250
X11.00250Y35.20250
X11.00250Y35.60250
X11.10250Y2.60250
X11.10250Y5.70250
X11.10250Y26.10250
X11.10250Y26.20250
X11.10250Y26.50250
X11.10250Y26.60250
X11.10250Y26.70250
X11.10250Y26.80250
X11.10250Y26.90250
X11.10250Y27.00250
X11.10250Y27.10250
X11.10250Y27.20250
X11.10250Y27.30250
X11.20250Y14.70250
X11.20250Y14.80250
X11.20250Y14.90250
X11.20250Y15.00250
X11.20250Y25.70250
X11.20250Y25.80250
X11.20250Y26.20250
X11.20250Y26.50250
X11.20250Y26.60250
X11.20250Y26.70250
X11.20250Y26.80250
X11.20250Y26.90250
X11.20250Y27.00250
X11.20250Y27.10250
X11.20250Y27.20250
X11.20250Y27.30250
X11.20250Y36.80250
X11.30250Y2.60250
X11.30250Y5.70250
X11.30250Y25.70250
X11.30250Y25.80250
X11.30250Y32.40250
X11.40250Y7.40250
X11.40250Y7.60250
X11.40250Y10.10250
X11.40250Y10.30250
X11.40250Y25.70250
X11.40250Y25.80250
X11.40250Y26.20250
X11.40250Y33.30250
X11.50250Y7.50250
X11.50250Y7.80250
X11.50250Y8.60250
X11.50250Y10.20250
X11.50250Y10.50250
X11.50250Y11.30250
X11.50250Y12.30250
X11.50250Y13.10250
X11.50250Y25.70250
X11.50250Y25.80250
X11.50250Y26.20250
X11.50250Y27.40250
X11.50250Y37.00250
X11.50250Y37.10250
X11.50250Y37.20250
X11.50250Y37.30250
X11.60250Y7.40250
X11.60250Y10.10250
X11.60250Y25.70250
X11.60250Y25.80250
X11.60250Y26.20250
X11.60250Y27.40250
X11.70250Y1.60250
X11.70250Y1.80250
X11.70250Y4.70250
X11.70250Y4.90250
X11.70250Y25.70250
X11.70250Y25.80250
X11.70250Y26.20250
X11.70250Y27.40250
X11.70250Y31.70250
X11.70250Y32.20250
X11.70250Y32.40250
X11.70250Y33.30250
X11.70250Y34.80250
X11.70250Y35.60250
X11.70250Y36.80250
X11.70250Y37.00250
X11.70250Y37.10250
X11.70250Y37.20250
X11.70250Y37.30250
X11.80250Y1.70250
X11.80250Y2.00250
X11.80250Y2.80250
X11.80250Y4.80250
X11.80250Y5.10250
X11.80250Y5.90250
X11.80250Y25.70250
X11.80250Y25.80250
X11.80250Y26.20250
X11.80250Y27.40250
X11.90250Y1.60250
X11.90250Y4.70250
X11.90250Y25.70250
X11.90250Y25.80250
X11.90250Y26.20250
X11.90250Y27.30250
X11.90250Y35.10250
X11.90250Y35.60250
X12.00250Y12.30250
X12.00250Y12.40250
X12.00250Y12.50250
X12.00250Y12.60250
X12.00250Y12.70250
X12.00250Y12.80250
X12.00250Y12.90250
X12.00250Y13.00250
X12.00250Y13.10250
X12.00250Y14.90250
X12.00250Y15.00250
X12.00250Y15.10250
X12.00250Y25.70250
X12.00250Y25.80250
X12.00250Y26.20250
X12.00250Y27.20250
X12.10250Y25.70250
X12.10250Y25.80250
X12.10250Y26.20250
X12.10250Y27.10250
X12.10250Y36.80250
X12.20250Y25.70250
X12.20250Y25.80250
X12.20250Y26.20250
X12.20250Y27.00250
X12.20250Y36.90250
X12.20250Y37.10250
X12.30250Y7.50250
X12.30250Y10.20250
X12.30250Y25.70250
X12.30250Y25.80250
X12.30250Y26.20250
X12.30250Y26.90250
X12.30250Y36.90250
X12.40250Y8.40250
X12.40250Y11.10250
X12.40250Y37.00250
X12.40250Y37.10250
X12.40250Y37.20250
X12.40250Y37.30250
X12.50250Y12.30250
X12.50250Y12.40250
X12.50250Y12.50250
X12.50250Y12.60250
X12.50250Y12.70250
X12.50250Y12.80250
X12.50250Y12.90250
X12.50250Y13.00250
X12.50250Y13.10250
X12.50250Y14.90250
X12.50250Y15.00250
X12.50250Y15.10250
X12.60250Y1.70250
X12.60250Y4.80250
X12.60250Y8.40250
X12.60250Y11.10250
X12.60250Y31.70250
X12.60250Y32.10250
X12.60250Y34.80250
X12.60250Y35.60250
X12.60250Y36.80250
X12.60250Y36.90250
X12.60250Y37.00250
X12.60250Y37.10250
X12.60250Y37.20250
X12.60250Y37.30250
X12.70250Y2.60250
X12.70250Y5.70250
X12.70250Y7.30250
X12.70250Y7.50250
X12.70250Y10.00250
X12.70250Y10.20250
X12.70250Y12.80250
X12.70250Y13.10250
X12.80250Y7.10250
X12.80250Y7.30250
X12.80250Y9.80250
X12.80250Y10.00250
X12.80250Y12.60250
X12.80250Y13.10250
X12.80250Y33.30250
X12.80250Y33.50250
X12.80250Y35.00250
X12.80250Y35.60250
X12.90250Y2.60250
X12.90250Y5.70250
X12.90250Y7.00250
X12.90250Y7.30250
X12.90250Y9.70250
X12.90250Y10.00250
X12.90250Y12.90250
X12.90250Y13.10250
X12.90250Y32.40250
X13.00250Y1.70250
X13.00250Y4.80250
X13.00250Y6.80250
X13.00250Y7.30250
X13.00250Y9.50250
X13.00250Y10.00250
X13.00250Y12.80250
X13.00250Y13.10250
X13.00250Y33.30250
X13.00250Y36.80250
X13.10250Y8.30250
X13.10250Y11.00250
X13.10250Y12.60250
X13.10250Y13.10250
X13.20250Y36.90250
X13.30250Y12.70250
X13.30250Y13.10250
X13.30250Y32.40250
X13.30250Y33.30250
X13.30250Y37.00250
X13.30250Y37.10250
X13.30250Y37.20250
X13.30250Y37.30250
X13.40250Y12.60250
X13.40250Y13.10250
X13.40250Y31.70250
X13.40250Y32.00250
X13.50250Y6.40250
X13.50250Y7.30250
X13.50250Y9.10250
X13.50250Y10.00250
X13.50250Y12.90250
X13.50250Y13.10250
X13.50250Y34.80250
X13.50250Y35.60250
X13.50250Y36.80250
X13.50250Y36.90250
X13.50250Y37.00250
X13.50250Y37.10250
X13.50250Y37.20250
X13.50250Y37.30250
X13.60250Y0.40250
X13.60250Y1.50250
X13.60250Y3.50250
X13.60250Y4.60250
X13.60250Y12.70250
X13.60250Y13.10250
X13.70250Y12.60250
X13.70250Y13.10250
X13.70250Y34.90250
X13.70250Y35.60250
X13.80250Y1.20250
X13.80250Y1.50250
X13.80250Y4.30250
X13.80250Y4.60250
X13.80250Y7.00250
X13.80250Y7.30250
X13.80250Y9.70250
X13.80250Y10.00250
X13.80250Y33.30250
X13.90250Y0.90250
X13.90250Y1.50250
X13.90250Y4.00250
X13.90250Y4.60250
X13.90250Y6.70250
X13.90250Y7.30250
X13.90250Y9.40250
X13.90250Y10.00250
X13.90250Y12.80250
X13.90250Y13.10250
X13.90250Y36.80250
X14.00250Y0.70250
X14.00250Y1.50250
X14.00250Y3.80250
X14.00250Y4.60250
X14.00250Y6.50250
X14.00250Y7.30250
X14.00250Y9.20250
X14.00250Y10.00250
X14.00250Y12.50250
X14.00250Y13.10250
X14.10250Y12.90250
X14.10250Y13.10250
X14.10250Y33.30250
X14.10250Y36.90250
X14.20250Y2.50250
X14.20250Y2.70250
X14.20250Y5.60250
X14.20250Y5.80250
X14.20250Y8.30250
X14.20250Y8.50250
X14.20250Y11.00250
X14.20250Y11.20250
X14.20250Y12.80250
X14.20250Y13.10250
X14.20250Y37.00250
X14.20250Y37.10250
X14.20250Y37.20250
X14.20250Y37.30250
X14.30250Y12.50250
X14.30250Y13.10250
X14.30250Y31.90250
X14.30250Y32.10250
X14.40250Y2.70250
X14.40250Y5.80250
X14.40250Y8.50250
X14.40250Y11.20250
X14.40250Y34.80250
X14.40250Y35.60250
X14.40250Y36.80250
X14.40250Y36.90250
X14.40250Y37.00250
X14.40250Y37.10250
X14.40250Y37.20250
X14.40250Y37.30250
X14.50250Y2.50250
X14.50250Y5.60250
X14.50250Y8.30250
X14.50250Y11.00250
X14.50250Y12.70250
X14.50250Y13.10250
X14.60250Y12.50250
X14.60250Y13.10250
X14.60250Y33.30250
X14.70250Y12.90250
X14.70250Y13.10250
X14.80250Y12.70250
X14.80250Y13.10250
X14.90250Y12.50250
X14.90250Y13.10250
X14.90250Y33.30250
X15.30250Y34.20250
X15.30250Y34.30250
X15.30250Y34.40250
X15.30250Y34.50250
X15.30250Y34.60250
X15.30250Y34.70250
X15.30250Y34.80250
X15.30250Y34.90250
X15.30250Y35.00250
X15.30250Y35.10250
X15.30250Y35.20250
X15.30250Y35.30250
X15.30250Y35.40250
X15.30250Y35.50250
X15.30250Y37.00250
X15.30250Y37.10250
X15.30250Y37.20250
X15.30250Y37.30250
X15.30250Y37.40250
X15.40250Y2.60250
X15.40250Y5.70250
X15.40250Y8.40250
X15.40250Y11.10250
X15.60250Y2.60250
X15.60250Y5.70250
X15.60250Y8.40250
X15.60250Y11.10250
X15.60250Y30.80250
X15.70250Y30.80250
X15.80250Y30.80250
X15.80250Y34.20250
X15.80250Y34.30250
X15.80250Y34.40250
X15.80250Y34.50250
X15.80250Y34.60250
X15.80250Y34.70250
X15.80250Y34.80250
X15.80250Y34.90250
X15.80250Y35.00250
X15.80250Y35.10250
X15.80250Y35.20250
X15.80250Y35.30250
X15.80250Y35.40250
X15.80250Y35.50250
X15.80250Y37.00250
X15.80250Y37.10250
X15.80250Y37.20250
X15.80250Y37.30250
X15.80250Y37.40250
X15.90250Y31.10250
X15.90250Y32.00250
X16.00250Y1.60250
X16.00250Y1.80250
X16.00250Y4.70250
X16.00250Y4.90250
X16.00250Y7.40250
X16.00250Y7.60250
X16.00250Y10.10250
X16.00250Y10.30250
X16.00250Y33.20250
X16.10250Y1.70250
X16.10250Y2.00250
X16.10250Y2.80250
X16.10250Y4.80250
X16.10250Y5.10250
X16.10250Y5.90250
X16.10250Y7.50250
X16.10250Y7.80250
X16.10250Y8.60250
X16.10250Y10.20250
X16.10250Y10.50250
X16.10250Y11.30250
X16.10250Y14.70250
X16.10250Y33.30250
X16.10250Y33.50250
X16.20250Y1.60250
X16.20250Y4.70250
X16.20250Y7.40250
X16.20250Y10.10250
X16.20250Y14.80250
X16.20250Y15.00250
X16.20250Y33.30250
X16.20250Y36.80250
X16.20250Y37.20250
X16.30250Y14.80250
X16.30250Y33.40250
X16.30250Y33.50250
X16.30250Y36.80250
X16.30250Y37.20250
X16.40250Y14.90250
X16.40250Y15.00250
X16.50250Y33.20250
X16.50250Y33.30250
X16.50250Y33.40250
X16.50250Y33.50250
X16.50250Y36.80250
X16.50250Y37.20250
X16.60250Y14.70250
X16.60250Y14.80250
X16.60250Y14.90250
X16.60250Y15.00250
X16.80250Y12.40250
X16.80250Y12.70250
X16.80250Y31.10250
X16.80250Y31.90250
X16.90250Y1.70250
X16.90250Y4.80250
X16.90250Y7.50250
X16.90250Y10.20250
X16.90250Y33.20250
X17.00250Y2.60250
X17.00250Y5.70250
X17.00250Y8.40250
X17.00250Y11.10250
X17.00250Y14.70250
X17.10250Y33.30250
X17.20250Y2.60250
X17.20250Y5.70250
X17.20250Y8.40250
X17.20250Y11.10250
X17.20250Y14.80250
X17.20250Y33.40250
X17.20250Y33.50250
X17.30250Y1.70250
X17.30250Y4.80250
X17.30250Y7.30250
X17.30250Y7.50250
X17.30250Y10.00250
X17.30250Y10.20250
X17.30250Y14.90250
X17.30250Y15.00250
X17.30250Y36.40250
X17.30250Y36.60250
X17.40250Y7.10250
X17.40250Y7.30250
X17.40250Y9.80250
X17.40250Y10.00250
X17.40250Y33.20250
X17.40250Y33.30250
X17.40250Y33.40250
X17.40250Y33.50250
X17.40250Y36.40250
X17.40250Y36.60250
X17.50250Y7.00250
X17.50250Y7.30250
X17.50250Y9.70250
X17.50250Y10.00250
X17.50250Y14.70250
X17.50250Y14.80250
X17.50250Y14.90250
X17.50250Y15.00250
X17.60250Y6.70250
X17.60250Y7.30250
X17.60250Y9.40250
X17.60250Y10.00250
X17.70250Y8.30250
X17.70250Y11.00250
X17.70250Y12.30250
X17.70250Y12.80250
X17.70250Y31.10250
X17.70250Y31.80250
X17.80250Y33.20250
X17.80250Y36.70250
X17.90250Y0.30250
X17.90250Y1.50250
X17.90250Y3.40250
X17.90250Y4.60250
X17.90250Y14.70250
X18.00250Y33.30250
X18.00250Y36.70250
X18.10250Y1.20250
X18.10250Y1.50250
X18.10250Y4.30250
X18.10250Y4.60250
X18.10250Y6.40250
X18.10250Y7.30250
X18.10250Y9.10250
X18.10250Y10.00250
X18.10250Y14.80250
X18.10250Y33.40250
X18.10250Y33.50250
X18.20250Y0.80250
X18.20250Y1.50250
X18.20250Y3.90250
X18.20250Y4.60250
X18.20250Y14.90250
X18.20250Y15.00250
X18.30250Y0.70250
X18.30250Y1.50250
X18.30250Y3.80250
X18.30250Y4.60250
X18.30250Y33.20250
X18.30250Y33.30250
X18.30250Y33.40250
X18.30250Y33.50250
X18.40250Y7.00250
X18.40250Y7.30250
X18.40250Y9.70250
X18.40250Y10.00250
X18.40250Y14.70250
X18.40250Y14.80250
X18.40250Y14.90250
X18.40250Y15.00250
X18.50250Y2.50250
X18.50250Y2.70250
X18.50250Y5.60250
X18.50250Y5.80250
X18.50250Y6.60250
X18.50250Y7.30250
X18.50250Y9.30250
X18.50250Y10.00250
X18.60250Y6.50250
X18.60250Y7.30250
X18.60250Y9.20250
X18.60250Y10.00250
X18.60250Y12.20250
X18.60250Y12.90250
X18.60250Y31.10250
X18.60250Y31.70250
X18.60250Y36.40250
X18.60250Y36.70250
X18.70250Y2.70250
X18.70250Y5.80250
X18.70250Y33.20250
X18.70250Y36.20250
X18.70250Y36.70250
X18.80250Y2.50250
X18.80250Y5.60250
X18.80250Y8.30250
X18.80250Y8.50250
X18.80250Y11.00250
X18.80250Y11.20250
X18.80250Y14.70250
X18.80250Y24.30250
X18.80250Y24.40250
X18.80250Y24.50250
X18.80250Y29.80250
X18.80250Y29.90250
X18.90250Y24.30250
X18.90250Y24.40250
X18.90250Y24.60250
X19.00250Y8.50250
X19.00250Y11.20250
X19.00250Y24.30250
X19.00250Y24.40250
X19.00250Y24.70250
X19.00250Y24.80250
X19.00250Y33.40250
X19.00250Y33.50250
X19.00250Y35.90250
X19.00250Y36.00250
X19.00250Y36.20250
X19.10250Y8.30250
X19.10250Y11.00250
X19.10250Y14.90250
X19.10250Y15.00250
X19.10250Y24.30250
X19.10250Y24.40250
X19.10250Y30.30250
X19.10250Y30.80250
X19.20250Y24.30250
X19.20250Y24.40250
X19.20250Y30.30250
X19.20250Y30.80250
X19.20250Y33.20250
X19.20250Y33.40250
X19.20250Y33.50250
X19.30250Y14.70250
X19.30250Y14.90250
X19.30250Y15.00250
X19.30250Y24.30250
X19.30250Y24.40250
X19.30250Y30.30250
X19.30250Y30.80250
X19.40250Y24.30250
X19.40250Y24.40250
X19.40250Y30.30250
X19.40250Y30.80250
X19.40250Y35.90250
X19.40250Y36.00250
X19.40250Y36.20250
X19.50250Y12.10250
X19.50250Y13.00250
X19.50250Y24.30250
X19.50250Y24.40250
X19.50250Y30.30250
X19.50250Y30.80250
X19.50250Y31.10250
X19.50250Y31.60250
X19.50250Y36.40250
X19.50250Y37.10250
X19.60250Y24.30250
X19.60250Y24.40250
X19.60250Y30.30250
X19.60250Y30.80250
X19.60250Y33.20250
X19.70250Y2.60250
X19.70250Y5.70250
X19.70250Y14.70250
X19.70250Y24.30250
X19.70250Y24.40250
X19.70250Y30.30250
X19.70250Y30.80250
X19.70250Y33.30250
X19.70250Y33.50250
X19.70250Y36.40250
X19.70250Y37.10250
X19.80250Y14.80250
X19.80250Y15.00250
X19.80250Y24.30250
X19.80250Y24.40250
X19.80250Y30.30250
X19.80250Y30.80250
X19.80250Y33.30250
X19.90250Y2.60250
X19.90250Y5.70250
X19.90250Y14.80250
X19.90250Y24.30250
X19.90250Y24.40250
X19.90250Y24.80250
X19.90250Y33.40250
X19.90250Y33.50250
X19.90250Y35.70250
X19.90250Y35.80250
X19.90250Y36.40250
X19.90250Y37.10250
X20.00250Y8.40250
X20.00250Y11.10250
X20.00250Y14.90250
X20.00250Y15.00250
X20.00250Y24.70250
X20.00250Y25.40250
X20.00250Y30.10250
X20.10250Y24.60250
X20.10250Y25.10250
X20.10250Y25.40250
X20.10250Y33.20250
X20.10250Y33.30250
X20.10250Y33.40250
X20.10250Y33.50250
X20.10250Y36.40250
X20.10250Y37.10250
X20.20250Y8.40250
X20.20250Y11.10250
X20.20250Y14.70250
X20.20250Y14.80250
X20.20250Y14.90250
X20.20250Y15.00250
X20.20250Y24.50250
X20.20250Y25.10250
X20.20250Y25.40250
X20.30250Y1.60250
X20.30250Y1.80250
X20.30250Y4.70250
X20.30250Y4.90250
X20.30250Y25.10250
X20.30250Y25.40250
X20.40250Y1.70250
X20.40250Y2.00250
X20.40250Y2.80250
X20.40250Y4.80250
X20.40250Y5.10250
X20.40250Y5.90250
X20.40250Y12.00250
X20.40250Y13.10250
X20.40250Y25.10250
X20.40250Y25.40250
X20.40250Y31.10250
X20.40250Y31.50250
X20.50250Y1.60250
X20.50250Y4.70250
X20.50250Y30.10250
X20.50250Y33.20250
X20.60250Y7.40250
X20.60250Y7.60250
X20.60250Y10.10250
X20.60250Y10.30250
X20.60250Y14.70250
X20.70250Y7.50250
X20.70250Y7.80250
X20.70250Y8.60250
X20.70250Y10.20250
X20.70250Y10.50250
X20.70250Y11.30250
X20.70250Y24.80250
X20.70250Y25.80250
X20.70250Y33.30250
X20.80250Y7.40250
X20.80250Y10.10250
X20.80250Y14.80250
X20.80250Y33.40250
X20.80250Y33.50250
X20.90250Y14.90250
X20.90250Y15.00250
X21.00250Y33.20250
X21.00250Y33.30250
X21.00250Y33.40250
X21.00250Y33.50250
X21.10250Y14.70250
X21.10250Y14.80250
X21.10250Y14.90250
X21.10250Y15.00250
X21.20250Y1.70250
X21.20250Y4.80250
X21.20250Y11.90250
X21.20250Y13.20250
X21.30250Y2.60250
X21.30250Y5.70250
X21.30250Y26.30250
X21.30250Y26.60250
X21.30250Y31.10250
X21.30250Y31.40250
X21.40250Y26.90250
X21.40250Y33.20250
X21.50250Y2.60250
X21.50250Y5.70250
X21.50250Y7.50250
X21.50250Y10.20250
X21.50250Y14.70250
X21.50250Y28.70250
X21.50250Y29.40250
X21.60250Y1.70250
X21.60250Y4.80250
X21.60250Y8.40250
X21.60250Y11.10250
X21.60250Y26.90250
X21.60250Y33.30250
X21.70250Y14.80250
X21.70250Y27.50250
X21.70250Y28.70250
X21.70250Y29.40250
X21.70250Y33.40250
X21.70250Y33.50250
X21.80250Y8.40250
X21.80250Y11.10250
X21.80250Y14.90250
X21.80250Y15.00250
X21.90250Y7.30250
X21.90250Y7.50250
X21.90250Y10.00250
X21.90250Y10.20250
X21.90250Y27.50250
X21.90250Y28.70250
X21.90250Y29.40250
X21.90250Y33.20250
X21.90250Y33.30250
X21.90250Y33.40250
X21.90250Y33.50250
X22.00250Y7.10250
X22.00250Y7.30250
X22.00250Y9.80250
X22.00250Y10.00250
X22.00250Y14.70250
X22.00250Y14.80250
X22.00250Y14.90250
X22.00250Y15.00250
X22.00250Y26.30250
X22.00250Y36.50250
X22.00250Y36.60250
X22.10250Y7.00250
X22.10250Y7.30250
X22.10250Y9.70250
X22.10250Y10.00250
X22.10250Y26.60250
X22.10250Y28.70250
X22.10250Y29.40250
X22.20250Y0.20250
X22.20250Y1.50250
X22.20250Y3.30250
X22.20250Y4.60250
X22.20250Y6.60250
X22.20250Y7.30250
X22.20250Y9.30250
X22.20250Y10.00250
X22.20250Y11.80250
X22.20250Y13.50250
X22.20250Y31.10250
X22.20250Y31.30250
X22.30250Y8.30250
X22.30250Y11.00250
X22.30250Y13.30250
X22.30250Y13.50250
X22.30250Y26.30250
X22.30250Y33.20250
X22.40250Y14.70250
X22.40250Y29.40250
X22.40250Y30.00250
X22.40250Y30.30250
X22.40250Y30.80250
X22.50250Y29.40250
X22.50250Y29.60250
X22.50250Y30.30250
X22.50250Y30.80250
X22.60250Y26.80250
X22.60250Y27.20250
X22.60250Y29.40250
X22.60250Y29.60250
X22.60250Y30.30250
X22.60250Y30.80250
X22.60250Y33.40250
X22.60250Y33.50250
X22.60250Y36.50250
X22.60250Y36.60250
X22.70250Y6.40250
X22.70250Y7.30250
X22.70250Y9.10250
X22.70250Y10.00250
X22.80250Y14.80250
X22.80250Y15.10250
X22.80250Y33.20250
X22.80250Y33.40250
X22.80250Y33.50250
X22.80250Y35.70250
X22.80250Y35.80250
X22.90250Y0.20250
X22.90250Y0.30250
X22.90250Y0.40250
X22.90250Y0.50250
X22.90250Y0.60250
X22.90250Y0.70250
X22.90250Y0.80250
X22.90250Y0.90250
X22.90250Y1.00250
X22.90250Y1.10250
X22.90250Y1.20250
X22.90250Y1.30250
X22.90250Y1.40250
X22.90250Y2.70250
X22.90250Y2.80250
X22.90250Y2.90250
X22.90250Y3.30250
X22.90250Y3.40250
X22.90250Y3.50250
X22.90250Y3.60250
X22.90250Y3.70250
X22.90250Y3.80250
X22.90250Y3.90250
X22.90250Y4.00250
X22.90250Y4.10250
X22.90250Y4.20250
X22.90250Y4.30250
X22.90250Y4.40250
X22.90250Y4.50250
X22.90250Y5.80250
X22.90250Y5.90250
X22.90250Y6.00250
X22.90250Y6.40250
X22.90250Y6.50250
X22.90250Y6.60250
X22.90250Y6.70250
X22.90250Y6.80250
X22.90250Y6.90250
X22.90250Y7.00250
X22.90250Y7.10250
X22.90250Y7.20250
X22.90250Y8.50250
X22.90250Y8.60250
X22.90250Y8.70250
X22.90250Y9.10250
X22.90250Y9.20250
X22.90250Y9.30250
X22.90250Y9.40250
X22.90250Y9.50250
X22.90250Y9.60250
X22.90250Y9.70250
X22.90250Y9.80250
X22.90250Y9.90250
X22.90250Y11.20250
X22.90250Y11.30250
X22.90250Y11.40250
X22.90250Y11.80250
X22.90250Y11.90250
X22.90250Y12.00250
X22.90250Y12.10250
X22.90250Y12.20250
X22.90250Y12.30250
X22.90250Y12.40250
X22.90250Y12.50250
X22.90250Y12.60250
X22.90250Y12.70250
X22.90250Y12.80250
X22.90250Y12.90250
X22.90250Y13.00250
X22.90250Y13.10250
X22.90250Y13.20250
X22.90250Y13.30250
X22.90250Y13.40250
X22.90250Y14.70250
X22.90250Y14.90250
X22.90250Y15.00250
X22.90250Y15.10250
X22.90250Y28.50250
X22.90250Y28.60250
X22.90250Y28.70250
X22.90250Y28.90250
X22.90250Y29.00250
X22.90250Y29.10250
X22.90250Y29.30250
X22.90250Y29.40250
X22.90250Y29.50250
X22.90250Y29.70250
X22.90250Y29.80250
X22.90250Y29.90250
X22.90250Y30.00250
X22.90250Y30.10250
X22.90250Y31.20250
X22.90250Y31.30250
X22.90250Y31.40250
X22.90250Y33.40250
X22.90250Y33.50250
X22.90250Y33.60250
X22.90250Y34.20250
X22.90250Y34.30250
X22.90250Y34.40250
X22.90250Y34.50250
X22.90250Y34.60250
X22.90250Y34.70250
X22.90250Y34.80250
X22.90250Y34.90250
X22.90250Y35.00250
X22.90250Y35.10250
X22.90250Y35.20250
X22.90250Y35.30250
X22.90250Y35.40250
X22.90250Y35.50250
X22.90250Y36.70250
X22.90250Y36.80250
X22.90250Y36.90250
X22.90250Y37.00250
X22.90250Y37.10250
X23.40250Y0.20250
X23.40250Y0.30250
X23.40250Y0.40250
X23.40250Y0.50250
X23.40250Y0.60250
X23.40250Y0.70250
X23.40250Y0.80250
X23.40250Y0.90250
X23.40250Y1.00250
X23.40250Y1.10250
X23.40250Y1.20250
X23.40250Y1.30250
X23.40250Y1.40250
X23.40250Y2.70250
X23.40250Y2.80250
X23.40250Y2.90250
X23.40250Y3.30250
X23.40250Y3.40250
X23.40250Y3.50250
X23.40250Y3.60250
X23.40250Y3.70250
X23.40250Y3.80250
X23.40250Y3.90250
X23.40250Y4.00250
X23.40250Y4.10250
X23.40250Y4.20250
X23.40250Y4.30250
X23.40250Y4.40250
X23.40250Y4.50250
X23.40250Y5.80250
X23.40250Y5.90250
X23.40250Y6.00250
X23.40250Y6.40250
X23.40250Y6.50250
X23.40250Y6.60250
X23.40250Y6.70250
X23.40250Y6.80250
X23.40250Y6.90250
X23.40250Y7.00250
X23.40250Y7.10250
X23.40250Y7.20250
X23.40250Y8.50250
X23.40250Y8.60250
X23.40250Y8.70250
X23.40250Y9.10250
X23.40250Y9.20250
X23.40250Y9.30250
X23.40250Y9.40250
X23.40250Y9.50250
X23.40250Y9.60250
X23.40250Y9.70250
X23.40250Y9.80250
X23.40250Y9.90250
X23.40250Y11.20250
X23.40250Y11.30250
X23.40250Y11.40250
X23.40250Y11.80250
X23.40250Y11.90250
X23.40250Y12.00250
X23.40250Y12.10250
X23.40250Y12.20250
X23.40250Y12.30250
X23.40250Y12.40250
X23.40250Y12.50250
X23.40250Y12.60250
X23.40250Y12.70250
X23.40250Y12.80250
X23.40250Y12.90250
X23.40250Y13.00250
X23.40250Y13.10250
X23.40250Y13.20250
X23.40250Y13.30250
X23.40250Y13.40250
X23.40250Y14.90250
X23.40250Y15.00250
X23.40250Y15.10250
X23.40250Y28.50250
X23.40250Y28.60250
X23.40250Y28.70250
X23.40250Y28.90250
X23.40250Y29.00250
X23.40250Y29.10250
X23.40250Y29.30250
X23.40250Y29.40250
X23.40250Y29.50250
X23.40250Y29.70250
X23.40250Y29.80250
X23.40250Y29.90250
X23.40250Y30.00250
X23.40250Y30.10250
X23.40250Y33.40250
X23.40250Y33.50250
X23.40250Y33.60250
X23.40250Y34.20250
X23.40250Y34.30250
X23.40250Y34.40250
X23.40250Y34.50250
X23.40250Y34.60250
X23.40250Y34.70250
X23.40250Y34.80250
X23.40250Y34.90250
X23.40250Y35.00250
X23.40250Y35.10250
X23.40250Y35.20250
X23.40250Y35.30250
X23.40250Y35.40250
X23.40250Y35.50250
X23.40250Y36.70250
X23.40250Y36.80250
X23.40250Y36.90250
X23.40250Y37.00250
X23.40250Y37.10250
X23.50250Y6.40250
X23.50250Y7.30250
X23.50250Y9.10250
X23.50250Y10.00250
X23.60250Y0.20250
X23.60250Y0.60250
X23.80250Y8.40250
X23.80250Y8.70250
X23.80250Y17.00250
X23.80250Y17.40250
X24.00250Y8.40250
X24.00250Y8.80250
X24.00250Y11.00250
X24.10250Y33.40250
X24.10250Y33.50250
X24.10250Y33.60250
X24.20250Y3.30250
X24.20250Y3.40250
X24.20250Y3.50250
X24.20250Y3.60250
X24.20250Y3.80250
X24.20250Y3.90250
X24.20250Y4.00250
X24.20250Y4.10250
X24.20250Y4.20250
X24.20250Y4.40250
X24.20250Y4.50250
X24.20250Y9.20250
X24.20250Y9.30250
X24.20250Y9.40250
X24.20250Y9.50250
X24.20250Y9.60250
X24.20250Y9.80250
X24.20250Y9.90250
X24.20250Y10.00250
X24.20250Y11.00250
X24.20250Y14.40250
X24.20250Y14.50250
X24.20250Y14.60250
X24.20250Y15.80250
X24.20250Y17.20250
X24.20250Y17.30250
X24.20250Y17.40250
X24.20250Y33.30250
X24.20250Y33.70250
X24.20250Y34.20250
X24.20250Y36.70250
X24.20250Y36.80250
X24.20250Y36.90250
X24.20250Y37.00250
X24.20250Y37.10250
X24.30250Y0.30250
X24.30250Y0.40250
X24.30250Y0.50250
X24.30250Y0.60250
X24.30250Y0.70250
X24.30250Y0.90250
X24.30250Y1.00250
X24.30250Y1.10250
X24.30250Y1.30250
X24.30250Y1.40250
X24.30250Y2.70250
X24.30250Y2.80250
X24.30250Y2.90250
X24.30250Y5.40250
X24.30250Y5.50250
X24.30250Y5.60250
X24.30250Y6.50250
X24.30250Y6.70250
X24.30250Y6.80250
X24.30250Y6.90250
X24.30250Y7.10250
X24.30250Y7.20250
X24.30250Y7.30250
X24.30250Y8.50250
X24.30250Y8.60250
X24.30250Y8.70250
X24.30250Y11.10250
X24.30250Y11.20250
X24.30250Y11.30250
X24.30250Y15.10250
X24.30250Y15.60250
X24.30250Y18.40250
X24.30250Y28.50250
X24.30250Y28.60250
X24.30250Y28.70250
X24.30250Y28.90250
X24.30250Y29.00250
X24.30250Y29.10250
X24.30250Y29.30250
X24.30250Y29.40250
X24.30250Y29.50250
X24.30250Y29.70250
X24.30250Y29.80250
X24.30250Y29.90250
X24.30250Y34.20250
X24.30250Y35.60250
X24.30250Y37.40250
X24.40250Y0.20250
X24.40250Y6.00250
X24.40250Y6.40250
X24.40250Y11.40250
X24.40250Y11.80250
X24.40250Y15.10250
X24.40250Y15.60250
X24.40250Y18.50250
X24.40250Y19.00250
X24.40250Y24.50250
X24.40250Y25.00250
X24.40250Y33.30250
X24.40250Y33.70250
X24.40250Y34.20250
X24.40250Y37.40250
X24.50250Y0.20250
X24.50250Y0.90250
X24.50250Y6.00250
X24.50250Y6.40250
X24.50250Y6.70250
X24.50250Y11.40250
X24.50250Y11.80250
X24.50250Y15.10250
X24.50250Y15.60250
X24.50250Y18.50250
X24.50250Y19.00250
X24.50250Y24.50250
X24.50250Y25.00250
X24.50250Y33.70250
X24.50250Y34.20250
X24.50250Y37.40250
X24.60250Y0.20250
X24.60250Y1.00250
X24.60250Y6.00250
X24.60250Y6.40250
X24.60250Y6.80250
X24.60250Y11.40250
X24.60250Y11.80250
X24.60250Y15.10250
X24.60250Y15.60250
X24.60250Y18.50250
X24.60250Y19.00250
X24.60250Y24.50250
X24.60250Y25.00250
X24.60250Y33.70250
X24.60250Y34.20250
X24.60250Y37.40250
X24.70250Y0.20250
X24.70250Y1.10250
X24.70250Y6.00250
X24.70250Y6.40250
X24.70250Y6.90250
X24.70250Y11.40250
X24.70250Y11.80250
X24.70250Y15.10250
X24.70250Y15.60250
X24.70250Y18.50250
X24.70250Y19.00250
X24.70250Y24.50250
X24.70250Y25.00250
X24.70250Y33.70250
X24.70250Y34.20250
X24.70250Y37.40250
X24.80250Y0.20250
X24.80250Y3.90250
X24.80250Y6.00250
X24.80250Y6.40250
X24.80250Y9.30250
X24.80250Y11.40250
X24.80250Y11.80250
X24.80250Y15.10250
X24.80250Y15.60250
X24.80250Y18.50250
X24.80250Y19.00250
X24.80250Y24.50250
X24.80250Y25.00250
X24.80250Y33.70250
X24.80250Y34.20250
X24.80250Y37.40250
X24.90250Y0.20250
X24.90250Y4.00250
X24.90250Y6.00250
X24.90250Y6.40250
X24.90250Y9.40250
X24.90250Y11.40250
X24.90250Y11.80250
X24.90250Y15.10250
X24.90250Y15.60250
X24.90250Y18.50250
X24.90250Y19.00250
X24.90250Y24.50250
X24.90250Y25.00250
X24.90250Y33.70250
X24.90250Y34.20250
X24.90250Y37.40250
X25.00250Y0.20250
X25.00250Y4.10250
X25.00250Y6.00250
X25.00250Y6.40250
X25.00250Y9.50250
X25.00250Y11.40250
X25.00250Y11.80250
X25.00250Y15.10250
X25.00250Y15.60250
X25.00250Y18.50250
X25.00250Y19.00250
X25.00250Y24.50250
X25.00250Y25.00250
X25.00250Y33.70250
X25.00250Y34.20250
X25.00250Y37.40250
X25.10250Y0.20250
X25.10250Y4.20250
X25.10250Y6.00250
X25.10250Y6.40250
X25.10250Y9.60250
X25.10250Y11.40250
X25.10250Y11.80250
X25.10250Y15.10250
X25.10250Y15.60250
X25.10250Y18.50250
X25.10250Y19.00250
X25.10250Y24.50250
X25.10250Y25.00250
X25.10250Y29.70250
X25.10250Y33.70250
X25.10250Y34.20250
X25.10250Y37.40250
X25.20250Y0.20250
X25.20250Y1.30250
X25.20250Y4.40250
X25.20250Y6.00250
X25.20250Y6.40250
X25.20250Y7.10250
X25.20250Y9.80250
X25.20250Y11.40250
X25.20250Y11.80250
X25.20250Y15.10250
X25.20250Y15.60250
X25.20250Y18.50250
X25.20250Y19.00250
X25.20250Y24.50250
X25.20250Y25.00250
X25.20250Y33.70250
X25.20250Y34.20250
X25.20250Y37.40250
X25.30250Y0.20250
X25.30250Y1.40250
X25.30250Y4.50250
X25.30250Y6.00250
X25.30250Y6.40250
X25.30250Y7.20250
X25.30250Y9.90250
X25.30250Y11.40250
X25.30250Y11.80250
X25.30250Y15.10250
X25.30250Y15.60250
X25.30250Y18.50250
X25.30250Y19.00250
X25.30250Y24.50250
X25.30250Y25.00250
X25.30250Y29.80250
X25.30250Y33.70250
X25.30250Y34.20250
X25.30250Y37.40250
X25.40250Y0.20250
X25.40250Y0.70250
X25.40250Y3.80250
X25.40250Y6.00250
X25.40250Y6.40250
X25.40250Y6.50250
X25.40250Y7.30250
X25.40250Y9.20250
X25.40250Y10.00250
X25.40250Y11.40250
X25.40250Y11.80250
X25.40250Y15.10250
X25.40250Y15.60250
X25.40250Y15.80250
X25.40250Y18.40250
X25.40250Y18.50250
X25.40250Y19.00250
X25.40250Y24.50250
X25.40250Y25.00250
X25.40250Y29.90250
X25.40250Y33.70250
X25.40250Y34.20250
X25.40250Y37.40250
X25.50250Y0.20250
X25.50250Y0.60250
X25.50250Y6.00250
X25.50250Y6.40250
X25.50250Y11.40250
X25.50250Y11.80250
X25.50250Y15.10250
X25.50250Y15.60250
X25.50250Y18.50250
X25.50250Y19.00250
X25.50250Y24.50250
X25.50250Y25.00250
X25.50250Y33.70250
X25.50250Y34.20250
X25.50250Y37.40250
X25.60250Y0.20250
X25.60250Y0.30250
X25.60250Y6.00250
X25.60250Y6.40250
X25.60250Y11.40250
X25.60250Y11.80250
X25.60250Y15.10250
X25.60250Y15.60250
X25.60250Y18.50250
X25.60250Y19.00250
X25.60250Y24.50250
X25.60250Y25.00250
X25.60250Y33.70250
X25.60250Y34.20250
X25.60250Y37.40250
X25.70250Y0.20250
X25.70250Y0.40250
X25.70250Y6.00250
X25.70250Y6.40250
X25.70250Y11.40250
X25.70250Y11.80250
X25.70250Y15.10250
X25.70250Y15.60250
X25.70250Y18.50250
X25.70250Y19.00250
X25.70250Y24.50250
X25.70250Y25.00250
X25.70250Y33.70250
X25.70250Y34.20250
X25.70250Y37.40250
X25.80250Y0.20250
X25.80250Y0.50250
X25.80250Y6.00250
X25.80250Y6.40250
X25.80250Y11.40250
X25.80250Y11.80250
X25.80250Y15.10250
X25.80250Y15.60250
X25.80250Y18.50250
X25.80250Y19.00250
X25.80250Y24.50250
X25.80250Y25.00250
X25.80250Y33.70250
X25.80250Y34.20250
X25.80250Y37.40250
X25.90250Y0.20250
X25.90250Y3.30250
X25.90250Y6.00250
X25.90250Y6.40250
X25.90250Y11.40250
X25.90250Y11.80250
X25.90250Y15.10250
X25.90250Y15.60250
X25.90250Y18.50250
X25.90250Y19.00250
X25.90250Y24.50250
X25.90250Y25.00250
X25.90250Y33.70250
X25.90250Y34.20250
X25.90250Y37.40250
X26.00250Y0.20250
X26.00250Y3.40250
X26.00250Y6.00250
X26.00250Y6.40250
X26.00250Y11.40250
X26.00250Y11.80250
X26.00250Y15.10250
X26.00250Y15.60250
X26.00250Y18.50250
X26.00250Y19.00250
X26.00250Y24.50250
X26.00250Y25.00250
X26.00250Y33.70250
X26.00250Y34.20250
X26.00250Y37.40250
X26.10250Y0.20250
X26.10250Y3.50250
X26.10250Y6.00250
X26.10250Y6.40250
X26.10250Y11.40250
X26.10250Y11.80250
X26.10250Y15.10250
X26.10250Y15.60250
X26.10250Y18.50250
X26.10250Y19.00250
X26.10250Y24.50250
X26.10250Y25.00250
X26.10250Y33.70250
X26.10250Y34.20250
X26.10250Y37.40250
X26.20250Y0.20250
X26.20250Y3.60250
X26.20250Y6.00250
X26.20250Y6.40250
X26.20250Y11.40250
X26.20250Y11.80250
X26.20250Y15.10250
X26.20250Y15.60250
X26.20250Y18.50250
X26.20250Y19.00250
X26.20250Y24.50250
X26.20250Y25.00250
X26.20250Y33.70250
X26.20250Y34.20250
X26.20250Y37.40250
X26.30250Y0.20485
X26.30250Y2.90250
X26.30250Y5.60250
X26.30250Y6.00485
X26.30250Y6.40485
X26.30250Y8.70250
X26.30250Y11.30250
X26.30250Y11.40485
X26.30250Y11.80250
X26.30250Y14.60250
X26.30250Y15.10250
X26.30250Y15.60250
X26.30250Y17.40250
X26.30250Y18.50250
X26.30250Y19.00485
X26.30250Y24.50250
X26.30250Y25.00485
X26.30250Y29.30250
X26.30250Y29.40250
X26.30250Y29.50250
X26.30250Y33.60250
X26.30250Y33.70250
X26.30250Y34.20250
X26.30250Y37.10250
X26.30250Y37.40250
X26.40250Y0.20485
X26.40250Y6.00485
X26.40250Y6.40485
X26.40250Y11.40485
X26.40250Y11.80250
X26.40250Y15.10250
X26.40250Y15.60485
X26.40250Y18.50250
X26.40250Y19.00485
X26.40250Y24.50250
X26.40250Y25.00485
X26.40250Y33.70250
X26.40250Y34.20250
X26.40250Y37.40250
X26.50250Y0.20485
X26.50250Y2.80250
X26.50250Y5.50250
X26.50250Y6.00485
X26.50250Y6.40485
X26.50250Y8.60250
X26.50250Y11.20250
X26.50250Y11.40485
X26.50250Y11.80250
X26.50250Y14.50250
X26.50250Y15.10250
X26.50250Y15.60485
X26.50250Y17.20250
X26.50250Y18.50250
X26.50250Y19.00485
X26.50250Y24.50250
X26.50250Y25.00485
X26.50250Y28.90250
X26.50250Y29.00250
X26.50250Y29.10250
X26.50250Y33.50250
X26.50250Y33.70250
X26.50250Y34.20250
X26.50250Y36.90250
X26.50250Y37.00250
X26.50250Y37.40250
X26.60250Y0.20485
X26.60250Y6.00485
X26.60250Y6.40485
X26.60250Y11.40485
X26.60250Y11.80250
X26.60250Y15.10250
X26.60250Y15.60485
X26.60250Y18.50250
X26.60250Y19.00485
X26.60250Y24.50250
X26.60250Y25.00485
X26.60250Y33.70250
X26.60250Y34.20250
X26.60250Y37.40250
X26.70250Y0.20485
X26.70250Y2.70250
X26.70250Y5.40250
X26.70250Y6.00485
X26.70250Y6.40485
X26.70250Y8.50250
X26.70250Y11.10250
X26.70250Y11.40485
X26.70250Y11.80250
X26.70250Y14.40250
X26.70250Y15.10250
X26.70250Y15.60485
X26.70250Y17.30250
X26.70250Y18.50250
X26.70250Y19.00485
X26.70250Y24.50250
X26.70250Y25.00485
X26.70250Y28.50250
X26.70250Y28.60250
X26.70250Y28.70250
X26.70250Y33.40250
X26.70250Y33.70250
X26.70250Y34.20250
X26.70250Y36.70250
X26.70250Y36.80250
X26.70250Y37.40250
T004
X3.50250Y13.70250
X3.50250Y13.80250
X4.91195Y31.29541
X4.91195Y31.41352
X4.91195Y31.53163
X5.30250Y19.40250
X5.30250Y19.60250
X6.00250Y13.70250
X6.00250Y13.80250
X7.20250Y7.70250
X7.20250Y10.40250
X7.30250Y7.70250
X7.30250Y10.40250
X7.70250Y7.30250
X7.70250Y7.40250
X7.70250Y10.00250
X7.70250Y10.10250
X7.80250Y1.90250
X7.80250Y5.00250
X7.90250Y1.90250
X7.90250Y5.00250
X8.30250Y1.50250
X8.30250Y1.60250
X8.30250Y4.60250
X8.30250Y4.70250
X8.50250Y13.70250
X8.50250Y13.80250
X8.80250Y35.80250
X8.80250Y35.90250
X9.70250Y35.80250
X9.70250Y35.90250
X10.60250Y35.80250
X10.60250Y35.90250
X11.00250Y13.70250
X11.00250Y13.80250
X11.50250Y35.80250
X11.50250Y35.90250
X11.80250Y7.70250
X11.80250Y10.40250
X11.90250Y7.70250
X11.90250Y10.40250
X12.10250Y1.90250
X12.10250Y5.00250
X12.20250Y1.90250
X12.20250Y5.00250
X12.30250Y7.30250
X12.30250Y7.40250
X12.30250Y10.00250
X12.30250Y10.10250
X12.40250Y35.80250
X12.40250Y35.90250
X12.60250Y1.50250
X12.60250Y1.60250
X12.60250Y4.60250
X12.60250Y4.70250
X13.30250Y35.80250
X13.30250Y35.90250
X14.20250Y35.80250
X14.20250Y35.90250
X16.30250Y32.20250
X16.30250Y32.30250
X16.40250Y1.90250
X16.40250Y5.00250
X16.40250Y7.70250
X16.40250Y10.40250
X16.40250Y13.70250
X16.40250Y13.80250
X16.50250Y1.90250
X16.50250Y5.00250
X16.50250Y7.70250
X16.50250Y10.40250
X16.90250Y1.50250
X16.90250Y1.60250
X16.90250Y4.60250
X16.90250Y4.70250
X16.90250Y7.30250
X16.90250Y7.40250
X16.90250Y10.00250
X16.90250Y10.10250
X17.20250Y32.20250
X17.20250Y32.30250
X17.30250Y13.70250
X17.30250Y13.80250
X18.10250Y32.20250
X18.10250Y32.30250
X18.20250Y13.70250
X18.20250Y13.80250
X19.00250Y32.20250
X19.00250Y32.30250
X19.10250Y13.70250
X19.10250Y13.80250
X19.90250Y32.20250
X19.90250Y32.30250
X20.00250Y13.70250
X20.00250Y13.80250
X20.70250Y1.90250
X20.70250Y5.00250
X20.80250Y1.90250
X20.80250Y5.00250
X20.80250Y32.20250
X20.80250Y32.30250
X20.90250Y13.70250
X20.90250Y13.80250
X21.00250Y7.70250
X21.00250Y10.40250
X21.10250Y7.70250
X21.10250Y10.40250
X21.20250Y1.50250
X21.20250Y1.60250
X21.20250Y4.60250
X21.20250Y4.70250
X21.50250Y7.30250
X21.50250Y7.40250
X21.50250Y10.00250
X21.50250Y10.10250
X21.70250Y32.20250
X21.70250Y32.30250
X21.80250Y13.70250
X21.80250Y13.80250
X22.60250Y32.20250
X22.60250Y32.30250
X22.70250Y13.70250
X22.70250Y13.80250
T005
X17.36077Y35.66156
X17.47100Y36.13400
X18.33163Y36.13400
X18.44344Y35.66156
T006
X1.91746Y10.42140
X1.96864Y10.28360
X1.97258Y10.54738
X2.10250Y10.60250
X2.21746Y14.22140
X2.23242Y10.54344
X2.23636Y10.28360
X2.26864Y14.08360
X2.27258Y14.34738
X2.28754Y10.42140
X2.40250Y14.40250
X2.53242Y14.34344
X2.53636Y14.08360
X2.58754Y14.22140
X2.71746Y10.42140
X2.76864Y10.28360
X2.77258Y10.54738
X2.90250Y10.60250
X3.01746Y14.22140
X3.03242Y10.54344
X3.03636Y10.28360
X3.06864Y14.08360
X3.07258Y14.34738
X3.08754Y10.42140
X3.20250Y14.40250
X3.31746Y32.02140
X3.33242Y14.34344
X3.33636Y14.08360
X3.36864Y31.88360
X3.37258Y32.14738
X3.38754Y14.22140
X3.50250Y32.20250
X3.63242Y32.14344
X3.63636Y31.88360
X3.68754Y32.02140
X3.91746Y14.22140
X3.96864Y14.08360
X3.97258Y14.34738
X4.10250Y14.40250
X4.23242Y14.34344
X4.23636Y14.08360
X4.28754Y14.22140
X4.41746Y32.02140
X4.46864Y31.88360
X4.47258Y32.14738
X4.51746Y19.92140
X4.56864Y19.78360
X4.57258Y20.04738
X4.60250Y32.20250
X4.70250Y20.10250
X4.71746Y14.22140
X4.73242Y32.14344
X4.73636Y31.88360
X4.76864Y14.08360
X4.77258Y14.34738
X4.78754Y32.02140
X4.83242Y20.04344
X4.83636Y19.78360
X4.88754Y19.92140
X4.90250Y14.40250
X4.91746Y7.92140
X4.91746Y10.62140
X4.96864Y7.78360
X4.96864Y10.48360
X4.97258Y8.04738
X4.97258Y10.74738
X5.03242Y14.34344
X5.03636Y14.08360
X5.08754Y14.22140
X5.10250Y8.10250
X5.10250Y10.80250
X5.23242Y8.04344
X5.23242Y10.74344
X5.23636Y7.78360
X5.23636Y10.48360
X5.28754Y7.92140
X5.28754Y10.62140
X5.51746Y2.12140
X5.51746Y5.22140
X5.51746Y14.22140
X5.56864Y1.98360
X5.56864Y5.08360
X5.56864Y14.08360
X5.57258Y2.24738
X5.57258Y5.34738
X5.57258Y14.34738
X5.70250Y2.30250
X5.70250Y5.40250
X5.70250Y14.40250
X5.71746Y19.92140
X5.76864Y19.78360
X5.77258Y20.04738
X5.81746Y7.92140
X5.81746Y10.62140
X5.83242Y2.24344
X5.83242Y5.34344
X5.83242Y14.34344
X5.83636Y1.98360
X5.83636Y5.08360
X5.83636Y14.08360
X5.86864Y7.78360
X5.86864Y10.48360
X5.87258Y8.04738
X5.87258Y10.74738
X5.88754Y2.12140
X5.88754Y5.22140
X5.88754Y14.22140
X5.90250Y20.10250
X6.00250Y8.10250
X6.00250Y10.80250
X6.03242Y20.04344
X6.03636Y19.78360
X6.08754Y19.92140
X6.13242Y8.04344
X6.13242Y10.74344
X6.13636Y7.78360
X6.13636Y10.48360
X6.18754Y7.92140
X6.18754Y10.62140
X6.41746Y2.12140
X6.41746Y5.22140
X6.41746Y14.22140
X6.46864Y1.98360
X6.46864Y5.08360
X6.46864Y14.08360
X6.47258Y2.24738
X6.47258Y5.34738
X6.47258Y14.34738
X6.60250Y2.30250
X6.60250Y5.40250
X6.60250Y14.40250
X6.73242Y2.24344
X6.73242Y5.34344
X6.73242Y14.34344
X6.73636Y1.98360
X6.73636Y5.08360
X6.73636Y14.08360
X6.78754Y2.12140
X6.78754Y5.22140
X6.78754Y14.22140
X7.21746Y14.22140
X7.26864Y14.08360
X7.27258Y14.34738
X7.40250Y14.40250
X7.41746Y7.92140
X7.41746Y10.62140
X7.46864Y7.78360
X7.46864Y10.48360
X7.47258Y8.04738
X7.47258Y10.74738
X7.53242Y14.34344
X7.53636Y14.08360
X7.58754Y14.22140
X7.60250Y8.10250
X7.60250Y10.80250
X7.73242Y8.04344
X7.73242Y10.74344
X7.73636Y7.78360
X7.73636Y10.48360
X7.78754Y7.92140
X7.78754Y10.62140
X8.01746Y2.12140
X8.01746Y5.22140
X8.01746Y14.22140
X8.06864Y1.98360
X8.06864Y5.08360
X8.06864Y14.08360
X8.07258Y2.24738
X8.07258Y5.34738
X8.07258Y14.34738
X8.20250Y2.30250
X8.20250Y5.40250
X8.20250Y14.40250
X8.31746Y36.32140
X8.33242Y2.24344
X8.33242Y5.34344
X8.33242Y14.34344
X8.33636Y1.98360
X8.33636Y5.08360
X8.33636Y14.08360
X8.36864Y36.18360
X8.37258Y36.44738
X8.38754Y2.12140
X8.38754Y5.22140
X8.38754Y14.22140
X8.41746Y7.92140
X8.41746Y10.62140
X8.46864Y7.78360
X8.46864Y10.48360
X8.47258Y8.04738
X8.47258Y10.74738
X8.50250Y36.50250
X8.60250Y8.10250
X8.60250Y10.80250
X8.63242Y36.44344
X8.63636Y36.18360
X8.68754Y36.32140
X8.73242Y8.04344
X8.73242Y10.74344
X8.73636Y7.78360
X8.73636Y10.48360
X8.78754Y7.92140
X8.78754Y10.62140
X8.81746Y2.12140
X8.81746Y5.22140
X8.86864Y1.98360
X8.86864Y5.08360
X8.87258Y2.24738
X8.87258Y5.34738
X8.91746Y14.22140
X8.96864Y14.08360
X8.97258Y14.34738
X9.00250Y2.30250
X9.00250Y5.40250
X9.10250Y14.40250
X9.13242Y2.24344
X9.13242Y5.34344
X9.13636Y1.98360
X9.13636Y5.08360
X9.18754Y2.12140
X9.18754Y5.22140
X9.21746Y36.32140
X9.23242Y14.34344
X9.23636Y14.08360
X9.26864Y36.18360
X9.27258Y36.44738
X9.28754Y14.22140
X9.40250Y36.50250
X9.41746Y32.72140
X9.46864Y32.58360
X9.47258Y32.84738
X9.51746Y7.92140
X9.51746Y10.62140
X9.53242Y36.44344
X9.53636Y36.18360
X9.56864Y7.78360
X9.56864Y10.48360
X9.57258Y8.04738
X9.57258Y10.74738
X9.58754Y36.32140
X9.60250Y32.90250
X9.70250Y8.10250
X9.70250Y10.80250
X9.71746Y14.22140
X9.73242Y32.84344
X9.73636Y32.58360
X9.76864Y14.08360
X9.77258Y14.34738
X9.78754Y32.72140
X9.81746Y2.12140
X9.81746Y5.22140
X9.83242Y8.04344
X9.83242Y10.74344
X9.83636Y7.78360
X9.83636Y10.48360
X9.86864Y1.98360
X9.86864Y5.08360
X9.87258Y2.24738
X9.87258Y5.34738
X9.88754Y7.92140
X9.88754Y10.62140
X9.90250Y14.40250
X10.00250Y2.30250
X10.00250Y5.40250
X10.03242Y14.34344
X10.03636Y14.08360
X10.08754Y14.22140
X10.11746Y36.32140
X10.13242Y2.24344
X10.13242Y5.34344
X10.13636Y1.98360
X10.13636Y5.08360
X10.16864Y36.18360
X10.17258Y36.44738
X10.18754Y2.12140
X10.18754Y5.22140
X10.21746Y32.72140
X10.26864Y32.58360
X10.27258Y32.84738
X10.30250Y36.50250
X10.40250Y32.90250
X10.41746Y7.92140
X10.41746Y10.62140
X10.43242Y36.44344
X10.43636Y36.18360
X10.46864Y7.78360
X10.46864Y10.48360
X10.47258Y8.04738
X10.47258Y10.74738
X10.48754Y36.32140
X10.51746Y14.22140
X10.53242Y32.84344
X10.53636Y32.58360
X10.56864Y14.08360
X10.57258Y14.34738
X10.58754Y32.72140
X10.60250Y8.10250
X10.60250Y10.80250
X10.70250Y14.40250
X10.71746Y2.12140
X10.71746Y5.22140
X10.73242Y8.04344
X10.73242Y10.74344
X10.73636Y7.78360
X10.73636Y10.48360
X10.76864Y1.98360
X10.76864Y5.08360
X10.77258Y2.24738
X10.77258Y5.34738
X10.78754Y7.92140
X10.78754Y10.62140
X10.83242Y14.34344
X10.83636Y14.08360
X10.88754Y14.22140
X10.90250Y2.30250
X10.90250Y5.40250
X11.01746Y32.72140
X11.01746Y36.32140
X11.03242Y2.24344
X11.03242Y5.34344
X11.03636Y1.98360
X11.03636Y5.08360
X11.06864Y32.58360
X11.06864Y36.18360
X11.07258Y32.84738
X11.07258Y36.44738
X11.08754Y2.12140
X11.08754Y5.22140
X11.20250Y32.90250
X11.20250Y36.50250
X11.33242Y32.84344
X11.33242Y36.44344
X11.33636Y32.58360
X11.33636Y36.18360
X11.38754Y32.72140
X11.38754Y36.32140
X11.41746Y14.22140
X11.46864Y14.08360
X11.47258Y14.34738
X11.60250Y14.40250
X11.73242Y14.34344
X11.73636Y14.08360
X11.78754Y14.22140
X11.81746Y32.72140
X11.86864Y32.58360
X11.87258Y32.84738
X11.91746Y36.32140
X11.96864Y36.18360
X11.97258Y36.44738
X12.00250Y32.90250
X12.01746Y7.92140
X12.01746Y10.62140
X12.06864Y7.78360
X12.06864Y10.48360
X12.07258Y8.04738
X12.07258Y10.74738
X12.10250Y36.50250
X12.13242Y32.84344
X12.13636Y32.58360
X12.18754Y32.72140
X12.20250Y8.10250
X12.20250Y10.80250
X12.23242Y36.44344
X12.23636Y36.18360
X12.28754Y36.32140
X12.31746Y2.12140
X12.31746Y5.22140
X12.33242Y8.04344
X12.33242Y10.74344
X12.33636Y7.78360
X12.33636Y10.48360
X12.36864Y1.98360
X12.36864Y5.08360
X12.37258Y2.24738
X12.37258Y5.34738
X12.38754Y7.92140
X12.38754Y10.62140
X12.50250Y2.30250
X12.50250Y5.40250
X12.61746Y32.72140
X12.63242Y2.24344
X12.63242Y5.34344
X12.63636Y1.98360
X12.63636Y5.08360
X12.66864Y32.58360
X12.67258Y32.84738
X12.68754Y2.12140
X12.68754Y5.22140
X12.80250Y32.90250
X12.81746Y36.32140
X12.86864Y36.18360
X12.87258Y36.44738
X12.93242Y32.84344
X12.93636Y32.58360
X12.98754Y32.72140
X13.00250Y36.50250
X13.01746Y7.92140
X13.01746Y10.62140
X13.06864Y7.78360
X13.06864Y10.48360
X13.07258Y8.04738
X13.07258Y10.74738
X13.11746Y2.12140
X13.11746Y5.22140
X13.13242Y36.44344
X13.13636Y36.18360
X13.16864Y1.98360
X13.16864Y5.08360
X13.17258Y2.24738
X13.17258Y5.34738
X13.18754Y36.32140
X13.20250Y8.10250
X13.20250Y10.80250
X13.30250Y2.30250
X13.30250Y5.40250
X13.33242Y8.04344
X13.33242Y10.74344
X13.33636Y7.78360
X13.33636Y10.48360
X13.38754Y7.92140
X13.38754Y10.62140
X13.41746Y32.72140
X13.43242Y2.24344
X13.43242Y5.34344
X13.43636Y1.98360
X13.43636Y5.08360
X13.46864Y32.58360
X13.47258Y32.84738
X13.48754Y2.12140
X13.48754Y5.22140
X13.60250Y32.90250
X13.71746Y36.32140
X13.73242Y32.84344
X13.73636Y32.58360
X13.76864Y36.18360
X13.77258Y36.44738
X13.78754Y32.72140
X13.90250Y36.50250
X14.03242Y36.44344
X14.03636Y36.18360
X14.08754Y36.32140
X14.11746Y2.12140
X14.11746Y5.22140
X14.11746Y7.92140
X14.11746Y10.62140
X14.16864Y1.98360
X14.16864Y5.08360
X14.16864Y7.78360
X14.16864Y10.48360
X14.17258Y2.24738
X14.17258Y5.34738
X14.17258Y8.04738
X14.17258Y10.74738
X14.21746Y32.72140
X14.26864Y32.58360
X14.27258Y32.84738
X14.30250Y2.30250
X14.30250Y5.40250
X14.30250Y8.10250
X14.30250Y10.80250
X14.40250Y32.90250
X14.43242Y2.24344
X14.43242Y5.34344
X14.43242Y8.04344
X14.43242Y10.74344
X14.43636Y1.98360
X14.43636Y5.08360
X14.43636Y7.78360
X14.43636Y10.48360
X14.48754Y2.12140
X14.48754Y5.22140
X14.48754Y7.92140
X14.48754Y10.62140
X14.53242Y32.84344
X14.53636Y32.58360
X14.58754Y32.72140
X14.61746Y36.32140
X14.66864Y36.18360
X14.67258Y36.44738
X14.80250Y36.50250
X14.93242Y36.44344
X14.93636Y36.18360
X14.98754Y36.32140
X15.01746Y2.12140
X15.01746Y5.22140
X15.01746Y7.92140
X15.01746Y10.62140
X15.01746Y32.72140
X15.06864Y1.98360
X15.06864Y5.08360
X15.06864Y7.78360
X15.06864Y10.48360
X15.06864Y32.58360
X15.07258Y2.24738
X15.07258Y5.34738
X15.07258Y8.04738
X15.07258Y10.74738
X15.07258Y32.84738
X15.20250Y2.30250
X15.20250Y5.40250
X15.20250Y8.10250
X15.20250Y10.80250
X15.20250Y32.90250
X15.33242Y2.24344
X15.33242Y5.34344
X15.33242Y8.04344
X15.33242Y10.74344
X15.33242Y32.84344
X15.33636Y1.98360
X15.33636Y5.08360
X15.33636Y7.78360
X15.33636Y10.48360
X15.33636Y32.58360
X15.38754Y2.12140
X15.38754Y5.22140
X15.38754Y7.92140
X15.38754Y10.62140
X15.38754Y32.72140
X15.81746Y32.72140
X15.86864Y32.58360
X15.87258Y32.84738
X15.91746Y14.22140
X15.96864Y14.08360
X15.97258Y14.34738
X16.00250Y32.90250
X16.10250Y14.40250
X16.13242Y32.84344
X16.13636Y32.58360
X16.18754Y32.72140
X16.23242Y14.34344
X16.23636Y14.08360
X16.28754Y14.22140
X16.61746Y2.12140
X16.61746Y5.22140
X16.61746Y7.92140
X16.61746Y10.62140
X16.66864Y1.98360
X16.66864Y5.08360
X16.66864Y7.78360
X16.66864Y10.48360
X16.67258Y2.24738
X16.67258Y5.34738
X16.67258Y8.04738
X16.67258Y10.74738
X16.71746Y32.72140
X16.76864Y32.58360
X16.77258Y32.84738
X16.80250Y2.30250
X16.80250Y5.40250
X16.80250Y8.10250
X16.80250Y10.80250
X16.81746Y14.22140
X16.86864Y14.08360
X16.87258Y14.34738
X16.90250Y32.90250
X16.93242Y2.24344
X16.93242Y5.34344
X16.93242Y8.04344
X16.93242Y10.74344
X16.93636Y1.98360
X16.93636Y5.08360
X16.93636Y7.78360
X16.93636Y10.48360
X16.98754Y2.12140
X16.98754Y5.22140
X16.98754Y7.92140
X16.98754Y10.62140
X17.00250Y14.40250
X17.03242Y32.84344
X17.03636Y32.58360
X17.08754Y32.72140
X17.13242Y14.34344
X17.13636Y14.08360
X17.18754Y14.22140
X17.21746Y36.94030
X17.26864Y36.80250
X17.27258Y37.06628
X17.40250Y37.12140
X17.41746Y2.12140
X17.41746Y5.22140
X17.46864Y1.98360
X17.46864Y5.08360
X17.47258Y2.24738
X17.47258Y5.34738
X17.53242Y37.06234
X17.53636Y36.80250
X17.58754Y36.94030
X17.60250Y2.30250
X17.60250Y5.40250
X17.61746Y7.92140
X17.61746Y10.62140
X17.61746Y32.72140
X17.66864Y7.78360
X17.66864Y10.48360
X17.66864Y32.58360
X17.67258Y8.04738
X17.67258Y10.74738
X17.67258Y32.84738
X17.71746Y14.22140
X17.73242Y2.24344
X17.73242Y5.34344
X17.73636Y1.98360
X17.73636Y5.08360
X17.76864Y14.08360
X17.77258Y14.34738
X17.78754Y2.12140
X17.78754Y5.22140
X17.80250Y8.10250
X17.80250Y10.80250
X17.80250Y32.90250
X17.90250Y14.40250
X17.93242Y8.04344
X17.93242Y10.74344
X17.93242Y32.84344
X17.93636Y7.78360
X17.93636Y10.48360
X17.93636Y32.58360
X17.98754Y7.92140
X17.98754Y10.62140
X17.98754Y32.72140
X18.03242Y14.34344
X18.03636Y14.08360
X18.08754Y14.22140
X18.11746Y36.94030
X18.16864Y36.80250
X18.17258Y37.06628
X18.30250Y37.12140
X18.41746Y2.12140
X18.41746Y5.22140
X18.43242Y37.06234
X18.43636Y36.80250
X18.46864Y1.98360
X18.46864Y5.08360
X18.47258Y2.24738
X18.47258Y5.34738
X18.48754Y36.94030
X18.51746Y32.72140
X18.56864Y32.58360
X18.57258Y32.84738
X18.60250Y2.30250
X18.60250Y5.40250
X18.61746Y14.22140
X18.66864Y14.08360
X18.67258Y14.34738
X18.70250Y32.90250
X18.71746Y7.92140
X18.71746Y10.62140
X18.73242Y2.24344
X18.73242Y5.34344
X18.73636Y1.98360
X18.73636Y5.08360
X18.76864Y7.78360
X18.76864Y10.48360
X18.77258Y8.04738
X18.77258Y10.74738
X18.78754Y2.12140
X18.78754Y5.22140
X18.80250Y14.40250
X18.83242Y32.84344
X18.83636Y32.58360
X18.88754Y32.72140
X18.90250Y8.10250
X18.90250Y10.80250
X18.93242Y14.34344
X18.93636Y14.08360
X18.98754Y14.22140
X19.03242Y8.04344
X19.03242Y10.74344
X19.03636Y7.78360
X19.03636Y10.48360
X19.08754Y7.92140
X19.08754Y10.62140
X19.31746Y2.12140
X19.31746Y5.22140
X19.36864Y1.98360
X19.36864Y5.08360
X19.37258Y2.24738
X19.37258Y5.34738
X19.41746Y32.72140
X19.46864Y32.58360
X19.47258Y32.84738
X19.50250Y2.30250
X19.50250Y5.40250
X19.51746Y14.22140
X19.56864Y14.08360
X19.57258Y14.34738
X19.60250Y32.90250
X19.61746Y7.92140
X19.61746Y10.62140
X19.63242Y2.24344
X19.63242Y5.34344
X19.63636Y1.98360
X19.63636Y5.08360
X19.66864Y7.78360
X19.66864Y10.48360
X19.67258Y8.04738
X19.67258Y10.74738
X19.68754Y2.12140
X19.68754Y5.22140
X19.70250Y14.40250
X19.73242Y32.84344
X19.73636Y32.58360
X19.78754Y32.72140
X19.80250Y8.10250
X19.80250Y10.80250
X19.83242Y14.34344
X19.83636Y14.08360
X19.88754Y14.22140
X19.93242Y8.04344
X19.93242Y10.74344
X19.93636Y7.78360
X19.93636Y10.48360
X19.98754Y7.92140
X19.98754Y10.62140
X20.31746Y32.72140
X20.36864Y32.58360
X20.37258Y32.84738
X20.41746Y14.22140
X20.46864Y14.08360
X20.47258Y14.34738
X20.50250Y32.90250
X20.60250Y14.40250
X20.63242Y32.84344
X20.63636Y32.58360
X20.68754Y32.72140
X20.73242Y14.34344
X20.73636Y14.08360
X20.78754Y14.22140
X20.91746Y2.12140
X20.91746Y5.22140
X20.96864Y1.98360
X20.96864Y5.08360
X20.97258Y2.24738
X20.97258Y5.34738
X21.10250Y2.30250
X21.10250Y5.40250
X21.21746Y7.92140
X21.21746Y10.62140
X21.21746Y27.82140
X21.21746Y32.72140
X21.23242Y2.24344
X21.23242Y5.34344
X21.23636Y1.98360
X21.23636Y5.08360
X21.26864Y7.78360
X21.26864Y10.48360
X21.26864Y27.68360
X21.26864Y32.58360
X21.27258Y8.04738
X21.27258Y10.74738
X21.27258Y27.94738
X21.27258Y32.84738
X21.28754Y2.12140
X21.28754Y5.22140
X21.31746Y14.22140
X21.36864Y14.08360
X21.37258Y14.34738
X21.40250Y8.10250
X21.40250Y10.80250
X21.40250Y28.00250
X21.40250Y32.90250
X21.50250Y14.40250
X21.53242Y8.04344
X21.53242Y10.74344
X21.53242Y27.94344
X21.53242Y32.84344
X21.53636Y7.78360
X21.53636Y10.48360
X21.53636Y27.68360
X21.53636Y32.58360
X21.58754Y7.92140
X21.58754Y10.62140
X21.58754Y27.82140
X21.58754Y32.72140
X21.63242Y14.34344
X21.63636Y14.08360
X21.68754Y14.22140
X21.71746Y2.12140
X21.71746Y5.22140
X21.76864Y1.98360
X21.76864Y5.08360
X21.77258Y2.24738
X21.77258Y5.34738
X21.90250Y2.30250
X21.90250Y5.40250
X22.01746Y27.82140
X22.03242Y2.24344
X22.03242Y5.34344
X22.03636Y1.98360
X22.03636Y5.08360
X22.06864Y27.68360
X22.07258Y27.94738
X22.08754Y2.12140
X22.08754Y5.22140
X22.11746Y32.72140
X22.16864Y32.58360
X22.17258Y32.84738
X22.20250Y28.00250
X22.21746Y7.92140
X22.21746Y10.62140
X22.21746Y14.22140
X22.26864Y7.78360
X22.26864Y10.48360
X22.26864Y14.08360
X22.27258Y8.04738
X22.27258Y10.74738
X22.27258Y14.34738
X22.30250Y32.90250
X22.33242Y27.94344
X22.33636Y27.68360
X22.38754Y27.82140
X22.40250Y8.10250
X22.40250Y10.80250
X22.40250Y14.40250
X22.43242Y32.84344
X22.43636Y32.58360
X22.48754Y32.72140
X22.53242Y8.04344
X22.53242Y10.74344
X22.53242Y14.34344
X22.53636Y7.78360
X22.53636Y10.48360
X22.53636Y14.08360
X22.58754Y7.92140
X22.58754Y10.62140
X22.58754Y14.22140
X23.61746Y7.92140
X23.61746Y10.62140
X23.61746Y16.42140
X23.61746Y17.98360
X23.66864Y7.78360
X23.66864Y10.48360
X23.66864Y16.28360
X23.66864Y18.12140
X23.67258Y8.04738
X23.67258Y10.74738
X23.67258Y16.54738
X23.67258Y17.86156
X23.80250Y8.10250
X23.80250Y10.80250
X23.80250Y16.60250
X23.80250Y17.80250
X23.93242Y8.04344
X23.93242Y10.74344
X23.93242Y16.54344
X23.93242Y17.85762
X23.93636Y7.78360
X23.93636Y10.48360
X23.93636Y16.28360
X23.93636Y18.12140
X23.98754Y7.92140
X23.98754Y10.62140
X23.98754Y16.42140
X23.98754Y17.98360
T007
X20.70250Y37.00250
X21.40250Y37.00250
X22.10250Y37.00250
M30
