G04 DesignSpark PCB Gerber Version 12.0 Build 5941*
G04 #@! TF.Part,Single*
%FSLAX35Y35*%
%MOIN*%
%ADD11C,0.00500*%
G04 #@! TD.AperFunction*
X0Y0D02*
D02*
D11*
X20250Y3520250D02*
G75*
G03*
X10250Y3510250I-5000J-5000D01*
G01*
G75*
G03*
X20250Y3520250I5000J5000D01*
G01*
X150250Y2490250D02*
G75*
G03*
X140250Y2480250I-5000J-5000D01*
G01*
G75*
G03*
X150250Y2490250I5000J5000D01*
G01*
Y2880250D02*
G75*
G03*
X140250Y2870250I-5000J-5000D01*
G01*
G75*
G03*
X150250Y2880250I5000J5000D01*
G01*
Y2970250D02*
G75*
G03*
X140250Y2960250I-5000J-5000D01*
G01*
G75*
G03*
X150250Y2970250I5000J5000D01*
G01*
Y3360250D02*
G75*
G03*
X140250Y3350250I-5000J-5000D01*
G01*
G75*
G03*
X150250Y3360250I5000J5000D01*
G01*
X151746Y2586470D02*
G75*
G03*
Y2577809I0J-4331D01*
G01*
G75*
G03*
Y2586470I0J4331D01*
G01*
Y2754030D02*
G75*
G03*
Y2762691I0J4331D01*
G01*
G75*
G03*
Y2754030I0J-4331D01*
G01*
Y3066470D02*
G75*
G03*
Y3057809I0J-4331D01*
G01*
G75*
G03*
Y3066470I0J4331D01*
G01*
Y3234030D02*
G75*
G03*
Y3242691I0J4331D01*
G01*
G75*
G03*
Y3234030I0J-4331D01*
G01*
X156864Y2572691D02*
G75*
G03*
Y2564030I0J-4331D01*
G01*
G75*
G03*
Y2572691I0J4331D01*
G01*
Y2767809D02*
G75*
G03*
Y2776470I0J4331D01*
G01*
G75*
G03*
Y2767809I0J-4331D01*
G01*
Y3052691D02*
G75*
G03*
Y3044030I0J-4331D01*
G01*
G75*
G03*
Y3052691I0J4331D01*
G01*
Y3247809D02*
G75*
G03*
Y3256470I0J4331D01*
G01*
G75*
G03*
Y3247809I0J-4331D01*
G01*
X157258Y2599069D02*
G75*
G03*
Y2590407I0J-4331D01*
G01*
G75*
G03*
Y2599069I0J4331D01*
G01*
Y2741825D02*
G75*
G03*
Y2750486I0J4331D01*
G01*
G75*
G03*
Y2741825I0J-4331D01*
G01*
Y3079069D02*
G75*
G03*
Y3070407I0J-4331D01*
G01*
G75*
G03*
Y3079069I0J4331D01*
G01*
Y3221825D02*
G75*
G03*
Y3230486I0J4331D01*
G01*
G75*
G03*
Y3221825I0J-4331D01*
G01*
X170250Y2604581D02*
G75*
G03*
Y2595919I0J-4331D01*
G01*
G75*
G03*
Y2604581I0J4331D01*
G01*
Y2735919D02*
G75*
G03*
Y2744581I0J4331D01*
G01*
G75*
G03*
Y2735919I0J-4331D01*
G01*
Y3084581D02*
G75*
G03*
Y3075919I0J-4331D01*
G01*
G75*
G03*
Y3084581I0J4331D01*
G01*
Y3215919D02*
G75*
G03*
Y3224581I0J4331D01*
G01*
G75*
G03*
Y3215919I0J-4331D01*
G01*
X183242Y2598675D02*
G75*
G03*
Y2590014I0J-4331D01*
G01*
G75*
G03*
Y2598675I0J4331D01*
G01*
Y2741431D02*
G75*
G03*
Y2750093I0J4331D01*
G01*
G75*
G03*
Y2741431I0J-4331D01*
G01*
Y3078675D02*
G75*
G03*
Y3070014I0J-4331D01*
G01*
G75*
G03*
Y3078675I0J4331D01*
G01*
Y3221431D02*
G75*
G03*
Y3230093I0J4331D01*
G01*
G75*
G03*
Y3221431I0J-4331D01*
G01*
X183636Y2572691D02*
G75*
G03*
Y2564030I0J-4331D01*
G01*
G75*
G03*
Y2572691I0J4331D01*
G01*
Y2767809D02*
G75*
G03*
Y2776470I0J4331D01*
G01*
G75*
G03*
Y2767809I0J-4331D01*
G01*
Y3052691D02*
G75*
G03*
Y3044030I0J-4331D01*
G01*
G75*
G03*
Y3052691I0J4331D01*
G01*
Y3247809D02*
G75*
G03*
Y3256470I0J4331D01*
G01*
G75*
G03*
Y3247809I0J-4331D01*
G01*
X188754Y2586470D02*
G75*
G03*
Y2577809I0J-4331D01*
G01*
G75*
G03*
Y2586470I0J4331D01*
G01*
Y2754030D02*
G75*
G03*
Y2762691I0J4331D01*
G01*
G75*
G03*
Y2754030I0J-4331D01*
G01*
Y3066470D02*
G75*
G03*
Y3057809I0J-4331D01*
G01*
G75*
G03*
Y3066470I0J4331D01*
G01*
Y3234030D02*
G75*
G03*
Y3242691I0J4331D01*
G01*
G75*
G03*
Y3234030I0J-4331D01*
G01*
X190250Y1080250D02*
G75*
G03*
X180250Y1070250I-5000J-5000D01*
G01*
G75*
G03*
X190250Y1080250I5000J5000D01*
G01*
Y1370250D02*
G75*
G03*
X180250Y1360250I-5000J-5000D01*
G01*
G75*
G03*
X190250Y1370250I5000J5000D01*
G01*
Y1560250D02*
G75*
G03*
X180250Y1550250I-5000J-5000D01*
G01*
G75*
G03*
X190250Y1560250I5000J5000D01*
G01*
Y1850250D02*
G75*
G03*
X180250Y1840250I-5000J-5000D01*
G01*
G75*
G03*
X190250Y1850250I5000J5000D01*
G01*
Y2040250D02*
G75*
G03*
X180250Y2030250I-5000J-5000D01*
G01*
G75*
G03*
X190250Y2040250I5000J5000D01*
G01*
Y2330250D02*
G75*
G03*
X180250Y2320250I-5000J-5000D01*
G01*
G75*
G03*
X190250Y2330250I5000J5000D01*
G01*
X220250Y120250D02*
G75*
G03*
X210250Y110250I-5000J-5000D01*
G01*
G75*
G03*
X220250Y120250I5000J5000D01*
G01*
Y360250D02*
G75*
G03*
X210250Y350250I-5000J-5000D01*
G01*
G75*
G03*
X220250Y360250I5000J5000D01*
G01*
Y570250D02*
G75*
G03*
X210250Y560250I-5000J-5000D01*
G01*
G75*
G03*
X220250Y570250I5000J5000D01*
G01*
Y880250D02*
G75*
G03*
X210250Y870250I-5000J-5000D01*
G01*
G75*
G03*
X220250Y880250I5000J5000D01*
G01*
X240250Y250D02*
X250D01*
Y480250D01*
X240250D01*
Y250D01*
Y480250D02*
X250D01*
Y960250D01*
X240250D01*
Y480250D01*
Y970250D02*
X250D01*
Y1450250D01*
X240250D01*
Y970250D01*
Y1450250D02*
X250D01*
Y1930250D01*
X240250D01*
Y1450250D01*
Y1940250D02*
X250D01*
Y2420250D01*
X240250D01*
Y1940250D01*
Y2430250D02*
X250D01*
Y2910250D01*
X240250D01*
Y2430250D01*
Y2910250D02*
X250D01*
Y3390250D01*
X240250D01*
Y2910250D01*
X250250Y1940250D02*
X320250D01*
Y2420250D01*
X250250D01*
Y1940250D01*
X300250Y250D02*
X250250D01*
Y960250D01*
X300250D01*
Y250D01*
X330250Y270250D02*
G75*
G03*
X320250Y260250I-5000J-5000D01*
G01*
G75*
G03*
X330250Y270250I5000J5000D01*
G01*
Y750250D02*
G75*
G03*
X320250Y740250I-5000J-5000D01*
G01*
G75*
G03*
X330250Y750250I5000J5000D01*
G01*
Y1940250D02*
X620250D01*
Y2330250D01*
X330250D01*
Y1940250D01*
Y2400250D02*
Y2340250D01*
X620250D01*
Y2400250D01*
X330250D01*
X350250Y2250250D02*
G75*
G03*
X340250Y2240250I-5000J-5000D01*
G01*
G75*
G03*
X350250Y2250250I5000J5000D01*
G01*
X370250Y2430250D02*
X250250D01*
Y3390250D01*
X370250D01*
Y2430250D01*
X380250D02*
X970250D01*
Y2670250D01*
X380250D01*
Y2430250D01*
Y2670250D02*
X970250D01*
Y2910250D01*
X380250D01*
Y2670250D01*
Y2910250D02*
X970250D01*
Y3150250D01*
X380250D01*
Y2910250D01*
Y3150250D02*
X970250D01*
Y3390250D01*
X380250D01*
Y3150250D01*
X381746Y616470D02*
G75*
G03*
Y607809I0J-4331D01*
G01*
G75*
G03*
Y616470I0J4331D01*
G01*
Y784030D02*
G75*
G03*
Y792691I0J4331D01*
G01*
G75*
G03*
Y784030I0J-4331D01*
G01*
X386864Y602691D02*
G75*
G03*
Y594030I0J-4331D01*
G01*
G75*
G03*
Y602691I0J4331D01*
G01*
Y797809D02*
G75*
G03*
Y806470I0J4331D01*
G01*
G75*
G03*
Y797809I0J-4331D01*
G01*
X387258Y629069D02*
G75*
G03*
Y620407I0J-4331D01*
G01*
G75*
G03*
Y629069I0J4331D01*
G01*
Y771825D02*
G75*
G03*
Y780486I0J4331D01*
G01*
G75*
G03*
Y771825I0J-4331D01*
G01*
X400250Y634581D02*
G75*
G03*
Y625919I0J-4331D01*
G01*
G75*
G03*
Y634581I0J4331D01*
G01*
Y765919D02*
G75*
G03*
Y774581I0J4331D01*
G01*
G75*
G03*
Y765919I0J-4331D01*
G01*
Y2560250D02*
G75*
G03*
X390250Y2550250I-5000J-5000D01*
G01*
G75*
G03*
X400250Y2560250I5000J5000D01*
G01*
Y2800250D02*
G75*
G03*
X390250Y2790250I-5000J-5000D01*
G01*
G75*
G03*
X400250Y2800250I5000J5000D01*
G01*
Y3040250D02*
G75*
G03*
X390250Y3030250I-5000J-5000D01*
G01*
G75*
G03*
X400250Y3040250I5000J5000D01*
G01*
Y3280250D02*
G75*
G03*
X390250Y3270250I-5000J-5000D01*
G01*
G75*
G03*
X400250Y3280250I5000J5000D01*
G01*
X401746Y136470D02*
G75*
G03*
Y127809I0J-4331D01*
G01*
G75*
G03*
Y136470I0J4331D01*
G01*
Y304030D02*
G75*
G03*
Y312691I0J4331D01*
G01*
G75*
G03*
Y304030I0J-4331D01*
G01*
X406864Y122691D02*
G75*
G03*
Y114030I0J-4331D01*
G01*
G75*
G03*
Y122691I0J4331D01*
G01*
Y317809D02*
G75*
G03*
Y326470I0J4331D01*
G01*
G75*
G03*
Y317809I0J-4331D01*
G01*
X407258Y149069D02*
G75*
G03*
Y140407I0J-4331D01*
G01*
G75*
G03*
Y149069I0J4331D01*
G01*
Y291825D02*
G75*
G03*
Y300486I0J4331D01*
G01*
G75*
G03*
Y291825I0J-4331D01*
G01*
X410250Y970250D02*
X250250D01*
Y1930250D01*
X410250D01*
Y970250D01*
X411746Y2214030D02*
G75*
G03*
Y2222691I0J4331D01*
G01*
G75*
G03*
Y2214030I0J-4331D01*
G01*
Y2576470D02*
G75*
G03*
Y2567809I0J-4331D01*
G01*
G75*
G03*
Y2576470I0J4331D01*
G01*
Y2816470D02*
G75*
G03*
Y2807809I0J-4331D01*
G01*
G75*
G03*
Y2816470I0J4331D01*
G01*
Y3056470D02*
G75*
G03*
Y3047809I0J-4331D01*
G01*
G75*
G03*
Y3056470I0J4331D01*
G01*
Y3296470D02*
G75*
G03*
Y3287809I0J-4331D01*
G01*
G75*
G03*
Y3296470I0J4331D01*
G01*
X413242Y628675D02*
G75*
G03*
Y620014I0J-4331D01*
G01*
G75*
G03*
Y628675I0J4331D01*
G01*
Y771431D02*
G75*
G03*
Y780093I0J4331D01*
G01*
G75*
G03*
Y771431I0J-4331D01*
G01*
X413636Y602691D02*
G75*
G03*
Y594030I0J-4331D01*
G01*
G75*
G03*
Y602691I0J4331D01*
G01*
Y797809D02*
G75*
G03*
Y806470I0J4331D01*
G01*
G75*
G03*
Y797809I0J-4331D01*
G01*
X416864Y2227809D02*
G75*
G03*
Y2236470I0J4331D01*
G01*
G75*
G03*
Y2227809I0J-4331D01*
G01*
Y2562691D02*
G75*
G03*
Y2554030I0J-4331D01*
G01*
G75*
G03*
Y2562691I0J4331D01*
G01*
Y2802691D02*
G75*
G03*
Y2794030I0J-4331D01*
G01*
G75*
G03*
Y2802691I0J4331D01*
G01*
Y3042691D02*
G75*
G03*
Y3034030I0J-4331D01*
G01*
G75*
G03*
Y3042691I0J4331D01*
G01*
Y3282691D02*
G75*
G03*
Y3274030I0J-4331D01*
G01*
G75*
G03*
Y3282691I0J4331D01*
G01*
X417258Y2201825D02*
G75*
G03*
Y2210486I0J4331D01*
G01*
G75*
G03*
Y2201825I0J-4331D01*
G01*
Y2589069D02*
G75*
G03*
Y2580407I0J-4331D01*
G01*
G75*
G03*
Y2589069I0J4331D01*
G01*
Y2829069D02*
G75*
G03*
Y2820407I0J-4331D01*
G01*
G75*
G03*
Y2829069I0J4331D01*
G01*
Y3069069D02*
G75*
G03*
Y3060407I0J-4331D01*
G01*
G75*
G03*
Y3069069I0J4331D01*
G01*
Y3309069D02*
G75*
G03*
Y3300407I0J-4331D01*
G01*
G75*
G03*
Y3309069I0J4331D01*
G01*
X418754Y616470D02*
G75*
G03*
Y607809I0J-4331D01*
G01*
G75*
G03*
Y616470I0J4331D01*
G01*
Y784030D02*
G75*
G03*
Y792691I0J4331D01*
G01*
G75*
G03*
Y784030I0J-4331D01*
G01*
X420250Y154581D02*
G75*
G03*
Y145919I0J-4331D01*
G01*
G75*
G03*
Y154581I0J4331D01*
G01*
Y285919D02*
G75*
G03*
Y294581I0J4331D01*
G01*
G75*
G03*
Y285919I0J-4331D01*
G01*
Y970250D02*
X700250D01*
Y1350250D01*
X420250D01*
Y970250D01*
Y1350250D02*
X700250D01*
Y1930250D01*
X420250D01*
Y1350250D01*
X421746Y2046470D02*
G75*
G03*
Y2037809I0J-4331D01*
G01*
G75*
G03*
Y2046470I0J4331D01*
G01*
X426864Y2032691D02*
G75*
G03*
Y2024030I0J-4331D01*
G01*
G75*
G03*
Y2032691I0J4331D01*
G01*
X427258Y2059069D02*
G75*
G03*
Y2050407I0J-4331D01*
G01*
G75*
G03*
Y2059069I0J4331D01*
G01*
X430250Y2195919D02*
G75*
G03*
Y2204581I0J4331D01*
G01*
G75*
G03*
Y2195919I0J-4331D01*
G01*
Y2594581D02*
G75*
G03*
Y2585919I0J-4331D01*
G01*
G75*
G03*
Y2594581I0J4331D01*
G01*
Y2834581D02*
G75*
G03*
Y2825919I0J-4331D01*
G01*
G75*
G03*
Y2834581I0J4331D01*
G01*
Y3074581D02*
G75*
G03*
Y3065919I0J-4331D01*
G01*
G75*
G03*
Y3074581I0J4331D01*
G01*
Y3314581D02*
G75*
G03*
Y3305919I0J-4331D01*
G01*
G75*
G03*
Y3314581I0J4331D01*
G01*
X433242Y148675D02*
G75*
G03*
Y140014I0J-4331D01*
G01*
G75*
G03*
Y148675I0J4331D01*
G01*
Y291431D02*
G75*
G03*
Y300093I0J4331D01*
G01*
G75*
G03*
Y291431I0J-4331D01*
G01*
X433636Y122691D02*
G75*
G03*
Y114030I0J-4331D01*
G01*
G75*
G03*
Y122691I0J4331D01*
G01*
Y317809D02*
G75*
G03*
Y326470I0J4331D01*
G01*
G75*
G03*
Y317809I0J-4331D01*
G01*
X438754Y136470D02*
G75*
G03*
Y127809I0J-4331D01*
G01*
G75*
G03*
Y136470I0J4331D01*
G01*
Y304030D02*
G75*
G03*
Y312691I0J4331D01*
G01*
G75*
G03*
Y304030I0J-4331D01*
G01*
X440250Y1120250D02*
G75*
G03*
X430250Y1110250I-5000J-5000D01*
G01*
G75*
G03*
X440250Y1120250I5000J5000D01*
G01*
Y1240250D02*
G75*
G03*
X430250Y1230250I-5000J-5000D01*
G01*
G75*
G03*
X440250Y1240250I5000J5000D01*
G01*
Y1380250D02*
G75*
G03*
X430250Y1370250I-5000J-5000D01*
G01*
G75*
G03*
X440250Y1380250I5000J5000D01*
G01*
Y1720250D02*
G75*
G03*
X430250Y1710250I-5000J-5000D01*
G01*
G75*
G03*
X440250Y1720250I5000J5000D01*
G01*
Y2064581D02*
G75*
G03*
Y2055919I0J-4331D01*
G01*
G75*
G03*
Y2064581I0J4331D01*
G01*
X443242Y2201431D02*
G75*
G03*
Y2210093I0J4331D01*
G01*
G75*
G03*
Y2201431I0J-4331D01*
G01*
Y2588675D02*
G75*
G03*
Y2580014I0J-4331D01*
G01*
G75*
G03*
Y2588675I0J4331D01*
G01*
Y2828675D02*
G75*
G03*
Y2820014I0J-4331D01*
G01*
G75*
G03*
Y2828675I0J4331D01*
G01*
Y3068675D02*
G75*
G03*
Y3060014I0J-4331D01*
G01*
G75*
G03*
Y3068675I0J4331D01*
G01*
Y3308675D02*
G75*
G03*
Y3300014I0J-4331D01*
G01*
G75*
G03*
Y3308675I0J4331D01*
G01*
X443636Y2227809D02*
G75*
G03*
Y2236470I0J4331D01*
G01*
G75*
G03*
Y2227809I0J-4331D01*
G01*
Y2562691D02*
G75*
G03*
Y2554030I0J-4331D01*
G01*
G75*
G03*
Y2562691I0J4331D01*
G01*
Y2802691D02*
G75*
G03*
Y2794030I0J-4331D01*
G01*
G75*
G03*
Y2802691I0J4331D01*
G01*
Y3042691D02*
G75*
G03*
Y3034030I0J-4331D01*
G01*
G75*
G03*
Y3042691I0J4331D01*
G01*
Y3282691D02*
G75*
G03*
Y3274030I0J-4331D01*
G01*
G75*
G03*
Y3282691I0J4331D01*
G01*
X448754Y2214030D02*
G75*
G03*
Y2222691I0J4331D01*
G01*
G75*
G03*
Y2214030I0J-4331D01*
G01*
Y2576470D02*
G75*
G03*
Y2567809I0J-4331D01*
G01*
G75*
G03*
Y2576470I0J4331D01*
G01*
Y2816470D02*
G75*
G03*
Y2807809I0J-4331D01*
G01*
G75*
G03*
Y2816470I0J4331D01*
G01*
Y3056470D02*
G75*
G03*
Y3047809I0J-4331D01*
G01*
G75*
G03*
Y3056470I0J4331D01*
G01*
Y3296470D02*
G75*
G03*
Y3287809I0J-4331D01*
G01*
G75*
G03*
Y3296470I0J4331D01*
G01*
X453242Y2058675D02*
G75*
G03*
Y2050014I0J-4331D01*
G01*
G75*
G03*
Y2058675I0J4331D01*
G01*
X453636Y2032691D02*
G75*
G03*
Y2024030I0J-4331D01*
G01*
G75*
G03*
Y2032691I0J4331D01*
G01*
X458754Y2046470D02*
G75*
G03*
Y2037809I0J-4331D01*
G01*
G75*
G03*
Y2046470I0J4331D01*
G01*
X480250Y20250D02*
G75*
G03*
X470250Y10250I-5000J-5000D01*
G01*
G75*
G03*
X480250Y20250I5000J5000D01*
G01*
Y500250D02*
G75*
G03*
X470250Y490250I-5000J-5000D01*
G01*
G75*
G03*
X480250Y500250I5000J5000D01*
G01*
X481746Y1446470D02*
G75*
G03*
Y1437809I0J-4331D01*
G01*
G75*
G03*
Y1446470I0J4331D01*
G01*
Y1614030D02*
G75*
G03*
Y1622691I0J4331D01*
G01*
G75*
G03*
Y1614030I0J-4331D01*
G01*
X486864Y1432691D02*
G75*
G03*
Y1424030I0J-4331D01*
G01*
G75*
G03*
Y1432691I0J4331D01*
G01*
Y1627809D02*
G75*
G03*
Y1636470I0J4331D01*
G01*
G75*
G03*
Y1627809I0J-4331D01*
G01*
X487258Y1459069D02*
G75*
G03*
Y1450407I0J-4331D01*
G01*
G75*
G03*
Y1459069I0J4331D01*
G01*
Y1601825D02*
G75*
G03*
Y1610486I0J4331D01*
G01*
G75*
G03*
Y1601825I0J-4331D01*
G01*
X500250Y1464581D02*
G75*
G03*
Y1455919I0J-4331D01*
G01*
G75*
G03*
Y1464581I0J4331D01*
G01*
Y1595919D02*
G75*
G03*
Y1604581I0J4331D01*
G01*
G75*
G03*
Y1595919I0J-4331D01*
G01*
X501746Y1116470D02*
G75*
G03*
Y1107809I0J-4331D01*
G01*
G75*
G03*
Y1116470I0J4331D01*
G01*
Y2576470D02*
G75*
G03*
Y2567809I0J-4331D01*
G01*
G75*
G03*
Y2576470I0J4331D01*
G01*
Y2816470D02*
G75*
G03*
Y2807809I0J-4331D01*
G01*
G75*
G03*
Y2816470I0J4331D01*
G01*
Y3056470D02*
G75*
G03*
Y3047809I0J-4331D01*
G01*
G75*
G03*
Y3056470I0J4331D01*
G01*
Y3296470D02*
G75*
G03*
Y3287809I0J-4331D01*
G01*
G75*
G03*
Y3296470I0J4331D01*
G01*
X506864Y1102691D02*
G75*
G03*
Y1094030I0J-4331D01*
G01*
G75*
G03*
Y1102691I0J4331D01*
G01*
Y2562691D02*
G75*
G03*
Y2554030I0J-4331D01*
G01*
G75*
G03*
Y2562691I0J4331D01*
G01*
Y2802691D02*
G75*
G03*
Y2794030I0J-4331D01*
G01*
G75*
G03*
Y2802691I0J4331D01*
G01*
Y3042691D02*
G75*
G03*
Y3034030I0J-4331D01*
G01*
G75*
G03*
Y3042691I0J4331D01*
G01*
Y3282691D02*
G75*
G03*
Y3274030I0J-4331D01*
G01*
G75*
G03*
Y3282691I0J4331D01*
G01*
X507258Y1129069D02*
G75*
G03*
Y1120407I0J-4331D01*
G01*
G75*
G03*
Y1129069I0J4331D01*
G01*
Y2589069D02*
G75*
G03*
Y2580407I0J-4331D01*
G01*
G75*
G03*
Y2589069I0J4331D01*
G01*
Y2829069D02*
G75*
G03*
Y2820407I0J-4331D01*
G01*
G75*
G03*
Y2829069I0J4331D01*
G01*
Y3069069D02*
G75*
G03*
Y3060407I0J-4331D01*
G01*
G75*
G03*
Y3069069I0J4331D01*
G01*
Y3309069D02*
G75*
G03*
Y3300407I0J-4331D01*
G01*
G75*
G03*
Y3309069I0J4331D01*
G01*
X511746Y616470D02*
G75*
G03*
Y607809I0J-4331D01*
G01*
G75*
G03*
Y616470I0J4331D01*
G01*
Y784030D02*
G75*
G03*
Y792691I0J4331D01*
G01*
G75*
G03*
Y784030I0J-4331D01*
G01*
X513242Y1458675D02*
G75*
G03*
Y1450014I0J-4331D01*
G01*
G75*
G03*
Y1458675I0J4331D01*
G01*
Y1601431D02*
G75*
G03*
Y1610093I0J4331D01*
G01*
G75*
G03*
Y1601431I0J-4331D01*
G01*
X513636Y1432691D02*
G75*
G03*
Y1424030I0J-4331D01*
G01*
G75*
G03*
Y1432691I0J4331D01*
G01*
Y1627809D02*
G75*
G03*
Y1636470I0J4331D01*
G01*
G75*
G03*
Y1627809I0J-4331D01*
G01*
X516864Y602691D02*
G75*
G03*
Y594030I0J-4331D01*
G01*
G75*
G03*
Y602691I0J4331D01*
G01*
Y797809D02*
G75*
G03*
Y806470I0J4331D01*
G01*
G75*
G03*
Y797809I0J-4331D01*
G01*
X517258Y629069D02*
G75*
G03*
Y620407I0J-4331D01*
G01*
G75*
G03*
Y629069I0J4331D01*
G01*
Y771825D02*
G75*
G03*
Y780486I0J4331D01*
G01*
G75*
G03*
Y771825I0J-4331D01*
G01*
X518754Y1446470D02*
G75*
G03*
Y1437809I0J-4331D01*
G01*
G75*
G03*
Y1446470I0J4331D01*
G01*
Y1614030D02*
G75*
G03*
Y1622691I0J4331D01*
G01*
G75*
G03*
Y1614030I0J-4331D01*
G01*
X520250Y1134581D02*
G75*
G03*
Y1125919I0J-4331D01*
G01*
G75*
G03*
Y1134581I0J4331D01*
G01*
Y2594581D02*
G75*
G03*
Y2585919I0J-4331D01*
G01*
G75*
G03*
Y2594581I0J4331D01*
G01*
Y2834581D02*
G75*
G03*
Y2825919I0J-4331D01*
G01*
G75*
G03*
Y2834581I0J4331D01*
G01*
Y3074581D02*
G75*
G03*
Y3065919I0J-4331D01*
G01*
G75*
G03*
Y3074581I0J4331D01*
G01*
Y3314581D02*
G75*
G03*
Y3305919I0J-4331D01*
G01*
G75*
G03*
Y3314581I0J4331D01*
G01*
X530250Y634581D02*
G75*
G03*
Y625919I0J-4331D01*
G01*
G75*
G03*
Y634581I0J4331D01*
G01*
Y765919D02*
G75*
G03*
Y774581I0J4331D01*
G01*
G75*
G03*
Y765919I0J-4331D01*
G01*
X531746Y136470D02*
G75*
G03*
Y127809I0J-4331D01*
G01*
G75*
G03*
Y136470I0J4331D01*
G01*
Y304030D02*
G75*
G03*
Y312691I0J4331D01*
G01*
G75*
G03*
Y304030I0J-4331D01*
G01*
Y2046470D02*
G75*
G03*
Y2037809I0J-4331D01*
G01*
G75*
G03*
Y2046470I0J4331D01*
G01*
X533242Y1128675D02*
G75*
G03*
Y1120014I0J-4331D01*
G01*
G75*
G03*
Y1128675I0J4331D01*
G01*
Y2588675D02*
G75*
G03*
Y2580014I0J-4331D01*
G01*
G75*
G03*
Y2588675I0J4331D01*
G01*
Y2828675D02*
G75*
G03*
Y2820014I0J-4331D01*
G01*
G75*
G03*
Y2828675I0J4331D01*
G01*
Y3068675D02*
G75*
G03*
Y3060014I0J-4331D01*
G01*
G75*
G03*
Y3068675I0J4331D01*
G01*
Y3308675D02*
G75*
G03*
Y3300014I0J-4331D01*
G01*
G75*
G03*
Y3308675I0J4331D01*
G01*
X533636Y1102691D02*
G75*
G03*
Y1094030I0J-4331D01*
G01*
G75*
G03*
Y1102691I0J4331D01*
G01*
Y2562691D02*
G75*
G03*
Y2554030I0J-4331D01*
G01*
G75*
G03*
Y2562691I0J4331D01*
G01*
Y2802691D02*
G75*
G03*
Y2794030I0J-4331D01*
G01*
G75*
G03*
Y2802691I0J4331D01*
G01*
Y3042691D02*
G75*
G03*
Y3034030I0J-4331D01*
G01*
G75*
G03*
Y3042691I0J4331D01*
G01*
Y3282691D02*
G75*
G03*
Y3274030I0J-4331D01*
G01*
G75*
G03*
Y3282691I0J4331D01*
G01*
X536864Y122691D02*
G75*
G03*
Y114030I0J-4331D01*
G01*
G75*
G03*
Y122691I0J4331D01*
G01*
Y317809D02*
G75*
G03*
Y326470I0J4331D01*
G01*
G75*
G03*
Y317809I0J-4331D01*
G01*
Y2032691D02*
G75*
G03*
Y2024030I0J-4331D01*
G01*
G75*
G03*
Y2032691I0J4331D01*
G01*
X537258Y149069D02*
G75*
G03*
Y140407I0J-4331D01*
G01*
G75*
G03*
Y149069I0J4331D01*
G01*
Y291825D02*
G75*
G03*
Y300486I0J4331D01*
G01*
G75*
G03*
Y291825I0J-4331D01*
G01*
Y2059069D02*
G75*
G03*
Y2050407I0J-4331D01*
G01*
G75*
G03*
Y2059069I0J4331D01*
G01*
X538754Y1116470D02*
G75*
G03*
Y1107809I0J-4331D01*
G01*
G75*
G03*
Y1116470I0J4331D01*
G01*
Y2576470D02*
G75*
G03*
Y2567809I0J-4331D01*
G01*
G75*
G03*
Y2576470I0J4331D01*
G01*
Y2816470D02*
G75*
G03*
Y2807809I0J-4331D01*
G01*
G75*
G03*
Y2816470I0J4331D01*
G01*
Y3056470D02*
G75*
G03*
Y3047809I0J-4331D01*
G01*
G75*
G03*
Y3056470I0J4331D01*
G01*
Y3296470D02*
G75*
G03*
Y3287809I0J-4331D01*
G01*
G75*
G03*
Y3296470I0J4331D01*
G01*
X541746Y2214030D02*
G75*
G03*
Y2222691I0J4331D01*
G01*
G75*
G03*
Y2214030I0J-4331D01*
G01*
X543242Y628675D02*
G75*
G03*
Y620014I0J-4331D01*
G01*
G75*
G03*
Y628675I0J4331D01*
G01*
Y771431D02*
G75*
G03*
Y780093I0J4331D01*
G01*
G75*
G03*
Y771431I0J-4331D01*
G01*
X543636Y602691D02*
G75*
G03*
Y594030I0J-4331D01*
G01*
G75*
G03*
Y602691I0J4331D01*
G01*
Y797809D02*
G75*
G03*
Y806470I0J4331D01*
G01*
G75*
G03*
Y797809I0J-4331D01*
G01*
X546864Y2227809D02*
G75*
G03*
Y2236470I0J4331D01*
G01*
G75*
G03*
Y2227809I0J-4331D01*
G01*
X547258Y2201825D02*
G75*
G03*
Y2210486I0J4331D01*
G01*
G75*
G03*
Y2201825I0J-4331D01*
G01*
X548754Y616470D02*
G75*
G03*
Y607809I0J-4331D01*
G01*
G75*
G03*
Y616470I0J4331D01*
G01*
Y784030D02*
G75*
G03*
Y792691I0J4331D01*
G01*
G75*
G03*
Y784030I0J-4331D01*
G01*
X550250Y154581D02*
G75*
G03*
Y145919I0J-4331D01*
G01*
G75*
G03*
Y154581I0J4331D01*
G01*
Y285919D02*
G75*
G03*
Y294581I0J4331D01*
G01*
G75*
G03*
Y285919I0J-4331D01*
G01*
Y2064581D02*
G75*
G03*
Y2055919I0J-4331D01*
G01*
G75*
G03*
Y2064581I0J4331D01*
G01*
X560250Y2195919D02*
G75*
G03*
Y2204581I0J4331D01*
G01*
G75*
G03*
Y2195919I0J-4331D01*
G01*
X563242Y148675D02*
G75*
G03*
Y140014I0J-4331D01*
G01*
G75*
G03*
Y148675I0J4331D01*
G01*
Y291431D02*
G75*
G03*
Y300093I0J4331D01*
G01*
G75*
G03*
Y291431I0J-4331D01*
G01*
Y2058675D02*
G75*
G03*
Y2050014I0J-4331D01*
G01*
G75*
G03*
Y2058675I0J4331D01*
G01*
X563636Y122691D02*
G75*
G03*
Y114030I0J-4331D01*
G01*
G75*
G03*
Y122691I0J4331D01*
G01*
Y317809D02*
G75*
G03*
Y326470I0J4331D01*
G01*
G75*
G03*
Y317809I0J-4331D01*
G01*
Y2032691D02*
G75*
G03*
Y2024030I0J-4331D01*
G01*
G75*
G03*
Y2032691I0J4331D01*
G01*
X568754Y136470D02*
G75*
G03*
Y127809I0J-4331D01*
G01*
G75*
G03*
Y136470I0J4331D01*
G01*
Y304030D02*
G75*
G03*
Y312691I0J4331D01*
G01*
G75*
G03*
Y304030I0J-4331D01*
G01*
Y2046470D02*
G75*
G03*
Y2037809I0J-4331D01*
G01*
G75*
G03*
Y2046470I0J4331D01*
G01*
X573242Y2201431D02*
G75*
G03*
Y2210093I0J4331D01*
G01*
G75*
G03*
Y2201431I0J-4331D01*
G01*
X573636Y2227809D02*
G75*
G03*
Y2236470I0J4331D01*
G01*
G75*
G03*
Y2227809I0J-4331D01*
G01*
X578754Y2214030D02*
G75*
G03*
Y2222691I0J4331D01*
G01*
G75*
G03*
Y2214030I0J-4331D01*
G01*
X581746Y1446470D02*
G75*
G03*
Y1437809I0J-4331D01*
G01*
G75*
G03*
Y1446470I0J4331D01*
G01*
X586864Y1432691D02*
G75*
G03*
Y1424030I0J-4331D01*
G01*
G75*
G03*
Y1432691I0J4331D01*
G01*
X587258Y1459069D02*
G75*
G03*
Y1450407I0J-4331D01*
G01*
G75*
G03*
Y1459069I0J4331D01*
G01*
X591746Y1116470D02*
G75*
G03*
Y1107809I0J-4331D01*
G01*
G75*
G03*
Y1116470I0J4331D01*
G01*
Y2576470D02*
G75*
G03*
Y2567809I0J-4331D01*
G01*
G75*
G03*
Y2576470I0J4331D01*
G01*
Y2816470D02*
G75*
G03*
Y2807809I0J-4331D01*
G01*
G75*
G03*
Y2816470I0J4331D01*
G01*
Y3056470D02*
G75*
G03*
Y3047809I0J-4331D01*
G01*
G75*
G03*
Y3056470I0J4331D01*
G01*
Y3296470D02*
G75*
G03*
Y3287809I0J-4331D01*
G01*
G75*
G03*
Y3296470I0J4331D01*
G01*
X596864Y1102691D02*
G75*
G03*
Y1094030I0J-4331D01*
G01*
G75*
G03*
Y1102691I0J4331D01*
G01*
Y2562691D02*
G75*
G03*
Y2554030I0J-4331D01*
G01*
G75*
G03*
Y2562691I0J4331D01*
G01*
Y2802691D02*
G75*
G03*
Y2794030I0J-4331D01*
G01*
G75*
G03*
Y2802691I0J4331D01*
G01*
Y3042691D02*
G75*
G03*
Y3034030I0J-4331D01*
G01*
G75*
G03*
Y3042691I0J4331D01*
G01*
Y3282691D02*
G75*
G03*
Y3274030I0J-4331D01*
G01*
G75*
G03*
Y3282691I0J4331D01*
G01*
X597258Y1129069D02*
G75*
G03*
Y1120407I0J-4331D01*
G01*
G75*
G03*
Y1129069I0J4331D01*
G01*
Y2589069D02*
G75*
G03*
Y2580407I0J-4331D01*
G01*
G75*
G03*
Y2589069I0J4331D01*
G01*
Y2829069D02*
G75*
G03*
Y2820407I0J-4331D01*
G01*
G75*
G03*
Y2829069I0J4331D01*
G01*
Y3069069D02*
G75*
G03*
Y3060407I0J-4331D01*
G01*
G75*
G03*
Y3069069I0J4331D01*
G01*
Y3309069D02*
G75*
G03*
Y3300407I0J-4331D01*
G01*
G75*
G03*
Y3309069I0J4331D01*
G01*
X600250Y1464581D02*
G75*
G03*
Y1455919I0J-4331D01*
G01*
G75*
G03*
Y1464581I0J4331D01*
G01*
Y1720250D02*
G75*
G03*
X590250Y1710250I-5000J-5000D01*
G01*
G75*
G03*
X600250Y1720250I5000J5000D01*
G01*
X601746Y1614030D02*
G75*
G03*
Y1622691I0J4331D01*
G01*
G75*
G03*
Y1614030I0J-4331D01*
G01*
X606864Y1627809D02*
G75*
G03*
Y1636470I0J4331D01*
G01*
G75*
G03*
Y1627809I0J-4331D01*
G01*
X607258Y1601825D02*
G75*
G03*
Y1610486I0J4331D01*
G01*
G75*
G03*
Y1601825I0J-4331D01*
G01*
X610250Y1134581D02*
G75*
G03*
Y1125919I0J-4331D01*
G01*
G75*
G03*
Y1134581I0J4331D01*
G01*
Y2250250D02*
G75*
G03*
X600250Y2240250I-5000J-5000D01*
G01*
G75*
G03*
X610250Y2250250I5000J5000D01*
G01*
Y2594581D02*
G75*
G03*
Y2585919I0J-4331D01*
G01*
G75*
G03*
Y2594581I0J4331D01*
G01*
Y2834581D02*
G75*
G03*
Y2825919I0J-4331D01*
G01*
G75*
G03*
Y2834581I0J4331D01*
G01*
Y3074581D02*
G75*
G03*
Y3065919I0J-4331D01*
G01*
G75*
G03*
Y3074581I0J4331D01*
G01*
Y3314581D02*
G75*
G03*
Y3305919I0J-4331D01*
G01*
G75*
G03*
Y3314581I0J4331D01*
G01*
X613242Y1458675D02*
G75*
G03*
Y1450014I0J-4331D01*
G01*
G75*
G03*
Y1458675I0J4331D01*
G01*
X613636Y1432691D02*
G75*
G03*
Y1424030I0J-4331D01*
G01*
G75*
G03*
Y1432691I0J4331D01*
G01*
X618754Y1446470D02*
G75*
G03*
Y1437809I0J-4331D01*
G01*
G75*
G03*
Y1446470I0J4331D01*
G01*
X620250Y1595919D02*
G75*
G03*
Y1604581I0J4331D01*
G01*
G75*
G03*
Y1595919I0J-4331D01*
G01*
X623242Y1128675D02*
G75*
G03*
Y1120014I0J-4331D01*
G01*
G75*
G03*
Y1128675I0J4331D01*
G01*
Y2588675D02*
G75*
G03*
Y2580014I0J-4331D01*
G01*
G75*
G03*
Y2588675I0J4331D01*
G01*
Y2828675D02*
G75*
G03*
Y2820014I0J-4331D01*
G01*
G75*
G03*
Y2828675I0J4331D01*
G01*
Y3068675D02*
G75*
G03*
Y3060014I0J-4331D01*
G01*
G75*
G03*
Y3068675I0J4331D01*
G01*
Y3308675D02*
G75*
G03*
Y3300014I0J-4331D01*
G01*
G75*
G03*
Y3308675I0J4331D01*
G01*
X623636Y1102691D02*
G75*
G03*
Y1094030I0J-4331D01*
G01*
G75*
G03*
Y1102691I0J4331D01*
G01*
Y2562691D02*
G75*
G03*
Y2554030I0J-4331D01*
G01*
G75*
G03*
Y2562691I0J4331D01*
G01*
Y2802691D02*
G75*
G03*
Y2794030I0J-4331D01*
G01*
G75*
G03*
Y2802691I0J4331D01*
G01*
Y3042691D02*
G75*
G03*
Y3034030I0J-4331D01*
G01*
G75*
G03*
Y3042691I0J4331D01*
G01*
Y3282691D02*
G75*
G03*
Y3274030I0J-4331D01*
G01*
G75*
G03*
Y3282691I0J4331D01*
G01*
X628754Y1116470D02*
G75*
G03*
Y1107809I0J-4331D01*
G01*
G75*
G03*
Y1116470I0J4331D01*
G01*
Y2576470D02*
G75*
G03*
Y2567809I0J-4331D01*
G01*
G75*
G03*
Y2576470I0J4331D01*
G01*
Y2816470D02*
G75*
G03*
Y2807809I0J-4331D01*
G01*
G75*
G03*
Y2816470I0J4331D01*
G01*
Y3056470D02*
G75*
G03*
Y3047809I0J-4331D01*
G01*
G75*
G03*
Y3056470I0J4331D01*
G01*
Y3296470D02*
G75*
G03*
Y3287809I0J-4331D01*
G01*
G75*
G03*
Y3296470I0J4331D01*
G01*
X630250Y270250D02*
G75*
G03*
X620250Y260250I-5000J-5000D01*
G01*
G75*
G03*
X630250Y270250I5000J5000D01*
G01*
Y750250D02*
G75*
G03*
X620250Y740250I-5000J-5000D01*
G01*
G75*
G03*
X630250Y750250I5000J5000D01*
G01*
Y1940250D02*
X740250D01*
Y2420250D01*
X630250D01*
Y1940250D01*
X633242Y1601431D02*
G75*
G03*
Y1610093I0J4331D01*
G01*
G75*
G03*
Y1601431I0J-4331D01*
G01*
X633636Y1627809D02*
G75*
G03*
Y1636470I0J4331D01*
G01*
G75*
G03*
Y1627809I0J-4331D01*
G01*
X638754Y1614030D02*
G75*
G03*
Y1622691I0J4331D01*
G01*
G75*
G03*
Y1614030I0J-4331D01*
G01*
X640250Y250D02*
X310250D01*
Y480250D01*
X640250D01*
Y250D01*
Y480250D02*
X310250D01*
Y960250D01*
X640250D01*
Y480250D01*
X681746Y2576470D02*
G75*
G03*
Y2567809I0J-4331D01*
G01*
G75*
G03*
Y2576470I0J4331D01*
G01*
Y2816470D02*
G75*
G03*
Y2807809I0J-4331D01*
G01*
G75*
G03*
Y2816470I0J4331D01*
G01*
Y3056470D02*
G75*
G03*
Y3047809I0J-4331D01*
G01*
G75*
G03*
Y3056470I0J4331D01*
G01*
Y3296470D02*
G75*
G03*
Y3287809I0J-4331D01*
G01*
G75*
G03*
Y3296470I0J4331D01*
G01*
X686864Y2562691D02*
G75*
G03*
Y2554030I0J-4331D01*
G01*
G75*
G03*
Y2562691I0J4331D01*
G01*
Y2802691D02*
G75*
G03*
Y2794030I0J-4331D01*
G01*
G75*
G03*
Y2802691I0J4331D01*
G01*
Y3042691D02*
G75*
G03*
Y3034030I0J-4331D01*
G01*
G75*
G03*
Y3042691I0J4331D01*
G01*
Y3282691D02*
G75*
G03*
Y3274030I0J-4331D01*
G01*
G75*
G03*
Y3282691I0J4331D01*
G01*
X687258Y2589069D02*
G75*
G03*
Y2580407I0J-4331D01*
G01*
G75*
G03*
Y2589069I0J4331D01*
G01*
Y2829069D02*
G75*
G03*
Y2820407I0J-4331D01*
G01*
G75*
G03*
Y2829069I0J4331D01*
G01*
Y3069069D02*
G75*
G03*
Y3060407I0J-4331D01*
G01*
G75*
G03*
Y3069069I0J4331D01*
G01*
Y3309069D02*
G75*
G03*
Y3300407I0J-4331D01*
G01*
G75*
G03*
Y3309069I0J4331D01*
G01*
X690250Y1120250D02*
G75*
G03*
X680250Y1110250I-5000J-5000D01*
G01*
G75*
G03*
X690250Y1120250I5000J5000D01*
G01*
Y1240250D02*
G75*
G03*
X680250Y1230250I-5000J-5000D01*
G01*
G75*
G03*
X690250Y1240250I5000J5000D01*
G01*
Y1380250D02*
G75*
G03*
X680250Y1370250I-5000J-5000D01*
G01*
G75*
G03*
X690250Y1380250I5000J5000D01*
G01*
X700250Y2594581D02*
G75*
G03*
Y2585919I0J-4331D01*
G01*
G75*
G03*
Y2594581I0J4331D01*
G01*
Y2834581D02*
G75*
G03*
Y2825919I0J-4331D01*
G01*
G75*
G03*
Y2834581I0J4331D01*
G01*
Y3074581D02*
G75*
G03*
Y3065919I0J-4331D01*
G01*
G75*
G03*
Y3074581I0J4331D01*
G01*
Y3314581D02*
G75*
G03*
Y3305919I0J-4331D01*
G01*
G75*
G03*
Y3314581I0J4331D01*
G01*
X710250Y1930250D02*
Y970250D01*
X890250D01*
Y1930250D01*
X710250D01*
X713242Y2588675D02*
G75*
G03*
Y2580014I0J-4331D01*
G01*
G75*
G03*
Y2588675I0J4331D01*
G01*
Y2828675D02*
G75*
G03*
Y2820014I0J-4331D01*
G01*
G75*
G03*
Y2828675I0J4331D01*
G01*
Y3068675D02*
G75*
G03*
Y3060014I0J-4331D01*
G01*
G75*
G03*
Y3068675I0J4331D01*
G01*
Y3308675D02*
G75*
G03*
Y3300014I0J-4331D01*
G01*
G75*
G03*
Y3308675I0J4331D01*
G01*
X713636Y2562691D02*
G75*
G03*
Y2554030I0J-4331D01*
G01*
G75*
G03*
Y2562691I0J4331D01*
G01*
Y2802691D02*
G75*
G03*
Y2794030I0J-4331D01*
G01*
G75*
G03*
Y2802691I0J4331D01*
G01*
Y3042691D02*
G75*
G03*
Y3034030I0J-4331D01*
G01*
G75*
G03*
Y3042691I0J4331D01*
G01*
Y3282691D02*
G75*
G03*
Y3274030I0J-4331D01*
G01*
G75*
G03*
Y3282691I0J4331D01*
G01*
X718754Y2576470D02*
G75*
G03*
Y2567809I0J-4331D01*
G01*
G75*
G03*
Y2576470I0J4331D01*
G01*
Y2816470D02*
G75*
G03*
Y2807809I0J-4331D01*
G01*
G75*
G03*
Y2816470I0J4331D01*
G01*
Y3056470D02*
G75*
G03*
Y3047809I0J-4331D01*
G01*
G75*
G03*
Y3056470I0J4331D01*
G01*
Y3296470D02*
G75*
G03*
Y3287809I0J-4331D01*
G01*
G75*
G03*
Y3296470I0J4331D01*
G01*
X741746Y136470D02*
G75*
G03*
Y127809I0J-4331D01*
G01*
G75*
G03*
Y136470I0J4331D01*
G01*
Y304030D02*
G75*
G03*
Y312691I0J4331D01*
G01*
G75*
G03*
Y304030I0J-4331D01*
G01*
Y616470D02*
G75*
G03*
Y607809I0J-4331D01*
G01*
G75*
G03*
Y616470I0J4331D01*
G01*
Y784030D02*
G75*
G03*
Y792691I0J4331D01*
G01*
G75*
G03*
Y784030I0J-4331D01*
G01*
X746864Y122691D02*
G75*
G03*
Y114030I0J-4331D01*
G01*
G75*
G03*
Y122691I0J4331D01*
G01*
Y317809D02*
G75*
G03*
Y326470I0J4331D01*
G01*
G75*
G03*
Y317809I0J-4331D01*
G01*
Y602691D02*
G75*
G03*
Y594030I0J-4331D01*
G01*
G75*
G03*
Y602691I0J4331D01*
G01*
Y797809D02*
G75*
G03*
Y806470I0J4331D01*
G01*
G75*
G03*
Y797809I0J-4331D01*
G01*
X747258Y149069D02*
G75*
G03*
Y140407I0J-4331D01*
G01*
G75*
G03*
Y149069I0J4331D01*
G01*
Y291825D02*
G75*
G03*
Y300486I0J4331D01*
G01*
G75*
G03*
Y291825I0J-4331D01*
G01*
Y629069D02*
G75*
G03*
Y620407I0J-4331D01*
G01*
G75*
G03*
Y629069I0J4331D01*
G01*
Y771825D02*
G75*
G03*
Y780486I0J4331D01*
G01*
G75*
G03*
Y771825I0J-4331D01*
G01*
X750250Y1940250D02*
X1340250D01*
Y2180250D01*
X750250D01*
Y1940250D01*
Y2190250D02*
X1340250D01*
Y2400250D01*
X750250D01*
Y2190250D01*
X760250Y154581D02*
G75*
G03*
Y145919I0J-4331D01*
G01*
G75*
G03*
Y154581I0J4331D01*
G01*
Y285919D02*
G75*
G03*
Y294581I0J4331D01*
G01*
G75*
G03*
Y285919I0J-4331D01*
G01*
Y634581D02*
G75*
G03*
Y625919I0J-4331D01*
G01*
G75*
G03*
Y634581I0J4331D01*
G01*
Y765919D02*
G75*
G03*
Y774581I0J4331D01*
G01*
G75*
G03*
Y765919I0J-4331D01*
G01*
X770250Y2070250D02*
G75*
G03*
X760250Y2060250I-5000J-5000D01*
G01*
G75*
G03*
X770250Y2070250I5000J5000D01*
G01*
Y2300250D02*
G75*
G03*
X760250Y2290250I-5000J-5000D01*
G01*
G75*
G03*
X770250Y2300250I5000J5000D01*
G01*
X771746Y2576470D02*
G75*
G03*
Y2567809I0J-4331D01*
G01*
G75*
G03*
Y2576470I0J4331D01*
G01*
Y2816470D02*
G75*
G03*
Y2807809I0J-4331D01*
G01*
G75*
G03*
Y2816470I0J4331D01*
G01*
Y3056470D02*
G75*
G03*
Y3047809I0J-4331D01*
G01*
G75*
G03*
Y3056470I0J4331D01*
G01*
Y3296470D02*
G75*
G03*
Y3287809I0J-4331D01*
G01*
G75*
G03*
Y3296470I0J4331D01*
G01*
X773242Y148675D02*
G75*
G03*
Y140014I0J-4331D01*
G01*
G75*
G03*
Y148675I0J4331D01*
G01*
Y291431D02*
G75*
G03*
Y300093I0J4331D01*
G01*
G75*
G03*
Y291431I0J-4331D01*
G01*
Y628675D02*
G75*
G03*
Y620014I0J-4331D01*
G01*
G75*
G03*
Y628675I0J4331D01*
G01*
Y771431D02*
G75*
G03*
Y780093I0J4331D01*
G01*
G75*
G03*
Y771431I0J-4331D01*
G01*
X773636Y122691D02*
G75*
G03*
Y114030I0J-4331D01*
G01*
G75*
G03*
Y122691I0J4331D01*
G01*
Y317809D02*
G75*
G03*
Y326470I0J4331D01*
G01*
G75*
G03*
Y317809I0J-4331D01*
G01*
Y602691D02*
G75*
G03*
Y594030I0J-4331D01*
G01*
G75*
G03*
Y602691I0J4331D01*
G01*
Y797809D02*
G75*
G03*
Y806470I0J4331D01*
G01*
G75*
G03*
Y797809I0J-4331D01*
G01*
X776864Y2562691D02*
G75*
G03*
Y2554030I0J-4331D01*
G01*
G75*
G03*
Y2562691I0J4331D01*
G01*
Y2802691D02*
G75*
G03*
Y2794030I0J-4331D01*
G01*
G75*
G03*
Y2802691I0J4331D01*
G01*
Y3042691D02*
G75*
G03*
Y3034030I0J-4331D01*
G01*
G75*
G03*
Y3042691I0J4331D01*
G01*
Y3282691D02*
G75*
G03*
Y3274030I0J-4331D01*
G01*
G75*
G03*
Y3282691I0J4331D01*
G01*
X777258Y2589069D02*
G75*
G03*
Y2580407I0J-4331D01*
G01*
G75*
G03*
Y2589069I0J4331D01*
G01*
Y2829069D02*
G75*
G03*
Y2820407I0J-4331D01*
G01*
G75*
G03*
Y2829069I0J4331D01*
G01*
Y3069069D02*
G75*
G03*
Y3060407I0J-4331D01*
G01*
G75*
G03*
Y3069069I0J4331D01*
G01*
Y3309069D02*
G75*
G03*
Y3300407I0J-4331D01*
G01*
G75*
G03*
Y3309069I0J4331D01*
G01*
X778754Y136470D02*
G75*
G03*
Y127809I0J-4331D01*
G01*
G75*
G03*
Y136470I0J4331D01*
G01*
Y304030D02*
G75*
G03*
Y312691I0J4331D01*
G01*
G75*
G03*
Y304030I0J-4331D01*
G01*
Y616470D02*
G75*
G03*
Y607809I0J-4331D01*
G01*
G75*
G03*
Y616470I0J4331D01*
G01*
Y784030D02*
G75*
G03*
Y792691I0J4331D01*
G01*
G75*
G03*
Y784030I0J-4331D01*
G01*
X781746Y2086470D02*
G75*
G03*
Y2077809I0J-4331D01*
G01*
G75*
G03*
Y2086470I0J4331D01*
G01*
X786864Y2072691D02*
G75*
G03*
Y2064030I0J-4331D01*
G01*
G75*
G03*
Y2072691I0J4331D01*
G01*
X787258Y2099069D02*
G75*
G03*
Y2090407I0J-4331D01*
G01*
G75*
G03*
Y2099069I0J4331D01*
G01*
X790250Y2594581D02*
G75*
G03*
Y2585919I0J-4331D01*
G01*
G75*
G03*
Y2594581I0J4331D01*
G01*
Y2834581D02*
G75*
G03*
Y2825919I0J-4331D01*
G01*
G75*
G03*
Y2834581I0J4331D01*
G01*
Y3074581D02*
G75*
G03*
Y3065919I0J-4331D01*
G01*
G75*
G03*
Y3074581I0J4331D01*
G01*
Y3314581D02*
G75*
G03*
Y3305919I0J-4331D01*
G01*
G75*
G03*
Y3314581I0J4331D01*
G01*
X800250Y2104581D02*
G75*
G03*
Y2095919I0J-4331D01*
G01*
G75*
G03*
Y2104581I0J4331D01*
G01*
X803242Y2588675D02*
G75*
G03*
Y2580014I0J-4331D01*
G01*
G75*
G03*
Y2588675I0J4331D01*
G01*
Y2828675D02*
G75*
G03*
Y2820014I0J-4331D01*
G01*
G75*
G03*
Y2828675I0J4331D01*
G01*
Y3068675D02*
G75*
G03*
Y3060014I0J-4331D01*
G01*
G75*
G03*
Y3068675I0J4331D01*
G01*
Y3308675D02*
G75*
G03*
Y3300014I0J-4331D01*
G01*
G75*
G03*
Y3308675I0J4331D01*
G01*
X803636Y2562691D02*
G75*
G03*
Y2554030I0J-4331D01*
G01*
G75*
G03*
Y2562691I0J4331D01*
G01*
Y2802691D02*
G75*
G03*
Y2794030I0J-4331D01*
G01*
G75*
G03*
Y2802691I0J4331D01*
G01*
Y3042691D02*
G75*
G03*
Y3034030I0J-4331D01*
G01*
G75*
G03*
Y3042691I0J4331D01*
G01*
Y3282691D02*
G75*
G03*
Y3274030I0J-4331D01*
G01*
G75*
G03*
Y3282691I0J4331D01*
G01*
X808754Y2576470D02*
G75*
G03*
Y2567809I0J-4331D01*
G01*
G75*
G03*
Y2576470I0J4331D01*
G01*
Y2816470D02*
G75*
G03*
Y2807809I0J-4331D01*
G01*
G75*
G03*
Y2816470I0J4331D01*
G01*
Y3056470D02*
G75*
G03*
Y3047809I0J-4331D01*
G01*
G75*
G03*
Y3056470I0J4331D01*
G01*
Y3296470D02*
G75*
G03*
Y3287809I0J-4331D01*
G01*
G75*
G03*
Y3296470I0J4331D01*
G01*
X813242Y2098675D02*
G75*
G03*
Y2090014I0J-4331D01*
G01*
G75*
G03*
Y2098675I0J4331D01*
G01*
X813636Y2072691D02*
G75*
G03*
Y2064030I0J-4331D01*
G01*
G75*
G03*
Y2072691I0J4331D01*
G01*
X818754Y2086470D02*
G75*
G03*
Y2077809I0J-4331D01*
G01*
G75*
G03*
Y2086470I0J4331D01*
G01*
X861746Y2576470D02*
G75*
G03*
Y2567809I0J-4331D01*
G01*
G75*
G03*
Y2576470I0J4331D01*
G01*
Y2816470D02*
G75*
G03*
Y2807809I0J-4331D01*
G01*
G75*
G03*
Y2816470I0J4331D01*
G01*
Y3056470D02*
G75*
G03*
Y3047809I0J-4331D01*
G01*
G75*
G03*
Y3056470I0J4331D01*
G01*
Y3296470D02*
G75*
G03*
Y3287809I0J-4331D01*
G01*
G75*
G03*
Y3296470I0J4331D01*
G01*
X866864Y2562691D02*
G75*
G03*
Y2554030I0J-4331D01*
G01*
G75*
G03*
Y2562691I0J4331D01*
G01*
Y2802691D02*
G75*
G03*
Y2794030I0J-4331D01*
G01*
G75*
G03*
Y2802691I0J4331D01*
G01*
Y3042691D02*
G75*
G03*
Y3034030I0J-4331D01*
G01*
G75*
G03*
Y3042691I0J4331D01*
G01*
Y3282691D02*
G75*
G03*
Y3274030I0J-4331D01*
G01*
G75*
G03*
Y3282691I0J4331D01*
G01*
X867258Y2589069D02*
G75*
G03*
Y2580407I0J-4331D01*
G01*
G75*
G03*
Y2589069I0J4331D01*
G01*
Y2829069D02*
G75*
G03*
Y2820407I0J-4331D01*
G01*
G75*
G03*
Y2829069I0J4331D01*
G01*
Y3069069D02*
G75*
G03*
Y3060407I0J-4331D01*
G01*
G75*
G03*
Y3069069I0J4331D01*
G01*
Y3309069D02*
G75*
G03*
Y3300407I0J-4331D01*
G01*
G75*
G03*
Y3309069I0J4331D01*
G01*
X870250Y250D02*
X650250D01*
Y960250D01*
X870250D01*
Y250D01*
X871746Y2086470D02*
G75*
G03*
Y2077809I0J-4331D01*
G01*
G75*
G03*
Y2086470I0J4331D01*
G01*
X876864Y2072691D02*
G75*
G03*
Y2064030I0J-4331D01*
G01*
G75*
G03*
Y2072691I0J4331D01*
G01*
X877258Y2099069D02*
G75*
G03*
Y2090407I0J-4331D01*
G01*
G75*
G03*
Y2099069I0J4331D01*
G01*
X880250Y250D02*
X1470250D01*
Y240250D01*
X880250D01*
Y250D01*
Y250250D02*
X1470250D01*
Y470250D01*
X880250D01*
Y250250D01*
Y480250D02*
X1470250D01*
Y720250D01*
X880250D01*
Y480250D01*
Y800250D02*
X1470250D01*
Y960250D01*
X880250D01*
Y800250D01*
Y2594581D02*
G75*
G03*
Y2585919I0J-4331D01*
G01*
G75*
G03*
Y2594581I0J4331D01*
G01*
Y2834581D02*
G75*
G03*
Y2825919I0J-4331D01*
G01*
G75*
G03*
Y2834581I0J4331D01*
G01*
Y3074581D02*
G75*
G03*
Y3065919I0J-4331D01*
G01*
G75*
G03*
Y3074581I0J4331D01*
G01*
Y3314581D02*
G75*
G03*
Y3305919I0J-4331D01*
G01*
G75*
G03*
Y3314581I0J4331D01*
G01*
X890250Y2104581D02*
G75*
G03*
Y2095919I0J-4331D01*
G01*
G75*
G03*
Y2104581I0J4331D01*
G01*
X893242Y2588675D02*
G75*
G03*
Y2580014I0J-4331D01*
G01*
G75*
G03*
Y2588675I0J4331D01*
G01*
Y2828675D02*
G75*
G03*
Y2820014I0J-4331D01*
G01*
G75*
G03*
Y2828675I0J4331D01*
G01*
Y3068675D02*
G75*
G03*
Y3060014I0J-4331D01*
G01*
G75*
G03*
Y3068675I0J4331D01*
G01*
Y3308675D02*
G75*
G03*
Y3300014I0J-4331D01*
G01*
G75*
G03*
Y3308675I0J4331D01*
G01*
X893636Y2562691D02*
G75*
G03*
Y2554030I0J-4331D01*
G01*
G75*
G03*
Y2562691I0J4331D01*
G01*
Y2802691D02*
G75*
G03*
Y2794030I0J-4331D01*
G01*
G75*
G03*
Y2802691I0J4331D01*
G01*
Y3042691D02*
G75*
G03*
Y3034030I0J-4331D01*
G01*
G75*
G03*
Y3042691I0J4331D01*
G01*
Y3282691D02*
G75*
G03*
Y3274030I0J-4331D01*
G01*
G75*
G03*
Y3282691I0J4331D01*
G01*
X898754Y2576470D02*
G75*
G03*
Y2567809I0J-4331D01*
G01*
G75*
G03*
Y2576470I0J4331D01*
G01*
Y2816470D02*
G75*
G03*
Y2807809I0J-4331D01*
G01*
G75*
G03*
Y2816470I0J4331D01*
G01*
Y3056470D02*
G75*
G03*
Y3047809I0J-4331D01*
G01*
G75*
G03*
Y3056470I0J4331D01*
G01*
Y3296470D02*
G75*
G03*
Y3287809I0J-4331D01*
G01*
G75*
G03*
Y3296470I0J4331D01*
G01*
X900250Y130250D02*
G75*
G03*
X890250Y120250I-5000J-5000D01*
G01*
G75*
G03*
X900250Y130250I5000J5000D01*
G01*
Y360250D02*
G75*
G03*
X890250Y350250I-5000J-5000D01*
G01*
G75*
G03*
X900250Y360250I5000J5000D01*
G01*
Y610250D02*
G75*
G03*
X890250Y600250I-5000J-5000D01*
G01*
G75*
G03*
X900250Y610250I5000J5000D01*
G01*
Y970250D02*
X1490250D01*
Y1350250D01*
X900250D01*
Y970250D01*
Y1350250D02*
X1490250D01*
Y1720250D01*
X900250D01*
Y1350250D01*
Y1930250D02*
X1490250D01*
Y1720250D01*
X900250D01*
Y1930250D01*
X903242Y2098675D02*
G75*
G03*
Y2090014I0J-4331D01*
G01*
G75*
G03*
Y2098675I0J4331D01*
G01*
X903636Y2072691D02*
G75*
G03*
Y2064030I0J-4331D01*
G01*
G75*
G03*
Y2072691I0J4331D01*
G01*
X908754Y2086470D02*
G75*
G03*
Y2077809I0J-4331D01*
G01*
G75*
G03*
Y2086470I0J4331D01*
G01*
X911746Y146470D02*
G75*
G03*
Y137809I0J-4331D01*
G01*
G75*
G03*
Y146470I0J4331D01*
G01*
Y626470D02*
G75*
G03*
Y617809I0J-4331D01*
G01*
G75*
G03*
Y626470I0J4331D01*
G01*
X916864Y132691D02*
G75*
G03*
Y124030I0J-4331D01*
G01*
G75*
G03*
Y132691I0J4331D01*
G01*
Y612691D02*
G75*
G03*
Y604030I0J-4331D01*
G01*
G75*
G03*
Y612691I0J4331D01*
G01*
X917258Y159069D02*
G75*
G03*
Y150407I0J-4331D01*
G01*
G75*
G03*
Y159069I0J4331D01*
G01*
Y639069D02*
G75*
G03*
Y630407I0J-4331D01*
G01*
G75*
G03*
Y639069I0J4331D01*
G01*
X920250Y1120250D02*
G75*
G03*
X910250Y1110250I-5000J-5000D01*
G01*
G75*
G03*
X920250Y1120250I5000J5000D01*
G01*
Y1240250D02*
G75*
G03*
X910250Y1230250I-5000J-5000D01*
G01*
G75*
G03*
X920250Y1240250I5000J5000D01*
G01*
Y1460250D02*
G75*
G03*
X910250Y1450250I-5000J-5000D01*
G01*
G75*
G03*
X920250Y1460250I5000J5000D01*
G01*
X930250Y164581D02*
G75*
G03*
Y155919I0J-4331D01*
G01*
G75*
G03*
Y164581I0J4331D01*
G01*
Y644581D02*
G75*
G03*
Y635919I0J-4331D01*
G01*
G75*
G03*
Y644581I0J4331D01*
G01*
X931746Y366470D02*
G75*
G03*
Y357809I0J-4331D01*
G01*
G75*
G03*
Y366470I0J4331D01*
G01*
X936864Y352691D02*
G75*
G03*
Y344030I0J-4331D01*
G01*
G75*
G03*
Y352691I0J4331D01*
G01*
X937258Y379069D02*
G75*
G03*
Y370407I0J-4331D01*
G01*
G75*
G03*
Y379069I0J4331D01*
G01*
X943242Y158675D02*
G75*
G03*
Y150014I0J-4331D01*
G01*
G75*
G03*
Y158675I0J4331D01*
G01*
Y638675D02*
G75*
G03*
Y630014I0J-4331D01*
G01*
G75*
G03*
Y638675I0J4331D01*
G01*
X943636Y132691D02*
G75*
G03*
Y124030I0J-4331D01*
G01*
G75*
G03*
Y132691I0J4331D01*
G01*
Y612691D02*
G75*
G03*
Y604030I0J-4331D01*
G01*
G75*
G03*
Y612691I0J4331D01*
G01*
X948754Y146470D02*
G75*
G03*
Y137809I0J-4331D01*
G01*
G75*
G03*
Y146470I0J4331D01*
G01*
Y626470D02*
G75*
G03*
Y617809I0J-4331D01*
G01*
G75*
G03*
Y626470I0J4331D01*
G01*
X950250Y384581D02*
G75*
G03*
Y375919I0J-4331D01*
G01*
G75*
G03*
Y384581I0J4331D01*
G01*
X960250Y2560250D02*
G75*
G03*
X950250Y2550250I-5000J-5000D01*
G01*
G75*
G03*
X960250Y2560250I5000J5000D01*
G01*
Y2800250D02*
G75*
G03*
X950250Y2790250I-5000J-5000D01*
G01*
G75*
G03*
X960250Y2800250I5000J5000D01*
G01*
Y3040250D02*
G75*
G03*
X950250Y3030250I-5000J-5000D01*
G01*
G75*
G03*
X960250Y3040250I5000J5000D01*
G01*
Y3280250D02*
G75*
G03*
X950250Y3270250I-5000J-5000D01*
G01*
G75*
G03*
X960250Y3280250I5000J5000D01*
G01*
X961746Y2086470D02*
G75*
G03*
Y2077809I0J-4331D01*
G01*
G75*
G03*
Y2086470I0J4331D01*
G01*
X963242Y378675D02*
G75*
G03*
Y370014I0J-4331D01*
G01*
G75*
G03*
Y378675I0J4331D01*
G01*
X963636Y352691D02*
G75*
G03*
Y344030I0J-4331D01*
G01*
G75*
G03*
Y352691I0J4331D01*
G01*
X966864Y2072691D02*
G75*
G03*
Y2064030I0J-4331D01*
G01*
G75*
G03*
Y2072691I0J4331D01*
G01*
X967258Y2099069D02*
G75*
G03*
Y2090407I0J-4331D01*
G01*
G75*
G03*
Y2099069I0J4331D01*
G01*
X968754Y366470D02*
G75*
G03*
Y357809I0J-4331D01*
G01*
G75*
G03*
Y366470I0J4331D01*
G01*
X971746Y2276470D02*
G75*
G03*
Y2267809I0J-4331D01*
G01*
G75*
G03*
Y2276470I0J4331D01*
G01*
X976864Y2262691D02*
G75*
G03*
Y2254030I0J-4331D01*
G01*
G75*
G03*
Y2262691I0J4331D01*
G01*
X977258Y2289069D02*
G75*
G03*
Y2280407I0J-4331D01*
G01*
G75*
G03*
Y2289069I0J4331D01*
G01*
X980250Y2104581D02*
G75*
G03*
Y2095919I0J-4331D01*
G01*
G75*
G03*
Y2104581I0J4331D01*
G01*
X981746Y1126470D02*
G75*
G03*
Y1117809I0J-4331D01*
G01*
G75*
G03*
Y1126470I0J4331D01*
G01*
Y1254030D02*
G75*
G03*
Y1262691I0J4331D01*
G01*
G75*
G03*
Y1254030I0J-4331D01*
G01*
Y1456470D02*
G75*
G03*
Y1447809I0J-4331D01*
G01*
G75*
G03*
Y1456470I0J4331D01*
G01*
Y1584030D02*
G75*
G03*
Y1592691I0J4331D01*
G01*
G75*
G03*
Y1584030I0J-4331D01*
G01*
X986864Y1112691D02*
G75*
G03*
Y1104030I0J-4331D01*
G01*
G75*
G03*
Y1112691I0J4331D01*
G01*
Y1267809D02*
G75*
G03*
Y1276470I0J4331D01*
G01*
G75*
G03*
Y1267809I0J-4331D01*
G01*
Y1442691D02*
G75*
G03*
Y1434030I0J-4331D01*
G01*
G75*
G03*
Y1442691I0J4331D01*
G01*
Y1597809D02*
G75*
G03*
Y1606470I0J4331D01*
G01*
G75*
G03*
Y1597809I0J-4331D01*
G01*
X987258Y1139069D02*
G75*
G03*
Y1130407I0J-4331D01*
G01*
G75*
G03*
Y1139069I0J4331D01*
G01*
Y1241825D02*
G75*
G03*
Y1250486I0J4331D01*
G01*
G75*
G03*
Y1241825I0J-4331D01*
G01*
Y1469069D02*
G75*
G03*
Y1460407I0J-4331D01*
G01*
G75*
G03*
Y1469069I0J4331D01*
G01*
Y1571825D02*
G75*
G03*
Y1580486I0J4331D01*
G01*
G75*
G03*
Y1571825I0J-4331D01*
G01*
X990250Y2294581D02*
G75*
G03*
Y2285919I0J-4331D01*
G01*
G75*
G03*
Y2294581I0J4331D01*
G01*
X993242Y2098675D02*
G75*
G03*
Y2090014I0J-4331D01*
G01*
G75*
G03*
Y2098675I0J4331D01*
G01*
X993636Y2072691D02*
G75*
G03*
Y2064030I0J-4331D01*
G01*
G75*
G03*
Y2072691I0J4331D01*
G01*
X998754Y2086470D02*
G75*
G03*
Y2077809I0J-4331D01*
G01*
G75*
G03*
Y2086470I0J4331D01*
G01*
X1000250Y1144581D02*
G75*
G03*
Y1135919I0J-4331D01*
G01*
G75*
G03*
Y1144581I0J4331D01*
G01*
Y1235919D02*
G75*
G03*
Y1244581I0J4331D01*
G01*
G75*
G03*
Y1235919I0J-4331D01*
G01*
Y1474581D02*
G75*
G03*
Y1465919I0J-4331D01*
G01*
G75*
G03*
Y1474581I0J4331D01*
G01*
Y1565919D02*
G75*
G03*
Y1574581I0J4331D01*
G01*
G75*
G03*
Y1565919I0J-4331D01*
G01*
X1001746Y146470D02*
G75*
G03*
Y137809I0J-4331D01*
G01*
G75*
G03*
Y146470I0J4331D01*
G01*
Y626470D02*
G75*
G03*
Y617809I0J-4331D01*
G01*
G75*
G03*
Y626470I0J4331D01*
G01*
X1003242Y2288675D02*
G75*
G03*
Y2280014I0J-4331D01*
G01*
G75*
G03*
Y2288675I0J4331D01*
G01*
X1003636Y2262691D02*
G75*
G03*
Y2254030I0J-4331D01*
G01*
G75*
G03*
Y2262691I0J4331D01*
G01*
X1006864Y132691D02*
G75*
G03*
Y124030I0J-4331D01*
G01*
G75*
G03*
Y132691I0J4331D01*
G01*
Y612691D02*
G75*
G03*
Y604030I0J-4331D01*
G01*
G75*
G03*
Y612691I0J4331D01*
G01*
X1007258Y159069D02*
G75*
G03*
Y150407I0J-4331D01*
G01*
G75*
G03*
Y159069I0J4331D01*
G01*
Y639069D02*
G75*
G03*
Y630407I0J-4331D01*
G01*
G75*
G03*
Y639069I0J4331D01*
G01*
X1008754Y2276470D02*
G75*
G03*
Y2267809I0J-4331D01*
G01*
G75*
G03*
Y2276470I0J4331D01*
G01*
X1011746Y2566470D02*
G75*
G03*
Y2557809I0J-4331D01*
G01*
G75*
G03*
Y2566470I0J4331D01*
G01*
Y2806470D02*
G75*
G03*
Y2797809I0J-4331D01*
G01*
G75*
G03*
Y2806470I0J4331D01*
G01*
Y3046470D02*
G75*
G03*
Y3037809I0J-4331D01*
G01*
G75*
G03*
Y3046470I0J4331D01*
G01*
Y3286470D02*
G75*
G03*
Y3277809I0J-4331D01*
G01*
G75*
G03*
Y3286470I0J4331D01*
G01*
X1013242Y1138675D02*
G75*
G03*
Y1130014I0J-4331D01*
G01*
G75*
G03*
Y1138675I0J4331D01*
G01*
Y1241431D02*
G75*
G03*
Y1250093I0J4331D01*
G01*
G75*
G03*
Y1241431I0J-4331D01*
G01*
Y1468675D02*
G75*
G03*
Y1460014I0J-4331D01*
G01*
G75*
G03*
Y1468675I0J4331D01*
G01*
Y1571431D02*
G75*
G03*
Y1580093I0J4331D01*
G01*
G75*
G03*
Y1571431I0J-4331D01*
G01*
X1013636Y1112691D02*
G75*
G03*
Y1104030I0J-4331D01*
G01*
G75*
G03*
Y1112691I0J4331D01*
G01*
Y1267809D02*
G75*
G03*
Y1276470I0J4331D01*
G01*
G75*
G03*
Y1267809I0J-4331D01*
G01*
Y1442691D02*
G75*
G03*
Y1434030I0J-4331D01*
G01*
G75*
G03*
Y1442691I0J4331D01*
G01*
Y1597809D02*
G75*
G03*
Y1606470I0J4331D01*
G01*
G75*
G03*
Y1597809I0J-4331D01*
G01*
X1016864Y2552691D02*
G75*
G03*
Y2544030I0J-4331D01*
G01*
G75*
G03*
Y2552691I0J4331D01*
G01*
Y2792691D02*
G75*
G03*
Y2784030I0J-4331D01*
G01*
G75*
G03*
Y2792691I0J4331D01*
G01*
Y3032691D02*
G75*
G03*
Y3024030I0J-4331D01*
G01*
G75*
G03*
Y3032691I0J4331D01*
G01*
Y3272691D02*
G75*
G03*
Y3264030I0J-4331D01*
G01*
G75*
G03*
Y3272691I0J4331D01*
G01*
X1017258Y2579069D02*
G75*
G03*
Y2570407I0J-4331D01*
G01*
G75*
G03*
Y2579069I0J4331D01*
G01*
Y2819069D02*
G75*
G03*
Y2810407I0J-4331D01*
G01*
G75*
G03*
Y2819069I0J4331D01*
G01*
Y3059069D02*
G75*
G03*
Y3050407I0J-4331D01*
G01*
G75*
G03*
Y3059069I0J4331D01*
G01*
Y3299069D02*
G75*
G03*
Y3290407I0J-4331D01*
G01*
G75*
G03*
Y3299069I0J4331D01*
G01*
X1018754Y1126470D02*
G75*
G03*
Y1117809I0J-4331D01*
G01*
G75*
G03*
Y1126470I0J4331D01*
G01*
Y1254030D02*
G75*
G03*
Y1262691I0J4331D01*
G01*
G75*
G03*
Y1254030I0J-4331D01*
G01*
Y1456470D02*
G75*
G03*
Y1447809I0J-4331D01*
G01*
G75*
G03*
Y1456470I0J4331D01*
G01*
Y1584030D02*
G75*
G03*
Y1592691I0J4331D01*
G01*
G75*
G03*
Y1584030I0J-4331D01*
G01*
X1020250Y164581D02*
G75*
G03*
Y155919I0J-4331D01*
G01*
G75*
G03*
Y164581I0J4331D01*
G01*
Y644581D02*
G75*
G03*
Y635919I0J-4331D01*
G01*
G75*
G03*
Y644581I0J4331D01*
G01*
X1021746Y366470D02*
G75*
G03*
Y357809I0J-4331D01*
G01*
G75*
G03*
Y366470I0J4331D01*
G01*
X1026864Y352691D02*
G75*
G03*
Y344030I0J-4331D01*
G01*
G75*
G03*
Y352691I0J4331D01*
G01*
X1027258Y379069D02*
G75*
G03*
Y370407I0J-4331D01*
G01*
G75*
G03*
Y379069I0J4331D01*
G01*
X1030250Y2584581D02*
G75*
G03*
Y2575919I0J-4331D01*
G01*
G75*
G03*
Y2584581I0J4331D01*
G01*
Y2824581D02*
G75*
G03*
Y2815919I0J-4331D01*
G01*
G75*
G03*
Y2824581I0J4331D01*
G01*
Y3064581D02*
G75*
G03*
Y3055919I0J-4331D01*
G01*
G75*
G03*
Y3064581I0J4331D01*
G01*
Y3304581D02*
G75*
G03*
Y3295919I0J-4331D01*
G01*
G75*
G03*
Y3304581I0J4331D01*
G01*
X1033242Y158675D02*
G75*
G03*
Y150014I0J-4331D01*
G01*
G75*
G03*
Y158675I0J4331D01*
G01*
Y638675D02*
G75*
G03*
Y630014I0J-4331D01*
G01*
G75*
G03*
Y638675I0J4331D01*
G01*
X1033636Y132691D02*
G75*
G03*
Y124030I0J-4331D01*
G01*
G75*
G03*
Y132691I0J4331D01*
G01*
Y612691D02*
G75*
G03*
Y604030I0J-4331D01*
G01*
G75*
G03*
Y612691I0J4331D01*
G01*
X1038754Y146470D02*
G75*
G03*
Y137809I0J-4331D01*
G01*
G75*
G03*
Y146470I0J4331D01*
G01*
Y626470D02*
G75*
G03*
Y617809I0J-4331D01*
G01*
G75*
G03*
Y626470I0J4331D01*
G01*
X1040250Y384581D02*
G75*
G03*
Y375919I0J-4331D01*
G01*
G75*
G03*
Y384581I0J4331D01*
G01*
X1043242Y2578675D02*
G75*
G03*
Y2570014I0J-4331D01*
G01*
G75*
G03*
Y2578675I0J4331D01*
G01*
Y2818675D02*
G75*
G03*
Y2810014I0J-4331D01*
G01*
G75*
G03*
Y2818675I0J4331D01*
G01*
Y3058675D02*
G75*
G03*
Y3050014I0J-4331D01*
G01*
G75*
G03*
Y3058675I0J4331D01*
G01*
Y3298675D02*
G75*
G03*
Y3290014I0J-4331D01*
G01*
G75*
G03*
Y3298675I0J4331D01*
G01*
X1043636Y2552691D02*
G75*
G03*
Y2544030I0J-4331D01*
G01*
G75*
G03*
Y2552691I0J4331D01*
G01*
Y2792691D02*
G75*
G03*
Y2784030I0J-4331D01*
G01*
G75*
G03*
Y2792691I0J4331D01*
G01*
Y3032691D02*
G75*
G03*
Y3024030I0J-4331D01*
G01*
G75*
G03*
Y3032691I0J4331D01*
G01*
Y3272691D02*
G75*
G03*
Y3264030I0J-4331D01*
G01*
G75*
G03*
Y3272691I0J4331D01*
G01*
X1048754Y2566470D02*
G75*
G03*
Y2557809I0J-4331D01*
G01*
G75*
G03*
Y2566470I0J4331D01*
G01*
Y2806470D02*
G75*
G03*
Y2797809I0J-4331D01*
G01*
G75*
G03*
Y2806470I0J4331D01*
G01*
Y3046470D02*
G75*
G03*
Y3037809I0J-4331D01*
G01*
G75*
G03*
Y3046470I0J4331D01*
G01*
Y3286470D02*
G75*
G03*
Y3277809I0J-4331D01*
G01*
G75*
G03*
Y3286470I0J4331D01*
G01*
X1050250Y3600250D02*
G75*
G03*
X1040250Y3590250I-5000J-5000D01*
G01*
G75*
G03*
X1050250Y3600250I5000J5000D01*
G01*
X1051746Y2086470D02*
G75*
G03*
Y2077809I0J-4331D01*
G01*
G75*
G03*
Y2086470I0J4331D01*
G01*
X1053242Y378675D02*
G75*
G03*
Y370014I0J-4331D01*
G01*
G75*
G03*
Y378675I0J4331D01*
G01*
X1053636Y352691D02*
G75*
G03*
Y344030I0J-4331D01*
G01*
G75*
G03*
Y352691I0J4331D01*
G01*
X1056864Y2072691D02*
G75*
G03*
Y2064030I0J-4331D01*
G01*
G75*
G03*
Y2072691I0J4331D01*
G01*
X1057258Y2099069D02*
G75*
G03*
Y2090407I0J-4331D01*
G01*
G75*
G03*
Y2099069I0J4331D01*
G01*
X1058754Y366470D02*
G75*
G03*
Y357809I0J-4331D01*
G01*
G75*
G03*
Y366470I0J4331D01*
G01*
X1060250Y3400250D02*
X250D01*
Y3520250D01*
G75*
G02*
X20250Y3540250I20000J0D01*
G01*
X970250D01*
G75*
G03*
X1010250Y3580250I0J40000D01*
G01*
G75*
G02*
X1060250Y3620250I45000J-5000D01*
G01*
Y3400250D01*
X1070250Y2104581D02*
G75*
G03*
Y2095919I0J-4331D01*
G01*
G75*
G03*
Y2104581I0J4331D01*
G01*
X1080250Y3600250D02*
G75*
G03*
X1070250Y3590250I-5000J-5000D01*
G01*
G75*
G03*
X1080250Y3600250I5000J5000D01*
G01*
X1081746Y2276470D02*
G75*
G03*
Y2267809I0J-4331D01*
G01*
G75*
G03*
Y2276470I0J4331D01*
G01*
X1083242Y2098675D02*
G75*
G03*
Y2090014I0J-4331D01*
G01*
G75*
G03*
Y2098675I0J4331D01*
G01*
X1083636Y2072691D02*
G75*
G03*
Y2064030I0J-4331D01*
G01*
G75*
G03*
Y2072691I0J4331D01*
G01*
X1086864Y2262691D02*
G75*
G03*
Y2254030I0J-4331D01*
G01*
G75*
G03*
Y2262691I0J4331D01*
G01*
X1087258Y2289069D02*
G75*
G03*
Y2280407I0J-4331D01*
G01*
G75*
G03*
Y2289069I0J4331D01*
G01*
X1088754Y2086470D02*
G75*
G03*
Y2077809I0J-4331D01*
G01*
G75*
G03*
Y2086470I0J4331D01*
G01*
X1091746Y146470D02*
G75*
G03*
Y137809I0J-4331D01*
G01*
G75*
G03*
Y146470I0J4331D01*
G01*
Y626470D02*
G75*
G03*
Y617809I0J-4331D01*
G01*
G75*
G03*
Y626470I0J4331D01*
G01*
Y2566470D02*
G75*
G03*
Y2557809I0J-4331D01*
G01*
G75*
G03*
Y2566470I0J4331D01*
G01*
Y2806470D02*
G75*
G03*
Y2797809I0J-4331D01*
G01*
G75*
G03*
Y2806470I0J4331D01*
G01*
Y3046470D02*
G75*
G03*
Y3037809I0J-4331D01*
G01*
G75*
G03*
Y3046470I0J4331D01*
G01*
Y3286470D02*
G75*
G03*
Y3277809I0J-4331D01*
G01*
G75*
G03*
Y3286470I0J4331D01*
G01*
X1096864Y132691D02*
G75*
G03*
Y124030I0J-4331D01*
G01*
G75*
G03*
Y132691I0J4331D01*
G01*
Y612691D02*
G75*
G03*
Y604030I0J-4331D01*
G01*
G75*
G03*
Y612691I0J4331D01*
G01*
Y2552691D02*
G75*
G03*
Y2544030I0J-4331D01*
G01*
G75*
G03*
Y2552691I0J4331D01*
G01*
Y2792691D02*
G75*
G03*
Y2784030I0J-4331D01*
G01*
G75*
G03*
Y2792691I0J4331D01*
G01*
Y3032691D02*
G75*
G03*
Y3024030I0J-4331D01*
G01*
G75*
G03*
Y3032691I0J4331D01*
G01*
Y3272691D02*
G75*
G03*
Y3264030I0J-4331D01*
G01*
G75*
G03*
Y3272691I0J4331D01*
G01*
X1097258Y159069D02*
G75*
G03*
Y150407I0J-4331D01*
G01*
G75*
G03*
Y159069I0J4331D01*
G01*
Y639069D02*
G75*
G03*
Y630407I0J-4331D01*
G01*
G75*
G03*
Y639069I0J4331D01*
G01*
Y2579069D02*
G75*
G03*
Y2570407I0J-4331D01*
G01*
G75*
G03*
Y2579069I0J4331D01*
G01*
Y2819069D02*
G75*
G03*
Y2810407I0J-4331D01*
G01*
G75*
G03*
Y2819069I0J4331D01*
G01*
Y3059069D02*
G75*
G03*
Y3050407I0J-4331D01*
G01*
G75*
G03*
Y3059069I0J4331D01*
G01*
Y3299069D02*
G75*
G03*
Y3290407I0J-4331D01*
G01*
G75*
G03*
Y3299069I0J4331D01*
G01*
X1100250Y2294581D02*
G75*
G03*
Y2285919I0J-4331D01*
G01*
G75*
G03*
Y2294581I0J4331D01*
G01*
X1110250Y164581D02*
G75*
G03*
Y155919I0J-4331D01*
G01*
G75*
G03*
Y164581I0J4331D01*
G01*
Y644581D02*
G75*
G03*
Y635919I0J-4331D01*
G01*
G75*
G03*
Y644581I0J4331D01*
G01*
Y2584581D02*
G75*
G03*
Y2575919I0J-4331D01*
G01*
G75*
G03*
Y2584581I0J4331D01*
G01*
Y2824581D02*
G75*
G03*
Y2815919I0J-4331D01*
G01*
G75*
G03*
Y2824581I0J4331D01*
G01*
Y3064581D02*
G75*
G03*
Y3055919I0J-4331D01*
G01*
G75*
G03*
Y3064581I0J4331D01*
G01*
Y3304581D02*
G75*
G03*
Y3295919I0J-4331D01*
G01*
G75*
G03*
Y3304581I0J4331D01*
G01*
X1111746Y1126470D02*
G75*
G03*
Y1117809I0J-4331D01*
G01*
G75*
G03*
Y1126470I0J4331D01*
G01*
Y1254030D02*
G75*
G03*
Y1262691I0J4331D01*
G01*
G75*
G03*
Y1254030I0J-4331D01*
G01*
Y1456470D02*
G75*
G03*
Y1447809I0J-4331D01*
G01*
G75*
G03*
Y1456470I0J4331D01*
G01*
Y1584030D02*
G75*
G03*
Y1592691I0J4331D01*
G01*
G75*
G03*
Y1584030I0J-4331D01*
G01*
X1113242Y2288675D02*
G75*
G03*
Y2280014I0J-4331D01*
G01*
G75*
G03*
Y2288675I0J4331D01*
G01*
X1113636Y2262691D02*
G75*
G03*
Y2254030I0J-4331D01*
G01*
G75*
G03*
Y2262691I0J4331D01*
G01*
X1116864Y1112691D02*
G75*
G03*
Y1104030I0J-4331D01*
G01*
G75*
G03*
Y1112691I0J4331D01*
G01*
Y1267809D02*
G75*
G03*
Y1276470I0J4331D01*
G01*
G75*
G03*
Y1267809I0J-4331D01*
G01*
Y1442691D02*
G75*
G03*
Y1434030I0J-4331D01*
G01*
G75*
G03*
Y1442691I0J4331D01*
G01*
Y1597809D02*
G75*
G03*
Y1606470I0J4331D01*
G01*
G75*
G03*
Y1597809I0J-4331D01*
G01*
X1117258Y1139069D02*
G75*
G03*
Y1130407I0J-4331D01*
G01*
G75*
G03*
Y1139069I0J4331D01*
G01*
Y1241825D02*
G75*
G03*
Y1250486I0J4331D01*
G01*
G75*
G03*
Y1241825I0J-4331D01*
G01*
Y1469069D02*
G75*
G03*
Y1460407I0J-4331D01*
G01*
G75*
G03*
Y1469069I0J4331D01*
G01*
Y1571825D02*
G75*
G03*
Y1580486I0J4331D01*
G01*
G75*
G03*
Y1571825I0J-4331D01*
G01*
X1118754Y2276470D02*
G75*
G03*
Y2267809I0J-4331D01*
G01*
G75*
G03*
Y2276470I0J4331D01*
G01*
X1123242Y158675D02*
G75*
G03*
Y150014I0J-4331D01*
G01*
G75*
G03*
Y158675I0J4331D01*
G01*
Y638675D02*
G75*
G03*
Y630014I0J-4331D01*
G01*
G75*
G03*
Y638675I0J4331D01*
G01*
Y2578675D02*
G75*
G03*
Y2570014I0J-4331D01*
G01*
G75*
G03*
Y2578675I0J4331D01*
G01*
Y2818675D02*
G75*
G03*
Y2810014I0J-4331D01*
G01*
G75*
G03*
Y2818675I0J4331D01*
G01*
Y3058675D02*
G75*
G03*
Y3050014I0J-4331D01*
G01*
G75*
G03*
Y3058675I0J4331D01*
G01*
Y3298675D02*
G75*
G03*
Y3290014I0J-4331D01*
G01*
G75*
G03*
Y3298675I0J4331D01*
G01*
X1123636Y132691D02*
G75*
G03*
Y124030I0J-4331D01*
G01*
G75*
G03*
Y132691I0J4331D01*
G01*
Y612691D02*
G75*
G03*
Y604030I0J-4331D01*
G01*
G75*
G03*
Y612691I0J4331D01*
G01*
Y2552691D02*
G75*
G03*
Y2544030I0J-4331D01*
G01*
G75*
G03*
Y2552691I0J4331D01*
G01*
Y2792691D02*
G75*
G03*
Y2784030I0J-4331D01*
G01*
G75*
G03*
Y2792691I0J4331D01*
G01*
Y3032691D02*
G75*
G03*
Y3024030I0J-4331D01*
G01*
G75*
G03*
Y3032691I0J4331D01*
G01*
Y3272691D02*
G75*
G03*
Y3264030I0J-4331D01*
G01*
G75*
G03*
Y3272691I0J4331D01*
G01*
X1128754Y146470D02*
G75*
G03*
Y137809I0J-4331D01*
G01*
G75*
G03*
Y146470I0J4331D01*
G01*
Y626470D02*
G75*
G03*
Y617809I0J-4331D01*
G01*
G75*
G03*
Y626470I0J4331D01*
G01*
Y2566470D02*
G75*
G03*
Y2557809I0J-4331D01*
G01*
G75*
G03*
Y2566470I0J4331D01*
G01*
Y2806470D02*
G75*
G03*
Y2797809I0J-4331D01*
G01*
G75*
G03*
Y2806470I0J4331D01*
G01*
Y3046470D02*
G75*
G03*
Y3037809I0J-4331D01*
G01*
G75*
G03*
Y3046470I0J4331D01*
G01*
Y3286470D02*
G75*
G03*
Y3277809I0J-4331D01*
G01*
G75*
G03*
Y3286470I0J4331D01*
G01*
X1130250Y1144581D02*
G75*
G03*
Y1135919I0J-4331D01*
G01*
G75*
G03*
Y1144581I0J4331D01*
G01*
Y1235919D02*
G75*
G03*
Y1244581I0J4331D01*
G01*
G75*
G03*
Y1235919I0J-4331D01*
G01*
Y1474581D02*
G75*
G03*
Y1465919I0J-4331D01*
G01*
G75*
G03*
Y1474581I0J4331D01*
G01*
Y1565919D02*
G75*
G03*
Y1574581I0J4331D01*
G01*
G75*
G03*
Y1565919I0J-4331D01*
G01*
X1140250Y3760250D02*
X1550250D01*
G75*
G02*
X1630250Y3680250I0J-80000D01*
G01*
Y3400250D01*
X1060250D01*
Y3680250D01*
G75*
G02*
X1140250Y3760250I80000J0D01*
G01*
X1141746Y2086470D02*
G75*
G03*
Y2077809I0J-4331D01*
G01*
G75*
G03*
Y2086470I0J4331D01*
G01*
X1143242Y1138675D02*
G75*
G03*
Y1130014I0J-4331D01*
G01*
G75*
G03*
Y1138675I0J4331D01*
G01*
Y1241431D02*
G75*
G03*
Y1250093I0J4331D01*
G01*
G75*
G03*
Y1241431I0J-4331D01*
G01*
Y1468675D02*
G75*
G03*
Y1460014I0J-4331D01*
G01*
G75*
G03*
Y1468675I0J4331D01*
G01*
Y1571431D02*
G75*
G03*
Y1580093I0J4331D01*
G01*
G75*
G03*
Y1571431I0J-4331D01*
G01*
X1143636Y1112691D02*
G75*
G03*
Y1104030I0J-4331D01*
G01*
G75*
G03*
Y1112691I0J4331D01*
G01*
Y1267809D02*
G75*
G03*
Y1276470I0J4331D01*
G01*
G75*
G03*
Y1267809I0J-4331D01*
G01*
Y1442691D02*
G75*
G03*
Y1434030I0J-4331D01*
G01*
G75*
G03*
Y1442691I0J4331D01*
G01*
Y1597809D02*
G75*
G03*
Y1606470I0J4331D01*
G01*
G75*
G03*
Y1597809I0J-4331D01*
G01*
X1146864Y2072691D02*
G75*
G03*
Y2064030I0J-4331D01*
G01*
G75*
G03*
Y2072691I0J4331D01*
G01*
X1147258Y2099069D02*
G75*
G03*
Y2090407I0J-4331D01*
G01*
G75*
G03*
Y2099069I0J4331D01*
G01*
X1148754Y1126470D02*
G75*
G03*
Y1117809I0J-4331D01*
G01*
G75*
G03*
Y1126470I0J4331D01*
G01*
Y1254030D02*
G75*
G03*
Y1262691I0J4331D01*
G01*
G75*
G03*
Y1254030I0J-4331D01*
G01*
Y1456470D02*
G75*
G03*
Y1447809I0J-4331D01*
G01*
G75*
G03*
Y1456470I0J4331D01*
G01*
Y1584030D02*
G75*
G03*
Y1592691I0J4331D01*
G01*
G75*
G03*
Y1584030I0J-4331D01*
G01*
X1160250Y2104581D02*
G75*
G03*
Y2095919I0J-4331D01*
G01*
G75*
G03*
Y2104581I0J4331D01*
G01*
Y3510250D02*
G75*
G03*
Y3490250I0J-10000D01*
G01*
G75*
G03*
Y3510250I0J10000D01*
G01*
Y3680250D02*
G75*
G03*
Y3660250I0J-10000D01*
G01*
G75*
G03*
Y3680250I0J10000D01*
G01*
X1168281Y3448281D02*
G75*
G03*
X1172219Y3452219I1969J1969D01*
G01*
G75*
G03*
X1168281Y3448281I-1969J-1969D01*
G01*
Y3718281D02*
G75*
G03*
X1172219Y3722219I1969J1969D01*
G01*
G75*
G03*
X1168281Y3718281I-1969J-1969D01*
G01*
X1173242Y2098675D02*
G75*
G03*
Y2090014I0J-4331D01*
G01*
G75*
G03*
Y2098675I0J4331D01*
G01*
X1173636Y2072691D02*
G75*
G03*
Y2064030I0J-4331D01*
G01*
G75*
G03*
Y2072691I0J4331D01*
G01*
X1178754Y2086470D02*
G75*
G03*
Y2077809I0J-4331D01*
G01*
G75*
G03*
Y2086470I0J4331D01*
G01*
X1180250Y820250D02*
G75*
G03*
X1170250Y810250I-5000J-5000D01*
G01*
G75*
G03*
X1180250Y820250I5000J5000D01*
G01*
X1181746Y146470D02*
G75*
G03*
Y137809I0J-4331D01*
G01*
G75*
G03*
Y146470I0J4331D01*
G01*
Y626470D02*
G75*
G03*
Y617809I0J-4331D01*
G01*
G75*
G03*
Y626470I0J4331D01*
G01*
X1186864Y132691D02*
G75*
G03*
Y124030I0J-4331D01*
G01*
G75*
G03*
Y132691I0J4331D01*
G01*
Y612691D02*
G75*
G03*
Y604030I0J-4331D01*
G01*
G75*
G03*
Y612691I0J4331D01*
G01*
X1187258Y159069D02*
G75*
G03*
Y150407I0J-4331D01*
G01*
G75*
G03*
Y159069I0J4331D01*
G01*
Y639069D02*
G75*
G03*
Y630407I0J-4331D01*
G01*
G75*
G03*
Y639069I0J4331D01*
G01*
X1191746Y366470D02*
G75*
G03*
Y357809I0J-4331D01*
G01*
G75*
G03*
Y366470I0J4331D01*
G01*
X1196864Y352691D02*
G75*
G03*
Y344030I0J-4331D01*
G01*
G75*
G03*
Y352691I0J4331D01*
G01*
X1197258Y379069D02*
G75*
G03*
Y370407I0J-4331D01*
G01*
G75*
G03*
Y379069I0J4331D01*
G01*
X1200250Y164581D02*
G75*
G03*
Y155919I0J-4331D01*
G01*
G75*
G03*
Y164581I0J4331D01*
G01*
Y644581D02*
G75*
G03*
Y635919I0J-4331D01*
G01*
G75*
G03*
Y644581I0J4331D01*
G01*
X1210250Y384581D02*
G75*
G03*
Y375919I0J-4331D01*
G01*
G75*
G03*
Y384581I0J4331D01*
G01*
Y3720250D02*
G75*
G03*
X1200250Y3710250I-5000J-5000D01*
G01*
G75*
G03*
X1210250Y3720250I5000J5000D01*
G01*
X1213242Y158675D02*
G75*
G03*
Y150014I0J-4331D01*
G01*
G75*
G03*
Y158675I0J4331D01*
G01*
Y638675D02*
G75*
G03*
Y630014I0J-4331D01*
G01*
G75*
G03*
Y638675I0J4331D01*
G01*
X1213636Y132691D02*
G75*
G03*
Y124030I0J-4331D01*
G01*
G75*
G03*
Y132691I0J4331D01*
G01*
Y612691D02*
G75*
G03*
Y604030I0J-4331D01*
G01*
G75*
G03*
Y612691I0J4331D01*
G01*
X1218754Y146470D02*
G75*
G03*
Y137809I0J-4331D01*
G01*
G75*
G03*
Y146470I0J4331D01*
G01*
Y626470D02*
G75*
G03*
Y617809I0J-4331D01*
G01*
G75*
G03*
Y626470I0J4331D01*
G01*
X1221746Y1126470D02*
G75*
G03*
Y1117809I0J-4331D01*
G01*
G75*
G03*
Y1126470I0J4331D01*
G01*
Y1254030D02*
G75*
G03*
Y1262691I0J4331D01*
G01*
G75*
G03*
Y1254030I0J-4331D01*
G01*
Y1456470D02*
G75*
G03*
Y1447809I0J-4331D01*
G01*
G75*
G03*
Y1456470I0J4331D01*
G01*
Y1584030D02*
G75*
G03*
Y1592691I0J4331D01*
G01*
G75*
G03*
Y1584030I0J-4331D01*
G01*
X1223242Y378675D02*
G75*
G03*
Y370014I0J-4331D01*
G01*
G75*
G03*
Y378675I0J4331D01*
G01*
X1223636Y352691D02*
G75*
G03*
Y344030I0J-4331D01*
G01*
G75*
G03*
Y352691I0J4331D01*
G01*
X1226864Y1112691D02*
G75*
G03*
Y1104030I0J-4331D01*
G01*
G75*
G03*
Y1112691I0J4331D01*
G01*
Y1267809D02*
G75*
G03*
Y1276470I0J4331D01*
G01*
G75*
G03*
Y1267809I0J-4331D01*
G01*
Y1442691D02*
G75*
G03*
Y1434030I0J-4331D01*
G01*
G75*
G03*
Y1442691I0J4331D01*
G01*
Y1597809D02*
G75*
G03*
Y1606470I0J4331D01*
G01*
G75*
G03*
Y1597809I0J-4331D01*
G01*
X1227258Y1139069D02*
G75*
G03*
Y1130407I0J-4331D01*
G01*
G75*
G03*
Y1139069I0J4331D01*
G01*
Y1241825D02*
G75*
G03*
Y1250486I0J4331D01*
G01*
G75*
G03*
Y1241825I0J-4331D01*
G01*
Y1469069D02*
G75*
G03*
Y1460407I0J-4331D01*
G01*
G75*
G03*
Y1469069I0J4331D01*
G01*
Y1571825D02*
G75*
G03*
Y1580486I0J4331D01*
G01*
G75*
G03*
Y1571825I0J-4331D01*
G01*
X1228754Y366470D02*
G75*
G03*
Y357809I0J-4331D01*
G01*
G75*
G03*
Y366470I0J4331D01*
G01*
X1231746Y2086470D02*
G75*
G03*
Y2077809I0J-4331D01*
G01*
G75*
G03*
Y2086470I0J4331D01*
G01*
X1236864Y2072691D02*
G75*
G03*
Y2064030I0J-4331D01*
G01*
G75*
G03*
Y2072691I0J4331D01*
G01*
X1237258Y2099069D02*
G75*
G03*
Y2090407I0J-4331D01*
G01*
G75*
G03*
Y2099069I0J4331D01*
G01*
X1240250Y1144581D02*
G75*
G03*
Y1135919I0J-4331D01*
G01*
G75*
G03*
Y1144581I0J4331D01*
G01*
Y1235919D02*
G75*
G03*
Y1244581I0J4331D01*
G01*
G75*
G03*
Y1235919I0J-4331D01*
G01*
Y1474581D02*
G75*
G03*
Y1465919I0J-4331D01*
G01*
G75*
G03*
Y1474581I0J4331D01*
G01*
Y1565919D02*
G75*
G03*
Y1574581I0J4331D01*
G01*
G75*
G03*
Y1565919I0J-4331D01*
G01*
X1250250Y2104581D02*
G75*
G03*
Y2095919I0J-4331D01*
G01*
G75*
G03*
Y2104581I0J4331D01*
G01*
X1253242Y1138675D02*
G75*
G03*
Y1130014I0J-4331D01*
G01*
G75*
G03*
Y1138675I0J4331D01*
G01*
Y1241431D02*
G75*
G03*
Y1250093I0J4331D01*
G01*
G75*
G03*
Y1241431I0J-4331D01*
G01*
Y1468675D02*
G75*
G03*
Y1460014I0J-4331D01*
G01*
G75*
G03*
Y1468675I0J4331D01*
G01*
Y1571431D02*
G75*
G03*
Y1580093I0J4331D01*
G01*
G75*
G03*
Y1571431I0J-4331D01*
G01*
X1253636Y1112691D02*
G75*
G03*
Y1104030I0J-4331D01*
G01*
G75*
G03*
Y1112691I0J4331D01*
G01*
Y1267809D02*
G75*
G03*
Y1276470I0J4331D01*
G01*
G75*
G03*
Y1267809I0J-4331D01*
G01*
Y1442691D02*
G75*
G03*
Y1434030I0J-4331D01*
G01*
G75*
G03*
Y1442691I0J4331D01*
G01*
Y1597809D02*
G75*
G03*
Y1606470I0J4331D01*
G01*
G75*
G03*
Y1597809I0J-4331D01*
G01*
X1258754Y1126470D02*
G75*
G03*
Y1117809I0J-4331D01*
G01*
G75*
G03*
Y1126470I0J4331D01*
G01*
Y1254030D02*
G75*
G03*
Y1262691I0J4331D01*
G01*
G75*
G03*
Y1254030I0J-4331D01*
G01*
Y1456470D02*
G75*
G03*
Y1447809I0J-4331D01*
G01*
G75*
G03*
Y1456470I0J4331D01*
G01*
Y1584030D02*
G75*
G03*
Y1592691I0J4331D01*
G01*
G75*
G03*
Y1584030I0J-4331D01*
G01*
X1263242Y2098675D02*
G75*
G03*
Y2090014I0J-4331D01*
G01*
G75*
G03*
Y2098675I0J4331D01*
G01*
X1263636Y2072691D02*
G75*
G03*
Y2064030I0J-4331D01*
G01*
G75*
G03*
Y2072691I0J4331D01*
G01*
X1268754Y2086470D02*
G75*
G03*
Y2077809I0J-4331D01*
G01*
G75*
G03*
Y2086470I0J4331D01*
G01*
X1271746Y146470D02*
G75*
G03*
Y137809I0J-4331D01*
G01*
G75*
G03*
Y146470I0J4331D01*
G01*
Y626470D02*
G75*
G03*
Y617809I0J-4331D01*
G01*
G75*
G03*
Y626470I0J4331D01*
G01*
Y3636864D02*
G75*
G03*
Y3628203I0J-4331D01*
G01*
G75*
G03*
Y3636864I0J4331D01*
G01*
X1276864Y132691D02*
G75*
G03*
Y124030I0J-4331D01*
G01*
G75*
G03*
Y132691I0J4331D01*
G01*
Y612691D02*
G75*
G03*
Y604030I0J-4331D01*
G01*
G75*
G03*
Y612691I0J4331D01*
G01*
Y3623085D02*
G75*
G03*
Y3614423I0J-4331D01*
G01*
G75*
G03*
Y3623085I0J4331D01*
G01*
X1277258Y159069D02*
G75*
G03*
Y150407I0J-4331D01*
G01*
G75*
G03*
Y159069I0J4331D01*
G01*
Y639069D02*
G75*
G03*
Y630407I0J-4331D01*
G01*
G75*
G03*
Y639069I0J4331D01*
G01*
Y3649463D02*
G75*
G03*
Y3640801I0J-4331D01*
G01*
G75*
G03*
Y3649463I0J4331D01*
G01*
X1280250Y2430250D02*
X980250D01*
Y3390250D01*
X1280250D01*
Y2430250D01*
X1281746Y366470D02*
G75*
G03*
Y357809I0J-4331D01*
G01*
G75*
G03*
Y366470I0J4331D01*
G01*
X1286864Y352691D02*
G75*
G03*
Y344030I0J-4331D01*
G01*
G75*
G03*
Y352691I0J4331D01*
G01*
X1287258Y379069D02*
G75*
G03*
Y370407I0J-4331D01*
G01*
G75*
G03*
Y379069I0J4331D01*
G01*
X1290250Y164581D02*
G75*
G03*
Y155919I0J-4331D01*
G01*
G75*
G03*
Y164581I0J4331D01*
G01*
Y644581D02*
G75*
G03*
Y635919I0J-4331D01*
G01*
G75*
G03*
Y644581I0J4331D01*
G01*
Y2430250D02*
X1880250D01*
Y2670250D01*
X1290250D01*
Y2430250D01*
Y2670250D02*
X1880250D01*
Y2910250D01*
X1290250D01*
Y2670250D01*
Y2910250D02*
X1880250D01*
Y3150250D01*
X1290250D01*
Y2910250D01*
Y3150250D02*
X1880250D01*
Y3390250D01*
X1290250D01*
Y3150250D01*
Y3654974D02*
G75*
G03*
Y3646313I0J-4331D01*
G01*
G75*
G03*
Y3654974I0J4331D01*
G01*
X1300250Y384581D02*
G75*
G03*
Y375919I0J-4331D01*
G01*
G75*
G03*
Y384581I0J4331D01*
G01*
X1303242Y158675D02*
G75*
G03*
Y150014I0J-4331D01*
G01*
G75*
G03*
Y158675I0J4331D01*
G01*
Y638675D02*
G75*
G03*
Y630014I0J-4331D01*
G01*
G75*
G03*
Y638675I0J4331D01*
G01*
Y3649069D02*
G75*
G03*
Y3640407I0J-4331D01*
G01*
G75*
G03*
Y3649069I0J4331D01*
G01*
X1303636Y132691D02*
G75*
G03*
Y124030I0J-4331D01*
G01*
G75*
G03*
Y132691I0J4331D01*
G01*
Y612691D02*
G75*
G03*
Y604030I0J-4331D01*
G01*
G75*
G03*
Y612691I0J4331D01*
G01*
Y3623085D02*
G75*
G03*
Y3614423I0J-4331D01*
G01*
G75*
G03*
Y3623085I0J4331D01*
G01*
X1308754Y146470D02*
G75*
G03*
Y137809I0J-4331D01*
G01*
G75*
G03*
Y146470I0J4331D01*
G01*
Y626470D02*
G75*
G03*
Y617809I0J-4331D01*
G01*
G75*
G03*
Y626470I0J4331D01*
G01*
Y3636864D02*
G75*
G03*
Y3628203I0J-4331D01*
G01*
G75*
G03*
Y3636864I0J4331D01*
G01*
X1310250Y2560250D02*
G75*
G03*
X1300250Y2550250I-5000J-5000D01*
G01*
G75*
G03*
X1310250Y2560250I5000J5000D01*
G01*
Y2800250D02*
G75*
G03*
X1300250Y2790250I-5000J-5000D01*
G01*
G75*
G03*
X1310250Y2800250I5000J5000D01*
G01*
Y3040250D02*
G75*
G03*
X1300250Y3030250I-5000J-5000D01*
G01*
G75*
G03*
X1310250Y3040250I5000J5000D01*
G01*
Y3280250D02*
G75*
G03*
X1300250Y3270250I-5000J-5000D01*
G01*
G75*
G03*
X1310250Y3280250I5000J5000D01*
G01*
X1313242Y378675D02*
G75*
G03*
Y370014I0J-4331D01*
G01*
G75*
G03*
Y378675I0J4331D01*
G01*
X1313636Y352691D02*
G75*
G03*
Y344030I0J-4331D01*
G01*
G75*
G03*
Y352691I0J4331D01*
G01*
X1318754Y366470D02*
G75*
G03*
Y357809I0J-4331D01*
G01*
G75*
G03*
Y366470I0J4331D01*
G01*
X1330250Y2070250D02*
G75*
G03*
X1320250Y2060250I-5000J-5000D01*
G01*
G75*
G03*
X1330250Y2070250I5000J5000D01*
G01*
Y2300250D02*
G75*
G03*
X1320250Y2290250I-5000J-5000D01*
G01*
G75*
G03*
X1330250Y2300250I5000J5000D01*
G01*
X1350250Y1940250D02*
X1430250D01*
Y2420250D01*
X1350250D01*
Y1940250D01*
X1351746Y1126470D02*
G75*
G03*
Y1117809I0J-4331D01*
G01*
G75*
G03*
Y1126470I0J4331D01*
G01*
Y1254030D02*
G75*
G03*
Y1262691I0J4331D01*
G01*
G75*
G03*
Y1254030I0J-4331D01*
G01*
Y1456470D02*
G75*
G03*
Y1447809I0J-4331D01*
G01*
G75*
G03*
Y1456470I0J4331D01*
G01*
Y1584030D02*
G75*
G03*
Y1592691I0J4331D01*
G01*
G75*
G03*
Y1584030I0J-4331D01*
G01*
X1356864Y1112691D02*
G75*
G03*
Y1104030I0J-4331D01*
G01*
G75*
G03*
Y1112691I0J4331D01*
G01*
Y1267809D02*
G75*
G03*
Y1276470I0J4331D01*
G01*
G75*
G03*
Y1267809I0J-4331D01*
G01*
Y1442691D02*
G75*
G03*
Y1434030I0J-4331D01*
G01*
G75*
G03*
Y1442691I0J4331D01*
G01*
Y1597809D02*
G75*
G03*
Y1606470I0J4331D01*
G01*
G75*
G03*
Y1597809I0J-4331D01*
G01*
X1357258Y1139069D02*
G75*
G03*
Y1130407I0J-4331D01*
G01*
G75*
G03*
Y1139069I0J4331D01*
G01*
Y1241825D02*
G75*
G03*
Y1250486I0J4331D01*
G01*
G75*
G03*
Y1241825I0J-4331D01*
G01*
Y1469069D02*
G75*
G03*
Y1460407I0J-4331D01*
G01*
G75*
G03*
Y1469069I0J4331D01*
G01*
Y1571825D02*
G75*
G03*
Y1580486I0J4331D01*
G01*
G75*
G03*
Y1571825I0J-4331D01*
G01*
X1361746Y146470D02*
G75*
G03*
Y137809I0J-4331D01*
G01*
G75*
G03*
Y146470I0J4331D01*
G01*
Y626470D02*
G75*
G03*
Y617809I0J-4331D01*
G01*
G75*
G03*
Y626470I0J4331D01*
G01*
X1366864Y132691D02*
G75*
G03*
Y124030I0J-4331D01*
G01*
G75*
G03*
Y132691I0J4331D01*
G01*
Y612691D02*
G75*
G03*
Y604030I0J-4331D01*
G01*
G75*
G03*
Y612691I0J4331D01*
G01*
X1367258Y159069D02*
G75*
G03*
Y150407I0J-4331D01*
G01*
G75*
G03*
Y159069I0J4331D01*
G01*
Y639069D02*
G75*
G03*
Y630407I0J-4331D01*
G01*
G75*
G03*
Y639069I0J4331D01*
G01*
X1370250Y1144581D02*
G75*
G03*
Y1135919I0J-4331D01*
G01*
G75*
G03*
Y1144581I0J4331D01*
G01*
Y1235919D02*
G75*
G03*
Y1244581I0J4331D01*
G01*
G75*
G03*
Y1235919I0J-4331D01*
G01*
Y1474581D02*
G75*
G03*
Y1465919I0J-4331D01*
G01*
G75*
G03*
Y1474581I0J4331D01*
G01*
Y1565919D02*
G75*
G03*
Y1574581I0J4331D01*
G01*
G75*
G03*
Y1565919I0J-4331D01*
G01*
X1380250Y164581D02*
G75*
G03*
Y155919I0J-4331D01*
G01*
G75*
G03*
Y164581I0J4331D01*
G01*
Y644581D02*
G75*
G03*
Y635919I0J-4331D01*
G01*
G75*
G03*
Y644581I0J4331D01*
G01*
X1381746Y3636864D02*
G75*
G03*
Y3628203I0J-4331D01*
G01*
G75*
G03*
Y3636864I0J4331D01*
G01*
X1383242Y1138675D02*
G75*
G03*
Y1130014I0J-4331D01*
G01*
G75*
G03*
Y1138675I0J4331D01*
G01*
Y1241431D02*
G75*
G03*
Y1250093I0J4331D01*
G01*
G75*
G03*
Y1241431I0J-4331D01*
G01*
Y1468675D02*
G75*
G03*
Y1460014I0J-4331D01*
G01*
G75*
G03*
Y1468675I0J4331D01*
G01*
Y1571431D02*
G75*
G03*
Y1580093I0J4331D01*
G01*
G75*
G03*
Y1571431I0J-4331D01*
G01*
X1383636Y1112691D02*
G75*
G03*
Y1104030I0J-4331D01*
G01*
G75*
G03*
Y1112691I0J4331D01*
G01*
Y1267809D02*
G75*
G03*
Y1276470I0J4331D01*
G01*
G75*
G03*
Y1267809I0J-4331D01*
G01*
Y1442691D02*
G75*
G03*
Y1434030I0J-4331D01*
G01*
G75*
G03*
Y1442691I0J4331D01*
G01*
Y1597809D02*
G75*
G03*
Y1606470I0J4331D01*
G01*
G75*
G03*
Y1597809I0J-4331D01*
G01*
X1386864Y3623085D02*
G75*
G03*
Y3614423I0J-4331D01*
G01*
G75*
G03*
Y3623085I0J4331D01*
G01*
X1387258Y3649463D02*
G75*
G03*
Y3640801I0J-4331D01*
G01*
G75*
G03*
Y3649463I0J4331D01*
G01*
X1388754Y1126470D02*
G75*
G03*
Y1117809I0J-4331D01*
G01*
G75*
G03*
Y1126470I0J4331D01*
G01*
Y1254030D02*
G75*
G03*
Y1262691I0J4331D01*
G01*
G75*
G03*
Y1254030I0J-4331D01*
G01*
Y1456470D02*
G75*
G03*
Y1447809I0J-4331D01*
G01*
G75*
G03*
Y1456470I0J4331D01*
G01*
Y1584030D02*
G75*
G03*
Y1592691I0J4331D01*
G01*
G75*
G03*
Y1584030I0J-4331D01*
G01*
X1391746Y2606864D02*
G75*
G03*
Y2598203I0J-4331D01*
G01*
G75*
G03*
Y2606864I0J4331D01*
G01*
Y2846864D02*
G75*
G03*
Y2838203I0J-4331D01*
G01*
G75*
G03*
Y2846864I0J4331D01*
G01*
Y3086864D02*
G75*
G03*
Y3078203I0J-4331D01*
G01*
G75*
G03*
Y3086864I0J4331D01*
G01*
Y3326864D02*
G75*
G03*
Y3318203I0J-4331D01*
G01*
G75*
G03*
Y3326864I0J4331D01*
G01*
X1393242Y158675D02*
G75*
G03*
Y150014I0J-4331D01*
G01*
G75*
G03*
Y158675I0J4331D01*
G01*
Y638675D02*
G75*
G03*
Y630014I0J-4331D01*
G01*
G75*
G03*
Y638675I0J4331D01*
G01*
X1393636Y132691D02*
G75*
G03*
Y124030I0J-4331D01*
G01*
G75*
G03*
Y132691I0J4331D01*
G01*
Y612691D02*
G75*
G03*
Y604030I0J-4331D01*
G01*
G75*
G03*
Y612691I0J4331D01*
G01*
X1396864Y2593085D02*
G75*
G03*
Y2584423I0J-4331D01*
G01*
G75*
G03*
Y2593085I0J4331D01*
G01*
Y2833085D02*
G75*
G03*
Y2824423I0J-4331D01*
G01*
G75*
G03*
Y2833085I0J4331D01*
G01*
Y3073085D02*
G75*
G03*
Y3064423I0J-4331D01*
G01*
G75*
G03*
Y3073085I0J4331D01*
G01*
Y3313085D02*
G75*
G03*
Y3304423I0J-4331D01*
G01*
G75*
G03*
Y3313085I0J4331D01*
G01*
X1397258Y2619463D02*
G75*
G03*
Y2610801I0J-4331D01*
G01*
G75*
G03*
Y2619463I0J4331D01*
G01*
Y2859463D02*
G75*
G03*
Y2850801I0J-4331D01*
G01*
G75*
G03*
Y2859463I0J4331D01*
G01*
Y3099463D02*
G75*
G03*
Y3090801I0J-4331D01*
G01*
G75*
G03*
Y3099463I0J4331D01*
G01*
Y3339463D02*
G75*
G03*
Y3330801I0J-4331D01*
G01*
G75*
G03*
Y3339463I0J4331D01*
G01*
X1398754Y146470D02*
G75*
G03*
Y137809I0J-4331D01*
G01*
G75*
G03*
Y146470I0J4331D01*
G01*
Y626470D02*
G75*
G03*
Y617809I0J-4331D01*
G01*
G75*
G03*
Y626470I0J4331D01*
G01*
X1400250Y3654974D02*
G75*
G03*
Y3646313I0J-4331D01*
G01*
G75*
G03*
Y3654974I0J4331D01*
G01*
X1410250Y2624974D02*
G75*
G03*
Y2616313I0J-4331D01*
G01*
G75*
G03*
Y2624974I0J4331D01*
G01*
Y2864974D02*
G75*
G03*
Y2856313I0J-4331D01*
G01*
G75*
G03*
Y2864974I0J4331D01*
G01*
Y3104974D02*
G75*
G03*
Y3096313I0J-4331D01*
G01*
G75*
G03*
Y3104974I0J4331D01*
G01*
Y3344974D02*
G75*
G03*
Y3336313I0J-4331D01*
G01*
G75*
G03*
Y3344974I0J4331D01*
G01*
X1413242Y3649069D02*
G75*
G03*
Y3640407I0J-4331D01*
G01*
G75*
G03*
Y3649069I0J4331D01*
G01*
X1413636Y3623085D02*
G75*
G03*
Y3614423I0J-4331D01*
G01*
G75*
G03*
Y3623085I0J4331D01*
G01*
X1418754Y3636864D02*
G75*
G03*
Y3628203I0J-4331D01*
G01*
G75*
G03*
Y3636864I0J4331D01*
G01*
X1423242Y2619069D02*
G75*
G03*
Y2610407I0J-4331D01*
G01*
G75*
G03*
Y2619069I0J4331D01*
G01*
Y2859069D02*
G75*
G03*
Y2850407I0J-4331D01*
G01*
G75*
G03*
Y2859069I0J4331D01*
G01*
Y3099069D02*
G75*
G03*
Y3090407I0J-4331D01*
G01*
G75*
G03*
Y3099069I0J4331D01*
G01*
Y3339069D02*
G75*
G03*
Y3330407I0J-4331D01*
G01*
G75*
G03*
Y3339069I0J4331D01*
G01*
X1423636Y2593085D02*
G75*
G03*
Y2584423I0J-4331D01*
G01*
G75*
G03*
Y2593085I0J4331D01*
G01*
Y2833085D02*
G75*
G03*
Y2824423I0J-4331D01*
G01*
G75*
G03*
Y2833085I0J4331D01*
G01*
Y3073085D02*
G75*
G03*
Y3064423I0J-4331D01*
G01*
G75*
G03*
Y3073085I0J4331D01*
G01*
Y3313085D02*
G75*
G03*
Y3304423I0J-4331D01*
G01*
G75*
G03*
Y3313085I0J4331D01*
G01*
X1428754Y2606864D02*
G75*
G03*
Y2598203I0J-4331D01*
G01*
G75*
G03*
Y2606864I0J4331D01*
G01*
Y2846864D02*
G75*
G03*
Y2838203I0J-4331D01*
G01*
G75*
G03*
Y2846864I0J4331D01*
G01*
Y3086864D02*
G75*
G03*
Y3078203I0J-4331D01*
G01*
G75*
G03*
Y3086864I0J4331D01*
G01*
Y3326864D02*
G75*
G03*
Y3318203I0J-4331D01*
G01*
G75*
G03*
Y3326864I0J4331D01*
G01*
X1440250Y1940250D02*
X1700250D01*
Y2330250D01*
X1440250D01*
Y1940250D01*
Y2340250D02*
X1700250D01*
Y2400250D01*
X1440250D01*
Y2340250D01*
X1460250Y130250D02*
G75*
G03*
X1450250Y120250I-5000J-5000D01*
G01*
G75*
G03*
X1460250Y130250I5000J5000D01*
G01*
Y360250D02*
G75*
G03*
X1450250Y350250I-5000J-5000D01*
G01*
G75*
G03*
X1460250Y360250I5000J5000D01*
G01*
Y610250D02*
G75*
G03*
X1450250Y600250I-5000J-5000D01*
G01*
G75*
G03*
X1460250Y610250I5000J5000D01*
G01*
Y2040250D02*
G75*
G03*
X1450250Y2030250I-5000J-5000D01*
G01*
G75*
G03*
X1460250Y2040250I5000J5000D01*
G01*
Y2300250D02*
G75*
G03*
X1450250Y2290250I-5000J-5000D01*
G01*
G75*
G03*
X1460250Y2300250I5000J5000D01*
G01*
X1480250Y1120250D02*
G75*
G03*
X1470250Y1110250I-5000J-5000D01*
G01*
G75*
G03*
X1480250Y1120250I5000J5000D01*
G01*
Y1240250D02*
G75*
G03*
X1470250Y1230250I-5000J-5000D01*
G01*
G75*
G03*
X1480250Y1240250I5000J5000D01*
G01*
Y1460250D02*
G75*
G03*
X1470250Y1450250I-5000J-5000D01*
G01*
G75*
G03*
X1480250Y1460250I5000J5000D01*
G01*
Y1630250D02*
G75*
G03*
X1470250Y1620250I-5000J-5000D01*
G01*
G75*
G03*
X1480250Y1630250I5000J5000D01*
G01*
X1481746Y2056470D02*
G75*
G03*
Y2047809I0J-4331D01*
G01*
G75*
G03*
Y2056470I0J4331D01*
G01*
X1486864Y2042691D02*
G75*
G03*
Y2034030I0J-4331D01*
G01*
G75*
G03*
Y2042691I0J4331D01*
G01*
X1487258Y2069069D02*
G75*
G03*
Y2060407I0J-4331D01*
G01*
G75*
G03*
Y2069069I0J4331D01*
G01*
X1490250Y3720250D02*
G75*
G03*
X1480250Y3710250I-5000J-5000D01*
G01*
G75*
G03*
X1490250Y3720250I5000J5000D01*
G01*
X1500250Y2074581D02*
G75*
G03*
Y2065919I0J-4331D01*
G01*
G75*
G03*
Y2074581I0J4331D01*
G01*
X1501746Y2224030D02*
G75*
G03*
Y2232691I0J4331D01*
G01*
G75*
G03*
Y2224030I0J-4331D01*
G01*
X1506864Y2237809D02*
G75*
G03*
Y2246470I0J4331D01*
G01*
G75*
G03*
Y2237809I0J-4331D01*
G01*
X1507258Y2211825D02*
G75*
G03*
Y2220486I0J4331D01*
G01*
G75*
G03*
Y2211825I0J-4331D01*
G01*
X1513242Y2068675D02*
G75*
G03*
Y2060014I0J-4331D01*
G01*
G75*
G03*
Y2068675I0J4331D01*
G01*
X1513636Y2042691D02*
G75*
G03*
Y2034030I0J-4331D01*
G01*
G75*
G03*
Y2042691I0J4331D01*
G01*
X1518281Y3718281D02*
G75*
G03*
X1522219Y3722219I1969J1969D01*
G01*
G75*
G03*
X1518281Y3718281I-1969J-1969D01*
G01*
X1518754Y2056470D02*
G75*
G03*
Y2047809I0J-4331D01*
G01*
G75*
G03*
Y2056470I0J4331D01*
G01*
X1520250Y2205919D02*
G75*
G03*
Y2214581I0J4331D01*
G01*
G75*
G03*
Y2205919I0J-4331D01*
G01*
X1521746Y2606864D02*
G75*
G03*
Y2598203I0J-4331D01*
G01*
G75*
G03*
Y2606864I0J4331D01*
G01*
Y2846864D02*
G75*
G03*
Y2838203I0J-4331D01*
G01*
G75*
G03*
Y2846864I0J4331D01*
G01*
Y3086864D02*
G75*
G03*
Y3078203I0J-4331D01*
G01*
G75*
G03*
Y3086864I0J4331D01*
G01*
Y3326864D02*
G75*
G03*
Y3318203I0J-4331D01*
G01*
G75*
G03*
Y3326864I0J4331D01*
G01*
X1526864Y2593085D02*
G75*
G03*
Y2584423I0J-4331D01*
G01*
G75*
G03*
Y2593085I0J4331D01*
G01*
Y2833085D02*
G75*
G03*
Y2824423I0J-4331D01*
G01*
G75*
G03*
Y2833085I0J4331D01*
G01*
Y3073085D02*
G75*
G03*
Y3064423I0J-4331D01*
G01*
G75*
G03*
Y3073085I0J4331D01*
G01*
Y3313085D02*
G75*
G03*
Y3304423I0J-4331D01*
G01*
G75*
G03*
Y3313085I0J4331D01*
G01*
X1527258Y2619463D02*
G75*
G03*
Y2610801I0J-4331D01*
G01*
G75*
G03*
Y2619463I0J4331D01*
G01*
Y2859463D02*
G75*
G03*
Y2850801I0J-4331D01*
G01*
G75*
G03*
Y2859463I0J4331D01*
G01*
Y3099463D02*
G75*
G03*
Y3090801I0J-4331D01*
G01*
G75*
G03*
Y3099463I0J4331D01*
G01*
Y3339463D02*
G75*
G03*
Y3330801I0J-4331D01*
G01*
G75*
G03*
Y3339463I0J4331D01*
G01*
X1530250Y3490250D02*
G75*
G03*
Y3510250I0J10000D01*
G01*
G75*
G03*
Y3490250I0J-10000D01*
G01*
Y3660250D02*
G75*
G03*
Y3680250I0J10000D01*
G01*
G75*
G03*
Y3660250I0J-10000D01*
G01*
X1533242Y2211431D02*
G75*
G03*
Y2220093I0J4331D01*
G01*
G75*
G03*
Y2211431I0J-4331D01*
G01*
X1533636Y2237809D02*
G75*
G03*
Y2246470I0J4331D01*
G01*
G75*
G03*
Y2237809I0J-4331D01*
G01*
X1538754Y2224030D02*
G75*
G03*
Y2232691I0J4331D01*
G01*
G75*
G03*
Y2224030I0J-4331D01*
G01*
X1540250Y2624974D02*
G75*
G03*
Y2616313I0J-4331D01*
G01*
G75*
G03*
Y2624974I0J4331D01*
G01*
Y2864974D02*
G75*
G03*
Y2856313I0J-4331D01*
G01*
G75*
G03*
Y2864974I0J4331D01*
G01*
Y3104974D02*
G75*
G03*
Y3096313I0J-4331D01*
G01*
G75*
G03*
Y3104974I0J4331D01*
G01*
Y3344974D02*
G75*
G03*
Y3336313I0J-4331D01*
G01*
G75*
G03*
Y3344974I0J4331D01*
G01*
X1551746Y1116470D02*
G75*
G03*
Y1107809I0J-4331D01*
G01*
G75*
G03*
Y1116470I0J4331D01*
G01*
Y1446470D02*
G75*
G03*
Y1437809I0J-4331D01*
G01*
G75*
G03*
Y1446470I0J4331D01*
G01*
X1553242Y2619069D02*
G75*
G03*
Y2610407I0J-4331D01*
G01*
G75*
G03*
Y2619069I0J4331D01*
G01*
Y2859069D02*
G75*
G03*
Y2850407I0J-4331D01*
G01*
G75*
G03*
Y2859069I0J4331D01*
G01*
Y3099069D02*
G75*
G03*
Y3090407I0J-4331D01*
G01*
G75*
G03*
Y3099069I0J4331D01*
G01*
Y3339069D02*
G75*
G03*
Y3330407I0J-4331D01*
G01*
G75*
G03*
Y3339069I0J4331D01*
G01*
X1553636Y2593085D02*
G75*
G03*
Y2584423I0J-4331D01*
G01*
G75*
G03*
Y2593085I0J4331D01*
G01*
Y2833085D02*
G75*
G03*
Y2824423I0J-4331D01*
G01*
G75*
G03*
Y2833085I0J4331D01*
G01*
Y3073085D02*
G75*
G03*
Y3064423I0J-4331D01*
G01*
G75*
G03*
Y3073085I0J4331D01*
G01*
Y3313085D02*
G75*
G03*
Y3304423I0J-4331D01*
G01*
G75*
G03*
Y3313085I0J4331D01*
G01*
X1556864Y1102691D02*
G75*
G03*
Y1094030I0J-4331D01*
G01*
G75*
G03*
Y1102691I0J4331D01*
G01*
Y1432691D02*
G75*
G03*
Y1424030I0J-4331D01*
G01*
G75*
G03*
Y1432691I0J4331D01*
G01*
X1557258Y1129069D02*
G75*
G03*
Y1120407I0J-4331D01*
G01*
G75*
G03*
Y1129069I0J4331D01*
G01*
Y1459069D02*
G75*
G03*
Y1450407I0J-4331D01*
G01*
G75*
G03*
Y1459069I0J4331D01*
G01*
X1558754Y2606864D02*
G75*
G03*
Y2598203I0J-4331D01*
G01*
G75*
G03*
Y2606864I0J4331D01*
G01*
Y2846864D02*
G75*
G03*
Y2838203I0J-4331D01*
G01*
G75*
G03*
Y2846864I0J4331D01*
G01*
Y3086864D02*
G75*
G03*
Y3078203I0J-4331D01*
G01*
G75*
G03*
Y3086864I0J4331D01*
G01*
Y3326864D02*
G75*
G03*
Y3318203I0J-4331D01*
G01*
G75*
G03*
Y3326864I0J4331D01*
G01*
X1570250Y1134581D02*
G75*
G03*
Y1125919I0J-4331D01*
G01*
G75*
G03*
Y1134581I0J4331D01*
G01*
Y1464581D02*
G75*
G03*
Y1455919I0J-4331D01*
G01*
G75*
G03*
Y1464581I0J4331D01*
G01*
X1571746Y1284030D02*
G75*
G03*
Y1292691I0J4331D01*
G01*
G75*
G03*
Y1284030I0J-4331D01*
G01*
Y1614030D02*
G75*
G03*
Y1622691I0J4331D01*
G01*
G75*
G03*
Y1614030I0J-4331D01*
G01*
Y2056470D02*
G75*
G03*
Y2047809I0J-4331D01*
G01*
G75*
G03*
Y2056470I0J4331D01*
G01*
X1576864Y1297809D02*
G75*
G03*
Y1306470I0J4331D01*
G01*
G75*
G03*
Y1297809I0J-4331D01*
G01*
Y1627809D02*
G75*
G03*
Y1636470I0J4331D01*
G01*
G75*
G03*
Y1627809I0J-4331D01*
G01*
Y2042691D02*
G75*
G03*
Y2034030I0J-4331D01*
G01*
G75*
G03*
Y2042691I0J4331D01*
G01*
X1577258Y1271825D02*
G75*
G03*
Y1280486I0J4331D01*
G01*
G75*
G03*
Y1271825I0J-4331D01*
G01*
Y1601825D02*
G75*
G03*
Y1610486I0J4331D01*
G01*
G75*
G03*
Y1601825I0J-4331D01*
G01*
Y2069069D02*
G75*
G03*
Y2060407I0J-4331D01*
G01*
G75*
G03*
Y2069069I0J4331D01*
G01*
X1583242Y1128675D02*
G75*
G03*
Y1120014I0J-4331D01*
G01*
G75*
G03*
Y1128675I0J4331D01*
G01*
Y1458675D02*
G75*
G03*
Y1450014I0J-4331D01*
G01*
G75*
G03*
Y1458675I0J4331D01*
G01*
X1583636Y1102691D02*
G75*
G03*
Y1094030I0J-4331D01*
G01*
G75*
G03*
Y1102691I0J4331D01*
G01*
Y1432691D02*
G75*
G03*
Y1424030I0J-4331D01*
G01*
G75*
G03*
Y1432691I0J4331D01*
G01*
X1588754Y1116470D02*
G75*
G03*
Y1107809I0J-4331D01*
G01*
G75*
G03*
Y1116470I0J4331D01*
G01*
Y1446470D02*
G75*
G03*
Y1437809I0J-4331D01*
G01*
G75*
G03*
Y1446470I0J4331D01*
G01*
X1590250Y1265919D02*
G75*
G03*
Y1274581I0J4331D01*
G01*
G75*
G03*
Y1265919I0J-4331D01*
G01*
Y1595919D02*
G75*
G03*
Y1604581I0J4331D01*
G01*
G75*
G03*
Y1595919I0J-4331D01*
G01*
Y2074581D02*
G75*
G03*
Y2065919I0J-4331D01*
G01*
G75*
G03*
Y2074581I0J4331D01*
G01*
X1591746Y2224030D02*
G75*
G03*
Y2232691I0J4331D01*
G01*
G75*
G03*
Y2224030I0J-4331D01*
G01*
X1596864Y2237809D02*
G75*
G03*
Y2246470I0J4331D01*
G01*
G75*
G03*
Y2237809I0J-4331D01*
G01*
X1597258Y2211825D02*
G75*
G03*
Y2220486I0J4331D01*
G01*
G75*
G03*
Y2211825I0J-4331D01*
G01*
X1603242Y1271431D02*
G75*
G03*
Y1280093I0J4331D01*
G01*
G75*
G03*
Y1271431I0J-4331D01*
G01*
Y1601431D02*
G75*
G03*
Y1610093I0J4331D01*
G01*
G75*
G03*
Y1601431I0J-4331D01*
G01*
Y2068675D02*
G75*
G03*
Y2060014I0J-4331D01*
G01*
G75*
G03*
Y2068675I0J4331D01*
G01*
X1603636Y1297809D02*
G75*
G03*
Y1306470I0J4331D01*
G01*
G75*
G03*
Y1297809I0J-4331D01*
G01*
Y1627809D02*
G75*
G03*
Y1636470I0J4331D01*
G01*
G75*
G03*
Y1627809I0J-4331D01*
G01*
Y2042691D02*
G75*
G03*
Y2034030I0J-4331D01*
G01*
G75*
G03*
Y2042691I0J4331D01*
G01*
X1608281Y3508281D02*
G75*
G03*
X1612219Y3512219I1969J1969D01*
G01*
G75*
G03*
X1608281Y3508281I-1969J-1969D01*
G01*
X1608754Y1284030D02*
G75*
G03*
Y1292691I0J4331D01*
G01*
G75*
G03*
Y1284030I0J-4331D01*
G01*
Y1614030D02*
G75*
G03*
Y1622691I0J4331D01*
G01*
G75*
G03*
Y1614030I0J-4331D01*
G01*
Y2056470D02*
G75*
G03*
Y2047809I0J-4331D01*
G01*
G75*
G03*
Y2056470I0J4331D01*
G01*
X1610250Y2205919D02*
G75*
G03*
Y2214581I0J4331D01*
G01*
G75*
G03*
Y2205919I0J-4331D01*
G01*
X1620250Y3600250D02*
G75*
G03*
X1610250Y3590250I-5000J-5000D01*
G01*
G75*
G03*
X1620250Y3600250I5000J5000D01*
G01*
X1623242Y2211431D02*
G75*
G03*
Y2220093I0J4331D01*
G01*
G75*
G03*
Y2211431I0J-4331D01*
G01*
X1623636Y2237809D02*
G75*
G03*
Y2246470I0J4331D01*
G01*
G75*
G03*
Y2237809I0J-4331D01*
G01*
X1628754Y2224030D02*
G75*
G03*
Y2232691I0J4331D01*
G01*
G75*
G03*
Y2224030I0J-4331D01*
G01*
X1630250Y3400250D02*
X2690250D01*
Y3520250D01*
G75*
G03*
X2670250Y3540250I-20000J0D01*
G01*
X1720250D01*
G75*
G02*
X1680250Y3580250I0J40000D01*
G01*
G75*
G03*
X1630250Y3620250I-45000J-5000D01*
G01*
Y3400250D01*
X1650250Y250D02*
X1480250D01*
Y960250D01*
X1650250D01*
Y250D01*
Y3600250D02*
G75*
G03*
X1640250Y3590250I-5000J-5000D01*
G01*
G75*
G03*
X1650250Y3600250I5000J5000D01*
G01*
X1651746Y2606470D02*
G75*
G03*
Y2597809I0J-4331D01*
G01*
G75*
G03*
Y2606470I0J4331D01*
G01*
Y2846470D02*
G75*
G03*
Y2837809I0J-4331D01*
G01*
G75*
G03*
Y2846470I0J4331D01*
G01*
Y3086470D02*
G75*
G03*
Y3077809I0J-4331D01*
G01*
G75*
G03*
Y3086470I0J4331D01*
G01*
Y3326470D02*
G75*
G03*
Y3317809I0J-4331D01*
G01*
G75*
G03*
Y3326470I0J4331D01*
G01*
X1656864Y2592691D02*
G75*
G03*
Y2584030I0J-4331D01*
G01*
G75*
G03*
Y2592691I0J4331D01*
G01*
Y2832691D02*
G75*
G03*
Y2824030I0J-4331D01*
G01*
G75*
G03*
Y2832691I0J4331D01*
G01*
Y3072691D02*
G75*
G03*
Y3064030I0J-4331D01*
G01*
G75*
G03*
Y3072691I0J4331D01*
G01*
Y3312691D02*
G75*
G03*
Y3304030I0J-4331D01*
G01*
G75*
G03*
Y3312691I0J4331D01*
G01*
X1657258Y2619069D02*
G75*
G03*
Y2610407I0J-4331D01*
G01*
G75*
G03*
Y2619069I0J4331D01*
G01*
Y2859069D02*
G75*
G03*
Y2850407I0J-4331D01*
G01*
G75*
G03*
Y2859069I0J4331D01*
G01*
Y3099069D02*
G75*
G03*
Y3090407I0J-4331D01*
G01*
G75*
G03*
Y3099069I0J4331D01*
G01*
Y3339069D02*
G75*
G03*
Y3330407I0J-4331D01*
G01*
G75*
G03*
Y3339069I0J4331D01*
G01*
X1659852Y250D02*
X2249852D01*
Y310250D01*
X1659852D01*
Y250D01*
Y320250D02*
X2249852D01*
Y490250D01*
X1659852D01*
Y320250D01*
X1660250Y500250D02*
X2250250D01*
Y830250D01*
X1660250D01*
Y500250D01*
Y830250D02*
X2250250D01*
Y960250D01*
X1660250D01*
Y830250D01*
X1670250Y2624581D02*
G75*
G03*
Y2615919I0J-4331D01*
G01*
G75*
G03*
Y2624581I0J4331D01*
G01*
Y2864581D02*
G75*
G03*
Y2855919I0J-4331D01*
G01*
G75*
G03*
Y2864581I0J4331D01*
G01*
Y3104581D02*
G75*
G03*
Y3095919I0J-4331D01*
G01*
G75*
G03*
Y3104581I0J4331D01*
G01*
Y3344581D02*
G75*
G03*
Y3335919I0J-4331D01*
G01*
G75*
G03*
Y3344581I0J4331D01*
G01*
X1680250Y70250D02*
G75*
G03*
X1670250Y60250I-5000J-5000D01*
G01*
G75*
G03*
X1680250Y70250I5000J5000D01*
G01*
Y230250D02*
G75*
G03*
X1670250Y220250I-5000J-5000D01*
G01*
G75*
G03*
X1680250Y230250I5000J5000D01*
G01*
Y410250D02*
G75*
G03*
X1670250Y400250I-5000J-5000D01*
G01*
G75*
G03*
X1680250Y410250I5000J5000D01*
G01*
Y610250D02*
G75*
G03*
X1670250Y600250I-5000J-5000D01*
G01*
G75*
G03*
X1680250Y610250I5000J5000D01*
G01*
X1683242Y2618675D02*
G75*
G03*
Y2610014I0J-4331D01*
G01*
G75*
G03*
Y2618675I0J4331D01*
G01*
Y2858675D02*
G75*
G03*
Y2850014I0J-4331D01*
G01*
G75*
G03*
Y2858675I0J4331D01*
G01*
Y3098675D02*
G75*
G03*
Y3090014I0J-4331D01*
G01*
G75*
G03*
Y3098675I0J4331D01*
G01*
Y3338675D02*
G75*
G03*
Y3330014I0J-4331D01*
G01*
G75*
G03*
Y3338675I0J4331D01*
G01*
X1683636Y2592691D02*
G75*
G03*
Y2584030I0J-4331D01*
G01*
G75*
G03*
Y2592691I0J4331D01*
G01*
Y2832691D02*
G75*
G03*
Y2824030I0J-4331D01*
G01*
G75*
G03*
Y2832691I0J4331D01*
G01*
Y3072691D02*
G75*
G03*
Y3064030I0J-4331D01*
G01*
G75*
G03*
Y3072691I0J4331D01*
G01*
Y3312691D02*
G75*
G03*
Y3304030I0J-4331D01*
G01*
G75*
G03*
Y3312691I0J4331D01*
G01*
X1688754Y2606470D02*
G75*
G03*
Y2597809I0J-4331D01*
G01*
G75*
G03*
Y2606470I0J4331D01*
G01*
Y2846470D02*
G75*
G03*
Y2837809I0J-4331D01*
G01*
G75*
G03*
Y2846470I0J4331D01*
G01*
Y3086470D02*
G75*
G03*
Y3077809I0J-4331D01*
G01*
G75*
G03*
Y3086470I0J4331D01*
G01*
Y3326470D02*
G75*
G03*
Y3317809I0J-4331D01*
G01*
G75*
G03*
Y3326470I0J4331D01*
G01*
X1690250Y2040250D02*
G75*
G03*
X1680250Y2030250I-5000J-5000D01*
G01*
G75*
G03*
X1690250Y2040250I5000J5000D01*
G01*
X1710250Y1940250D02*
X1820250D01*
Y2420250D01*
X1710250D01*
Y1940250D01*
X1730250Y970250D02*
X1500250D01*
Y1930250D01*
X1730250D01*
Y970250D01*
X1740250Y1360250D02*
X2180250D01*
Y970250D01*
X1740250D01*
Y1360250D01*
Y1750250D02*
X2180250D01*
Y1360250D01*
X1740250D01*
Y1750250D01*
Y1930250D02*
Y1750250D01*
X2180250D01*
Y1930250D01*
X1740250D01*
X1741746Y616470D02*
G75*
G03*
Y607809I0J-4331D01*
G01*
G75*
G03*
Y616470I0J4331D01*
G01*
Y784030D02*
G75*
G03*
Y792691I0J4331D01*
G01*
G75*
G03*
Y784030I0J-4331D01*
G01*
X1746864Y602691D02*
G75*
G03*
Y594030I0J-4331D01*
G01*
G75*
G03*
Y602691I0J4331D01*
G01*
Y797809D02*
G75*
G03*
Y806470I0J4331D01*
G01*
G75*
G03*
Y797809I0J-4331D01*
G01*
X1747258Y629069D02*
G75*
G03*
Y620407I0J-4331D01*
G01*
G75*
G03*
Y629069I0J4331D01*
G01*
Y771825D02*
G75*
G03*
Y780486I0J4331D01*
G01*
G75*
G03*
Y771825I0J-4331D01*
G01*
X1760250Y634581D02*
G75*
G03*
Y625919I0J-4331D01*
G01*
G75*
G03*
Y634581I0J4331D01*
G01*
Y765919D02*
G75*
G03*
Y774581I0J4331D01*
G01*
G75*
G03*
Y765919I0J-4331D01*
G01*
Y1320250D02*
G75*
G03*
X1750250Y1310250I-5000J-5000D01*
G01*
G75*
G03*
X1760250Y1320250I5000J5000D01*
G01*
Y1710250D02*
G75*
G03*
X1750250Y1700250I-5000J-5000D01*
G01*
G75*
G03*
X1760250Y1710250I5000J5000D01*
G01*
X1771746Y1086470D02*
G75*
G03*
Y1077809I0J-4331D01*
G01*
G75*
G03*
Y1086470I0J4331D01*
G01*
Y1476470D02*
G75*
G03*
Y1467809I0J-4331D01*
G01*
G75*
G03*
Y1476470I0J4331D01*
G01*
X1773242Y628675D02*
G75*
G03*
Y620014I0J-4331D01*
G01*
G75*
G03*
Y628675I0J4331D01*
G01*
Y771431D02*
G75*
G03*
Y780093I0J4331D01*
G01*
G75*
G03*
Y771431I0J-4331D01*
G01*
X1773636Y602691D02*
G75*
G03*
Y594030I0J-4331D01*
G01*
G75*
G03*
Y602691I0J4331D01*
G01*
Y797809D02*
G75*
G03*
Y806470I0J4331D01*
G01*
G75*
G03*
Y797809I0J-4331D01*
G01*
X1776864Y1072691D02*
G75*
G03*
Y1064030I0J-4331D01*
G01*
G75*
G03*
Y1072691I0J4331D01*
G01*
Y1462691D02*
G75*
G03*
Y1454030I0J-4331D01*
G01*
G75*
G03*
Y1462691I0J4331D01*
G01*
X1777258Y1099069D02*
G75*
G03*
Y1090407I0J-4331D01*
G01*
G75*
G03*
Y1099069I0J4331D01*
G01*
Y1489069D02*
G75*
G03*
Y1480407I0J-4331D01*
G01*
G75*
G03*
Y1489069I0J4331D01*
G01*
X1778754Y616470D02*
G75*
G03*
Y607809I0J-4331D01*
G01*
G75*
G03*
Y616470I0J4331D01*
G01*
Y784030D02*
G75*
G03*
Y792691I0J4331D01*
G01*
G75*
G03*
Y784030I0J-4331D01*
G01*
X1781746Y96470D02*
G75*
G03*
Y87809I0J-4331D01*
G01*
G75*
G03*
Y96470I0J4331D01*
G01*
Y2606470D02*
G75*
G03*
Y2597809I0J-4331D01*
G01*
G75*
G03*
Y2606470I0J4331D01*
G01*
Y2846470D02*
G75*
G03*
Y2837809I0J-4331D01*
G01*
G75*
G03*
Y2846470I0J4331D01*
G01*
Y3086470D02*
G75*
G03*
Y3077809I0J-4331D01*
G01*
G75*
G03*
Y3086470I0J4331D01*
G01*
Y3326470D02*
G75*
G03*
Y3317809I0J-4331D01*
G01*
G75*
G03*
Y3326470I0J4331D01*
G01*
X1786864Y82691D02*
G75*
G03*
Y74030I0J-4331D01*
G01*
G75*
G03*
Y82691I0J4331D01*
G01*
Y2592691D02*
G75*
G03*
Y2584030I0J-4331D01*
G01*
G75*
G03*
Y2592691I0J4331D01*
G01*
Y2832691D02*
G75*
G03*
Y2824030I0J-4331D01*
G01*
G75*
G03*
Y2832691I0J4331D01*
G01*
Y3072691D02*
G75*
G03*
Y3064030I0J-4331D01*
G01*
G75*
G03*
Y3072691I0J4331D01*
G01*
Y3312691D02*
G75*
G03*
Y3304030I0J-4331D01*
G01*
G75*
G03*
Y3312691I0J4331D01*
G01*
X1787258Y109069D02*
G75*
G03*
Y100407I0J-4331D01*
G01*
G75*
G03*
Y109069I0J4331D01*
G01*
Y2619069D02*
G75*
G03*
Y2610407I0J-4331D01*
G01*
G75*
G03*
Y2619069I0J4331D01*
G01*
Y2859069D02*
G75*
G03*
Y2850407I0J-4331D01*
G01*
G75*
G03*
Y2859069I0J4331D01*
G01*
Y3099069D02*
G75*
G03*
Y3090407I0J-4331D01*
G01*
G75*
G03*
Y3099069I0J4331D01*
G01*
Y3339069D02*
G75*
G03*
Y3330407I0J-4331D01*
G01*
G75*
G03*
Y3339069I0J4331D01*
G01*
X1790250Y1104581D02*
G75*
G03*
Y1095919I0J-4331D01*
G01*
G75*
G03*
Y1104581I0J4331D01*
G01*
Y1494581D02*
G75*
G03*
Y1485919I0J-4331D01*
G01*
G75*
G03*
Y1494581I0J4331D01*
G01*
X1791746Y236470D02*
G75*
G03*
Y227809I0J-4331D01*
G01*
G75*
G03*
Y236470I0J4331D01*
G01*
Y416470D02*
G75*
G03*
Y407809I0J-4331D01*
G01*
G75*
G03*
Y416470I0J4331D01*
G01*
X1796864Y222691D02*
G75*
G03*
Y214030I0J-4331D01*
G01*
G75*
G03*
Y222691I0J4331D01*
G01*
Y402691D02*
G75*
G03*
Y394030I0J-4331D01*
G01*
G75*
G03*
Y402691I0J4331D01*
G01*
X1797258Y249069D02*
G75*
G03*
Y240407I0J-4331D01*
G01*
G75*
G03*
Y249069I0J4331D01*
G01*
Y429069D02*
G75*
G03*
Y420407I0J-4331D01*
G01*
G75*
G03*
Y429069I0J4331D01*
G01*
X1800250Y114581D02*
G75*
G03*
Y105919I0J-4331D01*
G01*
G75*
G03*
Y114581I0J4331D01*
G01*
Y2624581D02*
G75*
G03*
Y2615919I0J-4331D01*
G01*
G75*
G03*
Y2624581I0J4331D01*
G01*
Y2864581D02*
G75*
G03*
Y2855919I0J-4331D01*
G01*
G75*
G03*
Y2864581I0J4331D01*
G01*
Y3104581D02*
G75*
G03*
Y3095919I0J-4331D01*
G01*
G75*
G03*
Y3104581I0J4331D01*
G01*
Y3344581D02*
G75*
G03*
Y3335919I0J-4331D01*
G01*
G75*
G03*
Y3344581I0J4331D01*
G01*
X1803242Y1098675D02*
G75*
G03*
Y1090014I0J-4331D01*
G01*
G75*
G03*
Y1098675I0J4331D01*
G01*
Y1488675D02*
G75*
G03*
Y1480014I0J-4331D01*
G01*
G75*
G03*
Y1488675I0J4331D01*
G01*
X1803636Y1072691D02*
G75*
G03*
Y1064030I0J-4331D01*
G01*
G75*
G03*
Y1072691I0J4331D01*
G01*
Y1462691D02*
G75*
G03*
Y1454030I0J-4331D01*
G01*
G75*
G03*
Y1462691I0J4331D01*
G01*
X1808754Y1086470D02*
G75*
G03*
Y1077809I0J-4331D01*
G01*
G75*
G03*
Y1086470I0J4331D01*
G01*
Y1476470D02*
G75*
G03*
Y1467809I0J-4331D01*
G01*
G75*
G03*
Y1476470I0J4331D01*
G01*
X1810250Y254581D02*
G75*
G03*
Y245919I0J-4331D01*
G01*
G75*
G03*
Y254581I0J4331D01*
G01*
Y434581D02*
G75*
G03*
Y425919I0J-4331D01*
G01*
G75*
G03*
Y434581I0J4331D01*
G01*
X1813242Y108675D02*
G75*
G03*
Y100014I0J-4331D01*
G01*
G75*
G03*
Y108675I0J4331D01*
G01*
Y2618675D02*
G75*
G03*
Y2610014I0J-4331D01*
G01*
G75*
G03*
Y2618675I0J4331D01*
G01*
Y2858675D02*
G75*
G03*
Y2850014I0J-4331D01*
G01*
G75*
G03*
Y2858675I0J4331D01*
G01*
Y3098675D02*
G75*
G03*
Y3090014I0J-4331D01*
G01*
G75*
G03*
Y3098675I0J4331D01*
G01*
Y3338675D02*
G75*
G03*
Y3330014I0J-4331D01*
G01*
G75*
G03*
Y3338675I0J4331D01*
G01*
X1813636Y82691D02*
G75*
G03*
Y74030I0J-4331D01*
G01*
G75*
G03*
Y82691I0J4331D01*
G01*
Y2592691D02*
G75*
G03*
Y2584030I0J-4331D01*
G01*
G75*
G03*
Y2592691I0J4331D01*
G01*
Y2832691D02*
G75*
G03*
Y2824030I0J-4331D01*
G01*
G75*
G03*
Y2832691I0J4331D01*
G01*
Y3072691D02*
G75*
G03*
Y3064030I0J-4331D01*
G01*
G75*
G03*
Y3072691I0J4331D01*
G01*
Y3312691D02*
G75*
G03*
Y3304030I0J-4331D01*
G01*
G75*
G03*
Y3312691I0J4331D01*
G01*
X1818754Y96470D02*
G75*
G03*
Y87809I0J-4331D01*
G01*
G75*
G03*
Y96470I0J4331D01*
G01*
Y2606470D02*
G75*
G03*
Y2597809I0J-4331D01*
G01*
G75*
G03*
Y2606470I0J4331D01*
G01*
Y2846470D02*
G75*
G03*
Y2837809I0J-4331D01*
G01*
G75*
G03*
Y2846470I0J4331D01*
G01*
Y3086470D02*
G75*
G03*
Y3077809I0J-4331D01*
G01*
G75*
G03*
Y3086470I0J4331D01*
G01*
Y3326470D02*
G75*
G03*
Y3317809I0J-4331D01*
G01*
G75*
G03*
Y3326470I0J4331D01*
G01*
X1821746Y784030D02*
G75*
G03*
Y792691I0J4331D01*
G01*
G75*
G03*
Y784030I0J-4331D01*
G01*
Y1244030D02*
G75*
G03*
Y1252691I0J4331D01*
G01*
G75*
G03*
Y1244030I0J-4331D01*
G01*
Y1634030D02*
G75*
G03*
Y1642691I0J4331D01*
G01*
G75*
G03*
Y1634030I0J-4331D01*
G01*
X1823242Y248675D02*
G75*
G03*
Y240014I0J-4331D01*
G01*
G75*
G03*
Y248675I0J4331D01*
G01*
Y428675D02*
G75*
G03*
Y420014I0J-4331D01*
G01*
G75*
G03*
Y428675I0J4331D01*
G01*
X1823636Y222691D02*
G75*
G03*
Y214030I0J-4331D01*
G01*
G75*
G03*
Y222691I0J4331D01*
G01*
Y402691D02*
G75*
G03*
Y394030I0J-4331D01*
G01*
G75*
G03*
Y402691I0J4331D01*
G01*
X1826864Y797809D02*
G75*
G03*
Y806470I0J4331D01*
G01*
G75*
G03*
Y797809I0J-4331D01*
G01*
Y1257809D02*
G75*
G03*
Y1266470I0J4331D01*
G01*
G75*
G03*
Y1257809I0J-4331D01*
G01*
Y1647809D02*
G75*
G03*
Y1656470I0J4331D01*
G01*
G75*
G03*
Y1647809I0J-4331D01*
G01*
X1827258Y771825D02*
G75*
G03*
Y780486I0J4331D01*
G01*
G75*
G03*
Y771825I0J-4331D01*
G01*
Y1231825D02*
G75*
G03*
Y1240486I0J4331D01*
G01*
G75*
G03*
Y1231825I0J-4331D01*
G01*
Y1621825D02*
G75*
G03*
Y1630486I0J4331D01*
G01*
G75*
G03*
Y1621825I0J-4331D01*
G01*
X1828754Y236470D02*
G75*
G03*
Y227809I0J-4331D01*
G01*
G75*
G03*
Y236470I0J4331D01*
G01*
Y416470D02*
G75*
G03*
Y407809I0J-4331D01*
G01*
G75*
G03*
Y416470I0J4331D01*
G01*
X1830250Y1940250D02*
X2300250D01*
Y2190250D01*
X1830250D01*
Y1940250D01*
Y2400250D02*
Y2290250D01*
X2300250D01*
Y2400250D01*
X1830250D01*
X1840250Y765919D02*
G75*
G03*
Y774581I0J4331D01*
G01*
G75*
G03*
Y765919I0J-4331D01*
G01*
Y1225919D02*
G75*
G03*
Y1234581I0J4331D01*
G01*
G75*
G03*
Y1225919I0J-4331D01*
G01*
Y1615919D02*
G75*
G03*
Y1624581I0J4331D01*
G01*
G75*
G03*
Y1615919I0J-4331D01*
G01*
X1850250Y2120250D02*
G75*
G03*
X1840250Y2110250I-5000J-5000D01*
G01*
G75*
G03*
X1850250Y2120250I5000J5000D01*
G01*
X1853242Y771431D02*
G75*
G03*
Y780093I0J4331D01*
G01*
G75*
G03*
Y771431I0J-4331D01*
G01*
Y1231431D02*
G75*
G03*
Y1240093I0J4331D01*
G01*
G75*
G03*
Y1231431I0J-4331D01*
G01*
Y1621431D02*
G75*
G03*
Y1630093I0J4331D01*
G01*
G75*
G03*
Y1621431I0J-4331D01*
G01*
X1853636Y797809D02*
G75*
G03*
Y806470I0J4331D01*
G01*
G75*
G03*
Y797809I0J-4331D01*
G01*
Y1257809D02*
G75*
G03*
Y1266470I0J4331D01*
G01*
G75*
G03*
Y1257809I0J-4331D01*
G01*
Y1647809D02*
G75*
G03*
Y1656470I0J4331D01*
G01*
G75*
G03*
Y1647809I0J-4331D01*
G01*
X1858754Y784030D02*
G75*
G03*
Y792691I0J4331D01*
G01*
G75*
G03*
Y784030I0J-4331D01*
G01*
Y1244030D02*
G75*
G03*
Y1252691I0J4331D01*
G01*
G75*
G03*
Y1244030I0J-4331D01*
G01*
Y1634030D02*
G75*
G03*
Y1642691I0J4331D01*
G01*
G75*
G03*
Y1634030I0J-4331D01*
G01*
X1861746Y1086470D02*
G75*
G03*
Y1077809I0J-4331D01*
G01*
G75*
G03*
Y1086470I0J4331D01*
G01*
Y1476470D02*
G75*
G03*
Y1467809I0J-4331D01*
G01*
G75*
G03*
Y1476470I0J4331D01*
G01*
X1866864Y1072691D02*
G75*
G03*
Y1064030I0J-4331D01*
G01*
G75*
G03*
Y1072691I0J4331D01*
G01*
Y1462691D02*
G75*
G03*
Y1454030I0J-4331D01*
G01*
G75*
G03*
Y1462691I0J4331D01*
G01*
X1867258Y1099069D02*
G75*
G03*
Y1090407I0J-4331D01*
G01*
G75*
G03*
Y1099069I0J4331D01*
G01*
Y1489069D02*
G75*
G03*
Y1480407I0J-4331D01*
G01*
G75*
G03*
Y1489069I0J4331D01*
G01*
X1870250Y2560250D02*
G75*
G03*
X1860250Y2550250I-5000J-5000D01*
G01*
G75*
G03*
X1870250Y2560250I5000J5000D01*
G01*
Y2800250D02*
G75*
G03*
X1860250Y2790250I-5000J-5000D01*
G01*
G75*
G03*
X1870250Y2800250I5000J5000D01*
G01*
Y3040250D02*
G75*
G03*
X1860250Y3030250I-5000J-5000D01*
G01*
G75*
G03*
X1870250Y3040250I5000J5000D01*
G01*
Y3280250D02*
G75*
G03*
X1860250Y3270250I-5000J-5000D01*
G01*
G75*
G03*
X1870250Y3280250I5000J5000D01*
G01*
X1871746Y616470D02*
G75*
G03*
Y607809I0J-4331D01*
G01*
G75*
G03*
Y616470I0J4331D01*
G01*
X1876864Y602691D02*
G75*
G03*
Y594030I0J-4331D01*
G01*
G75*
G03*
Y602691I0J4331D01*
G01*
X1877258Y629069D02*
G75*
G03*
Y620407I0J-4331D01*
G01*
G75*
G03*
Y629069I0J4331D01*
G01*
X1880250Y1104581D02*
G75*
G03*
Y1095919I0J-4331D01*
G01*
G75*
G03*
Y1104581I0J4331D01*
G01*
Y1494581D02*
G75*
G03*
Y1485919I0J-4331D01*
G01*
G75*
G03*
Y1494581I0J4331D01*
G01*
X1881746Y96470D02*
G75*
G03*
Y87809I0J-4331D01*
G01*
G75*
G03*
Y96470I0J4331D01*
G01*
X1886864Y82691D02*
G75*
G03*
Y74030I0J-4331D01*
G01*
G75*
G03*
Y82691I0J4331D01*
G01*
X1887258Y109069D02*
G75*
G03*
Y100407I0J-4331D01*
G01*
G75*
G03*
Y109069I0J4331D01*
G01*
X1890250Y634581D02*
G75*
G03*
Y625919I0J-4331D01*
G01*
G75*
G03*
Y634581I0J4331D01*
G01*
Y2430250D02*
X1950250D01*
Y3390250D01*
X1890250D01*
Y2430250D01*
X1891746Y236470D02*
G75*
G03*
Y227809I0J-4331D01*
G01*
G75*
G03*
Y236470I0J4331D01*
G01*
Y416470D02*
G75*
G03*
Y407809I0J-4331D01*
G01*
G75*
G03*
Y416470I0J4331D01*
G01*
X1893242Y1098675D02*
G75*
G03*
Y1090014I0J-4331D01*
G01*
G75*
G03*
Y1098675I0J4331D01*
G01*
Y1488675D02*
G75*
G03*
Y1480014I0J-4331D01*
G01*
G75*
G03*
Y1488675I0J4331D01*
G01*
X1893636Y1072691D02*
G75*
G03*
Y1064030I0J-4331D01*
G01*
G75*
G03*
Y1072691I0J4331D01*
G01*
Y1462691D02*
G75*
G03*
Y1454030I0J-4331D01*
G01*
G75*
G03*
Y1462691I0J4331D01*
G01*
X1896864Y222691D02*
G75*
G03*
Y214030I0J-4331D01*
G01*
G75*
G03*
Y222691I0J4331D01*
G01*
Y402691D02*
G75*
G03*
Y394030I0J-4331D01*
G01*
G75*
G03*
Y402691I0J4331D01*
G01*
X1897258Y249069D02*
G75*
G03*
Y240407I0J-4331D01*
G01*
G75*
G03*
Y249069I0J4331D01*
G01*
Y429069D02*
G75*
G03*
Y420407I0J-4331D01*
G01*
G75*
G03*
Y429069I0J4331D01*
G01*
X1898754Y1086470D02*
G75*
G03*
Y1077809I0J-4331D01*
G01*
G75*
G03*
Y1086470I0J4331D01*
G01*
Y1476470D02*
G75*
G03*
Y1467809I0J-4331D01*
G01*
G75*
G03*
Y1476470I0J4331D01*
G01*
X1900250Y114581D02*
G75*
G03*
Y105919I0J-4331D01*
G01*
G75*
G03*
Y114581I0J4331D01*
G01*
X1901746Y784030D02*
G75*
G03*
Y792691I0J4331D01*
G01*
G75*
G03*
Y784030I0J-4331D01*
G01*
Y2086470D02*
G75*
G03*
Y2077809I0J-4331D01*
G01*
G75*
G03*
Y2086470I0J4331D01*
G01*
X1903242Y628675D02*
G75*
G03*
Y620014I0J-4331D01*
G01*
G75*
G03*
Y628675I0J4331D01*
G01*
X1903636Y602691D02*
G75*
G03*
Y594030I0J-4331D01*
G01*
G75*
G03*
Y602691I0J4331D01*
G01*
X1906864Y797809D02*
G75*
G03*
Y806470I0J4331D01*
G01*
G75*
G03*
Y797809I0J-4331D01*
G01*
Y2072691D02*
G75*
G03*
Y2064030I0J-4331D01*
G01*
G75*
G03*
Y2072691I0J4331D01*
G01*
X1907258Y771825D02*
G75*
G03*
Y780486I0J4331D01*
G01*
G75*
G03*
Y771825I0J-4331D01*
G01*
Y2099069D02*
G75*
G03*
Y2090407I0J-4331D01*
G01*
G75*
G03*
Y2099069I0J4331D01*
G01*
X1908754Y616470D02*
G75*
G03*
Y607809I0J-4331D01*
G01*
G75*
G03*
Y616470I0J4331D01*
G01*
X1910250Y254581D02*
G75*
G03*
Y245919I0J-4331D01*
G01*
G75*
G03*
Y254581I0J4331D01*
G01*
Y434581D02*
G75*
G03*
Y425919I0J-4331D01*
G01*
G75*
G03*
Y434581I0J4331D01*
G01*
X1911746Y1244030D02*
G75*
G03*
Y1252691I0J4331D01*
G01*
G75*
G03*
Y1244030I0J-4331D01*
G01*
Y1634030D02*
G75*
G03*
Y1642691I0J4331D01*
G01*
G75*
G03*
Y1634030I0J-4331D01*
G01*
X1913242Y108675D02*
G75*
G03*
Y100014I0J-4331D01*
G01*
G75*
G03*
Y108675I0J4331D01*
G01*
X1913636Y82691D02*
G75*
G03*
Y74030I0J-4331D01*
G01*
G75*
G03*
Y82691I0J4331D01*
G01*
X1916864Y1257809D02*
G75*
G03*
Y1266470I0J4331D01*
G01*
G75*
G03*
Y1257809I0J-4331D01*
G01*
Y1647809D02*
G75*
G03*
Y1656470I0J4331D01*
G01*
G75*
G03*
Y1647809I0J-4331D01*
G01*
X1917258Y1231825D02*
G75*
G03*
Y1240486I0J4331D01*
G01*
G75*
G03*
Y1231825I0J-4331D01*
G01*
Y1621825D02*
G75*
G03*
Y1630486I0J4331D01*
G01*
G75*
G03*
Y1621825I0J-4331D01*
G01*
X1918754Y96470D02*
G75*
G03*
Y87809I0J-4331D01*
G01*
G75*
G03*
Y96470I0J4331D01*
G01*
X1920250Y765919D02*
G75*
G03*
Y774581I0J4331D01*
G01*
G75*
G03*
Y765919I0J-4331D01*
G01*
Y2104581D02*
G75*
G03*
Y2095919I0J-4331D01*
G01*
G75*
G03*
Y2104581I0J4331D01*
G01*
X1923242Y248675D02*
G75*
G03*
Y240014I0J-4331D01*
G01*
G75*
G03*
Y248675I0J4331D01*
G01*
Y428675D02*
G75*
G03*
Y420014I0J-4331D01*
G01*
G75*
G03*
Y428675I0J4331D01*
G01*
X1923636Y222691D02*
G75*
G03*
Y214030I0J-4331D01*
G01*
G75*
G03*
Y222691I0J4331D01*
G01*
Y402691D02*
G75*
G03*
Y394030I0J-4331D01*
G01*
G75*
G03*
Y402691I0J4331D01*
G01*
X1928754Y236470D02*
G75*
G03*
Y227809I0J-4331D01*
G01*
G75*
G03*
Y236470I0J4331D01*
G01*
Y416470D02*
G75*
G03*
Y407809I0J-4331D01*
G01*
G75*
G03*
Y416470I0J4331D01*
G01*
X1930250Y1225919D02*
G75*
G03*
Y1234581I0J4331D01*
G01*
G75*
G03*
Y1225919I0J-4331D01*
G01*
Y1615919D02*
G75*
G03*
Y1624581I0J4331D01*
G01*
G75*
G03*
Y1615919I0J-4331D01*
G01*
X1933242Y771431D02*
G75*
G03*
Y780093I0J4331D01*
G01*
G75*
G03*
Y771431I0J-4331D01*
G01*
Y2098675D02*
G75*
G03*
Y2090014I0J-4331D01*
G01*
G75*
G03*
Y2098675I0J4331D01*
G01*
X1933636Y797809D02*
G75*
G03*
Y806470I0J4331D01*
G01*
G75*
G03*
Y797809I0J-4331D01*
G01*
Y2072691D02*
G75*
G03*
Y2064030I0J-4331D01*
G01*
G75*
G03*
Y2072691I0J4331D01*
G01*
X1938754Y784030D02*
G75*
G03*
Y792691I0J4331D01*
G01*
G75*
G03*
Y784030I0J-4331D01*
G01*
Y2086470D02*
G75*
G03*
Y2077809I0J-4331D01*
G01*
G75*
G03*
Y2086470I0J4331D01*
G01*
X1943242Y1231431D02*
G75*
G03*
Y1240093I0J4331D01*
G01*
G75*
G03*
Y1231431I0J-4331D01*
G01*
Y1621431D02*
G75*
G03*
Y1630093I0J4331D01*
G01*
G75*
G03*
Y1621431I0J-4331D01*
G01*
X1943636Y1257809D02*
G75*
G03*
Y1266470I0J4331D01*
G01*
G75*
G03*
Y1257809I0J-4331D01*
G01*
Y1647809D02*
G75*
G03*
Y1656470I0J4331D01*
G01*
G75*
G03*
Y1647809I0J-4331D01*
G01*
X1948754Y1244030D02*
G75*
G03*
Y1252691I0J4331D01*
G01*
G75*
G03*
Y1244030I0J-4331D01*
G01*
Y1634030D02*
G75*
G03*
Y1642691I0J4331D01*
G01*
G75*
G03*
Y1634030I0J-4331D01*
G01*
X1951746Y1086470D02*
G75*
G03*
Y1077809I0J-4331D01*
G01*
G75*
G03*
Y1086470I0J4331D01*
G01*
Y1476470D02*
G75*
G03*
Y1467809I0J-4331D01*
G01*
G75*
G03*
Y1476470I0J4331D01*
G01*
X1956864Y1072691D02*
G75*
G03*
Y1064030I0J-4331D01*
G01*
G75*
G03*
Y1072691I0J4331D01*
G01*
Y1462691D02*
G75*
G03*
Y1454030I0J-4331D01*
G01*
G75*
G03*
Y1462691I0J4331D01*
G01*
X1957258Y1099069D02*
G75*
G03*
Y1090407I0J-4331D01*
G01*
G75*
G03*
Y1099069I0J4331D01*
G01*
Y1489069D02*
G75*
G03*
Y1480407I0J-4331D01*
G01*
G75*
G03*
Y1489069I0J4331D01*
G01*
X1960250Y2450250D02*
X2340250D01*
Y2670250D01*
X1960250D01*
Y2450250D01*
Y2690250D02*
X2340250D01*
Y2910250D01*
X1960250D01*
Y2690250D01*
Y2930250D02*
X2340250D01*
Y3150250D01*
X1960250D01*
Y2930250D01*
Y3170250D02*
X2340250D01*
Y3390250D01*
X1960250D01*
Y3170250D01*
X1961746Y616470D02*
G75*
G03*
Y607809I0J-4331D01*
G01*
G75*
G03*
Y616470I0J4331D01*
G01*
X1966864Y602691D02*
G75*
G03*
Y594030I0J-4331D01*
G01*
G75*
G03*
Y602691I0J4331D01*
G01*
X1967258Y629069D02*
G75*
G03*
Y620407I0J-4331D01*
G01*
G75*
G03*
Y629069I0J4331D01*
G01*
X1970250Y1104581D02*
G75*
G03*
Y1095919I0J-4331D01*
G01*
G75*
G03*
Y1104581I0J4331D01*
G01*
Y1494581D02*
G75*
G03*
Y1485919I0J-4331D01*
G01*
G75*
G03*
Y1494581I0J4331D01*
G01*
X1980250Y634581D02*
G75*
G03*
Y625919I0J-4331D01*
G01*
G75*
G03*
Y634581I0J4331D01*
G01*
Y2540250D02*
G75*
G03*
X1970250Y2530250I-5000J-5000D01*
G01*
G75*
G03*
X1980250Y2540250I5000J5000D01*
G01*
Y2780250D02*
G75*
G03*
X1970250Y2770250I-5000J-5000D01*
G01*
G75*
G03*
X1980250Y2780250I5000J5000D01*
G01*
Y3020250D02*
G75*
G03*
X1970250Y3010250I-5000J-5000D01*
G01*
G75*
G03*
X1980250Y3020250I5000J5000D01*
G01*
Y3260250D02*
G75*
G03*
X1970250Y3250250I-5000J-5000D01*
G01*
G75*
G03*
X1980250Y3260250I5000J5000D01*
G01*
X1981746Y96470D02*
G75*
G03*
Y87809I0J-4331D01*
G01*
G75*
G03*
Y96470I0J4331D01*
G01*
Y784030D02*
G75*
G03*
Y792691I0J4331D01*
G01*
G75*
G03*
Y784030I0J-4331D01*
G01*
X1983242Y1098675D02*
G75*
G03*
Y1090014I0J-4331D01*
G01*
G75*
G03*
Y1098675I0J4331D01*
G01*
Y1488675D02*
G75*
G03*
Y1480014I0J-4331D01*
G01*
G75*
G03*
Y1488675I0J4331D01*
G01*
X1983636Y1072691D02*
G75*
G03*
Y1064030I0J-4331D01*
G01*
G75*
G03*
Y1072691I0J4331D01*
G01*
Y1462691D02*
G75*
G03*
Y1454030I0J-4331D01*
G01*
G75*
G03*
Y1462691I0J4331D01*
G01*
X1986864Y82691D02*
G75*
G03*
Y74030I0J-4331D01*
G01*
G75*
G03*
Y82691I0J4331D01*
G01*
Y797809D02*
G75*
G03*
Y806470I0J4331D01*
G01*
G75*
G03*
Y797809I0J-4331D01*
G01*
X1987258Y109069D02*
G75*
G03*
Y100407I0J-4331D01*
G01*
G75*
G03*
Y109069I0J4331D01*
G01*
Y771825D02*
G75*
G03*
Y780486I0J4331D01*
G01*
G75*
G03*
Y771825I0J-4331D01*
G01*
X1988754Y1086470D02*
G75*
G03*
Y1077809I0J-4331D01*
G01*
G75*
G03*
Y1086470I0J4331D01*
G01*
Y1476470D02*
G75*
G03*
Y1467809I0J-4331D01*
G01*
G75*
G03*
Y1476470I0J4331D01*
G01*
X1991746Y2086470D02*
G75*
G03*
Y2077809I0J-4331D01*
G01*
G75*
G03*
Y2086470I0J4331D01*
G01*
Y2566470D02*
G75*
G03*
Y2557809I0J-4331D01*
G01*
G75*
G03*
Y2566470I0J4331D01*
G01*
Y2806470D02*
G75*
G03*
Y2797809I0J-4331D01*
G01*
G75*
G03*
Y2806470I0J4331D01*
G01*
Y3046470D02*
G75*
G03*
Y3037809I0J-4331D01*
G01*
G75*
G03*
Y3046470I0J4331D01*
G01*
Y3286470D02*
G75*
G03*
Y3277809I0J-4331D01*
G01*
G75*
G03*
Y3286470I0J4331D01*
G01*
X1993242Y628675D02*
G75*
G03*
Y620014I0J-4331D01*
G01*
G75*
G03*
Y628675I0J4331D01*
G01*
X1993636Y602691D02*
G75*
G03*
Y594030I0J-4331D01*
G01*
G75*
G03*
Y602691I0J4331D01*
G01*
X1996864Y2072691D02*
G75*
G03*
Y2064030I0J-4331D01*
G01*
G75*
G03*
Y2072691I0J4331D01*
G01*
Y2552691D02*
G75*
G03*
Y2544030I0J-4331D01*
G01*
G75*
G03*
Y2552691I0J4331D01*
G01*
Y2792691D02*
G75*
G03*
Y2784030I0J-4331D01*
G01*
G75*
G03*
Y2792691I0J4331D01*
G01*
Y3032691D02*
G75*
G03*
Y3024030I0J-4331D01*
G01*
G75*
G03*
Y3032691I0J4331D01*
G01*
Y3272691D02*
G75*
G03*
Y3264030I0J-4331D01*
G01*
G75*
G03*
Y3272691I0J4331D01*
G01*
X1997258Y2099069D02*
G75*
G03*
Y2090407I0J-4331D01*
G01*
G75*
G03*
Y2099069I0J4331D01*
G01*
Y2579069D02*
G75*
G03*
Y2570407I0J-4331D01*
G01*
G75*
G03*
Y2579069I0J4331D01*
G01*
Y2819069D02*
G75*
G03*
Y2810407I0J-4331D01*
G01*
G75*
G03*
Y2819069I0J4331D01*
G01*
Y3059069D02*
G75*
G03*
Y3050407I0J-4331D01*
G01*
G75*
G03*
Y3059069I0J4331D01*
G01*
Y3299069D02*
G75*
G03*
Y3290407I0J-4331D01*
G01*
G75*
G03*
Y3299069I0J4331D01*
G01*
X1998754Y616470D02*
G75*
G03*
Y607809I0J-4331D01*
G01*
G75*
G03*
Y616470I0J4331D01*
G01*
X2000250Y114581D02*
G75*
G03*
Y105919I0J-4331D01*
G01*
G75*
G03*
Y114581I0J4331D01*
G01*
Y765919D02*
G75*
G03*
Y774581I0J4331D01*
G01*
G75*
G03*
Y765919I0J-4331D01*
G01*
X2001746Y1244030D02*
G75*
G03*
Y1252691I0J4331D01*
G01*
G75*
G03*
Y1244030I0J-4331D01*
G01*
Y1634030D02*
G75*
G03*
Y1642691I0J4331D01*
G01*
G75*
G03*
Y1634030I0J-4331D01*
G01*
X2006864Y1257809D02*
G75*
G03*
Y1266470I0J4331D01*
G01*
G75*
G03*
Y1257809I0J-4331D01*
G01*
Y1647809D02*
G75*
G03*
Y1656470I0J4331D01*
G01*
G75*
G03*
Y1647809I0J-4331D01*
G01*
X2007258Y1231825D02*
G75*
G03*
Y1240486I0J4331D01*
G01*
G75*
G03*
Y1231825I0J-4331D01*
G01*
Y1621825D02*
G75*
G03*
Y1630486I0J4331D01*
G01*
G75*
G03*
Y1621825I0J-4331D01*
G01*
X2010250Y2104581D02*
G75*
G03*
Y2095919I0J-4331D01*
G01*
G75*
G03*
Y2104581I0J4331D01*
G01*
Y2584581D02*
G75*
G03*
Y2575919I0J-4331D01*
G01*
G75*
G03*
Y2584581I0J4331D01*
G01*
Y2824581D02*
G75*
G03*
Y2815919I0J-4331D01*
G01*
G75*
G03*
Y2824581I0J4331D01*
G01*
Y3064581D02*
G75*
G03*
Y3055919I0J-4331D01*
G01*
G75*
G03*
Y3064581I0J4331D01*
G01*
Y3304581D02*
G75*
G03*
Y3295919I0J-4331D01*
G01*
G75*
G03*
Y3304581I0J4331D01*
G01*
X2013242Y108675D02*
G75*
G03*
Y100014I0J-4331D01*
G01*
G75*
G03*
Y108675I0J4331D01*
G01*
Y771431D02*
G75*
G03*
Y780093I0J4331D01*
G01*
G75*
G03*
Y771431I0J-4331D01*
G01*
X2013636Y82691D02*
G75*
G03*
Y74030I0J-4331D01*
G01*
G75*
G03*
Y82691I0J4331D01*
G01*
Y797809D02*
G75*
G03*
Y806470I0J4331D01*
G01*
G75*
G03*
Y797809I0J-4331D01*
G01*
X2018754Y96470D02*
G75*
G03*
Y87809I0J-4331D01*
G01*
G75*
G03*
Y96470I0J4331D01*
G01*
Y784030D02*
G75*
G03*
Y792691I0J4331D01*
G01*
G75*
G03*
Y784030I0J-4331D01*
G01*
X2020250Y1225919D02*
G75*
G03*
Y1234581I0J4331D01*
G01*
G75*
G03*
Y1225919I0J-4331D01*
G01*
Y1615919D02*
G75*
G03*
Y1624581I0J4331D01*
G01*
G75*
G03*
Y1615919I0J-4331D01*
G01*
X2023242Y2098675D02*
G75*
G03*
Y2090014I0J-4331D01*
G01*
G75*
G03*
Y2098675I0J4331D01*
G01*
Y2578675D02*
G75*
G03*
Y2570014I0J-4331D01*
G01*
G75*
G03*
Y2578675I0J4331D01*
G01*
Y2818675D02*
G75*
G03*
Y2810014I0J-4331D01*
G01*
G75*
G03*
Y2818675I0J4331D01*
G01*
Y3058675D02*
G75*
G03*
Y3050014I0J-4331D01*
G01*
G75*
G03*
Y3058675I0J4331D01*
G01*
Y3298675D02*
G75*
G03*
Y3290014I0J-4331D01*
G01*
G75*
G03*
Y3298675I0J4331D01*
G01*
X2023636Y2072691D02*
G75*
G03*
Y2064030I0J-4331D01*
G01*
G75*
G03*
Y2072691I0J4331D01*
G01*
Y2552691D02*
G75*
G03*
Y2544030I0J-4331D01*
G01*
G75*
G03*
Y2552691I0J4331D01*
G01*
Y2792691D02*
G75*
G03*
Y2784030I0J-4331D01*
G01*
G75*
G03*
Y2792691I0J4331D01*
G01*
Y3032691D02*
G75*
G03*
Y3024030I0J-4331D01*
G01*
G75*
G03*
Y3032691I0J4331D01*
G01*
Y3272691D02*
G75*
G03*
Y3264030I0J-4331D01*
G01*
G75*
G03*
Y3272691I0J4331D01*
G01*
X2028754Y2086470D02*
G75*
G03*
Y2077809I0J-4331D01*
G01*
G75*
G03*
Y2086470I0J4331D01*
G01*
Y2566470D02*
G75*
G03*
Y2557809I0J-4331D01*
G01*
G75*
G03*
Y2566470I0J4331D01*
G01*
Y2806470D02*
G75*
G03*
Y2797809I0J-4331D01*
G01*
G75*
G03*
Y2806470I0J4331D01*
G01*
Y3046470D02*
G75*
G03*
Y3037809I0J-4331D01*
G01*
G75*
G03*
Y3046470I0J4331D01*
G01*
Y3286470D02*
G75*
G03*
Y3277809I0J-4331D01*
G01*
G75*
G03*
Y3286470I0J4331D01*
G01*
X2033242Y1231431D02*
G75*
G03*
Y1240093I0J4331D01*
G01*
G75*
G03*
Y1231431I0J-4331D01*
G01*
Y1621431D02*
G75*
G03*
Y1630093I0J4331D01*
G01*
G75*
G03*
Y1621431I0J-4331D01*
G01*
X2033636Y1257809D02*
G75*
G03*
Y1266470I0J4331D01*
G01*
G75*
G03*
Y1257809I0J-4331D01*
G01*
Y1647809D02*
G75*
G03*
Y1656470I0J4331D01*
G01*
G75*
G03*
Y1647809I0J-4331D01*
G01*
X2038754Y1244030D02*
G75*
G03*
Y1252691I0J4331D01*
G01*
G75*
G03*
Y1244030I0J-4331D01*
G01*
Y1634030D02*
G75*
G03*
Y1642691I0J4331D01*
G01*
G75*
G03*
Y1634030I0J-4331D01*
G01*
X2041746Y236470D02*
G75*
G03*
Y227809I0J-4331D01*
G01*
G75*
G03*
Y236470I0J4331D01*
G01*
Y416470D02*
G75*
G03*
Y407809I0J-4331D01*
G01*
G75*
G03*
Y416470I0J4331D01*
G01*
Y1086470D02*
G75*
G03*
Y1077809I0J-4331D01*
G01*
G75*
G03*
Y1086470I0J4331D01*
G01*
Y1476470D02*
G75*
G03*
Y1467809I0J-4331D01*
G01*
G75*
G03*
Y1476470I0J4331D01*
G01*
X2046864Y222691D02*
G75*
G03*
Y214030I0J-4331D01*
G01*
G75*
G03*
Y222691I0J4331D01*
G01*
Y402691D02*
G75*
G03*
Y394030I0J-4331D01*
G01*
G75*
G03*
Y402691I0J4331D01*
G01*
Y1072691D02*
G75*
G03*
Y1064030I0J-4331D01*
G01*
G75*
G03*
Y1072691I0J4331D01*
G01*
Y1462691D02*
G75*
G03*
Y1454030I0J-4331D01*
G01*
G75*
G03*
Y1462691I0J4331D01*
G01*
X2047258Y249069D02*
G75*
G03*
Y240407I0J-4331D01*
G01*
G75*
G03*
Y249069I0J4331D01*
G01*
Y429069D02*
G75*
G03*
Y420407I0J-4331D01*
G01*
G75*
G03*
Y429069I0J4331D01*
G01*
Y1099069D02*
G75*
G03*
Y1090407I0J-4331D01*
G01*
G75*
G03*
Y1099069I0J4331D01*
G01*
Y1489069D02*
G75*
G03*
Y1480407I0J-4331D01*
G01*
G75*
G03*
Y1489069I0J4331D01*
G01*
X2060250Y254581D02*
G75*
G03*
Y245919I0J-4331D01*
G01*
G75*
G03*
Y254581I0J4331D01*
G01*
Y434581D02*
G75*
G03*
Y425919I0J-4331D01*
G01*
G75*
G03*
Y434581I0J4331D01*
G01*
Y1104581D02*
G75*
G03*
Y1095919I0J-4331D01*
G01*
G75*
G03*
Y1104581I0J4331D01*
G01*
Y1494581D02*
G75*
G03*
Y1485919I0J-4331D01*
G01*
G75*
G03*
Y1494581I0J4331D01*
G01*
X2061746Y784030D02*
G75*
G03*
Y792691I0J4331D01*
G01*
G75*
G03*
Y784030I0J-4331D01*
G01*
X2066864Y797809D02*
G75*
G03*
Y806470I0J4331D01*
G01*
G75*
G03*
Y797809I0J-4331D01*
G01*
X2067258Y771825D02*
G75*
G03*
Y780486I0J4331D01*
G01*
G75*
G03*
Y771825I0J-4331D01*
G01*
X2073242Y248675D02*
G75*
G03*
Y240014I0J-4331D01*
G01*
G75*
G03*
Y248675I0J4331D01*
G01*
Y428675D02*
G75*
G03*
Y420014I0J-4331D01*
G01*
G75*
G03*
Y428675I0J4331D01*
G01*
Y1098675D02*
G75*
G03*
Y1090014I0J-4331D01*
G01*
G75*
G03*
Y1098675I0J4331D01*
G01*
Y1488675D02*
G75*
G03*
Y1480014I0J-4331D01*
G01*
G75*
G03*
Y1488675I0J4331D01*
G01*
X2073636Y222691D02*
G75*
G03*
Y214030I0J-4331D01*
G01*
G75*
G03*
Y222691I0J4331D01*
G01*
Y402691D02*
G75*
G03*
Y394030I0J-4331D01*
G01*
G75*
G03*
Y402691I0J4331D01*
G01*
Y1072691D02*
G75*
G03*
Y1064030I0J-4331D01*
G01*
G75*
G03*
Y1072691I0J4331D01*
G01*
Y1462691D02*
G75*
G03*
Y1454030I0J-4331D01*
G01*
G75*
G03*
Y1462691I0J4331D01*
G01*
X2078754Y236470D02*
G75*
G03*
Y227809I0J-4331D01*
G01*
G75*
G03*
Y236470I0J4331D01*
G01*
Y416470D02*
G75*
G03*
Y407809I0J-4331D01*
G01*
G75*
G03*
Y416470I0J4331D01*
G01*
Y1086470D02*
G75*
G03*
Y1077809I0J-4331D01*
G01*
G75*
G03*
Y1086470I0J4331D01*
G01*
Y1476470D02*
G75*
G03*
Y1467809I0J-4331D01*
G01*
G75*
G03*
Y1476470I0J4331D01*
G01*
X2080250Y765919D02*
G75*
G03*
Y774581I0J4331D01*
G01*
G75*
G03*
Y765919I0J-4331D01*
G01*
X2081746Y2566470D02*
G75*
G03*
Y2557809I0J-4331D01*
G01*
G75*
G03*
Y2566470I0J4331D01*
G01*
Y2806470D02*
G75*
G03*
Y2797809I0J-4331D01*
G01*
G75*
G03*
Y2806470I0J4331D01*
G01*
Y3046470D02*
G75*
G03*
Y3037809I0J-4331D01*
G01*
G75*
G03*
Y3046470I0J4331D01*
G01*
Y3286470D02*
G75*
G03*
Y3277809I0J-4331D01*
G01*
G75*
G03*
Y3286470I0J4331D01*
G01*
X2086864Y2552691D02*
G75*
G03*
Y2544030I0J-4331D01*
G01*
G75*
G03*
Y2552691I0J4331D01*
G01*
Y2792691D02*
G75*
G03*
Y2784030I0J-4331D01*
G01*
G75*
G03*
Y2792691I0J4331D01*
G01*
Y3032691D02*
G75*
G03*
Y3024030I0J-4331D01*
G01*
G75*
G03*
Y3032691I0J4331D01*
G01*
Y3272691D02*
G75*
G03*
Y3264030I0J-4331D01*
G01*
G75*
G03*
Y3272691I0J4331D01*
G01*
X2087258Y2579069D02*
G75*
G03*
Y2570407I0J-4331D01*
G01*
G75*
G03*
Y2579069I0J4331D01*
G01*
Y2819069D02*
G75*
G03*
Y2810407I0J-4331D01*
G01*
G75*
G03*
Y2819069I0J4331D01*
G01*
Y3059069D02*
G75*
G03*
Y3050407I0J-4331D01*
G01*
G75*
G03*
Y3059069I0J4331D01*
G01*
Y3299069D02*
G75*
G03*
Y3290407I0J-4331D01*
G01*
G75*
G03*
Y3299069I0J4331D01*
G01*
X2091746Y96470D02*
G75*
G03*
Y87809I0J-4331D01*
G01*
G75*
G03*
Y96470I0J4331D01*
G01*
Y1244030D02*
G75*
G03*
Y1252691I0J4331D01*
G01*
G75*
G03*
Y1244030I0J-4331D01*
G01*
Y1634030D02*
G75*
G03*
Y1642691I0J4331D01*
G01*
G75*
G03*
Y1634030I0J-4331D01*
G01*
X2093242Y771431D02*
G75*
G03*
Y780093I0J4331D01*
G01*
G75*
G03*
Y771431I0J-4331D01*
G01*
X2093636Y797809D02*
G75*
G03*
Y806470I0J4331D01*
G01*
G75*
G03*
Y797809I0J-4331D01*
G01*
X2096864Y82691D02*
G75*
G03*
Y74030I0J-4331D01*
G01*
G75*
G03*
Y82691I0J4331D01*
G01*
Y1257809D02*
G75*
G03*
Y1266470I0J4331D01*
G01*
G75*
G03*
Y1257809I0J-4331D01*
G01*
Y1647809D02*
G75*
G03*
Y1656470I0J4331D01*
G01*
G75*
G03*
Y1647809I0J-4331D01*
G01*
X2097258Y109069D02*
G75*
G03*
Y100407I0J-4331D01*
G01*
G75*
G03*
Y109069I0J4331D01*
G01*
Y1231825D02*
G75*
G03*
Y1240486I0J4331D01*
G01*
G75*
G03*
Y1231825I0J-4331D01*
G01*
Y1621825D02*
G75*
G03*
Y1630486I0J4331D01*
G01*
G75*
G03*
Y1621825I0J-4331D01*
G01*
X2098754Y784030D02*
G75*
G03*
Y792691I0J4331D01*
G01*
G75*
G03*
Y784030I0J-4331D01*
G01*
X2100250Y2584581D02*
G75*
G03*
Y2575919I0J-4331D01*
G01*
G75*
G03*
Y2584581I0J4331D01*
G01*
Y2824581D02*
G75*
G03*
Y2815919I0J-4331D01*
G01*
G75*
G03*
Y2824581I0J4331D01*
G01*
Y3064581D02*
G75*
G03*
Y3055919I0J-4331D01*
G01*
G75*
G03*
Y3064581I0J4331D01*
G01*
Y3304581D02*
G75*
G03*
Y3295919I0J-4331D01*
G01*
G75*
G03*
Y3304581I0J4331D01*
G01*
X2101746Y616470D02*
G75*
G03*
Y607809I0J-4331D01*
G01*
G75*
G03*
Y616470I0J4331D01*
G01*
X2106864Y602691D02*
G75*
G03*
Y594030I0J-4331D01*
G01*
G75*
G03*
Y602691I0J4331D01*
G01*
X2107258Y629069D02*
G75*
G03*
Y620407I0J-4331D01*
G01*
G75*
G03*
Y629069I0J4331D01*
G01*
X2110250Y114581D02*
G75*
G03*
Y105919I0J-4331D01*
G01*
G75*
G03*
Y114581I0J4331D01*
G01*
Y1225919D02*
G75*
G03*
Y1234581I0J4331D01*
G01*
G75*
G03*
Y1225919I0J-4331D01*
G01*
Y1615919D02*
G75*
G03*
Y1624581I0J4331D01*
G01*
G75*
G03*
Y1615919I0J-4331D01*
G01*
X2111746Y2086470D02*
G75*
G03*
Y2077809I0J-4331D01*
G01*
G75*
G03*
Y2086470I0J4331D01*
G01*
X2113242Y2578675D02*
G75*
G03*
Y2570014I0J-4331D01*
G01*
G75*
G03*
Y2578675I0J4331D01*
G01*
Y2818675D02*
G75*
G03*
Y2810014I0J-4331D01*
G01*
G75*
G03*
Y2818675I0J4331D01*
G01*
Y3058675D02*
G75*
G03*
Y3050014I0J-4331D01*
G01*
G75*
G03*
Y3058675I0J4331D01*
G01*
Y3298675D02*
G75*
G03*
Y3290014I0J-4331D01*
G01*
G75*
G03*
Y3298675I0J4331D01*
G01*
X2113636Y2552691D02*
G75*
G03*
Y2544030I0J-4331D01*
G01*
G75*
G03*
Y2552691I0J4331D01*
G01*
Y2792691D02*
G75*
G03*
Y2784030I0J-4331D01*
G01*
G75*
G03*
Y2792691I0J4331D01*
G01*
Y3032691D02*
G75*
G03*
Y3024030I0J-4331D01*
G01*
G75*
G03*
Y3032691I0J4331D01*
G01*
Y3272691D02*
G75*
G03*
Y3264030I0J-4331D01*
G01*
G75*
G03*
Y3272691I0J4331D01*
G01*
X2116864Y2072691D02*
G75*
G03*
Y2064030I0J-4331D01*
G01*
G75*
G03*
Y2072691I0J4331D01*
G01*
X2117258Y2099069D02*
G75*
G03*
Y2090407I0J-4331D01*
G01*
G75*
G03*
Y2099069I0J4331D01*
G01*
X2118754Y2566470D02*
G75*
G03*
Y2557809I0J-4331D01*
G01*
G75*
G03*
Y2566470I0J4331D01*
G01*
Y2806470D02*
G75*
G03*
Y2797809I0J-4331D01*
G01*
G75*
G03*
Y2806470I0J4331D01*
G01*
Y3046470D02*
G75*
G03*
Y3037809I0J-4331D01*
G01*
G75*
G03*
Y3046470I0J4331D01*
G01*
Y3286470D02*
G75*
G03*
Y3277809I0J-4331D01*
G01*
G75*
G03*
Y3286470I0J4331D01*
G01*
X2120250Y634581D02*
G75*
G03*
Y625919I0J-4331D01*
G01*
G75*
G03*
Y634581I0J4331D01*
G01*
X2123242Y108675D02*
G75*
G03*
Y100014I0J-4331D01*
G01*
G75*
G03*
Y108675I0J4331D01*
G01*
Y1231431D02*
G75*
G03*
Y1240093I0J4331D01*
G01*
G75*
G03*
Y1231431I0J-4331D01*
G01*
Y1621431D02*
G75*
G03*
Y1630093I0J4331D01*
G01*
G75*
G03*
Y1621431I0J-4331D01*
G01*
X2123636Y82691D02*
G75*
G03*
Y74030I0J-4331D01*
G01*
G75*
G03*
Y82691I0J4331D01*
G01*
Y1257809D02*
G75*
G03*
Y1266470I0J4331D01*
G01*
G75*
G03*
Y1257809I0J-4331D01*
G01*
Y1647809D02*
G75*
G03*
Y1656470I0J4331D01*
G01*
G75*
G03*
Y1647809I0J-4331D01*
G01*
X2128754Y96470D02*
G75*
G03*
Y87809I0J-4331D01*
G01*
G75*
G03*
Y96470I0J4331D01*
G01*
Y1244030D02*
G75*
G03*
Y1252691I0J4331D01*
G01*
G75*
G03*
Y1244030I0J-4331D01*
G01*
Y1634030D02*
G75*
G03*
Y1642691I0J4331D01*
G01*
G75*
G03*
Y1634030I0J-4331D01*
G01*
X2130250Y2104581D02*
G75*
G03*
Y2095919I0J-4331D01*
G01*
G75*
G03*
Y2104581I0J4331D01*
G01*
X2133242Y628675D02*
G75*
G03*
Y620014I0J-4331D01*
G01*
G75*
G03*
Y628675I0J4331D01*
G01*
X2133636Y602691D02*
G75*
G03*
Y594030I0J-4331D01*
G01*
G75*
G03*
Y602691I0J4331D01*
G01*
X2138754Y616470D02*
G75*
G03*
Y607809I0J-4331D01*
G01*
G75*
G03*
Y616470I0J4331D01*
G01*
X2141746Y236470D02*
G75*
G03*
Y227809I0J-4331D01*
G01*
G75*
G03*
Y236470I0J4331D01*
G01*
Y416470D02*
G75*
G03*
Y407809I0J-4331D01*
G01*
G75*
G03*
Y416470I0J4331D01*
G01*
Y784030D02*
G75*
G03*
Y792691I0J4331D01*
G01*
G75*
G03*
Y784030I0J-4331D01*
G01*
X2143242Y2098675D02*
G75*
G03*
Y2090014I0J-4331D01*
G01*
G75*
G03*
Y2098675I0J4331D01*
G01*
X2143636Y2072691D02*
G75*
G03*
Y2064030I0J-4331D01*
G01*
G75*
G03*
Y2072691I0J4331D01*
G01*
X2146864Y222691D02*
G75*
G03*
Y214030I0J-4331D01*
G01*
G75*
G03*
Y222691I0J4331D01*
G01*
Y402691D02*
G75*
G03*
Y394030I0J-4331D01*
G01*
G75*
G03*
Y402691I0J4331D01*
G01*
Y797809D02*
G75*
G03*
Y806470I0J4331D01*
G01*
G75*
G03*
Y797809I0J-4331D01*
G01*
X2147258Y249069D02*
G75*
G03*
Y240407I0J-4331D01*
G01*
G75*
G03*
Y249069I0J4331D01*
G01*
Y429069D02*
G75*
G03*
Y420407I0J-4331D01*
G01*
G75*
G03*
Y429069I0J4331D01*
G01*
Y771825D02*
G75*
G03*
Y780486I0J4331D01*
G01*
G75*
G03*
Y771825I0J-4331D01*
G01*
X2148754Y2086470D02*
G75*
G03*
Y2077809I0J-4331D01*
G01*
G75*
G03*
Y2086470I0J4331D01*
G01*
X2160250Y254581D02*
G75*
G03*
Y245919I0J-4331D01*
G01*
G75*
G03*
Y254581I0J4331D01*
G01*
Y434581D02*
G75*
G03*
Y425919I0J-4331D01*
G01*
G75*
G03*
Y434581I0J4331D01*
G01*
Y765919D02*
G75*
G03*
Y774581I0J4331D01*
G01*
G75*
G03*
Y765919I0J-4331D01*
G01*
X2170250Y1020250D02*
G75*
G03*
X2160250Y1010250I-5000J-5000D01*
G01*
G75*
G03*
X2170250Y1020250I5000J5000D01*
G01*
Y1410250D02*
G75*
G03*
X2160250Y1400250I-5000J-5000D01*
G01*
G75*
G03*
X2170250Y1410250I5000J5000D01*
G01*
X2171746Y2566470D02*
G75*
G03*
Y2557809I0J-4331D01*
G01*
G75*
G03*
Y2566470I0J4331D01*
G01*
Y2806470D02*
G75*
G03*
Y2797809I0J-4331D01*
G01*
G75*
G03*
Y2806470I0J4331D01*
G01*
Y3046470D02*
G75*
G03*
Y3037809I0J-4331D01*
G01*
G75*
G03*
Y3046470I0J4331D01*
G01*
Y3286470D02*
G75*
G03*
Y3277809I0J-4331D01*
G01*
G75*
G03*
Y3286470I0J4331D01*
G01*
X2173242Y248675D02*
G75*
G03*
Y240014I0J-4331D01*
G01*
G75*
G03*
Y248675I0J4331D01*
G01*
Y428675D02*
G75*
G03*
Y420014I0J-4331D01*
G01*
G75*
G03*
Y428675I0J4331D01*
G01*
Y771431D02*
G75*
G03*
Y780093I0J4331D01*
G01*
G75*
G03*
Y771431I0J-4331D01*
G01*
X2173636Y222691D02*
G75*
G03*
Y214030I0J-4331D01*
G01*
G75*
G03*
Y222691I0J4331D01*
G01*
Y402691D02*
G75*
G03*
Y394030I0J-4331D01*
G01*
G75*
G03*
Y402691I0J4331D01*
G01*
Y797809D02*
G75*
G03*
Y806470I0J4331D01*
G01*
G75*
G03*
Y797809I0J-4331D01*
G01*
X2176864Y2552691D02*
G75*
G03*
Y2544030I0J-4331D01*
G01*
G75*
G03*
Y2552691I0J4331D01*
G01*
Y2792691D02*
G75*
G03*
Y2784030I0J-4331D01*
G01*
G75*
G03*
Y2792691I0J4331D01*
G01*
Y3032691D02*
G75*
G03*
Y3024030I0J-4331D01*
G01*
G75*
G03*
Y3032691I0J4331D01*
G01*
Y3272691D02*
G75*
G03*
Y3264030I0J-4331D01*
G01*
G75*
G03*
Y3272691I0J4331D01*
G01*
X2177258Y2579069D02*
G75*
G03*
Y2570407I0J-4331D01*
G01*
G75*
G03*
Y2579069I0J4331D01*
G01*
Y2819069D02*
G75*
G03*
Y2810407I0J-4331D01*
G01*
G75*
G03*
Y2819069I0J4331D01*
G01*
Y3059069D02*
G75*
G03*
Y3050407I0J-4331D01*
G01*
G75*
G03*
Y3059069I0J4331D01*
G01*
Y3299069D02*
G75*
G03*
Y3290407I0J-4331D01*
G01*
G75*
G03*
Y3299069I0J4331D01*
G01*
X2178754Y236470D02*
G75*
G03*
Y227809I0J-4331D01*
G01*
G75*
G03*
Y236470I0J4331D01*
G01*
Y416470D02*
G75*
G03*
Y407809I0J-4331D01*
G01*
G75*
G03*
Y416470I0J4331D01*
G01*
Y784030D02*
G75*
G03*
Y792691I0J4331D01*
G01*
G75*
G03*
Y784030I0J-4331D01*
G01*
X2190250Y2584581D02*
G75*
G03*
Y2575919I0J-4331D01*
G01*
G75*
G03*
Y2584581I0J4331D01*
G01*
Y2824581D02*
G75*
G03*
Y2815919I0J-4331D01*
G01*
G75*
G03*
Y2824581I0J4331D01*
G01*
Y3064581D02*
G75*
G03*
Y3055919I0J-4331D01*
G01*
G75*
G03*
Y3064581I0J4331D01*
G01*
Y3304581D02*
G75*
G03*
Y3295919I0J-4331D01*
G01*
G75*
G03*
Y3304581I0J4331D01*
G01*
X2201746Y2086470D02*
G75*
G03*
Y2077809I0J-4331D01*
G01*
G75*
G03*
Y2086470I0J4331D01*
G01*
X2203242Y2578675D02*
G75*
G03*
Y2570014I0J-4331D01*
G01*
G75*
G03*
Y2578675I0J4331D01*
G01*
Y2818675D02*
G75*
G03*
Y2810014I0J-4331D01*
G01*
G75*
G03*
Y2818675I0J4331D01*
G01*
Y3058675D02*
G75*
G03*
Y3050014I0J-4331D01*
G01*
G75*
G03*
Y3058675I0J4331D01*
G01*
Y3298675D02*
G75*
G03*
Y3290014I0J-4331D01*
G01*
G75*
G03*
Y3298675I0J4331D01*
G01*
X2203636Y2552691D02*
G75*
G03*
Y2544030I0J-4331D01*
G01*
G75*
G03*
Y2552691I0J4331D01*
G01*
Y2792691D02*
G75*
G03*
Y2784030I0J-4331D01*
G01*
G75*
G03*
Y2792691I0J4331D01*
G01*
Y3032691D02*
G75*
G03*
Y3024030I0J-4331D01*
G01*
G75*
G03*
Y3032691I0J4331D01*
G01*
Y3272691D02*
G75*
G03*
Y3264030I0J-4331D01*
G01*
G75*
G03*
Y3272691I0J4331D01*
G01*
X2206864Y2072691D02*
G75*
G03*
Y2064030I0J-4331D01*
G01*
G75*
G03*
Y2072691I0J4331D01*
G01*
X2207258Y2099069D02*
G75*
G03*
Y2090407I0J-4331D01*
G01*
G75*
G03*
Y2099069I0J4331D01*
G01*
X2208754Y2566470D02*
G75*
G03*
Y2557809I0J-4331D01*
G01*
G75*
G03*
Y2566470I0J4331D01*
G01*
Y2806470D02*
G75*
G03*
Y2797809I0J-4331D01*
G01*
G75*
G03*
Y2806470I0J4331D01*
G01*
Y3046470D02*
G75*
G03*
Y3037809I0J-4331D01*
G01*
G75*
G03*
Y3046470I0J4331D01*
G01*
Y3286470D02*
G75*
G03*
Y3277809I0J-4331D01*
G01*
G75*
G03*
Y3286470I0J4331D01*
G01*
X2220250Y2104581D02*
G75*
G03*
Y2095919I0J-4331D01*
G01*
G75*
G03*
Y2104581I0J4331D01*
G01*
X2233242Y2098675D02*
G75*
G03*
Y2090014I0J-4331D01*
G01*
G75*
G03*
Y2098675I0J4331D01*
G01*
X2233636Y2072691D02*
G75*
G03*
Y2064030I0J-4331D01*
G01*
G75*
G03*
Y2072691I0J4331D01*
G01*
X2238754Y2086470D02*
G75*
G03*
Y2077809I0J-4331D01*
G01*
G75*
G03*
Y2086470I0J4331D01*
G01*
X2240250Y70250D02*
G75*
G03*
X2230250Y60250I-5000J-5000D01*
G01*
G75*
G03*
X2240250Y70250I5000J5000D01*
G01*
Y230250D02*
G75*
G03*
X2230250Y220250I-5000J-5000D01*
G01*
G75*
G03*
X2240250Y230250I5000J5000D01*
G01*
Y410250D02*
G75*
G03*
X2230250Y400250I-5000J-5000D01*
G01*
G75*
G03*
X2240250Y410250I5000J5000D01*
G01*
Y610250D02*
G75*
G03*
X2230250Y600250I-5000J-5000D01*
G01*
G75*
G03*
X2240250Y610250I5000J5000D01*
G01*
X2261746Y2566470D02*
G75*
G03*
Y2557809I0J-4331D01*
G01*
G75*
G03*
Y2566470I0J4331D01*
G01*
Y2806470D02*
G75*
G03*
Y2797809I0J-4331D01*
G01*
G75*
G03*
Y2806470I0J4331D01*
G01*
Y3046470D02*
G75*
G03*
Y3037809I0J-4331D01*
G01*
G75*
G03*
Y3046470I0J4331D01*
G01*
Y3286470D02*
G75*
G03*
Y3277809I0J-4331D01*
G01*
G75*
G03*
Y3286470I0J4331D01*
G01*
X2266864Y2552691D02*
G75*
G03*
Y2544030I0J-4331D01*
G01*
G75*
G03*
Y2552691I0J4331D01*
G01*
Y2792691D02*
G75*
G03*
Y2784030I0J-4331D01*
G01*
G75*
G03*
Y2792691I0J4331D01*
G01*
Y3032691D02*
G75*
G03*
Y3024030I0J-4331D01*
G01*
G75*
G03*
Y3032691I0J4331D01*
G01*
Y3272691D02*
G75*
G03*
Y3264030I0J-4331D01*
G01*
G75*
G03*
Y3272691I0J4331D01*
G01*
X2267258Y2579069D02*
G75*
G03*
Y2570407I0J-4331D01*
G01*
G75*
G03*
Y2579069I0J4331D01*
G01*
Y2819069D02*
G75*
G03*
Y2810407I0J-4331D01*
G01*
G75*
G03*
Y2819069I0J4331D01*
G01*
Y3059069D02*
G75*
G03*
Y3050407I0J-4331D01*
G01*
G75*
G03*
Y3059069I0J4331D01*
G01*
Y3299069D02*
G75*
G03*
Y3290407I0J-4331D01*
G01*
G75*
G03*
Y3299069I0J4331D01*
G01*
X2280250Y2584581D02*
G75*
G03*
Y2575919I0J-4331D01*
G01*
G75*
G03*
Y2584581I0J4331D01*
G01*
Y2824581D02*
G75*
G03*
Y2815919I0J-4331D01*
G01*
G75*
G03*
Y2824581I0J4331D01*
G01*
Y3064581D02*
G75*
G03*
Y3055919I0J-4331D01*
G01*
G75*
G03*
Y3064581I0J4331D01*
G01*
Y3304581D02*
G75*
G03*
Y3295919I0J-4331D01*
G01*
G75*
G03*
Y3304581I0J4331D01*
G01*
X2281746Y1164030D02*
G75*
G03*
Y1172691I0J4331D01*
G01*
G75*
G03*
Y1164030I0J-4331D01*
G01*
Y1266470D02*
G75*
G03*
Y1257809I0J-4331D01*
G01*
G75*
G03*
Y1266470I0J4331D01*
G01*
Y1554030D02*
G75*
G03*
Y1562691I0J4331D01*
G01*
G75*
G03*
Y1554030I0J-4331D01*
G01*
Y1656470D02*
G75*
G03*
Y1647809I0J-4331D01*
G01*
G75*
G03*
Y1656470I0J4331D01*
G01*
X2286864Y1177809D02*
G75*
G03*
Y1186470I0J4331D01*
G01*
G75*
G03*
Y1177809I0J-4331D01*
G01*
Y1252691D02*
G75*
G03*
Y1244030I0J-4331D01*
G01*
G75*
G03*
Y1252691I0J4331D01*
G01*
Y1567809D02*
G75*
G03*
Y1576470I0J4331D01*
G01*
G75*
G03*
Y1567809I0J-4331D01*
G01*
Y1642691D02*
G75*
G03*
Y1634030I0J-4331D01*
G01*
G75*
G03*
Y1642691I0J4331D01*
G01*
X2287258Y1151825D02*
G75*
G03*
Y1160486I0J4331D01*
G01*
G75*
G03*
Y1151825I0J-4331D01*
G01*
Y1279069D02*
G75*
G03*
Y1270407I0J-4331D01*
G01*
G75*
G03*
Y1279069I0J4331D01*
G01*
Y1541825D02*
G75*
G03*
Y1550486I0J4331D01*
G01*
G75*
G03*
Y1541825I0J-4331D01*
G01*
Y1669069D02*
G75*
G03*
Y1660407I0J-4331D01*
G01*
G75*
G03*
Y1669069I0J4331D01*
G01*
X2290250Y2000250D02*
G75*
G03*
X2280250Y1990250I-5000J-5000D01*
G01*
G75*
G03*
X2290250Y2000250I5000J5000D01*
G01*
X2293242Y2578675D02*
G75*
G03*
Y2570014I0J-4331D01*
G01*
G75*
G03*
Y2578675I0J4331D01*
G01*
Y2818675D02*
G75*
G03*
Y2810014I0J-4331D01*
G01*
G75*
G03*
Y2818675I0J4331D01*
G01*
Y3058675D02*
G75*
G03*
Y3050014I0J-4331D01*
G01*
G75*
G03*
Y3058675I0J4331D01*
G01*
Y3298675D02*
G75*
G03*
Y3290014I0J-4331D01*
G01*
G75*
G03*
Y3298675I0J4331D01*
G01*
X2293636Y2552691D02*
G75*
G03*
Y2544030I0J-4331D01*
G01*
G75*
G03*
Y2552691I0J4331D01*
G01*
Y2792691D02*
G75*
G03*
Y2784030I0J-4331D01*
G01*
G75*
G03*
Y2792691I0J4331D01*
G01*
Y3032691D02*
G75*
G03*
Y3024030I0J-4331D01*
G01*
G75*
G03*
Y3032691I0J4331D01*
G01*
Y3272691D02*
G75*
G03*
Y3264030I0J-4331D01*
G01*
G75*
G03*
Y3272691I0J4331D01*
G01*
X2298754Y2566470D02*
G75*
G03*
Y2557809I0J-4331D01*
G01*
G75*
G03*
Y2566470I0J4331D01*
G01*
Y2806470D02*
G75*
G03*
Y2797809I0J-4331D01*
G01*
G75*
G03*
Y2806470I0J4331D01*
G01*
Y3046470D02*
G75*
G03*
Y3037809I0J-4331D01*
G01*
G75*
G03*
Y3046470I0J4331D01*
G01*
Y3286470D02*
G75*
G03*
Y3277809I0J-4331D01*
G01*
G75*
G03*
Y3286470I0J4331D01*
G01*
X2300250Y1145919D02*
G75*
G03*
Y1154581I0J4331D01*
G01*
G75*
G03*
Y1145919I0J-4331D01*
G01*
Y1284581D02*
G75*
G03*
Y1275919I0J-4331D01*
G01*
G75*
G03*
Y1284581I0J4331D01*
G01*
Y1535919D02*
G75*
G03*
Y1544581I0J4331D01*
G01*
G75*
G03*
Y1535919I0J-4331D01*
G01*
Y1674581D02*
G75*
G03*
Y1665919I0J-4331D01*
G01*
G75*
G03*
Y1674581I0J4331D01*
G01*
X2313242Y1151431D02*
G75*
G03*
Y1160093I0J4331D01*
G01*
G75*
G03*
Y1151431I0J-4331D01*
G01*
Y1278675D02*
G75*
G03*
Y1270014I0J-4331D01*
G01*
G75*
G03*
Y1278675I0J4331D01*
G01*
Y1541431D02*
G75*
G03*
Y1550093I0J4331D01*
G01*
G75*
G03*
Y1541431I0J-4331D01*
G01*
Y1668675D02*
G75*
G03*
Y1660014I0J-4331D01*
G01*
G75*
G03*
Y1668675I0J4331D01*
G01*
X2313636Y1177809D02*
G75*
G03*
Y1186470I0J4331D01*
G01*
G75*
G03*
Y1177809I0J-4331D01*
G01*
Y1252691D02*
G75*
G03*
Y1244030I0J-4331D01*
G01*
G75*
G03*
Y1252691I0J4331D01*
G01*
Y1567809D02*
G75*
G03*
Y1576470I0J4331D01*
G01*
G75*
G03*
Y1567809I0J-4331D01*
G01*
Y1642691D02*
G75*
G03*
Y1634030I0J-4331D01*
G01*
G75*
G03*
Y1642691I0J4331D01*
G01*
X2318754Y1164030D02*
G75*
G03*
Y1172691I0J4331D01*
G01*
G75*
G03*
Y1164030I0J-4331D01*
G01*
Y1266470D02*
G75*
G03*
Y1257809I0J-4331D01*
G01*
G75*
G03*
Y1266470I0J4331D01*
G01*
Y1554030D02*
G75*
G03*
Y1562691I0J4331D01*
G01*
G75*
G03*
Y1554030I0J-4331D01*
G01*
Y1656470D02*
G75*
G03*
Y1647809I0J-4331D01*
G01*
G75*
G03*
Y1656470I0J4331D01*
G01*
X2321746Y66470D02*
G75*
G03*
Y57809I0J-4331D01*
G01*
G75*
G03*
Y66470I0J4331D01*
G01*
Y234030D02*
G75*
G03*
Y242691I0J4331D01*
G01*
G75*
G03*
Y234030I0J-4331D01*
G01*
Y386470D02*
G75*
G03*
Y377809I0J-4331D01*
G01*
G75*
G03*
Y386470I0J4331D01*
G01*
Y554030D02*
G75*
G03*
Y562691I0J4331D01*
G01*
G75*
G03*
Y554030I0J-4331D01*
G01*
X2326864Y52691D02*
G75*
G03*
Y44030I0J-4331D01*
G01*
G75*
G03*
Y52691I0J4331D01*
G01*
Y247809D02*
G75*
G03*
Y256470I0J4331D01*
G01*
G75*
G03*
Y247809I0J-4331D01*
G01*
Y372691D02*
G75*
G03*
Y364030I0J-4331D01*
G01*
G75*
G03*
Y372691I0J4331D01*
G01*
Y567809D02*
G75*
G03*
Y576470I0J4331D01*
G01*
G75*
G03*
Y567809I0J-4331D01*
G01*
X2327258Y79069D02*
G75*
G03*
Y70407I0J-4331D01*
G01*
G75*
G03*
Y79069I0J4331D01*
G01*
Y221825D02*
G75*
G03*
Y230486I0J4331D01*
G01*
G75*
G03*
Y221825I0J-4331D01*
G01*
Y399069D02*
G75*
G03*
Y390407I0J-4331D01*
G01*
G75*
G03*
Y399069I0J4331D01*
G01*
Y541825D02*
G75*
G03*
Y550486I0J4331D01*
G01*
G75*
G03*
Y541825I0J-4331D01*
G01*
X2330250Y2540250D02*
G75*
G03*
X2320250Y2530250I-5000J-5000D01*
G01*
G75*
G03*
X2330250Y2540250I5000J5000D01*
G01*
Y2780250D02*
G75*
G03*
X2320250Y2770250I-5000J-5000D01*
G01*
G75*
G03*
X2330250Y2780250I5000J5000D01*
G01*
Y3020250D02*
G75*
G03*
X2320250Y3010250I-5000J-5000D01*
G01*
G75*
G03*
X2330250Y3020250I5000J5000D01*
G01*
Y3260250D02*
G75*
G03*
X2320250Y3250250I-5000J-5000D01*
G01*
G75*
G03*
X2330250Y3260250I5000J5000D01*
G01*
X2340250Y84581D02*
G75*
G03*
Y75919I0J-4331D01*
G01*
G75*
G03*
Y84581I0J4331D01*
G01*
Y215919D02*
G75*
G03*
Y224581I0J4331D01*
G01*
G75*
G03*
Y215919I0J-4331D01*
G01*
Y404581D02*
G75*
G03*
Y395919I0J-4331D01*
G01*
G75*
G03*
Y404581I0J4331D01*
G01*
Y535919D02*
G75*
G03*
Y544581I0J4331D01*
G01*
G75*
G03*
Y535919I0J-4331D01*
G01*
X2350250Y2430250D02*
X2410250D01*
Y3390250D01*
X2350250D01*
Y2430250D01*
X2353242Y78675D02*
G75*
G03*
Y70014I0J-4331D01*
G01*
G75*
G03*
Y78675I0J4331D01*
G01*
Y221431D02*
G75*
G03*
Y230093I0J4331D01*
G01*
G75*
G03*
Y221431I0J-4331D01*
G01*
Y398675D02*
G75*
G03*
Y390014I0J-4331D01*
G01*
G75*
G03*
Y398675I0J4331D01*
G01*
Y541431D02*
G75*
G03*
Y550093I0J4331D01*
G01*
G75*
G03*
Y541431I0J-4331D01*
G01*
X2353636Y52691D02*
G75*
G03*
Y44030I0J-4331D01*
G01*
G75*
G03*
Y52691I0J4331D01*
G01*
Y247809D02*
G75*
G03*
Y256470I0J4331D01*
G01*
G75*
G03*
Y247809I0J-4331D01*
G01*
Y372691D02*
G75*
G03*
Y364030I0J-4331D01*
G01*
G75*
G03*
Y372691I0J4331D01*
G01*
Y567809D02*
G75*
G03*
Y576470I0J4331D01*
G01*
G75*
G03*
Y567809I0J-4331D01*
G01*
X2358754Y66470D02*
G75*
G03*
Y57809I0J-4331D01*
G01*
G75*
G03*
Y66470I0J4331D01*
G01*
Y234030D02*
G75*
G03*
Y242691I0J4331D01*
G01*
G75*
G03*
Y234030I0J-4331D01*
G01*
Y386470D02*
G75*
G03*
Y377809I0J-4331D01*
G01*
G75*
G03*
Y386470I0J4331D01*
G01*
Y554030D02*
G75*
G03*
Y562691I0J4331D01*
G01*
G75*
G03*
Y554030I0J-4331D01*
G01*
X2410250Y250D02*
X2260250D01*
Y960250D01*
X2410250D01*
Y250D01*
Y970250D02*
X2190250D01*
Y1930250D01*
X2410250D01*
Y970250D01*
Y1940250D02*
X2310250D01*
Y2420250D01*
X2410250D01*
Y1940250D01*
X2470250Y2530250D02*
G75*
G03*
X2460250Y2520250I-5000J-5000D01*
G01*
G75*
G03*
X2470250Y2530250I5000J5000D01*
G01*
Y3320250D02*
G75*
G03*
X2460250Y3310250I-5000J-5000D01*
G01*
G75*
G03*
X2470250Y3320250I5000J5000D01*
G01*
X2490250Y80250D02*
G75*
G03*
X2480250Y70250I-5000J-5000D01*
G01*
G75*
G03*
X2490250Y80250I5000J5000D01*
G01*
Y370250D02*
G75*
G03*
X2480250Y360250I-5000J-5000D01*
G01*
G75*
G03*
X2490250Y370250I5000J5000D01*
G01*
Y510250D02*
G75*
G03*
X2480250Y500250I-5000J-5000D01*
G01*
G75*
G03*
X2490250Y510250I5000J5000D01*
G01*
Y800250D02*
G75*
G03*
X2480250Y790250I-5000J-5000D01*
G01*
G75*
G03*
X2490250Y800250I5000J5000D01*
G01*
Y1060250D02*
G75*
G03*
X2480250Y1050250I-5000J-5000D01*
G01*
G75*
G03*
X2490250Y1060250I5000J5000D01*
G01*
Y1350250D02*
G75*
G03*
X2480250Y1340250I-5000J-5000D01*
G01*
G75*
G03*
X2490250Y1350250I5000J5000D01*
G01*
X2510250Y1490250D02*
G75*
G03*
X2500250Y1480250I-5000J-5000D01*
G01*
G75*
G03*
X2510250Y1490250I5000J5000D01*
G01*
Y1710250D02*
G75*
G03*
X2500250Y1700250I-5000J-5000D01*
G01*
G75*
G03*
X2510250Y1710250I5000J5000D01*
G01*
Y2900250D02*
G75*
G03*
X2500250Y2890250I-5000J-5000D01*
G01*
G75*
G03*
X2510250Y2900250I5000J5000D01*
G01*
Y2930250D02*
G75*
G03*
X2500250Y2920250I-5000J-5000D01*
G01*
G75*
G03*
X2510250Y2930250I5000J5000D01*
G01*
X2620250Y2040250D02*
G75*
G03*
X2610250Y2030250I-5000J-5000D01*
G01*
G75*
G03*
X2620250Y2040250I5000J5000D01*
G01*
Y2330250D02*
G75*
G03*
X2610250Y2320250I-5000J-5000D01*
G01*
G75*
G03*
X2620250Y2330250I5000J5000D01*
G01*
X2680250Y3520250D02*
G75*
G03*
X2670250Y3510250I-5000J-5000D01*
G01*
G75*
G03*
X2680250Y3520250I5000J5000D01*
G01*
X2690250Y250D02*
X2420250D01*
Y480250D01*
X2690250D01*
Y250D01*
Y480250D02*
X2420250D01*
Y960250D01*
X2690250D01*
Y480250D01*
Y970250D02*
X2420250D01*
Y1450250D01*
X2690250D01*
Y970250D01*
Y1450250D02*
X2420250D01*
Y1930250D01*
X2690250D01*
Y1450250D01*
Y1940250D02*
X2420250D01*
Y2420250D01*
X2690250D01*
Y1940250D01*
Y2430250D02*
X2420250D01*
Y2910250D01*
X2690250D01*
Y2430250D01*
Y2910250D02*
X2420250D01*
Y3390250D01*
X2690250D01*
Y2910250D01*
X0Y0D02*
M02*
