G05
M48
;#@! TF.GenerationSoftware,DesignSpark,DesignSpark PCB,12.0.5940
;#@! TF.CreationDate,2025-04-30T15:16:23+06:00*
;#@! TF.FileFunction,Plated,0,1,PTH
;FILE_FORMAT=3:5
;TYPE=PLATED
INCH,TZ
FMAT,2
T1C000.03200
T2C000.03500
T3C000.03543
T4C000.06299
T5C000.08661
T6C000.23622
%
T001
X1.30250Y25.30250
X1.30250Y25.60250
X1.30250Y30.10250
X1.30250Y30.40250
X1.40250Y25.30250
X1.40250Y25.60250
X1.40250Y27.10250
X1.40250Y27.50250
X1.40250Y30.10250
X1.40250Y30.40250
X1.40250Y31.90250
X1.40250Y32.30250
X1.50250Y25.30250
X1.50250Y25.40250
X1.50250Y26.20250
X1.50250Y26.60250
X1.50250Y28.00250
X1.50250Y28.10250
X1.50250Y30.10250
X1.50250Y30.20250
X1.50250Y31.00250
X1.50250Y31.40250
X1.50250Y32.80250
X1.50250Y32.90250
X1.60250Y26.20250
X1.60250Y26.60250
X1.60250Y28.20250
X1.60250Y28.30250
X1.60250Y31.00250
X1.60250Y31.40250
X1.60250Y33.00250
X1.60250Y33.10250
X1.80250Y26.80250
X1.80250Y27.20250
X1.80250Y31.60250
X1.80250Y32.00250
X1.90250Y25.30250
X1.90250Y25.40250
X1.90250Y26.80250
X1.90250Y27.20250
X1.90250Y28.00250
X1.90250Y28.10250
X1.90250Y28.20250
X1.90250Y28.30250
X1.90250Y30.10250
X1.90250Y30.20250
X1.90250Y31.60250
X1.90250Y32.00250
X1.90250Y32.80250
X1.90250Y32.90250
X1.90250Y33.00250
X1.90250Y33.10250
X2.00250Y25.90250
X2.00250Y26.30250
X2.00250Y30.70250
X2.00250Y31.10250
X3.80250Y3.40250
X3.80250Y3.80250
X3.80250Y6.50250
X3.80250Y6.90250
X3.80250Y19.60250
X3.80250Y20.00250
X3.80250Y20.20250
X3.80250Y20.50250
X3.90250Y6.50250
X3.90250Y6.90250
X3.90250Y19.60250
X3.90250Y20.00250
X3.90250Y20.20250
X3.90250Y20.50250
X4.00250Y1.70250
X4.00250Y2.10250
X4.00250Y5.40250
X4.00250Y5.80250
X4.00250Y20.80250
X4.00250Y21.20250
X4.10250Y1.70250
X4.10250Y2.10250
X4.10250Y3.40250
X4.10250Y3.80250
X4.10250Y5.40250
X4.10250Y5.80250
X4.10250Y7.10250
X4.10250Y7.50250
X4.10250Y25.10250
X4.10250Y25.40250
X4.10250Y26.10250
X4.10250Y26.50250
X4.10250Y27.50250
X4.10250Y27.80250
X4.10250Y28.50250
X4.10250Y28.90250
X4.10250Y29.90250
X4.10250Y30.20250
X4.10250Y30.90250
X4.10250Y31.30250
X4.10250Y32.30250
X4.10250Y32.60250
X4.10250Y33.30250
X4.10250Y33.70250
X4.20250Y3.40250
X4.20250Y3.80250
X4.20250Y7.10250
X4.20250Y7.50250
X4.20250Y19.60250
X4.20250Y20.00250
X4.20250Y20.80250
X4.20250Y21.20250
X4.20250Y22.50250
X4.20250Y22.90250
X4.20250Y25.10250
X4.20250Y25.40250
X4.20250Y26.10250
X4.20250Y26.50250
X4.20250Y27.50250
X4.20250Y27.80250
X4.20250Y28.50250
X4.20250Y28.90250
X4.20250Y29.90250
X4.20250Y30.20250
X4.20250Y30.90250
X4.20250Y31.30250
X4.20250Y32.30250
X4.20250Y32.60250
X4.20250Y33.30250
X4.20250Y33.70250
X4.30250Y2.30250
X4.30250Y2.70250
X4.30250Y19.60250
X4.30250Y20.00250
X4.30250Y20.80250
X4.30250Y21.20250
X4.30250Y25.00250
X4.30250Y25.40250
X4.30250Y27.40250
X4.30250Y27.80250
X4.30250Y29.80250
X4.30250Y30.20250
X4.30250Y32.20250
X4.30250Y32.60250
X4.40250Y2.30250
X4.40250Y2.70250
X4.40250Y5.40250
X4.40250Y5.80250
X4.40250Y21.40250
X4.40250Y21.80250
X4.40250Y22.60250
X4.40250Y23.00250
X4.40250Y25.00250
X4.40250Y25.40250
X4.40250Y27.40250
X4.40250Y27.80250
X4.40250Y29.80250
X4.40250Y30.20250
X4.40250Y32.20250
X4.40250Y32.60250
X4.50250Y10.40250
X4.50250Y10.50250
X4.50250Y10.60250
X4.50250Y10.70250
X4.50250Y10.80250
X4.50250Y10.90250
X4.50250Y19.70250
X4.50250Y20.10250
X4.50250Y21.40250
X4.50250Y21.80250
X4.50250Y22.60250
X4.50250Y23.00250
X4.60250Y2.60250
X4.60250Y3.00250
X4.60250Y17.20250
X4.60250Y17.50250
X4.70250Y2.40250
X4.70250Y2.80250
X4.70250Y17.20250
X4.70250Y17.50250
X4.70250Y21.40250
X4.70250Y21.80250
X4.70250Y25.00250
X4.70250Y25.40250
X4.70250Y27.40250
X4.70250Y27.80250
X4.70250Y29.80250
X4.70250Y30.20250
X4.70250Y32.20250
X4.70250Y32.60250
X4.80250Y7.60250
X4.80250Y8.00250
X4.80250Y10.40250
X4.80250Y10.50250
X4.80250Y10.60250
X4.80250Y10.70250
X4.80250Y10.80250
X4.80250Y10.90250
X4.80250Y13.90250
X4.80250Y14.00250
X4.80250Y14.80250
X4.80250Y15.20250
X4.80250Y17.20250
X4.80250Y17.50250
X4.80250Y22.10250
X4.80250Y22.40250
X4.80250Y22.60250
X4.80250Y23.00250
X4.90250Y7.60250
X4.90250Y8.00250
X4.90250Y14.80250
X4.90250Y15.20250
X4.90250Y16.50250
X4.90250Y16.90250
X4.90250Y22.10250
X4.90250Y22.40250
X4.90250Y22.60250
X4.90250Y23.00250
X5.00250Y7.40250
X5.00250Y7.80250
X5.00250Y10.50250
X5.00250Y10.80250
X5.00250Y11.50250
X5.00250Y11.90250
X5.00250Y25.10250
X5.00250Y25.40250
X5.00250Y26.10250
X5.00250Y26.50250
X5.00250Y27.50250
X5.00250Y27.80250
X5.00250Y28.50250
X5.00250Y28.90250
X5.00250Y29.90250
X5.00250Y30.20250
X5.00250Y30.90250
X5.00250Y31.30250
X5.00250Y32.30250
X5.00250Y32.60250
X5.00250Y33.30250
X5.00250Y33.70250
X5.10250Y6.50250
X5.10250Y6.90250
X5.10250Y10.50250
X5.10250Y10.80250
X5.10250Y11.50250
X5.10250Y11.90250
X5.10250Y15.40250
X5.10250Y15.80250
X5.10250Y16.60250
X5.10250Y17.00250
X5.10250Y25.10250
X5.10250Y25.40250
X5.10250Y26.10250
X5.10250Y26.50250
X5.10250Y27.50250
X5.10250Y27.80250
X5.10250Y28.50250
X5.10250Y28.90250
X5.10250Y29.90250
X5.10250Y30.20250
X5.10250Y30.90250
X5.10250Y31.30250
X5.10250Y32.30250
X5.10250Y32.60250
X5.10250Y33.30250
X5.10250Y33.70250
X5.20250Y2.60250
X5.20250Y3.00250
X5.20250Y6.50250
X5.20250Y6.90250
X5.20250Y10.40250
X5.20250Y10.80250
X5.20250Y12.40250
X5.20250Y12.50250
X5.20250Y12.60250
X5.20250Y13.90250
X5.20250Y14.00250
X5.20250Y15.40250
X5.20250Y15.80250
X5.20250Y16.60250
X5.20250Y17.00250
X5.20250Y22.50250
X5.20250Y22.90250
X5.20250Y25.00250
X5.20250Y25.40250
X5.20250Y27.40250
X5.20250Y27.80250
X5.20250Y29.80250
X5.20250Y30.20250
X5.20250Y32.20250
X5.20250Y32.60250
X5.30250Y1.70250
X5.30250Y2.10250
X5.30250Y5.40250
X5.30250Y5.80250
X5.30250Y10.40250
X5.30250Y10.80250
X5.30250Y14.50250
X5.30250Y14.90250
X5.30250Y19.90250
X5.30250Y20.00250
X5.30250Y20.80250
X5.30250Y21.20250
X5.30250Y25.00250
X5.30250Y25.40250
X5.30250Y27.40250
X5.30250Y27.80250
X5.30250Y29.80250
X5.30250Y30.20250
X5.30250Y32.20250
X5.30250Y32.60250
X5.40250Y1.70250
X5.40250Y2.10250
X5.40250Y5.40250
X5.40250Y5.80250
X5.40250Y7.10250
X5.40250Y7.50250
X5.40250Y15.40250
X5.40250Y15.80250
X5.40250Y20.80250
X5.40250Y21.20250
X5.50250Y7.10250
X5.50250Y7.50250
X5.50250Y16.10250
X5.50250Y16.40250
X5.50250Y16.60250
X5.50250Y17.00250
X5.50250Y22.50250
X5.50250Y22.90250
X5.60250Y2.30250
X5.60250Y2.70250
X5.60250Y10.40250
X5.60250Y10.80250
X5.60250Y12.40250
X5.60250Y12.50250
X5.60250Y12.60250
X5.60250Y16.10250
X5.60250Y16.40250
X5.60250Y16.60250
X5.60250Y17.00250
X5.60250Y22.50250
X5.60250Y22.90250
X5.60250Y25.00250
X5.60250Y25.40250
X5.60250Y27.40250
X5.60250Y27.80250
X5.60250Y29.80250
X5.60250Y30.20250
X5.60250Y32.20250
X5.60250Y32.60250
X5.70250Y2.30250
X5.70250Y2.70250
X5.70250Y5.40250
X5.70250Y5.80250
X5.70250Y19.90250
X5.70250Y20.00250
X5.70250Y21.40250
X5.70250Y21.80250
X5.80250Y13.90250
X5.80250Y14.00250
X5.80250Y14.80250
X5.80250Y15.20250
X5.80250Y16.50250
X5.80250Y16.90250
X5.80250Y20.50250
X5.80250Y20.90250
X5.80250Y21.40250
X5.80250Y21.80250
X5.80250Y25.10250
X5.80250Y25.40250
X5.80250Y27.50250
X5.80250Y27.80250
X5.80250Y29.90250
X5.80250Y30.20250
X5.80250Y32.30250
X5.80250Y32.60250
X5.90250Y10.50250
X5.90250Y10.80250
X5.90250Y11.50250
X5.90250Y11.90250
X5.90250Y14.80250
X5.90250Y15.20250
X5.90250Y25.10250
X5.90250Y25.40250
X5.90250Y26.10250
X5.90250Y26.50250
X5.90250Y27.50250
X5.90250Y27.80250
X5.90250Y28.50250
X5.90250Y28.90250
X5.90250Y29.90250
X5.90250Y30.20250
X5.90250Y30.90250
X5.90250Y31.30250
X5.90250Y32.30250
X5.90250Y32.60250
X5.90250Y33.30250
X5.90250Y33.70250
X6.00250Y10.50250
X6.00250Y10.80250
X6.00250Y11.50250
X6.00250Y11.90250
X6.00250Y25.10250
X6.00250Y25.40250
X6.00250Y26.10250
X6.00250Y26.50250
X6.00250Y27.50250
X6.00250Y27.80250
X6.00250Y28.50250
X6.00250Y28.90250
X6.00250Y29.90250
X6.00250Y30.20250
X6.00250Y30.90250
X6.00250Y31.30250
X6.00250Y32.30250
X6.00250Y32.60250
X6.00250Y33.30250
X6.00250Y33.70250
X6.10250Y10.40250
X6.10250Y10.80250
X6.10250Y16.50250
X6.10250Y16.90250
X6.10250Y25.00250
X6.10250Y25.40250
X6.10250Y27.40250
X6.10250Y27.80250
X6.10250Y29.80250
X6.10250Y30.20250
X6.10250Y32.20250
X6.10250Y32.60250
X6.20250Y10.40250
X6.20250Y10.80250
X6.20250Y13.90250
X6.20250Y14.00250
X6.20250Y16.50250
X6.20250Y16.90250
X6.20250Y25.00250
X6.20250Y25.40250
X6.20250Y27.40250
X6.20250Y27.80250
X6.20250Y29.80250
X6.20250Y30.20250
X6.20250Y32.20250
X6.20250Y32.60250
X6.30250Y14.50250
X6.30250Y14.90250
X6.30250Y15.40250
X6.30250Y15.80250
X6.40250Y10.10250
X6.40250Y10.20250
X6.40250Y10.30250
X6.40250Y15.40250
X6.40250Y15.80250
X6.50250Y10.40250
X6.50250Y10.80250
X6.50250Y25.00250
X6.50250Y25.40250
X6.50250Y27.40250
X6.50250Y27.80250
X6.50250Y29.80250
X6.50250Y30.20250
X6.50250Y32.20250
X6.50250Y32.60250
X6.70250Y10.10250
X6.70250Y10.20250
X6.70250Y10.30250
X6.80250Y24.70250
X6.80250Y25.10250
X6.80250Y25.40250
X6.80250Y26.10250
X6.80250Y26.50250
X6.80250Y27.10250
X6.80250Y27.50250
X6.80250Y27.80250
X6.80250Y28.50250
X6.80250Y28.90250
X6.80250Y29.50250
X6.80250Y29.90250
X6.80250Y30.20250
X6.80250Y30.90250
X6.80250Y31.30250
X6.80250Y31.90250
X6.80250Y32.30250
X6.80250Y32.60250
X6.80250Y33.30250
X6.80250Y33.70250
X6.90250Y25.10250
X6.90250Y25.40250
X6.90250Y26.10250
X6.90250Y26.50250
X6.90250Y27.50250
X6.90250Y27.80250
X6.90250Y28.50250
X6.90250Y28.90250
X6.90250Y29.90250
X6.90250Y30.20250
X6.90250Y30.90250
X6.90250Y31.30250
X6.90250Y32.30250
X6.90250Y32.60250
X6.90250Y33.30250
X6.90250Y33.70250
X7.00250Y0.50250
X7.00250Y0.90250
X7.00250Y1.10250
X7.00250Y1.40250
X7.00250Y25.00250
X7.00250Y25.40250
X7.00250Y27.40250
X7.00250Y27.80250
X7.00250Y29.80250
X7.00250Y30.20250
X7.00250Y32.20250
X7.00250Y32.60250
X7.10250Y0.50250
X7.10250Y0.90250
X7.10250Y1.10250
X7.10250Y1.40250
X7.10250Y24.70250
X7.10250Y25.00250
X7.10250Y25.40250
X7.10250Y27.10250
X7.10250Y27.40250
X7.10250Y27.80250
X7.10250Y29.50250
X7.10250Y29.80250
X7.10250Y30.20250
X7.10250Y31.90250
X7.10250Y32.20250
X7.10250Y32.60250
X7.20250Y1.70250
X7.20250Y2.10250
X7.20250Y3.40250
X7.20250Y3.80250
X7.40250Y0.50250
X7.40250Y0.90250
X7.40250Y1.70250
X7.40250Y2.10250
X7.40250Y6.50250
X7.40250Y6.90250
X7.40250Y8.20250
X7.40250Y8.60250
X7.40250Y25.00250
X7.40250Y25.40250
X7.40250Y27.40250
X7.40250Y27.80250
X7.40250Y29.80250
X7.40250Y30.20250
X7.40250Y32.20250
X7.40250Y32.60250
X7.50250Y0.50250
X7.50250Y0.90250
X7.50250Y1.70250
X7.50250Y2.10250
X7.50250Y3.40250
X7.50250Y3.80250
X7.50250Y6.50250
X7.50250Y6.90250
X7.60250Y3.40250
X7.60250Y3.80250
X7.60250Y5.40250
X7.60250Y5.80250
X7.60250Y8.30250
X7.60250Y8.70250
X7.70250Y0.60250
X7.70250Y1.00250
X7.70250Y2.30250
X7.70250Y2.70250
X7.70250Y5.40250
X7.70250Y5.80250
X7.70250Y7.10250
X7.70250Y7.50250
X7.70250Y8.30250
X7.70250Y8.70250
X7.70250Y24.50250
X7.70250Y24.80250
X7.70250Y25.10250
X7.70250Y25.40250
X7.70250Y26.10250
X7.70250Y26.50250
X7.70250Y26.90250
X7.70250Y27.20250
X7.70250Y27.50250
X7.70250Y27.80250
X7.70250Y28.50250
X7.70250Y28.90250
X7.70250Y29.30250
X7.70250Y29.60250
X7.70250Y29.90250
X7.70250Y30.20250
X7.70250Y30.90250
X7.70250Y31.30250
X7.70250Y31.70250
X7.70250Y32.00250
X7.70250Y32.30250
X7.70250Y32.60250
X7.70250Y33.30250
X7.70250Y33.70250
X7.80250Y2.30250
X7.80250Y2.70250
X7.80250Y7.10250
X7.80250Y7.50250
X7.80250Y8.30250
X7.80250Y8.70250
X7.80250Y20.20250
X7.80250Y20.50250
X7.80250Y21.20250
X7.80250Y21.60250
X7.80250Y25.10250
X7.80250Y25.40250
X7.80250Y26.10250
X7.80250Y26.50250
X7.80250Y27.50250
X7.80250Y27.80250
X7.80250Y28.50250
X7.80250Y28.90250
X7.80250Y29.90250
X7.80250Y30.20250
X7.80250Y30.90250
X7.80250Y31.30250
X7.80250Y32.30250
X7.80250Y32.60250
X7.80250Y33.30250
X7.80250Y33.70250
X7.90250Y20.20250
X7.90250Y20.50250
X7.90250Y21.20250
X7.90250Y21.60250
X7.90250Y25.00250
X7.90250Y25.40250
X7.90250Y27.40250
X7.90250Y27.80250
X7.90250Y29.80250
X7.90250Y30.20250
X7.90250Y32.20250
X7.90250Y32.60250
X8.00250Y5.40250
X8.00250Y5.80250
X8.00250Y7.10250
X8.00250Y7.50250
X8.00250Y8.80250
X8.00250Y9.10250
X8.00250Y20.10250
X8.00250Y20.50250
X8.00250Y25.00250
X8.00250Y25.40250
X8.00250Y27.40250
X8.00250Y27.80250
X8.00250Y29.80250
X8.00250Y30.20250
X8.00250Y32.20250
X8.00250Y32.60250
X8.10250Y7.80250
X8.10250Y8.10250
X8.10250Y8.20250
X8.10250Y8.60250
X8.10250Y8.80250
X8.10250Y9.10250
X8.10250Y20.10250
X8.10250Y20.50250
X8.20250Y7.80250
X8.20250Y8.10250
X8.20250Y8.20250
X8.20250Y8.60250
X8.20250Y8.80250
X8.20250Y9.10250
X8.30250Y7.80250
X8.30250Y8.10250
X8.30250Y8.20250
X8.30250Y8.60250
X8.30250Y8.80250
X8.30250Y9.10250
X8.30250Y25.00250
X8.30250Y25.40250
X8.30250Y27.40250
X8.30250Y27.80250
X8.30250Y29.80250
X8.30250Y30.20250
X8.30250Y32.20250
X8.30250Y32.60250
X8.40250Y20.10250
X8.40250Y20.50250
X8.60250Y25.10250
X8.60250Y25.40250
X8.60250Y26.10250
X8.60250Y26.50250
X8.60250Y27.50250
X8.60250Y27.80250
X8.60250Y28.50250
X8.60250Y28.90250
X8.60250Y29.90250
X8.60250Y30.20250
X8.60250Y30.90250
X8.60250Y31.30250
X8.60250Y32.30250
X8.60250Y32.60250
X8.60250Y33.30250
X8.60250Y33.70250
X8.70250Y20.20250
X8.70250Y20.50250
X8.70250Y21.20250
X8.70250Y21.60250
X8.70250Y25.10250
X8.70250Y25.40250
X8.70250Y26.10250
X8.70250Y26.50250
X8.70250Y27.50250
X8.70250Y27.80250
X8.70250Y28.50250
X8.70250Y28.90250
X8.70250Y29.90250
X8.70250Y30.20250
X8.70250Y30.90250
X8.70250Y31.30250
X8.70250Y32.30250
X8.70250Y32.60250
X8.70250Y33.30250
X8.70250Y33.70250
X8.80250Y20.20250
X8.80250Y20.50250
X8.80250Y21.20250
X8.80250Y21.60250
X8.80250Y25.00250
X8.80250Y25.40250
X8.80250Y27.40250
X8.80250Y27.80250
X8.80250Y29.80250
X8.80250Y30.20250
X8.80250Y32.20250
X8.80250Y32.60250
X8.90250Y20.10250
X8.90250Y20.50250
X8.90250Y25.00250
X8.90250Y25.40250
X8.90250Y27.40250
X8.90250Y27.80250
X8.90250Y29.80250
X8.90250Y30.20250
X8.90250Y32.20250
X8.90250Y32.60250
X9.00250Y20.10250
X9.00250Y20.50250
X9.10250Y0.80250
X9.10250Y1.10250
X9.10250Y1.80250
X9.10250Y2.20250
X9.10250Y5.60250
X9.10250Y5.90250
X9.10250Y6.60250
X9.10250Y7.00250
X9.20250Y0.80250
X9.20250Y1.10250
X9.20250Y1.80250
X9.20250Y2.20250
X9.20250Y3.00250
X9.20250Y3.20250
X9.20250Y5.60250
X9.20250Y5.90250
X9.20250Y6.60250
X9.20250Y7.00250
X9.20250Y25.00250
X9.20250Y25.40250
X9.20250Y27.40250
X9.20250Y27.80250
X9.20250Y29.80250
X9.20250Y30.20250
X9.20250Y32.20250
X9.20250Y32.60250
X9.30250Y0.70250
X9.30250Y1.10250
X9.30250Y4.00250
X9.30250Y4.40250
X9.30250Y5.50250
X9.30250Y5.90250
X9.30250Y10.20250
X9.30250Y10.50250
X9.30250Y20.10250
X9.30250Y20.50250
X9.40250Y0.70250
X9.40250Y1.10250
X9.40250Y4.00250
X9.40250Y4.40250
X9.40250Y5.50250
X9.40250Y5.90250
X9.40250Y10.20250
X9.40250Y10.50250
X9.40250Y22.80250
X9.40250Y23.20250
X9.50250Y10.20250
X9.50250Y10.50250
X9.50250Y12.10250
X9.50250Y12.50250
X9.50250Y16.20250
X9.50250Y16.60250
X9.50250Y20.20250
X9.50250Y20.50250
X9.50250Y22.20250
X9.50250Y22.60250
X9.50250Y22.80250
X9.50250Y23.20250
X9.60250Y3.00250
X9.60250Y3.20250
X9.60250Y12.10250
X9.60250Y12.50250
X9.60250Y20.20250
X9.60250Y20.50250
X9.60250Y21.20250
X9.60250Y21.60250
X9.70250Y0.70250
X9.70250Y1.10250
X9.70250Y5.50250
X9.70250Y5.90250
X9.70250Y11.50250
X9.70250Y11.90250
X9.70250Y14.80250
X9.70250Y15.20250
X9.70250Y20.20250
X9.70250Y20.50250
X9.70250Y21.20250
X9.70250Y21.60250
X9.70250Y22.30250
X9.70250Y22.40250
X9.80250Y11.50250
X9.80250Y11.90250
X9.80250Y13.90250
X9.80250Y14.20250
X9.80250Y14.80250
X9.80250Y15.20250
X9.80250Y20.10250
X9.80250Y20.50250
X9.90250Y3.20250
X9.90250Y3.60250
X9.90250Y12.90250
X9.90250Y13.30250
X9.90250Y13.90250
X9.90250Y14.20250
X9.90250Y16.20250
X9.90250Y16.60250
X9.90250Y20.10250
X9.90250Y20.50250
X10.00250Y0.80250
X10.00250Y1.10250
X10.00250Y1.80250
X10.00250Y2.20250
X10.00250Y5.60250
X10.00250Y5.90250
X10.00250Y6.60250
X10.00250Y7.00250
X10.00250Y10.50250
X10.00250Y10.90250
X10.00250Y13.80250
X10.00250Y14.20250
X10.00250Y16.20250
X10.00250Y16.60250
X10.10250Y0.80250
X10.10250Y1.10250
X10.10250Y1.80250
X10.10250Y2.20250
X10.10250Y5.60250
X10.10250Y5.90250
X10.10250Y6.60250
X10.10250Y7.00250
X10.10250Y10.50250
X10.10250Y10.90250
X10.10250Y13.80250
X10.10250Y14.20250
X10.10250Y16.20250
X10.10250Y16.50250
X10.10250Y22.30250
X10.10250Y22.40250
X10.10250Y25.10250
X10.10250Y25.20250
X10.10250Y26.00250
X10.10250Y26.40250
X10.10250Y27.50250
X10.10250Y27.60250
X10.10250Y28.40250
X10.10250Y28.80250
X10.10250Y29.90250
X10.10250Y30.00250
X10.10250Y30.80250
X10.10250Y31.20250
X10.10250Y32.30250
X10.10250Y32.40250
X10.10250Y33.20250
X10.10250Y33.60250
X10.20250Y0.70250
X10.20250Y1.10250
X10.20250Y3.10250
X10.20250Y3.20250
X10.20250Y4.00250
X10.20250Y4.40250
X10.20250Y5.50250
X10.20250Y5.90250
X10.20250Y11.90250
X10.20250Y12.30250
X10.20250Y15.20250
X10.20250Y15.60250
X10.20250Y16.20250
X10.20250Y16.50250
X10.20250Y20.10250
X10.20250Y20.50250
X10.20250Y26.00250
X10.20250Y26.40250
X10.20250Y28.40250
X10.20250Y28.80250
X10.20250Y30.80250
X10.20250Y31.20250
X10.20250Y33.20250
X10.20250Y33.60250
X10.30250Y0.70250
X10.30250Y1.10250
X10.30250Y4.00250
X10.30250Y4.40250
X10.30250Y5.50250
X10.30250Y5.90250
X10.30250Y11.90250
X10.30250Y12.30250
X10.30250Y15.20250
X10.30250Y15.60250
X10.30250Y24.80250
X10.40250Y22.70250
X10.40250Y23.10250
X10.40250Y26.60250
X10.40250Y27.00250
X10.40250Y29.00250
X10.40250Y29.40250
X10.40250Y31.40250
X10.40250Y31.80250
X10.50250Y10.50250
X10.50250Y10.90250
X10.50250Y13.80250
X10.50250Y14.20250
X10.50250Y19.80250
X10.50250Y20.20250
X10.50250Y20.50250
X10.50250Y21.20250
X10.50250Y21.60250
X10.50250Y22.80250
X10.50250Y23.20250
X10.50250Y25.10250
X10.50250Y25.20250
X10.50250Y27.50250
X10.50250Y27.60250
X10.50250Y29.90250
X10.50250Y30.00250
X10.50250Y32.30250
X10.50250Y32.40250
X10.60250Y0.70250
X10.60250Y1.10250
X10.60250Y3.10250
X10.60250Y3.20250
X10.60250Y5.50250
X10.60250Y5.90250
X10.60250Y20.20250
X10.60250Y20.50250
X10.60250Y21.20250
X10.60250Y21.60250
X10.60250Y22.80250
X10.60250Y23.20250
X10.60250Y25.70250
X10.60250Y26.10250
X10.60250Y28.10250
X10.60250Y28.50250
X10.60250Y30.50250
X10.60250Y30.90250
X10.60250Y32.90250
X10.60250Y33.30250
X10.70250Y3.70250
X10.70250Y4.10250
X10.70250Y20.10250
X10.70250Y20.50250
X10.70250Y24.80250
X10.80250Y0.80250
X10.80250Y1.10250
X10.80250Y3.00250
X10.80250Y5.60250
X10.80250Y5.90250
X10.80250Y12.90250
X10.80250Y13.30250
X10.80250Y13.80250
X10.80250Y14.20250
X10.80250Y14.30250
X10.80250Y14.60250
X10.80250Y14.80250
X10.80250Y15.20250
X10.80250Y16.20250
X10.80250Y16.60250
X10.80250Y19.80250
X10.80250Y20.10250
X10.80250Y20.50250
X10.80250Y22.30250
X10.80250Y22.40250
X10.80250Y24.80250
X10.80250Y25.20250
X10.80250Y26.60250
X10.80250Y27.00250
X10.80250Y29.00250
X10.80250Y29.40250
X10.80250Y31.40250
X10.80250Y31.80250
X10.90250Y0.80250
X10.90250Y1.10250
X10.90250Y1.80250
X10.90250Y2.20250
X10.90250Y5.60250
X10.90250Y5.90250
X10.90250Y6.60250
X10.90250Y7.00250
X10.90250Y10.60250
X10.90250Y10.90250
X10.90250Y13.80250
X10.90250Y14.20250
X10.90250Y14.30250
X10.90250Y14.60250
X10.90250Y26.00250
X10.90250Y26.40250
X10.90250Y27.50250
X10.90250Y27.60250
X10.90250Y28.40250
X10.90250Y28.80250
X10.90250Y29.90250
X10.90250Y30.00250
X10.90250Y30.80250
X10.90250Y31.20250
X10.90250Y32.30250
X10.90250Y32.40250
X10.90250Y33.20250
X10.90250Y33.60250
X11.00250Y0.80250
X11.00250Y1.10250
X11.00250Y1.80250
X11.00250Y2.20250
X11.00250Y4.00250
X11.00250Y4.40250
X11.00250Y5.60250
X11.00250Y5.90250
X11.00250Y6.60250
X11.00250Y7.00250
X11.00250Y10.60250
X11.00250Y10.90250
X11.00250Y11.50250
X11.00250Y11.90250
X11.00250Y14.80250
X11.00250Y15.20250
X11.00250Y25.10250
X11.00250Y25.20250
X11.00250Y26.00250
X11.00250Y26.40250
X11.00250Y28.40250
X11.00250Y28.80250
X11.00250Y30.80250
X11.00250Y31.20250
X11.00250Y33.20250
X11.00250Y33.60250
X11.10250Y0.70250
X11.10250Y1.10250
X11.10250Y5.50250
X11.10250Y5.90250
X11.10250Y10.60250
X11.10250Y10.90250
X11.10250Y11.50250
X11.10250Y11.90250
X11.10250Y13.80250
X11.10250Y14.20250
X11.10250Y14.80250
X11.10250Y15.20250
X11.10250Y20.10250
X11.10250Y20.50250
X11.20250Y0.70250
X11.20250Y1.10250
X11.20250Y3.00250
X11.20250Y4.10250
X11.20250Y4.50250
X11.20250Y5.50250
X11.20250Y5.90250
X11.20250Y12.90250
X11.20250Y13.30250
X11.20250Y13.80250
X11.20250Y14.20250
X11.20250Y16.20250
X11.20250Y16.60250
X11.20250Y22.30250
X11.20250Y22.40250
X11.20250Y26.40250
X11.20250Y26.80250
X11.20250Y28.80250
X11.20250Y29.20250
X11.20250Y31.20250
X11.20250Y31.60250
X11.30250Y10.50250
X11.30250Y10.90250
X11.30250Y12.90250
X11.30250Y13.30250
X11.30250Y16.20250
X11.30250Y16.60250
X11.30250Y27.50250
X11.30250Y27.60250
X11.30250Y29.90250
X11.30250Y30.00250
X11.30250Y32.30250
X11.30250Y32.40250
X11.40250Y10.50250
X11.40250Y10.90250
X11.40250Y13.80250
X11.40250Y14.20250
X11.40250Y19.60250
X11.40250Y19.90250
X11.40250Y20.20250
X11.40250Y20.50250
X11.40250Y21.20250
X11.40250Y21.60250
X11.40250Y25.10250
X11.40250Y25.20250
X11.40250Y25.70250
X11.40250Y26.10250
X11.40250Y28.10250
X11.40250Y28.50250
X11.40250Y30.50250
X11.40250Y30.90250
X11.40250Y32.90250
X11.40250Y33.30250
X11.50250Y0.70250
X11.50250Y1.10250
X11.50250Y5.50250
X11.50250Y5.90250
X11.50250Y11.90250
X11.50250Y12.30250
X11.50250Y15.20250
X11.50250Y15.60250
X11.50250Y20.20250
X11.50250Y20.50250
X11.50250Y21.20250
X11.50250Y21.60250
X11.50250Y22.40250
X11.60250Y11.90250
X11.60250Y12.30250
X11.60250Y15.20250
X11.60250Y15.60250
X11.60250Y20.10250
X11.60250Y20.50250
X11.60250Y24.70250
X11.60250Y25.10250
X11.70250Y20.10250
X11.70250Y20.50250
X11.70250Y22.80250
X11.70250Y23.00250
X11.80250Y0.40250
X11.80250Y0.80250
X11.80250Y1.10250
X11.80250Y1.80250
X11.80250Y2.20250
X11.80250Y3.00250
X11.80250Y3.20250
X11.80250Y5.20250
X11.80250Y5.60250
X11.80250Y5.90250
X11.80250Y6.60250
X11.80250Y7.00250
X11.80250Y10.50250
X11.80250Y10.90250
X11.90250Y0.80250
X11.90250Y1.10250
X11.90250Y1.80250
X11.90250Y2.20250
X11.90250Y4.00250
X11.90250Y4.40250
X11.90250Y5.60250
X11.90250Y5.90250
X11.90250Y6.60250
X11.90250Y7.00250
X11.90250Y22.40250
X12.00250Y0.70250
X12.00250Y1.10250
X12.00250Y4.00250
X12.00250Y4.40250
X12.00250Y5.50250
X12.00250Y5.90250
X12.00250Y20.10250
X12.00250Y20.50250
X12.10250Y0.40250
X12.10250Y0.70250
X12.10250Y1.10250
X12.10250Y5.20250
X12.10250Y5.50250
X12.10250Y5.90250
X12.10250Y10.60250
X12.10250Y10.90250
X12.10250Y11.50250
X12.10250Y11.90250
X12.10250Y14.80250
X12.10250Y15.20250
X12.10250Y22.80250
X12.10250Y23.00250
X12.20250Y3.00250
X12.20250Y3.20250
X12.20250Y10.60250
X12.20250Y10.90250
X12.20250Y11.50250
X12.20250Y11.90250
X12.20250Y14.80250
X12.20250Y15.20250
X12.30250Y10.60250
X12.30250Y10.90250
X12.30250Y12.90250
X12.30250Y13.30250
X12.30250Y16.20250
X12.30250Y16.60250
X12.30250Y20.20250
X12.30250Y20.50250
X12.30250Y21.20250
X12.30250Y21.60250
X12.40250Y0.70250
X12.40250Y1.10250
X12.40250Y5.50250
X12.40250Y5.90250
X12.40250Y10.50250
X12.40250Y10.90250
X12.40250Y13.80250
X12.40250Y14.20250
X12.40250Y20.20250
X12.40250Y20.50250
X12.40250Y21.20250
X12.40250Y21.60250
X12.50250Y3.20250
X12.50250Y3.60250
X12.50250Y10.50250
X12.50250Y10.90250
X12.50250Y12.90250
X12.50250Y13.30250
X12.50250Y13.80250
X12.50250Y14.20250
X12.50250Y16.20250
X12.50250Y16.60250
X12.50250Y20.10250
X12.50250Y20.50250
X12.60250Y11.90250
X12.60250Y12.30250
X12.60250Y12.90250
X12.60250Y13.30250
X12.60250Y15.20250
X12.60250Y15.60250
X12.60250Y16.20250
X12.60250Y16.60250
X12.60250Y20.10250
X12.60250Y20.50250
X12.70250Y0.20250
X12.70250Y0.50250
X12.70250Y0.80250
X12.70250Y1.10250
X12.70250Y1.80250
X12.70250Y2.20250
X12.70250Y5.00250
X12.70250Y5.30250
X12.70250Y5.60250
X12.70250Y5.90250
X12.70250Y6.60250
X12.70250Y7.00250
X12.70250Y11.90250
X12.70250Y12.30250
X12.70250Y15.20250
X12.70250Y15.60250
X12.70250Y36.00250
X12.80250Y0.80250
X12.80250Y1.10250
X12.80250Y1.80250
X12.80250Y2.20250
X12.80250Y3.10250
X12.80250Y3.20250
X12.80250Y4.00250
X12.80250Y4.40250
X12.80250Y5.60250
X12.80250Y5.90250
X12.80250Y6.60250
X12.80250Y7.00250
X12.80250Y11.90250
X12.80250Y12.30250
X12.80250Y12.50250
X12.80250Y12.80250
X12.80250Y12.90250
X12.80250Y13.30250
X12.80250Y15.20250
X12.80250Y15.60250
X12.80250Y15.80250
X12.80250Y16.10250
X12.80250Y16.20250
X12.80250Y16.60250
X12.90250Y0.70250
X12.90250Y1.10250
X12.90250Y4.00250
X12.90250Y4.40250
X12.90250Y5.50250
X12.90250Y5.90250
X12.90250Y10.50250
X12.90250Y10.90250
X12.90250Y12.50250
X12.90250Y12.80250
X12.90250Y12.90250
X12.90250Y13.30250
X12.90250Y13.80250
X12.90250Y14.20250
X12.90250Y15.80250
X12.90250Y16.10250
X12.90250Y16.20250
X12.90250Y16.60250
X12.90250Y20.10250
X12.90250Y20.50250
X13.00250Y0.70250
X13.00250Y1.10250
X13.00250Y5.50250
X13.00250Y5.90250
X13.10250Y11.00250
X13.10250Y11.30250
X13.10250Y36.00250
X13.20250Y3.10250
X13.20250Y3.20250
X13.20250Y11.00250
X13.20250Y11.30250
X13.20250Y12.90250
X13.20250Y13.30250
X13.20250Y16.20250
X13.20250Y16.60250
X13.30250Y0.70250
X13.30250Y1.10250
X13.30250Y3.70250
X13.30250Y4.10250
X13.30250Y5.50250
X13.30250Y5.90250
X13.30250Y11.00250
X13.30250Y11.30250
X13.40250Y10.60250
X13.40250Y10.90250
X13.40250Y11.50250
X13.40250Y11.90250
X13.40250Y14.80250
X13.40250Y15.20250
X13.40250Y25.60250
X13.40250Y26.00250
X13.40250Y28.00250
X13.40250Y28.40250
X13.40250Y30.40250
X13.40250Y30.80250
X13.40250Y32.80250
X13.40250Y33.20250
X13.50250Y3.10250
X13.50250Y10.60250
X13.50250Y10.90250
X13.50250Y11.50250
X13.50250Y11.90250
X13.50250Y13.90250
X13.50250Y14.20250
X13.50250Y14.80250
X13.50250Y15.20250
X13.50250Y25.60250
X13.50250Y25.90250
X13.50250Y28.00250
X13.50250Y28.30250
X13.50250Y30.40250
X13.50250Y30.70250
X13.50250Y32.80250
X13.50250Y33.10250
X13.60250Y0.80250
X13.60250Y1.10250
X13.60250Y1.80250
X13.60250Y2.20250
X13.60250Y4.00250
X13.60250Y4.40250
X13.60250Y5.60250
X13.60250Y5.90250
X13.60250Y6.60250
X13.60250Y7.00250
X13.60250Y10.60250
X13.60250Y10.90250
X13.60250Y12.90250
X13.60250Y13.30250
X13.60250Y13.90250
X13.60250Y14.20250
X13.60250Y16.20250
X13.60250Y16.60250
X13.60250Y25.60250
X13.60250Y25.90250
X13.60250Y26.10644
X13.60250Y26.50644
X13.60250Y28.00250
X13.60250Y28.30250
X13.60250Y28.50644
X13.60250Y28.90644
X13.60250Y30.40250
X13.60250Y30.70250
X13.60250Y30.90644
X13.60250Y31.30644
X13.60250Y32.80250
X13.60250Y33.10250
X13.60250Y33.30644
X13.60250Y33.70644
X13.70250Y0.80250
X13.70250Y1.10250
X13.70250Y1.80250
X13.70250Y2.20250
X13.70250Y5.60250
X13.70250Y5.90250
X13.70250Y6.60250
X13.70250Y7.00250
X13.70250Y10.50250
X13.70250Y10.90250
X13.70250Y12.90250
X13.70250Y13.30250
X13.70250Y13.80250
X13.70250Y14.20250
X13.70250Y16.20250
X13.70250Y16.60250
X13.70250Y25.60250
X13.70250Y25.90250
X13.70250Y26.10644
X13.70250Y26.50644
X13.70250Y28.00250
X13.70250Y28.30250
X13.70250Y28.50644
X13.70250Y28.90644
X13.70250Y30.40250
X13.70250Y30.70250
X13.70250Y30.90644
X13.70250Y31.30644
X13.70250Y32.80250
X13.70250Y33.10250
X13.70250Y33.30644
X13.70250Y33.70644
X13.80250Y0.70250
X13.80250Y1.10250
X13.80250Y4.10250
X13.80250Y4.50250
X13.80250Y5.50250
X13.80250Y5.90250
X13.80250Y10.50250
X13.80250Y10.90250
X13.80250Y13.80250
X13.80250Y14.20250
X13.80250Y16.20250
X13.80250Y16.50250
X13.80250Y25.60250
X13.80250Y25.90250
X13.80250Y28.00250
X13.80250Y28.30250
X13.80250Y30.40250
X13.80250Y30.70250
X13.80250Y32.80250
X13.80250Y33.10250
X13.80250Y36.00250
X13.90250Y0.70250
X13.90250Y1.10250
X13.90250Y3.10250
X13.90250Y5.50250
X13.90250Y5.90250
X13.90250Y11.90250
X13.90250Y12.30250
X13.90250Y15.20250
X13.90250Y15.60250
X13.90250Y16.20250
X13.90250Y16.50250
X13.90250Y25.59856
X13.90250Y25.69856
X13.90250Y27.99856
X13.90250Y28.09856
X13.90250Y30.39856
X13.90250Y30.49856
X13.90250Y32.79856
X13.90250Y32.89856
X14.00250Y11.90250
X14.00250Y12.30250
X14.00250Y15.20250
X14.00250Y15.60250
X14.10250Y13.70250
X14.20250Y0.70250
X14.20250Y1.10250
X14.20250Y5.50250
X14.20250Y5.90250
X14.20250Y10.50250
X14.20250Y10.90250
X14.20250Y13.80250
X14.20250Y14.20250
X14.20250Y36.00250
X14.30250Y25.59856
X14.30250Y25.69856
X14.30250Y27.99856
X14.30250Y28.09856
X14.30250Y30.39856
X14.30250Y30.49856
X14.30250Y32.79856
X14.30250Y32.89856
X14.40250Y13.70250
X14.40250Y13.80250
X14.40250Y14.10250
X14.70250Y25.60644
X14.70250Y26.00644
X14.70250Y28.00644
X14.70250Y28.40644
X14.70250Y30.40644
X14.70250Y30.80644
X14.70250Y32.80644
X14.70250Y33.20644
X14.80250Y19.90250
X14.80250Y20.20250
X14.80250Y20.90250
X14.80250Y21.30250
X14.80250Y25.60644
X14.80250Y25.90644
X14.80250Y28.00644
X14.80250Y28.30644
X14.80250Y30.40644
X14.80250Y30.70644
X14.80250Y32.80644
X14.80250Y33.10644
X14.90250Y19.90250
X14.90250Y20.20250
X14.90250Y20.90250
X14.90250Y21.30250
X14.90250Y21.70250
X14.90250Y22.10250
X14.90250Y22.60250
X14.90250Y22.70250
X14.90250Y25.60644
X14.90250Y25.90644
X14.90250Y26.10644
X14.90250Y26.50644
X14.90250Y28.00644
X14.90250Y28.30644
X14.90250Y28.50644
X14.90250Y28.90644
X14.90250Y30.40644
X14.90250Y30.70644
X14.90250Y30.90644
X14.90250Y31.30644
X14.90250Y32.80644
X14.90250Y33.10644
X14.90250Y33.30644
X14.90250Y33.70644
X15.00250Y19.80250
X15.00250Y20.20250
X15.00250Y25.60644
X15.00250Y25.90644
X15.00250Y26.10644
X15.00250Y26.50644
X15.00250Y28.00644
X15.00250Y28.30644
X15.00250Y28.50644
X15.00250Y28.90644
X15.00250Y30.40644
X15.00250Y30.70644
X15.00250Y30.90644
X15.00250Y31.30644
X15.00250Y32.80644
X15.00250Y33.10644
X15.00250Y33.30644
X15.00250Y33.70644
X15.10250Y19.80250
X15.10250Y20.20250
X15.10250Y25.60644
X15.10250Y25.90644
X15.10250Y28.00644
X15.10250Y28.30644
X15.10250Y30.40644
X15.10250Y30.70644
X15.10250Y32.80644
X15.10250Y33.10644
X15.20250Y25.60644
X15.20250Y25.70644
X15.20250Y28.00644
X15.20250Y28.10644
X15.20250Y30.40644
X15.20250Y30.50644
X15.20250Y32.80644
X15.20250Y32.90644
X15.30250Y11.80250
X15.30250Y12.20250
X15.30250Y21.50250
X15.30250Y21.90250
X15.30250Y22.60250
X15.30250Y22.70250
X15.40250Y11.70250
X15.40250Y12.10250
X15.40250Y19.80250
X15.40250Y20.20250
X15.40250Y21.50250
X15.40250Y21.90250
X15.40250Y22.70250
X15.40250Y23.00250
X15.50250Y11.50250
X15.50250Y11.90250
X15.50250Y13.80250
X15.50250Y14.10250
X15.50250Y14.80250
X15.50250Y15.20250
X15.50250Y16.50250
X15.50250Y16.90250
X15.50250Y22.70250
X15.50250Y23.00250
X15.60250Y11.50250
X15.60250Y11.90250
X15.60250Y13.80250
X15.60250Y14.10250
X15.60250Y14.80250
X15.60250Y15.20250
X15.60250Y25.60644
X15.60250Y25.70644
X15.60250Y28.00644
X15.60250Y28.10644
X15.60250Y30.40644
X15.60250Y30.50644
X15.60250Y32.80644
X15.60250Y32.90644
X15.70250Y10.40250
X15.70250Y10.80250
X15.70250Y11.80250
X15.70250Y12.20250
X15.70250Y13.70250
X15.70250Y14.10250
X15.70250Y19.90250
X15.70250Y20.20250
X15.70250Y20.90250
X15.70250Y21.30250
X15.70250Y22.60250
X15.70250Y23.00250
X15.80250Y10.40250
X15.80250Y10.80250
X15.80250Y13.70250
X15.80250Y14.10250
X15.80250Y16.50250
X15.80250Y16.90250
X15.80250Y19.90250
X15.80250Y20.20250
X15.80250Y20.90250
X15.80250Y21.30250
X15.90250Y16.50250
X15.90250Y16.90250
X15.90250Y19.80250
X15.90250Y20.20250
X16.00250Y12.10250
X16.00250Y12.50250
X16.00250Y15.40250
X16.00250Y15.80250
X16.00250Y16.50250
X16.00250Y16.80250
X16.00250Y19.80250
X16.00250Y20.20250
X16.00250Y22.60250
X16.00250Y23.00250
X16.00250Y25.60250
X16.00250Y26.00250
X16.00250Y28.00250
X16.00250Y28.40250
X16.00250Y30.40250
X16.00250Y30.80250
X16.00250Y32.80250
X16.00250Y33.20250
X16.10250Y10.40250
X16.10250Y10.80250
X16.10250Y12.10250
X16.10250Y12.50250
X16.10250Y13.70250
X16.10250Y14.10250
X16.10250Y15.40250
X16.10250Y15.80250
X16.10250Y16.50250
X16.10250Y16.80250
X16.10250Y22.60250
X16.10250Y23.00250
X16.10250Y25.60250
X16.10250Y25.90250
X16.10250Y28.00250
X16.10250Y28.30250
X16.10250Y30.40250
X16.10250Y30.70250
X16.10250Y32.80250
X16.10250Y33.10250
X16.20250Y21.50250
X16.20250Y21.90250
X16.20250Y25.60250
X16.20250Y25.90250
X16.20250Y26.10250
X16.20250Y26.50250
X16.20250Y28.00250
X16.20250Y28.30250
X16.20250Y28.50250
X16.20250Y28.90250
X16.20250Y30.40250
X16.20250Y30.70250
X16.20250Y30.90250
X16.20250Y31.30250
X16.20250Y32.80250
X16.20250Y33.10250
X16.20250Y33.30250
X16.20250Y33.70250
X16.30250Y19.80250
X16.30250Y20.20250
X16.30250Y21.50250
X16.30250Y21.90250
X16.30250Y22.60250
X16.30250Y22.90250
X16.30250Y25.60250
X16.30250Y25.90250
X16.30250Y26.10250
X16.30250Y26.50250
X16.30250Y28.00250
X16.30250Y28.30250
X16.30250Y28.50250
X16.30250Y28.90250
X16.30250Y30.40250
X16.30250Y30.70250
X16.30250Y30.90250
X16.30250Y31.30250
X16.30250Y32.80250
X16.30250Y33.10250
X16.30250Y33.30250
X16.30250Y33.70250
X16.40250Y22.60250
X16.40250Y22.90250
X16.40250Y25.60250
X16.40250Y25.90250
X16.40250Y28.00250
X16.40250Y28.30250
X16.40250Y30.40250
X16.40250Y30.70250
X16.40250Y32.80250
X16.40250Y33.10250
X16.50250Y25.60250
X16.50250Y25.70250
X16.50250Y28.00250
X16.50250Y28.10250
X16.50250Y30.40250
X16.50250Y30.50250
X16.50250Y32.80250
X16.50250Y32.90250
X16.90250Y25.60250
X16.90250Y25.70250
X16.90250Y28.00250
X16.90250Y28.10250
X16.90250Y30.40250
X16.90250Y30.50250
X16.90250Y32.80250
X16.90250Y32.90250
X17.10250Y0.40250
X17.10250Y0.50250
X17.20250Y0.60250
X17.20250Y1.00250
X17.20250Y1.80250
X17.20250Y1.90250
X17.20250Y3.60250
X17.20250Y3.70250
X17.20250Y5.40250
X17.20250Y5.50250
X17.20250Y7.20250
X17.20250Y7.60250
X17.30250Y0.60250
X17.30250Y1.00250
X17.30250Y2.00250
X17.30250Y2.40250
X17.30250Y3.80250
X17.30250Y4.20250
X17.30250Y7.40250
X17.30250Y7.80250
X17.30250Y25.60250
X17.30250Y26.00250
X17.30250Y28.00250
X17.30250Y28.40250
X17.30250Y30.40250
X17.30250Y30.80250
X17.30250Y32.80250
X17.30250Y33.20250
X17.40250Y0.60250
X17.40250Y0.90250
X17.40250Y1.00250
X17.40250Y1.40250
X17.40250Y2.00250
X17.40250Y2.40250
X17.40250Y3.80250
X17.40250Y4.20250
X17.40250Y6.50250
X17.40250Y6.90250
X17.40250Y25.60250
X17.40250Y25.90250
X17.40250Y28.00250
X17.40250Y28.30250
X17.40250Y30.40250
X17.40250Y30.70250
X17.40250Y32.80250
X17.40250Y33.10250
X17.50250Y0.40250
X17.50250Y0.50250
X17.50250Y1.00250
X17.50250Y1.40250
X17.50250Y2.00250
X17.50250Y2.30250
X17.50250Y2.40250
X17.50250Y2.80250
X17.50250Y3.80250
X17.50250Y4.10250
X17.50250Y4.20250
X17.50250Y4.60250
X17.50250Y5.40250
X17.50250Y5.50250
X17.50250Y6.50250
X17.50250Y6.90250
X17.50250Y25.60250
X17.50250Y25.90250
X17.50250Y26.10250
X17.50250Y26.50250
X17.50250Y28.00250
X17.50250Y28.30250
X17.50250Y28.50250
X17.50250Y28.90250
X17.50250Y30.40250
X17.50250Y30.70250
X17.50250Y30.90250
X17.50250Y31.30250
X17.50250Y32.80250
X17.50250Y33.10250
X17.50250Y33.30250
X17.50250Y33.70250
X17.60250Y0.40250
X17.60250Y0.70250
X17.60250Y1.00250
X17.60250Y1.40250
X17.60250Y1.80250
X17.60250Y1.90250
X17.60250Y2.40250
X17.60250Y2.80250
X17.60250Y3.60250
X17.60250Y3.70250
X17.60250Y4.20250
X17.60250Y4.60250
X17.60250Y5.40250
X17.60250Y5.80250
X17.60250Y25.60250
X17.60250Y25.90250
X17.60250Y26.10250
X17.60250Y26.50250
X17.60250Y28.00250
X17.60250Y28.30250
X17.60250Y28.50250
X17.60250Y28.90250
X17.60250Y30.40250
X17.60250Y30.70250
X17.60250Y30.90250
X17.60250Y31.30250
X17.60250Y32.80250
X17.60250Y33.10250
X17.60250Y33.30250
X17.60250Y33.70250
X17.70250Y1.80250
X17.70250Y2.10250
X17.70250Y2.40250
X17.70250Y2.80250
X17.70250Y3.60250
X17.70250Y3.90250
X17.70250Y4.20250
X17.70250Y4.60250
X17.70250Y5.40250
X17.70250Y5.80250
X17.70250Y7.10250
X17.70250Y7.50250
X17.70250Y10.20250
X17.70250Y10.50250
X17.70250Y11.20250
X17.70250Y11.60250
X17.70250Y14.10250
X17.70250Y14.40250
X17.70250Y15.10250
X17.70250Y15.50250
X17.70250Y25.60250
X17.70250Y25.90250
X17.70250Y28.00250
X17.70250Y28.30250
X17.70250Y30.40250
X17.70250Y30.70250
X17.70250Y32.80250
X17.70250Y33.10250
X17.80250Y0.50250
X17.80250Y7.10250
X17.80250Y7.50250
X17.80250Y10.20250
X17.80250Y10.50250
X17.80250Y11.20250
X17.80250Y11.60250
X17.80250Y14.10250
X17.80250Y14.40250
X17.80250Y15.10250
X17.80250Y15.50250
X17.80250Y25.60250
X17.80250Y25.70250
X17.80250Y28.00250
X17.80250Y28.10250
X17.80250Y30.40250
X17.80250Y30.50250
X17.80250Y32.80250
X17.80250Y32.90250
X17.90250Y1.90250
X17.90250Y3.70250
X17.90250Y10.10250
X17.90250Y10.50250
X17.90250Y14.00250
X17.90250Y14.40250
X18.00250Y5.40250
X18.00250Y5.80250
X18.00250Y10.10250
X18.00250Y10.50250
X18.00250Y12.80250
X18.00250Y13.20250
X18.00250Y14.00250
X18.00250Y14.40250
X18.00250Y16.70250
X18.00250Y17.10250
X18.19463Y3.80250
X18.20250Y0.50250
X18.20250Y0.60250
X18.20250Y5.30250
X18.20250Y5.70250
X18.20250Y5.90250
X18.20250Y6.20250
X18.20250Y25.60250
X18.20250Y25.70250
X18.20250Y28.00250
X18.20250Y28.10250
X18.20250Y30.40250
X18.20250Y30.50250
X18.20250Y32.80250
X18.20250Y32.90250
X18.30250Y1.90250
X18.30250Y2.00250
X18.30250Y3.70250
X18.30250Y5.30250
X18.30250Y5.70250
X18.30250Y5.90250
X18.30250Y6.20250
X18.30250Y10.10250
X18.30250Y10.50250
X18.30250Y12.80250
X18.30250Y13.20250
X18.30250Y14.00250
X18.30250Y14.40250
X18.30250Y16.70250
X18.30250Y17.10250
X18.40250Y5.30250
X18.40250Y5.70250
X18.40250Y5.90250
X18.40250Y6.20250
X18.40250Y12.80250
X18.40250Y13.20250
X18.40250Y16.70250
X18.40250Y17.10250
X18.50250Y1.00250
X18.50250Y1.40250
X18.50250Y6.50250
X18.50250Y6.90250
X18.50250Y7.10250
X18.50250Y7.50250
X18.50250Y11.60250
X18.50250Y12.00250
X18.50250Y12.80250
X18.50250Y13.10250
X18.50250Y15.50250
X18.50250Y15.90250
X18.50250Y16.70250
X18.50250Y17.00250
X18.59463Y3.80250
X18.60250Y0.60250
X18.60250Y1.00250
X18.60250Y1.40250
X18.60250Y2.40250
X18.60250Y2.80250
X18.60250Y4.20250
X18.60250Y4.60250
X18.60250Y5.30250
X18.60250Y5.70250
X18.60250Y7.10250
X18.60250Y7.50250
X18.60250Y10.20250
X18.60250Y10.50250
X18.60250Y11.20250
X18.60250Y11.60250
X18.60250Y11.60250
X18.60250Y12.00250
X18.60250Y12.80250
X18.60250Y13.10250
X18.60250Y14.10250
X18.60250Y14.40250
X18.60250Y15.10250
X18.60250Y15.50250
X18.60250Y15.50250
X18.60250Y15.90250
X18.60250Y16.70250
X18.60250Y17.00250
X18.60250Y20.00250
X18.60250Y20.40250
X18.60250Y20.60250
X18.60250Y20.90250
X18.70250Y2.00250
X18.70250Y2.40250
X18.70250Y2.80250
X18.70250Y4.20250
X18.70250Y4.60250
X18.70250Y5.30250
X18.70250Y5.70250
X18.70250Y6.50250
X18.70250Y6.90250
X18.70250Y10.20250
X18.70250Y10.50250
X18.70250Y11.20250
X18.70250Y11.60250
X18.70250Y14.10250
X18.70250Y14.40250
X18.70250Y15.10250
X18.70250Y15.50250
X18.70250Y20.00250
X18.70250Y20.40250
X18.70250Y20.60250
X18.70250Y20.90250
X18.80250Y0.50250
X18.80250Y0.60250
X18.80250Y5.30250
X18.80250Y5.70250
X18.80250Y6.50250
X18.80250Y6.90250
X18.80250Y10.10250
X18.80250Y10.50250
X18.80250Y14.00250
X18.80250Y14.40250
X18.80250Y21.20250
X18.80250Y21.60250
X18.90250Y1.90250
X18.90250Y2.00250
X18.90250Y3.70250
X18.90250Y3.80250
X18.90250Y10.10250
X18.90250Y10.50250
X18.90250Y12.80250
X18.90250Y13.20250
X18.90250Y14.00250
X18.90250Y14.40250
X18.90250Y16.70250
X18.90250Y17.10250
X19.00250Y5.40250
X19.00250Y5.80250
X19.00250Y20.00250
X19.00250Y20.40250
X19.00250Y21.20250
X19.00250Y21.60250
X19.10250Y20.00250
X19.10250Y20.40250
X19.10250Y21.20250
X19.10250Y21.60250
X19.20250Y0.50250
X19.20250Y0.60250
X19.20250Y10.10250
X19.20250Y10.50250
X19.20250Y12.80250
X19.20250Y13.20250
X19.20250Y14.00250
X19.20250Y14.40250
X19.20250Y16.70250
X19.20250Y17.10250
X19.30250Y1.90250
X19.30250Y2.00250
X19.30250Y3.70250
X19.30250Y3.80250
X19.30250Y7.10250
X19.30250Y7.50250
X19.30250Y12.80250
X19.30250Y13.20250
X19.30250Y16.70250
X19.30250Y17.10250
X19.30250Y20.10250
X19.30250Y20.50250
X19.40250Y7.10250
X19.40250Y7.50250
X19.40250Y11.60250
X19.40250Y12.00250
X19.40250Y12.80250
X19.40250Y13.10250
X19.40250Y15.50250
X19.40250Y15.90250
X19.40250Y16.70250
X19.40250Y17.00250
X19.50250Y1.00250
X19.50250Y1.40250
X19.50250Y1.70250
X19.50250Y3.50250
X19.50250Y10.20250
X19.50250Y10.50250
X19.50250Y11.20250
X19.50250Y11.60250
X19.50250Y11.60250
X19.50250Y12.00250
X19.50250Y12.80250
X19.50250Y13.10250
X19.50250Y14.10250
X19.50250Y14.40250
X19.50250Y15.10250
X19.50250Y15.50250
X19.50250Y15.50250
X19.50250Y15.90250
X19.50250Y16.70250
X19.50250Y17.00250
X19.60250Y1.00250
X19.60250Y1.40250
X19.60250Y6.50250
X19.60250Y6.90250
X19.60250Y7.70250
X19.60250Y8.10250
X19.60250Y10.20250
X19.60250Y10.50250
X19.60250Y11.20250
X19.60250Y11.60250
X19.60250Y14.10250
X19.60250Y14.40250
X19.60250Y15.10250
X19.60250Y15.50250
X19.60250Y19.90250
X19.70250Y1.80250
X19.70250Y1.90250
X19.70250Y3.60250
X19.70250Y3.70250
X19.70250Y6.50250
X19.70250Y6.90250
X19.70250Y10.10250
X19.70250Y10.50250
X19.70250Y14.00250
X19.70250Y14.40250
X19.80250Y0.60250
X19.80250Y1.70250
X19.80250Y2.00250
X19.80250Y2.40250
X19.80250Y3.50250
X19.80250Y3.80250
X19.80250Y4.20250
X19.80250Y5.40250
X19.80250Y5.80250
X19.80250Y10.10250
X19.80250Y10.50250
X19.80250Y12.80250
X19.80250Y13.20250
X19.80250Y14.00250
X19.80250Y14.40250
X19.80250Y16.70250
X19.80250Y17.10250
X19.80250Y19.70250
X19.80250Y19.80250
X19.90250Y2.00250
X19.90250Y2.40250
X19.90250Y3.80250
X19.90250Y4.20250
X19.90250Y5.40250
X19.90250Y5.80250
X19.90250Y19.90250
X19.90250Y21.20250
X19.90250Y21.60250
X19.90250Y26.00250
X19.90250Y26.40250
X19.90250Y28.40250
X19.90250Y28.80250
X19.90250Y30.80250
X19.90250Y31.20250
X19.90250Y33.20250
X19.90250Y33.60250
X20.00250Y1.70250
X20.00250Y2.00250
X20.00250Y2.30250
X20.00250Y2.40250
X20.00250Y2.80250
X20.00250Y3.50250
X20.00250Y3.80250
X20.00250Y4.10250
X20.00250Y4.20250
X20.00250Y4.60250
X20.00250Y19.90250
X20.00250Y21.20250
X20.00250Y21.60250
X20.00250Y26.00250
X20.00250Y26.40250
X20.00250Y28.40250
X20.00250Y28.80250
X20.00250Y30.80250
X20.00250Y31.20250
X20.00250Y33.20250
X20.00250Y33.60250
X20.10250Y1.80250
X20.10250Y1.90250
X20.10250Y2.40250
X20.10250Y2.80250
X20.10250Y3.60250
X20.10250Y3.70250
X20.10250Y4.20250
X20.10250Y4.60250
X20.10250Y7.10250
X20.10250Y7.50250
X20.10250Y10.10250
X20.10250Y10.50250
X20.10250Y12.80250
X20.10250Y13.20250
X20.10250Y14.00250
X20.10250Y14.40250
X20.10250Y16.70250
X20.10250Y17.10250
X20.10250Y19.70250
X20.10250Y19.80250
X20.10250Y20.10250
X20.10250Y20.50250
X20.10250Y25.20250
X20.10250Y25.30250
X20.10250Y27.60250
X20.10250Y27.70250
X20.10250Y30.00250
X20.10250Y30.10250
X20.10250Y32.40250
X20.10250Y32.50250
X20.20250Y0.60250
X20.20250Y1.80250
X20.20250Y2.10250
X20.20250Y2.40250
X20.20250Y2.80250
X20.20250Y3.60250
X20.20250Y3.90250
X20.20250Y4.20250
X20.20250Y4.60250
X20.20250Y5.40250
X20.20250Y5.80250
X20.20250Y7.10250
X20.20250Y7.50250
X20.20250Y12.80250
X20.20250Y13.20250
X20.20250Y16.70250
X20.20250Y17.10250
X20.20250Y20.10250
X20.20250Y20.50250
X20.30250Y1.70250
X20.30250Y3.50250
X20.30250Y11.60250
X20.30250Y12.00250
X20.30250Y12.80250
X20.30250Y13.10250
X20.30250Y15.50250
X20.30250Y15.90250
X20.30250Y16.70250
X20.30250Y17.00250
X20.30250Y19.90250
X20.40250Y0.90250
X20.40250Y1.30250
X20.40250Y1.90250
X20.40250Y3.70250
X20.40250Y10.20250
X20.40250Y10.50250
X20.40250Y11.20250
X20.40250Y11.60250
X20.40250Y11.60250
X20.40250Y12.00250
X20.40250Y12.80250
X20.40250Y13.10250
X20.40250Y14.10250
X20.40250Y14.40250
X20.40250Y15.10250
X20.40250Y15.50250
X20.40250Y15.50250
X20.40250Y15.90250
X20.40250Y16.70250
X20.40250Y17.00250
X20.40250Y25.90250
X20.40250Y26.30250
X20.40250Y28.30250
X20.40250Y28.70250
X20.40250Y30.70250
X20.40250Y31.10250
X20.40250Y33.10250
X20.40250Y33.50250
X20.50250Y10.20250
X20.50250Y10.50250
X20.50250Y11.20250
X20.50250Y11.60250
X20.50250Y14.10250
X20.50250Y14.40250
X20.50250Y15.10250
X20.50250Y15.50250
X20.50250Y20.10250
X20.50250Y20.50250
X20.50250Y25.20250
X20.50250Y25.30250
X20.50250Y27.60250
X20.50250Y27.70250
X20.50250Y30.00250
X20.50250Y30.10250
X20.50250Y32.40250
X20.50250Y32.50250
X20.60250Y1.00250
X20.60250Y1.40250
X20.60250Y10.10250
X20.60250Y10.50250
X20.60250Y14.00250
X20.60250Y14.40250
X20.69463Y3.80250
X20.70250Y1.00250
X20.70250Y1.40250
X20.70250Y10.10250
X20.70250Y10.50250
X20.70250Y12.80250
X20.70250Y13.20250
X20.70250Y14.00250
X20.70250Y14.40250
X20.70250Y16.70250
X20.70250Y17.10250
X20.70250Y20.00250
X20.70250Y20.40250
X20.70250Y20.60250
X20.70250Y20.90250
X20.80250Y1.90250
X20.80250Y2.00250
X20.80250Y3.70250
X20.80250Y20.00250
X20.80250Y20.40250
X20.80250Y20.60250
X20.80250Y20.90250
X20.80250Y25.20250
X20.80250Y25.30250
X20.80250Y26.00250
X20.80250Y26.40250
X20.80250Y27.60250
X20.80250Y27.70250
X20.80250Y28.40250
X20.80250Y28.80250
X20.80250Y30.00250
X20.80250Y30.10250
X20.80250Y30.80250
X20.80250Y31.20250
X20.80250Y32.40250
X20.80250Y32.50250
X20.80250Y33.20250
X20.80250Y33.60250
X20.90250Y0.50250
X20.90250Y7.10250
X20.90250Y7.50250
X20.90250Y21.20250
X20.90250Y21.60250
X20.90250Y26.00250
X20.90250Y26.40250
X20.90250Y28.40250
X20.90250Y28.80250
X20.90250Y30.80250
X20.90250Y31.20250
X20.90250Y33.20250
X20.90250Y33.60250
X21.00250Y5.60250
X21.00250Y5.70250
X21.00250Y6.50250
X21.00250Y6.90250
X21.00250Y7.10250
X21.00250Y7.50250
X21.00250Y10.10250
X21.00250Y10.50250
X21.00250Y12.80250
X21.00250Y13.20250
X21.00250Y14.00250
X21.00250Y14.40250
X21.00250Y16.70250
X21.00250Y17.10250
X21.09463Y3.80250
X21.10250Y2.40250
X21.10250Y2.80250
X21.10250Y4.20250
X21.10250Y4.60250
X21.10250Y6.50250
X21.10250Y6.90250
X21.10250Y12.80250
X21.10250Y13.20250
X21.10250Y16.70250
X21.10250Y17.10250
X21.10250Y20.00250
X21.10250Y20.40250
X21.10250Y21.20250
X21.10250Y21.60250
X21.20250Y2.00250
X21.20250Y2.40250
X21.20250Y2.80250
X21.20250Y4.20250
X21.20250Y4.60250
X21.20250Y11.60250
X21.20250Y12.00250
X21.20250Y12.80250
X21.20250Y13.10250
X21.20250Y15.50250
X21.20250Y15.90250
X21.20250Y16.70250
X21.20250Y17.00250
X21.20250Y20.00250
X21.20250Y20.40250
X21.20250Y21.20250
X21.20250Y21.60250
X21.20250Y25.20250
X21.20250Y25.30250
X21.20250Y27.60250
X21.20250Y27.70250
X21.20250Y30.00250
X21.20250Y30.10250
X21.20250Y32.40250
X21.20250Y32.50250
X21.30250Y0.50250
X21.30250Y11.60250
X21.30250Y12.00250
X21.30250Y12.80250
X21.30250Y13.10250
X21.30250Y15.50250
X21.30250Y15.90250
X21.30250Y16.70250
X21.30250Y17.00250
X21.30250Y25.90250
X21.30250Y26.30250
X21.30250Y28.30250
X21.30250Y28.70250
X21.30250Y30.70250
X21.30250Y31.10250
X21.30250Y33.10250
X21.30250Y33.50250
X21.40250Y1.90250
X21.40250Y2.00250
X21.40250Y3.70250
X21.40250Y3.80250
X21.40250Y5.60250
X21.40250Y5.70250
X21.40250Y20.10250
X21.40250Y20.50250
X21.50250Y6.20250
X21.50250Y6.60250
X21.70250Y7.10250
X21.70250Y7.50250
X21.70250Y25.20250
X21.70250Y25.30250
X21.70250Y26.00250
X21.70250Y26.40250
X21.70250Y27.60250
X21.70250Y27.70250
X21.70250Y28.40250
X21.70250Y28.80250
X21.70250Y30.00250
X21.70250Y30.10250
X21.70250Y30.80250
X21.70250Y31.20250
X21.70250Y32.40250
X21.70250Y32.50250
X21.70250Y33.20250
X21.70250Y33.60250
X21.80250Y1.90250
X21.80250Y2.00250
X21.80250Y3.70250
X21.80250Y3.80250
X21.80250Y7.10250
X21.80250Y7.50250
X21.80250Y26.00250
X21.80250Y26.40250
X21.80250Y28.40250
X21.80250Y28.80250
X21.80250Y30.80250
X21.80250Y31.20250
X21.80250Y33.20250
X21.80250Y33.60250
X21.90250Y19.60250
X21.90250Y19.70250
X22.00250Y21.20250
X22.00250Y21.60250
X22.10250Y21.20250
X22.10250Y21.60250
X22.10250Y25.20250
X22.10250Y25.30250
X22.10250Y27.60250
X22.10250Y27.70250
X22.10250Y30.00250
X22.10250Y30.10250
X22.10250Y32.40250
X22.10250Y32.50250
X22.20250Y19.60250
X22.20250Y19.70250
X22.20250Y20.10250
X22.20250Y20.50250
X22.20250Y25.90250
X22.20250Y26.30250
X22.20250Y28.30250
X22.20250Y28.70250
X22.20250Y30.70250
X22.20250Y31.10250
X22.20250Y33.10250
X22.20250Y33.50250
X22.30250Y20.10250
X22.30250Y20.50250
X22.40250Y25.20250
X22.40250Y25.30250
X22.40250Y27.60250
X22.40250Y27.70250
X22.40250Y30.00250
X22.40250Y30.10250
X22.40250Y32.40250
X22.40250Y32.50250
X22.60250Y10.80250
X22.60250Y11.20250
X22.60250Y12.50250
X22.60250Y12.90250
X22.60250Y14.00250
X22.60250Y14.40250
X22.60250Y14.70250
X22.60250Y15.10250
X22.60250Y16.40250
X22.60250Y16.80250
X22.60250Y20.10250
X22.60250Y20.50250
X22.60250Y26.00250
X22.60250Y26.40250
X22.60250Y28.40250
X22.60250Y28.80250
X22.60250Y30.80250
X22.60250Y31.20250
X22.60250Y33.20250
X22.60250Y33.60250
X22.70250Y10.80250
X22.70250Y11.20250
X22.70250Y14.00250
X22.70250Y14.40250
X22.70250Y14.70250
X22.70250Y15.10250
X22.70250Y26.00250
X22.70250Y26.40250
X22.70250Y28.40250
X22.70250Y28.80250
X22.70250Y30.80250
X22.70250Y31.20250
X22.70250Y33.20250
X22.70250Y33.60250
X22.80250Y12.00250
X22.80250Y12.30250
X22.80250Y13.00250
X22.80250Y13.10250
X22.80250Y15.90250
X22.80250Y16.20250
X22.80250Y16.90250
X22.80250Y17.00250
X22.80250Y25.20250
X22.80250Y25.30250
X22.80250Y27.60250
X22.80250Y27.70250
X22.80250Y30.00250
X22.80250Y30.10250
X22.80250Y32.40250
X22.80250Y32.50250
X22.90250Y3.10250
X22.90250Y3.40250
X22.90250Y3.50250
X22.90250Y3.80250
X23.00250Y3.40250
X23.00250Y3.80250
X23.00250Y17.90250
X23.00250Y18.00250
X23.10250Y1.90250
X23.10250Y2.30250
X23.10250Y3.30250
X23.10250Y5.10250
X23.10250Y5.50250
X23.10250Y10.90250
X23.10250Y11.30250
X23.10250Y14.80250
X23.10250Y15.20250
X23.10250Y25.90250
X23.10250Y26.30250
X23.10250Y28.30250
X23.10250Y28.70250
X23.10250Y30.70250
X23.10250Y31.10250
X23.10250Y33.10250
X23.10250Y33.50250
X23.20250Y1.00250
X23.20250Y1.40250
X23.20250Y4.20250
X23.20250Y4.60250
X23.20250Y10.90250
X23.20250Y11.30250
X23.20250Y12.00250
X23.20250Y12.30250
X23.20250Y13.00250
X23.20250Y13.10250
X23.20250Y14.80250
X23.20250Y15.20250
X23.20250Y15.90250
X23.20250Y16.20250
X23.20250Y16.90250
X23.20250Y17.00250
X23.30250Y1.00250
X23.30250Y1.40250
X23.30250Y4.20250
X23.30250Y4.60250
X23.40250Y10.80250
X23.40250Y11.20250
X23.40250Y14.70250
X23.40250Y15.10250
X23.40250Y17.90250
X23.40250Y18.00250
X23.50250Y1.60250
X23.50250Y2.00250
X23.50250Y3.30250
X23.50250Y4.80250
X23.50250Y5.20250
X23.50250Y10.80250
X23.50250Y11.20250
X23.50250Y14.70250
X23.50250Y15.10250
X23.60250Y1.60250
X23.60250Y2.00250
X23.60250Y4.80250
X23.60250Y5.20250
X24.70250Y1.70250
X24.70250Y2.10250
X24.80250Y1.40250
X24.80250Y1.80250
X24.90250Y1.00250
X24.90250Y1.40250
X24.90250Y2.10250
X24.90250Y2.50250
X25.00250Y2.60250
X25.00250Y3.00250
X25.00250Y3.40250
X25.00250Y3.50250
X25.00250Y3.80250
X25.00250Y4.20250
X25.00250Y6.10250
X25.00250Y6.50250
X25.00250Y6.60250
X25.00250Y7.00250
X25.10250Y0.60250
X25.10250Y1.00250
X25.10250Y1.10250
X25.10250Y1.50250
X25.10250Y2.40250
X25.10250Y2.80250
X25.10250Y3.80250
X25.10250Y4.20250
X25.10250Y6.50250
X25.10250Y6.90250
X25.40250Y3.40250
X25.40250Y3.50250
T002
X0.20250Y0.20250
X0.20250Y2.20250
X0.20250Y4.50250
X0.20250Y4.60250
X0.20250Y5.00250
X0.20250Y7.00250
X0.20250Y9.40250
X0.20250Y9.90250
X0.20250Y12.00250
X0.20250Y14.30250
X0.20250Y14.70250
X0.20250Y15.30250
X0.20250Y19.10250
X0.20250Y19.60250
X0.20250Y21.30250
X0.20250Y24.00250
X0.20250Y24.50250
X0.20250Y26.70250
X0.20250Y28.90250
X0.20250Y29.30250
X0.20250Y31.50250
X0.20250Y33.70250
X0.20250Y34.20250
X0.30250Y0.20250
X0.30250Y4.60250
X0.30250Y5.00250
X0.30250Y9.40250
X0.30250Y9.90250
X0.30250Y14.30250
X0.30250Y14.70250
X0.30250Y19.10250
X0.30250Y19.60250
X0.30250Y24.00250
X0.30250Y24.50250
X0.30250Y28.90250
X0.30250Y29.30250
X0.30250Y33.70250
X0.30250Y34.20250
X0.40250Y0.20250
X0.40250Y2.10250
X0.40250Y4.40250
X0.40250Y4.60250
X0.40250Y5.00250
X0.40250Y6.90250
X0.40250Y9.40250
X0.40250Y9.90250
X0.40250Y11.90250
X0.40250Y14.30250
X0.40250Y14.70250
X0.40250Y15.20250
X0.40250Y19.10250
X0.40250Y19.60250
X0.40250Y21.20250
X0.40250Y24.00250
X0.40250Y24.50250
X0.40250Y26.60250
X0.40250Y26.80250
X0.40250Y28.90250
X0.40250Y29.30250
X0.40250Y31.40250
X0.40250Y31.60250
X0.40250Y33.70250
X0.40250Y34.20250
X0.50250Y0.20250
X0.50250Y4.60250
X0.50250Y5.00250
X0.50250Y9.40250
X0.50250Y9.90250
X0.50250Y14.30250
X0.50250Y14.70250
X0.50250Y19.10250
X0.50250Y19.60250
X0.50250Y24.00250
X0.50250Y24.50250
X0.50250Y28.90250
X0.50250Y29.30250
X0.50250Y33.70250
X0.50250Y34.20250
X0.60250Y0.20250
X0.60250Y2.00250
X0.60250Y4.30250
X0.60250Y4.60250
X0.60250Y5.00250
X0.60250Y6.80250
X0.60250Y9.40250
X0.60250Y9.90250
X0.60250Y11.80250
X0.60250Y14.30250
X0.60250Y14.70250
X0.60250Y15.10250
X0.60250Y19.10250
X0.60250Y19.60250
X0.60250Y21.10250
X0.60250Y24.00250
X0.60250Y24.50250
X0.60250Y28.90250
X0.60250Y29.30250
X0.60250Y33.70250
X0.60250Y34.20250
X0.70250Y0.20250
X0.70250Y4.60250
X0.70250Y5.00250
X0.70250Y9.40250
X0.70250Y9.90250
X0.70250Y14.30250
X0.70250Y14.70250
X0.70250Y19.10250
X0.70250Y19.60250
X0.70250Y24.00250
X0.70250Y24.50250
X0.70250Y26.60250
X0.70250Y26.70250
X0.70250Y26.80250
X0.70250Y28.90250
X0.70250Y29.30250
X0.70250Y31.40250
X0.70250Y31.50250
X0.70250Y31.60250
X0.70250Y33.70250
X0.70250Y34.20250
X0.80250Y9.20250
X0.80250Y9.40250
X0.80250Y9.90250
X0.80250Y14.30250
X0.80250Y14.70250
X0.80250Y19.10250
X0.80250Y19.60250
X0.80250Y24.00250
X0.80250Y24.50250
X0.80250Y25.40250
X0.80250Y26.20250
X0.80250Y27.00250
X0.80250Y28.30250
X0.80250Y28.90250
X0.80250Y29.30250
X0.80250Y30.20250
X0.80250Y31.00250
X0.80250Y31.80250
X0.90250Y0.20250
X0.90250Y4.60250
X0.90250Y5.00250
X0.90250Y9.40250
X0.90250Y9.90250
X0.90250Y14.30250
X0.90250Y14.70250
X0.90250Y19.10250
X0.90250Y19.60250
X0.90250Y24.00250
X0.90250Y24.50250
X0.90250Y26.20250
X0.90250Y27.00250
X0.90250Y28.90250
X0.90250Y29.30250
X0.90250Y31.00250
X0.90250Y31.80250
X1.00250Y0.20250
X1.00250Y4.60250
X1.00250Y5.00250
X1.00250Y9.40250
X1.00250Y9.90250
X1.00250Y14.30250
X1.00250Y14.70250
X1.00250Y19.10250
X1.00250Y19.60250
X1.00250Y24.00250
X1.00250Y24.50250
X1.00250Y26.20250
X1.00250Y27.00250
X1.00250Y28.90250
X1.00250Y29.30250
X1.00250Y30.10250
X1.10250Y0.20250
X1.10250Y4.60250
X1.10250Y5.00250
X1.10250Y9.40250
X1.10250Y9.90250
X1.10250Y14.30250
X1.10250Y14.70250
X1.10250Y19.10250
X1.10250Y19.60250
X1.10250Y24.00250
X1.10250Y24.50250
X1.10250Y26.20250
X1.10250Y27.00250
X1.10250Y28.30250
X1.10250Y28.90250
X1.10250Y29.30250
X1.20250Y0.20250
X1.20250Y4.60250
X1.20250Y5.00250
X1.20250Y9.40250
X1.20250Y9.90250
X1.20250Y14.30250
X1.20250Y14.70250
X1.20250Y19.10250
X1.20250Y19.60250
X1.20250Y24.00250
X1.20250Y24.50250
X1.20250Y25.40250
X1.20250Y30.10250
X1.20250Y30.20250
X1.30250Y0.20250
X1.30250Y4.00250
X1.30250Y4.60250
X1.30250Y5.00250
X1.30250Y9.40250
X1.30250Y9.90250
X1.30250Y14.30250
X1.30250Y14.70250
X1.30250Y19.10250
X1.30250Y19.60250
X1.30250Y24.00250
X1.30250Y24.50250
X1.40250Y0.20250
X1.40250Y4.20250
X1.40250Y4.60250
X1.40250Y5.00250
X1.40250Y7.10250
X1.40250Y9.40250
X1.40250Y9.90250
X1.40250Y14.30250
X1.40250Y14.70250
X1.40250Y17.70250
X1.40250Y19.10250
X1.40250Y19.60250
X1.40250Y19.70250
X1.40250Y24.00250
X1.40250Y24.50250
X1.50250Y0.20250
X1.50250Y4.60250
X1.50250Y5.00250
X1.50250Y6.60250
X1.50250Y9.40250
X1.50250Y9.90250
X1.50250Y14.30250
X1.50250Y14.70250
X1.50250Y19.10250
X1.50250Y19.60250
X1.50250Y24.00250
X1.50250Y24.50250
X1.60250Y0.20250
X1.60250Y1.70250
X1.60250Y1.90250
X1.60250Y4.60250
X1.60250Y5.00250
X1.60250Y9.40250
X1.60250Y9.90250
X1.60250Y14.30250
X1.60250Y14.70250
X1.60250Y19.10250
X1.60250Y19.60250
X1.70250Y0.20250
X1.70250Y1.70250
X1.70250Y1.90250
X1.70250Y3.90250
X1.70250Y4.60250
X1.70250Y5.00250
X1.70250Y6.70250
X1.70250Y9.20250
X1.70250Y11.80250
X1.70250Y11.90250
X1.70250Y12.00250
X1.70250Y15.10250
X1.70250Y15.20250
X1.70250Y15.30250
X1.70250Y17.70250
X1.70250Y19.70250
X1.70250Y21.10250
X1.70250Y21.20250
X1.70250Y21.30250
X1.70250Y26.40250
X1.70250Y27.00250
X1.70250Y31.20250
X1.70250Y31.80250
X1.80250Y4.60250
X1.80250Y5.00250
X1.80250Y9.10250
X1.80250Y9.40250
X1.90250Y2.00250
X1.90250Y2.10250
X1.90250Y2.20250
X1.90250Y3.90250
X1.90250Y4.00250
X1.90250Y4.20250
X1.90250Y4.30250
X1.90250Y4.40250
X1.90250Y4.50250
X1.90250Y6.60250
X1.90250Y6.70250
X1.90250Y6.80250
X1.90250Y6.90250
X1.90250Y7.00250
X1.90250Y7.10250
X2.00250Y28.30250
X2.00250Y28.50250
X2.00250Y31.60250
X2.00250Y31.80250
X2.20250Y1.80250
X2.20250Y1.90250
X2.20250Y2.00250
X2.20250Y2.10250
X2.20250Y2.20250
X2.20250Y3.90250
X2.20250Y4.00250
X2.20250Y4.20250
X2.20250Y4.30250
X2.20250Y4.40250
X2.20250Y4.50250
X2.20250Y6.60250
X2.20250Y6.70250
X2.20250Y6.80250
X2.20250Y6.90250
X2.20250Y7.00250
X2.20250Y7.10250
X2.20250Y9.20250
X2.20250Y9.30250
X2.20250Y9.40250
X2.20250Y11.80250
X2.20250Y11.90250
X2.20250Y12.00250
X2.20250Y15.10250
X2.20250Y15.20250
X2.20250Y15.30250
X2.20250Y17.70250
X2.20250Y17.80250
X2.20250Y19.70250
X2.20250Y19.80250
X2.20250Y21.10250
X2.20250Y21.20250
X2.20250Y21.30250
X2.20250Y23.80250
X2.20250Y23.90250
X2.20250Y24.50250
X2.20250Y24.60250
X2.20250Y25.00250
X2.20250Y25.10250
X2.20250Y26.50250
X2.20250Y26.60250
X2.20250Y26.70250
X2.20250Y26.80250
X2.20250Y26.90250
X2.20250Y28.30250
X2.20250Y28.40250
X2.20250Y29.80250
X2.20250Y29.90250
X2.20250Y31.30250
X2.20250Y31.40250
X2.20250Y31.50250
X2.20250Y31.60250
X2.20250Y31.70250
X2.20250Y33.10250
X2.20250Y33.20250
X2.70250Y1.80250
X2.70250Y1.90250
X2.70250Y2.00250
X2.70250Y2.10250
X2.70250Y2.20250
X2.70250Y3.90250
X2.70250Y4.00250
X2.70250Y4.20250
X2.70250Y4.30250
X2.70250Y4.40250
X2.70250Y4.50250
X2.70250Y6.60250
X2.70250Y6.70250
X2.70250Y6.80250
X2.70250Y6.90250
X2.70250Y7.00250
X2.70250Y7.10250
X2.70250Y9.20250
X2.70250Y9.30250
X2.70250Y9.40250
X2.70250Y11.80250
X2.70250Y11.90250
X2.70250Y12.00250
X2.70250Y15.10250
X2.70250Y15.20250
X2.70250Y15.30250
X2.70250Y17.70250
X2.70250Y17.80250
X2.70250Y19.70250
X2.70250Y19.80250
X2.70250Y21.10250
X2.70250Y21.20250
X2.70250Y21.30250
X2.70250Y23.80250
X2.70250Y23.90250
X2.70250Y24.50250
X2.70250Y24.60250
X2.70250Y25.00250
X2.70250Y25.10250
X2.70250Y26.50250
X2.70250Y26.60250
X2.70250Y26.70250
X2.70250Y26.80250
X2.70250Y26.90250
X2.70250Y28.30250
X2.70250Y28.40250
X2.70250Y29.80250
X2.70250Y29.90250
X2.70250Y31.30250
X2.70250Y31.40250
X2.70250Y31.50250
X2.70250Y31.60250
X2.70250Y31.70250
X2.70250Y33.10250
X2.70250Y33.20250
X2.80250Y1.80250
X2.80250Y1.90250
X2.80250Y2.00250
X2.80250Y2.10250
X2.80250Y2.20250
X2.80250Y3.90250
X2.80250Y4.00250
X2.80250Y4.20250
X2.80250Y4.30250
X2.80250Y4.40250
X2.80250Y4.50250
X2.80250Y6.60250
X2.80250Y6.70250
X2.80250Y6.80250
X2.80250Y6.90250
X2.80250Y7.00250
X2.80250Y7.10250
X2.80250Y9.20250
X2.80250Y9.30250
X2.80250Y9.40250
X2.80250Y11.80250
X2.80250Y11.90250
X2.80250Y12.00250
X2.80250Y19.60250
X2.80250Y19.90250
X2.80250Y21.00250
X2.80250Y21.40250
X2.80250Y27.00250
X2.80250Y29.40250
X2.80250Y31.80250
X2.90250Y13.20250
X2.90250Y15.10250
X2.90250Y15.20250
X2.90250Y15.30250
X2.90250Y17.70250
X2.90250Y21.00250
X2.90250Y21.40250
X2.90250Y28.70250
X2.90250Y31.10250
X2.90250Y33.50250
X3.00250Y19.60250
X3.00250Y19.70250
X3.00250Y19.80250
X3.00250Y19.90250
X3.00250Y21.10250
X3.00250Y21.20250
X3.00250Y21.30250
X3.00250Y23.60250
X3.00250Y23.70250
X3.00250Y23.80250
X3.00250Y28.80250
X3.00250Y31.20250
X3.00250Y33.60250
X3.10250Y17.90250
X3.10250Y24.70250
X3.10250Y26.30250
X3.10250Y26.40250
X3.10250Y26.50250
X3.10250Y28.90250
X3.10250Y31.30250
X3.20250Y24.80250
X3.20250Y27.10250
X3.20250Y29.50250
X3.20250Y33.50250
X3.30250Y1.80250
X3.30250Y1.90250
X3.30250Y2.00250
X3.30250Y2.10250
X3.30250Y2.20250
X3.30250Y3.90250
X3.30250Y4.00250
X3.30250Y4.20250
X3.30250Y4.30250
X3.30250Y4.40250
X3.30250Y4.50250
X3.30250Y6.60250
X3.30250Y6.70250
X3.30250Y6.80250
X3.30250Y6.90250
X3.30250Y7.00250
X3.30250Y7.10250
X3.30250Y9.20250
X3.30250Y9.30250
X3.30250Y9.40250
X3.30250Y31.80250
X3.30250Y33.60250
X3.40250Y24.70250
X3.40250Y24.80250
X3.40250Y26.30250
X3.40250Y26.40250
X3.40250Y26.50250
X3.40250Y27.00250
X3.40250Y27.10250
X3.40250Y28.70250
X3.40250Y28.80250
X3.40250Y28.90250
X3.40250Y29.40250
X3.40250Y29.50250
X3.40250Y31.10250
X3.40250Y31.20250
X3.40250Y31.30250
X3.50250Y19.60250
X3.50250Y19.70250
X3.50250Y19.80250
X3.50250Y19.90250
X3.50250Y21.10250
X3.50250Y21.20250
X3.50250Y21.30250
X3.50250Y23.60250
X3.50250Y23.70250
X3.50250Y23.80250
X3.50250Y24.50250
X3.50250Y24.60250
X3.50250Y24.70250
X3.50250Y26.30250
X3.50250Y26.40250
X3.50250Y26.50250
X3.50250Y26.90250
X3.50250Y27.00250
X3.50250Y27.10250
X3.50250Y28.70250
X3.50250Y28.80250
X3.50250Y28.90250
X3.50250Y29.30250
X3.50250Y29.40250
X3.50250Y29.50250
X3.50250Y31.10250
X3.50250Y31.20250
X3.50250Y31.30250
X3.50250Y31.70250
X3.50250Y31.80250
X3.50250Y31.90250
X3.50250Y33.50250
X3.50250Y33.60250
X3.50250Y33.70250
X3.70250Y21.00250
X3.70250Y21.40250
X3.80250Y11.80250
X3.80250Y11.90250
X3.80250Y12.00250
X3.80250Y13.20250
X3.80250Y15.10250
X3.80250Y15.20250
X3.80250Y15.30250
X3.80250Y17.70250
X3.80250Y17.90250
X3.80250Y21.00250
X3.80250Y21.40250
X3.90250Y10.10250
X3.90250Y10.20250
X3.90250Y10.30250
X3.90250Y10.40250
X3.90250Y10.50250
X3.90250Y10.60250
X3.90250Y10.70250
X3.90250Y10.80250
X3.90250Y10.90250
X3.90250Y11.80250
X3.90250Y11.90250
X3.90250Y12.00250
X3.90250Y13.10250
X3.90250Y13.20250
X3.90250Y15.10250
X3.90250Y15.20250
X3.90250Y15.30250
X3.90250Y17.70250
X3.90250Y17.90250
X3.90250Y18.10250
X3.90250Y18.20250
X3.90250Y18.30250
X3.90250Y18.50250
X3.90250Y18.60250
X3.90250Y18.70250
X3.90250Y19.10250
X4.00250Y2.30250
X4.00250Y2.50250
X4.00250Y6.60250
X4.00250Y6.70250
X4.00250Y7.20250
X4.00250Y8.20250
X4.00250Y24.50250
X4.00250Y24.60250
X4.00250Y24.70250
X4.00250Y26.30250
X4.00250Y26.40250
X4.00250Y26.50250
X4.00250Y26.90250
X4.00250Y27.00250
X4.00250Y27.10250
X4.00250Y28.70250
X4.00250Y28.80250
X4.00250Y28.90250
X4.00250Y29.30250
X4.00250Y29.40250
X4.00250Y29.50250
X4.00250Y31.10250
X4.00250Y31.20250
X4.00250Y31.30250
X4.00250Y31.70250
X4.00250Y31.80250
X4.00250Y31.90250
X4.00250Y33.50250
X4.00250Y33.60250
X4.00250Y33.70250
X4.10250Y21.00250
X4.10250Y21.60250
X4.20250Y1.90250
X4.20250Y2.30250
X4.20250Y6.70250
X4.30250Y6.80250
X4.30250Y6.90250
X4.30250Y8.20250
X4.30250Y26.20250
X4.30250Y28.60250
X4.30250Y31.00250
X4.30250Y33.40250
X4.40250Y10.10250
X4.40250Y10.20250
X4.40250Y10.30250
X4.40250Y10.40250
X4.40250Y10.50250
X4.40250Y10.60250
X4.40250Y10.70250
X4.40250Y10.80250
X4.40250Y10.90250
X4.40250Y11.80250
X4.40250Y11.90250
X4.40250Y12.00250
X4.40250Y13.10250
X4.40250Y13.20250
X4.40250Y15.10250
X4.40250Y15.20250
X4.40250Y15.30250
X4.40250Y17.70250
X4.40250Y17.90250
X4.40250Y18.10250
X4.40250Y18.20250
X4.40250Y18.30250
X4.40250Y18.50250
X4.40250Y18.60250
X4.40250Y18.70250
X4.40250Y19.10250
X4.40250Y20.90250
X4.40250Y26.30250
X4.40250Y26.50250
X4.40250Y28.70250
X4.40250Y28.90250
X4.40250Y31.10250
X4.40250Y31.30250
X4.40250Y33.50250
X4.40250Y33.70250
X4.50250Y6.60250
X4.50250Y6.70250
X4.50250Y6.80250
X4.50250Y6.90250
X4.50250Y15.00250
X4.50250Y15.40250
X4.50250Y15.70250
X4.50250Y26.30250
X4.50250Y28.70250
X4.50250Y31.10250
X4.50250Y33.50250
X4.60250Y6.90250
X4.60250Y7.10250
X4.60250Y17.60250
X4.60250Y18.40250
X4.60250Y21.00250
X4.60250Y26.40250
X4.60250Y26.50250
X4.60250Y28.80250
X4.60250Y28.90250
X4.60250Y31.20250
X4.60250Y31.30250
X4.60250Y33.60250
X4.60250Y33.70250
X4.70250Y2.10250
X4.70250Y2.30250
X4.70250Y6.60250
X4.70250Y7.20250
X4.70250Y7.30250
X4.70250Y15.20250
X4.70250Y15.40250
X4.70250Y17.60250
X4.70250Y18.50250
X4.70250Y21.10250
X4.70250Y21.20250
X4.80250Y1.80250
X4.80250Y2.60250
X4.80250Y11.90250
X4.80250Y12.10250
X4.80250Y17.60250
X4.80250Y18.60250
X4.80250Y26.20250
X4.80250Y26.30250
X4.80250Y26.40250
X4.80250Y26.50250
X4.80250Y28.60250
X4.80250Y28.70250
X4.80250Y28.80250
X4.80250Y28.90250
X4.80250Y31.00250
X4.80250Y31.10250
X4.80250Y31.20250
X4.80250Y31.30250
X4.80250Y33.40250
X4.80250Y33.50250
X4.80250Y33.60250
X4.80250Y33.70250
X4.90250Y0.90250
X4.90250Y1.10250
X4.90250Y1.80250
X4.90250Y2.60250
X4.90250Y3.20250
X4.90250Y3.40250
X4.90250Y6.80250
X4.90250Y7.20250
X4.90250Y11.80250
X4.90250Y12.10250
X4.90250Y20.90250
X4.90250Y21.00250
X4.90250Y21.10250
X4.90250Y21.20250
X5.00250Y2.00250
X5.00250Y2.40250
X5.00250Y12.20250
X5.00250Y15.70250
X5.00250Y20.90250
X5.00250Y21.70250
X5.10250Y2.50250
X5.10250Y7.30250
X5.10250Y15.00250
X5.10250Y15.20250
X5.10250Y21.40250
X5.10250Y21.50250
X5.10250Y21.60250
X5.10250Y21.70250
X5.10250Y24.70250
X5.10250Y25.00250
X5.10250Y27.10250
X5.10250Y27.40250
X5.10250Y29.50250
X5.10250Y29.80250
X5.10250Y31.90250
X5.10250Y32.20250
X5.20250Y11.60250
X5.20250Y15.00250
X5.20250Y26.20250
X5.20250Y28.60250
X5.20250Y31.00250
X5.20250Y33.40250
X5.30250Y1.00250
X5.30250Y2.50250
X5.30250Y11.70250
X5.30250Y12.00250
X5.30250Y21.40250
X5.30250Y21.50250
X5.40250Y11.70250
X5.40250Y21.60250
X5.40250Y26.30250
X5.40250Y28.70250
X5.40250Y31.10250
X5.40250Y33.50250
X5.50250Y1.00250
X5.50250Y2.10250
X5.50250Y2.40250
X5.50250Y11.80250
X5.50250Y11.90250
X5.50250Y15.00250
X5.50250Y21.10250
X5.50250Y21.50250
X5.50250Y26.40250
X5.50250Y26.50250
X5.50250Y28.80250
X5.50250Y28.90250
X5.50250Y31.20250
X5.50250Y31.30250
X5.50250Y33.60250
X5.50250Y33.70250
X5.60250Y6.80250
X5.60250Y6.90250
X5.60250Y14.80250
X5.60250Y15.70250
X5.60250Y21.20250
X5.60250Y21.40250
X5.60250Y21.70250
X5.70250Y11.60250
X5.70250Y11.70250
X5.70250Y11.80250
X5.70250Y11.90250
X5.70250Y15.40250
X5.70250Y15.50250
X5.70250Y15.60250
X5.70250Y15.70250
X5.70250Y26.20250
X5.70250Y26.30250
X5.70250Y26.40250
X5.70250Y26.50250
X5.70250Y28.60250
X5.70250Y28.70250
X5.70250Y28.80250
X5.70250Y28.90250
X5.70250Y31.00250
X5.70250Y31.10250
X5.70250Y31.20250
X5.70250Y31.30250
X5.70250Y33.40250
X5.70250Y33.50250
X5.70250Y33.60250
X5.70250Y33.70250
X5.80250Y6.80250
X5.80250Y6.90250
X5.80250Y12.50250
X5.80250Y12.70250
X5.80250Y24.70250
X5.80250Y24.90250
X5.80250Y27.10250
X5.80250Y27.30250
X5.80250Y29.50250
X5.80250Y29.70250
X5.80250Y31.90250
X5.80250Y32.10250
X5.90250Y12.60250
X5.90250Y15.40250
X5.90250Y15.50250
X5.90250Y24.70250
X5.90250Y24.90250
X5.90250Y27.10250
X5.90250Y27.30250
X5.90250Y29.50250
X5.90250Y29.70250
X5.90250Y31.90250
X5.90250Y32.10250
X6.00250Y12.20250
X6.00250Y12.50250
X6.00250Y15.10250
X6.00250Y15.50250
X6.00250Y15.60250
X6.00250Y19.60250
X6.00250Y19.70250
X6.00250Y21.10250
X6.00250Y21.20250
X6.00250Y21.30250
X6.00250Y23.60250
X6.00250Y23.70250
X6.00250Y23.80250
X6.10250Y11.60250
X6.10250Y15.00250
X6.10250Y15.60250
X6.10250Y26.20250
X6.10250Y28.60250
X6.10250Y31.00250
X6.10250Y33.40250
X6.20250Y1.80250
X6.20250Y1.90250
X6.20250Y2.00250
X6.20250Y2.10250
X6.20250Y2.20250
X6.20250Y4.10250
X6.20250Y4.20250
X6.20250Y4.30250
X6.20250Y4.40250
X6.20250Y4.50250
X6.20250Y6.70250
X6.20250Y6.80250
X6.20250Y6.90250
X6.20250Y7.00250
X6.20250Y9.20250
X6.20250Y9.30250
X6.20250Y9.40250
X6.20250Y15.70250
X6.30250Y26.30250
X6.30250Y28.70250
X6.30250Y31.10250
X6.30250Y33.50250
X6.40250Y11.80250
X6.40250Y11.90250
X6.40250Y26.40250
X6.40250Y26.50250
X6.40250Y28.80250
X6.40250Y28.90250
X6.40250Y31.20250
X6.40250Y31.30250
X6.40250Y33.60250
X6.40250Y33.70250
X6.50250Y19.60250
X6.50250Y19.70250
X6.50250Y21.10250
X6.50250Y21.20250
X6.50250Y21.30250
X6.50250Y23.60250
X6.50250Y23.70250
X6.50250Y23.80250
X6.60250Y11.60250
X6.60250Y11.80250
X6.60250Y11.90250
X6.60250Y15.00250
X6.60250Y15.40250
X6.60250Y21.00250
X6.60250Y21.40250
X6.60250Y23.50250
X6.60250Y23.80250
X6.60250Y26.20250
X6.60250Y26.30250
X6.60250Y26.40250
X6.60250Y26.50250
X6.60250Y28.60250
X6.60250Y28.70250
X6.60250Y28.80250
X6.60250Y28.90250
X6.60250Y31.00250
X6.60250Y31.10250
X6.60250Y31.20250
X6.60250Y31.30250
X6.60250Y33.40250
X6.60250Y33.50250
X6.60250Y33.60250
X6.60250Y33.70250
X6.70250Y1.80250
X6.70250Y1.90250
X6.70250Y2.00250
X6.70250Y2.10250
X6.70250Y2.20250
X6.70250Y4.20250
X6.70250Y4.30250
X6.70250Y4.40250
X6.70250Y4.50250
X6.70250Y6.70250
X6.70250Y6.80250
X6.70250Y6.90250
X6.70250Y7.00250
X6.70250Y9.20250
X6.70250Y9.30250
X6.70250Y9.40250
X6.70250Y15.00250
X6.70250Y15.40250
X6.70250Y19.70250
X6.70250Y20.00250
X6.70250Y21.00250
X6.70250Y21.40250
X6.70250Y23.50250
X6.70250Y23.80250
X6.80250Y5.00250
X6.80250Y9.10250
X6.80250Y10.10250
X6.80250Y10.20250
X6.80250Y11.80250
X6.80250Y11.90250
X6.80250Y12.00250
X6.80250Y13.10250
X6.80250Y13.20250
X6.80250Y15.10250
X6.80250Y15.20250
X6.80250Y15.30250
X6.80250Y17.50250
X6.80250Y17.60250
X6.80250Y17.70250
X6.80250Y17.90250
X6.80250Y18.10250
X6.80250Y18.20250
X6.80250Y18.30250
X6.80250Y18.40250
X6.80250Y18.50250
X6.80250Y18.60250
X6.80250Y18.70250
X6.80250Y19.10250
X6.80250Y21.60250
X6.90250Y1.90250
X6.90250Y2.30250
X6.90250Y4.10250
X6.90250Y4.60250
X6.90250Y6.70250
X6.90250Y7.10250
X6.90250Y21.50250
X6.90250Y24.80250
X6.90250Y25.00250
X6.90250Y27.20250
X6.90250Y27.40250
X6.90250Y29.60250
X6.90250Y29.80250
X6.90250Y32.00250
X6.90250Y32.20250
X7.00250Y4.10250
X7.00250Y4.60250
X7.00250Y6.70250
X7.00250Y7.10250
X7.00250Y7.30250
X7.00250Y9.10250
X7.00250Y26.20250
X7.00250Y28.60250
X7.00250Y31.00250
X7.00250Y33.40250
X7.10250Y2.40250
X7.10250Y5.00250
X7.10250Y6.70250
X7.10250Y7.10250
X7.10250Y7.40250
X7.10250Y21.50250
X7.10250Y21.60250
X7.20250Y19.60250
X7.20250Y19.70250
X7.20250Y19.80250
X7.20250Y21.40250
X7.20250Y21.50250
X7.20250Y21.60250
X7.20250Y22.10250
X7.20250Y22.20250
X7.20250Y22.30250
X7.20250Y23.60250
X7.20250Y23.70250
X7.20250Y23.80250
X7.20250Y24.80250
X7.20250Y25.10250
X7.20250Y27.20250
X7.20250Y27.50250
X7.20250Y29.60250
X7.20250Y29.90250
X7.20250Y32.00250
X7.20250Y32.30250
X7.30250Y2.00250
X7.30250Y2.30250
X7.30250Y6.80250
X7.30250Y7.10250
X7.30250Y10.10250
X7.30250Y10.20250
X7.30250Y11.80250
X7.30250Y11.90250
X7.30250Y12.00250
X7.30250Y13.10250
X7.30250Y13.20250
X7.30250Y15.10250
X7.30250Y15.20250
X7.30250Y15.30250
X7.30250Y17.50250
X7.30250Y17.60250
X7.30250Y17.70250
X7.30250Y17.90250
X7.30250Y18.10250
X7.30250Y18.20250
X7.30250Y18.30250
X7.30250Y18.40250
X7.30250Y18.50250
X7.30250Y18.60250
X7.30250Y18.70250
X7.30250Y19.10250
X7.30250Y26.40250
X7.30250Y26.50250
X7.30250Y28.80250
X7.30250Y28.90250
X7.30250Y31.20250
X7.30250Y31.30250
X7.30250Y33.60250
X7.30250Y33.70250
X7.40250Y2.40250
X7.40250Y7.30250
X7.40250Y11.80250
X7.40250Y11.90250
X7.40250Y12.00250
X7.40250Y13.20250
X7.40250Y15.10250
X7.40250Y15.20250
X7.40250Y15.30250
X7.50250Y26.20250
X7.50250Y26.40250
X7.50250Y26.50250
X7.50250Y28.60250
X7.50250Y28.80250
X7.50250Y28.90250
X7.50250Y31.00250
X7.50250Y31.20250
X7.50250Y31.30250
X7.50250Y33.40250
X7.50250Y33.60250
X7.50250Y33.70250
X7.60250Y1.80250
X7.60250Y1.90250
X7.60250Y2.50250
X7.60250Y6.60250
X7.60250Y6.70250
X7.60250Y7.30250
X7.60250Y7.40250
X7.60250Y17.30250
X7.60250Y17.80250
X7.70250Y17.30250
X7.70250Y17.90250
X7.70250Y19.60250
X7.70250Y19.70250
X7.70250Y19.80250
X7.70250Y21.40250
X7.70250Y21.50250
X7.70250Y21.60250
X7.70250Y22.10250
X7.70250Y22.20250
X7.70250Y22.30250
X7.70250Y23.60250
X7.70250Y23.70250
X7.70250Y23.80250
X7.80250Y1.90250
X7.80250Y2.10250
X7.80250Y17.30250
X7.80250Y18.10250
X7.90250Y2.00250
X7.90250Y2.10250
X7.90250Y6.80250
X7.90250Y6.90250
X7.90250Y17.30250
X7.90250Y18.20250
X7.90250Y26.20250
X7.90250Y28.60250
X7.90250Y31.00250
X7.90250Y33.40250
X8.00250Y8.70250
X8.00250Y17.30250
X8.00250Y18.30250
X8.00250Y21.30250
X8.10250Y1.80250
X8.10250Y2.00250
X8.10250Y2.10250
X8.10250Y6.60250
X8.10250Y6.80250
X8.10250Y6.90250
X8.10250Y17.30250
X8.10250Y18.80250
X8.10250Y21.40250
X8.10250Y21.60250
X8.10250Y26.30250
X8.10250Y28.70250
X8.10250Y31.10250
X8.10250Y33.50250
X8.20250Y2.10250
X8.20250Y2.30250
X8.20250Y4.10250
X8.20250Y4.60250
X8.20250Y4.90250
X8.20250Y5.20250
X8.20250Y6.90250
X8.20250Y7.10250
X8.20250Y11.80250
X8.20250Y11.90250
X8.20250Y12.00250
X8.20250Y13.20250
X8.20250Y17.40250
X8.20250Y17.50250
X8.20250Y17.60250
X8.20250Y17.70250
X8.20250Y17.80250
X8.20250Y21.40250
X8.20250Y26.40250
X8.20250Y26.50250
X8.20250Y28.80250
X8.20250Y28.90250
X8.20250Y31.20250
X8.20250Y31.30250
X8.20250Y33.60250
X8.20250Y33.70250
X8.30250Y4.20250
X8.30250Y4.60250
X8.30250Y4.90250
X8.30250Y5.30250
X8.30250Y6.70250
X8.30250Y7.10250
X8.30250Y8.70250
X8.30250Y17.90250
X8.30250Y21.50250
X8.30250Y21.60250
X8.40250Y18.00250
X8.40250Y18.90250
X8.40250Y24.80250
X8.40250Y25.00250
X8.40250Y26.20250
X8.40250Y26.30250
X8.40250Y26.40250
X8.40250Y26.50250
X8.40250Y27.20250
X8.40250Y27.40250
X8.40250Y28.60250
X8.40250Y28.70250
X8.40250Y28.80250
X8.40250Y28.90250
X8.40250Y29.60250
X8.40250Y29.80250
X8.40250Y31.00250
X8.40250Y31.10250
X8.40250Y31.20250
X8.40250Y31.30250
X8.40250Y32.00250
X8.40250Y32.20250
X8.40250Y33.40250
X8.40250Y33.50250
X8.40250Y33.60250
X8.40250Y33.70250
X8.50250Y0.20250
X8.50250Y0.30250
X8.50250Y0.40250
X8.50250Y2.00250
X8.50250Y2.10250
X8.50250Y2.20250
X8.50250Y4.30250
X8.50250Y4.40250
X8.50250Y4.50250
X8.50250Y5.00250
X8.50250Y5.10250
X8.50250Y5.20250
X8.50250Y6.80250
X8.50250Y6.90250
X8.50250Y7.00250
X8.50250Y8.50250
X8.50250Y8.60250
X8.50250Y8.70250
X8.50250Y8.80250
X8.50250Y8.90250
X8.50250Y9.00250
X8.50250Y9.10250
X8.50250Y9.20250
X8.50250Y9.30250
X8.50250Y9.40250
X8.50250Y21.30250
X8.50250Y21.40250
X8.50250Y21.50250
X8.50250Y21.60250
X8.60250Y15.10250
X8.60250Y15.20250
X8.60250Y15.30250
X8.60250Y17.40250
X8.60250Y17.50250
X8.60250Y17.60250
X8.60250Y17.70250
X8.60250Y17.80250
X8.60250Y17.90250
X8.70250Y10.30250
X8.70250Y10.40250
X8.70250Y10.50250
X8.70250Y10.60250
X8.70250Y10.70250
X8.70250Y10.80250
X8.70250Y11.80250
X8.70250Y11.90250
X8.70250Y12.00250
X8.70250Y13.10250
X8.70250Y13.20250
X8.70250Y13.70250
X8.70250Y13.80250
X8.70250Y13.90250
X8.70250Y15.10250
X8.70250Y15.20250
X8.70250Y15.30250
X8.70250Y17.40250
X8.70250Y17.50250
X8.70250Y17.60250
X8.70250Y17.70250
X8.70250Y17.80250
X8.70250Y17.90250
X8.70250Y18.00250
X8.70250Y18.10250
X8.70250Y18.20250
X8.70250Y18.30250
X8.70250Y18.40250
X8.70250Y18.50250
X8.70250Y18.60250
X8.70250Y18.70250
X8.70250Y18.80250
X8.70250Y18.90250
X8.70250Y19.10250
X8.70250Y24.70250
X8.70250Y25.00250
X8.70250Y27.10250
X8.70250Y27.40250
X8.70250Y29.50250
X8.70250Y29.80250
X8.70250Y31.90250
X8.70250Y32.20250
X8.80250Y19.80250
X8.80250Y20.10250
X8.80250Y26.20250
X8.80250Y28.60250
X8.80250Y31.00250
X8.80250Y33.40250
X8.90250Y21.30250
X9.00250Y0.20250
X9.00250Y0.30250
X9.00250Y0.40250
X9.00250Y2.00250
X9.00250Y2.10250
X9.00250Y2.20250
X9.00250Y4.30250
X9.00250Y4.40250
X9.00250Y4.50250
X9.00250Y5.00250
X9.00250Y5.10250
X9.00250Y5.20250
X9.00250Y6.80250
X9.00250Y6.90250
X9.00250Y7.00250
X9.00250Y8.50250
X9.00250Y8.60250
X9.00250Y8.70250
X9.00250Y8.80250
X9.00250Y8.90250
X9.00250Y9.00250
X9.00250Y9.10250
X9.00250Y9.20250
X9.00250Y9.30250
X9.00250Y9.40250
X9.10250Y21.40250
X9.10250Y26.30250
X9.10250Y26.50250
X9.10250Y28.70250
X9.10250Y28.90250
X9.10250Y31.10250
X9.10250Y31.30250
X9.10250Y33.50250
X9.10250Y33.70250
X9.20250Y10.30250
X9.20250Y10.40250
X9.20250Y10.50250
X9.20250Y10.60250
X9.20250Y10.70250
X9.20250Y10.80250
X9.20250Y11.80250
X9.20250Y11.90250
X9.20250Y12.00250
X9.20250Y13.10250
X9.20250Y13.20250
X9.20250Y13.70250
X9.20250Y13.80250
X9.20250Y13.90250
X9.20250Y15.10250
X9.20250Y15.20250
X9.20250Y15.30250
X9.20250Y17.40250
X9.20250Y17.50250
X9.20250Y17.60250
X9.20250Y17.70250
X9.20250Y17.80250
X9.20250Y17.90250
X9.20250Y18.00250
X9.20250Y18.10250
X9.20250Y18.20250
X9.20250Y18.30250
X9.20250Y18.40250
X9.20250Y18.50250
X9.20250Y18.60250
X9.20250Y18.70250
X9.20250Y18.80250
X9.20250Y18.90250
X9.20250Y19.10250
X9.20250Y21.50250
X9.20250Y21.60250
X9.30250Y1.90250
X9.30250Y6.70250
X9.30250Y26.20250
X9.30250Y26.30250
X9.30250Y26.50250
X9.30250Y28.60250
X9.30250Y28.70250
X9.30250Y28.90250
X9.30250Y31.00250
X9.30250Y31.10250
X9.30250Y31.30250
X9.30250Y33.40250
X9.30250Y33.50250
X9.30250Y33.70250
X9.40250Y2.00250
X9.40250Y2.20250
X9.40250Y6.80250
X9.40250Y7.00250
X9.40250Y15.00250
X9.40250Y15.40250
X9.40250Y21.30250
X9.40250Y21.40250
X9.40250Y21.50250
X9.40250Y21.60250
X9.50250Y2.00250
X9.50250Y4.10250
X9.50250Y6.80250
X9.50250Y15.30250
X9.50250Y15.60250
X9.50250Y19.80250
X9.50250Y20.00250
X9.50250Y24.80250
X9.50250Y24.90250
X9.50250Y26.30250
X9.50250Y26.40250
X9.50250Y26.50250
X9.50250Y27.20250
X9.50250Y27.30250
X9.50250Y28.70250
X9.50250Y28.80250
X9.50250Y28.90250
X9.50250Y29.60250
X9.50250Y29.70250
X9.50250Y31.10250
X9.50250Y31.20250
X9.50250Y31.30250
X9.50250Y32.00250
X9.50250Y32.10250
X9.50250Y33.50250
X9.50250Y33.60250
X9.50250Y33.70250
X9.60250Y2.10250
X9.60250Y2.20250
X9.60250Y4.20250
X9.60250Y4.40250
X9.60250Y6.90250
X9.60250Y7.00250
X9.60250Y10.50250
X9.60250Y10.70250
X9.60250Y15.10250
X9.60250Y15.60250
X9.60250Y19.80250
X9.60250Y20.00250
X9.70250Y4.20250
X9.70250Y23.00250
X9.70250Y23.30250
X9.80250Y1.90250
X9.80250Y2.00250
X9.80250Y2.10250
X9.80250Y2.20250
X9.80250Y4.30250
X9.80250Y4.40250
X9.80250Y6.70250
X9.80250Y6.80250
X9.80250Y6.90250
X9.80250Y7.00250
X9.80250Y15.50250
X9.80250Y21.30250
X9.90250Y11.60250
X9.90250Y11.80250
X9.90250Y12.10250
X9.90250Y14.90250
X10.00250Y4.10250
X10.00250Y4.20250
X10.00250Y4.30250
X10.00250Y4.40250
X10.00250Y11.70250
X10.00250Y11.90250
X10.00250Y15.00250
X10.00250Y15.20250
X10.00250Y21.40250
X10.00250Y24.60250
X10.00250Y24.80250
X10.00250Y24.90250
X10.00250Y26.30250
X10.00250Y26.40250
X10.00250Y26.50250
X10.00250Y27.20250
X10.00250Y27.30250
X10.00250Y28.70250
X10.00250Y28.80250
X10.00250Y28.90250
X10.00250Y29.60250
X10.00250Y29.70250
X10.00250Y31.10250
X10.00250Y31.20250
X10.00250Y31.30250
X10.00250Y32.00250
X10.00250Y32.10250
X10.00250Y33.50250
X10.00250Y33.60250
X10.00250Y33.70250
X10.10250Y0.40250
X10.10250Y0.70250
X10.10250Y5.20250
X10.10250Y5.50250
X10.10250Y11.70250
X10.10250Y15.00250
X10.10250Y15.50250
X10.10250Y21.50250
X10.10250Y21.60250
X10.10250Y26.80250
X10.10250Y29.20250
X10.10250Y31.60250
X10.20250Y1.90250
X10.20250Y6.70250
X10.20250Y10.40250
X10.20250Y10.60250
X10.20250Y22.90250
X10.20250Y23.10250
X10.30250Y11.70250
X10.30250Y15.00250
X10.30250Y21.30250
X10.30250Y21.40250
X10.30250Y21.50250
X10.30250Y21.60250
X10.30250Y22.90250
X10.30250Y23.30250
X10.30250Y26.20250
X10.30250Y26.60250
X10.30250Y27.10250
X10.30250Y27.40250
X10.30250Y28.60250
X10.30250Y28.80250
X10.30250Y31.00250
X10.30250Y31.40250
X10.30250Y31.90250
X10.30250Y32.20250
X10.30250Y33.40250
X10.30250Y33.60250
X10.40250Y2.00250
X10.40250Y6.80250
X10.40250Y11.60250
X10.40250Y14.90250
X10.40250Y34.20250
X10.40250Y34.30250
X10.40250Y34.40250
X10.40250Y34.50250
X10.40250Y34.60250
X10.40250Y34.70250
X10.50250Y2.10250
X10.50250Y2.20250
X10.50250Y6.90250
X10.50250Y7.00250
X10.50250Y11.50250
X10.50250Y12.00250
X10.50250Y14.80250
X10.50250Y15.30250
X10.50250Y26.20250
X10.50250Y28.60250
X10.50250Y31.00250
X10.50250Y33.40250
X10.60250Y4.20250
X10.60250Y9.90250
X10.60250Y10.50250
X10.60250Y19.90250
X10.60250Y20.10250
X10.70250Y1.90250
X10.70250Y2.00250
X10.70250Y2.10250
X10.70250Y2.20250
X10.70250Y6.70250
X10.70250Y6.80250
X10.70250Y6.90250
X10.70250Y7.00250
X10.70250Y21.30250
X10.80250Y0.40250
X10.80250Y0.60250
X10.80250Y5.20250
X10.80250Y5.40250
X10.80250Y12.00250
X10.80250Y12.30250
X10.80250Y15.30250
X10.80250Y15.60250
X10.80250Y26.20250
X10.80250Y27.30250
X10.80250Y27.40250
X10.80250Y28.60250
X10.80250Y29.70250
X10.80250Y31.00250
X10.80250Y32.10250
X10.80250Y32.20250
X10.80250Y33.40250
X10.80250Y34.20250
X10.80250Y34.30250
X10.80250Y34.40250
X10.80250Y34.50250
X10.80250Y34.60250
X10.80250Y34.70250
X10.90250Y0.40250
X10.90250Y0.60250
X10.90250Y4.20250
X10.90250Y5.20250
X10.90250Y5.40250
X10.90250Y11.80250
X10.90250Y12.30250
X10.90250Y15.10250
X10.90250Y15.60250
X10.90250Y19.90250
X10.90250Y20.20250
X11.00250Y21.50250
X11.00250Y21.60250
X11.00250Y24.60250
X11.10250Y1.90250
X11.10250Y3.40250
X11.10250Y3.60250
X11.10250Y4.10250
X11.10250Y4.30250
X11.10250Y6.70250
X11.10250Y10.10250
X11.10250Y10.40250
X11.10250Y12.20250
X11.10250Y15.50250
X11.10250Y26.30250
X11.10250Y26.60250
X11.10250Y26.80250
X11.10250Y26.90250
X11.10250Y27.10250
X11.10250Y27.30250
X11.10250Y27.40250
X11.10250Y28.70250
X11.10250Y29.00250
X11.10250Y29.20250
X11.10250Y29.30250
X11.10250Y29.50250
X11.10250Y29.70250
X11.10250Y31.10250
X11.10250Y31.40250
X11.10250Y31.60250
X11.10250Y31.70250
X11.10250Y31.90250
X11.10250Y32.10250
X11.10250Y32.20250
X11.20250Y3.50250
X11.20250Y11.60250
X11.20250Y14.90250
X11.20250Y21.30250
X11.20250Y21.50250
X11.20250Y21.60250
X11.20250Y24.60250
X11.20250Y24.80250
X11.20250Y26.90250
X11.20250Y27.10250
X11.20250Y29.30250
X11.20250Y29.50250
X11.20250Y31.70250
X11.20250Y31.90250
X11.30250Y2.00250
X11.30250Y3.40250
X11.30250Y6.80250
X11.30250Y24.70250
X11.30250Y27.00250
X11.30250Y28.60250
X11.30250Y29.40250
X11.30250Y31.80250
X11.30250Y33.40250
X11.40250Y2.10250
X11.40250Y2.20250
X11.40250Y6.90250
X11.40250Y7.00250
X11.40250Y11.70250
X11.40250Y12.20250
X11.40250Y15.00250
X11.40250Y15.50250
X11.40250Y24.60250
X11.40250Y26.90250
X11.40250Y29.30250
X11.40250Y31.70250
X11.50250Y3.40250
X11.50250Y4.40250
X11.50250Y22.60250
X11.50250Y24.80250
X11.50250Y25.10250
X11.50250Y26.30250
X11.60250Y1.90250
X11.60250Y2.00250
X11.60250Y2.10250
X11.60250Y2.20250
X11.60250Y6.70250
X11.60250Y6.80250
X11.60250Y6.90250
X11.60250Y7.00250
X11.60250Y11.70250
X11.60250Y15.00250
X11.60250Y21.30250
X11.60250Y26.40250
X11.60250Y26.50250
X11.60250Y26.90250
X11.60250Y27.00250
X11.60250Y28.60250
X11.60250Y28.70250
X11.60250Y28.80250
X11.60250Y28.90250
X11.60250Y29.30250
X11.60250Y29.40250
X11.60250Y31.10250
X11.60250Y31.20250
X11.60250Y31.30250
X11.60250Y31.80250
X11.60250Y33.40250
X11.70250Y11.60250
X11.70250Y14.90250
X11.70250Y25.20250
X11.70250Y27.60250
X11.70250Y30.00250
X11.80250Y11.50250
X11.80250Y12.00250
X11.80250Y14.80250
X11.80250Y15.30250
X11.80250Y21.40250
X11.80250Y25.10250
X11.80250Y27.50250
X11.80250Y29.90250
X11.80250Y31.80250
X11.90250Y0.50250
X11.90250Y0.70250
X11.90250Y5.30250
X11.90250Y5.50250
X11.90250Y10.50250
X11.90250Y12.00250
X11.90250Y12.30250
X11.90250Y15.30250
X11.90250Y15.60250
X11.90250Y21.50250
X11.90250Y21.60250
X11.90250Y25.00250
X11.90250Y27.40250
X11.90250Y29.30250
X11.90250Y29.80250
X12.00250Y1.90250
X12.00250Y6.70250
X12.00250Y10.40250
X12.00250Y11.80250
X12.00250Y12.30250
X12.00250Y15.10250
X12.00250Y15.60250
X12.00250Y24.90250
X12.00250Y27.30250
X12.00250Y29.40250
X12.00250Y29.70250
X12.10250Y4.10250
X12.10250Y10.50250
X12.10250Y19.90250
X12.10250Y20.10250
X12.10250Y21.30250
X12.10250Y21.40250
X12.10250Y21.50250
X12.10250Y21.60250
X12.10250Y24.80250
X12.10250Y26.90250
X12.10250Y27.20250
X12.10250Y29.60250
X12.10250Y34.60250
X12.10250Y34.70250
X12.10250Y36.10250
X12.10250Y36.80250
X12.20250Y0.50250
X12.20250Y0.80250
X12.20250Y5.30250
X12.20250Y5.60250
X12.20250Y12.20250
X12.20250Y15.50250
X12.20250Y24.70250
X12.20250Y27.00250
X12.20250Y27.10250
X12.20250Y29.50250
X12.30250Y2.10250
X12.30250Y2.20250
X12.30250Y4.20250
X12.30250Y6.90250
X12.30250Y7.00250
X12.30250Y10.10250
X12.30250Y10.30250
X12.30250Y11.60250
X12.30250Y14.90250
X12.30250Y22.90250
X12.30250Y23.10250
X12.30250Y24.60250
X12.30250Y27.00250
X12.30250Y29.40250
X12.30250Y36.10250
X12.30250Y36.80250
X12.40250Y4.30250
X12.40250Y4.40250
X12.40250Y10.40250
X12.40250Y19.80250
X12.40250Y20.10250
X12.40250Y23.00250
X12.50250Y1.90250
X12.50250Y2.10250
X12.50250Y2.20250
X12.50250Y6.70250
X12.50250Y6.90250
X12.50250Y7.00250
X12.50250Y11.70250
X12.50250Y12.20250
X12.50250Y15.00250
X12.50250Y15.50250
X12.50250Y21.30250
X12.50250Y22.60250
X12.50250Y22.90250
X12.50250Y24.60250
X12.50250Y24.70250
X12.50250Y24.80250
X12.50250Y24.90250
X12.50250Y25.00250
X12.50250Y25.10250
X12.50250Y25.20250
X12.50250Y26.30250
X12.50250Y26.40250
X12.50250Y26.50250
X12.50250Y27.00250
X12.50250Y27.10250
X12.50250Y27.20250
X12.50250Y27.30250
X12.50250Y27.40250
X12.50250Y27.50250
X12.50250Y27.60250
X12.50250Y28.70250
X12.50250Y28.80250
X12.50250Y28.90250
X12.50250Y29.40250
X12.50250Y29.50250
X12.50250Y29.60250
X12.50250Y29.70250
X12.50250Y29.80250
X12.50250Y29.90250
X12.50250Y30.00250
X12.50250Y31.10250
X12.50250Y31.20250
X12.50250Y31.30250
X12.50250Y34.60250
X12.50250Y34.70250
X12.60250Y4.10250
X12.60250Y4.20250
X12.60250Y4.30250
X12.60250Y4.40250
X12.60250Y24.50250
X12.60250Y24.60250
X12.60250Y24.70250
X12.60250Y24.80250
X12.60250Y24.90250
X12.60250Y25.00250
X12.60250Y25.10250
X12.60250Y25.20250
X12.60250Y26.30250
X12.60250Y26.40250
X12.60250Y26.50250
X12.60250Y26.90250
X12.60250Y27.00250
X12.60250Y27.10250
X12.60250Y27.20250
X12.60250Y27.30250
X12.60250Y27.40250
X12.60250Y27.50250
X12.60250Y27.60250
X12.60250Y28.70250
X12.60250Y28.80250
X12.60250Y28.90250
X12.60250Y29.30250
X12.60250Y29.40250
X12.60250Y29.50250
X12.60250Y29.60250
X12.60250Y29.70250
X12.60250Y29.80250
X12.60250Y29.90250
X12.60250Y30.00250
X12.60250Y31.10250
X12.60250Y31.20250
X12.60250Y31.30250
X12.60250Y31.70250
X12.60250Y31.80250
X12.60250Y31.90250
X12.60250Y32.00250
X12.60250Y32.10250
X12.60250Y32.20250
X12.60250Y32.30250
X12.60250Y32.40250
X12.60250Y33.50250
X12.60250Y33.60250
X12.60250Y33.70250
X12.70250Y11.70250
X12.70250Y15.00250
X12.80250Y11.60250
X12.80250Y14.90250
X12.80250Y21.40250
X12.80250Y21.60250
X12.90250Y1.90250
X12.90250Y6.70250
X12.90250Y11.50250
X12.90250Y12.00250
X12.90250Y14.80250
X12.90250Y15.30250
X13.00250Y21.30250
X13.00250Y21.40250
X13.00250Y21.60250
X13.10250Y2.00250
X13.10250Y6.80250
X13.10250Y24.50250
X13.10250Y24.60250
X13.10250Y24.70250
X13.10250Y24.80250
X13.10250Y24.90250
X13.10250Y25.00250
X13.10250Y25.10250
X13.10250Y25.20250
X13.10250Y26.30250
X13.10250Y26.40250
X13.10250Y26.50250
X13.10250Y26.90250
X13.10250Y27.00250
X13.10250Y27.10250
X13.10250Y27.20250
X13.10250Y27.30250
X13.10250Y27.40250
X13.10250Y27.50250
X13.10250Y27.60250
X13.10250Y28.70250
X13.10250Y28.80250
X13.10250Y28.90250
X13.10250Y29.30250
X13.10250Y29.40250
X13.10250Y29.50250
X13.10250Y29.60250
X13.10250Y29.70250
X13.10250Y29.80250
X13.10250Y29.90250
X13.10250Y30.00250
X13.10250Y31.10250
X13.10250Y31.20250
X13.10250Y31.30250
X13.10250Y31.70250
X13.10250Y31.80250
X13.10250Y31.90250
X13.10250Y32.00250
X13.10250Y32.10250
X13.10250Y32.20250
X13.10250Y32.30250
X13.10250Y32.40250
X13.10250Y33.50250
X13.10250Y33.60250
X13.10250Y33.70250
X13.10250Y34.40250
X13.10250Y34.50250
X13.10250Y34.60250
X13.10250Y34.70250
X13.20250Y2.10250
X13.20250Y2.20250
X13.20250Y6.90250
X13.20250Y7.00250
X13.20250Y12.00250
X13.20250Y12.30250
X13.20250Y15.30250
X13.20250Y15.60250
X13.20250Y19.90250
X13.20250Y20.00250
X13.20250Y21.40250
X13.20250Y21.50250
X13.20250Y21.60250
X13.20250Y22.10250
X13.20250Y22.20250
X13.20250Y23.60250
X13.20250Y23.70250
X13.20250Y23.80250
X13.20250Y24.60250
X13.20250Y24.80250
X13.20250Y27.00250
X13.20250Y27.10250
X13.20250Y29.30250
X13.20250Y29.60250
X13.20250Y31.70250
X13.20250Y31.90250
X13.20250Y36.70250
X13.20250Y36.80250
X13.30250Y10.40250
X13.30250Y11.80250
X13.30250Y12.30250
X13.30250Y15.10250
X13.30250Y15.60250
X13.30250Y24.60250
X13.30250Y25.30250
X13.30250Y27.00250
X13.30250Y27.70250
X13.30250Y29.30250
X13.30250Y30.10250
X13.30250Y31.70250
X13.30250Y32.50250
X13.40250Y0.50250
X13.40250Y0.70250
X13.40250Y1.90250
X13.40250Y2.00250
X13.40250Y2.10250
X13.40250Y2.20250
X13.40250Y5.30250
X13.40250Y5.50250
X13.40250Y6.70250
X13.40250Y6.80250
X13.40250Y6.90250
X13.40250Y7.00250
X13.50250Y12.20250
X13.50250Y15.50250
X13.50250Y25.10250
X13.50250Y25.50250
X13.50250Y27.50250
X13.50250Y27.90250
X13.50250Y29.90250
X13.50250Y30.30250
X13.50250Y32.30250
X13.50250Y32.70250
X13.60250Y14.90250
X13.60250Y24.90250
X13.60250Y25.50250
X13.60250Y27.30250
X13.60250Y27.90250
X13.60250Y29.70250
X13.60250Y30.30250
X13.60250Y32.10250
X13.60250Y32.70250
X13.60250Y36.70250
X13.60250Y36.80250
X13.70250Y0.40250
X13.70250Y0.70250
X13.70250Y3.40250
X13.70250Y3.60250
X13.70250Y5.20250
X13.70250Y5.50250
X13.70250Y10.40250
X13.70250Y11.90250
X13.70250Y12.10250
X13.70250Y15.20250
X13.70250Y15.40250
X13.70250Y19.90250
X13.70250Y20.00250
X13.70250Y21.40250
X13.70250Y21.50250
X13.70250Y21.60250
X13.70250Y22.10250
X13.70250Y22.20250
X13.70250Y23.60250
X13.70250Y23.70250
X13.70250Y23.80250
X13.70250Y24.70250
X13.70250Y25.50250
X13.70250Y27.20250
X13.70250Y27.90250
X13.70250Y29.50250
X13.70250Y30.30250
X13.70250Y32.00250
X13.70250Y32.70250
X13.70250Y34.40250
X13.70250Y34.50250
X13.70250Y34.60250
X13.70250Y34.70250
X13.80250Y1.90250
X13.80250Y3.50250
X13.80250Y6.70250
X13.80250Y12.20250
X13.80250Y15.50250
X13.80250Y21.10250
X13.80250Y21.70250
X13.80250Y24.50250
X13.80250Y25.50250
X13.80250Y26.90250
X13.80250Y27.90250
X13.80250Y29.40250
X13.80250Y30.30250
X13.80250Y31.80250
X13.80250Y32.70250
X13.90250Y3.40250
X13.90250Y21.10250
X13.90250Y21.70250
X13.90250Y23.60250
X13.90250Y23.80250
X14.00250Y21.10250
X14.00250Y21.70250
X14.00250Y36.80250
X14.10250Y2.00250
X14.10250Y2.20250
X14.10250Y3.40250
X14.10250Y4.40250
X14.10250Y6.80250
X14.10250Y7.00250
X14.10250Y14.90250
X14.10250Y19.60250
X14.10250Y19.70250
X14.10250Y21.20250
X14.10250Y21.30250
X14.10250Y21.40250
X14.10250Y23.60250
X14.10250Y23.70250
X14.10250Y23.80250
X14.20250Y11.70250
X14.20250Y12.00250
X14.20250Y14.80250
X14.20250Y15.30250
X14.20250Y16.70250
X14.20250Y36.80250
X14.30250Y1.90250
X14.30250Y2.00250
X14.30250Y2.20250
X14.30250Y6.70250
X14.30250Y6.80250
X14.30250Y7.00250
X14.30250Y11.70250
X14.30250Y12.10250
X14.30250Y14.90250
X14.30250Y15.50250
X14.30250Y26.30644
X14.30250Y28.70644
X14.30250Y31.10644
X14.30250Y33.50644
X14.40250Y11.70250
X14.40250Y12.10250
X14.40250Y15.00250
X14.40250Y15.40250
X14.40250Y26.40644
X14.40250Y26.50644
X14.40250Y28.80644
X14.40250Y28.90644
X14.40250Y31.20644
X14.40250Y31.30644
X14.40250Y33.60644
X14.40250Y33.70644
X14.40250Y36.20250
X14.40250Y36.40250
X14.50250Y0.50250
X14.50250Y0.60250
X14.50250Y2.00250
X14.50250Y2.10250
X14.50250Y2.20250
X14.50250Y2.70250
X14.50250Y2.80250
X14.50250Y2.90250
X14.50250Y3.00250
X14.50250Y4.30250
X14.50250Y4.40250
X14.50250Y4.50250
X14.50250Y5.30250
X14.50250Y5.40250
X14.50250Y6.80250
X14.50250Y6.90250
X14.50250Y7.00250
X14.50250Y8.50250
X14.50250Y8.60250
X14.50250Y8.70250
X14.50250Y8.80250
X14.50250Y8.90250
X14.50250Y9.00250
X14.50250Y9.10250
X14.50250Y9.20250
X14.50250Y9.30250
X14.50250Y9.40250
X14.50250Y15.00250
X14.50250Y15.40250
X14.60250Y16.70250
X14.60250Y19.60250
X14.60250Y19.70250
X14.60250Y21.20250
X14.60250Y21.30250
X14.60250Y21.40250
X14.60250Y23.60250
X14.60250Y23.70250
X14.60250Y23.80250
X14.60250Y24.80250
X14.60250Y25.30250
X14.60250Y26.30644
X14.60250Y26.40644
X14.60250Y26.50644
X14.60250Y27.10250
X14.60250Y27.70250
X14.60250Y28.70644
X14.60250Y28.80644
X14.60250Y28.90644
X14.60250Y29.60250
X14.60250Y30.10250
X14.60250Y31.10644
X14.60250Y31.20644
X14.60250Y31.30644
X14.60250Y31.90250
X14.60250Y32.50250
X14.60250Y33.50644
X14.60250Y33.60644
X14.60250Y33.70644
X14.70250Y11.80250
X14.70250Y11.90250
X14.70250Y12.00250
X14.70250Y13.70250
X14.70250Y13.80250
X14.70250Y15.10250
X14.70250Y15.20250
X14.70250Y15.30250
X14.70250Y17.40250
X14.70250Y17.50250
X14.70250Y17.60250
X14.70250Y17.70250
X14.70250Y17.80250
X14.70250Y17.90250
X14.70250Y18.00250
X14.70250Y18.10250
X14.70250Y18.20250
X14.70250Y18.30250
X14.70250Y18.40250
X14.70250Y18.50250
X14.70250Y18.60250
X14.70250Y18.70250
X14.70250Y18.80250
X14.70250Y18.90250
X14.70250Y19.10250
X14.70250Y36.10250
X14.70250Y36.80250
X14.80250Y25.20250
X14.80250Y25.50250
X14.80250Y27.60250
X14.80250Y27.90250
X14.80250Y30.00250
X14.80250Y30.30250
X14.80250Y32.40250
X14.80250Y32.70250
X14.90250Y19.60250
X14.90250Y19.80250
X14.90250Y24.90250
X14.90250Y25.50250
X14.90250Y27.30250
X14.90250Y27.90250
X14.90250Y29.70250
X14.90250Y30.30250
X14.90250Y32.10250
X14.90250Y32.70250
X14.90250Y36.10250
X14.90250Y36.80250
X15.00250Y0.50250
X15.00250Y0.60250
X15.00250Y2.00250
X15.00250Y2.10250
X15.00250Y2.20250
X15.00250Y2.70250
X15.00250Y2.80250
X15.00250Y2.90250
X15.00250Y3.00250
X15.00250Y4.30250
X15.00250Y4.40250
X15.00250Y4.50250
X15.00250Y5.30250
X15.00250Y5.40250
X15.00250Y6.80250
X15.00250Y6.90250
X15.00250Y7.00250
X15.00250Y8.50250
X15.00250Y8.60250
X15.00250Y8.70250
X15.00250Y8.80250
X15.00250Y8.90250
X15.00250Y9.00250
X15.00250Y9.10250
X15.00250Y9.20250
X15.00250Y9.30250
X15.00250Y9.40250
X15.00250Y21.00250
X15.00250Y21.30250
X15.00250Y21.50250
X15.00250Y24.70250
X15.00250Y25.50250
X15.00250Y27.20250
X15.00250Y27.90250
X15.00250Y29.50250
X15.00250Y30.30250
X15.00250Y32.00250
X15.00250Y32.70250
X15.10250Y3.00250
X15.10250Y4.30250
X15.10250Y4.40250
X15.10250Y4.50250
X15.10250Y6.80250
X15.10250Y6.90250
X15.10250Y7.00250
X15.10250Y21.10250
X15.10250Y21.30250
X15.10250Y24.50250
X15.10250Y25.50250
X15.10250Y26.90250
X15.10250Y27.90250
X15.10250Y29.40250
X15.10250Y30.30250
X15.10250Y31.80250
X15.10250Y32.70250
X15.20250Y2.00250
X15.20250Y2.10250
X15.20250Y2.20250
X15.20250Y8.40250
X15.20250Y8.60250
X15.20250Y11.80250
X15.20250Y11.90250
X15.20250Y12.00250
X15.20250Y13.70250
X15.20250Y13.80250
X15.20250Y15.10250
X15.20250Y15.20250
X15.20250Y15.30250
X15.20250Y17.40250
X15.20250Y17.50250
X15.20250Y17.60250
X15.20250Y17.70250
X15.20250Y17.80250
X15.20250Y17.90250
X15.20250Y18.00250
X15.20250Y18.10250
X15.20250Y18.20250
X15.20250Y18.30250
X15.20250Y18.40250
X15.20250Y18.50250
X15.20250Y18.60250
X15.20250Y18.70250
X15.20250Y18.80250
X15.20250Y18.90250
X15.20250Y19.10250
X15.20250Y21.10250
X15.20250Y21.20250
X15.20250Y21.60250
X15.30250Y5.10250
X15.30250Y5.20250
X15.30250Y15.00250
X15.30250Y15.40250
X15.30250Y17.30250
X15.30250Y19.00250
X15.30250Y21.20250
X15.30250Y21.30250
X15.40250Y3.00250
X15.40250Y15.00250
X15.40250Y15.40250
X15.50250Y1.70250
X15.50250Y1.90250
X15.50250Y12.30250
X15.50250Y15.60250
X15.50250Y21.00250
X15.50250Y21.10250
X15.50250Y21.20250
X15.50250Y21.30250
X15.60250Y1.60250
X15.60250Y1.90250
X15.60250Y2.20250
X15.60250Y8.60250
X15.60250Y8.90250
X15.60250Y21.50250
X15.60250Y21.60250
X15.60250Y21.70250
X15.60250Y21.80250
X15.60250Y26.30644
X15.60250Y28.70644
X15.60250Y31.10644
X15.60250Y33.50644
X15.70250Y1.50250
X15.70250Y1.90250
X15.70250Y2.10250
X15.70250Y12.30250
X15.70250Y15.10250
X15.70250Y15.40250
X15.70250Y15.60250
X15.70250Y26.40250
X15.70250Y26.50644
X15.70250Y28.80250
X15.70250Y28.90644
X15.70250Y31.20250
X15.70250Y31.30644
X15.70250Y33.60250
X15.70250Y33.70644
X15.80250Y1.30250
X15.80250Y1.90250
X15.80250Y2.00250
X15.80250Y11.70250
X15.80250Y12.10250
X15.80250Y15.00250
X15.80250Y15.40250
X15.80250Y21.50250
X15.80250Y21.60250
X15.90250Y8.40250
X15.90250Y8.80250
X15.90250Y11.90250
X15.90250Y12.10250
X15.90250Y15.20250
X15.90250Y15.40250
X15.90250Y21.00250
X15.90250Y21.20250
X15.90250Y21.60250
X15.90250Y21.70250
X15.90250Y26.30250
X15.90250Y26.40250
X15.90250Y26.50250
X15.90250Y28.70250
X15.90250Y28.80250
X15.90250Y28.90250
X15.90250Y31.10250
X15.90250Y31.20250
X15.90250Y31.30250
X15.90250Y33.50250
X15.90250Y33.60250
X15.90250Y33.70250
X16.00250Y4.30250
X16.00250Y4.40250
X16.00250Y4.50250
X16.00250Y5.10250
X16.00250Y8.40250
X16.00250Y8.60250
X16.00250Y11.80250
X16.00250Y11.90250
X16.00250Y15.10250
X16.00250Y15.20250
X16.00250Y21.30250
X16.00250Y21.50250
X16.10250Y5.20250
X16.10250Y12.00250
X16.10250Y15.30250
X16.10250Y21.10250
X16.10250Y21.70250
X16.10250Y21.80250
X16.10250Y25.10250
X16.10250Y25.50250
X16.10250Y27.50250
X16.10250Y27.90250
X16.10250Y29.90250
X16.10250Y30.30250
X16.10250Y32.30250
X16.10250Y32.70250
X16.10250Y34.20250
X16.10250Y34.30250
X16.10250Y34.40250
X16.10250Y34.50250
X16.10250Y34.60250
X16.10250Y34.70250
X16.20250Y6.80250
X16.20250Y6.90250
X16.20250Y7.00250
X16.20250Y15.70250
X16.20250Y21.20250
X16.20250Y21.30250
X16.20250Y25.00250
X16.20250Y25.50250
X16.20250Y27.40250
X16.20250Y27.90250
X16.20250Y29.80250
X16.20250Y30.30250
X16.20250Y32.20250
X16.20250Y32.70250
X16.30250Y1.30250
X16.30250Y1.40250
X16.30250Y1.50250
X16.30250Y1.70250
X16.30250Y1.80250
X16.30250Y2.70250
X16.30250Y2.80250
X16.30250Y2.90250
X16.30250Y3.40250
X16.30250Y3.50250
X16.30250Y3.60250
X16.30250Y3.70250
X16.30250Y4.50250
X16.30250Y4.60250
X16.30250Y4.70250
X16.30250Y5.20250
X16.30250Y5.30250
X16.30250Y5.40250
X16.30250Y5.50250
X16.30250Y6.80250
X16.30250Y6.90250
X16.30250Y7.00250
X16.30250Y8.50250
X16.30250Y8.60250
X16.30250Y8.70250
X16.30250Y8.80250
X16.30250Y8.90250
X16.30250Y9.00250
X16.30250Y9.10250
X16.30250Y9.20250
X16.30250Y9.30250
X16.30250Y9.40250
X16.30250Y11.80250
X16.30250Y11.90250
X16.30250Y12.00250
X16.30250Y17.30250
X16.30250Y18.40250
X16.30250Y24.70250
X16.30250Y25.50250
X16.30250Y27.20250
X16.30250Y27.90250
X16.30250Y29.50250
X16.30250Y30.30250
X16.30250Y32.00250
X16.30250Y32.70250
X16.40250Y15.10250
X16.40250Y15.20250
X16.40250Y15.30250
X16.40250Y15.70250
X16.40250Y21.00250
X16.40250Y21.20250
X16.40250Y21.30250
X16.40250Y24.50250
X16.40250Y25.50250
X16.40250Y26.90250
X16.40250Y27.90250
X16.40250Y29.40250
X16.40250Y30.30250
X16.40250Y31.80250
X16.40250Y32.70250
X16.50250Y11.70250
X16.50250Y12.20250
X16.50250Y13.80250
X16.50250Y14.10250
X16.50250Y15.00250
X16.50250Y15.70250
X16.50250Y21.10250
X16.50250Y21.50250
X16.50250Y34.20250
X16.50250Y34.30250
X16.50250Y34.40250
X16.50250Y34.50250
X16.50250Y34.60250
X16.50250Y34.70250
X16.60250Y13.80250
X16.60250Y14.10250
X16.60250Y15.00250
X16.60250Y15.70250
X16.60250Y21.10250
X16.60250Y21.50250
X16.70250Y10.00250
X16.70250Y10.20250
X16.70250Y11.40250
X16.70250Y12.10250
X16.70250Y13.70250
X16.70250Y14.10250
X16.70250Y15.00250
X16.70250Y15.70250
X16.70250Y21.10250
X16.70250Y21.50250
X16.80250Y1.30250
X16.80250Y1.40250
X16.80250Y1.50250
X16.80250Y1.70250
X16.80250Y1.80250
X16.80250Y2.70250
X16.80250Y2.80250
X16.80250Y2.90250
X16.80250Y3.40250
X16.80250Y3.50250
X16.80250Y3.60250
X16.80250Y3.70250
X16.80250Y4.50250
X16.80250Y4.60250
X16.80250Y4.70250
X16.80250Y5.20250
X16.80250Y5.30250
X16.80250Y5.40250
X16.80250Y5.50250
X16.80250Y6.80250
X16.80250Y6.90250
X16.80250Y7.00250
X16.80250Y8.50250
X16.80250Y8.60250
X16.80250Y8.70250
X16.80250Y8.80250
X16.80250Y8.90250
X16.80250Y9.00250
X16.80250Y9.10250
X16.80250Y9.20250
X16.80250Y9.30250
X16.80250Y9.40250
X16.80250Y9.90250
X16.80250Y10.20250
X16.80250Y11.40250
X16.80250Y12.10250
X16.80250Y13.70250
X16.80250Y14.10250
X16.80250Y15.30250
X16.80250Y15.70250
X16.80250Y21.20250
X16.80250Y21.30250
X16.80250Y21.40250
X16.80250Y23.00250
X16.80250Y23.10250
X16.80250Y23.60250
X16.80250Y23.70250
X16.80250Y23.80250
X16.90250Y26.30250
X16.90250Y28.70250
X16.90250Y31.10250
X16.90250Y33.50250
X17.00250Y26.40250
X17.00250Y26.50250
X17.00250Y28.80250
X17.00250Y28.90250
X17.00250Y31.20250
X17.00250Y31.30250
X17.00250Y33.60250
X17.00250Y33.70250
X17.00250Y34.20250
X17.00250Y34.80250
X17.10250Y9.90250
X17.10250Y10.00250
X17.10250Y10.10250
X17.10250Y11.50250
X17.10250Y11.60250
X17.10250Y11.70250
X17.10250Y13.80250
X17.10250Y13.90250
X17.10250Y14.00250
X17.10250Y15.40250
X17.10250Y15.50250
X17.10250Y15.60250
X17.10250Y17.80250
X17.10250Y17.90250
X17.10250Y18.00250
X17.10250Y18.10250
X17.10250Y18.20250
X17.10250Y18.30250
X17.10250Y18.40250
X17.10250Y18.50250
X17.10250Y18.60250
X17.10250Y18.70250
X17.10250Y18.80250
X17.10250Y18.90250
X17.10250Y19.00250
X17.10250Y19.10250
X17.10250Y34.30250
X17.10250Y34.80250
X17.20250Y26.30250
X17.20250Y26.40250
X17.20250Y26.50250
X17.20250Y28.70250
X17.20250Y28.80250
X17.20250Y28.90250
X17.20250Y31.10250
X17.20250Y31.20250
X17.20250Y31.30250
X17.20250Y33.50250
X17.20250Y33.60250
X17.20250Y33.70250
X17.20250Y34.20250
X17.20250Y34.60250
X17.30250Y1.20250
X17.30250Y1.50250
X17.30250Y6.90250
X17.30250Y7.10250
X17.30250Y21.20250
X17.30250Y21.30250
X17.30250Y21.40250
X17.30250Y23.00250
X17.30250Y23.10250
X17.30250Y23.60250
X17.30250Y23.70250
X17.30250Y23.80250
X17.30250Y34.30250
X17.30250Y34.70250
X17.40250Y2.50250
X17.40250Y2.90250
X17.40250Y4.30250
X17.40250Y4.70250
X17.40250Y21.10250
X17.40250Y21.80250
X17.40250Y25.20250
X17.40250Y25.50250
X17.40250Y27.60250
X17.40250Y27.90250
X17.40250Y30.00250
X17.40250Y30.30250
X17.40250Y32.40250
X17.40250Y32.70250
X17.50250Y21.10250
X17.50250Y21.80250
X17.50250Y23.00250
X17.50250Y23.60250
X17.50250Y25.00250
X17.50250Y25.50250
X17.50250Y27.40250
X17.50250Y27.90250
X17.50250Y29.80250
X17.50250Y30.30250
X17.50250Y32.20250
X17.50250Y32.70250
X17.60250Y6.60250
X17.60250Y9.90250
X17.60250Y10.00250
X17.60250Y10.10250
X17.60250Y11.50250
X17.60250Y11.60250
X17.60250Y11.70250
X17.60250Y13.80250
X17.60250Y13.90250
X17.60250Y14.00250
X17.60250Y15.40250
X17.60250Y15.50250
X17.60250Y15.60250
X17.60250Y17.80250
X17.60250Y17.90250
X17.60250Y18.00250
X17.60250Y18.10250
X17.60250Y18.20250
X17.60250Y18.30250
X17.60250Y18.40250
X17.60250Y18.50250
X17.60250Y18.60250
X17.60250Y18.70250
X17.60250Y18.80250
X17.60250Y18.90250
X17.60250Y19.00250
X17.60250Y19.10250
X17.60250Y21.40250
X17.60250Y21.80250
X17.60250Y24.70250
X17.60250Y25.50250
X17.60250Y27.20250
X17.60250Y27.90250
X17.60250Y29.50250
X17.60250Y30.30250
X17.60250Y32.00250
X17.60250Y32.70250
X17.70250Y1.20250
X17.70250Y1.40250
X17.70250Y6.70250
X17.70250Y6.90250
X17.70250Y21.40250
X17.70250Y21.80250
X17.70250Y24.50250
X17.70250Y25.50250
X17.70250Y26.90250
X17.70250Y27.90250
X17.70250Y29.40250
X17.70250Y30.30250
X17.70250Y31.80250
X17.70250Y32.70250
X17.80250Y2.60250
X17.80250Y2.80250
X17.80250Y4.40250
X17.80250Y4.60250
X17.80250Y6.70250
X17.80250Y21.40250
X17.80250Y21.80250
X17.90250Y6.80250
X17.90250Y6.90250
X17.90250Y11.30250
X17.90250Y12.00250
X17.90250Y15.20250
X17.90250Y15.90250
X17.90250Y21.40250
X17.90250Y21.80250
X17.90250Y23.00250
X17.90250Y23.80250
X18.00250Y11.40250
X18.00250Y11.60250
X18.00250Y15.30250
X18.00250Y15.50250
X18.00250Y19.60250
X18.00250Y19.70250
X18.00250Y19.80250
X18.00250Y19.90250
X18.00250Y20.00250
X18.00250Y20.10250
X18.00250Y21.50250
X18.00250Y21.60250
X18.00250Y21.70250
X18.00250Y23.10250
X18.00250Y23.20250
X18.00250Y23.30250
X18.00250Y23.40250
X18.00250Y23.50250
X18.00250Y23.60250
X18.00250Y23.70250
X18.00250Y23.80250
X18.10250Y6.60250
X18.10250Y6.70250
X18.10250Y6.80250
X18.10250Y6.90250
X18.10250Y11.40250
X18.10250Y11.50250
X18.10250Y11.80250
X18.10250Y15.30250
X18.10250Y15.40250
X18.10250Y15.70250
X18.20250Y11.50250
X18.20250Y11.60250
X18.20250Y15.40250
X18.20250Y15.50250
X18.20250Y26.30250
X18.20250Y26.50250
X18.20250Y28.70250
X18.20250Y28.90250
X18.20250Y31.10250
X18.20250Y31.30250
X18.20250Y33.50250
X18.20250Y33.70250
X18.30250Y1.10250
X18.30250Y1.30250
X18.30250Y26.30250
X18.30250Y26.50250
X18.30250Y28.70250
X18.30250Y28.90250
X18.30250Y31.10250
X18.30250Y31.30250
X18.30250Y33.50250
X18.30250Y33.70250
X18.40250Y2.50250
X18.40250Y2.70250
X18.40250Y4.30250
X18.40250Y4.50250
X18.40250Y11.30250
X18.40250Y11.40250
X18.40250Y11.50250
X18.40250Y11.60250
X18.40250Y12.00250
X18.40250Y15.20250
X18.40250Y15.30250
X18.40250Y15.40250
X18.40250Y15.50250
X18.40250Y15.90250
X18.40250Y25.20250
X18.40250Y25.30250
X18.40250Y27.70250
X18.50250Y19.60250
X18.50250Y19.70250
X18.50250Y19.80250
X18.50250Y19.90250
X18.50250Y20.00250
X18.50250Y20.10250
X18.50250Y21.50250
X18.50250Y21.60250
X18.50250Y21.70250
X18.50250Y23.10250
X18.50250Y23.20250
X18.50250Y23.30250
X18.50250Y23.40250
X18.50250Y23.50250
X18.50250Y23.60250
X18.50250Y23.70250
X18.50250Y23.80250
X18.50250Y25.20250
X18.50250Y25.30250
X18.50250Y26.30250
X18.50250Y26.50250
X18.50250Y27.60250
X18.50250Y27.70250
X18.50250Y28.70250
X18.50250Y28.90250
X18.50250Y30.00250
X18.50250Y30.10250
X18.50250Y31.10250
X18.50250Y31.30250
X18.50250Y32.50250
X18.50250Y33.50250
X18.50250Y33.70250
X18.60250Y24.70250
X18.60250Y24.80250
X18.60250Y24.90250
X18.60250Y25.00250
X18.60250Y26.30250
X18.60250Y26.40250
X18.60250Y26.50250
X18.60250Y27.10250
X18.60250Y27.20250
X18.60250Y27.30250
X18.60250Y27.40250
X18.60250Y28.70250
X18.60250Y28.80250
X18.60250Y28.90250
X18.60250Y29.50250
X18.60250Y29.60250
X18.60250Y29.70250
X18.60250Y29.80250
X18.60250Y31.10250
X18.60250Y31.20250
X18.60250Y31.30250
X18.60250Y31.90250
X18.60250Y32.00250
X18.60250Y32.10250
X18.60250Y32.20250
X18.60250Y33.50250
X18.60250Y33.60250
X18.60250Y33.70250
X18.80250Y11.30250
X18.80250Y11.90250
X18.80250Y12.00250
X18.80250Y15.20250
X18.80250Y15.80250
X18.80250Y15.90250
X18.90250Y6.60250
X19.00250Y11.40250
X19.00250Y11.50250
X19.00250Y11.80250
X19.00250Y15.30250
X19.00250Y15.40250
X19.00250Y15.70250
X19.10250Y6.70250
X19.10250Y11.50250
X19.10250Y11.60250
X19.10250Y11.90250
X19.10250Y15.40250
X19.10250Y15.50250
X19.10250Y15.80250
X19.10250Y24.70250
X19.10250Y24.80250
X19.10250Y24.90250
X19.10250Y25.00250
X19.10250Y26.30250
X19.10250Y26.40250
X19.10250Y26.50250
X19.10250Y27.10250
X19.10250Y27.20250
X19.10250Y27.30250
X19.10250Y27.40250
X19.10250Y28.70250
X19.10250Y28.80250
X19.10250Y28.90250
X19.10250Y29.50250
X19.10250Y29.60250
X19.10250Y29.70250
X19.10250Y29.80250
X19.10250Y31.10250
X19.10250Y31.20250
X19.10250Y31.30250
X19.10250Y31.90250
X19.10250Y32.00250
X19.10250Y32.10250
X19.10250Y32.20250
X19.10250Y33.50250
X19.10250Y33.60250
X19.10250Y33.70250
X19.20250Y6.80250
X19.20250Y6.90250
X19.20250Y21.30250
X19.30250Y1.10250
X19.30250Y1.30250
X19.30250Y9.90250
X19.30250Y10.10250
X19.30250Y11.30250
X19.30250Y11.40250
X19.30250Y11.50250
X19.30250Y11.60250
X19.30250Y12.00250
X19.30250Y13.30250
X19.30250Y13.40250
X19.30250Y13.80250
X19.30250Y14.00250
X19.30250Y15.20250
X19.30250Y15.30250
X19.30250Y15.40250
X19.30250Y15.50250
X19.30250Y15.90250
X19.30250Y17.20250
X19.30250Y17.30250
X19.30250Y21.40250
X19.30250Y21.60250
X19.30250Y24.70250
X19.30250Y24.80250
X19.30250Y24.90250
X19.30250Y25.00250
X19.30250Y26.30250
X19.30250Y26.40250
X19.30250Y26.50250
X19.30250Y27.10250
X19.30250Y27.20250
X19.30250Y27.30250
X19.30250Y27.40250
X19.30250Y28.70250
X19.30250Y28.80250
X19.30250Y28.90250
X19.30250Y29.50250
X19.30250Y29.60250
X19.30250Y29.70250
X19.30250Y29.80250
X19.30250Y31.10250
X19.30250Y31.20250
X19.30250Y31.30250
X19.30250Y31.90250
X19.30250Y32.00250
X19.30250Y32.10250
X19.30250Y32.20250
X19.30250Y33.50250
X19.30250Y33.60250
X19.30250Y33.70250
X19.40250Y1.10250
X19.40250Y1.50250
X19.40250Y2.50250
X19.40250Y2.70250
X19.40250Y4.30250
X19.40250Y4.50250
X19.40250Y6.60250
X19.40250Y6.70250
X19.40250Y6.80250
X19.40250Y6.90250
X19.40250Y21.40250
X19.50250Y6.60250
X19.50250Y7.40250
X19.50250Y13.30250
X19.50250Y13.40250
X19.50250Y17.20250
X19.50250Y17.30250
X19.50250Y21.50250
X19.50250Y21.60250
X19.60250Y2.30250
X19.60250Y2.50250
X19.60250Y13.00250
X19.60250Y13.20250
X19.60250Y16.90250
X19.60250Y17.10250
X19.70250Y11.30250
X19.70250Y11.90250
X19.70250Y12.00250
X19.70250Y15.20250
X19.70250Y15.80250
X19.70250Y15.90250
X19.70250Y21.30250
X19.70250Y21.40250
X19.70250Y21.50250
X19.70250Y21.60250
X19.80250Y6.60250
X19.80250Y24.70250
X19.80250Y24.80250
X19.80250Y24.90250
X19.80250Y25.00250
X19.80250Y26.30250
X19.80250Y26.40250
X19.80250Y26.50250
X19.80250Y27.10250
X19.80250Y27.20250
X19.80250Y27.30250
X19.80250Y27.40250
X19.80250Y28.70250
X19.80250Y28.80250
X19.80250Y28.90250
X19.80250Y29.50250
X19.80250Y29.60250
X19.80250Y29.70250
X19.80250Y29.80250
X19.80250Y31.10250
X19.80250Y31.20250
X19.80250Y31.30250
X19.80250Y31.90250
X19.80250Y32.00250
X19.80250Y32.10250
X19.80250Y32.20250
X19.80250Y33.50250
X19.80250Y33.60250
X19.80250Y33.70250
X19.90250Y2.50250
X19.90250Y2.90250
X19.90250Y4.30250
X19.90250Y4.70250
X19.90250Y11.40250
X19.90250Y11.50250
X19.90250Y11.80250
X19.90250Y15.30250
X19.90250Y15.40250
X19.90250Y15.70250
X20.00250Y6.70250
X20.00250Y7.10250
X20.00250Y7.30250
X20.00250Y11.50250
X20.00250Y11.60250
X20.00250Y11.90250
X20.00250Y15.40250
X20.00250Y15.50250
X20.00250Y15.80250
X20.00250Y25.10250
X20.00250Y27.50250
X20.00250Y29.90250
X20.00250Y32.30250
X20.10250Y6.80250
X20.10250Y6.90250
X20.10250Y21.30250
X20.10250Y26.20250
X20.10250Y26.40250
X20.10250Y28.60250
X20.10250Y28.80250
X20.10250Y31.00250
X20.10250Y31.20250
X20.10250Y33.40250
X20.10250Y33.60250
X20.20250Y11.30250
X20.20250Y11.40250
X20.20250Y11.50250
X20.20250Y11.60250
X20.20250Y12.00250
X20.20250Y15.20250
X20.20250Y15.30250
X20.20250Y15.40250
X20.20250Y15.50250
X20.20250Y15.90250
X20.20250Y25.10250
X20.20250Y27.50250
X20.20250Y29.90250
X20.20250Y32.30250
X20.30250Y6.60250
X20.30250Y6.70250
X20.30250Y6.80250
X20.30250Y6.90250
X20.30250Y10.00250
X20.30250Y13.90250
X20.30250Y21.40250
X20.40250Y0.20250
X20.40250Y0.70250
X20.40250Y6.60250
X20.40250Y7.30250
X20.40250Y21.50250
X20.40250Y21.60250
X20.50250Y6.60250
X20.50250Y7.40250
X20.50250Y26.10250
X20.50250Y28.50250
X20.50250Y30.90250
X20.50250Y33.30250
X20.60250Y7.00250
X20.60250Y7.40250
X20.60250Y10.00250
X20.60250Y11.30250
X20.60250Y11.90250
X20.60250Y12.00250
X20.60250Y13.90250
X20.60250Y15.20250
X20.60250Y15.80250
X20.60250Y15.90250
X20.60250Y21.30250
X20.60250Y21.40250
X20.60250Y21.50250
X20.60250Y21.60250
X20.70250Y19.60250
X20.70250Y25.10250
X20.70250Y26.10250
X20.70250Y27.50250
X20.70250Y28.50250
X20.70250Y29.90250
X20.70250Y30.90250
X20.70250Y32.30250
X20.70250Y33.30250
X20.80250Y11.50250
X20.80250Y11.80250
X20.80250Y15.40250
X20.80250Y15.70250
X20.90250Y1.80250
X20.90250Y2.50250
X20.90250Y2.70250
X20.90250Y4.30250
X20.90250Y4.50250
X20.90250Y10.80250
X20.90250Y11.60250
X20.90250Y11.90250
X20.90250Y14.70250
X20.90250Y15.50250
X20.90250Y15.80250
X20.90250Y19.60250
X21.00250Y5.80250
X21.00250Y11.00250
X21.00250Y14.90250
X21.00250Y25.10250
X21.00250Y27.50250
X21.00250Y29.90250
X21.00250Y32.30250
X21.10250Y1.80250
X21.10250Y8.00250
X21.10250Y11.30250
X21.10250Y11.60250
X21.10250Y12.00250
X21.10250Y15.20250
X21.10250Y15.50250
X21.10250Y15.90250
X21.20250Y5.80250
X21.20250Y7.30250
X21.20250Y7.50250
X21.30250Y8.00250
X21.30250Y21.30250
X21.40250Y10.80250
X21.40250Y11.30250
X21.40250Y11.60250
X21.40250Y14.70250
X21.40250Y15.20250
X21.40250Y15.50250
X21.40250Y26.10250
X21.40250Y28.50250
X21.40250Y30.90250
X21.40250Y33.30250
X21.50250Y11.00250
X21.50250Y14.90250
X21.50250Y21.40250
X21.60250Y10.80250
X21.60250Y10.90250
X21.60250Y11.00250
X21.60250Y13.20250
X21.60250Y13.30250
X21.60250Y14.70250
X21.60250Y14.80250
X21.60250Y14.90250
X21.60250Y17.10250
X21.60250Y17.20250
X21.60250Y17.80250
X21.60250Y17.90250
X21.60250Y18.00250
X21.60250Y18.10250
X21.60250Y18.20250
X21.60250Y18.30250
X21.60250Y18.40250
X21.60250Y18.50250
X21.60250Y18.60250
X21.60250Y18.70250
X21.60250Y18.80250
X21.60250Y18.90250
X21.60250Y19.00250
X21.60250Y19.10250
X21.60250Y21.50250
X21.60250Y21.60250
X21.60250Y25.00250
X21.60250Y25.10250
X21.60250Y26.10250
X21.60250Y27.40250
X21.60250Y27.50250
X21.60250Y28.50250
X21.60250Y29.80250
X21.60250Y29.90250
X21.60250Y30.90250
X21.60250Y32.20250
X21.60250Y32.30250
X21.60250Y33.30250
X21.70250Y1.20250
X21.70250Y1.60250
X21.80250Y1.20250
X21.80250Y1.60250
X21.80250Y21.30250
X21.80250Y21.40250
X21.80250Y21.50250
X21.80250Y21.60250
X21.90250Y6.90250
X21.90250Y7.10250
X21.90250Y25.00250
X21.90250Y25.10250
X21.90250Y27.40250
X21.90250Y27.50250
X21.90250Y29.80250
X21.90250Y29.90250
X21.90250Y32.20250
X21.90250Y32.30250
X22.00250Y2.60250
X22.00250Y2.90250
X22.00250Y4.40250
X22.00250Y4.70250
X22.00250Y6.80250
X22.00250Y7.10250
X22.10250Y10.80250
X22.10250Y10.90250
X22.10250Y11.00250
X22.10250Y13.20250
X22.10250Y13.30250
X22.10250Y14.70250
X22.10250Y14.80250
X22.10250Y14.90250
X22.10250Y17.10250
X22.10250Y17.20250
X22.10250Y17.80250
X22.10250Y17.90250
X22.10250Y18.00250
X22.10250Y18.10250
X22.10250Y18.20250
X22.10250Y18.30250
X22.10250Y18.40250
X22.10250Y18.50250
X22.10250Y18.60250
X22.10250Y18.70250
X22.10250Y18.80250
X22.10250Y18.90250
X22.10250Y19.00250
X22.10250Y19.10250
X22.20250Y6.60250
X22.20250Y7.10250
X22.20250Y14.60250
X22.20250Y15.00250
X22.20250Y21.30250
X22.30250Y0.20250
X22.30250Y0.30250
X22.30250Y1.30250
X22.30250Y1.40250
X22.30250Y1.50250
X22.30250Y2.70250
X22.30250Y2.80250
X22.30250Y2.90250
X22.30250Y3.40250
X22.30250Y3.50250
X22.30250Y4.50250
X22.30250Y4.60250
X22.30250Y4.70250
X22.30250Y6.60250
X22.30250Y6.70250
X22.30250Y6.80250
X22.30250Y6.90250
X22.30250Y7.00250
X22.30250Y8.50250
X22.30250Y8.60250
X22.30250Y8.70250
X22.30250Y8.80250
X22.30250Y8.90250
X22.30250Y9.00250
X22.30250Y9.10250
X22.30250Y9.20250
X22.30250Y9.30250
X22.30250Y9.40250
X22.30250Y14.10250
X22.30250Y14.60250
X22.30250Y15.20250
X22.30250Y15.90250
X22.30250Y16.10250
X22.30250Y24.90250
X22.30250Y25.00250
X22.30250Y25.10250
X22.30250Y26.10250
X22.30250Y27.30250
X22.30250Y27.40250
X22.30250Y27.50250
X22.30250Y28.50250
X22.30250Y29.70250
X22.30250Y29.80250
X22.30250Y29.90250
X22.30250Y30.90250
X22.30250Y32.10250
X22.30250Y32.20250
X22.30250Y32.30250
X22.30250Y33.30250
X22.40250Y14.60250
X22.40250Y15.00250
X22.40250Y15.90250
X22.40250Y16.10250
X22.50250Y12.00250
X22.50250Y12.40250
X22.50250Y14.10250
X22.50250Y15.90250
X22.50250Y16.30250
X22.50250Y21.50250
X22.50250Y21.60250
X22.50250Y26.10250
X22.50250Y28.50250
X22.50250Y30.90250
X22.50250Y33.30250
X22.60250Y11.90250
X22.60250Y12.30250
X22.60250Y15.80250
X22.60250Y16.20250
X22.60250Y24.90250
X22.60250Y25.00250
X22.60250Y25.10250
X22.60250Y27.30250
X22.60250Y27.40250
X22.60250Y27.50250
X22.60250Y29.70250
X22.60250Y29.80250
X22.60250Y29.90250
X22.60250Y32.10250
X22.60250Y32.20250
X22.60250Y32.30250
X22.70250Y13.30250
X22.70250Y17.20250
X22.70250Y21.30250
X22.70250Y21.50250
X22.70250Y21.60250
X22.80250Y0.20250
X22.80250Y0.30250
X22.80250Y1.30250
X22.80250Y1.40250
X22.80250Y1.50250
X22.80250Y2.70250
X22.80250Y2.80250
X22.80250Y2.90250
X22.80250Y3.40250
X22.80250Y3.50250
X22.80250Y4.50250
X22.80250Y4.60250
X22.80250Y4.70250
X22.80250Y6.60250
X22.80250Y6.70250
X22.80250Y6.80250
X22.80250Y6.90250
X22.80250Y7.00250
X22.80250Y8.50250
X22.80250Y8.60250
X22.80250Y8.70250
X22.80250Y8.80250
X22.80250Y8.90250
X22.80250Y9.00250
X22.80250Y9.10250
X22.80250Y9.20250
X22.80250Y9.30250
X22.80250Y9.40250
X22.80250Y14.60250
X22.80250Y14.90250
X22.80250Y19.60250
X22.80250Y19.70250
X22.80250Y21.50250
X22.80250Y21.60250
X22.80250Y21.70250
X22.80250Y23.10250
X22.80250Y23.20250
X22.80250Y23.30250
X22.80250Y23.40250
X22.80250Y23.50250
X22.80250Y23.60250
X22.80250Y23.70250
X22.80250Y23.80250
X22.90250Y4.40250
X22.90250Y4.80250
X22.90250Y6.50250
X22.90250Y7.10250
X22.90250Y8.40250
X22.90250Y9.30250
X22.90250Y14.60250
X22.90250Y14.80250
X23.00250Y1.20250
X23.00250Y1.60250
X23.00250Y2.60250
X23.00250Y3.00250
X23.00250Y4.40250
X23.00250Y4.80250
X23.00250Y6.50250
X23.00250Y7.10250
X23.00250Y8.40250
X23.00250Y9.40250
X23.10250Y1.30250
X23.10250Y1.60250
X23.10250Y4.50250
X23.10250Y4.80250
X23.10250Y13.60250
X23.10250Y13.80250
X23.10250Y17.50250
X23.10250Y17.70250
X23.20250Y3.40250
X23.20250Y13.70250
X23.20250Y17.60250
X23.20250Y24.70250
X23.20250Y24.80250
X23.20250Y24.90250
X23.20250Y25.00250
X23.20250Y26.30250
X23.20250Y26.40250
X23.20250Y26.50250
X23.20250Y27.10250
X23.20250Y27.20250
X23.20250Y27.30250
X23.20250Y27.40250
X23.20250Y28.70250
X23.20250Y28.80250
X23.20250Y28.90250
X23.20250Y29.50250
X23.20250Y29.60250
X23.20250Y29.70250
X23.20250Y29.80250
X23.20250Y31.10250
X23.20250Y31.20250
X23.20250Y31.30250
X23.20250Y31.90250
X23.20250Y32.00250
X23.20250Y32.10250
X23.20250Y32.20250
X23.20250Y33.50250
X23.20250Y33.60250
X23.20250Y33.70250
X23.30250Y13.60250
X23.30250Y17.50250
X23.30250Y19.60250
X23.30250Y19.70250
X23.30250Y21.50250
X23.30250Y21.60250
X23.30250Y21.70250
X23.30250Y23.10250
X23.30250Y23.20250
X23.30250Y23.30250
X23.30250Y23.40250
X23.30250Y23.50250
X23.30250Y23.60250
X23.30250Y23.70250
X23.30250Y23.80250
X23.40250Y1.20250
X23.40250Y1.60250
X23.40250Y3.40250
X23.40250Y4.40250
X23.40250Y4.80250
X23.40250Y19.10250
X23.40250Y19.60250
X23.40250Y21.50250
X23.40250Y21.60250
X23.40250Y21.70250
X23.50250Y19.10250
X23.50250Y19.60250
X23.50250Y23.00250
X23.50250Y23.40250
X23.60250Y1.20250
X23.60250Y1.50250
X23.60250Y4.40250
X23.60250Y4.70250
X23.60250Y19.10250
X23.60250Y19.60250
X23.60250Y23.00250
X23.60250Y23.40250
X23.70250Y1.40250
X23.70250Y1.60250
X23.70250Y4.60250
X23.70250Y4.80250
X23.70250Y10.90250
X23.70250Y11.10250
X23.70250Y13.30250
X23.70250Y14.80250
X23.70250Y15.00250
X23.70250Y17.20250
X23.70250Y17.30250
X23.70250Y17.80250
X23.70250Y19.10250
X23.70250Y19.60250
X23.70250Y23.00250
X23.70250Y23.80250
X23.70250Y24.70250
X23.70250Y24.80250
X23.70250Y24.90250
X23.70250Y25.00250
X23.70250Y26.30250
X23.70250Y26.40250
X23.70250Y26.50250
X23.70250Y27.10250
X23.70250Y27.20250
X23.70250Y27.30250
X23.70250Y27.40250
X23.70250Y28.70250
X23.70250Y28.80250
X23.70250Y28.90250
X23.70250Y29.50250
X23.70250Y29.60250
X23.70250Y29.70250
X23.70250Y29.80250
X23.70250Y31.10250
X23.70250Y31.20250
X23.70250Y31.30250
X23.70250Y31.90250
X23.70250Y32.00250
X23.70250Y32.10250
X23.70250Y32.20250
X23.70250Y33.50250
X23.70250Y33.60250
X23.70250Y33.70250
X23.80250Y1.20250
X23.80250Y1.60250
X23.80250Y2.60250
X23.80250Y3.00250
X23.80250Y4.40250
X23.80250Y4.80250
X23.80250Y10.80250
X23.80250Y11.10250
X23.80250Y14.70250
X23.80250Y15.00250
X23.80250Y21.50250
X23.80250Y21.60250
X23.80250Y21.70250
X23.90250Y1.00250
X23.90250Y1.10250
X23.90250Y1.30250
X23.90250Y1.40250
X23.90250Y1.50250
X23.90250Y2.50250
X23.90250Y2.70250
X23.90250Y2.80250
X23.90250Y2.90250
X23.90250Y4.50250
X23.90250Y4.60250
X23.90250Y5.00250
X23.90250Y5.10250
X23.90250Y6.60250
X23.90250Y6.70250
X23.90250Y6.80250
X23.90250Y6.90250
X23.90250Y7.00250
X23.90250Y8.50250
X23.90250Y8.60250
X23.90250Y8.70250
X23.90250Y8.80250
X23.90250Y8.90250
X23.90250Y9.00250
X23.90250Y9.10250
X23.90250Y9.20250
X23.90250Y10.80250
X23.90250Y10.90250
X23.90250Y11.00250
X23.90250Y14.10250
X23.90250Y14.20250
X23.90250Y14.70250
X23.90250Y14.80250
X23.90250Y14.90250
X23.90250Y18.10250
X23.90250Y18.20250
X23.90250Y18.30250
X23.90250Y18.30250
X23.90250Y18.40250
X23.90250Y18.50250
X23.90250Y18.60250
X23.90250Y18.70250
X23.90250Y21.50250
X23.90250Y21.60250
X23.90250Y21.70250
X23.90250Y23.10250
X23.90250Y23.20250
X23.90250Y23.30250
X23.90250Y23.60250
X23.90250Y23.70250
X23.90250Y24.70250
X23.90250Y24.80250
X23.90250Y24.90250
X23.90250Y25.00250
X23.90250Y26.30250
X23.90250Y26.40250
X23.90250Y26.50250
X23.90250Y27.10250
X23.90250Y27.20250
X23.90250Y27.30250
X23.90250Y27.40250
X23.90250Y28.70250
X23.90250Y28.80250
X23.90250Y28.90250
X23.90250Y29.50250
X23.90250Y29.60250
X23.90250Y29.70250
X23.90250Y29.80250
X23.90250Y31.10250
X23.90250Y31.20250
X23.90250Y31.30250
X23.90250Y31.90250
X23.90250Y32.00250
X23.90250Y32.10250
X23.90250Y32.20250
X23.90250Y33.50250
X23.90250Y33.60250
X23.90250Y33.70250
X24.40250Y1.00250
X24.40250Y1.10250
X24.40250Y1.30250
X24.40250Y1.40250
X24.40250Y1.50250
X24.40250Y2.50250
X24.40250Y2.70250
X24.40250Y2.80250
X24.40250Y2.90250
X24.40250Y4.50250
X24.40250Y4.60250
X24.40250Y5.00250
X24.40250Y5.10250
X24.40250Y6.60250
X24.40250Y6.70250
X24.40250Y6.80250
X24.40250Y6.90250
X24.40250Y7.00250
X24.40250Y8.50250
X24.40250Y8.60250
X24.40250Y8.70250
X24.40250Y8.80250
X24.40250Y8.90250
X24.40250Y9.00250
X24.40250Y9.10250
X24.40250Y9.20250
X24.40250Y10.80250
X24.40250Y10.90250
X24.40250Y11.00250
X24.40250Y14.10250
X24.40250Y14.20250
X24.40250Y14.70250
X24.40250Y14.80250
X24.40250Y14.90250
X24.40250Y18.10250
X24.40250Y18.20250
X24.40250Y18.30250
X24.40250Y18.40250
X24.40250Y18.50250
X24.40250Y18.60250
X24.40250Y18.70250
X24.40250Y21.50250
X24.40250Y21.60250
X24.40250Y21.70250
X24.40250Y23.10250
X24.40250Y23.20250
X24.40250Y23.30250
X24.40250Y23.60250
X24.40250Y23.70250
X24.40250Y24.70250
X24.40250Y24.80250
X24.40250Y24.90250
X24.40250Y25.00250
X24.40250Y26.30250
X24.40250Y26.40250
X24.40250Y26.50250
X24.40250Y27.10250
X24.40250Y27.20250
X24.40250Y27.30250
X24.40250Y27.40250
X24.40250Y28.70250
X24.40250Y28.80250
X24.40250Y28.90250
X24.40250Y29.50250
X24.40250Y29.60250
X24.40250Y29.70250
X24.40250Y29.80250
X24.40250Y31.10250
X24.40250Y31.20250
X24.40250Y31.30250
X24.40250Y31.90250
X24.40250Y32.00250
X24.40250Y32.10250
X24.40250Y32.20250
X24.40250Y33.50250
X24.40250Y33.60250
X24.40250Y33.70250
X24.50250Y1.10250
X24.50250Y1.60250
X24.50250Y2.60250
X24.50250Y3.20250
X24.50250Y18.00250
X24.50250Y18.80250
X24.50250Y19.10250
X24.50250Y19.60250
X24.50250Y21.40250
X24.50250Y21.80250
X24.50250Y23.00250
X24.50250Y23.80250
X24.50250Y24.00250
X24.50250Y24.50250
X24.50250Y31.80250
X24.50250Y32.30250
X24.60250Y1.10250
X24.60250Y1.60250
X24.60250Y4.50250
X24.60250Y18.00250
X24.60250Y18.80250
X24.60250Y19.10250
X24.60250Y19.60250
X24.60250Y21.40250
X24.60250Y21.80250
X24.60250Y23.00250
X24.60250Y23.60250
X24.60250Y24.00250
X24.60250Y24.50250
X24.60250Y31.80250
X24.60250Y32.30250
X24.70250Y1.10250
X24.70250Y1.60250
X24.70250Y3.00250
X24.70250Y3.20250
X24.70250Y18.00250
X24.70250Y18.80250
X24.70250Y19.10250
X24.70250Y19.60250
X24.70250Y21.40250
X24.70250Y21.80250
X24.70250Y23.00250
X24.70250Y23.60250
X24.70250Y24.00250
X24.70250Y24.50250
X24.70250Y31.80250
X24.70250Y32.30250
X24.80250Y4.50250
X24.80250Y18.00250
X24.80250Y18.80250
X24.80250Y19.10250
X24.80250Y19.60250
X24.80250Y21.40250
X24.80250Y21.80250
X24.80250Y23.00250
X24.80250Y23.60250
X24.80250Y24.00250
X24.80250Y24.50250
X24.80250Y26.30250
X24.80250Y26.40250
X24.80250Y26.50250
X24.90250Y3.10250
X24.90250Y18.00250
X24.90250Y18.80250
X24.90250Y19.10250
X24.90250Y19.60250
X24.90250Y21.40250
X24.90250Y21.80250
X24.90250Y23.00250
X24.90250Y23.60250
X24.90250Y24.00250
X24.90250Y24.50250
X25.00250Y9.00250
X25.00250Y9.10250
X25.00250Y9.20250
X25.00250Y10.80250
X25.00250Y10.90250
X25.00250Y11.00250
X25.00250Y19.10250
X25.00250Y19.60250
X25.00250Y21.40250
X25.00250Y21.80250
X25.00250Y23.00250
X25.00250Y23.50250
X25.00250Y24.00250
X25.00250Y24.50250
X25.10250Y3.10250
X25.10250Y8.40250
X25.10250Y8.90250
X25.10250Y9.40250
X25.10250Y9.90250
X25.10250Y18.00250
X25.10250Y18.80250
X25.10250Y19.10250
X25.10250Y19.60250
X25.10250Y21.40250
X25.10250Y21.80250
X25.10250Y23.00250
X25.10250Y23.50250
X25.10250Y24.00250
X25.10250Y24.50250
X25.20250Y4.20250
X25.20250Y4.40250
X25.20250Y8.40250
X25.20250Y8.80250
X25.20250Y9.40250
X25.20250Y9.90250
X25.20250Y15.50250
X25.20250Y15.60250
X25.20250Y15.70250
X25.20250Y18.00250
X25.20250Y18.80250
X25.20250Y19.10250
X25.20250Y19.60250
X25.20250Y21.40250
X25.20250Y21.80250
X25.20250Y23.00250
X25.20250Y23.50250
X25.20250Y24.00250
X25.20250Y24.50250
X25.20250Y27.50250
X25.20250Y27.60250
X25.20250Y27.70250
X25.30250Y0.20250
X25.30250Y0.90250
X25.30250Y1.10250
X25.30250Y1.90250
X25.30250Y2.10250
X25.30250Y2.90250
X25.30250Y3.10250
X25.30250Y3.90250
X25.30250Y4.10250
X25.30250Y6.00250
X25.30250Y6.20250
X25.30250Y9.40250
X25.30250Y9.90250
X25.30250Y14.30250
X25.30250Y14.70250
X25.30250Y18.10250
X25.30250Y18.80250
X25.30250Y19.10250
X25.30250Y19.60250
X25.30250Y21.40250
X25.30250Y21.80250
X25.30250Y23.00250
X25.30250Y23.60250
X25.30250Y24.00250
X25.30250Y24.50250
X25.30250Y28.90250
X25.30250Y29.30250
X25.40250Y0.20250
X25.40250Y1.00250
X25.40250Y2.00250
X25.40250Y3.00250
X25.40250Y4.00250
X25.40250Y5.40250
X25.40250Y6.10250
X25.40250Y9.00250
X25.40250Y9.10250
X25.40250Y9.40250
X25.40250Y9.90250
X25.40250Y14.30250
X25.40250Y14.70250
X25.40250Y18.20250
X25.40250Y18.80250
X25.40250Y19.10250
X25.40250Y19.60250
X25.40250Y21.40250
X25.40250Y21.80250
X25.40250Y23.00250
X25.40250Y23.60250
X25.40250Y24.00250
X25.40250Y24.50250
X25.40250Y28.90250
X25.40250Y29.30250
X25.50250Y0.20250
X25.50250Y0.50250
X25.50250Y0.70250
X25.50250Y0.90250
X25.50250Y1.30250
X25.50250Y1.40250
X25.50250Y1.50250
X25.50250Y1.70250
X25.50250Y1.90250
X25.50250Y2.30250
X25.50250Y2.40250
X25.50250Y2.50250
X25.50250Y2.70250
X25.50250Y2.90250
X25.50250Y3.40250
X25.50250Y3.50250
X25.50250Y3.70250
X25.50250Y3.90250
X25.50250Y4.30250
X25.50250Y4.40250
X25.50250Y4.60250
X25.50250Y5.00250
X25.50250Y5.70250
X25.50250Y6.00250
X25.50250Y8.40250
X25.50250Y8.70250
X25.50250Y9.40250
X25.50250Y9.90250
X25.50250Y14.30250
X25.50250Y14.70250
X25.50250Y18.30250
X25.50250Y18.30250
X25.50250Y18.80250
X25.50250Y19.10250
X25.50250Y19.60250
X25.50250Y21.40250
X25.50250Y21.80250
X25.50250Y23.00250
X25.50250Y23.60250
X25.50250Y24.00250
X25.50250Y24.50250
X25.50250Y28.90250
X25.50250Y29.30250
X25.60250Y0.20250
X25.60250Y4.60250
X25.60250Y5.00250
X25.60250Y6.80250
X25.60250Y6.90250
X25.60250Y7.00250
X25.60250Y8.40250
X25.60250Y8.70250
X25.60250Y9.40250
X25.60250Y9.90250
X25.60250Y14.30250
X25.60250Y14.70250
X25.60250Y18.40250
X25.60250Y18.80250
X25.60250Y19.10250
X25.60250Y19.60250
X25.60250Y21.40250
X25.60250Y21.80250
X25.60250Y23.00250
X25.60250Y23.20250
X25.60250Y23.30250
X25.60250Y23.60250
X25.60250Y24.00250
X25.60250Y24.50250
X25.60250Y28.90250
X25.60250Y29.30250
X25.70250Y0.20250
X25.70250Y4.60250
X25.70250Y5.00250
X25.70250Y9.20250
X25.70250Y9.40250
X25.70250Y9.90250
X25.70250Y14.30250
X25.70250Y14.70250
X25.70250Y18.50250
X25.70250Y18.80250
X25.70250Y19.10250
X25.70250Y19.60250
X25.70250Y21.40250
X25.70250Y21.80250
X25.70250Y23.00250
X25.70250Y23.50250
X25.70250Y24.00250
X25.70250Y24.50250
X25.70250Y28.90250
X25.70250Y29.30250
X25.80250Y0.20250
X25.80250Y4.60250
X25.80250Y5.00250
X25.80250Y9.40250
X25.80250Y9.90250
X25.80250Y14.30250
X25.80250Y14.70250
X25.80250Y18.60250
X25.80250Y18.80250
X25.80250Y19.10250
X25.80250Y19.60250
X25.80250Y21.40250
X25.80250Y21.80250
X25.80250Y23.00250
X25.80250Y23.20250
X25.80250Y24.00250
X25.80250Y24.50250
X25.80250Y28.90250
X25.80250Y29.30250
X25.90250Y0.20250
X25.90250Y0.50250
X25.90250Y4.60250
X25.90250Y5.00250
X25.90250Y9.40250
X25.90250Y9.90250
X25.90250Y14.30250
X25.90250Y14.70250
X25.90250Y19.10250
X25.90250Y19.60250
X25.90250Y21.40250
X25.90250Y21.80250
X25.90250Y24.00250
X25.90250Y24.50250
X25.90250Y28.90250
X25.90250Y29.30250
X26.00250Y0.20250
X26.00250Y3.40250
X26.00250Y4.60250
X26.00250Y5.00250
X26.00250Y9.40250
X26.00250Y9.90250
X26.00250Y14.30250
X26.00250Y14.70250
X26.00250Y19.10250
X26.00250Y19.60250
X26.00250Y21.40250
X26.00250Y21.80250
X26.00250Y24.00250
X26.00250Y24.50250
X26.00250Y28.90250
X26.00250Y29.30250
X26.10250Y0.20250
X26.10250Y3.50250
X26.10250Y4.60250
X26.10250Y5.00250
X26.10250Y11.00250
X26.10250Y15.70250
X26.10250Y26.30250
X26.10250Y26.40250
X26.10250Y26.50250
X26.10250Y27.50250
X26.10250Y27.60250
X26.10250Y27.70250
X26.20250Y0.20250
X26.20250Y4.60250
X26.20250Y5.00250
X26.20250Y9.40250
X26.20250Y9.90250
X26.20250Y14.30250
X26.20250Y14.70250
X26.20250Y19.10250
X26.20250Y19.60250
X26.20250Y21.50250
X26.20250Y21.60250
X26.20250Y24.00250
X26.20250Y24.50250
X26.20250Y26.30250
X26.20250Y26.40250
X26.20250Y27.50250
X26.20250Y27.60250
X26.20250Y28.90250
X26.20250Y29.30250
X26.20250Y32.40250
X26.20250Y32.50250
X26.20250Y32.70250
X26.20250Y32.80250
X26.20250Y33.70250
X26.20250Y34.20250
X26.30250Y0.20250
X26.30250Y1.50250
X26.30250Y2.50250
X26.30250Y4.60250
X26.30250Y5.00250
X26.30250Y5.40250
X26.30250Y7.00250
X26.30250Y9.40250
X26.30250Y9.90250
X26.30250Y14.30250
X26.30250Y14.70250
X26.30250Y19.10250
X26.30250Y19.60250
X26.30250Y24.00250
X26.30250Y24.50250
X26.30250Y28.90250
X26.30250Y29.30250
X26.30250Y33.70250
X26.30250Y34.20250
X26.40250Y0.20250
X26.40250Y4.60250
X26.40250Y5.00250
X26.40250Y9.40250
X26.40250Y9.90250
X26.40250Y14.30250
X26.40250Y14.70250
X26.40250Y19.10250
X26.40250Y19.60250
X26.40250Y24.00250
X26.40250Y24.50250
X26.40250Y28.90250
X26.40250Y29.30250
X26.40250Y33.70250
X26.40250Y34.20250
X26.50250Y0.20250
X26.50250Y0.70250
X26.50250Y1.40250
X26.50250Y1.70250
X26.50250Y2.40250
X26.50250Y2.70250
X26.50250Y3.70250
X26.50250Y4.40250
X26.50250Y4.60250
X26.50250Y5.00250
X26.50250Y5.70250
X26.50250Y6.90250
X26.50250Y9.40250
X26.50250Y9.90250
X26.50250Y10.90250
X26.50250Y14.30250
X26.50250Y14.70250
X26.50250Y15.60250
X26.50250Y19.10250
X26.50250Y19.60250
X26.50250Y21.60250
X26.50250Y24.00250
X26.50250Y24.50250
X26.50250Y26.40250
X26.50250Y27.60250
X26.50250Y28.90250
X26.50250Y29.30250
X26.50250Y32.50250
X26.50250Y32.80250
X26.50250Y33.70250
X26.50250Y34.20250
X26.60250Y0.20250
X26.60250Y4.60250
X26.60250Y5.00250
X26.60250Y9.40250
X26.60250Y9.90250
X26.60250Y14.30250
X26.60250Y14.70250
X26.60250Y19.10250
X26.60250Y19.60250
X26.60250Y24.00250
X26.60250Y24.50250
X26.60250Y28.90250
X26.60250Y29.30250
X26.60250Y33.70250
X26.60250Y34.20250
X26.70250Y0.20250
X26.70250Y1.30250
X26.70250Y2.30250
X26.70250Y4.30250
X26.70250Y4.60250
X26.70250Y5.00250
X26.70250Y6.80250
X26.70250Y9.40250
X26.70250Y9.90250
X26.70250Y10.80250
X26.70250Y14.30250
X26.70250Y14.70250
X26.70250Y15.50250
X26.70250Y19.10250
X26.70250Y19.60250
X26.70250Y21.50250
X26.70250Y24.00250
X26.70250Y24.50250
X26.70250Y26.30250
X26.70250Y27.50250
X26.70250Y28.90250
X26.70250Y29.30250
X26.70250Y32.40250
X26.70250Y32.70250
X26.70250Y33.70250
X26.70250Y34.20250
T003
X3.59305Y5.47337
X3.59305Y5.59148
X3.59305Y5.70959
X3.80250Y5.50250
X3.80250Y5.60250
X3.90250Y3.50250
X3.90250Y3.60250
X4.00250Y22.60250
X4.00250Y22.70250
X4.30250Y5.60250
X4.30250Y5.70250
X4.60250Y25.20250
X4.60250Y25.30250
X4.60250Y27.60250
X4.60250Y27.70250
X4.60250Y30.00250
X4.60250Y30.10250
X4.60250Y32.40250
X4.60250Y32.50250
X4.70250Y16.60250
X4.70250Y16.70250
X4.70250Y19.90250
X4.70250Y20.00250
X5.30250Y22.60250
X5.30250Y22.70250
X5.50250Y10.60250
X5.50250Y10.70250
X5.50250Y25.20250
X5.50250Y25.30250
X5.50250Y27.60250
X5.50250Y27.70250
X5.50250Y30.00250
X5.50250Y30.10250
X5.50250Y32.40250
X5.50250Y32.50250
X5.60250Y5.60250
X5.60250Y5.70250
X5.90250Y16.60250
X5.90250Y16.70250
X6.40250Y10.60250
X6.40250Y10.70250
X6.40250Y25.20250
X6.40250Y25.30250
X6.40250Y27.60250
X6.40250Y27.70250
X6.40250Y30.00250
X6.40250Y30.10250
X6.40250Y32.40250
X6.40250Y32.50250
X7.30250Y3.50250
X7.30250Y3.60250
X7.30250Y8.30250
X7.30250Y8.40250
X7.30250Y25.20250
X7.30250Y25.30250
X7.30250Y27.60250
X7.30250Y27.70250
X7.30250Y30.00250
X7.30250Y30.10250
X7.30250Y32.40250
X7.30250Y32.50250
X7.90250Y0.80250
X7.90250Y0.90250
X7.90250Y5.60250
X7.90250Y5.70250
X8.20250Y25.20250
X8.20250Y25.30250
X8.20250Y27.60250
X8.20250Y27.70250
X8.20250Y30.00250
X8.20250Y30.10250
X8.20250Y32.40250
X8.20250Y32.50250
X8.30250Y20.30250
X8.30250Y20.40250
X9.10250Y25.20250
X9.10250Y25.30250
X9.10250Y27.60250
X9.10250Y27.70250
X9.10250Y30.00250
X9.10250Y30.10250
X9.10250Y32.40250
X9.10250Y32.50250
X9.20250Y20.30250
X9.20250Y20.40250
X9.60250Y0.90250
X9.60250Y1.00250
X9.60250Y5.70250
X9.60250Y5.80250
X9.70250Y16.30250
X9.70250Y16.40250
X9.80250Y3.20250
X9.80250Y3.30250
X10.10250Y20.30250
X10.10250Y20.40250
X10.30250Y10.70250
X10.30250Y10.80250
X10.30250Y14.00250
X10.30250Y14.10250
X10.50250Y0.90250
X10.50250Y1.00250
X10.50250Y5.70250
X10.50250Y5.80250
X11.00250Y13.00250
X11.00250Y13.10250
X11.00250Y16.30250
X11.00250Y16.40250
X11.00250Y20.30250
X11.00250Y20.40250
X11.40250Y0.90250
X11.40250Y1.00250
X11.40250Y5.70250
X11.40250Y5.80250
X11.60250Y10.70250
X11.60250Y10.80250
X11.60250Y14.10250
X11.60250Y14.20250
X11.90250Y20.30250
X11.90250Y20.40250
X12.10250Y12.90250
X12.10250Y13.00250
X12.10250Y16.20250
X12.10250Y16.30250
X12.30250Y0.90250
X12.30250Y1.00250
X12.30250Y5.70250
X12.30250Y5.80250
X12.40250Y3.20250
X12.40250Y3.30250
X12.70250Y10.70250
X12.70250Y10.80250
X12.70250Y14.00250
X12.70250Y14.10250
X12.80250Y20.30250
X12.80250Y20.40250
X13.20250Y0.90250
X13.20250Y1.00250
X13.20250Y5.70250
X13.20250Y5.80250
X13.40250Y13.00250
X13.40250Y13.10250
X13.40250Y16.30250
X13.40250Y16.40250
X14.00250Y10.70250
X14.00250Y10.80250
X14.00250Y14.00250
X14.00250Y14.10250
X14.10250Y0.90250
X14.10250Y1.00250
X14.10250Y5.70250
X14.10250Y5.80250
X14.10250Y25.50250
X14.10250Y27.90250
X14.10250Y30.30250
X14.10250Y32.70250
X14.20250Y25.50250
X14.20250Y27.90250
X14.20250Y30.30250
X14.20250Y32.70250
X15.30250Y20.00250
X15.30250Y20.10250
X15.40250Y25.50250
X15.40250Y27.90250
X15.40250Y30.30250
X15.40250Y32.70250
X15.50250Y25.50250
X15.50250Y27.90250
X15.50250Y30.30250
X15.50250Y32.70250
X15.60250Y16.60250
X15.60250Y16.70250
X15.80250Y22.70250
X15.80250Y22.80250
X16.00250Y10.60250
X16.00250Y10.70250
X16.00250Y13.90250
X16.00250Y14.00250
X16.20250Y20.00250
X16.20250Y20.10250
X16.70250Y25.50250
X16.70250Y27.90250
X16.70250Y30.30250
X16.70250Y32.70250
X16.80250Y25.50250
X16.80250Y27.90250
X16.80250Y30.30250
X16.80250Y32.70250
X17.10250Y0.70250
X17.10250Y0.80250
X17.20250Y2.10250
X17.20250Y2.20250
X17.90250Y5.60250
X17.90250Y5.70250
X18.00250Y25.50250
X18.00250Y27.90250
X18.00250Y30.30250
X18.00250Y32.70250
X18.10250Y12.90250
X18.10250Y13.00250
X18.10250Y16.80250
X18.10250Y16.90250
X18.10250Y25.50250
X18.10250Y27.90250
X18.10250Y30.30250
X18.10250Y32.70250
X18.20250Y10.30250
X18.20250Y10.40250
X18.20250Y14.20250
X18.20250Y14.30250
X18.50250Y0.50250
X18.60250Y0.50250
X19.00250Y1.80250
X19.00250Y12.90250
X19.00250Y13.00250
X19.00250Y16.80250
X19.00250Y16.90250
X19.10250Y1.80250
X19.10250Y10.30250
X19.10250Y10.40250
X19.10250Y14.20250
X19.10250Y14.30250
X19.20250Y5.60250
X19.20250Y5.70250
X19.50250Y20.30250
X19.50250Y20.40250
X19.70250Y2.10250
X19.70250Y2.20250
X19.90250Y12.90250
X19.90250Y13.00250
X19.90250Y16.80250
X19.90250Y16.90250
X20.00250Y10.30250
X20.00250Y10.40250
X20.00250Y14.20250
X20.00250Y14.30250
X20.10250Y5.60250
X20.10250Y5.70250
X20.40250Y20.30250
X20.40250Y20.40250
X20.80250Y12.90250
X20.80250Y13.00250
X20.80250Y16.80250
X20.80250Y16.90250
X20.90250Y10.30250
X20.90250Y10.40250
X20.90250Y14.20250
X20.90250Y14.30250
X21.10250Y1.90250
X21.20250Y1.90250
X21.60250Y20.30250
X21.60250Y20.40250
X22.50250Y20.30250
X22.50250Y20.40250
T004
X11.70250Y34.50250
X11.70250Y37.20250
X12.06077Y35.26156
X12.09699Y35.73400
X13.00250Y35.73400
X13.14344Y35.26156
X13.76077Y35.26156
X13.79699Y35.73400
X14.70250Y35.73400
X14.84344Y35.26156
X15.20250Y37.20250
X16.10250Y35.10250
T005
X1.51746Y25.82140
X1.51746Y27.58360
X1.51746Y30.62140
X1.51746Y32.38360
X1.56864Y25.68360
X1.56864Y27.72140
X1.56864Y30.48360
X1.56864Y32.52140
X1.57258Y25.94738
X1.57258Y27.46156
X1.57258Y30.74738
X1.57258Y32.26156
X1.70250Y26.00250
X1.70250Y27.40250
X1.70250Y30.80250
X1.70250Y32.20250
X1.83242Y25.94344
X1.83242Y27.45762
X1.83242Y30.74344
X1.83242Y32.25762
X1.83636Y25.68360
X1.83636Y27.72140
X1.83636Y30.48360
X1.83636Y32.52140
X1.88754Y25.82140
X1.88754Y27.58360
X1.88754Y30.62140
X1.88754Y32.38360
X3.81746Y6.12140
X3.81746Y7.88360
X3.86864Y5.98360
X3.86864Y8.02140
X3.87258Y6.24738
X3.87258Y7.76156
X4.00250Y6.30250
X4.00250Y7.70250
X4.01746Y1.32140
X4.01746Y3.08360
X4.06864Y1.18360
X4.06864Y3.22140
X4.07258Y1.44738
X4.07258Y2.96156
X4.11746Y22.18360
X4.11746Y25.72140
X4.11746Y28.12140
X4.11746Y30.52140
X4.11746Y32.92140
X4.13242Y6.24344
X4.13242Y7.75762
X4.13636Y5.98360
X4.13636Y8.02140
X4.16864Y22.32140
X4.16864Y25.58360
X4.16864Y27.98360
X4.16864Y30.38360
X4.16864Y32.78360
X4.17258Y22.06156
X4.17258Y25.84738
X4.17258Y28.24738
X4.17258Y30.64738
X4.17258Y33.04738
X4.18754Y6.12140
X4.18754Y7.88360
X4.20250Y1.50250
X4.20250Y2.90250
X4.21746Y20.42140
X4.26864Y20.28360
X4.27258Y20.54738
X4.30250Y22.00250
X4.30250Y25.90250
X4.30250Y28.30250
X4.30250Y30.70250
X4.30250Y33.10250
X4.33242Y1.44344
X4.33242Y2.95762
X4.33636Y1.18360
X4.33636Y3.22140
X4.38754Y1.32140
X4.38754Y3.08360
X4.40250Y20.60250
X4.43242Y22.05762
X4.43242Y25.84344
X4.43242Y28.24344
X4.43242Y30.64344
X4.43242Y33.04344
X4.43636Y22.32140
X4.43636Y25.58360
X4.43636Y27.98360
X4.43636Y30.38360
X4.43636Y32.78360
X4.48754Y22.18360
X4.48754Y25.72140
X4.48754Y28.12140
X4.48754Y30.52140
X4.48754Y32.92140
X4.53242Y20.54344
X4.53636Y20.28360
X4.58754Y20.42140
X4.81746Y14.42140
X4.81746Y16.18360
X4.86864Y14.28360
X4.86864Y16.32140
X4.87258Y14.54738
X4.87258Y16.06156
X5.00250Y14.60250
X5.00250Y16.00250
X5.01746Y11.12140
X5.01746Y25.72140
X5.01746Y28.12140
X5.01746Y30.52140
X5.01746Y32.92140
X5.06864Y10.98360
X5.06864Y25.58360
X5.06864Y27.98360
X5.06864Y30.38360
X5.06864Y32.78360
X5.07258Y11.24738
X5.07258Y25.84738
X5.07258Y28.24738
X5.07258Y30.64738
X5.07258Y33.04738
X5.11746Y6.12140
X5.11746Y7.88360
X5.13242Y14.54344
X5.13242Y16.05762
X5.13636Y14.28360
X5.13636Y16.32140
X5.16864Y5.98360
X5.16864Y8.02140
X5.17258Y6.24738
X5.17258Y7.76156
X5.18754Y14.42140
X5.18754Y16.18360
X5.20250Y11.30250
X5.20250Y25.90250
X5.20250Y28.30250
X5.20250Y30.70250
X5.20250Y33.10250
X5.30250Y6.30250
X5.30250Y7.70250
X5.31746Y1.32140
X5.31746Y3.08360
X5.31746Y20.42140
X5.33242Y11.24344
X5.33242Y25.84344
X5.33242Y28.24344
X5.33242Y30.64344
X5.33242Y33.04344
X5.33636Y10.98360
X5.33636Y25.58360
X5.33636Y27.98360
X5.33636Y30.38360
X5.33636Y32.78360
X5.36864Y1.18360
X5.36864Y3.22140
X5.36864Y20.28360
X5.37258Y1.44738
X5.37258Y2.96156
X5.37258Y20.54738
X5.38754Y11.12140
X5.38754Y25.72140
X5.38754Y28.12140
X5.38754Y30.52140
X5.38754Y32.92140
X5.41746Y22.18360
X5.43242Y6.24344
X5.43242Y7.75762
X5.43636Y5.98360
X5.43636Y8.02140
X5.46864Y22.32140
X5.47258Y22.06156
X5.48754Y6.12140
X5.48754Y7.88360
X5.50250Y1.50250
X5.50250Y2.90250
X5.50250Y20.60250
X5.60250Y22.00250
X5.63242Y1.44344
X5.63242Y2.95762
X5.63242Y20.54344
X5.63636Y1.18360
X5.63636Y3.22140
X5.63636Y20.28360
X5.68754Y1.32140
X5.68754Y3.08360
X5.68754Y20.42140
X5.73242Y22.05762
X5.73636Y22.32140
X5.78754Y22.18360
X5.81746Y14.42140
X5.86864Y14.28360
X5.87258Y14.54738
X5.91746Y11.12140
X5.91746Y25.72140
X5.91746Y28.12140
X5.91746Y30.52140
X5.91746Y32.92140
X5.96864Y10.98360
X5.96864Y25.58360
X5.96864Y27.98360
X5.96864Y30.38360
X5.96864Y32.78360
X5.97258Y11.24738
X5.97258Y25.84738
X5.97258Y28.24738
X5.97258Y30.64738
X5.97258Y33.04738
X6.00250Y14.60250
X6.01746Y16.18360
X6.06864Y16.32140
X6.07258Y16.06156
X6.10250Y11.30250
X6.10250Y25.90250
X6.10250Y28.30250
X6.10250Y30.70250
X6.10250Y33.10250
X6.13242Y14.54344
X6.13636Y14.28360
X6.18754Y14.42140
X6.20250Y16.00250
X6.23242Y11.24344
X6.23242Y25.84344
X6.23242Y28.24344
X6.23242Y30.64344
X6.23242Y33.04344
X6.23636Y10.98360
X6.23636Y25.58360
X6.23636Y27.98360
X6.23636Y30.38360
X6.23636Y32.78360
X6.28754Y11.12140
X6.28754Y25.72140
X6.28754Y28.12140
X6.28754Y30.52140
X6.28754Y32.92140
X6.33242Y16.05762
X6.33636Y16.32140
X6.38754Y16.18360
X6.81746Y25.72140
X6.81746Y28.12140
X6.81746Y30.52140
X6.81746Y32.92140
X6.86864Y25.58360
X6.86864Y27.98360
X6.86864Y30.38360
X6.86864Y32.78360
X6.87258Y25.84738
X6.87258Y28.24738
X6.87258Y30.64738
X6.87258Y33.04738
X7.00250Y25.90250
X7.00250Y28.30250
X7.00250Y30.70250
X7.00250Y33.10250
X7.13242Y25.84344
X7.13242Y28.24344
X7.13242Y30.64344
X7.13242Y33.04344
X7.13636Y25.58360
X7.13636Y27.98360
X7.13636Y30.38360
X7.13636Y32.78360
X7.18754Y25.72140
X7.18754Y28.12140
X7.18754Y30.52140
X7.18754Y32.92140
X7.41746Y1.32140
X7.41746Y3.08360
X7.41746Y6.12140
X7.41746Y7.88360
X7.46864Y1.18360
X7.46864Y3.22140
X7.46864Y5.98360
X7.46864Y8.02140
X7.47258Y1.44738
X7.47258Y2.96156
X7.47258Y6.24738
X7.47258Y7.76156
X7.60250Y1.50250
X7.60250Y2.90250
X7.60250Y6.30250
X7.60250Y7.70250
X7.71746Y25.72140
X7.71746Y28.12140
X7.71746Y30.52140
X7.71746Y32.92140
X7.73242Y1.44344
X7.73242Y2.95762
X7.73242Y6.24344
X7.73242Y7.75762
X7.73636Y1.18360
X7.73636Y3.22140
X7.73636Y5.98360
X7.73636Y8.02140
X7.76864Y25.58360
X7.76864Y27.98360
X7.76864Y30.38360
X7.76864Y32.78360
X7.77258Y25.84738
X7.77258Y28.24738
X7.77258Y30.64738
X7.77258Y33.04738
X7.78754Y1.32140
X7.78754Y3.08360
X7.78754Y6.12140
X7.78754Y7.88360
X7.81746Y20.82140
X7.86864Y20.68360
X7.87258Y20.94738
X7.90250Y25.90250
X7.90250Y28.30250
X7.90250Y30.70250
X7.90250Y33.10250
X8.00250Y21.00250
X8.03242Y25.84344
X8.03242Y28.24344
X8.03242Y30.64344
X8.03242Y33.04344
X8.03636Y25.58360
X8.03636Y27.98360
X8.03636Y30.38360
X8.03636Y32.78360
X8.08754Y25.72140
X8.08754Y28.12140
X8.08754Y30.52140
X8.08754Y32.92140
X8.13242Y20.94344
X8.13636Y20.68360
X8.18754Y20.82140
X8.61746Y25.72140
X8.61746Y28.12140
X8.61746Y30.52140
X8.61746Y32.92140
X8.66864Y25.58360
X8.66864Y27.98360
X8.66864Y30.38360
X8.66864Y32.78360
X8.67258Y25.84738
X8.67258Y28.24738
X8.67258Y30.64738
X8.67258Y33.04738
X8.71746Y20.82140
X8.76864Y20.68360
X8.77258Y20.94738
X8.80250Y25.90250
X8.80250Y28.30250
X8.80250Y30.70250
X8.80250Y33.10250
X8.90250Y21.00250
X8.93242Y25.84344
X8.93242Y28.24344
X8.93242Y30.64344
X8.93242Y33.04344
X8.93636Y25.58360
X8.93636Y27.98360
X8.93636Y30.38360
X8.93636Y32.78360
X8.98754Y25.72140
X8.98754Y28.12140
X8.98754Y30.52140
X8.98754Y32.92140
X9.03242Y20.94344
X9.03636Y20.68360
X9.08754Y20.82140
X9.11746Y1.42140
X9.11746Y6.22140
X9.16864Y1.28360
X9.16864Y6.08360
X9.17258Y1.54738
X9.17258Y6.34738
X9.30250Y1.60250
X9.30250Y6.40250
X9.31746Y3.62140
X9.36864Y3.48360
X9.37258Y3.74738
X9.43242Y1.54344
X9.43242Y6.34344
X9.43636Y1.28360
X9.43636Y6.08360
X9.48754Y1.42140
X9.48754Y6.22140
X9.50250Y3.80250
X9.61746Y20.82140
X9.63242Y3.74344
X9.63636Y3.48360
X9.66864Y20.68360
X9.67258Y20.94738
X9.68754Y3.62140
X9.71746Y22.72140
X9.76864Y22.58360
X9.77258Y22.84738
X9.80250Y21.00250
X9.81746Y11.22140
X9.81746Y12.58360
X9.81746Y14.52140
X9.81746Y15.88360
X9.86864Y11.08360
X9.86864Y12.72140
X9.86864Y14.38360
X9.86864Y16.02140
X9.87258Y11.34738
X9.87258Y12.46156
X9.87258Y14.64738
X9.87258Y15.76156
X9.90250Y22.90250
X9.93242Y20.94344
X9.93636Y20.68360
X9.98754Y20.82140
X10.00250Y11.40250
X10.00250Y12.40250
X10.00250Y14.70250
X10.00250Y15.70250
X10.01746Y1.42140
X10.01746Y6.22140
X10.03242Y22.84344
X10.03636Y22.58360
X10.06864Y1.28360
X10.06864Y6.08360
X10.07258Y1.54738
X10.07258Y6.34738
X10.08754Y22.72140
X10.11746Y25.62140
X10.11746Y28.02140
X10.11746Y30.42140
X10.11746Y32.82140
X10.13242Y11.34344
X10.13242Y12.45762
X10.13242Y14.64344
X10.13242Y15.75762
X10.13636Y11.08360
X10.13636Y12.72140
X10.13636Y14.38360
X10.13636Y16.02140
X10.16864Y25.48360
X10.16864Y27.88360
X10.16864Y30.28360
X10.16864Y32.68360
X10.17258Y25.74738
X10.17258Y28.14738
X10.17258Y30.54738
X10.17258Y32.94738
X10.18754Y11.22140
X10.18754Y12.58360
X10.18754Y14.52140
X10.18754Y15.88360
X10.20250Y1.60250
X10.20250Y6.40250
X10.21746Y3.62140
X10.26864Y3.48360
X10.27258Y3.74738
X10.30250Y25.80250
X10.30250Y28.20250
X10.30250Y30.60250
X10.30250Y33.00250
X10.33242Y1.54344
X10.33242Y6.34344
X10.33636Y1.28360
X10.33636Y6.08360
X10.38754Y1.42140
X10.38754Y6.22140
X10.40250Y3.80250
X10.43242Y25.74344
X10.43242Y28.14344
X10.43242Y30.54344
X10.43242Y32.94344
X10.43636Y25.48360
X10.43636Y27.88360
X10.43636Y30.28360
X10.43636Y32.68360
X10.48754Y25.62140
X10.48754Y28.02140
X10.48754Y30.42140
X10.48754Y32.82140
X10.51746Y20.82140
X10.53242Y3.74344
X10.53636Y3.48360
X10.56864Y20.68360
X10.57258Y20.94738
X10.58754Y3.62140
X10.70250Y21.00250
X10.81746Y22.72140
X10.83242Y20.94344
X10.83636Y20.68360
X10.86864Y22.58360
X10.87258Y22.84738
X10.88754Y20.82140
X10.91746Y1.42140
X10.91746Y6.22140
X10.91746Y25.62140
X10.91746Y28.02140
X10.91746Y30.42140
X10.91746Y32.82140
X10.96864Y1.28360
X10.96864Y6.08360
X10.96864Y25.48360
X10.96864Y27.88360
X10.96864Y30.28360
X10.96864Y32.68360
X10.97258Y1.54738
X10.97258Y6.34738
X10.97258Y25.74738
X10.97258Y28.14738
X10.97258Y30.54738
X10.97258Y32.94738
X11.00250Y22.90250
X11.10250Y1.60250
X11.10250Y6.40250
X11.10250Y25.80250
X11.10250Y28.20250
X11.10250Y30.60250
X11.10250Y33.00250
X11.11746Y11.22140
X11.11746Y12.58360
X11.11746Y14.52140
X11.11746Y15.88360
X11.13242Y22.84344
X11.13636Y22.58360
X11.16864Y11.08360
X11.16864Y12.72140
X11.16864Y14.38360
X11.16864Y16.02140
X11.17258Y11.34738
X11.17258Y12.46156
X11.17258Y14.64738
X11.17258Y15.76156
X11.18754Y22.72140
X11.23242Y1.54344
X11.23242Y6.34344
X11.23242Y25.74344
X11.23242Y28.14344
X11.23242Y30.54344
X11.23242Y32.94344
X11.23636Y1.28360
X11.23636Y6.08360
X11.23636Y25.48360
X11.23636Y27.88360
X11.23636Y30.28360
X11.23636Y32.68360
X11.28754Y1.42140
X11.28754Y6.22140
X11.28754Y25.62140
X11.28754Y28.02140
X11.28754Y30.42140
X11.28754Y32.82140
X11.30250Y11.40250
X11.30250Y12.40250
X11.30250Y14.70250
X11.30250Y15.70250
X11.41746Y20.82140
X11.43242Y11.34344
X11.43242Y12.45762
X11.43242Y14.64344
X11.43242Y15.75762
X11.43636Y11.08360
X11.43636Y12.72140
X11.43636Y14.38360
X11.43636Y16.02140
X11.46864Y20.68360
X11.47258Y20.94738
X11.48754Y11.22140
X11.48754Y12.58360
X11.48754Y14.52140
X11.48754Y15.88360
X11.60250Y21.00250
X11.73242Y20.94344
X11.73636Y20.68360
X11.78754Y20.82140
X11.81746Y1.42140
X11.81746Y6.22140
X11.86864Y1.28360
X11.86864Y6.08360
X11.87258Y1.54738
X11.87258Y6.34738
X11.91746Y3.62140
X11.96864Y3.48360
X11.97258Y3.74738
X12.00250Y1.60250
X12.00250Y6.40250
X12.10250Y3.80250
X12.13242Y1.54344
X12.13242Y6.34344
X12.13636Y1.28360
X12.13636Y6.08360
X12.18754Y1.42140
X12.18754Y6.22140
X12.21746Y11.22140
X12.21746Y12.58360
X12.21746Y14.52140
X12.21746Y15.88360
X12.23242Y3.74344
X12.23636Y3.48360
X12.26864Y11.08360
X12.26864Y12.72140
X12.26864Y14.38360
X12.26864Y16.02140
X12.27258Y11.34738
X12.27258Y12.46156
X12.27258Y14.64738
X12.27258Y15.76156
X12.28754Y3.62140
X12.31746Y20.82140
X12.36864Y20.68360
X12.37258Y20.94738
X12.40250Y11.40250
X12.40250Y12.40250
X12.40250Y14.70250
X12.40250Y15.70250
X12.50250Y21.00250
X12.53242Y11.34344
X12.53242Y12.45762
X12.53242Y14.64344
X12.53242Y15.75762
X12.53636Y11.08360
X12.53636Y12.72140
X12.53636Y14.38360
X12.53636Y16.02140
X12.58754Y11.22140
X12.58754Y12.58360
X12.58754Y14.52140
X12.58754Y15.88360
X12.63242Y20.94344
X12.63636Y20.68360
X12.68754Y20.82140
X12.71746Y1.42140
X12.71746Y6.22140
X12.71746Y36.32533
X12.76864Y1.28360
X12.76864Y6.08360
X12.76864Y36.18754
X12.77258Y1.54738
X12.77258Y6.34738
X12.77258Y36.45132
X12.81746Y3.62140
X12.86864Y3.48360
X12.87258Y3.74738
X12.90250Y1.60250
X12.90250Y6.40250
X12.90250Y36.50644
X13.00250Y3.80250
X13.03242Y1.54344
X13.03242Y6.34344
X13.03242Y36.44738
X13.03636Y1.28360
X13.03636Y6.08360
X13.03636Y36.18754
X13.08754Y1.42140
X13.08754Y6.22140
X13.08754Y36.32533
X13.13242Y3.74344
X13.13636Y3.48360
X13.18754Y3.62140
X13.51746Y11.22140
X13.51746Y12.58360
X13.51746Y14.52140
X13.51746Y15.88360
X13.56864Y11.08360
X13.56864Y12.72140
X13.56864Y14.38360
X13.56864Y16.02140
X13.57258Y11.34738
X13.57258Y12.46156
X13.57258Y14.64738
X13.57258Y15.76156
X13.61746Y1.42140
X13.61746Y6.22140
X13.66864Y1.28360
X13.66864Y6.08360
X13.67258Y1.54738
X13.67258Y6.34738
X13.70250Y11.40250
X13.70250Y12.40250
X13.70250Y14.70250
X13.70250Y15.70250
X13.80250Y1.60250
X13.80250Y6.40250
X13.81746Y36.32533
X13.83242Y11.34344
X13.83242Y12.45762
X13.83242Y14.64344
X13.83242Y15.75762
X13.83636Y11.08360
X13.83636Y12.72140
X13.83636Y14.38360
X13.83636Y16.02140
X13.86864Y36.18754
X13.87258Y36.45132
X13.88754Y11.22140
X13.88754Y12.58360
X13.88754Y14.52140
X13.88754Y15.88360
X13.91746Y26.02533
X13.91746Y28.42533
X13.91746Y30.82533
X13.91746Y33.22533
X13.93242Y1.54344
X13.93242Y6.34344
X13.93636Y1.28360
X13.93636Y6.08360
X13.96864Y25.88754
X13.96864Y28.28754
X13.96864Y30.68754
X13.96864Y33.08754
X13.97258Y26.15132
X13.97258Y28.55132
X13.97258Y30.95132
X13.97258Y33.35132
X13.98754Y1.42140
X13.98754Y6.22140
X14.00250Y36.50644
X14.10250Y26.20644
X14.10250Y28.60644
X14.10250Y31.00644
X14.10250Y33.40644
X14.13242Y36.44738
X14.13636Y36.18754
X14.18754Y36.32533
X14.23242Y26.14738
X14.23242Y28.54738
X14.23242Y30.94738
X14.23242Y33.34738
X14.23636Y25.88754
X14.23636Y28.28754
X14.23636Y30.68754
X14.23636Y33.08754
X14.28754Y26.02533
X14.28754Y28.42533
X14.28754Y30.82533
X14.28754Y33.22533
X14.81746Y20.52140
X14.86864Y20.38360
X14.87258Y20.64738
X15.00250Y20.70250
X15.01746Y22.28360
X15.06864Y22.42140
X15.07258Y22.16156
X15.13242Y20.64344
X15.13636Y20.38360
X15.18754Y20.52140
X15.20250Y22.10250
X15.21746Y26.02533
X15.21746Y28.42533
X15.21746Y30.82533
X15.21746Y33.22533
X15.26864Y25.88754
X15.26864Y28.28754
X15.26864Y30.68754
X15.26864Y33.08754
X15.27258Y26.15132
X15.27258Y28.55132
X15.27258Y30.95132
X15.27258Y33.35132
X15.33242Y22.15762
X15.33636Y22.42140
X15.38754Y22.28360
X15.40250Y26.20644
X15.40250Y28.60644
X15.40250Y31.00644
X15.40250Y33.40644
X15.51746Y11.12140
X15.51746Y14.42140
X15.53242Y26.14738
X15.53242Y28.54738
X15.53242Y30.94738
X15.53242Y33.34738
X15.53636Y25.88754
X15.53636Y28.28754
X15.53636Y30.68754
X15.53636Y33.08754
X15.56864Y10.98360
X15.56864Y14.28360
X15.57258Y11.24738
X15.57258Y14.54738
X15.58754Y26.02533
X15.58754Y28.42533
X15.58754Y30.82533
X15.58754Y33.22533
X15.70250Y11.30250
X15.70250Y14.60250
X15.71746Y12.88360
X15.71746Y16.18360
X15.71746Y20.52140
X15.76864Y13.02140
X15.76864Y16.32140
X15.76864Y20.38360
X15.77258Y12.76156
X15.77258Y16.06156
X15.77258Y20.64738
X15.83242Y11.24344
X15.83242Y14.54344
X15.83636Y10.98360
X15.83636Y14.28360
X15.88754Y11.12140
X15.88754Y14.42140
X15.90250Y12.70250
X15.90250Y16.00250
X15.90250Y20.70250
X15.91746Y22.28360
X15.96864Y22.42140
X15.97258Y22.16156
X16.03242Y12.75762
X16.03242Y16.05762
X16.03242Y20.64344
X16.03636Y13.02140
X16.03636Y16.32140
X16.03636Y20.38360
X16.08754Y12.88360
X16.08754Y16.18360
X16.08754Y20.52140
X16.10250Y22.10250
X16.23242Y22.15762
X16.23636Y22.42140
X16.28754Y22.28360
X16.51746Y26.02140
X16.51746Y28.42140
X16.51746Y30.82140
X16.51746Y33.22140
X16.56864Y25.88360
X16.56864Y28.28360
X16.56864Y30.68360
X16.56864Y33.08360
X16.57258Y26.14738
X16.57258Y28.54738
X16.57258Y30.94738
X16.57258Y33.34738
X16.70250Y26.20250
X16.70250Y28.60250
X16.70250Y31.00250
X16.70250Y33.40250
X16.83242Y26.14344
X16.83242Y28.54344
X16.83242Y30.94344
X16.83242Y33.34344
X16.83636Y25.88360
X16.83636Y28.28360
X16.83636Y30.68360
X16.83636Y33.08360
X16.88754Y26.02140
X16.88754Y28.42140
X16.88754Y30.82140
X16.88754Y33.22140
X17.41746Y6.12140
X17.41746Y7.88360
X17.46864Y5.98360
X17.46864Y8.02140
X17.47258Y6.24738
X17.47258Y7.76156
X17.60250Y6.30250
X17.60250Y7.70250
X17.71746Y10.82140
X17.71746Y14.72140
X17.73242Y6.24344
X17.73242Y7.75762
X17.73636Y5.98360
X17.73636Y8.02140
X17.76864Y10.68360
X17.76864Y14.58360
X17.77258Y10.94738
X17.77258Y14.84738
X17.78754Y6.12140
X17.78754Y7.88360
X17.81746Y0.92140
X17.81746Y26.02140
X17.81746Y28.42140
X17.81746Y30.82140
X17.81746Y33.22140
X17.86864Y0.78360
X17.86864Y25.88360
X17.86864Y28.28360
X17.86864Y30.68360
X17.86864Y33.08360
X17.87258Y1.04738
X17.87258Y26.14738
X17.87258Y28.54738
X17.87258Y30.94738
X17.87258Y33.34738
X17.90250Y11.00250
X17.90250Y14.90250
X17.91746Y2.32140
X17.91746Y4.12140
X17.96864Y2.18360
X17.96864Y3.98360
X17.97258Y2.44738
X17.97258Y4.24738
X18.00250Y1.10250
X18.00250Y26.20250
X18.00250Y28.60250
X18.00250Y31.00250
X18.00250Y33.40250
X18.03242Y10.94344
X18.03242Y14.84344
X18.03636Y10.68360
X18.03636Y14.58360
X18.08754Y10.82140
X18.08754Y14.72140
X18.10250Y2.50250
X18.10250Y4.30250
X18.13242Y1.04344
X18.13242Y26.14344
X18.13242Y28.54344
X18.13242Y30.94344
X18.13242Y33.34344
X18.13636Y0.78360
X18.13636Y25.88360
X18.13636Y28.28360
X18.13636Y30.68360
X18.13636Y33.08360
X18.18754Y0.92140
X18.18754Y26.02140
X18.18754Y28.42140
X18.18754Y30.82140
X18.18754Y33.22140
X18.21746Y7.88360
X18.21746Y12.48360
X18.21746Y16.38360
X18.23242Y2.44344
X18.23242Y4.24344
X18.23636Y2.18360
X18.23636Y3.98360
X18.26864Y8.02140
X18.26864Y12.62140
X18.26864Y16.52140
X18.27258Y7.76156
X18.27258Y12.36156
X18.27258Y16.26156
X18.28754Y2.32140
X18.28754Y4.12140
X18.40250Y7.70250
X18.40250Y12.30250
X18.40250Y16.20250
X18.53242Y7.75762
X18.53242Y12.35762
X18.53242Y16.25762
X18.53636Y8.02140
X18.53636Y12.62140
X18.53636Y16.52140
X18.58754Y7.88360
X18.58754Y12.48360
X18.58754Y16.38360
X18.61746Y10.82140
X18.61746Y14.72140
X18.66864Y10.68360
X18.66864Y14.58360
X18.67258Y10.94738
X18.67258Y14.84738
X18.71746Y6.12140
X18.76864Y5.98360
X18.77258Y6.24738
X18.80250Y11.00250
X18.80250Y14.90250
X18.81746Y0.92140
X18.86864Y0.78360
X18.87258Y1.04738
X18.90250Y6.30250
X18.91746Y2.32140
X18.91746Y4.12140
X18.93242Y10.94344
X18.93242Y14.84344
X18.93636Y10.68360
X18.93636Y14.58360
X18.96864Y2.18360
X18.96864Y3.98360
X18.97258Y2.44738
X18.97258Y4.24738
X18.98754Y10.82140
X18.98754Y14.72140
X19.00250Y1.10250
X19.01746Y7.88360
X19.01746Y20.82140
X19.03242Y6.24344
X19.03636Y5.98360
X19.06864Y8.02140
X19.06864Y20.68360
X19.07258Y7.76156
X19.07258Y20.94738
X19.08754Y6.12140
X19.10250Y2.50250
X19.10250Y4.30250
X19.11746Y12.48360
X19.11746Y16.38360
X19.13242Y1.04344
X19.13636Y0.78360
X19.16864Y12.62140
X19.16864Y16.52140
X19.17258Y12.36156
X19.17258Y16.26156
X19.18754Y0.92140
X19.20250Y7.70250
X19.20250Y21.00250
X19.23242Y2.44344
X19.23242Y4.24344
X19.23636Y2.18360
X19.23636Y3.98360
X19.28754Y2.32140
X19.28754Y4.12140
X19.30250Y12.30250
X19.30250Y16.20250
X19.33242Y7.75762
X19.33242Y20.94344
X19.33636Y8.02140
X19.33636Y20.68360
X19.38754Y7.88360
X19.38754Y20.82140
X19.43242Y12.35762
X19.43242Y16.25762
X19.43636Y12.62140
X19.43636Y16.52140
X19.48754Y12.48360
X19.48754Y16.38360
X19.51746Y10.82140
X19.51746Y14.72140
X19.56864Y10.68360
X19.56864Y14.58360
X19.57258Y10.94738
X19.57258Y14.84738
X19.61746Y6.12140
X19.66864Y5.98360
X19.67258Y6.24738
X19.70250Y11.00250
X19.70250Y14.90250
X19.80250Y6.30250
X19.81746Y0.92140
X19.81746Y7.88360
X19.83242Y10.94344
X19.83242Y14.84344
X19.83636Y10.68360
X19.83636Y14.58360
X19.86864Y0.78360
X19.86864Y8.02140
X19.87258Y1.04738
X19.87258Y7.76156
X19.88754Y10.82140
X19.88754Y14.72140
X19.91746Y20.82140
X19.91746Y25.62140
X19.91746Y28.02140
X19.91746Y30.42140
X19.91746Y32.82140
X19.93242Y6.24344
X19.93636Y5.98360
X19.96864Y20.68360
X19.96864Y25.48360
X19.96864Y27.88360
X19.96864Y30.28360
X19.96864Y32.68360
X19.97258Y20.94738
X19.97258Y25.74738
X19.97258Y28.14738
X19.97258Y30.54738
X19.97258Y32.94738
X19.98754Y6.12140
X20.00250Y1.10250
X20.00250Y7.70250
X20.01746Y12.48360
X20.01746Y16.38360
X20.06864Y12.62140
X20.06864Y16.52140
X20.07258Y12.36156
X20.07258Y16.26156
X20.10250Y21.00250
X20.10250Y25.80250
X20.10250Y28.20250
X20.10250Y30.60250
X20.10250Y33.00250
X20.13242Y1.04344
X20.13242Y7.75762
X20.13636Y0.78360
X20.13636Y8.02140
X20.18754Y0.92140
X20.18754Y7.88360
X20.20250Y12.30250
X20.20250Y16.20250
X20.23242Y20.94344
X20.23242Y25.74344
X20.23242Y28.14344
X20.23242Y30.54344
X20.23242Y32.94344
X20.23636Y20.68360
X20.23636Y25.48360
X20.23636Y27.88360
X20.23636Y30.28360
X20.23636Y32.68360
X20.28754Y20.82140
X20.28754Y25.62140
X20.28754Y28.02140
X20.28754Y30.42140
X20.28754Y32.82140
X20.33242Y12.35762
X20.33242Y16.25762
X20.33636Y12.62140
X20.33636Y16.52140
X20.38754Y12.48360
X20.38754Y16.38360
X20.41746Y2.32140
X20.41746Y4.12140
X20.41746Y10.82140
X20.41746Y14.72140
X20.46864Y2.18360
X20.46864Y3.98360
X20.46864Y10.68360
X20.46864Y14.58360
X20.47258Y2.44738
X20.47258Y4.24738
X20.47258Y10.94738
X20.47258Y14.84738
X20.60250Y2.50250
X20.60250Y4.30250
X20.60250Y11.00250
X20.60250Y14.90250
X20.61746Y7.88360
X20.66864Y8.02140
X20.67258Y7.76156
X20.73242Y2.44344
X20.73242Y4.24344
X20.73242Y10.94344
X20.73242Y14.84344
X20.73636Y2.18360
X20.73636Y3.98360
X20.73636Y10.68360
X20.73636Y14.58360
X20.78754Y2.32140
X20.78754Y4.12140
X20.78754Y10.82140
X20.78754Y14.72140
X20.80250Y7.70250
X20.81746Y25.62140
X20.81746Y28.02140
X20.81746Y30.42140
X20.81746Y32.82140
X20.86864Y25.48360
X20.86864Y27.88360
X20.86864Y30.28360
X20.86864Y32.68360
X20.87258Y25.74738
X20.87258Y28.14738
X20.87258Y30.54738
X20.87258Y32.94738
X20.91746Y0.92140
X20.91746Y12.48360
X20.91746Y16.38360
X20.93242Y7.75762
X20.93636Y8.02140
X20.96864Y0.78360
X20.96864Y12.62140
X20.96864Y16.52140
X20.97258Y1.04738
X20.97258Y12.36156
X20.97258Y16.26156
X20.98754Y7.88360
X21.00250Y25.80250
X21.00250Y28.20250
X21.00250Y30.60250
X21.00250Y33.00250
X21.01746Y6.12140
X21.06864Y5.98360
X21.07258Y6.24738
X21.10250Y1.10250
X21.10250Y12.30250
X21.10250Y16.20250
X21.11746Y20.82140
X21.13242Y25.74344
X21.13242Y28.14344
X21.13242Y30.54344
X21.13242Y32.94344
X21.13636Y25.48360
X21.13636Y27.88360
X21.13636Y30.28360
X21.13636Y32.68360
X21.16864Y20.68360
X21.17258Y20.94738
X21.18754Y25.62140
X21.18754Y28.02140
X21.18754Y30.42140
X21.18754Y32.82140
X21.20250Y6.30250
X21.23242Y1.04344
X21.23242Y12.35762
X21.23242Y16.25762
X21.23636Y0.78360
X21.23636Y12.62140
X21.23636Y16.52140
X21.28754Y0.92140
X21.28754Y12.48360
X21.28754Y16.38360
X21.30250Y21.00250
X21.33242Y6.24344
X21.33636Y5.98360
X21.38754Y6.12140
X21.41746Y2.32140
X21.41746Y4.12140
X21.41746Y7.88360
X21.43242Y20.94344
X21.43636Y20.68360
X21.46864Y2.18360
X21.46864Y3.98360
X21.46864Y8.02140
X21.47258Y2.44738
X21.47258Y4.24738
X21.47258Y7.76156
X21.48754Y20.82140
X21.60250Y2.50250
X21.60250Y4.30250
X21.60250Y7.70250
X21.71746Y25.62140
X21.71746Y28.02140
X21.71746Y30.42140
X21.71746Y32.82140
X21.73242Y2.44344
X21.73242Y4.24344
X21.73242Y7.75762
X21.73636Y2.18360
X21.73636Y3.98360
X21.73636Y8.02140
X21.76864Y25.48360
X21.76864Y27.88360
X21.76864Y30.28360
X21.76864Y32.68360
X21.77258Y25.74738
X21.77258Y28.14738
X21.77258Y30.54738
X21.77258Y32.94738
X21.78754Y2.32140
X21.78754Y4.12140
X21.78754Y7.88360
X21.90250Y25.80250
X21.90250Y28.20250
X21.90250Y30.60250
X21.90250Y33.00250
X22.01746Y20.82140
X22.03242Y25.74344
X22.03242Y28.14344
X22.03242Y30.54344
X22.03242Y32.94344
X22.03636Y25.48360
X22.03636Y27.88360
X22.03636Y30.28360
X22.03636Y32.68360
X22.06864Y20.68360
X22.07258Y20.94738
X22.08754Y25.62140
X22.08754Y28.02140
X22.08754Y30.42140
X22.08754Y32.82140
X22.20250Y21.00250
X22.33242Y20.94344
X22.33636Y20.68360
X22.38754Y20.82140
X22.61746Y25.62140
X22.61746Y28.02140
X22.61746Y30.42140
X22.61746Y32.82140
X22.66864Y25.48360
X22.66864Y27.88360
X22.66864Y30.28360
X22.66864Y32.68360
X22.67258Y25.74738
X22.67258Y28.14738
X22.67258Y30.54738
X22.67258Y32.94738
X22.80250Y25.80250
X22.80250Y28.20250
X22.80250Y30.60250
X22.80250Y33.00250
X22.81746Y11.68360
X22.81746Y12.62140
X22.81746Y15.58360
X22.81746Y16.52140
X22.86864Y11.82140
X22.86864Y12.48360
X22.86864Y15.72140
X22.86864Y16.38360
X22.87258Y11.56156
X22.87258Y12.74738
X22.87258Y15.46156
X22.87258Y16.64738
X22.93242Y25.74344
X22.93242Y28.14344
X22.93242Y30.54344
X22.93242Y32.94344
X22.93636Y25.48360
X22.93636Y27.88360
X22.93636Y30.28360
X22.93636Y32.68360
X22.98754Y25.62140
X22.98754Y28.02140
X22.98754Y30.42140
X22.98754Y32.82140
X23.00250Y11.50250
X23.00250Y12.80250
X23.00250Y15.40250
X23.00250Y16.70250
X23.13242Y11.55762
X23.13242Y12.74344
X23.13242Y15.45762
X23.13242Y16.64344
X23.13636Y11.82140
X23.13636Y12.48360
X23.13636Y15.72140
X23.13636Y16.38360
X23.18754Y11.68360
X23.18754Y12.62140
X23.18754Y15.58360
X23.18754Y16.52140
X23.21746Y0.62140
X23.21746Y2.38360
X23.21746Y3.82140
X23.21746Y5.58360
X23.26864Y0.48360
X23.26864Y2.52140
X23.26864Y3.68360
X23.26864Y5.72140
X23.27258Y0.74738
X23.27258Y2.26156
X23.27258Y3.94738
X23.27258Y5.46156
X23.40250Y0.80250
X23.40250Y2.20250
X23.40250Y4.00250
X23.40250Y5.40250
X23.53242Y0.74344
X23.53242Y2.25762
X23.53242Y3.94344
X23.53242Y5.45762
X23.53636Y0.48360
X23.53636Y2.52140
X23.53636Y3.68360
X23.53636Y5.72140
X23.58754Y0.62140
X23.58754Y2.38360
X23.58754Y3.82140
X23.58754Y5.58360
T006
X12.70250Y37.20250
X13.40250Y37.20250
X14.10250Y37.20250
M30
