G04 DesignSpark PCB Gerber Version 12.0 Build 5941*
G04 #@! TF.Part,Single*
G04 #@! TF.FilePolarity,Positive*
%FSLAX35Y35*%
%MOIN*%
G04 #@! TA.AperFunction,ComponentDrill*
%ADD76C,0.03200*%
G04 #@! TA.AperFunction,MechanicalDrill*
%ADD72C,0.03500*%
%ADD73C,0.03543*%
%ADD75C,0.06299*%
%ADD29C,0.08661*%
%ADD74C,0.23622*%
G04 #@! TD.AperFunction*
X0Y0D02*
D02*
D29*
X151746Y2582140D03*
Y2758360D03*
Y3062140D03*
Y3238360D03*
X156864Y2568360D03*
Y2772140D03*
Y3048360D03*
Y3252140D03*
X157258Y2594738D03*
Y2746156D03*
Y3074738D03*
Y3226156D03*
X170250Y2600250D03*
Y2740250D03*
Y3080250D03*
Y3220250D03*
X183242Y2594344D03*
Y2745762D03*
Y3074344D03*
Y3225762D03*
X183636Y2568360D03*
Y2772140D03*
Y3048360D03*
Y3252140D03*
X188754Y2582140D03*
Y2758360D03*
Y3062140D03*
Y3238360D03*
X381746Y612140D03*
Y788360D03*
X386864Y598360D03*
Y802140D03*
X387258Y624738D03*
Y776156D03*
X400250Y630250D03*
Y770250D03*
X401746Y132140D03*
Y308360D03*
X406864Y118360D03*
Y322140D03*
X407258Y144738D03*
Y296156D03*
X411746Y2218360D03*
Y2572140D03*
Y2812140D03*
Y3052140D03*
Y3292140D03*
X413242Y624344D03*
Y775762D03*
X413636Y598360D03*
Y802140D03*
X416864Y2232140D03*
Y2558360D03*
Y2798360D03*
Y3038360D03*
Y3278360D03*
X417258Y2206156D03*
Y2584738D03*
Y2824738D03*
Y3064738D03*
Y3304738D03*
X418754Y612140D03*
Y788360D03*
X420250Y150250D03*
Y290250D03*
X421746Y2042140D03*
X426864Y2028360D03*
X427258Y2054738D03*
X430250Y2200250D03*
Y2590250D03*
Y2830250D03*
Y3070250D03*
Y3310250D03*
X433242Y144344D03*
Y295762D03*
X433636Y118360D03*
Y322140D03*
X438754Y132140D03*
Y308360D03*
X440250Y2060250D03*
X443242Y2205762D03*
Y2584344D03*
Y2824344D03*
Y3064344D03*
Y3304344D03*
X443636Y2232140D03*
Y2558360D03*
Y2798360D03*
Y3038360D03*
Y3278360D03*
X448754Y2218360D03*
Y2572140D03*
Y2812140D03*
Y3052140D03*
Y3292140D03*
X453242Y2054344D03*
X453636Y2028360D03*
X458754Y2042140D03*
X481746Y1442140D03*
Y1618360D03*
X486864Y1428360D03*
Y1632140D03*
X487258Y1454738D03*
Y1606156D03*
X500250Y1460250D03*
Y1600250D03*
X501746Y1112140D03*
Y2572140D03*
Y2812140D03*
Y3052140D03*
Y3292140D03*
X506864Y1098360D03*
Y2558360D03*
Y2798360D03*
Y3038360D03*
Y3278360D03*
X507258Y1124738D03*
Y2584738D03*
Y2824738D03*
Y3064738D03*
Y3304738D03*
X511746Y612140D03*
Y788360D03*
X513242Y1454344D03*
Y1605762D03*
X513636Y1428360D03*
Y1632140D03*
X516864Y598360D03*
Y802140D03*
X517258Y624738D03*
Y776156D03*
X518754Y1442140D03*
Y1618360D03*
X520250Y1130250D03*
Y2590250D03*
Y2830250D03*
Y3070250D03*
Y3310250D03*
X530250Y630250D03*
Y770250D03*
X531746Y132140D03*
Y308360D03*
Y2042140D03*
X533242Y1124344D03*
Y2584344D03*
Y2824344D03*
Y3064344D03*
Y3304344D03*
X533636Y1098360D03*
Y2558360D03*
Y2798360D03*
Y3038360D03*
Y3278360D03*
X536864Y118360D03*
Y322140D03*
Y2028360D03*
X537258Y144738D03*
Y296156D03*
Y2054738D03*
X538754Y1112140D03*
Y2572140D03*
Y2812140D03*
Y3052140D03*
Y3292140D03*
X541746Y2218360D03*
X543242Y624344D03*
Y775762D03*
X543636Y598360D03*
Y802140D03*
X546864Y2232140D03*
X547258Y2206156D03*
X548754Y612140D03*
Y788360D03*
X550250Y150250D03*
Y290250D03*
Y2060250D03*
X560250Y2200250D03*
X563242Y144344D03*
Y295762D03*
Y2054344D03*
X563636Y118360D03*
Y322140D03*
Y2028360D03*
X568754Y132140D03*
Y308360D03*
Y2042140D03*
X573242Y2205762D03*
X573636Y2232140D03*
X578754Y2218360D03*
X581746Y1442140D03*
X586864Y1428360D03*
X587258Y1454738D03*
X591746Y1112140D03*
Y2572140D03*
Y2812140D03*
Y3052140D03*
Y3292140D03*
X596864Y1098360D03*
Y2558360D03*
Y2798360D03*
Y3038360D03*
Y3278360D03*
X597258Y1124738D03*
Y2584738D03*
Y2824738D03*
Y3064738D03*
Y3304738D03*
X600250Y1460250D03*
X601746Y1618360D03*
X606864Y1632140D03*
X607258Y1606156D03*
X610250Y1130250D03*
Y2590250D03*
Y2830250D03*
Y3070250D03*
Y3310250D03*
X613242Y1454344D03*
X613636Y1428360D03*
X618754Y1442140D03*
X620250Y1600250D03*
X623242Y1124344D03*
Y2584344D03*
Y2824344D03*
Y3064344D03*
Y3304344D03*
X623636Y1098360D03*
Y2558360D03*
Y2798360D03*
Y3038360D03*
Y3278360D03*
X628754Y1112140D03*
Y2572140D03*
Y2812140D03*
Y3052140D03*
Y3292140D03*
X633242Y1605762D03*
X633636Y1632140D03*
X638754Y1618360D03*
X681746Y2572140D03*
Y2812140D03*
Y3052140D03*
Y3292140D03*
X686864Y2558360D03*
Y2798360D03*
Y3038360D03*
Y3278360D03*
X687258Y2584738D03*
Y2824738D03*
Y3064738D03*
Y3304738D03*
X700250Y2590250D03*
Y2830250D03*
Y3070250D03*
Y3310250D03*
X713242Y2584344D03*
Y2824344D03*
Y3064344D03*
Y3304344D03*
X713636Y2558360D03*
Y2798360D03*
Y3038360D03*
Y3278360D03*
X718754Y2572140D03*
Y2812140D03*
Y3052140D03*
Y3292140D03*
X741746Y132140D03*
Y308360D03*
Y612140D03*
Y788360D03*
X746864Y118360D03*
Y322140D03*
Y598360D03*
Y802140D03*
X747258Y144738D03*
Y296156D03*
Y624738D03*
Y776156D03*
X760250Y150250D03*
Y290250D03*
Y630250D03*
Y770250D03*
X771746Y2572140D03*
Y2812140D03*
Y3052140D03*
Y3292140D03*
X773242Y144344D03*
Y295762D03*
Y624344D03*
Y775762D03*
X773636Y118360D03*
Y322140D03*
Y598360D03*
Y802140D03*
X776864Y2558360D03*
Y2798360D03*
Y3038360D03*
Y3278360D03*
X777258Y2584738D03*
Y2824738D03*
Y3064738D03*
Y3304738D03*
X778754Y132140D03*
Y308360D03*
Y612140D03*
Y788360D03*
X781746Y2082140D03*
X786864Y2068360D03*
X787258Y2094738D03*
X790250Y2590250D03*
Y2830250D03*
Y3070250D03*
Y3310250D03*
X800250Y2100250D03*
X803242Y2584344D03*
Y2824344D03*
Y3064344D03*
Y3304344D03*
X803636Y2558360D03*
Y2798360D03*
Y3038360D03*
Y3278360D03*
X808754Y2572140D03*
Y2812140D03*
Y3052140D03*
Y3292140D03*
X813242Y2094344D03*
X813636Y2068360D03*
X818754Y2082140D03*
X861746Y2572140D03*
Y2812140D03*
Y3052140D03*
Y3292140D03*
X866864Y2558360D03*
Y2798360D03*
Y3038360D03*
Y3278360D03*
X867258Y2584738D03*
Y2824738D03*
Y3064738D03*
Y3304738D03*
X871746Y2082140D03*
X876864Y2068360D03*
X877258Y2094738D03*
X880250Y2590250D03*
Y2830250D03*
Y3070250D03*
Y3310250D03*
X890250Y2100250D03*
X893242Y2584344D03*
Y2824344D03*
Y3064344D03*
Y3304344D03*
X893636Y2558360D03*
Y2798360D03*
Y3038360D03*
Y3278360D03*
X898754Y2572140D03*
Y2812140D03*
Y3052140D03*
Y3292140D03*
X903242Y2094344D03*
X903636Y2068360D03*
X908754Y2082140D03*
X911746Y142140D03*
Y622140D03*
X916864Y128360D03*
Y608360D03*
X917258Y154738D03*
Y634738D03*
X930250Y160250D03*
Y640250D03*
X931746Y362140D03*
X936864Y348360D03*
X937258Y374738D03*
X943242Y154344D03*
Y634344D03*
X943636Y128360D03*
Y608360D03*
X948754Y142140D03*
Y622140D03*
X950250Y380250D03*
X961746Y2082140D03*
X963242Y374344D03*
X963636Y348360D03*
X966864Y2068360D03*
X967258Y2094738D03*
X968754Y362140D03*
X971746Y2272140D03*
X976864Y2258360D03*
X977258Y2284738D03*
X980250Y2100250D03*
X981746Y1122140D03*
Y1258360D03*
Y1452140D03*
Y1588360D03*
X986864Y1108360D03*
Y1272140D03*
Y1438360D03*
Y1602140D03*
X987258Y1134738D03*
Y1246156D03*
Y1464738D03*
Y1576156D03*
X990250Y2290250D03*
X993242Y2094344D03*
X993636Y2068360D03*
X998754Y2082140D03*
X1000250Y1140250D03*
Y1240250D03*
Y1470250D03*
Y1570250D03*
X1001746Y142140D03*
Y622140D03*
X1003242Y2284344D03*
X1003636Y2258360D03*
X1006864Y128360D03*
Y608360D03*
X1007258Y154738D03*
Y634738D03*
X1008754Y2272140D03*
X1011746Y2562140D03*
Y2802140D03*
Y3042140D03*
Y3282140D03*
X1013242Y1134344D03*
Y1245762D03*
Y1464344D03*
Y1575762D03*
X1013636Y1108360D03*
Y1272140D03*
Y1438360D03*
Y1602140D03*
X1016864Y2548360D03*
Y2788360D03*
Y3028360D03*
Y3268360D03*
X1017258Y2574738D03*
Y2814738D03*
Y3054738D03*
Y3294738D03*
X1018754Y1122140D03*
Y1258360D03*
Y1452140D03*
Y1588360D03*
X1020250Y160250D03*
Y640250D03*
X1021746Y362140D03*
X1026864Y348360D03*
X1027258Y374738D03*
X1030250Y2580250D03*
Y2820250D03*
Y3060250D03*
Y3300250D03*
X1033242Y154344D03*
Y634344D03*
X1033636Y128360D03*
Y608360D03*
X1038754Y142140D03*
Y622140D03*
X1040250Y380250D03*
X1043242Y2574344D03*
Y2814344D03*
Y3054344D03*
Y3294344D03*
X1043636Y2548360D03*
Y2788360D03*
Y3028360D03*
Y3268360D03*
X1048754Y2562140D03*
Y2802140D03*
Y3042140D03*
Y3282140D03*
X1051746Y2082140D03*
X1053242Y374344D03*
X1053636Y348360D03*
X1056864Y2068360D03*
X1057258Y2094738D03*
X1058754Y362140D03*
X1070250Y2100250D03*
X1081746Y2272140D03*
X1083242Y2094344D03*
X1083636Y2068360D03*
X1086864Y2258360D03*
X1087258Y2284738D03*
X1088754Y2082140D03*
X1091746Y142140D03*
Y622140D03*
Y2562140D03*
Y2802140D03*
Y3042140D03*
Y3282140D03*
X1096864Y128360D03*
Y608360D03*
Y2548360D03*
Y2788360D03*
Y3028360D03*
Y3268360D03*
X1097258Y154738D03*
Y634738D03*
Y2574738D03*
Y2814738D03*
Y3054738D03*
Y3294738D03*
X1100250Y2290250D03*
X1110250Y160250D03*
Y640250D03*
Y2580250D03*
Y2820250D03*
Y3060250D03*
Y3300250D03*
X1111746Y1122140D03*
Y1258360D03*
Y1452140D03*
Y1588360D03*
X1113242Y2284344D03*
X1113636Y2258360D03*
X1116864Y1108360D03*
Y1272140D03*
Y1438360D03*
Y1602140D03*
X1117258Y1134738D03*
Y1246156D03*
Y1464738D03*
Y1576156D03*
X1118754Y2272140D03*
X1123242Y154344D03*
Y634344D03*
Y2574344D03*
Y2814344D03*
Y3054344D03*
Y3294344D03*
X1123636Y128360D03*
Y608360D03*
Y2548360D03*
Y2788360D03*
Y3028360D03*
Y3268360D03*
X1128754Y142140D03*
Y622140D03*
Y2562140D03*
Y2802140D03*
Y3042140D03*
Y3282140D03*
X1130250Y1140250D03*
Y1240250D03*
Y1470250D03*
Y1570250D03*
X1141746Y2082140D03*
X1143242Y1134344D03*
Y1245762D03*
Y1464344D03*
Y1575762D03*
X1143636Y1108360D03*
Y1272140D03*
Y1438360D03*
Y1602140D03*
X1146864Y2068360D03*
X1147258Y2094738D03*
X1148754Y1122140D03*
Y1258360D03*
Y1452140D03*
Y1588360D03*
X1160250Y2100250D03*
X1173242Y2094344D03*
X1173636Y2068360D03*
X1178754Y2082140D03*
X1181746Y142140D03*
Y622140D03*
X1186864Y128360D03*
Y608360D03*
X1187258Y154738D03*
Y634738D03*
X1191746Y362140D03*
X1196864Y348360D03*
X1197258Y374738D03*
X1200250Y160250D03*
Y640250D03*
X1210250Y380250D03*
X1213242Y154344D03*
Y634344D03*
X1213636Y128360D03*
Y608360D03*
X1218754Y142140D03*
Y622140D03*
X1221746Y1122140D03*
Y1258360D03*
Y1452140D03*
Y1588360D03*
X1223242Y374344D03*
X1223636Y348360D03*
X1226864Y1108360D03*
Y1272140D03*
Y1438360D03*
Y1602140D03*
X1227258Y1134738D03*
Y1246156D03*
Y1464738D03*
Y1576156D03*
X1228754Y362140D03*
X1231746Y2082140D03*
X1236864Y2068360D03*
X1237258Y2094738D03*
X1240250Y1140250D03*
Y1240250D03*
Y1470250D03*
Y1570250D03*
X1250250Y2100250D03*
X1253242Y1134344D03*
Y1245762D03*
Y1464344D03*
Y1575762D03*
X1253636Y1108360D03*
Y1272140D03*
Y1438360D03*
Y1602140D03*
X1258754Y1122140D03*
Y1258360D03*
Y1452140D03*
Y1588360D03*
X1263242Y2094344D03*
X1263636Y2068360D03*
X1268754Y2082140D03*
X1271746Y142140D03*
Y622140D03*
Y3632533D03*
X1276864Y128360D03*
Y608360D03*
Y3618754D03*
X1277258Y154738D03*
Y634738D03*
Y3645132D03*
X1281746Y362140D03*
X1286864Y348360D03*
X1287258Y374738D03*
X1290250Y160250D03*
Y640250D03*
Y3650644D03*
X1300250Y380250D03*
X1303242Y154344D03*
Y634344D03*
Y3644738D03*
X1303636Y128360D03*
Y608360D03*
Y3618754D03*
X1308754Y142140D03*
Y622140D03*
Y3632533D03*
X1313242Y374344D03*
X1313636Y348360D03*
X1318754Y362140D03*
X1351746Y1122140D03*
Y1258360D03*
Y1452140D03*
Y1588360D03*
X1356864Y1108360D03*
Y1272140D03*
Y1438360D03*
Y1602140D03*
X1357258Y1134738D03*
Y1246156D03*
Y1464738D03*
Y1576156D03*
X1361746Y142140D03*
Y622140D03*
X1366864Y128360D03*
Y608360D03*
X1367258Y154738D03*
Y634738D03*
X1370250Y1140250D03*
Y1240250D03*
Y1470250D03*
Y1570250D03*
X1380250Y160250D03*
Y640250D03*
X1381746Y3632533D03*
X1383242Y1134344D03*
Y1245762D03*
Y1464344D03*
Y1575762D03*
X1383636Y1108360D03*
Y1272140D03*
Y1438360D03*
Y1602140D03*
X1386864Y3618754D03*
X1387258Y3645132D03*
X1388754Y1122140D03*
Y1258360D03*
Y1452140D03*
Y1588360D03*
X1391746Y2602533D03*
Y2842533D03*
Y3082533D03*
Y3322533D03*
X1393242Y154344D03*
Y634344D03*
X1393636Y128360D03*
Y608360D03*
X1396864Y2588754D03*
Y2828754D03*
Y3068754D03*
Y3308754D03*
X1397258Y2615132D03*
Y2855132D03*
Y3095132D03*
Y3335132D03*
X1398754Y142140D03*
Y622140D03*
X1400250Y3650644D03*
X1410250Y2620644D03*
Y2860644D03*
Y3100644D03*
Y3340644D03*
X1413242Y3644738D03*
X1413636Y3618754D03*
X1418754Y3632533D03*
X1423242Y2614738D03*
Y2854738D03*
Y3094738D03*
Y3334738D03*
X1423636Y2588754D03*
Y2828754D03*
Y3068754D03*
Y3308754D03*
X1428754Y2602533D03*
Y2842533D03*
Y3082533D03*
Y3322533D03*
X1481746Y2052140D03*
X1486864Y2038360D03*
X1487258Y2064738D03*
X1500250Y2070250D03*
X1501746Y2228360D03*
X1506864Y2242140D03*
X1507258Y2216156D03*
X1513242Y2064344D03*
X1513636Y2038360D03*
X1518754Y2052140D03*
X1520250Y2210250D03*
X1521746Y2602533D03*
Y2842533D03*
Y3082533D03*
Y3322533D03*
X1526864Y2588754D03*
Y2828754D03*
Y3068754D03*
Y3308754D03*
X1527258Y2615132D03*
Y2855132D03*
Y3095132D03*
Y3335132D03*
X1533242Y2215762D03*
X1533636Y2242140D03*
X1538754Y2228360D03*
X1540250Y2620644D03*
Y2860644D03*
Y3100644D03*
Y3340644D03*
X1551746Y1112140D03*
Y1442140D03*
X1553242Y2614738D03*
Y2854738D03*
Y3094738D03*
Y3334738D03*
X1553636Y2588754D03*
Y2828754D03*
Y3068754D03*
Y3308754D03*
X1556864Y1098360D03*
Y1428360D03*
X1557258Y1124738D03*
Y1454738D03*
X1558754Y2602533D03*
Y2842533D03*
Y3082533D03*
Y3322533D03*
X1570250Y1130250D03*
Y1460250D03*
X1571746Y1288360D03*
Y1618360D03*
Y2052140D03*
X1576864Y1302140D03*
Y1632140D03*
Y2038360D03*
X1577258Y1276156D03*
Y1606156D03*
Y2064738D03*
X1583242Y1124344D03*
Y1454344D03*
X1583636Y1098360D03*
Y1428360D03*
X1588754Y1112140D03*
Y1442140D03*
X1590250Y1270250D03*
Y1600250D03*
Y2070250D03*
X1591746Y2228360D03*
X1596864Y2242140D03*
X1597258Y2216156D03*
X1603242Y1275762D03*
Y1605762D03*
Y2064344D03*
X1603636Y1302140D03*
Y1632140D03*
Y2038360D03*
X1608754Y1288360D03*
Y1618360D03*
Y2052140D03*
X1610250Y2210250D03*
X1623242Y2215762D03*
X1623636Y2242140D03*
X1628754Y2228360D03*
X1651746Y2602140D03*
Y2842140D03*
Y3082140D03*
Y3322140D03*
X1656864Y2588360D03*
Y2828360D03*
Y3068360D03*
Y3308360D03*
X1657258Y2614738D03*
Y2854738D03*
Y3094738D03*
Y3334738D03*
X1670250Y2620250D03*
Y2860250D03*
Y3100250D03*
Y3340250D03*
X1683242Y2614344D03*
Y2854344D03*
Y3094344D03*
Y3334344D03*
X1683636Y2588360D03*
Y2828360D03*
Y3068360D03*
Y3308360D03*
X1688754Y2602140D03*
Y2842140D03*
Y3082140D03*
Y3322140D03*
X1741746Y612140D03*
Y788360D03*
X1746864Y598360D03*
Y802140D03*
X1747258Y624738D03*
Y776156D03*
X1760250Y630250D03*
Y770250D03*
X1771746Y1082140D03*
Y1472140D03*
X1773242Y624344D03*
Y775762D03*
X1773636Y598360D03*
Y802140D03*
X1776864Y1068360D03*
Y1458360D03*
X1777258Y1094738D03*
Y1484738D03*
X1778754Y612140D03*
Y788360D03*
X1781746Y92140D03*
Y2602140D03*
Y2842140D03*
Y3082140D03*
Y3322140D03*
X1786864Y78360D03*
Y2588360D03*
Y2828360D03*
Y3068360D03*
Y3308360D03*
X1787258Y104738D03*
Y2614738D03*
Y2854738D03*
Y3094738D03*
Y3334738D03*
X1790250Y1100250D03*
Y1490250D03*
X1791746Y232140D03*
Y412140D03*
X1796864Y218360D03*
Y398360D03*
X1797258Y244738D03*
Y424738D03*
X1800250Y110250D03*
Y2620250D03*
Y2860250D03*
Y3100250D03*
Y3340250D03*
X1803242Y1094344D03*
Y1484344D03*
X1803636Y1068360D03*
Y1458360D03*
X1808754Y1082140D03*
Y1472140D03*
X1810250Y250250D03*
Y430250D03*
X1813242Y104344D03*
Y2614344D03*
Y2854344D03*
Y3094344D03*
Y3334344D03*
X1813636Y78360D03*
Y2588360D03*
Y2828360D03*
Y3068360D03*
Y3308360D03*
X1818754Y92140D03*
Y2602140D03*
Y2842140D03*
Y3082140D03*
Y3322140D03*
X1821746Y788360D03*
Y1248360D03*
Y1638360D03*
X1823242Y244344D03*
Y424344D03*
X1823636Y218360D03*
Y398360D03*
X1826864Y802140D03*
Y1262140D03*
Y1652140D03*
X1827258Y776156D03*
Y1236156D03*
Y1626156D03*
X1828754Y232140D03*
Y412140D03*
X1840250Y770250D03*
Y1230250D03*
Y1620250D03*
X1853242Y775762D03*
Y1235762D03*
Y1625762D03*
X1853636Y802140D03*
Y1262140D03*
Y1652140D03*
X1858754Y788360D03*
Y1248360D03*
Y1638360D03*
X1861746Y1082140D03*
Y1472140D03*
X1866864Y1068360D03*
Y1458360D03*
X1867258Y1094738D03*
Y1484738D03*
X1871746Y612140D03*
X1876864Y598360D03*
X1877258Y624738D03*
X1880250Y1100250D03*
Y1490250D03*
X1881746Y92140D03*
X1886864Y78360D03*
X1887258Y104738D03*
X1890250Y630250D03*
X1891746Y232140D03*
Y412140D03*
X1893242Y1094344D03*
Y1484344D03*
X1893636Y1068360D03*
Y1458360D03*
X1896864Y218360D03*
Y398360D03*
X1897258Y244738D03*
Y424738D03*
X1898754Y1082140D03*
Y1472140D03*
X1900250Y110250D03*
X1901746Y788360D03*
Y2082140D03*
X1903242Y624344D03*
X1903636Y598360D03*
X1906864Y802140D03*
Y2068360D03*
X1907258Y776156D03*
Y2094738D03*
X1908754Y612140D03*
X1910250Y250250D03*
Y430250D03*
X1911746Y1248360D03*
Y1638360D03*
X1913242Y104344D03*
X1913636Y78360D03*
X1916864Y1262140D03*
Y1652140D03*
X1917258Y1236156D03*
Y1626156D03*
X1918754Y92140D03*
X1920250Y770250D03*
Y2100250D03*
X1923242Y244344D03*
Y424344D03*
X1923636Y218360D03*
Y398360D03*
X1928754Y232140D03*
Y412140D03*
X1930250Y1230250D03*
Y1620250D03*
X1933242Y775762D03*
Y2094344D03*
X1933636Y802140D03*
Y2068360D03*
X1938754Y788360D03*
Y2082140D03*
X1943242Y1235762D03*
Y1625762D03*
X1943636Y1262140D03*
Y1652140D03*
X1948754Y1248360D03*
Y1638360D03*
X1951746Y1082140D03*
Y1472140D03*
X1956864Y1068360D03*
Y1458360D03*
X1957258Y1094738D03*
Y1484738D03*
X1961746Y612140D03*
X1966864Y598360D03*
X1967258Y624738D03*
X1970250Y1100250D03*
Y1490250D03*
X1980250Y630250D03*
X1981746Y92140D03*
Y788360D03*
X1983242Y1094344D03*
Y1484344D03*
X1983636Y1068360D03*
Y1458360D03*
X1986864Y78360D03*
Y802140D03*
X1987258Y104738D03*
Y776156D03*
X1988754Y1082140D03*
Y1472140D03*
X1991746Y2082140D03*
Y2562140D03*
Y2802140D03*
Y3042140D03*
Y3282140D03*
X1993242Y624344D03*
X1993636Y598360D03*
X1996864Y2068360D03*
Y2548360D03*
Y2788360D03*
Y3028360D03*
Y3268360D03*
X1997258Y2094738D03*
Y2574738D03*
Y2814738D03*
Y3054738D03*
Y3294738D03*
X1998754Y612140D03*
X2000250Y110250D03*
Y770250D03*
X2001746Y1248360D03*
Y1638360D03*
X2006864Y1262140D03*
Y1652140D03*
X2007258Y1236156D03*
Y1626156D03*
X2010250Y2100250D03*
Y2580250D03*
Y2820250D03*
Y3060250D03*
Y3300250D03*
X2013242Y104344D03*
Y775762D03*
X2013636Y78360D03*
Y802140D03*
X2018754Y92140D03*
Y788360D03*
X2020250Y1230250D03*
Y1620250D03*
X2023242Y2094344D03*
Y2574344D03*
Y2814344D03*
Y3054344D03*
Y3294344D03*
X2023636Y2068360D03*
Y2548360D03*
Y2788360D03*
Y3028360D03*
Y3268360D03*
X2028754Y2082140D03*
Y2562140D03*
Y2802140D03*
Y3042140D03*
Y3282140D03*
X2033242Y1235762D03*
Y1625762D03*
X2033636Y1262140D03*
Y1652140D03*
X2038754Y1248360D03*
Y1638360D03*
X2041746Y232140D03*
Y412140D03*
Y1082140D03*
Y1472140D03*
X2046864Y218360D03*
Y398360D03*
Y1068360D03*
Y1458360D03*
X2047258Y244738D03*
Y424738D03*
Y1094738D03*
Y1484738D03*
X2060250Y250250D03*
Y430250D03*
Y1100250D03*
Y1490250D03*
X2061746Y788360D03*
X2066864Y802140D03*
X2067258Y776156D03*
X2073242Y244344D03*
Y424344D03*
Y1094344D03*
Y1484344D03*
X2073636Y218360D03*
Y398360D03*
Y1068360D03*
Y1458360D03*
X2078754Y232140D03*
Y412140D03*
Y1082140D03*
Y1472140D03*
X2080250Y770250D03*
X2081746Y2562140D03*
Y2802140D03*
Y3042140D03*
Y3282140D03*
X2086864Y2548360D03*
Y2788360D03*
Y3028360D03*
Y3268360D03*
X2087258Y2574738D03*
Y2814738D03*
Y3054738D03*
Y3294738D03*
X2091746Y92140D03*
Y1248360D03*
Y1638360D03*
X2093242Y775762D03*
X2093636Y802140D03*
X2096864Y78360D03*
Y1262140D03*
Y1652140D03*
X2097258Y104738D03*
Y1236156D03*
Y1626156D03*
X2098754Y788360D03*
X2100250Y2580250D03*
Y2820250D03*
Y3060250D03*
Y3300250D03*
X2101746Y612140D03*
X2106864Y598360D03*
X2107258Y624738D03*
X2110250Y110250D03*
Y1230250D03*
Y1620250D03*
X2111746Y2082140D03*
X2113242Y2574344D03*
Y2814344D03*
Y3054344D03*
Y3294344D03*
X2113636Y2548360D03*
Y2788360D03*
Y3028360D03*
Y3268360D03*
X2116864Y2068360D03*
X2117258Y2094738D03*
X2118754Y2562140D03*
Y2802140D03*
Y3042140D03*
Y3282140D03*
X2120250Y630250D03*
X2123242Y104344D03*
Y1235762D03*
Y1625762D03*
X2123636Y78360D03*
Y1262140D03*
Y1652140D03*
X2128754Y92140D03*
Y1248360D03*
Y1638360D03*
X2130250Y2100250D03*
X2133242Y624344D03*
X2133636Y598360D03*
X2138754Y612140D03*
X2141746Y232140D03*
Y412140D03*
Y788360D03*
X2143242Y2094344D03*
X2143636Y2068360D03*
X2146864Y218360D03*
Y398360D03*
Y802140D03*
X2147258Y244738D03*
Y424738D03*
Y776156D03*
X2148754Y2082140D03*
X2160250Y250250D03*
Y430250D03*
Y770250D03*
X2171746Y2562140D03*
Y2802140D03*
Y3042140D03*
Y3282140D03*
X2173242Y244344D03*
Y424344D03*
Y775762D03*
X2173636Y218360D03*
Y398360D03*
Y802140D03*
X2176864Y2548360D03*
Y2788360D03*
Y3028360D03*
Y3268360D03*
X2177258Y2574738D03*
Y2814738D03*
Y3054738D03*
Y3294738D03*
X2178754Y232140D03*
Y412140D03*
Y788360D03*
X2190250Y2580250D03*
Y2820250D03*
Y3060250D03*
Y3300250D03*
X2201746Y2082140D03*
X2203242Y2574344D03*
Y2814344D03*
Y3054344D03*
Y3294344D03*
X2203636Y2548360D03*
Y2788360D03*
Y3028360D03*
Y3268360D03*
X2206864Y2068360D03*
X2207258Y2094738D03*
X2208754Y2562140D03*
Y2802140D03*
Y3042140D03*
Y3282140D03*
X2220250Y2100250D03*
X2233242Y2094344D03*
X2233636Y2068360D03*
X2238754Y2082140D03*
X2261746Y2562140D03*
Y2802140D03*
Y3042140D03*
Y3282140D03*
X2266864Y2548360D03*
Y2788360D03*
Y3028360D03*
Y3268360D03*
X2267258Y2574738D03*
Y2814738D03*
Y3054738D03*
Y3294738D03*
X2280250Y2580250D03*
Y2820250D03*
Y3060250D03*
Y3300250D03*
X2281746Y1168360D03*
Y1262140D03*
Y1558360D03*
Y1652140D03*
X2286864Y1182140D03*
Y1248360D03*
Y1572140D03*
Y1638360D03*
X2287258Y1156156D03*
Y1274738D03*
Y1546156D03*
Y1664738D03*
X2293242Y2574344D03*
Y2814344D03*
Y3054344D03*
Y3294344D03*
X2293636Y2548360D03*
Y2788360D03*
Y3028360D03*
Y3268360D03*
X2298754Y2562140D03*
Y2802140D03*
Y3042140D03*
Y3282140D03*
X2300250Y1150250D03*
Y1280250D03*
Y1540250D03*
Y1670250D03*
X2313242Y1155762D03*
Y1274344D03*
Y1545762D03*
Y1664344D03*
X2313636Y1182140D03*
Y1248360D03*
Y1572140D03*
Y1638360D03*
X2318754Y1168360D03*
Y1262140D03*
Y1558360D03*
Y1652140D03*
X2321746Y62140D03*
Y238360D03*
Y382140D03*
Y558360D03*
X2326864Y48360D03*
Y252140D03*
Y368360D03*
Y572140D03*
X2327258Y74738D03*
Y226156D03*
Y394738D03*
Y546156D03*
X2340250Y80250D03*
Y220250D03*
Y400250D03*
Y540250D03*
X2353242Y74344D03*
Y225762D03*
Y394344D03*
Y545762D03*
X2353636Y48360D03*
Y252140D03*
Y368360D03*
Y572140D03*
X2358754Y62140D03*
Y238360D03*
Y382140D03*
Y558360D03*
D02*
D72*
X20250Y20250D03*
Y220250D03*
Y450250D03*
Y460250D03*
Y500250D03*
Y700250D03*
Y940250D03*
Y990250D03*
Y1200250D03*
Y1430250D03*
Y1470250D03*
Y1530250D03*
Y1910250D03*
Y1960250D03*
Y2130250D03*
Y2400250D03*
Y2450250D03*
Y2670250D03*
Y2890250D03*
Y2930250D03*
Y3150250D03*
Y3370250D03*
Y3420250D03*
X30250Y20250D03*
Y460250D03*
Y500250D03*
Y940250D03*
Y990250D03*
Y1430250D03*
Y1470250D03*
Y1910250D03*
Y1960250D03*
Y2400250D03*
Y2450250D03*
Y2890250D03*
Y2930250D03*
Y3370250D03*
Y3420250D03*
X40250Y20250D03*
Y210250D03*
Y440250D03*
Y460250D03*
Y500250D03*
Y690250D03*
Y940250D03*
Y990250D03*
Y1190250D03*
Y1430250D03*
Y1470250D03*
Y1520250D03*
Y1910250D03*
Y1960250D03*
Y2120250D03*
Y2400250D03*
Y2450250D03*
Y2660250D03*
Y2680250D03*
Y2890250D03*
Y2930250D03*
Y3140250D03*
Y3160250D03*
Y3370250D03*
Y3420250D03*
X50250Y20250D03*
Y460250D03*
Y500250D03*
Y940250D03*
Y990250D03*
Y1430250D03*
Y1470250D03*
Y1910250D03*
Y1960250D03*
Y2400250D03*
Y2450250D03*
Y2890250D03*
Y2930250D03*
Y3370250D03*
Y3420250D03*
X60250Y20250D03*
Y200250D03*
Y430250D03*
Y460250D03*
Y500250D03*
Y680250D03*
Y940250D03*
Y990250D03*
Y1180250D03*
Y1430250D03*
Y1470250D03*
Y1510250D03*
Y1910250D03*
Y1960250D03*
Y2110250D03*
Y2400250D03*
Y2450250D03*
Y2890250D03*
Y2930250D03*
Y3370250D03*
Y3420250D03*
X70250Y20250D03*
Y460250D03*
Y500250D03*
Y940250D03*
Y990250D03*
Y1430250D03*
Y1470250D03*
Y1910250D03*
Y1960250D03*
Y2400250D03*
Y2450250D03*
Y2660250D03*
Y2670250D03*
Y2680250D03*
Y2890250D03*
Y2930250D03*
Y3140250D03*
Y3150250D03*
Y3160250D03*
Y3370250D03*
Y3420250D03*
X80250Y920250D03*
Y940250D03*
Y990250D03*
Y1430250D03*
Y1470250D03*
Y1910250D03*
Y1960250D03*
Y2400250D03*
Y2450250D03*
Y2540250D03*
Y2620250D03*
Y2700250D03*
Y2830250D03*
Y2890250D03*
Y2930250D03*
Y3020250D03*
Y3100250D03*
Y3180250D03*
X90250Y20250D03*
Y460250D03*
Y500250D03*
Y940250D03*
Y990250D03*
Y1430250D03*
Y1470250D03*
Y1910250D03*
Y1960250D03*
Y2400250D03*
Y2450250D03*
Y2620250D03*
Y2700250D03*
Y2890250D03*
Y2930250D03*
Y3100250D03*
Y3180250D03*
X100250Y20250D03*
Y460250D03*
Y500250D03*
Y940250D03*
Y990250D03*
Y1430250D03*
Y1470250D03*
Y1910250D03*
Y1960250D03*
Y2400250D03*
Y2450250D03*
Y2620250D03*
Y2700250D03*
Y2890250D03*
Y2930250D03*
Y3010250D03*
X110250Y20250D03*
Y460250D03*
Y500250D03*
Y940250D03*
Y990250D03*
Y1430250D03*
Y1470250D03*
Y1910250D03*
Y1960250D03*
Y2400250D03*
Y2450250D03*
Y2620250D03*
Y2700250D03*
Y2830250D03*
Y2890250D03*
Y2930250D03*
X120250Y20250D03*
Y460250D03*
Y500250D03*
Y940250D03*
Y990250D03*
Y1430250D03*
Y1470250D03*
Y1910250D03*
Y1960250D03*
Y2400250D03*
Y2450250D03*
Y2540250D03*
Y3010250D03*
Y3020250D03*
X130250Y20250D03*
Y400250D03*
Y460250D03*
Y500250D03*
Y940250D03*
Y990250D03*
Y1430250D03*
Y1470250D03*
Y1910250D03*
Y1960250D03*
Y2400250D03*
Y2450250D03*
X140250Y20250D03*
Y420250D03*
Y460250D03*
Y500250D03*
Y710250D03*
Y940250D03*
Y990250D03*
Y1430250D03*
Y1470250D03*
Y1770250D03*
Y1910250D03*
Y1960250D03*
Y1970250D03*
Y2400250D03*
Y2450250D03*
X150250Y20250D03*
Y460250D03*
Y500250D03*
Y660250D03*
Y940250D03*
Y990250D03*
Y1430250D03*
Y1470250D03*
Y1910250D03*
Y1960250D03*
Y2400250D03*
Y2450250D03*
X160250Y20250D03*
Y170250D03*
Y190250D03*
Y460250D03*
Y500250D03*
Y940250D03*
Y990250D03*
Y1430250D03*
Y1470250D03*
Y1910250D03*
Y1960250D03*
X170250Y20250D03*
Y170250D03*
Y190250D03*
Y390250D03*
Y460250D03*
Y500250D03*
Y670250D03*
Y920250D03*
Y1180250D03*
Y1190250D03*
Y1200250D03*
Y1510250D03*
Y1520250D03*
Y1530250D03*
Y1770250D03*
Y1970250D03*
Y2110250D03*
Y2120250D03*
Y2130250D03*
Y2640250D03*
Y2700250D03*
Y3120250D03*
Y3180250D03*
X180250Y460250D03*
Y500250D03*
Y910250D03*
Y940250D03*
X190250Y200250D03*
Y210250D03*
Y220250D03*
Y390250D03*
Y400250D03*
Y420250D03*
Y430250D03*
Y440250D03*
Y450250D03*
Y660250D03*
Y670250D03*
Y680250D03*
Y690250D03*
Y700250D03*
Y710250D03*
X200250Y2830250D03*
Y2850250D03*
Y3160250D03*
Y3180250D03*
X220250Y180250D03*
Y190250D03*
Y200250D03*
Y210250D03*
Y220250D03*
Y390250D03*
Y400250D03*
Y420250D03*
Y430250D03*
Y440250D03*
Y450250D03*
Y660250D03*
Y670250D03*
Y680250D03*
Y690250D03*
Y700250D03*
Y710250D03*
Y920250D03*
Y930250D03*
Y940250D03*
Y1180250D03*
Y1190250D03*
Y1200250D03*
Y1510250D03*
Y1520250D03*
Y1530250D03*
Y1770250D03*
Y1780250D03*
Y1970250D03*
Y1980250D03*
Y2110250D03*
Y2120250D03*
Y2130250D03*
Y2380250D03*
Y2390250D03*
Y2450250D03*
Y2460250D03*
Y2500250D03*
Y2510250D03*
Y2650250D03*
Y2660250D03*
Y2670250D03*
Y2680250D03*
Y2690250D03*
Y2830250D03*
Y2840250D03*
Y2980250D03*
Y2990250D03*
Y3130250D03*
Y3140250D03*
Y3150250D03*
Y3160250D03*
Y3170250D03*
Y3310250D03*
Y3320250D03*
X270250Y180250D03*
Y190250D03*
Y200250D03*
Y210250D03*
Y220250D03*
Y390250D03*
Y400250D03*
Y420250D03*
Y430250D03*
Y440250D03*
Y450250D03*
Y660250D03*
Y670250D03*
Y680250D03*
Y690250D03*
Y700250D03*
Y710250D03*
Y920250D03*
Y930250D03*
Y940250D03*
Y1180250D03*
Y1190250D03*
Y1200250D03*
Y1510250D03*
Y1520250D03*
Y1530250D03*
Y1770250D03*
Y1780250D03*
Y1970250D03*
Y1980250D03*
Y2110250D03*
Y2120250D03*
Y2130250D03*
Y2380250D03*
Y2390250D03*
Y2450250D03*
Y2460250D03*
Y2500250D03*
Y2510250D03*
Y2650250D03*
Y2660250D03*
Y2670250D03*
Y2680250D03*
Y2690250D03*
Y2830250D03*
Y2840250D03*
Y2980250D03*
Y2990250D03*
Y3130250D03*
Y3140250D03*
Y3150250D03*
Y3160250D03*
Y3170250D03*
Y3310250D03*
Y3320250D03*
X280250Y180250D03*
Y190250D03*
Y200250D03*
Y210250D03*
Y220250D03*
Y390250D03*
Y400250D03*
Y420250D03*
Y430250D03*
Y440250D03*
Y450250D03*
Y660250D03*
Y670250D03*
Y680250D03*
Y690250D03*
Y700250D03*
Y710250D03*
Y920250D03*
Y930250D03*
Y940250D03*
Y1180250D03*
Y1190250D03*
Y1200250D03*
Y1960250D03*
Y1990250D03*
Y2100250D03*
Y2140250D03*
Y2700250D03*
Y2940250D03*
Y3180250D03*
X290250Y1320250D03*
Y1510250D03*
Y1520250D03*
Y1530250D03*
Y1770250D03*
Y2100250D03*
Y2140250D03*
Y2870250D03*
Y3110250D03*
Y3350250D03*
X300250Y1960250D03*
Y1970250D03*
Y1980250D03*
Y1990250D03*
Y2110250D03*
Y2120250D03*
Y2130250D03*
Y2360250D03*
Y2370250D03*
Y2380250D03*
Y2880250D03*
Y3120250D03*
Y3360250D03*
X310250Y1790250D03*
Y2470250D03*
Y2630250D03*
Y2640250D03*
Y2650250D03*
Y2890250D03*
Y3130250D03*
X320250Y2480250D03*
Y2710250D03*
Y2950250D03*
Y3350250D03*
X330250Y180250D03*
Y190250D03*
Y200250D03*
Y210250D03*
Y220250D03*
Y390250D03*
Y400250D03*
Y420250D03*
Y430250D03*
Y440250D03*
Y450250D03*
Y660250D03*
Y670250D03*
Y680250D03*
Y690250D03*
Y700250D03*
Y710250D03*
Y920250D03*
Y930250D03*
Y940250D03*
Y3180250D03*
Y3360250D03*
X340250Y2470250D03*
Y2480250D03*
Y2630250D03*
Y2640250D03*
Y2650250D03*
Y2700250D03*
Y2710250D03*
Y2870250D03*
Y2880250D03*
Y2890250D03*
Y2940250D03*
Y2950250D03*
Y3110250D03*
Y3120250D03*
Y3130250D03*
X350250Y1960250D03*
Y1970250D03*
Y1980250D03*
Y1990250D03*
Y2110250D03*
Y2120250D03*
Y2130250D03*
Y2360250D03*
Y2370250D03*
Y2380250D03*
Y2450250D03*
Y2460250D03*
Y2470250D03*
Y2630250D03*
Y2640250D03*
Y2650250D03*
Y2690250D03*
Y2700250D03*
Y2710250D03*
Y2870250D03*
Y2880250D03*
Y2890250D03*
Y2930250D03*
Y2940250D03*
Y2950250D03*
Y3110250D03*
Y3120250D03*
Y3130250D03*
Y3170250D03*
Y3180250D03*
Y3190250D03*
Y3350250D03*
Y3360250D03*
Y3370250D03*
X370250Y2100250D03*
Y2140250D03*
X380250Y1180250D03*
Y1190250D03*
Y1200250D03*
Y1320250D03*
Y1510250D03*
Y1520250D03*
Y1530250D03*
Y1770250D03*
Y1790250D03*
Y2100250D03*
Y2140250D03*
X390250Y1010250D03*
Y1020250D03*
Y1030250D03*
Y1040250D03*
Y1050250D03*
Y1060250D03*
Y1070250D03*
Y1080250D03*
Y1090250D03*
Y1180250D03*
Y1190250D03*
Y1200250D03*
Y1310250D03*
Y1320250D03*
Y1510250D03*
Y1520250D03*
Y1530250D03*
Y1770250D03*
Y1790250D03*
Y1810250D03*
Y1820250D03*
Y1830250D03*
Y1850250D03*
Y1860250D03*
Y1870250D03*
Y1910250D03*
X400250Y230250D03*
Y250250D03*
Y660250D03*
Y670250D03*
Y720250D03*
Y820250D03*
Y2450250D03*
Y2460250D03*
Y2470250D03*
Y2630250D03*
Y2640250D03*
Y2650250D03*
Y2690250D03*
Y2700250D03*
Y2710250D03*
Y2870250D03*
Y2880250D03*
Y2890250D03*
Y2930250D03*
Y2940250D03*
Y2950250D03*
Y3110250D03*
Y3120250D03*
Y3130250D03*
Y3170250D03*
Y3180250D03*
Y3190250D03*
Y3350250D03*
Y3360250D03*
Y3370250D03*
X410250Y2100250D03*
Y2160250D03*
X420250Y190250D03*
Y230250D03*
Y670250D03*
X430250Y680250D03*
Y690250D03*
Y820250D03*
Y2620250D03*
Y2860250D03*
Y3100250D03*
Y3340250D03*
X440250Y1010250D03*
Y1020250D03*
Y1030250D03*
Y1040250D03*
Y1050250D03*
Y1060250D03*
Y1070250D03*
Y1080250D03*
Y1090250D03*
Y1180250D03*
Y1190250D03*
Y1200250D03*
Y1310250D03*
Y1320250D03*
Y1510250D03*
Y1520250D03*
Y1530250D03*
Y1770250D03*
Y1790250D03*
Y1810250D03*
Y1820250D03*
Y1830250D03*
Y1850250D03*
Y1860250D03*
Y1870250D03*
Y1910250D03*
Y2090250D03*
Y2630250D03*
Y2650250D03*
Y2870250D03*
Y2890250D03*
Y3110250D03*
Y3130250D03*
Y3350250D03*
Y3370250D03*
X450250Y660250D03*
Y670250D03*
Y680250D03*
Y690250D03*
Y1500250D03*
Y1540250D03*
Y1570250D03*
Y2630250D03*
Y2870250D03*
Y3110250D03*
Y3350250D03*
X460250Y690250D03*
Y710250D03*
Y1760250D03*
Y1840250D03*
Y2100250D03*
Y2640250D03*
Y2650250D03*
Y2880250D03*
Y2890250D03*
Y3120250D03*
Y3130250D03*
Y3360250D03*
Y3370250D03*
X470250Y210250D03*
Y230250D03*
Y660250D03*
Y720250D03*
Y730250D03*
Y1520250D03*
Y1540250D03*
Y1760250D03*
Y1850250D03*
Y2110250D03*
Y2120250D03*
X480250Y180250D03*
Y260250D03*
Y1190250D03*
Y1210250D03*
Y1760250D03*
Y1860250D03*
Y2620250D03*
Y2630250D03*
Y2640250D03*
Y2650250D03*
Y2860250D03*
Y2870250D03*
Y2880250D03*
Y2890250D03*
Y3100250D03*
Y3110250D03*
Y3120250D03*
Y3130250D03*
Y3340250D03*
Y3350250D03*
Y3360250D03*
Y3370250D03*
X490250Y90250D03*
Y110250D03*
Y180250D03*
Y260250D03*
Y320250D03*
Y340250D03*
Y680250D03*
Y720250D03*
Y1180250D03*
Y1210250D03*
Y2090250D03*
Y2100250D03*
Y2110250D03*
Y2120250D03*
X500250Y200250D03*
Y240250D03*
Y1220250D03*
Y1570250D03*
Y2090250D03*
Y2170250D03*
X510250Y250250D03*
Y730250D03*
Y1500250D03*
Y1520250D03*
Y2140250D03*
Y2150250D03*
Y2160250D03*
Y2170250D03*
Y2470250D03*
Y2500250D03*
Y2710250D03*
Y2740250D03*
Y2950250D03*
Y2980250D03*
Y3190250D03*
Y3220250D03*
X520250Y1160250D03*
Y1500250D03*
Y2620250D03*
Y2860250D03*
Y3100250D03*
Y3340250D03*
X530250Y100250D03*
Y250250D03*
Y1170250D03*
Y1200250D03*
Y2140250D03*
Y2150250D03*
X540250Y1170250D03*
Y2160250D03*
Y2630250D03*
Y2870250D03*
Y3110250D03*
Y3350250D03*
X550250Y100250D03*
Y210250D03*
Y240250D03*
Y1180250D03*
Y1190250D03*
Y1500250D03*
Y2110250D03*
Y2150250D03*
Y2640250D03*
Y2650250D03*
Y2880250D03*
Y2890250D03*
Y3120250D03*
Y3130250D03*
Y3360250D03*
Y3370250D03*
X560250Y680250D03*
Y690250D03*
Y1480250D03*
Y1570250D03*
Y2120250D03*
Y2140250D03*
Y2170250D03*
X570250Y1160250D03*
Y1170250D03*
Y1180250D03*
Y1190250D03*
Y1540250D03*
Y1550250D03*
Y1560250D03*
Y1570250D03*
Y2620250D03*
Y2630250D03*
Y2640250D03*
Y2650250D03*
Y2860250D03*
Y2870250D03*
Y2880250D03*
Y2890250D03*
Y3100250D03*
Y3110250D03*
Y3120250D03*
Y3130250D03*
Y3340250D03*
Y3350250D03*
Y3360250D03*
Y3370250D03*
X580250Y680250D03*
Y690250D03*
Y1250250D03*
Y1270250D03*
Y2470250D03*
Y2490250D03*
Y2710250D03*
Y2730250D03*
Y2950250D03*
Y2970250D03*
Y3190250D03*
Y3210250D03*
X590250Y1260250D03*
Y1540250D03*
Y1550250D03*
Y2470250D03*
Y2490250D03*
Y2710250D03*
Y2730250D03*
Y2950250D03*
Y2970250D03*
Y3190250D03*
Y3210250D03*
X600250Y1220250D03*
Y1250250D03*
Y1510250D03*
Y1550250D03*
Y1560250D03*
Y1960250D03*
Y1970250D03*
Y2110250D03*
Y2120250D03*
Y2130250D03*
Y2360250D03*
Y2370250D03*
Y2380250D03*
X610250Y1160250D03*
Y1500250D03*
Y1560250D03*
Y2620250D03*
Y2860250D03*
Y3100250D03*
Y3340250D03*
X620250Y180250D03*
Y190250D03*
Y200250D03*
Y210250D03*
Y220250D03*
Y410250D03*
Y420250D03*
Y430250D03*
Y440250D03*
Y450250D03*
Y670250D03*
Y680250D03*
Y690250D03*
Y700250D03*
Y920250D03*
Y930250D03*
Y940250D03*
Y1570250D03*
X630250Y2630250D03*
Y2870250D03*
Y3110250D03*
Y3350250D03*
X640250Y1180250D03*
Y1190250D03*
Y2640250D03*
Y2650250D03*
Y2880250D03*
Y2890250D03*
Y3120250D03*
Y3130250D03*
Y3360250D03*
Y3370250D03*
X650250Y1960250D03*
Y1970250D03*
Y2110250D03*
Y2120250D03*
Y2130250D03*
Y2360250D03*
Y2370250D03*
Y2380250D03*
X660250Y1160250D03*
Y1180250D03*
Y1190250D03*
Y1500250D03*
Y1540250D03*
Y2100250D03*
Y2140250D03*
Y2350250D03*
Y2380250D03*
Y2620250D03*
Y2630250D03*
Y2640250D03*
Y2650250D03*
Y2860250D03*
Y2870250D03*
Y2880250D03*
Y2890250D03*
Y3100250D03*
Y3110250D03*
Y3120250D03*
Y3130250D03*
Y3340250D03*
Y3350250D03*
Y3360250D03*
Y3370250D03*
X670250Y180250D03*
Y190250D03*
Y200250D03*
Y210250D03*
Y220250D03*
Y420250D03*
Y430250D03*
Y440250D03*
Y450250D03*
Y670250D03*
Y680250D03*
Y690250D03*
Y700250D03*
Y920250D03*
Y930250D03*
Y940250D03*
Y1500250D03*
Y1540250D03*
Y1970250D03*
Y2000250D03*
Y2100250D03*
Y2140250D03*
Y2350250D03*
Y2380250D03*
X680250Y500250D03*
Y910250D03*
Y1010250D03*
Y1020250D03*
Y1180250D03*
Y1190250D03*
Y1200250D03*
Y1310250D03*
Y1320250D03*
Y1510250D03*
Y1520250D03*
Y1530250D03*
Y1750250D03*
Y1760250D03*
Y1770250D03*
Y1790250D03*
Y1810250D03*
Y1820250D03*
Y1830250D03*
Y1840250D03*
Y1850250D03*
Y1860250D03*
Y1870250D03*
Y1910250D03*
Y2160250D03*
X690250Y190250D03*
Y230250D03*
Y410250D03*
Y460250D03*
Y670250D03*
Y710250D03*
Y2150250D03*
Y2480250D03*
Y2500250D03*
Y2720250D03*
Y2740250D03*
Y2960250D03*
Y2980250D03*
Y3200250D03*
Y3220250D03*
X700250Y410250D03*
Y460250D03*
Y670250D03*
Y710250D03*
Y730250D03*
Y910250D03*
Y2620250D03*
Y2860250D03*
Y3100250D03*
Y3340250D03*
X710250Y240250D03*
Y500250D03*
Y670250D03*
Y710250D03*
Y740250D03*
Y2150250D03*
Y2160250D03*
X720250Y1960250D03*
Y1970250D03*
Y1980250D03*
Y2140250D03*
Y2150250D03*
Y2160250D03*
Y2210250D03*
Y2220250D03*
Y2230250D03*
Y2360250D03*
Y2370250D03*
Y2380250D03*
Y2480250D03*
Y2510250D03*
Y2720250D03*
Y2750250D03*
Y2960250D03*
Y2990250D03*
Y3200250D03*
Y3230250D03*
X730250Y200250D03*
Y230250D03*
Y680250D03*
Y710250D03*
Y1010250D03*
Y1020250D03*
Y1180250D03*
Y1190250D03*
Y1200250D03*
Y1310250D03*
Y1320250D03*
Y1510250D03*
Y1520250D03*
Y1530250D03*
Y1750250D03*
Y1760250D03*
Y1770250D03*
Y1790250D03*
Y1810250D03*
Y1820250D03*
Y1830250D03*
Y1840250D03*
Y1850250D03*
Y1860250D03*
Y1870250D03*
Y1910250D03*
Y2640250D03*
Y2650250D03*
Y2880250D03*
Y2890250D03*
Y3120250D03*
Y3130250D03*
Y3360250D03*
Y3370250D03*
X740250Y240250D03*
Y730250D03*
Y1180250D03*
Y1190250D03*
Y1200250D03*
Y1320250D03*
Y1510250D03*
Y1520250D03*
Y1530250D03*
X750250Y2620250D03*
Y2640250D03*
Y2650250D03*
Y2860250D03*
Y2880250D03*
Y2890250D03*
Y3100250D03*
Y3120250D03*
Y3130250D03*
Y3340250D03*
Y3360250D03*
Y3370250D03*
X760250Y180250D03*
Y190250D03*
Y250250D03*
Y660250D03*
Y670250D03*
Y730250D03*
Y740250D03*
Y1730250D03*
Y1780250D03*
X770250Y1730250D03*
Y1790250D03*
Y1960250D03*
Y1970250D03*
Y1980250D03*
Y2140250D03*
Y2150250D03*
Y2160250D03*
Y2210250D03*
Y2220250D03*
Y2230250D03*
Y2360250D03*
Y2370250D03*
Y2380250D03*
X780250Y190250D03*
Y210250D03*
Y1730250D03*
Y1810250D03*
X790250Y200250D03*
Y210250D03*
Y680250D03*
Y690250D03*
Y1730250D03*
Y1820250D03*
Y2620250D03*
Y2860250D03*
Y3100250D03*
Y3340250D03*
X800250Y870250D03*
Y1730250D03*
Y1830250D03*
Y2130250D03*
X810250Y180250D03*
Y200250D03*
Y210250D03*
Y660250D03*
Y680250D03*
Y690250D03*
Y1730250D03*
Y1880250D03*
Y2140250D03*
Y2160250D03*
Y2630250D03*
Y2870250D03*
Y3110250D03*
Y3350250D03*
X820250Y210250D03*
Y230250D03*
Y410250D03*
Y460250D03*
Y490250D03*
Y520250D03*
Y690250D03*
Y710250D03*
Y1180250D03*
Y1190250D03*
Y1200250D03*
Y1320250D03*
Y1740250D03*
Y1750250D03*
Y1760250D03*
Y1770250D03*
Y1780250D03*
Y2140250D03*
Y2640250D03*
Y2650250D03*
Y2880250D03*
Y2890250D03*
Y3120250D03*
Y3130250D03*
Y3360250D03*
Y3370250D03*
X830250Y420250D03*
Y460250D03*
Y490250D03*
Y530250D03*
Y670250D03*
Y710250D03*
Y870250D03*
Y1790250D03*
Y2150250D03*
Y2160250D03*
X840250Y1800250D03*
Y1890250D03*
Y2480250D03*
Y2500250D03*
Y2620250D03*
Y2630250D03*
Y2640250D03*
Y2650250D03*
Y2720250D03*
Y2740250D03*
Y2860250D03*
Y2870250D03*
Y2880250D03*
Y2890250D03*
Y2960250D03*
Y2980250D03*
Y3100250D03*
Y3110250D03*
Y3120250D03*
Y3130250D03*
Y3200250D03*
Y3220250D03*
Y3340250D03*
Y3350250D03*
Y3360250D03*
Y3370250D03*
X850250Y20250D03*
Y30250D03*
Y40250D03*
Y200250D03*
Y210250D03*
Y220250D03*
Y430250D03*
Y440250D03*
Y450250D03*
Y500250D03*
Y510250D03*
Y520250D03*
Y680250D03*
Y690250D03*
Y700250D03*
Y850250D03*
Y860250D03*
Y870250D03*
Y880250D03*
Y890250D03*
Y900250D03*
Y910250D03*
Y920250D03*
Y930250D03*
Y940250D03*
Y2130250D03*
Y2140250D03*
Y2150250D03*
Y2160250D03*
X860250Y1510250D03*
Y1520250D03*
Y1530250D03*
Y1740250D03*
Y1750250D03*
Y1760250D03*
Y1770250D03*
Y1780250D03*
Y1790250D03*
X870250Y1030250D03*
Y1040250D03*
Y1050250D03*
Y1060250D03*
Y1070250D03*
Y1080250D03*
Y1180250D03*
Y1190250D03*
Y1200250D03*
Y1310250D03*
Y1320250D03*
Y1370250D03*
Y1380250D03*
Y1390250D03*
Y1510250D03*
Y1520250D03*
Y1530250D03*
Y1740250D03*
Y1750250D03*
Y1760250D03*
Y1770250D03*
Y1780250D03*
Y1790250D03*
Y1800250D03*
Y1810250D03*
Y1820250D03*
Y1830250D03*
Y1840250D03*
Y1850250D03*
Y1860250D03*
Y1870250D03*
Y1880250D03*
Y1890250D03*
Y1910250D03*
Y2470250D03*
Y2500250D03*
Y2710250D03*
Y2740250D03*
Y2950250D03*
Y2980250D03*
Y3190250D03*
Y3220250D03*
X880250Y1980250D03*
Y2010250D03*
Y2620250D03*
Y2860250D03*
Y3100250D03*
Y3340250D03*
X890250Y2130250D03*
X900250Y20250D03*
Y30250D03*
Y40250D03*
Y200250D03*
Y210250D03*
Y220250D03*
Y430250D03*
Y440250D03*
Y450250D03*
Y500250D03*
Y510250D03*
Y520250D03*
Y680250D03*
Y690250D03*
Y700250D03*
Y850250D03*
Y860250D03*
Y870250D03*
Y880250D03*
Y890250D03*
Y900250D03*
Y910250D03*
Y920250D03*
Y930250D03*
Y940250D03*
X910250Y2140250D03*
Y2630250D03*
Y2650250D03*
Y2870250D03*
Y2890250D03*
Y3110250D03*
Y3130250D03*
Y3350250D03*
Y3370250D03*
X920250Y1030250D03*
Y1040250D03*
Y1050250D03*
Y1060250D03*
Y1070250D03*
Y1080250D03*
Y1180250D03*
Y1190250D03*
Y1200250D03*
Y1310250D03*
Y1320250D03*
Y1370250D03*
Y1380250D03*
Y1390250D03*
Y1510250D03*
Y1520250D03*
Y1530250D03*
Y1740250D03*
Y1750250D03*
Y1760250D03*
Y1770250D03*
Y1780250D03*
Y1790250D03*
Y1800250D03*
Y1810250D03*
Y1820250D03*
Y1830250D03*
Y1840250D03*
Y1850250D03*
Y1860250D03*
Y1870250D03*
Y1880250D03*
Y1890250D03*
Y1910250D03*
Y2150250D03*
Y2160250D03*
X930250Y190250D03*
Y670250D03*
Y2620250D03*
Y2630250D03*
Y2650250D03*
Y2860250D03*
Y2870250D03*
Y2890250D03*
Y3100250D03*
Y3110250D03*
Y3130250D03*
Y3340250D03*
Y3350250D03*
Y3370250D03*
X940250Y200250D03*
Y220250D03*
Y680250D03*
Y700250D03*
Y1500250D03*
Y1540250D03*
Y2130250D03*
Y2140250D03*
Y2150250D03*
Y2160250D03*
X950250Y200250D03*
Y410250D03*
Y680250D03*
Y1530250D03*
Y1560250D03*
Y1980250D03*
Y2000250D03*
Y2480250D03*
Y2490250D03*
Y2630250D03*
Y2640250D03*
Y2650250D03*
Y2720250D03*
Y2730250D03*
Y2870250D03*
Y2880250D03*
Y2890250D03*
Y2960250D03*
Y2970250D03*
Y3110250D03*
Y3120250D03*
Y3130250D03*
Y3200250D03*
Y3210250D03*
Y3350250D03*
Y3360250D03*
Y3370250D03*
X960250Y210250D03*
Y220250D03*
Y420250D03*
Y440250D03*
Y690250D03*
Y700250D03*
Y1050250D03*
Y1070250D03*
Y1510250D03*
Y1560250D03*
Y1980250D03*
Y2000250D03*
X970250Y420250D03*
Y2300250D03*
Y2330250D03*
X980250Y190250D03*
Y200250D03*
Y210250D03*
Y220250D03*
Y430250D03*
Y440250D03*
Y670250D03*
Y680250D03*
Y690250D03*
Y700250D03*
Y1550250D03*
Y2130250D03*
X990250Y1160250D03*
Y1180250D03*
Y1210250D03*
Y1490250D03*
X1000250Y410250D03*
Y420250D03*
Y430250D03*
Y440250D03*
Y1170250D03*
Y1190250D03*
Y1500250D03*
Y1520250D03*
Y2140250D03*
Y2460250D03*
Y2480250D03*
Y2490250D03*
Y2630250D03*
Y2640250D03*
Y2650250D03*
Y2720250D03*
Y2730250D03*
Y2870250D03*
Y2880250D03*
Y2890250D03*
Y2960250D03*
Y2970250D03*
Y3110250D03*
Y3120250D03*
Y3130250D03*
Y3200250D03*
Y3210250D03*
Y3350250D03*
Y3360250D03*
Y3370250D03*
X1010250Y40250D03*
Y70250D03*
Y520250D03*
Y550250D03*
Y1170250D03*
Y1500250D03*
Y1550250D03*
Y2150250D03*
Y2160250D03*
Y2680250D03*
Y2920250D03*
Y3160250D03*
X1020250Y190250D03*
Y670250D03*
Y1040250D03*
Y1060250D03*
Y2290250D03*
Y2310250D03*
X1030250Y1170250D03*
Y1500250D03*
Y2130250D03*
Y2140250D03*
Y2150250D03*
Y2160250D03*
Y2290250D03*
Y2330250D03*
Y2620250D03*
Y2660250D03*
Y2710250D03*
Y2740250D03*
Y2860250D03*
Y2880250D03*
Y3100250D03*
Y3140250D03*
Y3190250D03*
Y3220250D03*
Y3340250D03*
Y3360250D03*
X1040250Y200250D03*
Y680250D03*
Y1160250D03*
Y1490250D03*
Y3420250D03*
Y3430250D03*
Y3440250D03*
Y3450250D03*
Y3460250D03*
Y3470250D03*
X1050250Y210250D03*
Y220250D03*
Y690250D03*
Y700250D03*
Y1150250D03*
Y1200250D03*
Y1480250D03*
Y1530250D03*
Y2620250D03*
Y2860250D03*
Y3100250D03*
Y3340250D03*
X1060250Y420250D03*
Y990250D03*
Y1050250D03*
Y1990250D03*
Y2010250D03*
X1070250Y190250D03*
Y200250D03*
Y210250D03*
Y220250D03*
Y670250D03*
Y680250D03*
Y690250D03*
Y700250D03*
Y2130250D03*
X1080250Y40250D03*
Y60250D03*
Y520250D03*
Y540250D03*
Y1200250D03*
Y1230250D03*
Y1530250D03*
Y1560250D03*
Y2620250D03*
Y2730250D03*
Y2740250D03*
Y2860250D03*
Y2970250D03*
Y3100250D03*
Y3210250D03*
Y3220250D03*
Y3340250D03*
Y3420250D03*
Y3430250D03*
Y3440250D03*
Y3450250D03*
Y3460250D03*
Y3470250D03*
X1090250Y40250D03*
Y60250D03*
Y420250D03*
Y520250D03*
Y540250D03*
Y1180250D03*
Y1230250D03*
Y1510250D03*
Y1560250D03*
Y1990250D03*
Y2020250D03*
X1100250Y2150250D03*
Y2160250D03*
Y2460250D03*
X1110250Y190250D03*
Y340250D03*
Y360250D03*
Y410250D03*
Y430250D03*
Y670250D03*
Y1010250D03*
Y1040250D03*
Y1220250D03*
Y1550250D03*
Y2630250D03*
Y2660250D03*
Y2680250D03*
Y2690250D03*
Y2710250D03*
Y2730250D03*
Y2740250D03*
Y2870250D03*
Y2900250D03*
Y2920250D03*
Y2930250D03*
Y2950250D03*
Y2970250D03*
Y3110250D03*
Y3140250D03*
Y3160250D03*
Y3170250D03*
Y3190250D03*
Y3210250D03*
Y3220250D03*
X1120250Y350250D03*
Y1160250D03*
Y1490250D03*
Y2130250D03*
Y2150250D03*
Y2160250D03*
Y2460250D03*
Y2480250D03*
Y2690250D03*
Y2710250D03*
Y2930250D03*
Y2950250D03*
Y3170250D03*
Y3190250D03*
X1130250Y200250D03*
Y340250D03*
Y680250D03*
Y2470250D03*
Y2700250D03*
Y2860250D03*
Y2940250D03*
Y3180250D03*
Y3340250D03*
X1140250Y210250D03*
Y220250D03*
Y690250D03*
Y700250D03*
Y1170250D03*
Y1220250D03*
Y1500250D03*
Y1550250D03*
Y2460250D03*
Y2690250D03*
Y2930250D03*
Y3170250D03*
X1150250Y340250D03*
Y440250D03*
Y2260250D03*
Y2480250D03*
Y2510250D03*
Y2630250D03*
X1160250Y190250D03*
Y200250D03*
Y210250D03*
Y220250D03*
Y670250D03*
Y680250D03*
Y690250D03*
Y700250D03*
Y1170250D03*
Y1500250D03*
Y2130250D03*
Y2640250D03*
Y2650250D03*
Y2690250D03*
Y2700250D03*
Y2860250D03*
Y2870250D03*
Y2880250D03*
Y2890250D03*
Y2930250D03*
Y2940250D03*
Y3110250D03*
Y3120250D03*
Y3130250D03*
Y3180250D03*
Y3340250D03*
X1170250Y1160250D03*
Y1490250D03*
Y2520250D03*
Y2760250D03*
Y3000250D03*
X1180250Y1150250D03*
Y1200250D03*
Y1480250D03*
Y1530250D03*
Y2140250D03*
Y2510250D03*
Y2750250D03*
Y2990250D03*
Y3180250D03*
X1190250Y50250D03*
Y70250D03*
Y530250D03*
Y550250D03*
Y1050250D03*
Y1200250D03*
Y1230250D03*
Y1530250D03*
Y1560250D03*
Y2150250D03*
Y2160250D03*
Y2500250D03*
Y2740250D03*
Y2930250D03*
Y2980250D03*
X1200250Y190250D03*
Y670250D03*
Y1040250D03*
Y1180250D03*
Y1230250D03*
Y1510250D03*
Y1560250D03*
Y2490250D03*
Y2730250D03*
Y2940250D03*
Y2970250D03*
X1210250Y410250D03*
Y1050250D03*
Y1990250D03*
Y2010250D03*
Y2130250D03*
Y2140250D03*
Y2150250D03*
Y2160250D03*
Y2480250D03*
Y2690250D03*
Y2720250D03*
Y2960250D03*
Y3460250D03*
Y3470250D03*
Y3610250D03*
Y3680250D03*
X1220250Y50250D03*
Y80250D03*
Y530250D03*
Y560250D03*
Y1220250D03*
Y1550250D03*
Y2470250D03*
Y2700250D03*
Y2710250D03*
Y2950250D03*
X1230250Y210250D03*
Y220250D03*
Y420250D03*
Y690250D03*
Y700250D03*
Y1010250D03*
Y1030250D03*
Y1160250D03*
Y1490250D03*
Y2290250D03*
Y2310250D03*
Y2460250D03*
Y2700250D03*
Y2940250D03*
Y3610250D03*
Y3680250D03*
X1240250Y430250D03*
Y440250D03*
Y1040250D03*
Y1980250D03*
Y2010250D03*
Y2300250D03*
X1250250Y190250D03*
Y210250D03*
Y220250D03*
Y670250D03*
Y690250D03*
Y700250D03*
Y1170250D03*
Y1220250D03*
Y1500250D03*
Y1550250D03*
Y2130250D03*
Y2260250D03*
Y2290250D03*
Y2460250D03*
Y2470250D03*
Y2480250D03*
Y2490250D03*
Y2500250D03*
Y2510250D03*
Y2520250D03*
Y2630250D03*
Y2640250D03*
Y2650250D03*
Y2700250D03*
Y2710250D03*
Y2720250D03*
Y2730250D03*
Y2740250D03*
Y2750250D03*
Y2760250D03*
Y2870250D03*
Y2880250D03*
Y2890250D03*
Y2940250D03*
Y2950250D03*
Y2960250D03*
Y2970250D03*
Y2980250D03*
Y2990250D03*
Y3000250D03*
Y3110250D03*
Y3120250D03*
Y3130250D03*
Y3460250D03*
Y3470250D03*
X1260250Y410250D03*
Y420250D03*
Y430250D03*
Y440250D03*
Y2450250D03*
Y2460250D03*
Y2470250D03*
Y2480250D03*
Y2490250D03*
Y2500250D03*
Y2510250D03*
Y2520250D03*
Y2630250D03*
Y2640250D03*
Y2650250D03*
Y2690250D03*
Y2700250D03*
Y2710250D03*
Y2720250D03*
Y2730250D03*
Y2740250D03*
Y2750250D03*
Y2760250D03*
Y2870250D03*
Y2880250D03*
Y2890250D03*
Y2930250D03*
Y2940250D03*
Y2950250D03*
Y2960250D03*
Y2970250D03*
Y2980250D03*
Y2990250D03*
Y3000250D03*
Y3110250D03*
Y3120250D03*
Y3130250D03*
Y3170250D03*
Y3180250D03*
Y3190250D03*
Y3200250D03*
Y3210250D03*
Y3220250D03*
Y3230250D03*
Y3240250D03*
Y3350250D03*
Y3360250D03*
Y3370250D03*
X1270250Y1170250D03*
Y1500250D03*
X1280250Y1160250D03*
Y1490250D03*
Y2140250D03*
Y2160250D03*
X1290250Y190250D03*
Y670250D03*
Y1150250D03*
Y1200250D03*
Y1480250D03*
Y1530250D03*
X1300250Y2130250D03*
Y2140250D03*
Y2160250D03*
X1310250Y200250D03*
Y680250D03*
Y2450250D03*
Y2460250D03*
Y2470250D03*
Y2480250D03*
Y2490250D03*
Y2500250D03*
Y2510250D03*
Y2520250D03*
Y2630250D03*
Y2640250D03*
Y2650250D03*
Y2690250D03*
Y2700250D03*
Y2710250D03*
Y2720250D03*
Y2730250D03*
Y2740250D03*
Y2750250D03*
Y2760250D03*
Y2870250D03*
Y2880250D03*
Y2890250D03*
Y2930250D03*
Y2940250D03*
Y2950250D03*
Y2960250D03*
Y2970250D03*
Y2980250D03*
Y2990250D03*
Y3000250D03*
Y3110250D03*
Y3120250D03*
Y3130250D03*
Y3170250D03*
Y3180250D03*
Y3190250D03*
Y3200250D03*
Y3210250D03*
Y3220250D03*
Y3230250D03*
Y3240250D03*
Y3350250D03*
Y3360250D03*
Y3370250D03*
Y3440250D03*
Y3450250D03*
Y3460250D03*
Y3470250D03*
X1320250Y210250D03*
Y220250D03*
Y690250D03*
Y700250D03*
Y1200250D03*
Y1230250D03*
Y1530250D03*
Y1560250D03*
Y1990250D03*
Y2000250D03*
Y2140250D03*
Y2150250D03*
Y2160250D03*
Y2210250D03*
Y2220250D03*
Y2360250D03*
Y2370250D03*
Y2380250D03*
Y2460250D03*
Y2480250D03*
Y2700250D03*
Y2710250D03*
Y2930250D03*
Y2960250D03*
Y3170250D03*
Y3190250D03*
Y3670250D03*
Y3680250D03*
X1330250Y1040250D03*
Y1180250D03*
Y1230250D03*
Y1510250D03*
Y1560250D03*
Y2460250D03*
Y2530250D03*
Y2700250D03*
Y2770250D03*
Y2930250D03*
Y3010250D03*
Y3170250D03*
Y3250250D03*
X1340250Y50250D03*
Y70250D03*
Y190250D03*
Y200250D03*
Y210250D03*
Y220250D03*
Y530250D03*
Y550250D03*
Y670250D03*
Y680250D03*
Y690250D03*
Y700250D03*
X1350250Y1220250D03*
Y1550250D03*
Y2510250D03*
Y2550250D03*
Y2750250D03*
Y2790250D03*
Y2990250D03*
Y3030250D03*
Y3230250D03*
Y3270250D03*
X1360250Y1490250D03*
Y2490250D03*
Y2550250D03*
Y2730250D03*
Y2790250D03*
Y2970250D03*
Y3030250D03*
Y3210250D03*
Y3270250D03*
Y3670250D03*
Y3680250D03*
X1370250Y40250D03*
Y70250D03*
Y340250D03*
Y360250D03*
Y520250D03*
Y550250D03*
Y1040250D03*
Y1190250D03*
Y1210250D03*
Y1520250D03*
Y1540250D03*
Y1990250D03*
Y2000250D03*
Y2140250D03*
Y2150250D03*
Y2160250D03*
Y2210250D03*
Y2220250D03*
Y2360250D03*
Y2370250D03*
Y2380250D03*
Y2470250D03*
Y2550250D03*
Y2720250D03*
Y2790250D03*
Y2950250D03*
Y3030250D03*
Y3200250D03*
Y3270250D03*
Y3440250D03*
Y3450250D03*
Y3460250D03*
Y3470250D03*
X1380250Y190250D03*
Y350250D03*
Y670250D03*
Y1220250D03*
Y1550250D03*
Y2110250D03*
Y2170250D03*
Y2450250D03*
Y2550250D03*
Y2690250D03*
Y2790250D03*
Y2940250D03*
Y3030250D03*
Y3180250D03*
Y3270250D03*
X1390250Y340250D03*
Y2110250D03*
Y2170250D03*
Y2360250D03*
Y2380250D03*
X1400250Y2110250D03*
Y2170250D03*
Y3680250D03*
X1410250Y200250D03*
Y220250D03*
Y340250D03*
Y440250D03*
Y680250D03*
Y700250D03*
Y1490250D03*
Y1960250D03*
Y1970250D03*
Y2120250D03*
Y2130250D03*
Y2140250D03*
Y2360250D03*
Y2370250D03*
Y2380250D03*
X1420250Y1170250D03*
Y1200250D03*
Y1480250D03*
Y1530250D03*
Y1670250D03*
Y3680250D03*
X1430250Y190250D03*
Y200250D03*
Y220250D03*
Y670250D03*
Y680250D03*
Y700250D03*
Y1170250D03*
Y1210250D03*
Y1490250D03*
Y1550250D03*
Y2630644D03*
Y2870644D03*
Y3110644D03*
Y3350644D03*
X1440250Y1170250D03*
Y1210250D03*
Y1500250D03*
Y1540250D03*
Y2640644D03*
Y2650644D03*
Y2880644D03*
Y2890644D03*
Y3120644D03*
Y3130644D03*
Y3360644D03*
Y3370644D03*
Y3620250D03*
Y3640250D03*
X1450250Y50250D03*
Y60250D03*
Y200250D03*
Y210250D03*
Y220250D03*
Y270250D03*
Y280250D03*
Y290250D03*
Y300250D03*
Y430250D03*
Y440250D03*
Y450250D03*
Y530250D03*
Y540250D03*
Y680250D03*
Y690250D03*
Y700250D03*
Y850250D03*
Y860250D03*
Y870250D03*
Y880250D03*
Y890250D03*
Y900250D03*
Y910250D03*
Y920250D03*
Y930250D03*
Y940250D03*
Y1500250D03*
Y1540250D03*
X1460250Y1670250D03*
Y1960250D03*
Y1970250D03*
Y2120250D03*
Y2130250D03*
Y2140250D03*
Y2360250D03*
Y2370250D03*
Y2380250D03*
Y2480250D03*
Y2530250D03*
Y2630644D03*
Y2640644D03*
Y2650644D03*
Y2710250D03*
Y2770250D03*
Y2870644D03*
Y2880644D03*
Y2890644D03*
Y2960250D03*
Y3010250D03*
Y3110644D03*
Y3120644D03*
Y3130644D03*
Y3190250D03*
Y3250250D03*
Y3350644D03*
Y3360644D03*
Y3370644D03*
X1470250Y1180250D03*
Y1190250D03*
Y1200250D03*
Y1370250D03*
Y1380250D03*
Y1510250D03*
Y1520250D03*
Y1530250D03*
Y1740250D03*
Y1750250D03*
Y1760250D03*
Y1770250D03*
Y1780250D03*
Y1790250D03*
Y1800250D03*
Y1810250D03*
Y1820250D03*
Y1830250D03*
Y1840250D03*
Y1850250D03*
Y1860250D03*
Y1870250D03*
Y1880250D03*
Y1890250D03*
Y1910250D03*
Y3610250D03*
Y3680250D03*
X1480250Y2520250D03*
Y2550250D03*
Y2760250D03*
Y2790250D03*
Y3000250D03*
Y3030250D03*
Y3240250D03*
Y3270250D03*
X1490250Y1960250D03*
Y1980250D03*
Y2490250D03*
Y2550250D03*
Y2730250D03*
Y2790250D03*
Y2970250D03*
Y3030250D03*
Y3210250D03*
Y3270250D03*
Y3610250D03*
Y3680250D03*
X1500250Y50250D03*
Y60250D03*
Y200250D03*
Y210250D03*
Y220250D03*
Y270250D03*
Y280250D03*
Y290250D03*
Y300250D03*
Y430250D03*
Y440250D03*
Y450250D03*
Y530250D03*
Y540250D03*
Y680250D03*
Y690250D03*
Y700250D03*
Y850250D03*
Y860250D03*
Y870250D03*
Y880250D03*
Y890250D03*
Y900250D03*
Y910250D03*
Y920250D03*
Y930250D03*
Y940250D03*
Y2100250D03*
Y2130250D03*
Y2150250D03*
Y2470250D03*
Y2550250D03*
Y2720250D03*
Y2790250D03*
Y2950250D03*
Y3030250D03*
Y3200250D03*
Y3270250D03*
X1510250Y300250D03*
Y430250D03*
Y440250D03*
Y450250D03*
Y680250D03*
Y690250D03*
Y700250D03*
Y2110250D03*
Y2130250D03*
Y2450250D03*
Y2550250D03*
Y2690250D03*
Y2790250D03*
Y2940250D03*
Y3030250D03*
Y3180250D03*
Y3270250D03*
X1520250Y200250D03*
Y210250D03*
Y220250D03*
Y840250D03*
Y860250D03*
Y1180250D03*
Y1190250D03*
Y1200250D03*
Y1370250D03*
Y1380250D03*
Y1510250D03*
Y1520250D03*
Y1530250D03*
Y1740250D03*
Y1750250D03*
Y1760250D03*
Y1770250D03*
Y1780250D03*
Y1790250D03*
Y1800250D03*
Y1810250D03*
Y1820250D03*
Y1830250D03*
Y1840250D03*
Y1850250D03*
Y1860250D03*
Y1870250D03*
Y1880250D03*
Y1890250D03*
Y1910250D03*
Y2110250D03*
Y2120250D03*
Y2160250D03*
X1530250Y510250D03*
Y520250D03*
Y1500250D03*
Y1540250D03*
Y1730250D03*
Y1900250D03*
Y2120250D03*
Y2130250D03*
X1540250Y300250D03*
Y1500250D03*
Y1540250D03*
X1550250Y170250D03*
Y190250D03*
Y1230250D03*
Y1560250D03*
Y2100250D03*
Y2110250D03*
Y2120250D03*
Y2130250D03*
X1560250Y160250D03*
Y190250D03*
Y220250D03*
Y860250D03*
Y890250D03*
Y2150250D03*
Y2160250D03*
Y2170250D03*
Y2180250D03*
Y2630644D03*
Y2870644D03*
Y3110644D03*
Y3350644D03*
X1570250Y150250D03*
Y190250D03*
Y210250D03*
Y1230250D03*
Y1510250D03*
Y1540250D03*
Y1560250D03*
Y2640250D03*
Y2650644D03*
Y2880250D03*
Y2890644D03*
Y3120250D03*
Y3130644D03*
Y3360250D03*
Y3370644D03*
X1580250Y130250D03*
Y190250D03*
Y200250D03*
Y1170250D03*
Y1210250D03*
Y1500250D03*
Y1540250D03*
Y2150250D03*
Y2160250D03*
X1590250Y840250D03*
Y880250D03*
Y1190250D03*
Y1210250D03*
Y1520250D03*
Y1540250D03*
Y2100250D03*
Y2120250D03*
Y2160250D03*
Y2170250D03*
Y2630250D03*
Y2640250D03*
Y2650250D03*
Y2870250D03*
Y2880250D03*
Y2890250D03*
Y3110250D03*
Y3120250D03*
Y3130250D03*
Y3350250D03*
Y3360250D03*
Y3370250D03*
X1600250Y430250D03*
Y440250D03*
Y450250D03*
Y510250D03*
Y840250D03*
Y860250D03*
Y1180250D03*
Y1190250D03*
Y1510250D03*
Y1520250D03*
Y2130250D03*
Y2150250D03*
X1610250Y520250D03*
Y1200250D03*
Y1530250D03*
Y2110250D03*
Y2170250D03*
Y2180250D03*
Y2510250D03*
Y2550250D03*
Y2750250D03*
Y2790250D03*
Y2990250D03*
Y3030250D03*
Y3230250D03*
Y3270250D03*
Y3420250D03*
Y3430250D03*
Y3440250D03*
Y3450250D03*
Y3460250D03*
Y3470250D03*
X1620250Y680250D03*
Y690250D03*
Y700250D03*
Y1570250D03*
Y2120250D03*
Y2130250D03*
Y2500250D03*
Y2550250D03*
Y2740250D03*
Y2790250D03*
Y2980250D03*
Y3030250D03*
Y3220250D03*
Y3270250D03*
X1630250Y130250D03*
Y140250D03*
Y150250D03*
Y170250D03*
Y180250D03*
Y270250D03*
Y280250D03*
Y290250D03*
Y340250D03*
Y350250D03*
Y360250D03*
Y370250D03*
Y450250D03*
Y460250D03*
Y470250D03*
Y520250D03*
Y530250D03*
Y540250D03*
Y550250D03*
Y680250D03*
Y690250D03*
Y700250D03*
Y850250D03*
Y860250D03*
Y870250D03*
Y880250D03*
Y890250D03*
Y900250D03*
Y910250D03*
Y920250D03*
Y930250D03*
Y940250D03*
Y1180250D03*
Y1190250D03*
Y1200250D03*
Y1730250D03*
Y1840250D03*
Y2470250D03*
Y2550250D03*
Y2720250D03*
Y2790250D03*
Y2950250D03*
Y3030250D03*
Y3200250D03*
Y3270250D03*
X1640250Y1510250D03*
Y1520250D03*
Y1530250D03*
Y1570250D03*
Y2100250D03*
Y2120250D03*
Y2130250D03*
Y2450250D03*
Y2550250D03*
Y2690250D03*
Y2790250D03*
Y2940250D03*
Y3030250D03*
Y3180250D03*
Y3270250D03*
X1650250Y1170250D03*
Y1220250D03*
Y1380250D03*
Y1410250D03*
Y1500250D03*
Y1570250D03*
Y2110250D03*
Y2150250D03*
Y3420250D03*
Y3430250D03*
Y3440250D03*
Y3450250D03*
Y3460250D03*
Y3470250D03*
X1660250Y1380250D03*
Y1410250D03*
Y1500250D03*
Y1570250D03*
Y2110250D03*
Y2150250D03*
X1670250Y1000250D03*
Y1020250D03*
Y1140250D03*
Y1210250D03*
Y1370250D03*
Y1410250D03*
Y1500250D03*
Y1570250D03*
Y2110250D03*
Y2150250D03*
X1680250Y130250D03*
Y140250D03*
Y150250D03*
Y170250D03*
Y180250D03*
Y270250D03*
Y280250D03*
Y290250D03*
Y340250D03*
Y350250D03*
Y360250D03*
Y370250D03*
Y450250D03*
Y460250D03*
Y470250D03*
Y520250D03*
Y530250D03*
Y540250D03*
Y550250D03*
Y680250D03*
Y690250D03*
Y700250D03*
Y850250D03*
Y860250D03*
Y870250D03*
Y880250D03*
Y890250D03*
Y900250D03*
Y910250D03*
Y920250D03*
Y930250D03*
Y940250D03*
Y990250D03*
Y1020250D03*
Y1140250D03*
Y1210250D03*
Y1370250D03*
Y1410250D03*
Y1530250D03*
Y1570250D03*
Y2120250D03*
Y2130250D03*
Y2140250D03*
Y2300250D03*
Y2310250D03*
Y2360250D03*
Y2370250D03*
Y2380250D03*
X1690250Y2630250D03*
Y2870250D03*
Y3110250D03*
Y3350250D03*
X1700250Y2640250D03*
Y2650250D03*
Y2880250D03*
Y2890250D03*
Y3120250D03*
Y3130250D03*
Y3360250D03*
Y3370250D03*
Y3420250D03*
Y3480250D03*
X1710250Y990250D03*
Y1000250D03*
Y1010250D03*
Y1150250D03*
Y1160250D03*
Y1170250D03*
Y1380250D03*
Y1390250D03*
Y1400250D03*
Y1540250D03*
Y1550250D03*
Y1560250D03*
Y1780250D03*
Y1790250D03*
Y1800250D03*
Y1810250D03*
Y1820250D03*
Y1830250D03*
Y1840250D03*
Y1850250D03*
Y1860250D03*
Y1870250D03*
Y1880250D03*
Y1890250D03*
Y1900250D03*
Y1910250D03*
Y3430250D03*
Y3480250D03*
X1720250Y2630250D03*
Y2640250D03*
Y2650250D03*
Y2870250D03*
Y2880250D03*
Y2890250D03*
Y3110250D03*
Y3120250D03*
Y3130250D03*
Y3350250D03*
Y3360250D03*
Y3370250D03*
Y3420250D03*
Y3460250D03*
X1730250Y120250D03*
Y150250D03*
Y690250D03*
Y710250D03*
Y2120250D03*
Y2130250D03*
Y2140250D03*
Y2300250D03*
Y2310250D03*
Y2360250D03*
Y2370250D03*
Y2380250D03*
Y3430250D03*
Y3470250D03*
X1740250Y250250D03*
Y290250D03*
Y430250D03*
Y470250D03*
Y2110250D03*
Y2180250D03*
Y2520250D03*
Y2550250D03*
Y2760250D03*
Y2790250D03*
Y3000250D03*
Y3030250D03*
Y3240250D03*
Y3270250D03*
X1750250Y2110250D03*
Y2180250D03*
Y2300250D03*
Y2360250D03*
Y2500250D03*
Y2550250D03*
Y2740250D03*
Y2790250D03*
Y2980250D03*
Y3030250D03*
Y3220250D03*
Y3270250D03*
X1760250Y660250D03*
Y990250D03*
Y1000250D03*
Y1010250D03*
Y1150250D03*
Y1160250D03*
Y1170250D03*
Y1380250D03*
Y1390250D03*
Y1400250D03*
Y1540250D03*
Y1550250D03*
Y1560250D03*
Y1780250D03*
Y1790250D03*
Y1800250D03*
Y1810250D03*
Y1820250D03*
Y1830250D03*
Y1840250D03*
Y1850250D03*
Y1860250D03*
Y1870250D03*
Y1880250D03*
Y1890250D03*
Y1900250D03*
Y1910250D03*
Y2140250D03*
Y2180250D03*
Y2470250D03*
Y2550250D03*
Y2720250D03*
Y2790250D03*
Y2950250D03*
Y3030250D03*
Y3200250D03*
Y3270250D03*
X1770250Y120250D03*
Y140250D03*
Y670250D03*
Y690250D03*
Y2140250D03*
Y2180250D03*
Y2450250D03*
Y2550250D03*
Y2690250D03*
Y2790250D03*
Y2940250D03*
Y3030250D03*
Y3180250D03*
Y3270250D03*
X1780250Y260250D03*
Y280250D03*
Y440250D03*
Y460250D03*
Y670250D03*
Y2140250D03*
Y2180250D03*
X1790250Y680250D03*
Y690250D03*
Y1130250D03*
Y1200250D03*
Y1520250D03*
Y1590250D03*
Y2140250D03*
Y2180250D03*
Y2300250D03*
Y2380250D03*
X1800250Y1140250D03*
Y1160250D03*
Y1530250D03*
Y1550250D03*
Y1960250D03*
Y1970250D03*
Y1980250D03*
Y1990250D03*
Y2000250D03*
Y2010250D03*
Y2150250D03*
Y2160250D03*
Y2170250D03*
Y2310250D03*
Y2320250D03*
Y2330250D03*
Y2340250D03*
Y2350250D03*
Y2360250D03*
Y2370250D03*
Y2380250D03*
X1810250Y660250D03*
Y670250D03*
Y680250D03*
Y690250D03*
Y1140250D03*
Y1150250D03*
Y1180250D03*
Y1530250D03*
Y1540250D03*
Y1570250D03*
X1820250Y1150250D03*
Y1160250D03*
Y1540250D03*
Y1550250D03*
Y2630250D03*
Y2650250D03*
Y2870250D03*
Y2890250D03*
Y3110250D03*
Y3130250D03*
Y3350250D03*
Y3370250D03*
X1830250Y110250D03*
Y130250D03*
Y2630250D03*
Y2650250D03*
Y2870250D03*
Y2890250D03*
Y3110250D03*
Y3130250D03*
Y3350250D03*
Y3370250D03*
X1840250Y250250D03*
Y270250D03*
Y430250D03*
Y450250D03*
Y1130250D03*
Y1140250D03*
Y1150250D03*
Y1160250D03*
Y1200250D03*
Y1520250D03*
Y1530250D03*
Y1540250D03*
Y1550250D03*
Y1590250D03*
Y2520250D03*
Y2530250D03*
Y2770250D03*
X1850250Y1960250D03*
Y1970250D03*
Y1980250D03*
Y1990250D03*
Y2000250D03*
Y2010250D03*
Y2150250D03*
Y2160250D03*
Y2170250D03*
Y2310250D03*
Y2320250D03*
Y2330250D03*
Y2340250D03*
Y2350250D03*
Y2360250D03*
Y2370250D03*
Y2380250D03*
Y2520250D03*
Y2530250D03*
Y2630250D03*
Y2650250D03*
Y2760250D03*
Y2770250D03*
Y2870250D03*
Y2890250D03*
Y3000250D03*
Y3010250D03*
Y3110250D03*
Y3130250D03*
Y3250250D03*
Y3350250D03*
Y3370250D03*
X1860250Y2470250D03*
Y2480250D03*
Y2490250D03*
Y2500250D03*
Y2630250D03*
Y2640250D03*
Y2650250D03*
Y2710250D03*
Y2720250D03*
Y2730250D03*
Y2740250D03*
Y2870250D03*
Y2880250D03*
Y2890250D03*
Y2950250D03*
Y2960250D03*
Y2970250D03*
Y2980250D03*
Y3110250D03*
Y3120250D03*
Y3130250D03*
Y3190250D03*
Y3200250D03*
Y3210250D03*
Y3220250D03*
Y3350250D03*
Y3360250D03*
Y3370250D03*
X1880250Y1130250D03*
Y1190250D03*
Y1200250D03*
Y1520250D03*
Y1580250D03*
Y1590250D03*
X1890250Y660250D03*
X1900250Y1140250D03*
Y1150250D03*
Y1180250D03*
Y1530250D03*
Y1540250D03*
Y1570250D03*
X1910250Y670250D03*
Y1150250D03*
Y1160250D03*
Y1190250D03*
Y1540250D03*
Y1550250D03*
Y1580250D03*
Y2470250D03*
Y2480250D03*
Y2490250D03*
Y2500250D03*
Y2630250D03*
Y2640250D03*
Y2650250D03*
Y2710250D03*
Y2720250D03*
Y2730250D03*
Y2740250D03*
Y2870250D03*
Y2880250D03*
Y2890250D03*
Y2950250D03*
Y2960250D03*
Y2970250D03*
Y2980250D03*
Y3110250D03*
Y3120250D03*
Y3130250D03*
Y3190250D03*
Y3200250D03*
Y3210250D03*
Y3220250D03*
Y3350250D03*
Y3360250D03*
Y3370250D03*
X1920250Y680250D03*
Y690250D03*
Y2130250D03*
X1930250Y110250D03*
Y130250D03*
Y990250D03*
Y1010250D03*
Y1130250D03*
Y1140250D03*
Y1150250D03*
Y1160250D03*
Y1200250D03*
Y1330250D03*
Y1340250D03*
Y1380250D03*
Y1400250D03*
Y1520250D03*
Y1530250D03*
Y1540250D03*
Y1550250D03*
Y1590250D03*
Y1720250D03*
Y1730250D03*
Y2140250D03*
Y2160250D03*
Y2470250D03*
Y2480250D03*
Y2490250D03*
Y2500250D03*
Y2630250D03*
Y2640250D03*
Y2650250D03*
Y2710250D03*
Y2720250D03*
Y2730250D03*
Y2740250D03*
Y2870250D03*
Y2880250D03*
Y2890250D03*
Y2950250D03*
Y2960250D03*
Y2970250D03*
Y2980250D03*
Y3110250D03*
Y3120250D03*
Y3130250D03*
Y3190250D03*
Y3200250D03*
Y3210250D03*
Y3220250D03*
Y3350250D03*
Y3360250D03*
Y3370250D03*
X1940250Y110250D03*
Y150250D03*
Y250250D03*
Y270250D03*
Y430250D03*
Y450250D03*
Y660250D03*
Y670250D03*
Y680250D03*
Y690250D03*
Y2140250D03*
X1950250Y660250D03*
Y740250D03*
Y1330250D03*
Y1340250D03*
Y1720250D03*
Y1730250D03*
Y2150250D03*
Y2160250D03*
X1960250Y230250D03*
Y250250D03*
Y1300250D03*
Y1320250D03*
Y1690250D03*
Y1710250D03*
X1970250Y1130250D03*
Y1190250D03*
Y1200250D03*
Y1520250D03*
Y1580250D03*
Y1590250D03*
Y2130250D03*
Y2140250D03*
Y2150250D03*
Y2160250D03*
X1980250Y660250D03*
Y2470250D03*
Y2480250D03*
Y2490250D03*
Y2500250D03*
Y2630250D03*
Y2640250D03*
Y2650250D03*
Y2710250D03*
Y2720250D03*
Y2730250D03*
Y2740250D03*
Y2870250D03*
Y2880250D03*
Y2890250D03*
Y2950250D03*
Y2960250D03*
Y2970250D03*
Y2980250D03*
Y3110250D03*
Y3120250D03*
Y3130250D03*
Y3190250D03*
Y3200250D03*
Y3210250D03*
Y3220250D03*
Y3350250D03*
Y3360250D03*
Y3370250D03*
X1990250Y250250D03*
Y290250D03*
Y430250D03*
Y470250D03*
Y1140250D03*
Y1150250D03*
Y1180250D03*
Y1530250D03*
Y1540250D03*
Y1570250D03*
X2000250Y670250D03*
Y710250D03*
Y730250D03*
Y1150250D03*
Y1160250D03*
Y1190250D03*
Y1540250D03*
Y1550250D03*
Y1580250D03*
Y2510250D03*
Y2750250D03*
Y2990250D03*
Y3230250D03*
X2010250Y680250D03*
Y690250D03*
Y2130250D03*
Y2620250D03*
Y2640250D03*
Y2860250D03*
Y2880250D03*
Y3100250D03*
Y3120250D03*
Y3340250D03*
Y3360250D03*
X2020250Y1130250D03*
Y1140250D03*
Y1150250D03*
Y1160250D03*
Y1200250D03*
Y1520250D03*
Y1530250D03*
Y1540250D03*
Y1550250D03*
Y1590250D03*
Y2510250D03*
Y2750250D03*
Y2990250D03*
Y3230250D03*
X2030250Y660250D03*
Y670250D03*
Y680250D03*
Y690250D03*
Y1000250D03*
Y1390250D03*
Y2140250D03*
X2040250Y20250D03*
Y70250D03*
Y660250D03*
Y730250D03*
Y2150250D03*
Y2160250D03*
X2050250Y660250D03*
Y740250D03*
Y2610250D03*
Y2850250D03*
Y3090250D03*
Y3330250D03*
X2060250Y700250D03*
Y740250D03*
Y1000250D03*
Y1130250D03*
Y1190250D03*
Y1200250D03*
Y1390250D03*
Y1520250D03*
Y1580250D03*
Y1590250D03*
Y2130250D03*
Y2140250D03*
Y2150250D03*
Y2160250D03*
X2070250Y1960250D03*
Y2510250D03*
Y2610250D03*
Y2750250D03*
Y2850250D03*
Y2990250D03*
Y3090250D03*
Y3230250D03*
Y3330250D03*
X2080250Y1150250D03*
Y1180250D03*
Y1540250D03*
Y1570250D03*
X2090250Y180250D03*
Y250250D03*
Y270250D03*
Y430250D03*
Y450250D03*
Y1080250D03*
Y1160250D03*
Y1190250D03*
Y1470250D03*
Y1550250D03*
Y1580250D03*
Y1960250D03*
X2100250Y580250D03*
Y1100250D03*
Y1490250D03*
Y2510250D03*
Y2750250D03*
Y2990250D03*
Y3230250D03*
X2110250Y180250D03*
Y800250D03*
Y1130250D03*
Y1160250D03*
Y1200250D03*
Y1520250D03*
Y1550250D03*
Y1590250D03*
X2120250Y580250D03*
Y730250D03*
Y750250D03*
X2130250Y800250D03*
Y2130250D03*
X2140250Y1080250D03*
Y1130250D03*
Y1160250D03*
Y1470250D03*
Y1520250D03*
Y1550250D03*
Y2610250D03*
Y2850250D03*
Y3090250D03*
Y3330250D03*
X2150250Y1100250D03*
Y1490250D03*
Y2140250D03*
X2160250Y1080250D03*
Y1090250D03*
Y1100250D03*
Y1320250D03*
Y1330250D03*
Y1470250D03*
Y1480250D03*
Y1490250D03*
Y1710250D03*
Y1720250D03*
Y1780250D03*
Y1790250D03*
Y1800250D03*
Y1810250D03*
Y1820250D03*
Y1830250D03*
Y1840250D03*
Y1850250D03*
Y1860250D03*
Y1870250D03*
Y1880250D03*
Y1890250D03*
Y1900250D03*
Y1910250D03*
Y2150250D03*
Y2160250D03*
Y2500250D03*
Y2510250D03*
Y2610250D03*
Y2740250D03*
Y2750250D03*
Y2850250D03*
Y2980250D03*
Y2990250D03*
Y3090250D03*
Y3220250D03*
Y3230250D03*
Y3330250D03*
X2170250Y120250D03*
Y160250D03*
X2180250Y120250D03*
Y160250D03*
Y2130250D03*
Y2140250D03*
Y2150250D03*
Y2160250D03*
X2190250Y690250D03*
Y710250D03*
Y2500250D03*
Y2510250D03*
Y2740250D03*
Y2750250D03*
Y2980250D03*
Y2990250D03*
Y3220250D03*
Y3230250D03*
X2200250Y260250D03*
Y290250D03*
Y440250D03*
Y470250D03*
Y680250D03*
Y710250D03*
X2210250Y1080250D03*
Y1090250D03*
Y1100250D03*
Y1320250D03*
Y1330250D03*
Y1470250D03*
Y1480250D03*
Y1490250D03*
Y1710250D03*
Y1720250D03*
Y1780250D03*
Y1790250D03*
Y1800250D03*
Y1810250D03*
Y1820250D03*
Y1830250D03*
Y1840250D03*
Y1850250D03*
Y1860250D03*
Y1870250D03*
Y1880250D03*
Y1890250D03*
Y1900250D03*
Y1910250D03*
X2220250Y660250D03*
Y710250D03*
Y1460250D03*
Y1500250D03*
Y2130250D03*
X2230250Y20250D03*
Y30250D03*
Y130250D03*
Y140250D03*
Y150250D03*
Y270250D03*
Y280250D03*
Y290250D03*
Y340250D03*
Y350250D03*
Y450250D03*
Y460250D03*
Y470250D03*
Y660250D03*
Y670250D03*
Y680250D03*
Y690250D03*
Y700250D03*
Y850250D03*
Y860250D03*
Y870250D03*
Y880250D03*
Y890250D03*
Y900250D03*
Y910250D03*
Y920250D03*
Y930250D03*
Y940250D03*
Y1410250D03*
Y1460250D03*
Y1520250D03*
Y1590250D03*
Y1610250D03*
Y2490250D03*
Y2500250D03*
Y2510250D03*
Y2610250D03*
Y2730250D03*
Y2740250D03*
Y2750250D03*
Y2850250D03*
Y2970250D03*
Y2980250D03*
Y2990250D03*
Y3090250D03*
Y3210250D03*
Y3220250D03*
Y3230250D03*
Y3330250D03*
X2240250Y1460250D03*
Y1500250D03*
Y1590250D03*
Y1610250D03*
X2250250Y1200250D03*
Y1240250D03*
Y1410250D03*
Y1590250D03*
Y1630250D03*
Y2150250D03*
Y2160250D03*
Y2610250D03*
Y2850250D03*
Y3090250D03*
Y3330250D03*
X2260250Y1190250D03*
Y1230250D03*
Y1580250D03*
Y1620250D03*
Y2490250D03*
Y2500250D03*
Y2510250D03*
Y2730250D03*
Y2740250D03*
Y2750250D03*
Y2970250D03*
Y2980250D03*
Y2990250D03*
Y3210250D03*
Y3220250D03*
Y3230250D03*
X2270250Y1330250D03*
Y1720250D03*
Y2130250D03*
Y2150250D03*
Y2160250D03*
X2280250Y20250D03*
Y30250D03*
Y130250D03*
Y140250D03*
Y150250D03*
Y270250D03*
Y280250D03*
Y290250D03*
Y340250D03*
Y350250D03*
Y450250D03*
Y460250D03*
Y470250D03*
Y660250D03*
Y670250D03*
Y680250D03*
Y690250D03*
Y700250D03*
Y850250D03*
Y860250D03*
Y870250D03*
Y880250D03*
Y890250D03*
Y900250D03*
Y910250D03*
Y920250D03*
Y930250D03*
Y940250D03*
Y1460250D03*
Y1490250D03*
Y1960250D03*
Y1970250D03*
Y2150250D03*
Y2160250D03*
Y2170250D03*
Y2310250D03*
Y2320250D03*
Y2330250D03*
Y2340250D03*
Y2350250D03*
Y2360250D03*
Y2370250D03*
Y2380250D03*
X2290250Y440250D03*
Y480250D03*
Y650250D03*
Y710250D03*
Y840250D03*
Y930250D03*
Y1460250D03*
Y1480250D03*
X2300250Y120250D03*
Y160250D03*
Y260250D03*
Y300250D03*
Y440250D03*
Y480250D03*
Y650250D03*
Y710250D03*
Y840250D03*
Y940250D03*
X2310250Y130250D03*
Y160250D03*
Y450250D03*
Y480250D03*
Y1360250D03*
Y1380250D03*
Y1750250D03*
Y1770250D03*
X2320250Y340250D03*
Y1370250D03*
Y1760250D03*
Y2470250D03*
Y2480250D03*
Y2490250D03*
Y2500250D03*
Y2630250D03*
Y2640250D03*
Y2650250D03*
Y2710250D03*
Y2720250D03*
Y2730250D03*
Y2740250D03*
Y2870250D03*
Y2880250D03*
Y2890250D03*
Y2950250D03*
Y2960250D03*
Y2970250D03*
Y2980250D03*
Y3110250D03*
Y3120250D03*
Y3130250D03*
Y3190250D03*
Y3200250D03*
Y3210250D03*
Y3220250D03*
Y3350250D03*
Y3360250D03*
Y3370250D03*
X2330250Y1360250D03*
Y1750250D03*
Y1960250D03*
Y1970250D03*
Y2150250D03*
Y2160250D03*
Y2170250D03*
Y2310250D03*
Y2320250D03*
Y2330250D03*
Y2340250D03*
Y2350250D03*
Y2360250D03*
Y2370250D03*
Y2380250D03*
X2340250Y120250D03*
Y160250D03*
Y340250D03*
Y440250D03*
Y480250D03*
Y1910250D03*
Y1960250D03*
Y2150250D03*
Y2160250D03*
Y2170250D03*
X2350250Y1910250D03*
Y1960250D03*
Y2300250D03*
Y2340250D03*
X2360250Y120250D03*
Y150250D03*
Y440250D03*
Y470250D03*
Y1910250D03*
Y1960250D03*
Y2300250D03*
Y2340250D03*
X2370250Y140250D03*
Y160250D03*
Y460250D03*
Y480250D03*
Y1090250D03*
Y1110250D03*
Y1330250D03*
Y1480250D03*
Y1500250D03*
Y1720250D03*
Y1730250D03*
Y1780250D03*
Y1910250D03*
Y1960250D03*
Y2300250D03*
Y2380250D03*
Y2470250D03*
Y2480250D03*
Y2490250D03*
Y2500250D03*
Y2630250D03*
Y2640250D03*
Y2650250D03*
Y2710250D03*
Y2720250D03*
Y2730250D03*
Y2740250D03*
Y2870250D03*
Y2880250D03*
Y2890250D03*
Y2950250D03*
Y2960250D03*
Y2970250D03*
Y2980250D03*
Y3110250D03*
Y3120250D03*
Y3130250D03*
Y3190250D03*
Y3200250D03*
Y3210250D03*
Y3220250D03*
Y3350250D03*
Y3360250D03*
Y3370250D03*
X2380250Y120250D03*
Y160250D03*
Y260250D03*
Y300250D03*
Y440250D03*
Y480250D03*
Y1080250D03*
Y1110250D03*
Y1470250D03*
Y1500250D03*
Y2150250D03*
Y2160250D03*
Y2170250D03*
X2390250Y100250D03*
Y110250D03*
Y130250D03*
Y140250D03*
Y150250D03*
Y250250D03*
Y270250D03*
Y280250D03*
Y290250D03*
Y450250D03*
Y460250D03*
Y500250D03*
Y510250D03*
Y660250D03*
Y670250D03*
Y680250D03*
Y690250D03*
Y700250D03*
Y850250D03*
Y860250D03*
Y870250D03*
Y880250D03*
Y890250D03*
Y900250D03*
Y910250D03*
Y920250D03*
Y1080250D03*
Y1090250D03*
Y1100250D03*
Y1410250D03*
Y1420250D03*
Y1470250D03*
Y1480250D03*
Y1490250D03*
Y1810250D03*
Y1820250D03*
Y1830250D03*
D03*
Y1840250D03*
Y1850250D03*
Y1860250D03*
Y1870250D03*
Y2150250D03*
Y2160250D03*
Y2170250D03*
Y2310250D03*
Y2320250D03*
Y2330250D03*
Y2360250D03*
Y2370250D03*
Y2470250D03*
Y2480250D03*
Y2490250D03*
Y2500250D03*
Y2630250D03*
Y2640250D03*
Y2650250D03*
Y2710250D03*
Y2720250D03*
Y2730250D03*
Y2740250D03*
Y2870250D03*
Y2880250D03*
Y2890250D03*
Y2950250D03*
Y2960250D03*
Y2970250D03*
Y2980250D03*
Y3110250D03*
Y3120250D03*
Y3130250D03*
Y3190250D03*
Y3200250D03*
Y3210250D03*
Y3220250D03*
Y3350250D03*
Y3360250D03*
Y3370250D03*
X2440250Y100250D03*
Y110250D03*
Y130250D03*
Y140250D03*
Y150250D03*
Y250250D03*
Y270250D03*
Y280250D03*
Y290250D03*
Y450250D03*
Y460250D03*
Y500250D03*
Y510250D03*
Y660250D03*
Y670250D03*
Y680250D03*
Y690250D03*
Y700250D03*
Y850250D03*
Y860250D03*
Y870250D03*
Y880250D03*
Y890250D03*
Y900250D03*
Y910250D03*
Y920250D03*
Y1080250D03*
Y1090250D03*
Y1100250D03*
Y1410250D03*
Y1420250D03*
Y1470250D03*
Y1480250D03*
Y1490250D03*
Y1810250D03*
Y1820250D03*
Y1830250D03*
Y1840250D03*
Y1850250D03*
Y1860250D03*
Y1870250D03*
Y2150250D03*
Y2160250D03*
Y2170250D03*
Y2310250D03*
Y2320250D03*
Y2330250D03*
Y2360250D03*
Y2370250D03*
Y2470250D03*
Y2480250D03*
Y2490250D03*
Y2500250D03*
Y2630250D03*
Y2640250D03*
Y2650250D03*
Y2710250D03*
Y2720250D03*
Y2730250D03*
Y2740250D03*
Y2870250D03*
Y2880250D03*
Y2890250D03*
Y2950250D03*
Y2960250D03*
Y2970250D03*
Y2980250D03*
Y3110250D03*
Y3120250D03*
Y3130250D03*
Y3190250D03*
Y3200250D03*
Y3210250D03*
Y3220250D03*
Y3350250D03*
Y3360250D03*
Y3370250D03*
X2450250Y110250D03*
Y160250D03*
Y260250D03*
Y320250D03*
Y1800250D03*
Y1880250D03*
Y1910250D03*
Y1960250D03*
Y2140250D03*
Y2180250D03*
Y2300250D03*
Y2380250D03*
Y2400250D03*
Y2450250D03*
Y3180250D03*
Y3230250D03*
X2460250Y110250D03*
Y160250D03*
Y450250D03*
Y1800250D03*
Y1880250D03*
Y1910250D03*
Y1960250D03*
Y2140250D03*
Y2180250D03*
Y2300250D03*
Y2360250D03*
Y2400250D03*
Y2450250D03*
Y3180250D03*
Y3230250D03*
X2470250Y110250D03*
Y160250D03*
Y300250D03*
Y320250D03*
Y1800250D03*
Y1880250D03*
Y1910250D03*
Y1960250D03*
Y2140250D03*
Y2180250D03*
Y2300250D03*
Y2360250D03*
Y2400250D03*
Y2450250D03*
Y3180250D03*
Y3230250D03*
X2480250Y450250D03*
Y1800250D03*
Y1880250D03*
Y1910250D03*
Y1960250D03*
Y2140250D03*
Y2180250D03*
Y2300250D03*
Y2360250D03*
Y2400250D03*
Y2450250D03*
Y2630250D03*
Y2640250D03*
Y2650250D03*
X2490250Y310250D03*
Y1800250D03*
Y1880250D03*
Y1910250D03*
Y1960250D03*
Y2140250D03*
Y2180250D03*
Y2300250D03*
Y2360250D03*
Y2400250D03*
Y2450250D03*
X2500250Y900250D03*
Y910250D03*
Y920250D03*
Y1080250D03*
Y1090250D03*
Y1100250D03*
Y1910250D03*
Y1960250D03*
Y2140250D03*
Y2180250D03*
Y2300250D03*
Y2350250D03*
Y2400250D03*
Y2450250D03*
X2510250Y310250D03*
Y840250D03*
Y890250D03*
Y940250D03*
Y990250D03*
Y1800250D03*
Y1880250D03*
Y1910250D03*
Y1960250D03*
Y2140250D03*
Y2180250D03*
Y2300250D03*
Y2350250D03*
Y2400250D03*
Y2450250D03*
X2520250Y420250D03*
Y440250D03*
Y840250D03*
Y880250D03*
Y940250D03*
Y990250D03*
Y1550250D03*
Y1560250D03*
Y1570250D03*
Y1800250D03*
Y1880250D03*
Y1910250D03*
Y1960250D03*
Y2140250D03*
Y2180250D03*
Y2300250D03*
Y2350250D03*
Y2400250D03*
Y2450250D03*
Y2750250D03*
Y2760250D03*
Y2770250D03*
X2530250Y20250D03*
Y90250D03*
Y110250D03*
Y190250D03*
Y210250D03*
Y290250D03*
Y310250D03*
Y390250D03*
Y410250D03*
Y600250D03*
Y620250D03*
Y940250D03*
Y990250D03*
Y1430250D03*
Y1470250D03*
Y1810250D03*
Y1880250D03*
Y1910250D03*
Y1960250D03*
Y2140250D03*
Y2180250D03*
Y2300250D03*
Y2360250D03*
Y2400250D03*
Y2450250D03*
Y2890250D03*
Y2930250D03*
X2540250Y20250D03*
Y100250D03*
Y200250D03*
Y300250D03*
Y400250D03*
Y540250D03*
Y610250D03*
Y900250D03*
Y910250D03*
Y940250D03*
Y990250D03*
Y1430250D03*
Y1470250D03*
Y1820250D03*
Y1880250D03*
Y1910250D03*
Y1960250D03*
Y2140250D03*
Y2180250D03*
Y2300250D03*
Y2360250D03*
Y2400250D03*
Y2450250D03*
Y2890250D03*
Y2930250D03*
X2550250Y20250D03*
Y50250D03*
Y70250D03*
Y90250D03*
Y130250D03*
Y140250D03*
Y150250D03*
Y170250D03*
Y190250D03*
Y230250D03*
Y240250D03*
Y250250D03*
Y270250D03*
Y290250D03*
Y340250D03*
Y350250D03*
Y370250D03*
Y390250D03*
Y430250D03*
Y440250D03*
Y460250D03*
Y500250D03*
Y570250D03*
Y600250D03*
Y840250D03*
Y870250D03*
Y940250D03*
Y990250D03*
Y1430250D03*
Y1470250D03*
Y1830250D03*
D03*
Y1880250D03*
Y1910250D03*
Y1960250D03*
Y2140250D03*
Y2180250D03*
Y2300250D03*
Y2360250D03*
Y2400250D03*
Y2450250D03*
Y2890250D03*
Y2930250D03*
X2560250Y20250D03*
Y460250D03*
Y500250D03*
Y680250D03*
Y690250D03*
Y700250D03*
Y840250D03*
Y870250D03*
Y940250D03*
Y990250D03*
Y1430250D03*
Y1470250D03*
Y1840250D03*
Y1880250D03*
Y1910250D03*
Y1960250D03*
Y2140250D03*
Y2180250D03*
Y2300250D03*
Y2320250D03*
Y2330250D03*
Y2360250D03*
Y2400250D03*
Y2450250D03*
Y2890250D03*
Y2930250D03*
X2570250Y20250D03*
Y460250D03*
Y500250D03*
Y920250D03*
Y940250D03*
Y990250D03*
Y1430250D03*
Y1470250D03*
Y1850250D03*
Y1880250D03*
Y1910250D03*
Y1960250D03*
Y2140250D03*
Y2180250D03*
Y2300250D03*
Y2350250D03*
Y2400250D03*
Y2450250D03*
Y2890250D03*
Y2930250D03*
X2580250Y20250D03*
Y460250D03*
Y500250D03*
Y940250D03*
Y990250D03*
Y1430250D03*
Y1470250D03*
Y1860250D03*
Y1880250D03*
Y1910250D03*
Y1960250D03*
Y2140250D03*
Y2180250D03*
Y2300250D03*
Y2320250D03*
Y2400250D03*
Y2450250D03*
Y2890250D03*
Y2930250D03*
X2590250Y20250D03*
Y50250D03*
Y460250D03*
Y500250D03*
Y940250D03*
Y990250D03*
Y1430250D03*
Y1470250D03*
Y1910250D03*
Y1960250D03*
Y2140250D03*
Y2180250D03*
Y2400250D03*
Y2450250D03*
Y2890250D03*
Y2930250D03*
X2600250Y20250D03*
Y340250D03*
Y460250D03*
Y500250D03*
Y940250D03*
Y990250D03*
Y1430250D03*
Y1470250D03*
Y1910250D03*
Y1960250D03*
Y2140250D03*
Y2180250D03*
Y2400250D03*
Y2450250D03*
Y2890250D03*
Y2930250D03*
X2610250Y20250D03*
Y350250D03*
Y460250D03*
Y500250D03*
Y1100250D03*
Y1570250D03*
Y2630250D03*
Y2640250D03*
Y2650250D03*
Y2750250D03*
Y2760250D03*
Y2770250D03*
X2620250Y20250D03*
Y460250D03*
Y500250D03*
Y940250D03*
Y990250D03*
Y1430250D03*
Y1470250D03*
Y1910250D03*
Y1960250D03*
Y2150250D03*
Y2160250D03*
Y2400250D03*
Y2450250D03*
Y2630250D03*
Y2640250D03*
Y2750250D03*
Y2760250D03*
Y2890250D03*
Y2930250D03*
Y3240250D03*
Y3250250D03*
Y3270250D03*
Y3280250D03*
Y3370250D03*
Y3420250D03*
X2630250Y20250D03*
Y150250D03*
Y250250D03*
Y460250D03*
Y500250D03*
Y540250D03*
Y700250D03*
Y940250D03*
Y990250D03*
Y1430250D03*
Y1470250D03*
Y1910250D03*
Y1960250D03*
Y2400250D03*
Y2450250D03*
Y2890250D03*
Y2930250D03*
Y3370250D03*
Y3420250D03*
X2640250Y20250D03*
Y460250D03*
Y500250D03*
Y940250D03*
Y990250D03*
Y1430250D03*
Y1470250D03*
Y1910250D03*
Y1960250D03*
Y2400250D03*
Y2450250D03*
Y2890250D03*
Y2930250D03*
Y3370250D03*
Y3420250D03*
X2650250Y20250D03*
Y70250D03*
Y140250D03*
Y170250D03*
Y240250D03*
Y270250D03*
Y370250D03*
Y440250D03*
Y460250D03*
Y500250D03*
Y570250D03*
Y690250D03*
Y940250D03*
Y990250D03*
Y1090250D03*
Y1430250D03*
Y1470250D03*
Y1560250D03*
Y1910250D03*
Y1960250D03*
Y2160250D03*
Y2400250D03*
Y2450250D03*
Y2640250D03*
Y2760250D03*
Y2890250D03*
Y2930250D03*
Y3250250D03*
Y3280250D03*
Y3370250D03*
Y3420250D03*
X2660250Y20250D03*
Y460250D03*
Y500250D03*
Y940250D03*
Y990250D03*
Y1430250D03*
Y1470250D03*
Y1910250D03*
Y1960250D03*
Y2400250D03*
Y2450250D03*
Y2890250D03*
Y2930250D03*
Y3370250D03*
Y3420250D03*
X2670250Y20250D03*
Y130250D03*
Y230250D03*
Y430250D03*
Y460250D03*
Y500250D03*
Y680250D03*
Y940250D03*
Y990250D03*
Y1080250D03*
Y1430250D03*
Y1470250D03*
Y1550250D03*
Y1910250D03*
Y1960250D03*
Y2150250D03*
Y2400250D03*
Y2450250D03*
Y2630250D03*
Y2750250D03*
Y2890250D03*
Y2930250D03*
Y3240250D03*
Y3270250D03*
Y3370250D03*
Y3420250D03*
D02*
D73*
X359305Y547337D03*
Y559148D03*
Y570959D03*
X380250Y550250D03*
Y560250D03*
X390250Y350250D03*
Y360250D03*
X400250Y2260250D03*
Y2270250D03*
X430250Y560250D03*
Y570250D03*
X460250Y2520250D03*
Y2530250D03*
Y2760250D03*
Y2770250D03*
Y3000250D03*
Y3010250D03*
Y3240250D03*
Y3250250D03*
X470250Y1660250D03*
Y1670250D03*
Y1990250D03*
Y2000250D03*
X530250Y2260250D03*
Y2270250D03*
X550250Y1060250D03*
Y1070250D03*
Y2520250D03*
Y2530250D03*
Y2760250D03*
Y2770250D03*
Y3000250D03*
Y3010250D03*
Y3240250D03*
Y3250250D03*
X560250Y560250D03*
Y570250D03*
X590250Y1660250D03*
Y1670250D03*
X640250Y1060250D03*
Y1070250D03*
Y2520250D03*
Y2530250D03*
Y2760250D03*
Y2770250D03*
Y3000250D03*
Y3010250D03*
Y3240250D03*
Y3250250D03*
X730250Y350250D03*
Y360250D03*
Y830250D03*
Y840250D03*
Y2520250D03*
Y2530250D03*
Y2760250D03*
Y2770250D03*
Y3000250D03*
Y3010250D03*
Y3240250D03*
Y3250250D03*
X790250Y80250D03*
Y90250D03*
Y560250D03*
Y570250D03*
X820250Y2520250D03*
Y2530250D03*
Y2760250D03*
Y2770250D03*
Y3000250D03*
Y3010250D03*
Y3240250D03*
Y3250250D03*
X830250Y2030250D03*
Y2040250D03*
X910250Y2520250D03*
Y2530250D03*
Y2760250D03*
Y2770250D03*
Y3000250D03*
Y3010250D03*
Y3240250D03*
Y3250250D03*
X920250Y2030250D03*
Y2040250D03*
X960250Y90250D03*
Y100250D03*
Y570250D03*
Y580250D03*
X970250Y1630250D03*
Y1640250D03*
X980250Y320250D03*
Y330250D03*
X1010250Y2030250D03*
Y2040250D03*
X1030250Y1070250D03*
Y1080250D03*
Y1400250D03*
Y1410250D03*
X1050250Y90250D03*
Y100250D03*
Y570250D03*
Y580250D03*
X1100250Y1300250D03*
Y1310250D03*
Y1630250D03*
Y1640250D03*
Y2030250D03*
Y2040250D03*
X1140250Y90250D03*
Y100250D03*
Y570250D03*
Y580250D03*
X1160250Y1070250D03*
Y1080250D03*
Y1410250D03*
Y1420250D03*
X1190250Y2030250D03*
Y2040250D03*
X1210250Y1290250D03*
Y1300250D03*
Y1620250D03*
Y1630250D03*
X1230250Y90250D03*
Y100250D03*
Y570250D03*
Y580250D03*
X1240250Y320250D03*
Y330250D03*
X1270250Y1070250D03*
Y1080250D03*
Y1400250D03*
Y1410250D03*
X1280250Y2030250D03*
Y2040250D03*
X1320250Y90250D03*
Y100250D03*
Y570250D03*
Y580250D03*
X1340250Y1300250D03*
Y1310250D03*
Y1630250D03*
Y1640250D03*
X1400250Y1070250D03*
Y1080250D03*
Y1400250D03*
Y1410250D03*
X1410250Y90250D03*
Y100250D03*
Y570250D03*
Y580250D03*
Y2550250D03*
Y2790250D03*
Y3030250D03*
Y3270250D03*
X1420250Y2550250D03*
Y2790250D03*
Y3030250D03*
Y3270250D03*
X1530250Y2000250D03*
Y2010250D03*
X1540250Y2550250D03*
Y2790250D03*
Y3030250D03*
Y3270250D03*
X1550250Y2550250D03*
Y2790250D03*
Y3030250D03*
Y3270250D03*
X1560250Y1660250D03*
Y1670250D03*
X1580250Y2270250D03*
Y2280250D03*
X1600250Y1060250D03*
Y1070250D03*
Y1390250D03*
Y1400250D03*
X1620250Y2000250D03*
Y2010250D03*
X1670250Y2550250D03*
Y2790250D03*
Y3030250D03*
Y3270250D03*
X1680250Y2550250D03*
Y2790250D03*
Y3030250D03*
Y3270250D03*
X1710250Y70250D03*
Y80250D03*
X1720250Y210250D03*
Y220250D03*
X1790250Y560250D03*
Y570250D03*
X1800250Y2550250D03*
Y2790250D03*
Y3030250D03*
Y3270250D03*
X1810250Y1290250D03*
Y1300250D03*
Y1680250D03*
Y1690250D03*
Y2550250D03*
Y2790250D03*
Y3030250D03*
Y3270250D03*
X1820250Y1030250D03*
Y1040250D03*
Y1420250D03*
Y1430250D03*
X1850250Y50250D03*
X1860250D03*
X1900250Y180250D03*
Y1290250D03*
Y1300250D03*
Y1680250D03*
Y1690250D03*
X1910250Y180250D03*
Y1030250D03*
Y1040250D03*
Y1420250D03*
Y1430250D03*
X1920250Y560250D03*
Y570250D03*
X1950250Y2030250D03*
Y2040250D03*
X1970250Y210250D03*
Y220250D03*
X1990250Y1290250D03*
Y1300250D03*
Y1680250D03*
Y1690250D03*
X2000250Y1030250D03*
Y1040250D03*
Y1420250D03*
Y1430250D03*
X2010250Y560250D03*
Y570250D03*
X2040250Y2030250D03*
Y2040250D03*
X2080250Y1290250D03*
Y1300250D03*
Y1680250D03*
Y1690250D03*
X2090250Y1030250D03*
Y1040250D03*
Y1420250D03*
Y1430250D03*
X2110250Y190250D03*
X2120250D03*
X2160250Y2030250D03*
Y2040250D03*
X2250250Y2030250D03*
Y2040250D03*
D02*
D74*
X1270250Y3720250D03*
X1340250D03*
X1410250D03*
D02*
D75*
X1170250Y3450250D03*
Y3720250D03*
X1206077Y3526156D03*
X1209699Y3573400D03*
X1300250D03*
X1314344Y3526156D03*
X1376077D03*
X1379699Y3573400D03*
X1470250D03*
X1484344Y3526156D03*
X1520250Y3720250D03*
X1610250Y3510250D03*
D02*
D76*
X130250Y2530250D03*
Y2560250D03*
Y3010250D03*
Y3040250D03*
X140250Y2530250D03*
Y2560250D03*
Y2710250D03*
Y2750250D03*
Y3010250D03*
Y3040250D03*
Y3190250D03*
Y3230250D03*
X150250Y2530250D03*
Y2540250D03*
Y2620250D03*
Y2660250D03*
Y2800250D03*
Y2810250D03*
Y3010250D03*
Y3020250D03*
Y3100250D03*
Y3140250D03*
Y3280250D03*
Y3290250D03*
X160250Y2620250D03*
Y2660250D03*
Y2820250D03*
Y2830250D03*
Y3100250D03*
Y3140250D03*
Y3300250D03*
Y3310250D03*
X180250Y2680250D03*
Y2720250D03*
Y3160250D03*
Y3200250D03*
X190250Y2530250D03*
Y2540250D03*
Y2680250D03*
Y2720250D03*
Y2800250D03*
Y2810250D03*
Y2820250D03*
Y2830250D03*
Y3010250D03*
Y3020250D03*
Y3160250D03*
Y3200250D03*
Y3280250D03*
Y3290250D03*
Y3300250D03*
Y3310250D03*
X200250Y2590250D03*
Y2630250D03*
Y3070250D03*
Y3110250D03*
X380250Y340250D03*
Y380250D03*
Y650250D03*
Y690250D03*
Y1960250D03*
Y2000250D03*
Y2020250D03*
Y2050250D03*
X390250Y650250D03*
Y690250D03*
Y1960250D03*
Y2000250D03*
Y2020250D03*
Y2050250D03*
X400250Y170250D03*
Y210250D03*
Y540250D03*
Y580250D03*
Y2080250D03*
Y2120250D03*
X410250Y170250D03*
Y210250D03*
Y340250D03*
Y380250D03*
Y540250D03*
Y580250D03*
Y710250D03*
Y750250D03*
Y2510250D03*
Y2540250D03*
Y2610250D03*
Y2650250D03*
Y2750250D03*
Y2780250D03*
Y2850250D03*
Y2890250D03*
Y2990250D03*
Y3020250D03*
Y3090250D03*
Y3130250D03*
Y3230250D03*
Y3260250D03*
Y3330250D03*
Y3370250D03*
X420250Y340250D03*
Y380250D03*
Y710250D03*
Y750250D03*
Y1960250D03*
Y2000250D03*
Y2080250D03*
Y2120250D03*
Y2250250D03*
Y2290250D03*
Y2510250D03*
Y2540250D03*
Y2610250D03*
Y2650250D03*
Y2750250D03*
Y2780250D03*
Y2850250D03*
Y2890250D03*
Y2990250D03*
Y3020250D03*
Y3090250D03*
Y3130250D03*
Y3230250D03*
Y3260250D03*
Y3330250D03*
Y3370250D03*
X430250Y230250D03*
Y270250D03*
Y1960250D03*
Y2000250D03*
Y2080250D03*
Y2120250D03*
Y2500250D03*
Y2540250D03*
Y2740250D03*
Y2780250D03*
Y2980250D03*
Y3020250D03*
Y3220250D03*
Y3260250D03*
X440250Y230250D03*
Y270250D03*
Y540250D03*
Y580250D03*
Y2140250D03*
Y2180250D03*
Y2260250D03*
Y2300250D03*
Y2500250D03*
Y2540250D03*
Y2740250D03*
Y2780250D03*
Y2980250D03*
Y3020250D03*
Y3220250D03*
Y3260250D03*
X450250Y1040250D03*
Y1050250D03*
Y1060250D03*
Y1070250D03*
Y1080250D03*
Y1090250D03*
Y1970250D03*
Y2010250D03*
Y2140250D03*
Y2180250D03*
Y2260250D03*
Y2300250D03*
X460250Y260250D03*
Y300250D03*
Y1720250D03*
Y1750250D03*
X470250Y240250D03*
Y280250D03*
Y1720250D03*
Y1750250D03*
Y2140250D03*
Y2180250D03*
Y2500250D03*
Y2540250D03*
Y2740250D03*
Y2780250D03*
Y2980250D03*
Y3020250D03*
Y3220250D03*
Y3260250D03*
X480250Y760250D03*
Y800250D03*
Y1040250D03*
Y1050250D03*
Y1060250D03*
Y1070250D03*
Y1080250D03*
Y1090250D03*
Y1390250D03*
Y1400250D03*
Y1480250D03*
Y1520250D03*
Y1720250D03*
Y1750250D03*
Y2210250D03*
Y2240250D03*
Y2260250D03*
Y2300250D03*
X490250Y760250D03*
Y800250D03*
Y1480250D03*
Y1520250D03*
Y1650250D03*
Y1690250D03*
Y2210250D03*
Y2240250D03*
Y2260250D03*
Y2300250D03*
X500250Y740250D03*
Y780250D03*
Y1050250D03*
Y1080250D03*
Y1150250D03*
Y1190250D03*
Y2510250D03*
Y2540250D03*
Y2610250D03*
Y2650250D03*
Y2750250D03*
Y2780250D03*
Y2850250D03*
Y2890250D03*
Y2990250D03*
Y3020250D03*
Y3090250D03*
Y3130250D03*
Y3230250D03*
Y3260250D03*
Y3330250D03*
Y3370250D03*
X510250Y650250D03*
Y690250D03*
Y1050250D03*
Y1080250D03*
Y1150250D03*
Y1190250D03*
Y1540250D03*
Y1580250D03*
Y1660250D03*
Y1700250D03*
Y2510250D03*
Y2540250D03*
Y2610250D03*
Y2650250D03*
Y2750250D03*
Y2780250D03*
Y2850250D03*
Y2890250D03*
Y2990250D03*
Y3020250D03*
Y3090250D03*
Y3130250D03*
Y3230250D03*
Y3260250D03*
Y3330250D03*
Y3370250D03*
X520250Y260250D03*
Y300250D03*
Y650250D03*
Y690250D03*
Y1040250D03*
Y1080250D03*
Y1240250D03*
Y1250250D03*
Y1260250D03*
Y1390250D03*
Y1400250D03*
Y1540250D03*
Y1580250D03*
Y1660250D03*
Y1700250D03*
Y2250250D03*
Y2290250D03*
Y2500250D03*
Y2540250D03*
Y2740250D03*
Y2780250D03*
Y2980250D03*
Y3020250D03*
Y3220250D03*
Y3260250D03*
X530250Y170250D03*
Y210250D03*
Y540250D03*
Y580250D03*
Y1040250D03*
Y1080250D03*
Y1450250D03*
Y1490250D03*
Y1990250D03*
Y2000250D03*
Y2080250D03*
Y2120250D03*
Y2500250D03*
Y2540250D03*
Y2740250D03*
Y2780250D03*
Y2980250D03*
Y3020250D03*
Y3220250D03*
Y3260250D03*
X540250Y170250D03*
Y210250D03*
Y540250D03*
Y580250D03*
Y710250D03*
Y750250D03*
Y1540250D03*
Y1580250D03*
Y2080250D03*
Y2120250D03*
X550250Y710250D03*
Y750250D03*
Y1610250D03*
Y1640250D03*
Y1660250D03*
Y1700250D03*
Y2250250D03*
Y2290250D03*
X560250Y230250D03*
Y270250D03*
Y1040250D03*
Y1080250D03*
Y1240250D03*
Y1250250D03*
Y1260250D03*
Y1610250D03*
Y1640250D03*
Y1660250D03*
Y1700250D03*
Y2250250D03*
Y2290250D03*
Y2500250D03*
Y2540250D03*
Y2740250D03*
Y2780250D03*
Y2980250D03*
Y3020250D03*
Y3220250D03*
Y3260250D03*
X570250Y230250D03*
Y270250D03*
Y540250D03*
Y580250D03*
Y1990250D03*
Y2000250D03*
Y2140250D03*
Y2180250D03*
X580250Y1390250D03*
Y1400250D03*
Y1480250D03*
Y1520250D03*
Y1650250D03*
Y1690250D03*
Y2050250D03*
Y2090250D03*
Y2140250D03*
Y2180250D03*
Y2510250D03*
Y2540250D03*
Y2750250D03*
Y2780250D03*
Y2990250D03*
Y3020250D03*
Y3230250D03*
Y3260250D03*
X590250Y1050250D03*
Y1080250D03*
Y1150250D03*
Y1190250D03*
Y1480250D03*
Y1520250D03*
Y2510250D03*
Y2540250D03*
Y2610250D03*
Y2650250D03*
Y2750250D03*
Y2780250D03*
Y2850250D03*
Y2890250D03*
Y2990250D03*
Y3020250D03*
Y3090250D03*
Y3130250D03*
Y3230250D03*
Y3260250D03*
Y3330250D03*
Y3370250D03*
X600250Y1050250D03*
Y1080250D03*
Y1150250D03*
Y1190250D03*
Y2510250D03*
Y2540250D03*
Y2610250D03*
Y2650250D03*
Y2750250D03*
Y2780250D03*
Y2850250D03*
Y2890250D03*
Y2990250D03*
Y3020250D03*
Y3090250D03*
Y3130250D03*
Y3230250D03*
Y3260250D03*
Y3330250D03*
Y3370250D03*
X610250Y1040250D03*
Y1080250D03*
Y1650250D03*
Y1690250D03*
Y2500250D03*
Y2540250D03*
Y2740250D03*
Y2780250D03*
Y2980250D03*
Y3020250D03*
Y3220250D03*
Y3260250D03*
X620250Y1040250D03*
Y1080250D03*
Y1390250D03*
Y1400250D03*
Y1650250D03*
Y1690250D03*
Y2500250D03*
Y2540250D03*
Y2740250D03*
Y2780250D03*
Y2980250D03*
Y3020250D03*
Y3220250D03*
Y3260250D03*
X630250Y1450250D03*
Y1490250D03*
Y1540250D03*
Y1580250D03*
X640250Y1010250D03*
Y1020250D03*
Y1030250D03*
Y1540250D03*
Y1580250D03*
X650250Y1040250D03*
Y1080250D03*
Y2500250D03*
Y2540250D03*
Y2740250D03*
Y2780250D03*
Y2980250D03*
Y3020250D03*
Y3220250D03*
Y3260250D03*
X670250Y1010250D03*
Y1020250D03*
Y1030250D03*
X680250Y2470250D03*
Y2510250D03*
Y2540250D03*
Y2610250D03*
Y2650250D03*
Y2710250D03*
Y2750250D03*
Y2780250D03*
Y2850250D03*
Y2890250D03*
Y2950250D03*
Y2990250D03*
Y3020250D03*
Y3090250D03*
Y3130250D03*
Y3190250D03*
Y3230250D03*
Y3260250D03*
Y3330250D03*
Y3370250D03*
X690250Y2510250D03*
Y2540250D03*
Y2610250D03*
Y2650250D03*
Y2750250D03*
Y2780250D03*
Y2850250D03*
Y2890250D03*
Y2990250D03*
Y3020250D03*
Y3090250D03*
Y3130250D03*
Y3230250D03*
Y3260250D03*
Y3330250D03*
Y3370250D03*
X700250Y50250D03*
Y90250D03*
Y110250D03*
Y140250D03*
Y2500250D03*
Y2540250D03*
Y2740250D03*
Y2780250D03*
Y2980250D03*
Y3020250D03*
Y3220250D03*
Y3260250D03*
X710250Y50250D03*
Y90250D03*
Y110250D03*
Y140250D03*
Y2470250D03*
Y2500250D03*
Y2540250D03*
Y2710250D03*
Y2740250D03*
Y2780250D03*
Y2950250D03*
Y2980250D03*
Y3020250D03*
Y3190250D03*
Y3220250D03*
Y3260250D03*
X720250Y170250D03*
Y210250D03*
Y340250D03*
Y380250D03*
X740250Y50250D03*
Y90250D03*
Y170250D03*
Y210250D03*
Y650250D03*
Y690250D03*
Y820250D03*
Y860250D03*
Y2500250D03*
Y2540250D03*
Y2740250D03*
Y2780250D03*
Y2980250D03*
Y3020250D03*
Y3220250D03*
Y3260250D03*
X750250Y50250D03*
Y90250D03*
Y170250D03*
Y210250D03*
Y340250D03*
Y380250D03*
Y650250D03*
Y690250D03*
X760250Y340250D03*
Y380250D03*
Y540250D03*
Y580250D03*
Y830250D03*
Y870250D03*
X770250Y60250D03*
Y100250D03*
Y230250D03*
Y270250D03*
Y540250D03*
Y580250D03*
Y710250D03*
Y750250D03*
Y830250D03*
Y870250D03*
Y2450250D03*
Y2480250D03*
Y2510250D03*
Y2540250D03*
Y2610250D03*
Y2650250D03*
Y2690250D03*
Y2720250D03*
Y2750250D03*
Y2780250D03*
Y2850250D03*
Y2890250D03*
Y2930250D03*
Y2960250D03*
Y2990250D03*
Y3020250D03*
Y3090250D03*
Y3130250D03*
Y3170250D03*
Y3200250D03*
Y3230250D03*
Y3260250D03*
Y3330250D03*
Y3370250D03*
X780250Y230250D03*
Y270250D03*
Y710250D03*
Y750250D03*
Y830250D03*
Y870250D03*
Y2020250D03*
Y2050250D03*
Y2120250D03*
Y2160250D03*
Y2510250D03*
Y2540250D03*
Y2610250D03*
Y2650250D03*
Y2750250D03*
Y2780250D03*
Y2850250D03*
Y2890250D03*
Y2990250D03*
Y3020250D03*
Y3090250D03*
Y3130250D03*
Y3230250D03*
Y3260250D03*
Y3330250D03*
Y3370250D03*
X790250Y2020250D03*
Y2050250D03*
Y2120250D03*
Y2160250D03*
Y2500250D03*
Y2540250D03*
Y2740250D03*
Y2780250D03*
Y2980250D03*
Y3020250D03*
Y3220250D03*
Y3260250D03*
X800250Y540250D03*
Y580250D03*
Y710250D03*
Y750250D03*
Y880250D03*
Y910250D03*
Y2010250D03*
Y2050250D03*
Y2500250D03*
Y2540250D03*
Y2740250D03*
Y2780250D03*
Y2980250D03*
Y3020250D03*
Y3220250D03*
Y3260250D03*
X810250Y780250D03*
Y810250D03*
Y820250D03*
Y860250D03*
Y880250D03*
Y910250D03*
Y2010250D03*
Y2050250D03*
X820250Y780250D03*
Y810250D03*
Y820250D03*
Y860250D03*
Y880250D03*
Y910250D03*
X830250Y780250D03*
Y810250D03*
Y820250D03*
Y860250D03*
Y880250D03*
Y910250D03*
Y2500250D03*
Y2540250D03*
Y2740250D03*
Y2780250D03*
Y2980250D03*
Y3020250D03*
Y3220250D03*
Y3260250D03*
X840250Y2010250D03*
Y2050250D03*
X860250Y2510250D03*
Y2540250D03*
Y2610250D03*
Y2650250D03*
Y2750250D03*
Y2780250D03*
Y2850250D03*
Y2890250D03*
Y2990250D03*
Y3020250D03*
Y3090250D03*
Y3130250D03*
Y3230250D03*
Y3260250D03*
Y3330250D03*
Y3370250D03*
X870250Y2020250D03*
Y2050250D03*
Y2120250D03*
Y2160250D03*
Y2510250D03*
Y2540250D03*
Y2610250D03*
Y2650250D03*
Y2750250D03*
Y2780250D03*
Y2850250D03*
Y2890250D03*
Y2990250D03*
Y3020250D03*
Y3090250D03*
Y3130250D03*
Y3230250D03*
Y3260250D03*
Y3330250D03*
Y3370250D03*
X880250Y2020250D03*
Y2050250D03*
Y2120250D03*
Y2160250D03*
Y2500250D03*
Y2540250D03*
Y2740250D03*
Y2780250D03*
Y2980250D03*
Y3020250D03*
Y3220250D03*
Y3260250D03*
X890250Y2010250D03*
Y2050250D03*
Y2500250D03*
Y2540250D03*
Y2740250D03*
Y2780250D03*
Y2980250D03*
Y3020250D03*
Y3220250D03*
Y3260250D03*
X900250Y2010250D03*
Y2050250D03*
X910250Y80250D03*
Y110250D03*
Y180250D03*
Y220250D03*
Y560250D03*
Y590250D03*
Y660250D03*
Y700250D03*
X920250Y80250D03*
Y110250D03*
Y180250D03*
Y220250D03*
Y300250D03*
Y320250D03*
Y560250D03*
Y590250D03*
Y660250D03*
Y700250D03*
Y2500250D03*
Y2540250D03*
Y2740250D03*
Y2780250D03*
Y2980250D03*
Y3020250D03*
Y3220250D03*
Y3260250D03*
X930250Y70250D03*
Y110250D03*
Y400250D03*
Y440250D03*
Y550250D03*
Y590250D03*
Y1020250D03*
Y1050250D03*
Y2010250D03*
Y2050250D03*
X940250Y70250D03*
Y110250D03*
Y400250D03*
Y440250D03*
Y550250D03*
Y590250D03*
Y1020250D03*
Y1050250D03*
Y2280250D03*
Y2320250D03*
X950250Y1020250D03*
Y1050250D03*
Y1210250D03*
Y1250250D03*
Y1620250D03*
Y1660250D03*
Y2020250D03*
Y2050250D03*
Y2220250D03*
Y2260250D03*
Y2280250D03*
Y2320250D03*
X960250Y300250D03*
Y320250D03*
Y1210250D03*
Y1250250D03*
Y2020250D03*
Y2050250D03*
Y2120250D03*
Y2160250D03*
X970250Y70250D03*
Y110250D03*
Y550250D03*
Y590250D03*
Y1150250D03*
Y1190250D03*
Y1480250D03*
Y1520250D03*
Y2020250D03*
Y2050250D03*
Y2120250D03*
Y2160250D03*
Y2230250D03*
Y2240250D03*
X980250Y1150250D03*
Y1190250D03*
Y1390250D03*
Y1420250D03*
Y1480250D03*
Y1520250D03*
Y2010250D03*
Y2050250D03*
X990250Y320250D03*
Y360250D03*
Y1290250D03*
Y1330250D03*
Y1390250D03*
Y1420250D03*
Y1620250D03*
Y1660250D03*
Y2010250D03*
Y2050250D03*
X1000250Y80250D03*
Y110250D03*
Y180250D03*
Y220250D03*
Y560250D03*
Y590250D03*
Y660250D03*
Y700250D03*
Y1050250D03*
Y1090250D03*
Y1380250D03*
Y1420250D03*
Y1620250D03*
Y1660250D03*
X1010250Y80250D03*
Y110250D03*
Y180250D03*
Y220250D03*
Y560250D03*
Y590250D03*
Y660250D03*
Y700250D03*
Y1050250D03*
Y1090250D03*
Y1380250D03*
Y1420250D03*
Y1620250D03*
Y1650250D03*
Y2230250D03*
Y2240250D03*
Y2510250D03*
Y2520250D03*
Y2600250D03*
Y2640250D03*
Y2750250D03*
Y2760250D03*
Y2840250D03*
Y2880250D03*
Y2990250D03*
Y3000250D03*
Y3080250D03*
Y3120250D03*
Y3230250D03*
Y3240250D03*
Y3320250D03*
Y3360250D03*
X1020250Y70250D03*
Y110250D03*
Y310250D03*
Y320250D03*
Y400250D03*
Y440250D03*
Y550250D03*
Y590250D03*
Y1190250D03*
Y1230250D03*
Y1520250D03*
Y1560250D03*
Y1620250D03*
Y1650250D03*
Y2010250D03*
Y2050250D03*
Y2600250D03*
Y2640250D03*
Y2840250D03*
Y2880250D03*
Y3080250D03*
Y3120250D03*
Y3320250D03*
Y3360250D03*
X1030250Y70250D03*
Y110250D03*
Y400250D03*
Y440250D03*
Y550250D03*
Y590250D03*
Y1190250D03*
Y1230250D03*
Y1520250D03*
Y1560250D03*
Y2480250D03*
X1040250Y2270250D03*
Y2310250D03*
Y2660250D03*
Y2700250D03*
Y2900250D03*
Y2940250D03*
Y3140250D03*
Y3180250D03*
X1050250Y1050250D03*
Y1090250D03*
Y1380250D03*
Y1420250D03*
Y1980250D03*
Y2020250D03*
Y2050250D03*
Y2120250D03*
Y2160250D03*
Y2280250D03*
Y2320250D03*
Y2510250D03*
Y2520250D03*
Y2750250D03*
Y2760250D03*
Y2990250D03*
Y3000250D03*
Y3230250D03*
Y3240250D03*
X1060250Y70250D03*
Y110250D03*
Y310250D03*
Y320250D03*
Y550250D03*
Y590250D03*
Y2020250D03*
Y2050250D03*
Y2120250D03*
Y2160250D03*
Y2280250D03*
Y2320250D03*
Y2570250D03*
Y2610250D03*
Y2810250D03*
Y2850250D03*
Y3050250D03*
Y3090250D03*
Y3290250D03*
Y3330250D03*
X1070250Y370250D03*
Y410250D03*
Y2010250D03*
Y2050250D03*
Y2480250D03*
X1080250Y80250D03*
Y110250D03*
Y300250D03*
Y560250D03*
Y590250D03*
Y1290250D03*
Y1330250D03*
Y1380250D03*
Y1420250D03*
Y1430250D03*
Y1460250D03*
Y1480250D03*
Y1520250D03*
Y1620250D03*
Y1660250D03*
Y1980250D03*
Y2010250D03*
Y2050250D03*
Y2230250D03*
Y2240250D03*
Y2480250D03*
Y2520250D03*
Y2660250D03*
Y2700250D03*
Y2900250D03*
Y2940250D03*
Y3140250D03*
Y3180250D03*
X1090250Y80250D03*
Y110250D03*
Y180250D03*
Y220250D03*
Y560250D03*
Y590250D03*
Y660250D03*
Y700250D03*
Y1060250D03*
Y1090250D03*
Y1380250D03*
Y1420250D03*
Y1430250D03*
Y1460250D03*
Y2600250D03*
Y2640250D03*
Y2750250D03*
Y2760250D03*
Y2840250D03*
Y2880250D03*
Y2990250D03*
Y3000250D03*
Y3080250D03*
Y3120250D03*
Y3230250D03*
Y3240250D03*
Y3320250D03*
Y3360250D03*
X1100250Y80250D03*
Y110250D03*
Y180250D03*
Y220250D03*
Y400250D03*
Y440250D03*
Y560250D03*
Y590250D03*
Y660250D03*
Y700250D03*
Y1060250D03*
Y1090250D03*
Y1150250D03*
Y1190250D03*
Y1480250D03*
Y1520250D03*
Y2510250D03*
Y2520250D03*
Y2600250D03*
Y2640250D03*
Y2840250D03*
Y2880250D03*
Y3080250D03*
Y3120250D03*
Y3320250D03*
Y3360250D03*
X1110250Y70250D03*
Y110250D03*
Y550250D03*
Y590250D03*
Y1060250D03*
Y1090250D03*
Y1150250D03*
Y1190250D03*
Y1380250D03*
Y1420250D03*
Y1480250D03*
Y1520250D03*
Y2010250D03*
Y2050250D03*
X1120250Y70250D03*
Y110250D03*
Y300250D03*
Y410250D03*
Y450250D03*
Y550250D03*
Y590250D03*
Y1290250D03*
Y1330250D03*
Y1380250D03*
Y1420250D03*
Y1620250D03*
Y1660250D03*
Y2230250D03*
Y2240250D03*
Y2640250D03*
Y2680250D03*
Y2880250D03*
Y2920250D03*
Y3120250D03*
Y3160250D03*
X1130250Y1050250D03*
Y1090250D03*
Y1290250D03*
Y1330250D03*
Y1620250D03*
Y1660250D03*
Y2750250D03*
Y2760250D03*
Y2990250D03*
Y3000250D03*
Y3230250D03*
Y3240250D03*
X1140250Y1050250D03*
Y1090250D03*
Y1380250D03*
Y1420250D03*
Y1960250D03*
Y1990250D03*
Y2020250D03*
Y2050250D03*
Y2120250D03*
Y2160250D03*
Y2510250D03*
Y2520250D03*
Y2570250D03*
Y2610250D03*
Y2810250D03*
Y2850250D03*
Y3050250D03*
Y3090250D03*
Y3290250D03*
Y3330250D03*
X1150250Y70250D03*
Y110250D03*
Y550250D03*
Y590250D03*
Y1190250D03*
Y1230250D03*
Y1520250D03*
Y1560250D03*
Y2020250D03*
Y2050250D03*
Y2120250D03*
Y2160250D03*
Y2240250D03*
X1160250Y1190250D03*
Y1230250D03*
Y1520250D03*
Y1560250D03*
Y2010250D03*
Y2050250D03*
Y2470250D03*
Y2510250D03*
X1170250Y2010250D03*
Y2050250D03*
Y2280250D03*
Y2300250D03*
X1180250Y40250D03*
Y80250D03*
Y110250D03*
Y180250D03*
Y220250D03*
Y300250D03*
Y320250D03*
Y520250D03*
Y560250D03*
Y590250D03*
Y660250D03*
Y700250D03*
Y1050250D03*
Y1090250D03*
X1190250Y80250D03*
Y110250D03*
Y180250D03*
Y220250D03*
Y400250D03*
Y440250D03*
Y560250D03*
Y590250D03*
Y660250D03*
Y700250D03*
Y2240250D03*
X1200250Y70250D03*
Y110250D03*
Y400250D03*
Y440250D03*
Y550250D03*
Y590250D03*
Y2010250D03*
Y2050250D03*
X1210250Y40250D03*
Y70250D03*
Y110250D03*
Y520250D03*
Y550250D03*
Y590250D03*
Y1060250D03*
Y1090250D03*
Y1150250D03*
Y1190250D03*
Y1480250D03*
Y1520250D03*
Y2280250D03*
Y2300250D03*
X1220250Y300250D03*
Y320250D03*
Y1060250D03*
Y1090250D03*
Y1150250D03*
Y1190250D03*
Y1480250D03*
Y1520250D03*
X1230250Y1060250D03*
Y1090250D03*
Y1290250D03*
Y1330250D03*
Y1620250D03*
Y1660250D03*
Y2020250D03*
Y2050250D03*
Y2120250D03*
Y2160250D03*
X1240250Y70250D03*
Y110250D03*
Y550250D03*
Y590250D03*
Y1050250D03*
Y1090250D03*
Y1380250D03*
Y1420250D03*
Y2020250D03*
Y2050250D03*
Y2120250D03*
Y2160250D03*
X1250250Y320250D03*
Y360250D03*
Y1050250D03*
Y1090250D03*
Y1290250D03*
Y1330250D03*
Y1380250D03*
Y1420250D03*
Y1620250D03*
Y1660250D03*
Y2010250D03*
Y2050250D03*
X1260250Y1190250D03*
Y1230250D03*
Y1290250D03*
Y1330250D03*
Y1520250D03*
Y1560250D03*
Y1620250D03*
Y1660250D03*
Y2010250D03*
Y2050250D03*
X1270250Y20250D03*
Y50250D03*
Y80250D03*
Y110250D03*
Y180250D03*
Y220250D03*
Y500250D03*
Y530250D03*
Y560250D03*
Y590250D03*
Y660250D03*
Y700250D03*
Y1190250D03*
Y1230250D03*
Y1520250D03*
Y1560250D03*
Y3600250D03*
X1280250Y80250D03*
Y110250D03*
Y180250D03*
Y220250D03*
Y310250D03*
Y320250D03*
Y400250D03*
Y440250D03*
Y560250D03*
Y590250D03*
Y660250D03*
Y700250D03*
Y1190250D03*
Y1230250D03*
Y1250250D03*
Y1280250D03*
Y1290250D03*
Y1330250D03*
Y1520250D03*
Y1560250D03*
Y1580250D03*
Y1610250D03*
Y1620250D03*
Y1660250D03*
X1290250Y70250D03*
Y110250D03*
Y400250D03*
Y440250D03*
Y550250D03*
Y590250D03*
Y1050250D03*
Y1090250D03*
Y1250250D03*
Y1280250D03*
Y1290250D03*
Y1330250D03*
Y1380250D03*
Y1420250D03*
Y1580250D03*
Y1610250D03*
Y1620250D03*
Y1660250D03*
Y2010250D03*
Y2050250D03*
X1300250Y70250D03*
Y110250D03*
Y550250D03*
Y590250D03*
X1310250Y1100250D03*
Y1130250D03*
Y3600250D03*
X1320250Y310250D03*
Y320250D03*
Y1100250D03*
Y1130250D03*
Y1290250D03*
Y1330250D03*
Y1620250D03*
Y1660250D03*
X1330250Y70250D03*
Y110250D03*
Y370250D03*
Y410250D03*
Y550250D03*
Y590250D03*
Y1100250D03*
Y1130250D03*
X1340250Y1060250D03*
Y1090250D03*
Y1150250D03*
Y1190250D03*
Y1480250D03*
Y1520250D03*
Y2560250D03*
Y2600250D03*
Y2800250D03*
Y2840250D03*
Y3040250D03*
Y3080250D03*
Y3280250D03*
Y3320250D03*
X1350250Y310250D03*
Y1060250D03*
Y1090250D03*
Y1150250D03*
Y1190250D03*
Y1390250D03*
Y1420250D03*
Y1480250D03*
Y1520250D03*
Y2560250D03*
Y2590250D03*
Y2800250D03*
Y2830250D03*
Y3040250D03*
Y3070250D03*
Y3280250D03*
Y3310250D03*
X1360250Y80250D03*
Y110250D03*
Y180250D03*
Y220250D03*
Y400250D03*
Y440250D03*
Y560250D03*
Y590250D03*
Y660250D03*
Y700250D03*
Y1060250D03*
Y1090250D03*
Y1290250D03*
Y1330250D03*
Y1390250D03*
Y1420250D03*
Y1620250D03*
Y1660250D03*
Y2560250D03*
Y2590250D03*
Y2610644D03*
Y2650644D03*
Y2800250D03*
Y2830250D03*
Y2850644D03*
Y2890644D03*
Y3040250D03*
Y3070250D03*
Y3090644D03*
Y3130644D03*
Y3280250D03*
Y3310250D03*
Y3330644D03*
Y3370644D03*
X1370250Y80250D03*
Y110250D03*
Y180250D03*
Y220250D03*
Y560250D03*
Y590250D03*
Y660250D03*
Y700250D03*
Y1050250D03*
Y1090250D03*
Y1290250D03*
Y1330250D03*
Y1380250D03*
Y1420250D03*
Y1620250D03*
Y1660250D03*
Y2560250D03*
Y2590250D03*
Y2610644D03*
Y2650644D03*
Y2800250D03*
Y2830250D03*
Y2850644D03*
Y2890644D03*
Y3040250D03*
Y3070250D03*
Y3090644D03*
Y3130644D03*
Y3280250D03*
Y3310250D03*
Y3330644D03*
Y3370644D03*
X1380250Y70250D03*
Y110250D03*
Y410250D03*
Y450250D03*
Y550250D03*
Y590250D03*
Y1050250D03*
Y1090250D03*
Y1380250D03*
Y1420250D03*
Y1620250D03*
Y1650250D03*
Y2560250D03*
Y2590250D03*
Y2800250D03*
Y2830250D03*
Y3040250D03*
Y3070250D03*
Y3280250D03*
Y3310250D03*
Y3600250D03*
X1390250Y70250D03*
Y110250D03*
Y310250D03*
Y550250D03*
Y590250D03*
Y1190250D03*
Y1230250D03*
Y1520250D03*
Y1560250D03*
Y1620250D03*
Y1650250D03*
Y2559856D03*
Y2569856D03*
Y2799856D03*
Y2809856D03*
Y3039856D03*
Y3049856D03*
Y3279856D03*
Y3289856D03*
X1400250Y1190250D03*
Y1230250D03*
Y1520250D03*
Y1560250D03*
X1410250Y1370250D03*
X1420250Y70250D03*
Y110250D03*
Y550250D03*
Y590250D03*
Y1050250D03*
Y1090250D03*
Y1380250D03*
Y1420250D03*
Y3600250D03*
X1430250Y2559856D03*
Y2569856D03*
Y2799856D03*
Y2809856D03*
Y3039856D03*
Y3049856D03*
Y3279856D03*
Y3289856D03*
X1440250Y1370250D03*
Y1380250D03*
Y1410250D03*
X1470250Y2560644D03*
Y2600644D03*
Y2800644D03*
Y2840644D03*
Y3040644D03*
Y3080644D03*
Y3280644D03*
Y3320644D03*
X1480250Y1990250D03*
Y2020250D03*
Y2090250D03*
Y2130250D03*
Y2560644D03*
Y2590644D03*
Y2800644D03*
Y2830644D03*
Y3040644D03*
Y3070644D03*
Y3280644D03*
Y3310644D03*
X1490250Y1990250D03*
Y2020250D03*
Y2090250D03*
Y2130250D03*
Y2170250D03*
Y2210250D03*
Y2260250D03*
Y2270250D03*
Y2560644D03*
Y2590644D03*
Y2610644D03*
Y2650644D03*
Y2800644D03*
Y2830644D03*
Y2850644D03*
Y2890644D03*
Y3040644D03*
Y3070644D03*
Y3090644D03*
Y3130644D03*
Y3280644D03*
Y3310644D03*
Y3330644D03*
Y3370644D03*
X1500250Y1980250D03*
Y2020250D03*
Y2560644D03*
Y2590644D03*
Y2610644D03*
Y2650644D03*
Y2800644D03*
Y2830644D03*
Y2850644D03*
Y2890644D03*
Y3040644D03*
Y3070644D03*
Y3090644D03*
Y3130644D03*
Y3280644D03*
Y3310644D03*
Y3330644D03*
Y3370644D03*
X1510250Y1980250D03*
Y2020250D03*
Y2560644D03*
Y2590644D03*
Y2800644D03*
Y2830644D03*
Y3040644D03*
Y3070644D03*
Y3280644D03*
Y3310644D03*
X1520250Y2560644D03*
Y2570644D03*
Y2800644D03*
Y2810644D03*
Y3040644D03*
Y3050644D03*
Y3280644D03*
Y3290644D03*
X1530250Y1180250D03*
Y1220250D03*
Y2150250D03*
Y2190250D03*
Y2260250D03*
Y2270250D03*
X1540250Y1170250D03*
Y1210250D03*
Y1980250D03*
Y2020250D03*
Y2150250D03*
Y2190250D03*
Y2270250D03*
Y2300250D03*
X1550250Y1150250D03*
Y1190250D03*
Y1380250D03*
Y1410250D03*
Y1480250D03*
Y1520250D03*
Y1650250D03*
Y1690250D03*
Y2270250D03*
Y2300250D03*
X1560250Y1150250D03*
Y1190250D03*
Y1380250D03*
Y1410250D03*
Y1480250D03*
Y1520250D03*
Y2560644D03*
Y2570644D03*
Y2800644D03*
Y2810644D03*
Y3040644D03*
Y3050644D03*
Y3280644D03*
Y3290644D03*
X1570250Y1040250D03*
Y1080250D03*
Y1180250D03*
Y1220250D03*
Y1370250D03*
Y1410250D03*
Y1990250D03*
Y2020250D03*
Y2090250D03*
Y2130250D03*
Y2260250D03*
Y2300250D03*
X1580250Y1040250D03*
Y1080250D03*
Y1370250D03*
Y1410250D03*
Y1650250D03*
Y1690250D03*
Y1990250D03*
Y2020250D03*
Y2090250D03*
Y2130250D03*
X1590250Y1650250D03*
Y1690250D03*
Y1980250D03*
Y2020250D03*
X1600250Y1210250D03*
Y1250250D03*
Y1540250D03*
Y1580250D03*
Y1650250D03*
Y1680250D03*
Y1980250D03*
Y2020250D03*
Y2260250D03*
Y2300250D03*
Y2560250D03*
Y2600250D03*
Y2800250D03*
Y2840250D03*
Y3040250D03*
Y3080250D03*
Y3280250D03*
Y3320250D03*
X1610250Y1040250D03*
Y1080250D03*
Y1210250D03*
Y1250250D03*
Y1370250D03*
Y1410250D03*
Y1540250D03*
Y1580250D03*
Y1650250D03*
Y1680250D03*
Y2260250D03*
Y2300250D03*
Y2560250D03*
Y2590250D03*
Y2800250D03*
Y2830250D03*
Y3040250D03*
Y3070250D03*
Y3280250D03*
Y3310250D03*
X1620250Y2150250D03*
Y2190250D03*
Y2560250D03*
Y2590250D03*
Y2610250D03*
Y2650250D03*
Y2800250D03*
Y2830250D03*
Y2850250D03*
Y2890250D03*
Y3040250D03*
Y3070250D03*
Y3090250D03*
Y3130250D03*
Y3280250D03*
Y3310250D03*
Y3330250D03*
Y3370250D03*
X1630250Y1980250D03*
Y2020250D03*
Y2150250D03*
Y2190250D03*
Y2260250D03*
Y2290250D03*
Y2560250D03*
Y2590250D03*
Y2610250D03*
Y2650250D03*
Y2800250D03*
Y2830250D03*
Y2850250D03*
Y2890250D03*
Y3040250D03*
Y3070250D03*
Y3090250D03*
Y3130250D03*
Y3280250D03*
Y3310250D03*
Y3330250D03*
Y3370250D03*
X1640250Y2260250D03*
Y2290250D03*
Y2560250D03*
Y2590250D03*
Y2800250D03*
Y2830250D03*
Y3040250D03*
Y3070250D03*
Y3280250D03*
Y3310250D03*
X1650250Y2560250D03*
Y2570250D03*
Y2800250D03*
Y2810250D03*
Y3040250D03*
Y3050250D03*
Y3280250D03*
Y3290250D03*
X1690250Y2560250D03*
Y2570250D03*
Y2800250D03*
Y2810250D03*
Y3040250D03*
Y3050250D03*
Y3280250D03*
Y3290250D03*
X1710250Y40250D03*
Y50250D03*
X1720250Y60250D03*
Y100250D03*
Y180250D03*
Y190250D03*
Y360250D03*
Y370250D03*
Y540250D03*
Y550250D03*
Y720250D03*
Y760250D03*
X1730250Y60250D03*
Y100250D03*
Y200250D03*
Y240250D03*
Y380250D03*
Y420250D03*
Y740250D03*
Y780250D03*
Y2560250D03*
Y2600250D03*
Y2800250D03*
Y2840250D03*
Y3040250D03*
Y3080250D03*
Y3280250D03*
Y3320250D03*
X1740250Y60250D03*
Y90250D03*
Y100250D03*
Y140250D03*
Y200250D03*
Y240250D03*
Y380250D03*
Y420250D03*
Y650250D03*
Y690250D03*
Y2560250D03*
Y2590250D03*
Y2800250D03*
Y2830250D03*
Y3040250D03*
Y3070250D03*
Y3280250D03*
Y3310250D03*
X1750250Y40250D03*
Y50250D03*
Y100250D03*
Y140250D03*
Y200250D03*
Y230250D03*
Y240250D03*
Y280250D03*
Y380250D03*
Y410250D03*
Y420250D03*
Y460250D03*
Y540250D03*
Y550250D03*
Y650250D03*
Y690250D03*
Y2560250D03*
Y2590250D03*
Y2610250D03*
Y2650250D03*
Y2800250D03*
Y2830250D03*
Y2850250D03*
Y2890250D03*
Y3040250D03*
Y3070250D03*
Y3090250D03*
Y3130250D03*
Y3280250D03*
Y3310250D03*
Y3330250D03*
Y3370250D03*
X1760250Y40250D03*
Y70250D03*
Y100250D03*
Y140250D03*
Y180250D03*
Y190250D03*
Y240250D03*
Y280250D03*
Y360250D03*
Y370250D03*
Y420250D03*
Y460250D03*
Y540250D03*
Y580250D03*
Y2560250D03*
Y2590250D03*
Y2610250D03*
Y2650250D03*
Y2800250D03*
Y2830250D03*
Y2850250D03*
Y2890250D03*
Y3040250D03*
Y3070250D03*
Y3090250D03*
Y3130250D03*
Y3280250D03*
Y3310250D03*
Y3330250D03*
Y3370250D03*
X1770250Y180250D03*
Y210250D03*
Y240250D03*
Y280250D03*
Y360250D03*
Y390250D03*
Y420250D03*
Y460250D03*
Y540250D03*
Y580250D03*
Y710250D03*
Y750250D03*
Y1020250D03*
Y1050250D03*
Y1120250D03*
Y1160250D03*
Y1410250D03*
Y1440250D03*
Y1510250D03*
Y1550250D03*
Y2560250D03*
Y2590250D03*
Y2800250D03*
Y2830250D03*
Y3040250D03*
Y3070250D03*
Y3280250D03*
Y3310250D03*
X1780250Y50250D03*
Y710250D03*
Y750250D03*
Y1020250D03*
Y1050250D03*
Y1120250D03*
Y1160250D03*
Y1410250D03*
Y1440250D03*
Y1510250D03*
Y1550250D03*
Y2560250D03*
Y2570250D03*
Y2800250D03*
Y2810250D03*
Y3040250D03*
Y3050250D03*
Y3280250D03*
Y3290250D03*
X1790250Y190250D03*
Y370250D03*
Y1010250D03*
Y1050250D03*
Y1400250D03*
Y1440250D03*
X1800250Y540250D03*
Y580250D03*
Y1010250D03*
Y1050250D03*
Y1280250D03*
Y1320250D03*
Y1400250D03*
Y1440250D03*
Y1670250D03*
Y1710250D03*
X1819463Y380250D03*
X1820250Y50250D03*
Y60250D03*
Y530250D03*
Y570250D03*
Y590250D03*
Y620250D03*
Y2560250D03*
Y2570250D03*
Y2800250D03*
Y2810250D03*
Y3040250D03*
Y3050250D03*
Y3280250D03*
Y3290250D03*
X1830250Y190250D03*
Y200250D03*
Y370250D03*
Y530250D03*
Y570250D03*
Y590250D03*
Y620250D03*
Y1010250D03*
Y1050250D03*
Y1280250D03*
Y1320250D03*
Y1400250D03*
Y1440250D03*
Y1670250D03*
Y1710250D03*
X1840250Y530250D03*
Y570250D03*
Y590250D03*
Y620250D03*
Y1280250D03*
Y1320250D03*
Y1670250D03*
Y1710250D03*
X1850250Y100250D03*
Y140250D03*
Y650250D03*
Y690250D03*
Y710250D03*
Y750250D03*
Y1160250D03*
Y1200250D03*
Y1280250D03*
Y1310250D03*
Y1550250D03*
Y1590250D03*
Y1670250D03*
Y1700250D03*
X1859463Y380250D03*
X1860250Y60250D03*
Y100250D03*
Y140250D03*
Y240250D03*
Y280250D03*
Y420250D03*
Y460250D03*
Y530250D03*
Y570250D03*
Y710250D03*
Y750250D03*
Y1020250D03*
Y1050250D03*
Y1120250D03*
Y1160250D03*
D03*
Y1200250D03*
Y1280250D03*
Y1310250D03*
Y1410250D03*
Y1440250D03*
Y1510250D03*
Y1550250D03*
D03*
Y1590250D03*
Y1670250D03*
Y1700250D03*
Y2000250D03*
Y2040250D03*
Y2060250D03*
Y2090250D03*
X1870250Y200250D03*
Y240250D03*
Y280250D03*
Y420250D03*
Y460250D03*
Y530250D03*
Y570250D03*
Y650250D03*
Y690250D03*
Y1020250D03*
Y1050250D03*
Y1120250D03*
Y1160250D03*
Y1410250D03*
Y1440250D03*
Y1510250D03*
Y1550250D03*
Y2000250D03*
Y2040250D03*
Y2060250D03*
Y2090250D03*
X1880250Y50250D03*
Y60250D03*
Y530250D03*
Y570250D03*
Y650250D03*
Y690250D03*
Y1010250D03*
Y1050250D03*
Y1400250D03*
Y1440250D03*
Y2120250D03*
Y2160250D03*
X1890250Y190250D03*
Y200250D03*
Y370250D03*
Y380250D03*
Y1010250D03*
Y1050250D03*
Y1280250D03*
Y1320250D03*
Y1400250D03*
Y1440250D03*
Y1670250D03*
Y1710250D03*
X1900250Y540250D03*
Y580250D03*
Y2000250D03*
Y2040250D03*
Y2120250D03*
Y2160250D03*
X1910250Y2000250D03*
Y2040250D03*
Y2120250D03*
Y2160250D03*
X1920250Y50250D03*
Y60250D03*
Y1010250D03*
Y1050250D03*
Y1280250D03*
Y1320250D03*
Y1400250D03*
Y1440250D03*
Y1670250D03*
Y1710250D03*
X1930250Y190250D03*
Y200250D03*
Y370250D03*
Y380250D03*
Y710250D03*
Y750250D03*
Y1280250D03*
Y1320250D03*
Y1670250D03*
Y1710250D03*
Y2010250D03*
Y2050250D03*
X1940250Y710250D03*
Y750250D03*
Y1160250D03*
Y1200250D03*
Y1280250D03*
Y1310250D03*
Y1550250D03*
Y1590250D03*
Y1670250D03*
Y1700250D03*
X1950250Y100250D03*
Y140250D03*
Y170250D03*
Y350250D03*
Y1020250D03*
Y1050250D03*
Y1120250D03*
Y1160250D03*
D03*
Y1200250D03*
Y1280250D03*
Y1310250D03*
Y1410250D03*
Y1440250D03*
Y1510250D03*
Y1550250D03*
D03*
Y1590250D03*
Y1670250D03*
Y1700250D03*
X1960250Y100250D03*
Y140250D03*
Y650250D03*
Y690250D03*
Y770250D03*
Y810250D03*
Y1020250D03*
Y1050250D03*
Y1120250D03*
Y1160250D03*
Y1410250D03*
Y1440250D03*
Y1510250D03*
Y1550250D03*
Y1990250D03*
X1970250Y180250D03*
Y190250D03*
Y360250D03*
Y370250D03*
Y650250D03*
Y690250D03*
Y1010250D03*
Y1050250D03*
Y1400250D03*
Y1440250D03*
X1980250Y60250D03*
Y170250D03*
Y200250D03*
Y240250D03*
Y350250D03*
Y380250D03*
Y420250D03*
Y540250D03*
Y580250D03*
Y1010250D03*
Y1050250D03*
Y1280250D03*
Y1320250D03*
Y1400250D03*
Y1440250D03*
Y1670250D03*
Y1710250D03*
Y1970250D03*
Y1980250D03*
X1990250Y200250D03*
Y240250D03*
Y380250D03*
Y420250D03*
Y540250D03*
Y580250D03*
Y1990250D03*
Y2120250D03*
Y2160250D03*
Y2600250D03*
Y2640250D03*
Y2840250D03*
Y2880250D03*
Y3080250D03*
Y3120250D03*
Y3320250D03*
Y3360250D03*
X2000250Y170250D03*
Y200250D03*
Y230250D03*
Y240250D03*
Y280250D03*
Y350250D03*
Y380250D03*
Y410250D03*
Y420250D03*
Y460250D03*
Y1990250D03*
Y2120250D03*
Y2160250D03*
Y2600250D03*
Y2640250D03*
Y2840250D03*
Y2880250D03*
Y3080250D03*
Y3120250D03*
Y3320250D03*
Y3360250D03*
X2010250Y180250D03*
Y190250D03*
Y240250D03*
Y280250D03*
Y360250D03*
Y370250D03*
Y420250D03*
Y460250D03*
Y710250D03*
Y750250D03*
Y1010250D03*
Y1050250D03*
Y1280250D03*
Y1320250D03*
Y1400250D03*
Y1440250D03*
Y1670250D03*
Y1710250D03*
Y1970250D03*
Y1980250D03*
Y2010250D03*
Y2050250D03*
Y2520250D03*
Y2530250D03*
Y2760250D03*
Y2770250D03*
Y3000250D03*
Y3010250D03*
Y3240250D03*
Y3250250D03*
X2020250Y60250D03*
Y180250D03*
Y210250D03*
Y240250D03*
Y280250D03*
Y360250D03*
Y390250D03*
Y420250D03*
Y460250D03*
Y540250D03*
Y580250D03*
Y710250D03*
Y750250D03*
Y1280250D03*
Y1320250D03*
Y1670250D03*
Y1710250D03*
Y2010250D03*
Y2050250D03*
X2030250Y170250D03*
Y350250D03*
Y1160250D03*
Y1200250D03*
Y1280250D03*
Y1310250D03*
Y1550250D03*
Y1590250D03*
Y1670250D03*
Y1700250D03*
Y1990250D03*
X2040250Y90250D03*
Y130250D03*
Y190250D03*
Y370250D03*
Y1020250D03*
Y1050250D03*
Y1120250D03*
Y1160250D03*
D03*
Y1200250D03*
Y1280250D03*
Y1310250D03*
Y1410250D03*
Y1440250D03*
Y1510250D03*
Y1550250D03*
D03*
Y1590250D03*
Y1670250D03*
Y1700250D03*
Y2590250D03*
Y2630250D03*
Y2830250D03*
Y2870250D03*
Y3070250D03*
Y3110250D03*
Y3310250D03*
Y3350250D03*
X2050250Y1020250D03*
Y1050250D03*
Y1120250D03*
Y1160250D03*
Y1410250D03*
Y1440250D03*
Y1510250D03*
Y1550250D03*
Y2010250D03*
Y2050250D03*
Y2520250D03*
Y2530250D03*
Y2760250D03*
Y2770250D03*
Y3000250D03*
Y3010250D03*
Y3240250D03*
Y3250250D03*
X2060250Y100250D03*
Y140250D03*
Y1010250D03*
Y1050250D03*
Y1400250D03*
Y1440250D03*
X2069463Y380250D03*
X2070250Y100250D03*
Y140250D03*
Y1010250D03*
Y1050250D03*
Y1280250D03*
Y1320250D03*
Y1400250D03*
Y1440250D03*
Y1670250D03*
Y1710250D03*
Y2000250D03*
Y2040250D03*
Y2060250D03*
Y2090250D03*
X2080250Y190250D03*
Y200250D03*
Y370250D03*
Y2000250D03*
Y2040250D03*
Y2060250D03*
Y2090250D03*
Y2520250D03*
Y2530250D03*
Y2600250D03*
Y2640250D03*
Y2760250D03*
Y2770250D03*
Y2840250D03*
Y2880250D03*
Y3000250D03*
Y3010250D03*
Y3080250D03*
Y3120250D03*
Y3240250D03*
Y3250250D03*
Y3320250D03*
Y3360250D03*
X2090250Y50250D03*
Y710250D03*
Y750250D03*
Y2120250D03*
Y2160250D03*
Y2600250D03*
Y2640250D03*
Y2840250D03*
Y2880250D03*
Y3080250D03*
Y3120250D03*
Y3320250D03*
Y3360250D03*
X2100250Y560250D03*
Y570250D03*
Y650250D03*
Y690250D03*
Y710250D03*
Y750250D03*
Y1010250D03*
Y1050250D03*
Y1280250D03*
Y1320250D03*
Y1400250D03*
Y1440250D03*
Y1670250D03*
Y1710250D03*
X2109463Y380250D03*
X2110250Y240250D03*
Y280250D03*
Y420250D03*
Y460250D03*
Y650250D03*
Y690250D03*
Y1280250D03*
Y1320250D03*
Y1670250D03*
Y1710250D03*
Y2000250D03*
Y2040250D03*
Y2120250D03*
Y2160250D03*
X2120250Y200250D03*
Y240250D03*
Y280250D03*
Y420250D03*
Y460250D03*
Y1160250D03*
Y1200250D03*
Y1280250D03*
Y1310250D03*
Y1550250D03*
Y1590250D03*
Y1670250D03*
Y1700250D03*
Y2000250D03*
Y2040250D03*
Y2120250D03*
Y2160250D03*
Y2520250D03*
Y2530250D03*
Y2760250D03*
Y2770250D03*
Y3000250D03*
Y3010250D03*
Y3240250D03*
Y3250250D03*
X2130250Y50250D03*
Y1160250D03*
Y1200250D03*
Y1280250D03*
Y1310250D03*
Y1550250D03*
Y1590250D03*
Y1670250D03*
Y1700250D03*
Y2590250D03*
Y2630250D03*
Y2830250D03*
Y2870250D03*
Y3070250D03*
Y3110250D03*
Y3310250D03*
Y3350250D03*
X2140250Y190250D03*
Y200250D03*
Y370250D03*
Y380250D03*
Y560250D03*
Y570250D03*
Y2010250D03*
Y2050250D03*
X2150250Y620250D03*
Y660250D03*
X2170250Y710250D03*
Y750250D03*
Y2520250D03*
Y2530250D03*
Y2600250D03*
Y2640250D03*
Y2760250D03*
Y2770250D03*
Y2840250D03*
Y2880250D03*
Y3000250D03*
Y3010250D03*
Y3080250D03*
Y3120250D03*
Y3240250D03*
Y3250250D03*
Y3320250D03*
Y3360250D03*
X2180250Y190250D03*
Y200250D03*
Y370250D03*
Y380250D03*
Y710250D03*
Y750250D03*
Y2600250D03*
Y2640250D03*
Y2840250D03*
Y2880250D03*
Y3080250D03*
Y3120250D03*
Y3320250D03*
Y3360250D03*
X2190250Y1960250D03*
Y1970250D03*
X2200250Y2120250D03*
Y2160250D03*
X2210250Y2120250D03*
Y2160250D03*
Y2520250D03*
Y2530250D03*
Y2760250D03*
Y2770250D03*
Y3000250D03*
Y3010250D03*
Y3240250D03*
Y3250250D03*
X2220250Y1960250D03*
Y1970250D03*
Y2010250D03*
Y2050250D03*
Y2590250D03*
Y2630250D03*
Y2830250D03*
Y2870250D03*
Y3070250D03*
Y3110250D03*
Y3310250D03*
Y3350250D03*
X2230250Y2010250D03*
Y2050250D03*
X2240250Y2520250D03*
Y2530250D03*
Y2760250D03*
Y2770250D03*
Y3000250D03*
Y3010250D03*
Y3240250D03*
Y3250250D03*
X2260250Y1080250D03*
Y1120250D03*
Y1250250D03*
Y1290250D03*
Y1400250D03*
Y1440250D03*
Y1470250D03*
Y1510250D03*
Y1640250D03*
Y1680250D03*
Y2010250D03*
Y2050250D03*
Y2600250D03*
Y2640250D03*
Y2840250D03*
Y2880250D03*
Y3080250D03*
Y3120250D03*
Y3320250D03*
Y3360250D03*
X2270250Y1080250D03*
Y1120250D03*
Y1400250D03*
Y1440250D03*
Y1470250D03*
Y1510250D03*
Y2600250D03*
Y2640250D03*
Y2840250D03*
Y2880250D03*
Y3080250D03*
Y3120250D03*
Y3320250D03*
Y3360250D03*
X2280250Y1200250D03*
Y1230250D03*
Y1300250D03*
Y1310250D03*
Y1590250D03*
Y1620250D03*
Y1690250D03*
Y1700250D03*
Y2520250D03*
Y2530250D03*
Y2760250D03*
Y2770250D03*
Y3000250D03*
Y3010250D03*
Y3240250D03*
Y3250250D03*
X2290250Y310250D03*
Y340250D03*
Y350250D03*
Y380250D03*
X2300250Y340250D03*
Y380250D03*
Y1790250D03*
Y1800250D03*
X2310250Y190250D03*
Y230250D03*
Y330250D03*
Y510250D03*
Y550250D03*
Y1090250D03*
Y1130250D03*
Y1480250D03*
Y1520250D03*
Y2590250D03*
Y2630250D03*
Y2830250D03*
Y2870250D03*
Y3070250D03*
Y3110250D03*
Y3310250D03*
Y3350250D03*
X2320250Y100250D03*
Y140250D03*
Y420250D03*
Y460250D03*
Y1090250D03*
Y1130250D03*
Y1200250D03*
Y1230250D03*
Y1300250D03*
Y1310250D03*
Y1480250D03*
Y1520250D03*
Y1590250D03*
Y1620250D03*
Y1690250D03*
Y1700250D03*
X2330250Y100250D03*
Y140250D03*
Y420250D03*
Y460250D03*
X2340250Y1080250D03*
Y1120250D03*
Y1470250D03*
Y1510250D03*
Y1790250D03*
Y1800250D03*
X2350250Y160250D03*
Y200250D03*
Y330250D03*
Y480250D03*
Y520250D03*
Y1080250D03*
Y1120250D03*
Y1470250D03*
Y1510250D03*
X2360250Y160250D03*
Y200250D03*
Y480250D03*
Y520250D03*
X2470250Y170250D03*
Y210250D03*
X2480250Y140250D03*
Y180250D03*
X2490250Y100250D03*
Y140250D03*
Y210250D03*
Y250250D03*
X2500250Y260250D03*
Y300250D03*
Y340250D03*
Y350250D03*
Y380250D03*
Y420250D03*
Y610250D03*
Y650250D03*
Y660250D03*
Y700250D03*
X2510250Y60250D03*
Y100250D03*
Y110250D03*
Y150250D03*
Y240250D03*
Y280250D03*
Y380250D03*
Y420250D03*
Y650250D03*
Y690250D03*
X2540250Y340250D03*
Y350250D03*
X0Y0D02*
M02*
