G05
M48
;#@! TF.GenerationSoftware,DesignSpark,DesignSpark PCB,12.0.5940
;#@! TF.CreationDate,2024-12-09T15:35:37+06:00*
;#@! TF.FileFunction,Plated,1,2,PTH
;FILE_FORMAT=3:5
;TYPE=PLATED
INCH,TZ
FMAT,2
T1C000.03200
T2C000.03500
%
T001
X1.80250Y2.30250
X1.90250Y2.20250
X2.00250Y2.10250
X2.10250Y2.00250
X2.20250Y2.30250
X2.30250Y2.20250
X2.40250Y2.10250
X2.50250Y2.00250
X4.20250Y2.30250
X4.30250Y2.20250
X4.40250Y2.10250
X4.50250Y2.00250
X4.60250Y2.30250
X4.70250Y2.20250
X4.80250Y2.10250
X4.90250Y2.00250
T002
X0.20250Y2.70250
X0.20250Y2.80250
X0.20250Y3.10250
X0.20250Y3.20250
X0.20250Y3.30250
X0.20250Y3.40250
X0.20250Y3.90250
X0.20250Y4.00250
X0.20250Y4.10250
X0.20250Y4.20250
X1.10250Y3.10250
X1.10250Y3.60250
X1.10250Y3.80250
X1.10250Y4.30250
X1.40250Y0.20250
X1.50250Y0.20250
X1.60250Y0.20250
X1.80250Y0.20250
X1.80250Y0.60250
X1.90250Y0.20250
X2.00250Y0.20250
X2.00250Y0.60250
X2.20250Y0.20250
X2.30250Y0.20250
X2.40250Y0.20250
X4.10250Y2.40250
X4.10250Y2.50250
X4.10250Y2.60250
X4.10250Y2.70250
X4.60250Y2.40250
X4.60250Y2.50250
X4.60250Y2.60250
X4.60250Y2.70250
X4.90250Y2.90250
X5.00250Y1.80250
X5.80250Y3.10250
X5.80250Y3.20250
X5.80250Y3.30250
X5.80250Y3.40250
X5.80250Y3.50250
X5.80250Y3.80250
X5.80250Y3.90250
X5.80250Y4.00250
X5.80250Y4.10250
X5.80250Y4.20250
X5.90250Y2.90250
X6.00250Y1.80250
X6.10250Y3.20250
X6.10250Y3.30250
X6.10250Y3.40250
X6.10250Y3.50250
X6.10250Y3.90250
X6.10250Y4.00250
X6.10250Y4.10250
X6.10250Y4.20250
M30
