G04 DesignSpark PCB Gerber Version 12.0 Build 5941*
G04 #@! TF.Part,Single*
G04 #@! TF.FilePolarity,Positive*
%FSLAX35Y35*%
%MOIN*%
G04 #@! TA.AperFunction,ComponentDrill*
%ADD17C,0.03200*%
G04 #@! TA.AperFunction,MechanicalDrill*
%ADD16C,0.03500*%
G04 #@! TD.AperFunction*
X0Y0D02*
D02*
D16*
X20250Y270250D03*
Y280250D03*
Y310250D03*
Y320250D03*
Y330250D03*
Y340250D03*
Y390250D03*
Y400250D03*
Y410250D03*
Y420250D03*
X110250Y310250D03*
Y360250D03*
Y380250D03*
Y430250D03*
X140250Y20250D03*
X150250D03*
X160250D03*
X180250D03*
Y60250D03*
X190250Y20250D03*
X200250D03*
Y60250D03*
X220250Y20250D03*
X230250D03*
X240250D03*
X410250Y240250D03*
Y250250D03*
Y260250D03*
Y270250D03*
X460250Y240250D03*
Y250250D03*
Y260250D03*
Y270250D03*
X490250Y290250D03*
X500250Y180250D03*
X580250Y310250D03*
Y320250D03*
Y330250D03*
Y340250D03*
Y350250D03*
Y380250D03*
Y390250D03*
Y400250D03*
Y410250D03*
Y420250D03*
X590250Y290250D03*
X600250Y180250D03*
X610250Y320250D03*
Y330250D03*
Y340250D03*
Y350250D03*
Y390250D03*
Y400250D03*
Y410250D03*
Y420250D03*
D02*
D17*
X180250Y230250D03*
X190250Y220250D03*
X200250Y210250D03*
X210250Y200250D03*
X220250Y230250D03*
X230250Y220250D03*
X240250Y210250D03*
X250250Y200250D03*
X420250Y230250D03*
X430250Y220250D03*
X440250Y210250D03*
X450250Y200250D03*
X460250Y230250D03*
X470250Y220250D03*
X480250Y210250D03*
X490250Y200250D03*
X0Y0D02*
M02*
