G04 DesignSpark PCB Gerber Version 12.0 Build 5941*
G04 #@! TF.Part,Single*
G04 #@! TF.FileFunction,Copper,L2,Bot*
G04 #@! TF.FilePolarity,Positive*
%FSLAX35Y35*%
%MOIN*%
G04 #@! TA.AperFunction,WasherPad*
%ADD12R,0.11811X0.19685*%
G04 #@! TD.AperFunction*
%ADD10C,0.03937*%
G04 #@! TA.AperFunction,ComponentPad*
%ADD15C,0.06000*%
G04 #@! TA.AperFunction,WasherPad*
%ADD11C,0.06890*%
%ADD13R,0.19685X0.11811*%
%ADD14C,0.07087*%
G04 #@! TD.AperFunction*
X0Y0D02*
D02*
D10*
X20250Y280250D02*
Y270250D01*
Y310250D02*
X110250D01*
X20250Y320250D02*
X170250D01*
G75*
G02*
X190250Y300250I0J-20000D01*
G01*
Y230250D01*
X20250Y330250D02*
X170250D01*
G75*
G02*
X200250Y300250I0J-30000D01*
G01*
Y220250D01*
X20250Y390250D02*
X410250D01*
G75*
G02*
X420250Y380250I0J-10000D01*
G01*
Y240250D01*
X20250Y410250D02*
X410250D01*
G75*
G02*
X440250Y380250I0J-30000D01*
G01*
Y220250D01*
X20250Y420250D02*
X410250D01*
G75*
G02*
X450250Y380250I0J-40000D01*
G01*
Y200250D01*
X110250Y120250D02*
X50250D01*
X110250Y150250D02*
G75*
G02*
X100250Y140250I-10000J0D01*
G01*
G75*
G02*
X90250Y150250I0J10000D01*
G01*
Y210250D01*
G75*
G02*
X100250Y220250I10000J0D01*
G01*
X180250D01*
X170250Y120250D02*
X110250D01*
X170250Y150250D02*
G75*
G02*
X160250Y140250I-10000J0D01*
G01*
G75*
G02*
X150250Y150250I0J10000D01*
G01*
Y200250D01*
G75*
G02*
X160250Y210250I10000J0D01*
G01*
X190250D01*
X170250Y230250D02*
G75*
G03*
X180250Y240250I0J10000D01*
G01*
X170250Y230250D02*
X40250D01*
G75*
G03*
X30250Y220250I0J-10000D01*
G01*
Y150250D01*
G75*
G03*
X40250Y140250I10000J0D01*
G01*
G75*
G03*
X50250Y150250I0J10000D01*
G01*
X180250Y20250D02*
G75*
G03*
X190250Y30250I0J10000D01*
G01*
X180250Y60250D02*
X30250D01*
G75*
G02*
X20250Y70250I0J10000D01*
G01*
Y270250D01*
X180250Y220250D02*
G75*
G03*
X190250Y230250I0J10000D01*
G01*
X180250Y220250D02*
X190250D01*
X180250Y230250D02*
X170250D01*
X180250Y240250D02*
Y230250D01*
Y240250D02*
Y300250D01*
G75*
G03*
X170250Y310250I-10000J0D01*
G01*
X110250D01*
X190250Y20250D02*
Y30250D01*
Y100250D01*
Y110250D01*
G75*
G02*
X200250Y120250I10000J0D01*
G01*
X210250D01*
X190250Y100250D02*
Y110250D01*
G75*
G03*
X180250Y120250I-10000J0D01*
G01*
X170250D01*
X190250Y210250D02*
G75*
G03*
X200250Y220250I0J10000D01*
G01*
X190250Y210250D02*
X200250D01*
X190250Y230250D02*
Y220250D01*
X200250Y20250D02*
G75*
G02*
X190250Y30250I0J10000D01*
G01*
X200250Y60250D02*
X550250D01*
G75*
G03*
X560250Y70250I0J10000D01*
G01*
Y110250D01*
X200250Y220250D02*
Y210250D01*
X210250Y120250D02*
X170250D01*
X210250Y200250D02*
Y300250D01*
G75*
G03*
X170250Y340250I-40000J0D01*
G01*
X20250D01*
X220250Y20250D02*
G75*
G03*
X230250Y30250I0J10000D01*
G01*
X220250Y230250D02*
G75*
G02*
X260250Y270250I40000J0D01*
G01*
X410250D01*
X230250Y30250D02*
Y20250D01*
Y120250D02*
X210250D01*
X230250Y150250D02*
G75*
G02*
X220250Y140250I-10000J0D01*
G01*
G75*
G02*
X210250Y150250I0J10000D01*
G01*
Y200250D01*
X240250Y20250D02*
G75*
G02*
X230250Y30250I0J10000D01*
G01*
X240250Y210250D02*
Y230250D01*
G75*
G02*
X260250Y250250I20000J0D01*
G01*
X410250D01*
X290250Y120250D02*
X230250D01*
X290250Y150250D02*
G75*
G02*
X280250Y140250I-10000J0D01*
G01*
G75*
G02*
X270250Y150250I0J10000D01*
G01*
Y220250D01*
G75*
G02*
X280250Y230250I10000J0D01*
G01*
X410250D01*
X350250Y120250D02*
X290250D01*
X350250Y150250D02*
G75*
G02*
X340250Y140250I-10000J0D01*
G01*
G75*
G02*
X330250Y150250I0J10000D01*
G01*
Y210250D01*
G75*
G02*
X340250Y220250I10000J0D01*
G01*
X420250D01*
X410250Y120250D02*
X350250D01*
X410250Y150250D02*
G75*
G02*
X400250Y140250I-10000J0D01*
G01*
G75*
G02*
X390250Y150250I0J10000D01*
G01*
Y200250D01*
G75*
G02*
X400250Y210250I10000J0D01*
G01*
X430250D01*
X410250Y230250D02*
G75*
G03*
X420250Y240250I0J10000D01*
G01*
X410250Y230250D02*
X420250D01*
X410250Y240250D02*
X260250D01*
G75*
G03*
X250250Y230250I0J-10000D01*
G01*
Y200250D01*
X410250Y260250D02*
X260250D01*
G75*
G03*
X230250Y230250I0J-30000D01*
G01*
Y220250D01*
X420250D02*
G75*
G03*
X430250Y230250I0J10000D01*
G01*
X420250Y220250D02*
X430250D01*
X420250Y230250D02*
Y240250D01*
Y230250D01*
X430250Y210250D02*
G75*
G03*
X440250Y220250I0J10000D01*
G01*
X430250Y210250D02*
X440250D01*
X430250Y220250D02*
Y230250D01*
Y220250D02*
Y230250D01*
Y380250D01*
G75*
G03*
X410250Y400250I-20000J0D01*
G01*
X20250D01*
X440250Y210250D02*
Y220250D01*
Y210250D01*
X460250Y240250D02*
X500250D01*
G75*
G03*
X540250Y280250I0J40000D01*
G01*
Y370250D01*
G75*
G02*
X550250Y380250I10000J0D01*
G01*
X580250D01*
X460250Y260250D02*
X500250D01*
G75*
G03*
X520250Y280250I0J20000D01*
G01*
Y370250D01*
G75*
G02*
X550250Y400250I30000J0D01*
G01*
X580250D01*
X470250Y120250D02*
X410250D01*
X470250Y150250D02*
G75*
G02*
X460250Y140250I-10000J0D01*
G01*
G75*
G02*
X450250Y150250I0J10000D01*
G01*
Y200250D01*
X470250Y220250D02*
X500250D01*
G75*
G03*
X560250Y280250I0J60000D01*
G01*
Y310250D01*
G75*
G02*
X580250Y330250I20000J0D01*
G01*
X490250Y200250D02*
X500250D01*
G75*
G03*
X580250Y280250I0J80000D01*
G01*
Y310250D01*
X490250Y290250D02*
G75*
G03*
X500250Y300250I0J10000D01*
G01*
Y370250D01*
G75*
G02*
X550250Y420250I50000J0D01*
G01*
X580250D01*
X500250Y150250D02*
Y130250D01*
G75*
G02*
X490250Y120250I-10000J0D01*
G01*
X470250D01*
X500250Y180250D02*
Y150250D01*
X560250Y140250D02*
Y110250D01*
X580250Y320250D02*
G75*
G03*
X570250Y310250I0J-10000D01*
G01*
Y280250D01*
G75*
G02*
X500250Y210250I-70000J0D01*
G01*
X480250D01*
X580250Y340250D02*
G75*
G03*
X550250Y310250I0J-30000D01*
G01*
Y280250D01*
G75*
G02*
X500250Y230250I-50000J0D01*
G01*
X460250D01*
X580250Y390250D02*
X550250D01*
G75*
G03*
X530250Y370250I0J-20000D01*
G01*
Y280250D01*
G75*
G02*
X500250Y250250I-30000J0D01*
G01*
X460250D01*
X580250Y410250D02*
X550250D01*
G75*
G03*
X510250Y370250I0J-40000D01*
G01*
Y280250D01*
G75*
G02*
X500250Y270250I-10000J0D01*
G01*
X460250D01*
X590250Y290250D02*
Y200250D01*
G75*
G02*
X580250Y190250I-10000J0D01*
G01*
X510250D01*
G75*
G03*
X500250Y180250I0J-10000D01*
G01*
X600250Y140250D02*
Y160250D01*
G75*
G03*
X590250Y170250I-10000J0D01*
G01*
X510250D01*
G75*
G03*
X500250Y160250I0J-10000D01*
G01*
Y150250D01*
X600250Y140250D02*
Y110250D01*
Y180250D02*
Y340250D01*
G75*
G03*
X590250Y350250I-10000J0D01*
G01*
X580250D01*
X610250Y340250D02*
G75*
G02*
X620250Y330250I0J-10000D01*
G01*
X610250Y340250D02*
G75*
G03*
X620250Y350250I0J10000D01*
G01*
Y330250D02*
Y70250D01*
G75*
G02*
X600250Y50250I-20000J0D01*
G01*
X240250D01*
G75*
G03*
X230250Y40250I0J-10000D01*
G01*
Y30250D01*
X620250Y350250D02*
Y330250D01*
Y350250D02*
Y400250D01*
G75*
G03*
X610250Y410250I-10000J0D01*
G01*
D02*
D11*
X140250Y20250D03*
X150250D03*
X160250D03*
X180250D03*
X190250D03*
X200250D03*
X220250D03*
X230250D03*
X240250D03*
X490250Y290250D03*
X500250Y180250D03*
X580250Y310250D03*
Y320250D03*
Y330250D03*
Y340250D03*
Y350250D03*
Y380250D03*
Y390250D03*
Y400250D03*
Y410250D03*
Y420250D03*
X590250Y290250D03*
X600250Y180250D03*
X610250Y320250D03*
Y330250D03*
Y340250D03*
Y350250D03*
Y390250D03*
Y400250D03*
Y410250D03*
Y420250D03*
D02*
D12*
X530250Y110250D03*
Y140250D03*
X560250Y110250D03*
Y140250D03*
X600250Y110250D03*
Y140250D03*
D02*
D13*
X50250Y90250D03*
Y120250D03*
Y150250D03*
X110250Y90250D03*
Y120250D03*
Y150250D03*
X170250Y90250D03*
Y120250D03*
Y150250D03*
X230250Y90250D03*
Y120250D03*
Y150250D03*
X290250Y90250D03*
Y120250D03*
Y150250D03*
X350250Y90250D03*
Y120250D03*
Y150250D03*
X410250Y90250D03*
Y120250D03*
Y150250D03*
X470250Y90250D03*
Y120250D03*
Y150250D03*
D02*
D14*
X20250Y270250D03*
Y280250D03*
Y310250D03*
Y320250D03*
Y330250D03*
Y340250D03*
Y390250D03*
Y400250D03*
Y410250D03*
Y420250D03*
X110250Y310250D03*
Y360250D03*
Y380250D03*
Y430250D03*
X180250Y60250D03*
X200250D03*
X410250Y240250D03*
Y250250D03*
Y260250D03*
Y270250D03*
X460250Y240250D03*
Y250250D03*
Y260250D03*
Y270250D03*
D02*
D15*
X180250Y230250D03*
X190250Y220250D03*
X200250Y210250D03*
X210250Y200250D03*
X220250Y230250D03*
X230250Y220250D03*
X240250Y210250D03*
X250250Y200250D03*
X420250Y230250D03*
X430250Y220250D03*
X440250Y210250D03*
X450250Y200250D03*
X460250Y230250D03*
X470250Y220250D03*
X480250Y210250D03*
X490250Y200250D03*
X0Y0D02*
M02*
