G04 DesignSpark PCB Gerber Version 12.0 Build 5941*
G04 #@! TF.Part,Single*
%FSLAX35Y35*%
%MOIN*%
%ADD19C,0.00500*%
G04 #@! TD.AperFunction*
X0Y0D02*
D02*
D19*
X20250Y30250D02*
G75*
G03*
X30250Y20250I5000J-5000D01*
G01*
G75*
G03*
X20250Y30250I-5000J5000D01*
G01*
X40250Y90250D02*
Y100250D01*
X60250D01*
Y90250D01*
X40250D01*
Y110250D02*
Y120250D01*
X60250D01*
Y110250D01*
X40250D01*
Y150250D02*
Y160250D01*
X60250D01*
Y150250D01*
X40250D01*
X90250Y270250D02*
G75*
G03*
X100250Y260250I5000J-5000D01*
G01*
G75*
G03*
X90250Y270250I-5000J5000D01*
G01*
X100250Y90250D02*
Y100250D01*
X120250D01*
Y90250D01*
X100250D01*
Y110250D02*
Y120250D01*
X120250D01*
Y110250D01*
X100250D01*
Y150250D02*
Y160250D01*
X120250D01*
Y150250D01*
X100250D01*
X110565Y190250D02*
G75*
G03*
X130250I9843J0D01*
G01*
G75*
G03*
X110565I-9843J0D01*
G01*
X160250Y90250D02*
Y100250D01*
X180250D01*
Y90250D01*
X160250D01*
Y110250D02*
Y120250D01*
X180250D01*
Y110250D01*
X160250D01*
Y150250D02*
Y160250D01*
X180250D01*
Y150250D01*
X160250D01*
X220250Y90250D02*
Y100250D01*
X240250D01*
Y90250D01*
X220250D01*
Y110250D02*
Y120250D01*
X240250D01*
Y110250D01*
X220250D01*
Y150250D02*
Y160250D01*
X240250D01*
Y150250D01*
X220250D01*
X280250Y90250D02*
Y100250D01*
X300250D01*
Y90250D01*
X280250D01*
Y110250D02*
Y120250D01*
X300250D01*
Y110250D01*
X280250D01*
Y150250D02*
Y160250D01*
X300250D01*
Y150250D01*
X280250D01*
X340250Y90250D02*
Y100250D01*
X360250D01*
Y90250D01*
X340250D01*
Y110250D02*
Y120250D01*
X360250D01*
Y110250D01*
X340250D01*
Y150250D02*
Y160250D01*
X360250D01*
Y150250D01*
X340250D01*
X350250Y190250D02*
G75*
G03*
X369935I9843J0D01*
G01*
G75*
G03*
X350250I-9843J0D01*
G01*
X390250Y300250D02*
G75*
G03*
X400250Y290250I5000J-5000D01*
G01*
G75*
G03*
X390250Y300250I-5000J5000D01*
G01*
X400250Y90250D02*
Y100250D01*
X420250D01*
Y90250D01*
X400250D01*
Y110250D02*
Y120250D01*
X420250D01*
Y110250D01*
X400250D01*
Y150250D02*
Y160250D01*
X420250D01*
Y150250D01*
X400250D01*
X460250Y90250D02*
Y100250D01*
X480250D01*
Y90250D01*
X460250D01*
Y110250D02*
Y120250D01*
X480250D01*
Y110250D01*
X460250D01*
Y150250D02*
Y160250D01*
X480250D01*
Y150250D01*
X460250D01*
X530250Y120250D02*
X540250D01*
Y100250D01*
X530250D01*
Y120250D01*
Y150250D02*
X540250D01*
Y130250D01*
X530250D01*
Y150250D01*
X550250Y120250D02*
X560250D01*
Y100250D01*
X550250D01*
Y120250D01*
Y150250D02*
X560250D01*
Y130250D01*
X550250D01*
Y150250D01*
X590250Y120250D02*
X600250D01*
Y100250D01*
X590250D01*
Y120250D01*
Y150250D02*
X600250D01*
Y130250D01*
X590250D01*
Y150250D01*
X610250Y30250D02*
G75*
G03*
X620250Y20250I5000J-5000D01*
G01*
G75*
G03*
X610250Y30250I-5000J5000D01*
G01*
X640250Y250D02*
Y450250D01*
X250D01*
Y250D01*
X640250D01*
X0Y0D02*
M02*
