G04 DesignSpark PCB Gerber Version 12.0 Build 5941*
G04 #@! TF.Part,Single*
G04 #@! TF.FileFunction,Drillmap*
G04 #@! TF.FilePolarity,Positive*
%FSLAX35Y35*%
%MOIN*%
%ADD19C,0.00500*%
G04 #@! TA.AperFunction,WasherPad*
%ADD18C,0.10000*%
G04 #@! TD.AperFunction*
X0Y0D02*
D02*
D18*
X20250Y270250D03*
Y280250D03*
Y310250D03*
Y320250D03*
Y330250D03*
Y340250D03*
Y390250D03*
Y400250D03*
Y410250D03*
Y420250D03*
X110250Y310250D03*
Y360250D03*
Y380250D03*
Y430250D03*
X140250Y20250D03*
X150250D03*
X160250D03*
X180250D03*
Y60250D03*
Y230250D03*
X190250Y20250D03*
Y220250D03*
X200250Y20250D03*
Y60250D03*
Y210250D03*
X210250Y200250D03*
X220250Y20250D03*
Y230250D03*
X230250Y20250D03*
Y220250D03*
X240250Y20250D03*
Y210250D03*
X250250Y200250D03*
X410250Y240250D03*
Y250250D03*
Y260250D03*
Y270250D03*
X420250Y230250D03*
X430250Y220250D03*
X440250Y210250D03*
X450250Y200250D03*
X460250Y230250D03*
Y240250D03*
Y250250D03*
Y260250D03*
Y270250D03*
X470250Y220250D03*
X480250Y210250D03*
X490250Y200250D03*
Y290250D03*
X500250Y180250D03*
X580250Y310250D03*
Y320250D03*
Y330250D03*
Y340250D03*
Y350250D03*
Y380250D03*
Y390250D03*
Y400250D03*
Y410250D03*
Y420250D03*
X590250Y290250D03*
X600250Y180250D03*
X610250Y320250D03*
Y330250D03*
Y340250D03*
Y350250D03*
Y390250D03*
Y400250D03*
Y410250D03*
Y420250D03*
D02*
D19*
X32437Y278063D02*
X33063Y277750D01*
X33375Y277125D01*
X33063Y276500D01*
X32437Y276187D01*
X30250D01*
Y279937D01*
X32437D01*
X33063Y279625D01*
X33375Y279000D01*
X33063Y278375D01*
X32437Y278063D01*
X30250D01*
X32437Y288063D02*
X33063Y287750D01*
X33375Y287125D01*
X33063Y286500D01*
X32437Y286187D01*
X30250D01*
Y289937D01*
X32437D01*
X33063Y289625D01*
X33375Y289000D01*
X33063Y288375D01*
X32437Y288063D01*
X30250D01*
X32437Y318063D02*
X33063Y317750D01*
X33375Y317125D01*
X33063Y316500D01*
X32437Y316187D01*
X30250D01*
Y319937D01*
X32437D01*
X33063Y319625D01*
X33375Y319000D01*
X33063Y318375D01*
X32437Y318063D01*
X30250D01*
X32437Y328063D02*
X33063Y327750D01*
X33375Y327125D01*
X33063Y326500D01*
X32437Y326187D01*
X30250D01*
Y329937D01*
X32437D01*
X33063Y329625D01*
X33375Y329000D01*
X33063Y328375D01*
X32437Y328063D01*
X30250D01*
X32437Y338063D02*
X33063Y337750D01*
X33375Y337125D01*
X33063Y336500D01*
X32437Y336187D01*
X30250D01*
Y339937D01*
X32437D01*
X33063Y339625D01*
X33375Y339000D01*
X33063Y338375D01*
X32437Y338063D01*
X30250D01*
X32437Y348063D02*
X33063Y347750D01*
X33375Y347125D01*
X33063Y346500D01*
X32437Y346187D01*
X30250D01*
Y349937D01*
X32437D01*
X33063Y349625D01*
X33375Y349000D01*
X33063Y348375D01*
X32437Y348063D01*
X30250D01*
X32437Y398063D02*
X33063Y397750D01*
X33375Y397125D01*
X33063Y396500D01*
X32437Y396187D01*
X30250D01*
Y399937D01*
X32437D01*
X33063Y399625D01*
X33375Y399000D01*
X33063Y398375D01*
X32437Y398063D01*
X30250D01*
X32437Y408063D02*
X33063Y407750D01*
X33375Y407125D01*
X33063Y406500D01*
X32437Y406187D01*
X30250D01*
Y409937D01*
X32437D01*
X33063Y409625D01*
X33375Y409000D01*
X33063Y408375D01*
X32437Y408063D01*
X30250D01*
X32437Y418063D02*
X33063Y417750D01*
X33375Y417125D01*
X33063Y416500D01*
X32437Y416187D01*
X30250D01*
Y419937D01*
X32437D01*
X33063Y419625D01*
X33375Y419000D01*
X33063Y418375D01*
X32437Y418063D01*
X30250D01*
X32437Y428063D02*
X33063Y427750D01*
X33375Y427125D01*
X33063Y426500D01*
X32437Y426187D01*
X30250D01*
Y429937D01*
X32437D01*
X33063Y429625D01*
X33375Y429000D01*
X33063Y428375D01*
X32437Y428063D01*
X30250D01*
X122437Y318063D02*
X123063Y317750D01*
X123375Y317125D01*
X123063Y316500D01*
X122437Y316187D01*
X120250D01*
Y319937D01*
X122437D01*
X123063Y319625D01*
X123375Y319000D01*
X123063Y318375D01*
X122437Y318063D01*
X120250D01*
X122437Y368063D02*
X123063Y367750D01*
X123375Y367125D01*
X123063Y366500D01*
X122437Y366187D01*
X120250D01*
Y369937D01*
X122437D01*
X123063Y369625D01*
X123375Y369000D01*
X123063Y368375D01*
X122437Y368063D01*
X120250D01*
X122437Y388063D02*
X123063Y387750D01*
X123375Y387125D01*
X123063Y386500D01*
X122437Y386187D01*
X120250D01*
Y389937D01*
X122437D01*
X123063Y389625D01*
X123375Y389000D01*
X123063Y388375D01*
X122437Y388063D01*
X120250D01*
X122437Y438063D02*
X123063Y437750D01*
X123375Y437125D01*
X123063Y436500D01*
X122437Y436187D01*
X120250D01*
Y439937D01*
X122437D01*
X123063Y439625D01*
X123375Y439000D01*
X123063Y438375D01*
X122437Y438063D01*
X120250D01*
X152437Y28063D02*
X153063Y27750D01*
X153375Y27125D01*
X153063Y26500D01*
X152437Y26187D01*
X150250D01*
Y29937D01*
X152437D01*
X153063Y29625D01*
X153375Y29000D01*
X153063Y28375D01*
X152437Y28063D01*
X150250D01*
X162437D02*
X163063Y27750D01*
X163375Y27125D01*
X163063Y26500D01*
X162437Y26187D01*
X160250D01*
Y29937D01*
X162437D01*
X163063Y29625D01*
X163375Y29000D01*
X163063Y28375D01*
X162437Y28063D01*
X160250D01*
X172437D02*
X173063Y27750D01*
X173375Y27125D01*
X173063Y26500D01*
X172437Y26187D01*
X170250D01*
Y29937D01*
X172437D01*
X173063Y29625D01*
X173375Y29000D01*
X173063Y28375D01*
X172437Y28063D01*
X170250D01*
X192437D02*
X193063Y27750D01*
X193375Y27125D01*
X193063Y26500D01*
X192437Y26187D01*
X190250D01*
Y29937D01*
X192437D01*
X193063Y29625D01*
X193375Y29000D01*
X193063Y28375D01*
X192437Y28063D01*
X190250D01*
X192437Y68063D02*
X193063Y67750D01*
X193375Y67125D01*
X193063Y66500D01*
X192437Y66187D01*
X190250D01*
Y69937D01*
X192437D01*
X193063Y69625D01*
X193375Y69000D01*
X193063Y68375D01*
X192437Y68063D01*
X190250D01*
Y236187D02*
Y239937D01*
X192125D01*
X192750Y239625D01*
X193063Y239313D01*
X193375Y238687D01*
Y237437D01*
X193063Y236813D01*
X192750Y236500D01*
X192125Y236187D01*
X190250D01*
X202437Y28063D02*
X203063Y27750D01*
X203375Y27125D01*
X203063Y26500D01*
X202437Y26187D01*
X200250D01*
Y29937D01*
X202437D01*
X203063Y29625D01*
X203375Y29000D01*
X203063Y28375D01*
X202437Y28063D01*
X200250D01*
Y226187D02*
Y229937D01*
X202125D01*
X202750Y229625D01*
X203063Y229313D01*
X203375Y228687D01*
Y227437D01*
X203063Y226813D01*
X202750Y226500D01*
X202125Y226187D01*
X200250D01*
X212437Y28063D02*
X213063Y27750D01*
X213375Y27125D01*
X213063Y26500D01*
X212437Y26187D01*
X210250D01*
Y29937D01*
X212437D01*
X213063Y29625D01*
X213375Y29000D01*
X213063Y28375D01*
X212437Y28063D01*
X210250D01*
X212437Y68063D02*
X213063Y67750D01*
X213375Y67125D01*
X213063Y66500D01*
X212437Y66187D01*
X210250D01*
Y69937D01*
X212437D01*
X213063Y69625D01*
X213375Y69000D01*
X213063Y68375D01*
X212437Y68063D01*
X210250D01*
Y216187D02*
Y219937D01*
X212125D01*
X212750Y219625D01*
X213063Y219313D01*
X213375Y218687D01*
Y217437D01*
X213063Y216813D01*
X212750Y216500D01*
X212125Y216187D01*
X210250D01*
X220250Y206187D02*
Y209937D01*
X222125D01*
X222750Y209625D01*
X223063Y209313D01*
X223375Y208687D01*
Y207437D01*
X223063Y206813D01*
X222750Y206500D01*
X222125Y206187D01*
X220250D01*
X232437Y28063D02*
X233063Y27750D01*
X233375Y27125D01*
X233063Y26500D01*
X232437Y26187D01*
X230250D01*
Y29937D01*
X232437D01*
X233063Y29625D01*
X233375Y29000D01*
X233063Y28375D01*
X232437Y28063D01*
X230250D01*
Y236187D02*
Y239937D01*
X232125D01*
X232750Y239625D01*
X233063Y239313D01*
X233375Y238687D01*
Y237437D01*
X233063Y236813D01*
X232750Y236500D01*
X232125Y236187D01*
X230250D01*
X242437Y28063D02*
X243063Y27750D01*
X243375Y27125D01*
X243063Y26500D01*
X242437Y26187D01*
X240250D01*
Y29937D01*
X242437D01*
X243063Y29625D01*
X243375Y29000D01*
X243063Y28375D01*
X242437Y28063D01*
X240250D01*
Y226187D02*
Y229937D01*
X242125D01*
X242750Y229625D01*
X243063Y229313D01*
X243375Y228687D01*
Y227437D01*
X243063Y226813D01*
X242750Y226500D01*
X242125Y226187D01*
X240250D01*
X252437Y28063D02*
X253063Y27750D01*
X253375Y27125D01*
X253063Y26500D01*
X252437Y26187D01*
X250250D01*
Y29937D01*
X252437D01*
X253063Y29625D01*
X253375Y29000D01*
X253063Y28375D01*
X252437Y28063D01*
X250250D01*
Y216187D02*
Y219937D01*
X252125D01*
X252750Y219625D01*
X253063Y219313D01*
X253375Y218687D01*
Y217437D01*
X253063Y216813D01*
X252750Y216500D01*
X252125Y216187D01*
X250250D01*
X260250Y206187D02*
Y209937D01*
X262125D01*
X262750Y209625D01*
X263063Y209313D01*
X263375Y208687D01*
Y207437D01*
X263063Y206813D01*
X262750Y206500D01*
X262125Y206187D01*
X260250D01*
X422437Y248063D02*
X423063Y247750D01*
X423375Y247125D01*
X423063Y246500D01*
X422437Y246187D01*
X420250D01*
Y249937D01*
X422437D01*
X423063Y249625D01*
X423375Y249000D01*
X423063Y248375D01*
X422437Y248063D01*
X420250D01*
X422437Y258063D02*
X423063Y257750D01*
X423375Y257125D01*
X423063Y256500D01*
X422437Y256187D01*
X420250D01*
Y259937D01*
X422437D01*
X423063Y259625D01*
X423375Y259000D01*
X423063Y258375D01*
X422437Y258063D01*
X420250D01*
X422437Y268063D02*
X423063Y267750D01*
X423375Y267125D01*
X423063Y266500D01*
X422437Y266187D01*
X420250D01*
Y269937D01*
X422437D01*
X423063Y269625D01*
X423375Y269000D01*
X423063Y268375D01*
X422437Y268063D01*
X420250D01*
X422437Y278063D02*
X423063Y277750D01*
X423375Y277125D01*
X423063Y276500D01*
X422437Y276187D01*
X420250D01*
Y279937D01*
X422437D01*
X423063Y279625D01*
X423375Y279000D01*
X423063Y278375D01*
X422437Y278063D01*
X420250D01*
X430250Y236187D02*
Y239937D01*
X432125D01*
X432750Y239625D01*
X433063Y239313D01*
X433375Y238687D01*
Y237437D01*
X433063Y236813D01*
X432750Y236500D01*
X432125Y236187D01*
X430250D01*
X440250Y226187D02*
Y229937D01*
X442125D01*
X442750Y229625D01*
X443063Y229313D01*
X443375Y228687D01*
Y227437D01*
X443063Y226813D01*
X442750Y226500D01*
X442125Y226187D01*
X440250D01*
X450250Y216187D02*
Y219937D01*
X452125D01*
X452750Y219625D01*
X453063Y219313D01*
X453375Y218687D01*
Y217437D01*
X453063Y216813D01*
X452750Y216500D01*
X452125Y216187D01*
X450250D01*
X460250Y206187D02*
Y209937D01*
X462125D01*
X462750Y209625D01*
X463063Y209313D01*
X463375Y208687D01*
Y207437D01*
X463063Y206813D01*
X462750Y206500D01*
X462125Y206187D01*
X460250D01*
X470250Y236187D02*
Y239937D01*
X472125D01*
X472750Y239625D01*
X473063Y239313D01*
X473375Y238687D01*
Y237437D01*
X473063Y236813D01*
X472750Y236500D01*
X472125Y236187D01*
X470250D01*
X472437Y248063D02*
X473063Y247750D01*
X473375Y247125D01*
X473063Y246500D01*
X472437Y246187D01*
X470250D01*
Y249937D01*
X472437D01*
X473063Y249625D01*
X473375Y249000D01*
X473063Y248375D01*
X472437Y248063D01*
X470250D01*
X472437Y258063D02*
X473063Y257750D01*
X473375Y257125D01*
X473063Y256500D01*
X472437Y256187D01*
X470250D01*
Y259937D01*
X472437D01*
X473063Y259625D01*
X473375Y259000D01*
X473063Y258375D01*
X472437Y258063D01*
X470250D01*
X472437Y268063D02*
X473063Y267750D01*
X473375Y267125D01*
X473063Y266500D01*
X472437Y266187D01*
X470250D01*
Y269937D01*
X472437D01*
X473063Y269625D01*
X473375Y269000D01*
X473063Y268375D01*
X472437Y268063D01*
X470250D01*
X472437Y278063D02*
X473063Y277750D01*
X473375Y277125D01*
X473063Y276500D01*
X472437Y276187D01*
X470250D01*
Y279937D01*
X472437D01*
X473063Y279625D01*
X473375Y279000D01*
X473063Y278375D01*
X472437Y278063D01*
X470250D01*
X480250Y226187D02*
Y229937D01*
X482125D01*
X482750Y229625D01*
X483063Y229313D01*
X483375Y228687D01*
Y227437D01*
X483063Y226813D01*
X482750Y226500D01*
X482125Y226187D01*
X480250D01*
X490250Y216187D02*
Y219937D01*
X492125D01*
X492750Y219625D01*
X493063Y219313D01*
X493375Y218687D01*
Y217437D01*
X493063Y216813D01*
X492750Y216500D01*
X492125Y216187D01*
X490250D01*
X500250Y206187D02*
Y209937D01*
X502125D01*
X502750Y209625D01*
X503063Y209313D01*
X503375Y208687D01*
Y207437D01*
X503063Y206813D01*
X502750Y206500D01*
X502125Y206187D01*
X500250D01*
X502437Y298063D02*
X503063Y297750D01*
X503375Y297125D01*
X503063Y296500D01*
X502437Y296187D01*
X500250D01*
Y299937D01*
X502437D01*
X503063Y299625D01*
X503375Y299000D01*
X503063Y298375D01*
X502437Y298063D01*
X500250D01*
X512437Y188063D02*
X513063Y187750D01*
X513375Y187125D01*
X513063Y186500D01*
X512437Y186187D01*
X510250D01*
Y189937D01*
X512437D01*
X513063Y189625D01*
X513375Y189000D01*
X513063Y188375D01*
X512437Y188063D01*
X510250D01*
X592437Y318063D02*
X593063Y317750D01*
X593375Y317125D01*
X593063Y316500D01*
X592437Y316187D01*
X590250D01*
Y319937D01*
X592437D01*
X593063Y319625D01*
X593375Y319000D01*
X593063Y318375D01*
X592437Y318063D01*
X590250D01*
X592437Y328063D02*
X593063Y327750D01*
X593375Y327125D01*
X593063Y326500D01*
X592437Y326187D01*
X590250D01*
Y329937D01*
X592437D01*
X593063Y329625D01*
X593375Y329000D01*
X593063Y328375D01*
X592437Y328063D01*
X590250D01*
X592437Y338063D02*
X593063Y337750D01*
X593375Y337125D01*
X593063Y336500D01*
X592437Y336187D01*
X590250D01*
Y339937D01*
X592437D01*
X593063Y339625D01*
X593375Y339000D01*
X593063Y338375D01*
X592437Y338063D01*
X590250D01*
X592437Y348063D02*
X593063Y347750D01*
X593375Y347125D01*
X593063Y346500D01*
X592437Y346187D01*
X590250D01*
Y349937D01*
X592437D01*
X593063Y349625D01*
X593375Y349000D01*
X593063Y348375D01*
X592437Y348063D01*
X590250D01*
X592437Y358063D02*
X593063Y357750D01*
X593375Y357125D01*
X593063Y356500D01*
X592437Y356187D01*
X590250D01*
Y359937D01*
X592437D01*
X593063Y359625D01*
X593375Y359000D01*
X593063Y358375D01*
X592437Y358063D01*
X590250D01*
X592437Y388063D02*
X593063Y387750D01*
X593375Y387125D01*
X593063Y386500D01*
X592437Y386187D01*
X590250D01*
Y389937D01*
X592437D01*
X593063Y389625D01*
X593375Y389000D01*
X593063Y388375D01*
X592437Y388063D01*
X590250D01*
X592437Y398063D02*
X593063Y397750D01*
X593375Y397125D01*
X593063Y396500D01*
X592437Y396187D01*
X590250D01*
Y399937D01*
X592437D01*
X593063Y399625D01*
X593375Y399000D01*
X593063Y398375D01*
X592437Y398063D01*
X590250D01*
X592437Y408063D02*
X593063Y407750D01*
X593375Y407125D01*
X593063Y406500D01*
X592437Y406187D01*
X590250D01*
Y409937D01*
X592437D01*
X593063Y409625D01*
X593375Y409000D01*
X593063Y408375D01*
X592437Y408063D01*
X590250D01*
X592437Y418063D02*
X593063Y417750D01*
X593375Y417125D01*
X593063Y416500D01*
X592437Y416187D01*
X590250D01*
Y419937D01*
X592437D01*
X593063Y419625D01*
X593375Y419000D01*
X593063Y418375D01*
X592437Y418063D01*
X590250D01*
X592437Y428063D02*
X593063Y427750D01*
X593375Y427125D01*
X593063Y426500D01*
X592437Y426187D01*
X590250D01*
Y429937D01*
X592437D01*
X593063Y429625D01*
X593375Y429000D01*
X593063Y428375D01*
X592437Y428063D01*
X590250D01*
X602437Y298063D02*
X603063Y297750D01*
X603375Y297125D01*
X603063Y296500D01*
X602437Y296187D01*
X600250D01*
Y299937D01*
X602437D01*
X603063Y299625D01*
X603375Y299000D01*
X603063Y298375D01*
X602437Y298063D01*
X600250D01*
X612437Y188063D02*
X613063Y187750D01*
X613375Y187125D01*
X613063Y186500D01*
X612437Y186187D01*
X610250D01*
Y189937D01*
X612437D01*
X613063Y189625D01*
X613375Y189000D01*
X613063Y188375D01*
X612437Y188063D01*
X610250D01*
X622437Y328063D02*
X623063Y327750D01*
X623375Y327125D01*
X623063Y326500D01*
X622437Y326187D01*
X620250D01*
Y329937D01*
X622437D01*
X623063Y329625D01*
X623375Y329000D01*
X623063Y328375D01*
X622437Y328063D01*
X620250D01*
X622437Y338063D02*
X623063Y337750D01*
X623375Y337125D01*
X623063Y336500D01*
X622437Y336187D01*
X620250D01*
Y339937D01*
X622437D01*
X623063Y339625D01*
X623375Y339000D01*
X623063Y338375D01*
X622437Y338063D01*
X620250D01*
X622437Y348063D02*
X623063Y347750D01*
X623375Y347125D01*
X623063Y346500D01*
X622437Y346187D01*
X620250D01*
Y349937D01*
X622437D01*
X623063Y349625D01*
X623375Y349000D01*
X623063Y348375D01*
X622437Y348063D01*
X620250D01*
X622437Y358063D02*
X623063Y357750D01*
X623375Y357125D01*
X623063Y356500D01*
X622437Y356187D01*
X620250D01*
Y359937D01*
X622437D01*
X623063Y359625D01*
X623375Y359000D01*
X623063Y358375D01*
X622437Y358063D01*
X620250D01*
X622437Y398063D02*
X623063Y397750D01*
X623375Y397125D01*
X623063Y396500D01*
X622437Y396187D01*
X620250D01*
Y399937D01*
X622437D01*
X623063Y399625D01*
X623375Y399000D01*
X623063Y398375D01*
X622437Y398063D01*
X620250D01*
X622437Y408063D02*
X623063Y407750D01*
X623375Y407125D01*
X623063Y406500D01*
X622437Y406187D01*
X620250D01*
Y409937D01*
X622437D01*
X623063Y409625D01*
X623375Y409000D01*
X623063Y408375D01*
X622437Y408063D01*
X620250D01*
X622437Y418063D02*
X623063Y417750D01*
X623375Y417125D01*
X623063Y416500D01*
X622437Y416187D01*
X620250D01*
Y419937D01*
X622437D01*
X623063Y419625D01*
X623375Y419000D01*
X623063Y418375D01*
X622437Y418063D01*
X620250D01*
X622437Y428063D02*
X623063Y427750D01*
X623375Y427125D01*
X623063Y426500D01*
X622437Y426187D01*
X620250D01*
Y429937D01*
X622437D01*
X623063Y429625D01*
X623375Y429000D01*
X623063Y428375D01*
X622437Y428063D01*
X620250D01*
X0Y0D02*
M02*
