G04 DesignSpark PCB Gerber Version 12.0 Build 5941*
G04 #@! TF.Part,Single*
G04 #@! TF.FileFunction,Copper,L2,Bot*
G04 #@! TF.FilePolarity,Positive*
%FSLAX35Y35*%
%MOIN*%
%ADD10C,0.03937*%
G04 #@! TA.AperFunction,WasherPad*
%ADD13C,0.06000*%
%ADD11C,0.06890*%
%ADD12C,0.07087*%
G04 #@! TD.AperFunction*
X0Y0D02*
D02*
D10*
X20250Y80250D02*
X70250D01*
X20250Y100250D02*
X70250D01*
X20250Y120250D02*
X70250D01*
X20250Y140250D02*
X70250D01*
X20250Y160250D02*
X70250D01*
X20250Y180250D02*
X70250D01*
X20250Y200250D02*
X70250D01*
X30250Y320250D02*
X20250Y330250D01*
X30250Y320250D02*
X20250D01*
X30250Y330250D02*
X20250Y320250D01*
X30250Y330250D02*
X20250D01*
X30250Y340250D02*
X20250Y350250D01*
X30250Y340250D02*
X20250D01*
X30250Y350250D02*
X20250Y340250D01*
X30250Y350250D02*
X20250D01*
X40250Y320250D02*
X30250Y330250D01*
X40250Y320250D02*
X30250D01*
X40250Y330250D02*
X30250Y320250D01*
X40250Y330250D02*
X30250D01*
X40250Y340250D02*
X30250Y350250D01*
X40250Y340250D02*
X30250D01*
X40250Y350250D02*
X30250Y340250D01*
X40250Y350250D02*
X30250D01*
X50250Y320250D02*
X40250Y330250D01*
X50250Y320250D02*
X60250Y330250D01*
X50250Y320250D02*
X40250D01*
X50250Y330250D02*
X40250Y320250D01*
X50250Y330250D02*
X40250D01*
X50250Y340250D02*
X40250Y350250D01*
X50250Y340250D02*
X60250Y350250D01*
X50250Y340250D02*
X40250D01*
X50250Y350250D02*
X40250Y340250D01*
X50250Y350250D02*
X40250D01*
X60250Y320250D02*
X50250Y330250D01*
X60250Y320250D02*
X50250D01*
X60250Y330250D02*
X50250D01*
X60250Y340250D02*
X50250Y350250D01*
X60250Y340250D02*
X50250D01*
X60250Y350250D02*
X50250D01*
X70250Y70250D02*
X20250D01*
X70250Y90250D02*
X20250D01*
X70250Y110250D02*
X20250D01*
X70250Y130250D02*
X20250D01*
X70250Y150250D02*
X20250D01*
X70250Y170250D02*
X20250D01*
X70250Y190250D02*
X20250D01*
X70250Y320250D02*
X60250Y330250D01*
X70250Y320250D02*
X60250D01*
X70250Y330250D02*
X60250Y320250D01*
X70250Y330250D02*
X60250D01*
X70250Y340250D02*
X60250Y350250D01*
X70250Y340250D02*
X60250D01*
X70250Y350250D02*
X60250Y340250D01*
X70250Y350250D02*
X60250D01*
X70250Y360250D02*
X20250D01*
X120250Y50250D02*
X130250Y60250D01*
X120250Y50250D02*
X130250D01*
X120250Y70250D02*
X130250Y80250D01*
X120250Y70250D02*
X130250D01*
X120250Y230250D02*
X170250D01*
X120250Y240250D02*
X170250D01*
X120250Y250250D02*
X170250D01*
X120250Y260250D02*
X170250D01*
X120250Y270250D02*
X170250D01*
X120250Y280250D02*
X170250D01*
X120250Y290250D02*
X170250D01*
X120250Y300250D02*
X170250D01*
X120250Y310250D02*
X170250D01*
X120250Y320250D02*
X170250D01*
X120250Y330250D02*
X170250D01*
X120250Y340250D02*
X170250D01*
X120250Y350250D02*
X170250D01*
X120250Y360250D02*
X170250D01*
X130250Y50250D02*
X120250Y60250D01*
X130250Y50250D02*
X140250D01*
X130250Y60250D02*
X140250Y50250D01*
X130250Y60250D02*
X120250D01*
X130250Y70250D02*
X120250Y80250D01*
X130250Y70250D02*
X140250D01*
X130250Y80250D02*
X140250Y70250D01*
X130250Y80250D02*
X120250D01*
X140250Y50250D02*
X150250Y60250D01*
X140250Y50250D02*
X150250D01*
X140250Y60250D02*
X130250Y50250D01*
X140250Y60250D02*
X130250D01*
X140250Y70250D02*
X150250Y80250D01*
X140250Y70250D02*
X150250D01*
X140250Y80250D02*
X130250Y70250D01*
X140250Y80250D02*
X130250D01*
X150250Y50250D02*
X140250Y60250D01*
X150250Y50250D02*
X160250D01*
X150250Y60250D02*
X160250Y50250D01*
X150250Y60250D02*
X140250D01*
X150250Y70250D02*
X140250Y80250D01*
X150250Y70250D02*
X160250D01*
X150250Y80250D02*
X160250Y70250D01*
X150250Y80250D02*
X140250D01*
X160250Y50250D02*
X170250Y60250D01*
X160250Y50250D02*
X170250D01*
X160250Y60250D02*
X150250Y50250D01*
X160250Y60250D02*
X150250D01*
X160250Y70250D02*
X170250Y80250D01*
X160250Y70250D02*
X170250D01*
X160250Y80250D02*
X150250Y70250D01*
X160250Y80250D02*
X150250D01*
X170250Y40250D02*
X120250D01*
X170250Y50250D02*
X160250Y60250D01*
X170250D02*
X160250D01*
X170250Y70250D02*
X160250Y80250D01*
X170250D02*
X160250D01*
X220250Y20250D02*
X270250D01*
X220250Y30250D02*
X230250Y40250D01*
X220250Y30250D02*
X230250D01*
X220250Y40250D02*
X230250Y30250D01*
X220250Y40250D02*
X230250D01*
X220250Y50250D02*
X230250Y60250D01*
X220250Y50250D02*
X230250D01*
X220250Y60250D02*
X230250Y50250D01*
X220250Y60250D02*
X230250D01*
X220250Y120250D02*
X270250D01*
X220250Y260250D02*
X270250D01*
X220250Y280250D02*
X270250D01*
X220250Y300250D02*
X270250D01*
X220250Y320250D02*
X270250D01*
X220250Y340250D02*
X270250D01*
X220250Y360250D02*
X270250D01*
X230250Y30250D02*
X240250D01*
X230250Y40250D02*
X240250Y30250D01*
X230250Y40250D02*
X240250D01*
X230250Y50250D02*
X240250D01*
X230250Y60250D02*
X240250Y50250D01*
X230250Y60250D02*
X240250D01*
Y30250D02*
X250250Y40250D01*
X240250Y30250D02*
X250250D01*
X240250Y40250D02*
X250250Y30250D01*
X240250Y40250D02*
X230250Y30250D01*
X240250Y40250D02*
X250250D01*
X240250Y50250D02*
X250250Y60250D01*
X240250Y50250D02*
X250250D01*
X240250Y60250D02*
X250250Y50250D01*
X240250Y60250D02*
X230250Y50250D01*
X240250Y60250D02*
X250250D01*
Y30250D02*
X260250Y40250D01*
X250250Y30250D02*
X260250D01*
X250250Y40250D02*
X260250Y30250D01*
X250250Y40250D02*
X260250D01*
X250250Y50250D02*
X260250Y60250D01*
X250250Y50250D02*
X260250D01*
X250250Y60250D02*
X260250Y50250D01*
X250250Y60250D02*
X260250D01*
Y30250D02*
X270250Y40250D01*
X260250Y30250D02*
X270250D01*
X260250Y40250D02*
X270250Y30250D01*
X260250Y40250D02*
X270250D01*
X260250Y50250D02*
X270250Y60250D01*
X260250Y50250D02*
X270250D01*
X260250Y60250D02*
X270250Y50250D01*
X260250Y60250D02*
X270250D01*
Y110250D02*
X220250D01*
X270250Y250250D02*
X220250D01*
X270250Y270250D02*
X220250D01*
X270250Y290250D02*
X220250D01*
X270250Y310250D02*
X220250D01*
X270250Y330250D02*
X220250D01*
X270250Y350250D02*
X220250D01*
X320250Y20250D02*
Y70250D01*
Y170250D02*
Y120250D01*
Y310015D02*
Y360250D01*
X330250Y70250D02*
Y20250D01*
Y120250D02*
Y170250D01*
Y360250D02*
Y310015D01*
X331352Y219305D02*
Y249148D01*
X330250Y250250D01*
X340250Y20250D02*
Y70250D01*
Y170250D02*
Y120250D01*
Y250250D02*
G75*
G03*
X330250Y260250I-10000J0D01*
G01*
G75*
G03*
X320250Y250250I0J-10000D01*
G01*
Y220014D01*
X319541Y219305D01*
X340250Y310015D02*
Y360250D01*
X350250Y70250D02*
Y20250D01*
Y120485D02*
Y170250D01*
Y360250D02*
Y310015D01*
X360250Y20250D02*
Y70250D01*
Y170250D02*
Y120485D01*
Y310250D02*
Y360250D01*
X370250Y70250D02*
Y20250D01*
Y120485D02*
Y170250D01*
Y210250D02*
X352219D01*
G75*
G02*
X343163Y219305I0J9055D01*
G01*
X370250Y260250D02*
X388281D01*
G75*
G02*
X397337Y251195I0J-9055D01*
G01*
X370250Y360250D02*
Y310250D01*
X380250Y20250D02*
Y70250D01*
Y170250D02*
Y120485D01*
Y310250D02*
Y360250D01*
X390250Y70250D02*
Y20250D01*
Y120485D02*
Y170250D01*
Y360250D02*
Y310250D01*
X400250Y20250D02*
Y70250D01*
Y170250D02*
Y120485D01*
Y220250D02*
G75*
G03*
X410250Y210250I10000J0D01*
G01*
G75*
G03*
X420250Y220250I0J10000D01*
G01*
Y250486D01*
X420959Y251195D01*
X400250Y310250D02*
Y360250D01*
X409148Y251195D02*
Y221352D01*
X410250Y220250D01*
Y70250D02*
Y20250D01*
Y120485D02*
Y170250D01*
Y360250D02*
Y310250D01*
X420250Y20250D02*
Y70250D01*
Y170250D02*
Y120485D01*
Y310250D02*
Y360250D01*
X430250D02*
Y310250D01*
X440250D02*
Y360250D01*
X450250D02*
Y310250D01*
X460250D02*
Y360250D01*
X470250D02*
Y310250D01*
X471352Y29305D02*
Y59148D01*
X470250Y60250D01*
X471352Y109305D02*
Y139148D01*
X470250Y140250D01*
X471352Y189305D02*
Y219148D01*
X470250Y220250D01*
X480250Y60250D02*
G75*
G03*
X470250Y70250I-10000J0D01*
G01*
G75*
G03*
X460250Y60250I0J-10000D01*
G01*
Y30014D01*
X459541Y29305D01*
X480250Y140250D02*
G75*
G03*
X470250Y150250I-10000J0D01*
G01*
G75*
G03*
X460250Y140250I0J-10000D01*
G01*
Y110014D01*
X459541Y109305D01*
X480250Y220250D02*
G75*
G03*
X470250Y230250I-10000J0D01*
G01*
G75*
G03*
X460250Y220250I0J-10000D01*
G01*
Y190014D01*
X459541Y189305D01*
X480250Y310250D02*
Y360250D01*
X490250D02*
Y310250D01*
X500250D02*
Y360250D01*
X510250Y20250D02*
X492219D01*
G75*
G02*
X483163Y29305I0J9055D01*
G01*
X510250Y70250D02*
X528281D01*
G75*
G02*
X537337Y61195I0J-9055D01*
G01*
X510250Y100250D02*
X492219D01*
G75*
G02*
X483163Y109305I0J9055D01*
G01*
X510250Y150250D02*
X528281D01*
G75*
G02*
X537337Y141195I0J-9055D01*
G01*
X510250Y180250D02*
X492219D01*
G75*
G02*
X483163Y189305I0J9055D01*
G01*
X510250Y230250D02*
X528281D01*
G75*
G02*
X537337Y221195I0J-9055D01*
G01*
X510250Y360250D02*
Y310250D01*
X520250D02*
Y360250D01*
X530250D02*
Y310250D01*
X540250Y30250D02*
G75*
G03*
X550250Y20250I10000J0D01*
G01*
G75*
G03*
X560250Y30250I0J10000D01*
G01*
Y60486D01*
X560959Y61195D01*
X540250Y110250D02*
G75*
G03*
X550250Y100250I10000J0D01*
G01*
G75*
G03*
X560250Y110250I0J10000D01*
G01*
Y140486D01*
X560959Y141195D01*
X540250Y190250D02*
G75*
G03*
X550250Y180250I10000J0D01*
G01*
G75*
G03*
X560250Y190250I0J10000D01*
G01*
Y220486D01*
X560959Y221195D01*
X540250Y310250D02*
Y360250D01*
X549148Y61195D02*
Y31352D01*
X550250Y30250D01*
X549148Y141195D02*
Y111352D01*
X550250Y110250D01*
X549148Y221195D02*
Y191352D01*
X550250Y190250D01*
Y360250D02*
Y310250D01*
D02*
D11*
X20250Y70250D03*
Y80250D03*
Y90250D03*
Y100250D03*
Y110250D03*
Y120250D03*
Y130250D03*
Y140250D03*
Y150250D03*
Y160250D03*
Y170250D03*
Y180250D03*
Y190250D03*
Y200250D03*
Y320250D03*
Y330250D03*
Y340250D03*
Y350250D03*
Y360250D03*
X70250Y70250D03*
Y80250D03*
Y90250D03*
Y100250D03*
Y110250D03*
Y120250D03*
Y130250D03*
Y140250D03*
Y150250D03*
Y160250D03*
Y170250D03*
Y180250D03*
Y190250D03*
Y200250D03*
Y320250D03*
Y330250D03*
Y340250D03*
Y350250D03*
Y360250D03*
X120250Y40250D03*
Y50250D03*
Y60250D03*
Y70250D03*
Y80250D03*
Y230250D03*
Y240250D03*
Y250250D03*
Y260250D03*
Y270250D03*
Y280250D03*
Y290250D03*
Y300250D03*
Y310250D03*
Y320250D03*
Y330250D03*
Y340250D03*
Y350250D03*
Y360250D03*
X170250Y40250D03*
Y50250D03*
Y60250D03*
Y70250D03*
Y80250D03*
Y230250D03*
Y240250D03*
Y250250D03*
Y260250D03*
Y270250D03*
Y280250D03*
Y290250D03*
Y300250D03*
Y310250D03*
Y320250D03*
Y330250D03*
Y340250D03*
Y350250D03*
Y360250D03*
X220250Y20250D03*
Y30250D03*
Y40250D03*
Y50250D03*
Y60250D03*
Y110250D03*
Y120250D03*
Y250250D03*
Y260250D03*
Y270250D03*
Y280250D03*
Y290250D03*
Y300250D03*
Y310250D03*
Y320250D03*
Y330250D03*
Y340250D03*
Y350250D03*
Y360250D03*
X270250Y20250D03*
Y30250D03*
Y40250D03*
Y50250D03*
Y60250D03*
Y110250D03*
Y120250D03*
Y250250D03*
Y260250D03*
Y270250D03*
Y280250D03*
Y290250D03*
Y300250D03*
Y310250D03*
Y320250D03*
Y330250D03*
Y340250D03*
Y350250D03*
Y360250D03*
X320250Y20250D03*
Y70250D03*
Y120250D03*
Y170250D03*
Y310015D03*
Y360250D03*
X330250Y20250D03*
Y70250D03*
Y120250D03*
Y170250D03*
Y310015D03*
Y360250D03*
X340250Y20250D03*
Y70250D03*
Y120250D03*
Y170250D03*
Y310015D03*
Y360250D03*
X350250Y20250D03*
Y70250D03*
Y120485D03*
Y170250D03*
Y310015D03*
Y360250D03*
X360250Y20250D03*
Y70250D03*
Y120485D03*
Y170250D03*
Y310250D03*
Y360250D03*
X370250Y20250D03*
Y70250D03*
Y120485D03*
Y170250D03*
Y310250D03*
Y360250D03*
X380250Y20250D03*
Y70250D03*
Y120485D03*
Y170250D03*
Y310250D03*
Y360250D03*
X390250Y20250D03*
Y70250D03*
Y120485D03*
Y170250D03*
Y310250D03*
Y360250D03*
X400250Y20250D03*
Y70250D03*
Y120485D03*
Y170250D03*
Y310250D03*
Y360250D03*
X410250Y20250D03*
Y70250D03*
Y120485D03*
Y170250D03*
Y310250D03*
Y360250D03*
X420250Y20250D03*
Y70250D03*
Y120485D03*
Y170250D03*
Y310250D03*
Y360250D03*
X430250Y310250D03*
Y360250D03*
X440250Y310250D03*
Y360250D03*
X450250Y310250D03*
Y360250D03*
X460250Y310250D03*
Y360250D03*
X470250Y310250D03*
Y360250D03*
X480250Y310250D03*
Y360250D03*
X490250Y310250D03*
Y360250D03*
X500250Y310250D03*
Y360250D03*
X510250Y310250D03*
Y360250D03*
X520250Y310250D03*
Y360250D03*
X530250Y310250D03*
Y360250D03*
X540250Y310250D03*
Y360250D03*
X550250Y310250D03*
Y360250D03*
D02*
D12*
X330250Y250250D03*
X340250D03*
X370250Y210250D03*
Y260250D03*
X400250Y220250D03*
X410250D03*
X470250Y60250D03*
Y140250D03*
Y220250D03*
X480250Y60250D03*
Y140250D03*
Y220250D03*
X510250Y20250D03*
Y70250D03*
Y100250D03*
Y150250D03*
Y180250D03*
Y230250D03*
X540250Y30250D03*
Y110250D03*
Y190250D03*
X550250Y30250D03*
Y110250D03*
Y190250D03*
D02*
D13*
X319541Y219305D03*
X331352D03*
X343163D03*
X397337Y251195D03*
X409148D03*
X420959D03*
X459541Y29305D03*
Y109305D03*
Y189305D03*
X471352Y29305D03*
Y109305D03*
Y189305D03*
X483163Y29305D03*
Y109305D03*
Y189305D03*
X537337Y61195D03*
Y141195D03*
Y221195D03*
X549148Y61195D03*
Y141195D03*
Y221195D03*
X560959Y61195D03*
Y141195D03*
Y221195D03*
X0Y0D02*
M02*
