G04 DesignSpark PCB Gerber Version 12.0 Build 5941*
G04 #@! TF.Part,Single*
G04 #@! TF.FilePolarity,Positive*
%FSLAX35Y35*%
%MOIN*%
G04 #@! TA.AperFunction,MechanicalDrill*
%ADD14C,0.03500*%
%ADD15C,0.03543*%
G04 #@! TD.AperFunction*
X0Y0D02*
D02*
D14*
X20250Y70250D03*
Y80250D03*
Y90250D03*
Y100250D03*
Y110250D03*
Y120250D03*
Y130250D03*
Y140250D03*
Y150250D03*
Y160250D03*
Y170250D03*
Y180250D03*
Y190250D03*
Y200250D03*
Y320250D03*
Y330250D03*
Y340250D03*
Y350250D03*
Y360250D03*
X70250Y70250D03*
Y80250D03*
Y90250D03*
Y100250D03*
Y110250D03*
Y120250D03*
Y130250D03*
Y140250D03*
Y150250D03*
Y160250D03*
Y170250D03*
Y180250D03*
Y190250D03*
Y200250D03*
Y320250D03*
Y330250D03*
Y340250D03*
Y350250D03*
Y360250D03*
X120250Y40250D03*
Y50250D03*
Y60250D03*
Y70250D03*
Y80250D03*
Y230250D03*
Y240250D03*
Y250250D03*
Y260250D03*
Y270250D03*
Y280250D03*
Y290250D03*
Y300250D03*
Y310250D03*
Y320250D03*
Y330250D03*
Y340250D03*
Y350250D03*
Y360250D03*
X170250Y40250D03*
Y50250D03*
Y60250D03*
Y70250D03*
Y80250D03*
Y230250D03*
Y240250D03*
Y250250D03*
Y260250D03*
Y270250D03*
Y280250D03*
Y290250D03*
Y300250D03*
Y310250D03*
Y320250D03*
Y330250D03*
Y340250D03*
Y350250D03*
Y360250D03*
X220250Y20250D03*
Y30250D03*
Y40250D03*
Y50250D03*
Y60250D03*
Y110250D03*
Y120250D03*
Y250250D03*
Y260250D03*
Y270250D03*
Y280250D03*
Y290250D03*
Y300250D03*
Y310250D03*
Y320250D03*
Y330250D03*
Y340250D03*
Y350250D03*
Y360250D03*
X270250Y20250D03*
Y30250D03*
Y40250D03*
Y50250D03*
Y60250D03*
Y110250D03*
Y120250D03*
Y250250D03*
Y260250D03*
Y270250D03*
Y280250D03*
Y290250D03*
Y300250D03*
Y310250D03*
Y320250D03*
Y330250D03*
Y340250D03*
Y350250D03*
Y360250D03*
X320250Y20250D03*
Y70250D03*
Y120250D03*
Y170250D03*
Y310015D03*
Y360250D03*
X330250Y20250D03*
Y70250D03*
Y120250D03*
Y170250D03*
Y250250D03*
Y310015D03*
Y360250D03*
X340250Y20250D03*
Y70250D03*
Y120250D03*
Y170250D03*
Y250250D03*
Y310015D03*
Y360250D03*
X350250Y20250D03*
Y70250D03*
Y120485D03*
Y170250D03*
Y310015D03*
Y360250D03*
X360250Y20250D03*
Y70250D03*
Y120485D03*
Y170250D03*
Y310250D03*
Y360250D03*
X370250Y20250D03*
Y70250D03*
Y120485D03*
Y170250D03*
Y210250D03*
Y260250D03*
Y310250D03*
Y360250D03*
X380250Y20250D03*
Y70250D03*
Y120485D03*
Y170250D03*
Y310250D03*
Y360250D03*
X390250Y20250D03*
Y70250D03*
Y120485D03*
Y170250D03*
Y310250D03*
Y360250D03*
X400250Y20250D03*
Y70250D03*
Y120485D03*
Y170250D03*
Y220250D03*
Y310250D03*
Y360250D03*
X410250Y20250D03*
Y70250D03*
Y120485D03*
Y170250D03*
Y220250D03*
Y310250D03*
Y360250D03*
X420250Y20250D03*
Y70250D03*
Y120485D03*
Y170250D03*
Y310250D03*
Y360250D03*
X430250Y310250D03*
Y360250D03*
X440250Y310250D03*
Y360250D03*
X450250Y310250D03*
Y360250D03*
X460250Y310250D03*
Y360250D03*
X470250Y60250D03*
Y140250D03*
Y220250D03*
Y310250D03*
Y360250D03*
X480250Y60250D03*
Y140250D03*
Y220250D03*
Y310250D03*
Y360250D03*
X490250Y310250D03*
Y360250D03*
X500250Y310250D03*
Y360250D03*
X510250Y20250D03*
Y70250D03*
Y100250D03*
Y150250D03*
Y180250D03*
Y230250D03*
Y310250D03*
Y360250D03*
X520250Y310250D03*
Y360250D03*
X530250Y310250D03*
Y360250D03*
X540250Y30250D03*
Y110250D03*
Y190250D03*
Y310250D03*
Y360250D03*
X550250Y30250D03*
Y110250D03*
Y190250D03*
Y310250D03*
Y360250D03*
D02*
D15*
X319541Y219305D03*
X331352D03*
X343163D03*
X397337Y251195D03*
X409148D03*
X420959D03*
X459541Y29305D03*
Y109305D03*
Y189305D03*
X471352Y29305D03*
Y109305D03*
Y189305D03*
X483163Y29305D03*
Y109305D03*
Y189305D03*
X537337Y61195D03*
Y141195D03*
Y221195D03*
X549148Y61195D03*
Y141195D03*
Y221195D03*
X560959Y61195D03*
Y141195D03*
Y221195D03*
X0Y0D02*
M02*
