G04 DesignSpark PCB Gerber Version 12.0 Build 5941*
G04 #@! TF.Part,Single*
G04 #@! TF.FileFunction,Drillmap*
G04 #@! TF.FilePolarity,Positive*
%FSLAX35Y35*%
%MOIN*%
%ADD17C,0.00500*%
G04 #@! TA.AperFunction,WasherPad*
%ADD16C,0.10000*%
G04 #@! TD.AperFunction*
X0Y0D02*
D02*
D16*
X20250Y70250D03*
Y80250D03*
Y90250D03*
Y100250D03*
Y110250D03*
Y120250D03*
Y130250D03*
Y140250D03*
Y150250D03*
Y160250D03*
Y170250D03*
Y180250D03*
Y190250D03*
Y200250D03*
Y320250D03*
Y330250D03*
Y340250D03*
Y350250D03*
Y360250D03*
X70250Y70250D03*
Y80250D03*
Y90250D03*
Y100250D03*
Y110250D03*
Y120250D03*
Y130250D03*
Y140250D03*
Y150250D03*
Y160250D03*
Y170250D03*
Y180250D03*
Y190250D03*
Y200250D03*
Y320250D03*
Y330250D03*
Y340250D03*
Y350250D03*
Y360250D03*
X120250Y40250D03*
Y50250D03*
Y60250D03*
Y70250D03*
Y80250D03*
Y230250D03*
Y240250D03*
Y250250D03*
Y260250D03*
Y270250D03*
Y280250D03*
Y290250D03*
Y300250D03*
Y310250D03*
Y320250D03*
Y330250D03*
Y340250D03*
Y350250D03*
Y360250D03*
X170250Y40250D03*
Y50250D03*
Y60250D03*
Y70250D03*
Y80250D03*
Y230250D03*
Y240250D03*
Y250250D03*
Y260250D03*
Y270250D03*
Y280250D03*
Y290250D03*
Y300250D03*
Y310250D03*
Y320250D03*
Y330250D03*
Y340250D03*
Y350250D03*
Y360250D03*
X220250Y20250D03*
Y30250D03*
Y40250D03*
Y50250D03*
Y60250D03*
Y110250D03*
Y120250D03*
Y250250D03*
Y260250D03*
Y270250D03*
Y280250D03*
Y290250D03*
Y300250D03*
Y310250D03*
Y320250D03*
Y330250D03*
Y340250D03*
Y350250D03*
Y360250D03*
X270250Y20250D03*
Y30250D03*
Y40250D03*
Y50250D03*
Y60250D03*
Y110250D03*
Y120250D03*
Y250250D03*
Y260250D03*
Y270250D03*
Y280250D03*
Y290250D03*
Y300250D03*
Y310250D03*
Y320250D03*
Y330250D03*
Y340250D03*
Y350250D03*
Y360250D03*
X319541Y219305D03*
X320250Y20250D03*
Y70250D03*
Y120250D03*
Y170250D03*
Y310015D03*
Y360250D03*
X330250Y20250D03*
Y70250D03*
Y120250D03*
Y170250D03*
Y250250D03*
Y310015D03*
Y360250D03*
X331352Y219305D03*
X340250Y20250D03*
Y70250D03*
Y120250D03*
Y170250D03*
Y250250D03*
Y310015D03*
Y360250D03*
X343163Y219305D03*
X350250Y20250D03*
Y70250D03*
Y120485D03*
Y170250D03*
Y310015D03*
Y360250D03*
X360250Y20250D03*
Y70250D03*
Y120485D03*
Y170250D03*
Y310250D03*
Y360250D03*
X370250Y20250D03*
Y70250D03*
Y120485D03*
Y170250D03*
Y210250D03*
Y260250D03*
Y310250D03*
Y360250D03*
X380250Y20250D03*
Y70250D03*
Y120485D03*
Y170250D03*
Y310250D03*
Y360250D03*
X390250Y20250D03*
Y70250D03*
Y120485D03*
Y170250D03*
Y310250D03*
Y360250D03*
X397337Y251195D03*
X400250Y20250D03*
Y70250D03*
Y120485D03*
Y170250D03*
Y220250D03*
Y310250D03*
Y360250D03*
X409148Y251195D03*
X410250Y20250D03*
Y70250D03*
Y120485D03*
Y170250D03*
Y220250D03*
Y310250D03*
Y360250D03*
X420250Y20250D03*
Y70250D03*
Y120485D03*
Y170250D03*
Y310250D03*
Y360250D03*
X420959Y251195D03*
X430250Y310250D03*
Y360250D03*
X440250Y310250D03*
Y360250D03*
X450250Y310250D03*
Y360250D03*
X459541Y29305D03*
Y109305D03*
Y189305D03*
X460250Y310250D03*
Y360250D03*
X470250Y60250D03*
Y140250D03*
Y220250D03*
Y310250D03*
Y360250D03*
X471352Y29305D03*
Y109305D03*
Y189305D03*
X480250Y60250D03*
Y140250D03*
Y220250D03*
Y310250D03*
Y360250D03*
X483163Y29305D03*
Y109305D03*
Y189305D03*
X490250Y310250D03*
Y360250D03*
X500250Y310250D03*
Y360250D03*
X510250Y20250D03*
Y70250D03*
Y100250D03*
Y150250D03*
Y180250D03*
Y230250D03*
Y310250D03*
Y360250D03*
X520250Y310250D03*
Y360250D03*
X530250Y310250D03*
Y360250D03*
X537337Y61195D03*
Y141195D03*
Y221195D03*
X540250Y30250D03*
Y110250D03*
Y190250D03*
Y310250D03*
Y360250D03*
X549148Y61195D03*
Y141195D03*
Y221195D03*
X550250Y30250D03*
Y110250D03*
Y190250D03*
Y310250D03*
Y360250D03*
X560959Y61195D03*
Y141195D03*
Y221195D03*
D02*
D17*
X32437Y78063D02*
X33063Y77750D01*
X33375Y77125D01*
X33063Y76500D01*
X32437Y76187D01*
X30250D01*
Y79937D01*
X32437D01*
X33063Y79625D01*
X33375Y79000D01*
X33063Y78375D01*
X32437Y78063D01*
X30250D01*
X32437Y88063D02*
X33063Y87750D01*
X33375Y87125D01*
X33063Y86500D01*
X32437Y86187D01*
X30250D01*
Y89937D01*
X32437D01*
X33063Y89625D01*
X33375Y89000D01*
X33063Y88375D01*
X32437Y88063D01*
X30250D01*
X32437Y98063D02*
X33063Y97750D01*
X33375Y97125D01*
X33063Y96500D01*
X32437Y96187D01*
X30250D01*
Y99937D01*
X32437D01*
X33063Y99625D01*
X33375Y99000D01*
X33063Y98375D01*
X32437Y98063D01*
X30250D01*
X32437Y108063D02*
X33063Y107750D01*
X33375Y107125D01*
X33063Y106500D01*
X32437Y106187D01*
X30250D01*
Y109937D01*
X32437D01*
X33063Y109625D01*
X33375Y109000D01*
X33063Y108375D01*
X32437Y108063D01*
X30250D01*
X32437Y118063D02*
X33063Y117750D01*
X33375Y117125D01*
X33063Y116500D01*
X32437Y116187D01*
X30250D01*
Y119937D01*
X32437D01*
X33063Y119625D01*
X33375Y119000D01*
X33063Y118375D01*
X32437Y118063D01*
X30250D01*
X32437Y128063D02*
X33063Y127750D01*
X33375Y127125D01*
X33063Y126500D01*
X32437Y126187D01*
X30250D01*
Y129937D01*
X32437D01*
X33063Y129625D01*
X33375Y129000D01*
X33063Y128375D01*
X32437Y128063D01*
X30250D01*
X32437Y138063D02*
X33063Y137750D01*
X33375Y137125D01*
X33063Y136500D01*
X32437Y136187D01*
X30250D01*
Y139937D01*
X32437D01*
X33063Y139625D01*
X33375Y139000D01*
X33063Y138375D01*
X32437Y138063D01*
X30250D01*
X32437Y148063D02*
X33063Y147750D01*
X33375Y147125D01*
X33063Y146500D01*
X32437Y146187D01*
X30250D01*
Y149937D01*
X32437D01*
X33063Y149625D01*
X33375Y149000D01*
X33063Y148375D01*
X32437Y148063D01*
X30250D01*
X32437Y158063D02*
X33063Y157750D01*
X33375Y157125D01*
X33063Y156500D01*
X32437Y156187D01*
X30250D01*
Y159937D01*
X32437D01*
X33063Y159625D01*
X33375Y159000D01*
X33063Y158375D01*
X32437Y158063D01*
X30250D01*
X32437Y168063D02*
X33063Y167750D01*
X33375Y167125D01*
X33063Y166500D01*
X32437Y166187D01*
X30250D01*
Y169937D01*
X32437D01*
X33063Y169625D01*
X33375Y169000D01*
X33063Y168375D01*
X32437Y168063D01*
X30250D01*
X32437Y178063D02*
X33063Y177750D01*
X33375Y177125D01*
X33063Y176500D01*
X32437Y176187D01*
X30250D01*
Y179937D01*
X32437D01*
X33063Y179625D01*
X33375Y179000D01*
X33063Y178375D01*
X32437Y178063D01*
X30250D01*
X32437Y188063D02*
X33063Y187750D01*
X33375Y187125D01*
X33063Y186500D01*
X32437Y186187D01*
X30250D01*
Y189937D01*
X32437D01*
X33063Y189625D01*
X33375Y189000D01*
X33063Y188375D01*
X32437Y188063D01*
X30250D01*
X32437Y198063D02*
X33063Y197750D01*
X33375Y197125D01*
X33063Y196500D01*
X32437Y196187D01*
X30250D01*
Y199937D01*
X32437D01*
X33063Y199625D01*
X33375Y199000D01*
X33063Y198375D01*
X32437Y198063D01*
X30250D01*
X32437Y208063D02*
X33063Y207750D01*
X33375Y207125D01*
X33063Y206500D01*
X32437Y206187D01*
X30250D01*
Y209937D01*
X32437D01*
X33063Y209625D01*
X33375Y209000D01*
X33063Y208375D01*
X32437Y208063D01*
X30250D01*
X32437Y328063D02*
X33063Y327750D01*
X33375Y327125D01*
X33063Y326500D01*
X32437Y326187D01*
X30250D01*
Y329937D01*
X32437D01*
X33063Y329625D01*
X33375Y329000D01*
X33063Y328375D01*
X32437Y328063D01*
X30250D01*
X32437Y338063D02*
X33063Y337750D01*
X33375Y337125D01*
X33063Y336500D01*
X32437Y336187D01*
X30250D01*
Y339937D01*
X32437D01*
X33063Y339625D01*
X33375Y339000D01*
X33063Y338375D01*
X32437Y338063D01*
X30250D01*
X32437Y348063D02*
X33063Y347750D01*
X33375Y347125D01*
X33063Y346500D01*
X32437Y346187D01*
X30250D01*
Y349937D01*
X32437D01*
X33063Y349625D01*
X33375Y349000D01*
X33063Y348375D01*
X32437Y348063D01*
X30250D01*
X32437Y358063D02*
X33063Y357750D01*
X33375Y357125D01*
X33063Y356500D01*
X32437Y356187D01*
X30250D01*
Y359937D01*
X32437D01*
X33063Y359625D01*
X33375Y359000D01*
X33063Y358375D01*
X32437Y358063D01*
X30250D01*
X32437Y368063D02*
X33063Y367750D01*
X33375Y367125D01*
X33063Y366500D01*
X32437Y366187D01*
X30250D01*
Y369937D01*
X32437D01*
X33063Y369625D01*
X33375Y369000D01*
X33063Y368375D01*
X32437Y368063D01*
X30250D01*
X82437Y78063D02*
X83063Y77750D01*
X83375Y77125D01*
X83063Y76500D01*
X82437Y76187D01*
X80250D01*
Y79937D01*
X82437D01*
X83063Y79625D01*
X83375Y79000D01*
X83063Y78375D01*
X82437Y78063D01*
X80250D01*
X82437Y88063D02*
X83063Y87750D01*
X83375Y87125D01*
X83063Y86500D01*
X82437Y86187D01*
X80250D01*
Y89937D01*
X82437D01*
X83063Y89625D01*
X83375Y89000D01*
X83063Y88375D01*
X82437Y88063D01*
X80250D01*
X82437Y98063D02*
X83063Y97750D01*
X83375Y97125D01*
X83063Y96500D01*
X82437Y96187D01*
X80250D01*
Y99937D01*
X82437D01*
X83063Y99625D01*
X83375Y99000D01*
X83063Y98375D01*
X82437Y98063D01*
X80250D01*
X82437Y108063D02*
X83063Y107750D01*
X83375Y107125D01*
X83063Y106500D01*
X82437Y106187D01*
X80250D01*
Y109937D01*
X82437D01*
X83063Y109625D01*
X83375Y109000D01*
X83063Y108375D01*
X82437Y108063D01*
X80250D01*
X82437Y118063D02*
X83063Y117750D01*
X83375Y117125D01*
X83063Y116500D01*
X82437Y116187D01*
X80250D01*
Y119937D01*
X82437D01*
X83063Y119625D01*
X83375Y119000D01*
X83063Y118375D01*
X82437Y118063D01*
X80250D01*
X82437Y128063D02*
X83063Y127750D01*
X83375Y127125D01*
X83063Y126500D01*
X82437Y126187D01*
X80250D01*
Y129937D01*
X82437D01*
X83063Y129625D01*
X83375Y129000D01*
X83063Y128375D01*
X82437Y128063D01*
X80250D01*
X82437Y138063D02*
X83063Y137750D01*
X83375Y137125D01*
X83063Y136500D01*
X82437Y136187D01*
X80250D01*
Y139937D01*
X82437D01*
X83063Y139625D01*
X83375Y139000D01*
X83063Y138375D01*
X82437Y138063D01*
X80250D01*
X82437Y148063D02*
X83063Y147750D01*
X83375Y147125D01*
X83063Y146500D01*
X82437Y146187D01*
X80250D01*
Y149937D01*
X82437D01*
X83063Y149625D01*
X83375Y149000D01*
X83063Y148375D01*
X82437Y148063D01*
X80250D01*
X82437Y158063D02*
X83063Y157750D01*
X83375Y157125D01*
X83063Y156500D01*
X82437Y156187D01*
X80250D01*
Y159937D01*
X82437D01*
X83063Y159625D01*
X83375Y159000D01*
X83063Y158375D01*
X82437Y158063D01*
X80250D01*
X82437Y168063D02*
X83063Y167750D01*
X83375Y167125D01*
X83063Y166500D01*
X82437Y166187D01*
X80250D01*
Y169937D01*
X82437D01*
X83063Y169625D01*
X83375Y169000D01*
X83063Y168375D01*
X82437Y168063D01*
X80250D01*
X82437Y178063D02*
X83063Y177750D01*
X83375Y177125D01*
X83063Y176500D01*
X82437Y176187D01*
X80250D01*
Y179937D01*
X82437D01*
X83063Y179625D01*
X83375Y179000D01*
X83063Y178375D01*
X82437Y178063D01*
X80250D01*
X82437Y188063D02*
X83063Y187750D01*
X83375Y187125D01*
X83063Y186500D01*
X82437Y186187D01*
X80250D01*
Y189937D01*
X82437D01*
X83063Y189625D01*
X83375Y189000D01*
X83063Y188375D01*
X82437Y188063D01*
X80250D01*
X82437Y198063D02*
X83063Y197750D01*
X83375Y197125D01*
X83063Y196500D01*
X82437Y196187D01*
X80250D01*
Y199937D01*
X82437D01*
X83063Y199625D01*
X83375Y199000D01*
X83063Y198375D01*
X82437Y198063D01*
X80250D01*
X82437Y208063D02*
X83063Y207750D01*
X83375Y207125D01*
X83063Y206500D01*
X82437Y206187D01*
X80250D01*
Y209937D01*
X82437D01*
X83063Y209625D01*
X83375Y209000D01*
X83063Y208375D01*
X82437Y208063D01*
X80250D01*
X82437Y328063D02*
X83063Y327750D01*
X83375Y327125D01*
X83063Y326500D01*
X82437Y326187D01*
X80250D01*
Y329937D01*
X82437D01*
X83063Y329625D01*
X83375Y329000D01*
X83063Y328375D01*
X82437Y328063D01*
X80250D01*
X82437Y338063D02*
X83063Y337750D01*
X83375Y337125D01*
X83063Y336500D01*
X82437Y336187D01*
X80250D01*
Y339937D01*
X82437D01*
X83063Y339625D01*
X83375Y339000D01*
X83063Y338375D01*
X82437Y338063D01*
X80250D01*
X82437Y348063D02*
X83063Y347750D01*
X83375Y347125D01*
X83063Y346500D01*
X82437Y346187D01*
X80250D01*
Y349937D01*
X82437D01*
X83063Y349625D01*
X83375Y349000D01*
X83063Y348375D01*
X82437Y348063D01*
X80250D01*
X82437Y358063D02*
X83063Y357750D01*
X83375Y357125D01*
X83063Y356500D01*
X82437Y356187D01*
X80250D01*
Y359937D01*
X82437D01*
X83063Y359625D01*
X83375Y359000D01*
X83063Y358375D01*
X82437Y358063D01*
X80250D01*
X82437Y368063D02*
X83063Y367750D01*
X83375Y367125D01*
X83063Y366500D01*
X82437Y366187D01*
X80250D01*
Y369937D01*
X82437D01*
X83063Y369625D01*
X83375Y369000D01*
X83063Y368375D01*
X82437Y368063D01*
X80250D01*
X132437Y48063D02*
X133063Y47750D01*
X133375Y47125D01*
X133063Y46500D01*
X132437Y46187D01*
X130250D01*
Y49937D01*
X132437D01*
X133063Y49625D01*
X133375Y49000D01*
X133063Y48375D01*
X132437Y48063D01*
X130250D01*
X132437Y58063D02*
X133063Y57750D01*
X133375Y57125D01*
X133063Y56500D01*
X132437Y56187D01*
X130250D01*
Y59937D01*
X132437D01*
X133063Y59625D01*
X133375Y59000D01*
X133063Y58375D01*
X132437Y58063D01*
X130250D01*
X132437Y68063D02*
X133063Y67750D01*
X133375Y67125D01*
X133063Y66500D01*
X132437Y66187D01*
X130250D01*
Y69937D01*
X132437D01*
X133063Y69625D01*
X133375Y69000D01*
X133063Y68375D01*
X132437Y68063D01*
X130250D01*
X132437Y78063D02*
X133063Y77750D01*
X133375Y77125D01*
X133063Y76500D01*
X132437Y76187D01*
X130250D01*
Y79937D01*
X132437D01*
X133063Y79625D01*
X133375Y79000D01*
X133063Y78375D01*
X132437Y78063D01*
X130250D01*
X132437Y88063D02*
X133063Y87750D01*
X133375Y87125D01*
X133063Y86500D01*
X132437Y86187D01*
X130250D01*
Y89937D01*
X132437D01*
X133063Y89625D01*
X133375Y89000D01*
X133063Y88375D01*
X132437Y88063D01*
X130250D01*
X132437Y238063D02*
X133063Y237750D01*
X133375Y237125D01*
X133063Y236500D01*
X132437Y236187D01*
X130250D01*
Y239937D01*
X132437D01*
X133063Y239625D01*
X133375Y239000D01*
X133063Y238375D01*
X132437Y238063D01*
X130250D01*
X132437Y248063D02*
X133063Y247750D01*
X133375Y247125D01*
X133063Y246500D01*
X132437Y246187D01*
X130250D01*
Y249937D01*
X132437D01*
X133063Y249625D01*
X133375Y249000D01*
X133063Y248375D01*
X132437Y248063D01*
X130250D01*
X132437Y258063D02*
X133063Y257750D01*
X133375Y257125D01*
X133063Y256500D01*
X132437Y256187D01*
X130250D01*
Y259937D01*
X132437D01*
X133063Y259625D01*
X133375Y259000D01*
X133063Y258375D01*
X132437Y258063D01*
X130250D01*
X132437Y268063D02*
X133063Y267750D01*
X133375Y267125D01*
X133063Y266500D01*
X132437Y266187D01*
X130250D01*
Y269937D01*
X132437D01*
X133063Y269625D01*
X133375Y269000D01*
X133063Y268375D01*
X132437Y268063D01*
X130250D01*
X132437Y278063D02*
X133063Y277750D01*
X133375Y277125D01*
X133063Y276500D01*
X132437Y276187D01*
X130250D01*
Y279937D01*
X132437D01*
X133063Y279625D01*
X133375Y279000D01*
X133063Y278375D01*
X132437Y278063D01*
X130250D01*
X132437Y288063D02*
X133063Y287750D01*
X133375Y287125D01*
X133063Y286500D01*
X132437Y286187D01*
X130250D01*
Y289937D01*
X132437D01*
X133063Y289625D01*
X133375Y289000D01*
X133063Y288375D01*
X132437Y288063D01*
X130250D01*
X132437Y298063D02*
X133063Y297750D01*
X133375Y297125D01*
X133063Y296500D01*
X132437Y296187D01*
X130250D01*
Y299937D01*
X132437D01*
X133063Y299625D01*
X133375Y299000D01*
X133063Y298375D01*
X132437Y298063D01*
X130250D01*
X132437Y308063D02*
X133063Y307750D01*
X133375Y307125D01*
X133063Y306500D01*
X132437Y306187D01*
X130250D01*
Y309937D01*
X132437D01*
X133063Y309625D01*
X133375Y309000D01*
X133063Y308375D01*
X132437Y308063D01*
X130250D01*
X132437Y318063D02*
X133063Y317750D01*
X133375Y317125D01*
X133063Y316500D01*
X132437Y316187D01*
X130250D01*
Y319937D01*
X132437D01*
X133063Y319625D01*
X133375Y319000D01*
X133063Y318375D01*
X132437Y318063D01*
X130250D01*
X132437Y328063D02*
X133063Y327750D01*
X133375Y327125D01*
X133063Y326500D01*
X132437Y326187D01*
X130250D01*
Y329937D01*
X132437D01*
X133063Y329625D01*
X133375Y329000D01*
X133063Y328375D01*
X132437Y328063D01*
X130250D01*
X132437Y338063D02*
X133063Y337750D01*
X133375Y337125D01*
X133063Y336500D01*
X132437Y336187D01*
X130250D01*
Y339937D01*
X132437D01*
X133063Y339625D01*
X133375Y339000D01*
X133063Y338375D01*
X132437Y338063D01*
X130250D01*
X132437Y348063D02*
X133063Y347750D01*
X133375Y347125D01*
X133063Y346500D01*
X132437Y346187D01*
X130250D01*
Y349937D01*
X132437D01*
X133063Y349625D01*
X133375Y349000D01*
X133063Y348375D01*
X132437Y348063D01*
X130250D01*
X132437Y358063D02*
X133063Y357750D01*
X133375Y357125D01*
X133063Y356500D01*
X132437Y356187D01*
X130250D01*
Y359937D01*
X132437D01*
X133063Y359625D01*
X133375Y359000D01*
X133063Y358375D01*
X132437Y358063D01*
X130250D01*
X132437Y368063D02*
X133063Y367750D01*
X133375Y367125D01*
X133063Y366500D01*
X132437Y366187D01*
X130250D01*
Y369937D01*
X132437D01*
X133063Y369625D01*
X133375Y369000D01*
X133063Y368375D01*
X132437Y368063D01*
X130250D01*
X182437Y48063D02*
X183063Y47750D01*
X183375Y47125D01*
X183063Y46500D01*
X182437Y46187D01*
X180250D01*
Y49937D01*
X182437D01*
X183063Y49625D01*
X183375Y49000D01*
X183063Y48375D01*
X182437Y48063D01*
X180250D01*
X182437Y58063D02*
X183063Y57750D01*
X183375Y57125D01*
X183063Y56500D01*
X182437Y56187D01*
X180250D01*
Y59937D01*
X182437D01*
X183063Y59625D01*
X183375Y59000D01*
X183063Y58375D01*
X182437Y58063D01*
X180250D01*
X182437Y68063D02*
X183063Y67750D01*
X183375Y67125D01*
X183063Y66500D01*
X182437Y66187D01*
X180250D01*
Y69937D01*
X182437D01*
X183063Y69625D01*
X183375Y69000D01*
X183063Y68375D01*
X182437Y68063D01*
X180250D01*
X182437Y78063D02*
X183063Y77750D01*
X183375Y77125D01*
X183063Y76500D01*
X182437Y76187D01*
X180250D01*
Y79937D01*
X182437D01*
X183063Y79625D01*
X183375Y79000D01*
X183063Y78375D01*
X182437Y78063D01*
X180250D01*
X182437Y88063D02*
X183063Y87750D01*
X183375Y87125D01*
X183063Y86500D01*
X182437Y86187D01*
X180250D01*
Y89937D01*
X182437D01*
X183063Y89625D01*
X183375Y89000D01*
X183063Y88375D01*
X182437Y88063D01*
X180250D01*
X182437Y238063D02*
X183063Y237750D01*
X183375Y237125D01*
X183063Y236500D01*
X182437Y236187D01*
X180250D01*
Y239937D01*
X182437D01*
X183063Y239625D01*
X183375Y239000D01*
X183063Y238375D01*
X182437Y238063D01*
X180250D01*
X182437Y248063D02*
X183063Y247750D01*
X183375Y247125D01*
X183063Y246500D01*
X182437Y246187D01*
X180250D01*
Y249937D01*
X182437D01*
X183063Y249625D01*
X183375Y249000D01*
X183063Y248375D01*
X182437Y248063D01*
X180250D01*
X182437Y258063D02*
X183063Y257750D01*
X183375Y257125D01*
X183063Y256500D01*
X182437Y256187D01*
X180250D01*
Y259937D01*
X182437D01*
X183063Y259625D01*
X183375Y259000D01*
X183063Y258375D01*
X182437Y258063D01*
X180250D01*
X182437Y268063D02*
X183063Y267750D01*
X183375Y267125D01*
X183063Y266500D01*
X182437Y266187D01*
X180250D01*
Y269937D01*
X182437D01*
X183063Y269625D01*
X183375Y269000D01*
X183063Y268375D01*
X182437Y268063D01*
X180250D01*
X182437Y278063D02*
X183063Y277750D01*
X183375Y277125D01*
X183063Y276500D01*
X182437Y276187D01*
X180250D01*
Y279937D01*
X182437D01*
X183063Y279625D01*
X183375Y279000D01*
X183063Y278375D01*
X182437Y278063D01*
X180250D01*
X182437Y288063D02*
X183063Y287750D01*
X183375Y287125D01*
X183063Y286500D01*
X182437Y286187D01*
X180250D01*
Y289937D01*
X182437D01*
X183063Y289625D01*
X183375Y289000D01*
X183063Y288375D01*
X182437Y288063D01*
X180250D01*
X182437Y298063D02*
X183063Y297750D01*
X183375Y297125D01*
X183063Y296500D01*
X182437Y296187D01*
X180250D01*
Y299937D01*
X182437D01*
X183063Y299625D01*
X183375Y299000D01*
X183063Y298375D01*
X182437Y298063D01*
X180250D01*
X182437Y308063D02*
X183063Y307750D01*
X183375Y307125D01*
X183063Y306500D01*
X182437Y306187D01*
X180250D01*
Y309937D01*
X182437D01*
X183063Y309625D01*
X183375Y309000D01*
X183063Y308375D01*
X182437Y308063D01*
X180250D01*
X182437Y318063D02*
X183063Y317750D01*
X183375Y317125D01*
X183063Y316500D01*
X182437Y316187D01*
X180250D01*
Y319937D01*
X182437D01*
X183063Y319625D01*
X183375Y319000D01*
X183063Y318375D01*
X182437Y318063D01*
X180250D01*
X182437Y328063D02*
X183063Y327750D01*
X183375Y327125D01*
X183063Y326500D01*
X182437Y326187D01*
X180250D01*
Y329937D01*
X182437D01*
X183063Y329625D01*
X183375Y329000D01*
X183063Y328375D01*
X182437Y328063D01*
X180250D01*
X182437Y338063D02*
X183063Y337750D01*
X183375Y337125D01*
X183063Y336500D01*
X182437Y336187D01*
X180250D01*
Y339937D01*
X182437D01*
X183063Y339625D01*
X183375Y339000D01*
X183063Y338375D01*
X182437Y338063D01*
X180250D01*
X182437Y348063D02*
X183063Y347750D01*
X183375Y347125D01*
X183063Y346500D01*
X182437Y346187D01*
X180250D01*
Y349937D01*
X182437D01*
X183063Y349625D01*
X183375Y349000D01*
X183063Y348375D01*
X182437Y348063D01*
X180250D01*
X182437Y358063D02*
X183063Y357750D01*
X183375Y357125D01*
X183063Y356500D01*
X182437Y356187D01*
X180250D01*
Y359937D01*
X182437D01*
X183063Y359625D01*
X183375Y359000D01*
X183063Y358375D01*
X182437Y358063D01*
X180250D01*
X182437Y368063D02*
X183063Y367750D01*
X183375Y367125D01*
X183063Y366500D01*
X182437Y366187D01*
X180250D01*
Y369937D01*
X182437D01*
X183063Y369625D01*
X183375Y369000D01*
X183063Y368375D01*
X182437Y368063D01*
X180250D01*
X232437Y28063D02*
X233063Y27750D01*
X233375Y27125D01*
X233063Y26500D01*
X232437Y26187D01*
X230250D01*
Y29937D01*
X232437D01*
X233063Y29625D01*
X233375Y29000D01*
X233063Y28375D01*
X232437Y28063D01*
X230250D01*
X232437Y38063D02*
X233063Y37750D01*
X233375Y37125D01*
X233063Y36500D01*
X232437Y36187D01*
X230250D01*
Y39937D01*
X232437D01*
X233063Y39625D01*
X233375Y39000D01*
X233063Y38375D01*
X232437Y38063D01*
X230250D01*
X232437Y48063D02*
X233063Y47750D01*
X233375Y47125D01*
X233063Y46500D01*
X232437Y46187D01*
X230250D01*
Y49937D01*
X232437D01*
X233063Y49625D01*
X233375Y49000D01*
X233063Y48375D01*
X232437Y48063D01*
X230250D01*
X232437Y58063D02*
X233063Y57750D01*
X233375Y57125D01*
X233063Y56500D01*
X232437Y56187D01*
X230250D01*
Y59937D01*
X232437D01*
X233063Y59625D01*
X233375Y59000D01*
X233063Y58375D01*
X232437Y58063D01*
X230250D01*
X232437Y68063D02*
X233063Y67750D01*
X233375Y67125D01*
X233063Y66500D01*
X232437Y66187D01*
X230250D01*
Y69937D01*
X232437D01*
X233063Y69625D01*
X233375Y69000D01*
X233063Y68375D01*
X232437Y68063D01*
X230250D01*
X232437Y118063D02*
X233063Y117750D01*
X233375Y117125D01*
X233063Y116500D01*
X232437Y116187D01*
X230250D01*
Y119937D01*
X232437D01*
X233063Y119625D01*
X233375Y119000D01*
X233063Y118375D01*
X232437Y118063D01*
X230250D01*
X232437Y128063D02*
X233063Y127750D01*
X233375Y127125D01*
X233063Y126500D01*
X232437Y126187D01*
X230250D01*
Y129937D01*
X232437D01*
X233063Y129625D01*
X233375Y129000D01*
X233063Y128375D01*
X232437Y128063D01*
X230250D01*
X232437Y258063D02*
X233063Y257750D01*
X233375Y257125D01*
X233063Y256500D01*
X232437Y256187D01*
X230250D01*
Y259937D01*
X232437D01*
X233063Y259625D01*
X233375Y259000D01*
X233063Y258375D01*
X232437Y258063D01*
X230250D01*
X232437Y268063D02*
X233063Y267750D01*
X233375Y267125D01*
X233063Y266500D01*
X232437Y266187D01*
X230250D01*
Y269937D01*
X232437D01*
X233063Y269625D01*
X233375Y269000D01*
X233063Y268375D01*
X232437Y268063D01*
X230250D01*
X232437Y278063D02*
X233063Y277750D01*
X233375Y277125D01*
X233063Y276500D01*
X232437Y276187D01*
X230250D01*
Y279937D01*
X232437D01*
X233063Y279625D01*
X233375Y279000D01*
X233063Y278375D01*
X232437Y278063D01*
X230250D01*
X232437Y288063D02*
X233063Y287750D01*
X233375Y287125D01*
X233063Y286500D01*
X232437Y286187D01*
X230250D01*
Y289937D01*
X232437D01*
X233063Y289625D01*
X233375Y289000D01*
X233063Y288375D01*
X232437Y288063D01*
X230250D01*
X232437Y298063D02*
X233063Y297750D01*
X233375Y297125D01*
X233063Y296500D01*
X232437Y296187D01*
X230250D01*
Y299937D01*
X232437D01*
X233063Y299625D01*
X233375Y299000D01*
X233063Y298375D01*
X232437Y298063D01*
X230250D01*
X232437Y308063D02*
X233063Y307750D01*
X233375Y307125D01*
X233063Y306500D01*
X232437Y306187D01*
X230250D01*
Y309937D01*
X232437D01*
X233063Y309625D01*
X233375Y309000D01*
X233063Y308375D01*
X232437Y308063D01*
X230250D01*
X232437Y318063D02*
X233063Y317750D01*
X233375Y317125D01*
X233063Y316500D01*
X232437Y316187D01*
X230250D01*
Y319937D01*
X232437D01*
X233063Y319625D01*
X233375Y319000D01*
X233063Y318375D01*
X232437Y318063D01*
X230250D01*
X232437Y328063D02*
X233063Y327750D01*
X233375Y327125D01*
X233063Y326500D01*
X232437Y326187D01*
X230250D01*
Y329937D01*
X232437D01*
X233063Y329625D01*
X233375Y329000D01*
X233063Y328375D01*
X232437Y328063D01*
X230250D01*
X232437Y338063D02*
X233063Y337750D01*
X233375Y337125D01*
X233063Y336500D01*
X232437Y336187D01*
X230250D01*
Y339937D01*
X232437D01*
X233063Y339625D01*
X233375Y339000D01*
X233063Y338375D01*
X232437Y338063D01*
X230250D01*
X232437Y348063D02*
X233063Y347750D01*
X233375Y347125D01*
X233063Y346500D01*
X232437Y346187D01*
X230250D01*
Y349937D01*
X232437D01*
X233063Y349625D01*
X233375Y349000D01*
X233063Y348375D01*
X232437Y348063D01*
X230250D01*
X232437Y358063D02*
X233063Y357750D01*
X233375Y357125D01*
X233063Y356500D01*
X232437Y356187D01*
X230250D01*
Y359937D01*
X232437D01*
X233063Y359625D01*
X233375Y359000D01*
X233063Y358375D01*
X232437Y358063D01*
X230250D01*
X232437Y368063D02*
X233063Y367750D01*
X233375Y367125D01*
X233063Y366500D01*
X232437Y366187D01*
X230250D01*
Y369937D01*
X232437D01*
X233063Y369625D01*
X233375Y369000D01*
X233063Y368375D01*
X232437Y368063D01*
X230250D01*
X282437Y28063D02*
X283063Y27750D01*
X283375Y27125D01*
X283063Y26500D01*
X282437Y26187D01*
X280250D01*
Y29937D01*
X282437D01*
X283063Y29625D01*
X283375Y29000D01*
X283063Y28375D01*
X282437Y28063D01*
X280250D01*
X282437Y38063D02*
X283063Y37750D01*
X283375Y37125D01*
X283063Y36500D01*
X282437Y36187D01*
X280250D01*
Y39937D01*
X282437D01*
X283063Y39625D01*
X283375Y39000D01*
X283063Y38375D01*
X282437Y38063D01*
X280250D01*
X282437Y48063D02*
X283063Y47750D01*
X283375Y47125D01*
X283063Y46500D01*
X282437Y46187D01*
X280250D01*
Y49937D01*
X282437D01*
X283063Y49625D01*
X283375Y49000D01*
X283063Y48375D01*
X282437Y48063D01*
X280250D01*
X282437Y58063D02*
X283063Y57750D01*
X283375Y57125D01*
X283063Y56500D01*
X282437Y56187D01*
X280250D01*
Y59937D01*
X282437D01*
X283063Y59625D01*
X283375Y59000D01*
X283063Y58375D01*
X282437Y58063D01*
X280250D01*
X282437Y68063D02*
X283063Y67750D01*
X283375Y67125D01*
X283063Y66500D01*
X282437Y66187D01*
X280250D01*
Y69937D01*
X282437D01*
X283063Y69625D01*
X283375Y69000D01*
X283063Y68375D01*
X282437Y68063D01*
X280250D01*
X282437Y118063D02*
X283063Y117750D01*
X283375Y117125D01*
X283063Y116500D01*
X282437Y116187D01*
X280250D01*
Y119937D01*
X282437D01*
X283063Y119625D01*
X283375Y119000D01*
X283063Y118375D01*
X282437Y118063D01*
X280250D01*
X282437Y128063D02*
X283063Y127750D01*
X283375Y127125D01*
X283063Y126500D01*
X282437Y126187D01*
X280250D01*
Y129937D01*
X282437D01*
X283063Y129625D01*
X283375Y129000D01*
X283063Y128375D01*
X282437Y128063D01*
X280250D01*
X282437Y258063D02*
X283063Y257750D01*
X283375Y257125D01*
X283063Y256500D01*
X282437Y256187D01*
X280250D01*
Y259937D01*
X282437D01*
X283063Y259625D01*
X283375Y259000D01*
X283063Y258375D01*
X282437Y258063D01*
X280250D01*
X282437Y268063D02*
X283063Y267750D01*
X283375Y267125D01*
X283063Y266500D01*
X282437Y266187D01*
X280250D01*
Y269937D01*
X282437D01*
X283063Y269625D01*
X283375Y269000D01*
X283063Y268375D01*
X282437Y268063D01*
X280250D01*
X282437Y278063D02*
X283063Y277750D01*
X283375Y277125D01*
X283063Y276500D01*
X282437Y276187D01*
X280250D01*
Y279937D01*
X282437D01*
X283063Y279625D01*
X283375Y279000D01*
X283063Y278375D01*
X282437Y278063D01*
X280250D01*
X282437Y288063D02*
X283063Y287750D01*
X283375Y287125D01*
X283063Y286500D01*
X282437Y286187D01*
X280250D01*
Y289937D01*
X282437D01*
X283063Y289625D01*
X283375Y289000D01*
X283063Y288375D01*
X282437Y288063D01*
X280250D01*
X282437Y298063D02*
X283063Y297750D01*
X283375Y297125D01*
X283063Y296500D01*
X282437Y296187D01*
X280250D01*
Y299937D01*
X282437D01*
X283063Y299625D01*
X283375Y299000D01*
X283063Y298375D01*
X282437Y298063D01*
X280250D01*
X282437Y308063D02*
X283063Y307750D01*
X283375Y307125D01*
X283063Y306500D01*
X282437Y306187D01*
X280250D01*
Y309937D01*
X282437D01*
X283063Y309625D01*
X283375Y309000D01*
X283063Y308375D01*
X282437Y308063D01*
X280250D01*
X282437Y318063D02*
X283063Y317750D01*
X283375Y317125D01*
X283063Y316500D01*
X282437Y316187D01*
X280250D01*
Y319937D01*
X282437D01*
X283063Y319625D01*
X283375Y319000D01*
X283063Y318375D01*
X282437Y318063D01*
X280250D01*
X282437Y328063D02*
X283063Y327750D01*
X283375Y327125D01*
X283063Y326500D01*
X282437Y326187D01*
X280250D01*
Y329937D01*
X282437D01*
X283063Y329625D01*
X283375Y329000D01*
X283063Y328375D01*
X282437Y328063D01*
X280250D01*
X282437Y338063D02*
X283063Y337750D01*
X283375Y337125D01*
X283063Y336500D01*
X282437Y336187D01*
X280250D01*
Y339937D01*
X282437D01*
X283063Y339625D01*
X283375Y339000D01*
X283063Y338375D01*
X282437Y338063D01*
X280250D01*
X282437Y348063D02*
X283063Y347750D01*
X283375Y347125D01*
X283063Y346500D01*
X282437Y346187D01*
X280250D01*
Y349937D01*
X282437D01*
X283063Y349625D01*
X283375Y349000D01*
X283063Y348375D01*
X282437Y348063D01*
X280250D01*
X282437Y358063D02*
X283063Y357750D01*
X283375Y357125D01*
X283063Y356500D01*
X282437Y356187D01*
X280250D01*
Y359937D01*
X282437D01*
X283063Y359625D01*
X283375Y359000D01*
X283063Y358375D01*
X282437Y358063D01*
X280250D01*
X282437Y368063D02*
X283063Y367750D01*
X283375Y367125D01*
X283063Y366500D01*
X282437Y366187D01*
X280250D01*
Y369937D01*
X282437D01*
X283063Y369625D01*
X283375Y369000D01*
X283063Y368375D01*
X282437Y368063D01*
X280250D01*
X329541Y225243D02*
X331104Y228993D01*
X332667Y225243D01*
X330167Y226805D02*
X332041D01*
X332437Y28063D02*
X333063Y27750D01*
X333375Y27125D01*
X333063Y26500D01*
X332437Y26187D01*
X330250D01*
Y29937D01*
X332437D01*
X333063Y29625D01*
X333375Y29000D01*
X333063Y28375D01*
X332437Y28063D01*
X330250D01*
X332437Y78063D02*
X333063Y77750D01*
X333375Y77125D01*
X333063Y76500D01*
X332437Y76187D01*
X330250D01*
Y79937D01*
X332437D01*
X333063Y79625D01*
X333375Y79000D01*
X333063Y78375D01*
X332437Y78063D01*
X330250D01*
X332437Y128063D02*
X333063Y127750D01*
X333375Y127125D01*
X333063Y126500D01*
X332437Y126187D01*
X330250D01*
Y129937D01*
X332437D01*
X333063Y129625D01*
X333375Y129000D01*
X333063Y128375D01*
X332437Y128063D01*
X330250D01*
X332437Y178063D02*
X333063Y177750D01*
X333375Y177125D01*
X333063Y176500D01*
X332437Y176187D01*
X330250D01*
Y179937D01*
X332437D01*
X333063Y179625D01*
X333375Y179000D01*
X333063Y178375D01*
X332437Y178063D01*
X330250D01*
X332437Y317828D02*
X333063Y317515D01*
X333375Y316891D01*
X333063Y316265D01*
X332437Y315953D01*
X330250D01*
Y319703D01*
X332437D01*
X333063Y319391D01*
X333375Y318765D01*
X333063Y318141D01*
X332437Y317828D01*
X330250D01*
X332437Y368063D02*
X333063Y367750D01*
X333375Y367125D01*
X333063Y366500D01*
X332437Y366187D01*
X330250D01*
Y369937D01*
X332437D01*
X333063Y369625D01*
X333375Y369000D01*
X333063Y368375D01*
X332437Y368063D01*
X330250D01*
X342437Y28063D02*
X343063Y27750D01*
X343375Y27125D01*
X343063Y26500D01*
X342437Y26187D01*
X340250D01*
Y29937D01*
X342437D01*
X343063Y29625D01*
X343375Y29000D01*
X343063Y28375D01*
X342437Y28063D01*
X340250D01*
X342437Y78063D02*
X343063Y77750D01*
X343375Y77125D01*
X343063Y76500D01*
X342437Y76187D01*
X340250D01*
Y79937D01*
X342437D01*
X343063Y79625D01*
X343375Y79000D01*
X343063Y78375D01*
X342437Y78063D01*
X340250D01*
X342437Y128063D02*
X343063Y127750D01*
X343375Y127125D01*
X343063Y126500D01*
X342437Y126187D01*
X340250D01*
Y129937D01*
X342437D01*
X343063Y129625D01*
X343375Y129000D01*
X343063Y128375D01*
X342437Y128063D01*
X340250D01*
X342437Y178063D02*
X343063Y177750D01*
X343375Y177125D01*
X343063Y176500D01*
X342437Y176187D01*
X340250D01*
Y179937D01*
X342437D01*
X343063Y179625D01*
X343375Y179000D01*
X343063Y178375D01*
X342437Y178063D01*
X340250D01*
X342437Y258063D02*
X343063Y257750D01*
X343375Y257125D01*
X343063Y256500D01*
X342437Y256187D01*
X340250D01*
Y259937D01*
X342437D01*
X343063Y259625D01*
X343375Y259000D01*
X343063Y258375D01*
X342437Y258063D01*
X340250D01*
X342437Y317828D02*
X343063Y317515D01*
X343375Y316891D01*
X343063Y316265D01*
X342437Y315953D01*
X340250D01*
Y319703D01*
X342437D01*
X343063Y319391D01*
X343375Y318765D01*
X343063Y318141D01*
X342437Y317828D01*
X340250D01*
X342437Y368063D02*
X343063Y367750D01*
X343375Y367125D01*
X343063Y366500D01*
X342437Y366187D01*
X340250D01*
Y369937D01*
X342437D01*
X343063Y369625D01*
X343375Y369000D01*
X343063Y368375D01*
X342437Y368063D01*
X340250D01*
X341352Y225243D02*
X342915Y228993D01*
X344478Y225243D01*
X341978Y226805D02*
X343852D01*
X352437Y28063D02*
X353063Y27750D01*
X353375Y27125D01*
X353063Y26500D01*
X352437Y26187D01*
X350250D01*
Y29937D01*
X352437D01*
X353063Y29625D01*
X353375Y29000D01*
X353063Y28375D01*
X352437Y28063D01*
X350250D01*
X352437Y78063D02*
X353063Y77750D01*
X353375Y77125D01*
X353063Y76500D01*
X352437Y76187D01*
X350250D01*
Y79937D01*
X352437D01*
X353063Y79625D01*
X353375Y79000D01*
X353063Y78375D01*
X352437Y78063D01*
X350250D01*
X352437Y128063D02*
X353063Y127750D01*
X353375Y127125D01*
X353063Y126500D01*
X352437Y126187D01*
X350250D01*
Y129937D01*
X352437D01*
X353063Y129625D01*
X353375Y129000D01*
X353063Y128375D01*
X352437Y128063D01*
X350250D01*
X352437Y178063D02*
X353063Y177750D01*
X353375Y177125D01*
X353063Y176500D01*
X352437Y176187D01*
X350250D01*
Y179937D01*
X352437D01*
X353063Y179625D01*
X353375Y179000D01*
X353063Y178375D01*
X352437Y178063D01*
X350250D01*
X352437Y258063D02*
X353063Y257750D01*
X353375Y257125D01*
X353063Y256500D01*
X352437Y256187D01*
X350250D01*
Y259937D01*
X352437D01*
X353063Y259625D01*
X353375Y259000D01*
X353063Y258375D01*
X352437Y258063D01*
X350250D01*
X352437Y317828D02*
X353063Y317515D01*
X353375Y316891D01*
X353063Y316265D01*
X352437Y315953D01*
X350250D01*
Y319703D01*
X352437D01*
X353063Y319391D01*
X353375Y318765D01*
X353063Y318141D01*
X352437Y317828D01*
X350250D01*
X352437Y368063D02*
X353063Y367750D01*
X353375Y367125D01*
X353063Y366500D01*
X352437Y366187D01*
X350250D01*
Y369937D01*
X352437D01*
X353063Y369625D01*
X353375Y369000D01*
X353063Y368375D01*
X352437Y368063D01*
X350250D01*
X353163Y225243D02*
X354726Y228993D01*
X356289Y225243D01*
X353789Y226805D02*
X355663D01*
X362437Y28063D02*
X363063Y27750D01*
X363375Y27125D01*
X363063Y26500D01*
X362437Y26187D01*
X360250D01*
Y29937D01*
X362437D01*
X363063Y29625D01*
X363375Y29000D01*
X363063Y28375D01*
X362437Y28063D01*
X360250D01*
X362437Y78063D02*
X363063Y77750D01*
X363375Y77125D01*
X363063Y76500D01*
X362437Y76187D01*
X360250D01*
Y79937D01*
X362437D01*
X363063Y79625D01*
X363375Y79000D01*
X363063Y78375D01*
X362437Y78063D01*
X360250D01*
X362437Y128297D02*
X363063Y127985D01*
X363375Y127360D01*
X363063Y126735D01*
X362437Y126422D01*
X360250D01*
Y130172D01*
X362437D01*
X363063Y129860D01*
X363375Y129235D01*
X363063Y128610D01*
X362437Y128297D01*
X360250D01*
X362437Y178063D02*
X363063Y177750D01*
X363375Y177125D01*
X363063Y176500D01*
X362437Y176187D01*
X360250D01*
Y179937D01*
X362437D01*
X363063Y179625D01*
X363375Y179000D01*
X363063Y178375D01*
X362437Y178063D01*
X360250D01*
X362437Y317828D02*
X363063Y317515D01*
X363375Y316891D01*
X363063Y316265D01*
X362437Y315953D01*
X360250D01*
Y319703D01*
X362437D01*
X363063Y319391D01*
X363375Y318765D01*
X363063Y318141D01*
X362437Y317828D01*
X360250D01*
X362437Y368063D02*
X363063Y367750D01*
X363375Y367125D01*
X363063Y366500D01*
X362437Y366187D01*
X360250D01*
Y369937D01*
X362437D01*
X363063Y369625D01*
X363375Y369000D01*
X363063Y368375D01*
X362437Y368063D01*
X360250D01*
X372437Y28063D02*
X373063Y27750D01*
X373375Y27125D01*
X373063Y26500D01*
X372437Y26187D01*
X370250D01*
Y29937D01*
X372437D01*
X373063Y29625D01*
X373375Y29000D01*
X373063Y28375D01*
X372437Y28063D01*
X370250D01*
X372437Y78063D02*
X373063Y77750D01*
X373375Y77125D01*
X373063Y76500D01*
X372437Y76187D01*
X370250D01*
Y79937D01*
X372437D01*
X373063Y79625D01*
X373375Y79000D01*
X373063Y78375D01*
X372437Y78063D01*
X370250D01*
X372437Y128297D02*
X373063Y127985D01*
X373375Y127360D01*
X373063Y126735D01*
X372437Y126422D01*
X370250D01*
Y130172D01*
X372437D01*
X373063Y129860D01*
X373375Y129235D01*
X373063Y128610D01*
X372437Y128297D01*
X370250D01*
X372437Y178063D02*
X373063Y177750D01*
X373375Y177125D01*
X373063Y176500D01*
X372437Y176187D01*
X370250D01*
Y179937D01*
X372437D01*
X373063Y179625D01*
X373375Y179000D01*
X373063Y178375D01*
X372437Y178063D01*
X370250D01*
X372437Y318063D02*
X373063Y317750D01*
X373375Y317125D01*
X373063Y316500D01*
X372437Y316187D01*
X370250D01*
Y319937D01*
X372437D01*
X373063Y319625D01*
X373375Y319000D01*
X373063Y318375D01*
X372437Y318063D01*
X370250D01*
X372437Y368063D02*
X373063Y367750D01*
X373375Y367125D01*
X373063Y366500D01*
X372437Y366187D01*
X370250D01*
Y369937D01*
X372437D01*
X373063Y369625D01*
X373375Y369000D01*
X373063Y368375D01*
X372437Y368063D01*
X370250D01*
X382437Y28063D02*
X383063Y27750D01*
X383375Y27125D01*
X383063Y26500D01*
X382437Y26187D01*
X380250D01*
Y29937D01*
X382437D01*
X383063Y29625D01*
X383375Y29000D01*
X383063Y28375D01*
X382437Y28063D01*
X380250D01*
X382437Y78063D02*
X383063Y77750D01*
X383375Y77125D01*
X383063Y76500D01*
X382437Y76187D01*
X380250D01*
Y79937D01*
X382437D01*
X383063Y79625D01*
X383375Y79000D01*
X383063Y78375D01*
X382437Y78063D01*
X380250D01*
X382437Y128297D02*
X383063Y127985D01*
X383375Y127360D01*
X383063Y126735D01*
X382437Y126422D01*
X380250D01*
Y130172D01*
X382437D01*
X383063Y129860D01*
X383375Y129235D01*
X383063Y128610D01*
X382437Y128297D01*
X380250D01*
X382437Y178063D02*
X383063Y177750D01*
X383375Y177125D01*
X383063Y176500D01*
X382437Y176187D01*
X380250D01*
Y179937D01*
X382437D01*
X383063Y179625D01*
X383375Y179000D01*
X383063Y178375D01*
X382437Y178063D01*
X380250D01*
X382437Y218063D02*
X383063Y217750D01*
X383375Y217125D01*
X383063Y216500D01*
X382437Y216187D01*
X380250D01*
Y219937D01*
X382437D01*
X383063Y219625D01*
X383375Y219000D01*
X383063Y218375D01*
X382437Y218063D01*
X380250D01*
X382437Y268063D02*
X383063Y267750D01*
X383375Y267125D01*
X383063Y266500D01*
X382437Y266187D01*
X380250D01*
Y269937D01*
X382437D01*
X383063Y269625D01*
X383375Y269000D01*
X383063Y268375D01*
X382437Y268063D01*
X380250D01*
X382437Y318063D02*
X383063Y317750D01*
X383375Y317125D01*
X383063Y316500D01*
X382437Y316187D01*
X380250D01*
Y319937D01*
X382437D01*
X383063Y319625D01*
X383375Y319000D01*
X383063Y318375D01*
X382437Y318063D01*
X380250D01*
X382437Y368063D02*
X383063Y367750D01*
X383375Y367125D01*
X383063Y366500D01*
X382437Y366187D01*
X380250D01*
Y369937D01*
X382437D01*
X383063Y369625D01*
X383375Y369000D01*
X383063Y368375D01*
X382437Y368063D01*
X380250D01*
X392437Y28063D02*
X393063Y27750D01*
X393375Y27125D01*
X393063Y26500D01*
X392437Y26187D01*
X390250D01*
Y29937D01*
X392437D01*
X393063Y29625D01*
X393375Y29000D01*
X393063Y28375D01*
X392437Y28063D01*
X390250D01*
X392437Y78063D02*
X393063Y77750D01*
X393375Y77125D01*
X393063Y76500D01*
X392437Y76187D01*
X390250D01*
Y79937D01*
X392437D01*
X393063Y79625D01*
X393375Y79000D01*
X393063Y78375D01*
X392437Y78063D01*
X390250D01*
X392437Y128297D02*
X393063Y127985D01*
X393375Y127360D01*
X393063Y126735D01*
X392437Y126422D01*
X390250D01*
Y130172D01*
X392437D01*
X393063Y129860D01*
X393375Y129235D01*
X393063Y128610D01*
X392437Y128297D01*
X390250D01*
X392437Y178063D02*
X393063Y177750D01*
X393375Y177125D01*
X393063Y176500D01*
X392437Y176187D01*
X390250D01*
Y179937D01*
X392437D01*
X393063Y179625D01*
X393375Y179000D01*
X393063Y178375D01*
X392437Y178063D01*
X390250D01*
X392437Y318063D02*
X393063Y317750D01*
X393375Y317125D01*
X393063Y316500D01*
X392437Y316187D01*
X390250D01*
Y319937D01*
X392437D01*
X393063Y319625D01*
X393375Y319000D01*
X393063Y318375D01*
X392437Y318063D01*
X390250D01*
X392437Y368063D02*
X393063Y367750D01*
X393375Y367125D01*
X393063Y366500D01*
X392437Y366187D01*
X390250D01*
Y369937D01*
X392437D01*
X393063Y369625D01*
X393375Y369000D01*
X393063Y368375D01*
X392437Y368063D01*
X390250D01*
X402437Y28063D02*
X403063Y27750D01*
X403375Y27125D01*
X403063Y26500D01*
X402437Y26187D01*
X400250D01*
Y29937D01*
X402437D01*
X403063Y29625D01*
X403375Y29000D01*
X403063Y28375D01*
X402437Y28063D01*
X400250D01*
X402437Y78063D02*
X403063Y77750D01*
X403375Y77125D01*
X403063Y76500D01*
X402437Y76187D01*
X400250D01*
Y79937D01*
X402437D01*
X403063Y79625D01*
X403375Y79000D01*
X403063Y78375D01*
X402437Y78063D01*
X400250D01*
X402437Y128297D02*
X403063Y127985D01*
X403375Y127360D01*
X403063Y126735D01*
X402437Y126422D01*
X400250D01*
Y130172D01*
X402437D01*
X403063Y129860D01*
X403375Y129235D01*
X403063Y128610D01*
X402437Y128297D01*
X400250D01*
X402437Y178063D02*
X403063Y177750D01*
X403375Y177125D01*
X403063Y176500D01*
X402437Y176187D01*
X400250D01*
Y179937D01*
X402437D01*
X403063Y179625D01*
X403375Y179000D01*
X403063Y178375D01*
X402437Y178063D01*
X400250D01*
X402437Y318063D02*
X403063Y317750D01*
X403375Y317125D01*
X403063Y316500D01*
X402437Y316187D01*
X400250D01*
Y319937D01*
X402437D01*
X403063Y319625D01*
X403375Y319000D01*
X403063Y318375D01*
X402437Y318063D01*
X400250D01*
X402437Y368063D02*
X403063Y367750D01*
X403375Y367125D01*
X403063Y366500D01*
X402437Y366187D01*
X400250D01*
Y369937D01*
X402437D01*
X403063Y369625D01*
X403375Y369000D01*
X403063Y368375D01*
X402437Y368063D01*
X400250D01*
X407337Y257132D02*
X408899Y260882D01*
X410462Y257132D01*
X407962Y258695D02*
X409837D01*
X412437Y28063D02*
X413063Y27750D01*
X413375Y27125D01*
X413063Y26500D01*
X412437Y26187D01*
X410250D01*
Y29937D01*
X412437D01*
X413063Y29625D01*
X413375Y29000D01*
X413063Y28375D01*
X412437Y28063D01*
X410250D01*
X412437Y78063D02*
X413063Y77750D01*
X413375Y77125D01*
X413063Y76500D01*
X412437Y76187D01*
X410250D01*
Y79937D01*
X412437D01*
X413063Y79625D01*
X413375Y79000D01*
X413063Y78375D01*
X412437Y78063D01*
X410250D01*
X412437Y128297D02*
X413063Y127985D01*
X413375Y127360D01*
X413063Y126735D01*
X412437Y126422D01*
X410250D01*
Y130172D01*
X412437D01*
X413063Y129860D01*
X413375Y129235D01*
X413063Y128610D01*
X412437Y128297D01*
X410250D01*
X412437Y178063D02*
X413063Y177750D01*
X413375Y177125D01*
X413063Y176500D01*
X412437Y176187D01*
X410250D01*
Y179937D01*
X412437D01*
X413063Y179625D01*
X413375Y179000D01*
X413063Y178375D01*
X412437Y178063D01*
X410250D01*
X412437Y228063D02*
X413063Y227750D01*
X413375Y227125D01*
X413063Y226500D01*
X412437Y226187D01*
X410250D01*
Y229937D01*
X412437D01*
X413063Y229625D01*
X413375Y229000D01*
X413063Y228375D01*
X412437Y228063D01*
X410250D01*
X412437Y318063D02*
X413063Y317750D01*
X413375Y317125D01*
X413063Y316500D01*
X412437Y316187D01*
X410250D01*
Y319937D01*
X412437D01*
X413063Y319625D01*
X413375Y319000D01*
X413063Y318375D01*
X412437Y318063D01*
X410250D01*
X412437Y368063D02*
X413063Y367750D01*
X413375Y367125D01*
X413063Y366500D01*
X412437Y366187D01*
X410250D01*
Y369937D01*
X412437D01*
X413063Y369625D01*
X413375Y369000D01*
X413063Y368375D01*
X412437Y368063D01*
X410250D01*
X419148Y257132D02*
X420710Y260882D01*
X422273Y257132D01*
X419773Y258695D02*
X421648D01*
X422437Y28063D02*
X423063Y27750D01*
X423375Y27125D01*
X423063Y26500D01*
X422437Y26187D01*
X420250D01*
Y29937D01*
X422437D01*
X423063Y29625D01*
X423375Y29000D01*
X423063Y28375D01*
X422437Y28063D01*
X420250D01*
X422437Y78063D02*
X423063Y77750D01*
X423375Y77125D01*
X423063Y76500D01*
X422437Y76187D01*
X420250D01*
Y79937D01*
X422437D01*
X423063Y79625D01*
X423375Y79000D01*
X423063Y78375D01*
X422437Y78063D01*
X420250D01*
X422437Y128297D02*
X423063Y127985D01*
X423375Y127360D01*
X423063Y126735D01*
X422437Y126422D01*
X420250D01*
Y130172D01*
X422437D01*
X423063Y129860D01*
X423375Y129235D01*
X423063Y128610D01*
X422437Y128297D01*
X420250D01*
X422437Y178063D02*
X423063Y177750D01*
X423375Y177125D01*
X423063Y176500D01*
X422437Y176187D01*
X420250D01*
Y179937D01*
X422437D01*
X423063Y179625D01*
X423375Y179000D01*
X423063Y178375D01*
X422437Y178063D01*
X420250D01*
X422437Y228063D02*
X423063Y227750D01*
X423375Y227125D01*
X423063Y226500D01*
X422437Y226187D01*
X420250D01*
Y229937D01*
X422437D01*
X423063Y229625D01*
X423375Y229000D01*
X423063Y228375D01*
X422437Y228063D01*
X420250D01*
X422437Y318063D02*
X423063Y317750D01*
X423375Y317125D01*
X423063Y316500D01*
X422437Y316187D01*
X420250D01*
Y319937D01*
X422437D01*
X423063Y319625D01*
X423375Y319000D01*
X423063Y318375D01*
X422437Y318063D01*
X420250D01*
X422437Y368063D02*
X423063Y367750D01*
X423375Y367125D01*
X423063Y366500D01*
X422437Y366187D01*
X420250D01*
Y369937D01*
X422437D01*
X423063Y369625D01*
X423375Y369000D01*
X423063Y368375D01*
X422437Y368063D01*
X420250D01*
X432437Y28063D02*
X433063Y27750D01*
X433375Y27125D01*
X433063Y26500D01*
X432437Y26187D01*
X430250D01*
Y29937D01*
X432437D01*
X433063Y29625D01*
X433375Y29000D01*
X433063Y28375D01*
X432437Y28063D01*
X430250D01*
X432437Y78063D02*
X433063Y77750D01*
X433375Y77125D01*
X433063Y76500D01*
X432437Y76187D01*
X430250D01*
Y79937D01*
X432437D01*
X433063Y79625D01*
X433375Y79000D01*
X433063Y78375D01*
X432437Y78063D01*
X430250D01*
X432437Y128297D02*
X433063Y127985D01*
X433375Y127360D01*
X433063Y126735D01*
X432437Y126422D01*
X430250D01*
Y130172D01*
X432437D01*
X433063Y129860D01*
X433375Y129235D01*
X433063Y128610D01*
X432437Y128297D01*
X430250D01*
X432437Y178063D02*
X433063Y177750D01*
X433375Y177125D01*
X433063Y176500D01*
X432437Y176187D01*
X430250D01*
Y179937D01*
X432437D01*
X433063Y179625D01*
X433375Y179000D01*
X433063Y178375D01*
X432437Y178063D01*
X430250D01*
X432437Y318063D02*
X433063Y317750D01*
X433375Y317125D01*
X433063Y316500D01*
X432437Y316187D01*
X430250D01*
Y319937D01*
X432437D01*
X433063Y319625D01*
X433375Y319000D01*
X433063Y318375D01*
X432437Y318063D01*
X430250D01*
X432437Y368063D02*
X433063Y367750D01*
X433375Y367125D01*
X433063Y366500D01*
X432437Y366187D01*
X430250D01*
Y369937D01*
X432437D01*
X433063Y369625D01*
X433375Y369000D01*
X433063Y368375D01*
X432437Y368063D01*
X430250D01*
X430959Y257132D02*
X432521Y260882D01*
X434084Y257132D01*
X431584Y258695D02*
X433459D01*
X442437Y318063D02*
X443063Y317750D01*
X443375Y317125D01*
X443063Y316500D01*
X442437Y316187D01*
X440250D01*
Y319937D01*
X442437D01*
X443063Y319625D01*
X443375Y319000D01*
X443063Y318375D01*
X442437Y318063D01*
X440250D01*
X442437Y368063D02*
X443063Y367750D01*
X443375Y367125D01*
X443063Y366500D01*
X442437Y366187D01*
X440250D01*
Y369937D01*
X442437D01*
X443063Y369625D01*
X443375Y369000D01*
X443063Y368375D01*
X442437Y368063D01*
X440250D01*
X452437Y318063D02*
X453063Y317750D01*
X453375Y317125D01*
X453063Y316500D01*
X452437Y316187D01*
X450250D01*
Y319937D01*
X452437D01*
X453063Y319625D01*
X453375Y319000D01*
X453063Y318375D01*
X452437Y318063D01*
X450250D01*
X452437Y368063D02*
X453063Y367750D01*
X453375Y367125D01*
X453063Y366500D01*
X452437Y366187D01*
X450250D01*
Y369937D01*
X452437D01*
X453063Y369625D01*
X453375Y369000D01*
X453063Y368375D01*
X452437Y368063D01*
X450250D01*
X462437Y318063D02*
X463063Y317750D01*
X463375Y317125D01*
X463063Y316500D01*
X462437Y316187D01*
X460250D01*
Y319937D01*
X462437D01*
X463063Y319625D01*
X463375Y319000D01*
X463063Y318375D01*
X462437Y318063D01*
X460250D01*
X462437Y368063D02*
X463063Y367750D01*
X463375Y367125D01*
X463063Y366500D01*
X462437Y366187D01*
X460250D01*
Y369937D01*
X462437D01*
X463063Y369625D01*
X463375Y369000D01*
X463063Y368375D01*
X462437Y368063D01*
X460250D01*
X469541Y35243D02*
X471104Y38993D01*
X472667Y35243D01*
X470167Y36805D02*
X472041D01*
X469541Y115243D02*
X471104Y118993D01*
X472667Y115243D01*
X470167Y116805D02*
X472041D01*
X469541Y195243D02*
X471104Y198993D01*
X472667Y195243D01*
X470167Y196805D02*
X472041D01*
X472437Y318063D02*
X473063Y317750D01*
X473375Y317125D01*
X473063Y316500D01*
X472437Y316187D01*
X470250D01*
Y319937D01*
X472437D01*
X473063Y319625D01*
X473375Y319000D01*
X473063Y318375D01*
X472437Y318063D01*
X470250D01*
X472437Y368063D02*
X473063Y367750D01*
X473375Y367125D01*
X473063Y366500D01*
X472437Y366187D01*
X470250D01*
Y369937D01*
X472437D01*
X473063Y369625D01*
X473375Y369000D01*
X473063Y368375D01*
X472437Y368063D01*
X470250D01*
X482437Y68063D02*
X483063Y67750D01*
X483375Y67125D01*
X483063Y66500D01*
X482437Y66187D01*
X480250D01*
Y69937D01*
X482437D01*
X483063Y69625D01*
X483375Y69000D01*
X483063Y68375D01*
X482437Y68063D01*
X480250D01*
X482437Y148063D02*
X483063Y147750D01*
X483375Y147125D01*
X483063Y146500D01*
X482437Y146187D01*
X480250D01*
Y149937D01*
X482437D01*
X483063Y149625D01*
X483375Y149000D01*
X483063Y148375D01*
X482437Y148063D01*
X480250D01*
X482437Y228063D02*
X483063Y227750D01*
X483375Y227125D01*
X483063Y226500D01*
X482437Y226187D01*
X480250D01*
Y229937D01*
X482437D01*
X483063Y229625D01*
X483375Y229000D01*
X483063Y228375D01*
X482437Y228063D01*
X480250D01*
X482437Y318063D02*
X483063Y317750D01*
X483375Y317125D01*
X483063Y316500D01*
X482437Y316187D01*
X480250D01*
Y319937D01*
X482437D01*
X483063Y319625D01*
X483375Y319000D01*
X483063Y318375D01*
X482437Y318063D01*
X480250D01*
X482437Y368063D02*
X483063Y367750D01*
X483375Y367125D01*
X483063Y366500D01*
X482437Y366187D01*
X480250D01*
Y369937D01*
X482437D01*
X483063Y369625D01*
X483375Y369000D01*
X483063Y368375D01*
X482437Y368063D01*
X480250D01*
X481352Y35243D02*
X482915Y38993D01*
X484478Y35243D01*
X481978Y36805D02*
X483852D01*
X481352Y115243D02*
X482915Y118993D01*
X484478Y115243D01*
X481978Y116805D02*
X483852D01*
X481352Y195243D02*
X482915Y198993D01*
X484478Y195243D01*
X481978Y196805D02*
X483852D01*
X492437Y68063D02*
X493063Y67750D01*
X493375Y67125D01*
X493063Y66500D01*
X492437Y66187D01*
X490250D01*
Y69937D01*
X492437D01*
X493063Y69625D01*
X493375Y69000D01*
X493063Y68375D01*
X492437Y68063D01*
X490250D01*
X492437Y148063D02*
X493063Y147750D01*
X493375Y147125D01*
X493063Y146500D01*
X492437Y146187D01*
X490250D01*
Y149937D01*
X492437D01*
X493063Y149625D01*
X493375Y149000D01*
X493063Y148375D01*
X492437Y148063D01*
X490250D01*
X492437Y228063D02*
X493063Y227750D01*
X493375Y227125D01*
X493063Y226500D01*
X492437Y226187D01*
X490250D01*
Y229937D01*
X492437D01*
X493063Y229625D01*
X493375Y229000D01*
X493063Y228375D01*
X492437Y228063D01*
X490250D01*
X492437Y318063D02*
X493063Y317750D01*
X493375Y317125D01*
X493063Y316500D01*
X492437Y316187D01*
X490250D01*
Y319937D01*
X492437D01*
X493063Y319625D01*
X493375Y319000D01*
X493063Y318375D01*
X492437Y318063D01*
X490250D01*
X492437Y368063D02*
X493063Y367750D01*
X493375Y367125D01*
X493063Y366500D01*
X492437Y366187D01*
X490250D01*
Y369937D01*
X492437D01*
X493063Y369625D01*
X493375Y369000D01*
X493063Y368375D01*
X492437Y368063D01*
X490250D01*
X493163Y35243D02*
X494726Y38993D01*
X496289Y35243D01*
X493789Y36805D02*
X495663D01*
X493163Y115243D02*
X494726Y118993D01*
X496289Y115243D01*
X493789Y116805D02*
X495663D01*
X493163Y195243D02*
X494726Y198993D01*
X496289Y195243D01*
X493789Y196805D02*
X495663D01*
X502437Y318063D02*
X503063Y317750D01*
X503375Y317125D01*
X503063Y316500D01*
X502437Y316187D01*
X500250D01*
Y319937D01*
X502437D01*
X503063Y319625D01*
X503375Y319000D01*
X503063Y318375D01*
X502437Y318063D01*
X500250D01*
X502437Y368063D02*
X503063Y367750D01*
X503375Y367125D01*
X503063Y366500D01*
X502437Y366187D01*
X500250D01*
Y369937D01*
X502437D01*
X503063Y369625D01*
X503375Y369000D01*
X503063Y368375D01*
X502437Y368063D01*
X500250D01*
X512437Y318063D02*
X513063Y317750D01*
X513375Y317125D01*
X513063Y316500D01*
X512437Y316187D01*
X510250D01*
Y319937D01*
X512437D01*
X513063Y319625D01*
X513375Y319000D01*
X513063Y318375D01*
X512437Y318063D01*
X510250D01*
X512437Y368063D02*
X513063Y367750D01*
X513375Y367125D01*
X513063Y366500D01*
X512437Y366187D01*
X510250D01*
Y369937D01*
X512437D01*
X513063Y369625D01*
X513375Y369000D01*
X513063Y368375D01*
X512437Y368063D01*
X510250D01*
X522437Y28063D02*
X523063Y27750D01*
X523375Y27125D01*
X523063Y26500D01*
X522437Y26187D01*
X520250D01*
Y29937D01*
X522437D01*
X523063Y29625D01*
X523375Y29000D01*
X523063Y28375D01*
X522437Y28063D01*
X520250D01*
X522437Y78063D02*
X523063Y77750D01*
X523375Y77125D01*
X523063Y76500D01*
X522437Y76187D01*
X520250D01*
Y79937D01*
X522437D01*
X523063Y79625D01*
X523375Y79000D01*
X523063Y78375D01*
X522437Y78063D01*
X520250D01*
X522437Y108063D02*
X523063Y107750D01*
X523375Y107125D01*
X523063Y106500D01*
X522437Y106187D01*
X520250D01*
Y109937D01*
X522437D01*
X523063Y109625D01*
X523375Y109000D01*
X523063Y108375D01*
X522437Y108063D01*
X520250D01*
X522437Y158063D02*
X523063Y157750D01*
X523375Y157125D01*
X523063Y156500D01*
X522437Y156187D01*
X520250D01*
Y159937D01*
X522437D01*
X523063Y159625D01*
X523375Y159000D01*
X523063Y158375D01*
X522437Y158063D01*
X520250D01*
X522437Y188063D02*
X523063Y187750D01*
X523375Y187125D01*
X523063Y186500D01*
X522437Y186187D01*
X520250D01*
Y189937D01*
X522437D01*
X523063Y189625D01*
X523375Y189000D01*
X523063Y188375D01*
X522437Y188063D01*
X520250D01*
X522437Y238063D02*
X523063Y237750D01*
X523375Y237125D01*
X523063Y236500D01*
X522437Y236187D01*
X520250D01*
Y239937D01*
X522437D01*
X523063Y239625D01*
X523375Y239000D01*
X523063Y238375D01*
X522437Y238063D01*
X520250D01*
X522437Y318063D02*
X523063Y317750D01*
X523375Y317125D01*
X523063Y316500D01*
X522437Y316187D01*
X520250D01*
Y319937D01*
X522437D01*
X523063Y319625D01*
X523375Y319000D01*
X523063Y318375D01*
X522437Y318063D01*
X520250D01*
X522437Y368063D02*
X523063Y367750D01*
X523375Y367125D01*
X523063Y366500D01*
X522437Y366187D01*
X520250D01*
Y369937D01*
X522437D01*
X523063Y369625D01*
X523375Y369000D01*
X523063Y368375D01*
X522437Y368063D01*
X520250D01*
X532437Y318063D02*
X533063Y317750D01*
X533375Y317125D01*
X533063Y316500D01*
X532437Y316187D01*
X530250D01*
Y319937D01*
X532437D01*
X533063Y319625D01*
X533375Y319000D01*
X533063Y318375D01*
X532437Y318063D01*
X530250D01*
X532437Y368063D02*
X533063Y367750D01*
X533375Y367125D01*
X533063Y366500D01*
X532437Y366187D01*
X530250D01*
Y369937D01*
X532437D01*
X533063Y369625D01*
X533375Y369000D01*
X533063Y368375D01*
X532437Y368063D01*
X530250D01*
X542437Y318063D02*
X543063Y317750D01*
X543375Y317125D01*
X543063Y316500D01*
X542437Y316187D01*
X540250D01*
Y319937D01*
X542437D01*
X543063Y319625D01*
X543375Y319000D01*
X543063Y318375D01*
X542437Y318063D01*
X540250D01*
X542437Y368063D02*
X543063Y367750D01*
X543375Y367125D01*
X543063Y366500D01*
X542437Y366187D01*
X540250D01*
Y369937D01*
X542437D01*
X543063Y369625D01*
X543375Y369000D01*
X543063Y368375D01*
X542437Y368063D01*
X540250D01*
X547337Y67132D02*
X548899Y70882D01*
X550462Y67132D01*
X547962Y68695D02*
X549837D01*
X547337Y147132D02*
X548899Y150882D01*
X550462Y147132D01*
X547962Y148695D02*
X549837D01*
X547337Y227132D02*
X548899Y230882D01*
X550462Y227132D01*
X547962Y228695D02*
X549837D01*
X552437Y38063D02*
X553063Y37750D01*
X553375Y37125D01*
X553063Y36500D01*
X552437Y36187D01*
X550250D01*
Y39937D01*
X552437D01*
X553063Y39625D01*
X553375Y39000D01*
X553063Y38375D01*
X552437Y38063D01*
X550250D01*
X552437Y118063D02*
X553063Y117750D01*
X553375Y117125D01*
X553063Y116500D01*
X552437Y116187D01*
X550250D01*
Y119937D01*
X552437D01*
X553063Y119625D01*
X553375Y119000D01*
X553063Y118375D01*
X552437Y118063D01*
X550250D01*
X552437Y198063D02*
X553063Y197750D01*
X553375Y197125D01*
X553063Y196500D01*
X552437Y196187D01*
X550250D01*
Y199937D01*
X552437D01*
X553063Y199625D01*
X553375Y199000D01*
X553063Y198375D01*
X552437Y198063D01*
X550250D01*
X552437Y318063D02*
X553063Y317750D01*
X553375Y317125D01*
X553063Y316500D01*
X552437Y316187D01*
X550250D01*
Y319937D01*
X552437D01*
X553063Y319625D01*
X553375Y319000D01*
X553063Y318375D01*
X552437Y318063D01*
X550250D01*
X552437Y368063D02*
X553063Y367750D01*
X553375Y367125D01*
X553063Y366500D01*
X552437Y366187D01*
X550250D01*
Y369937D01*
X552437D01*
X553063Y369625D01*
X553375Y369000D01*
X553063Y368375D01*
X552437Y368063D01*
X550250D01*
X559148Y67132D02*
X560710Y70882D01*
X562273Y67132D01*
X559773Y68695D02*
X561648D01*
X559148Y147132D02*
X560710Y150882D01*
X562273Y147132D01*
X559773Y148695D02*
X561648D01*
X559148Y227132D02*
X560710Y230882D01*
X562273Y227132D01*
X559773Y228695D02*
X561648D01*
X562437Y38063D02*
X563063Y37750D01*
X563375Y37125D01*
X563063Y36500D01*
X562437Y36187D01*
X560250D01*
Y39937D01*
X562437D01*
X563063Y39625D01*
X563375Y39000D01*
X563063Y38375D01*
X562437Y38063D01*
X560250D01*
X562437Y118063D02*
X563063Y117750D01*
X563375Y117125D01*
X563063Y116500D01*
X562437Y116187D01*
X560250D01*
Y119937D01*
X562437D01*
X563063Y119625D01*
X563375Y119000D01*
X563063Y118375D01*
X562437Y118063D01*
X560250D01*
X562437Y198063D02*
X563063Y197750D01*
X563375Y197125D01*
X563063Y196500D01*
X562437Y196187D01*
X560250D01*
Y199937D01*
X562437D01*
X563063Y199625D01*
X563375Y199000D01*
X563063Y198375D01*
X562437Y198063D01*
X560250D01*
X562437Y318063D02*
X563063Y317750D01*
X563375Y317125D01*
X563063Y316500D01*
X562437Y316187D01*
X560250D01*
Y319937D01*
X562437D01*
X563063Y319625D01*
X563375Y319000D01*
X563063Y318375D01*
X562437Y318063D01*
X560250D01*
X562437Y368063D02*
X563063Y367750D01*
X563375Y367125D01*
X563063Y366500D01*
X562437Y366187D01*
X560250D01*
Y369937D01*
X562437D01*
X563063Y369625D01*
X563375Y369000D01*
X563063Y368375D01*
X562437Y368063D01*
X560250D01*
X570959Y67132D02*
X572521Y70882D01*
X574084Y67132D01*
X571584Y68695D02*
X573459D01*
X570959Y147132D02*
X572521Y150882D01*
X574084Y147132D01*
X571584Y148695D02*
X573459D01*
X570959Y227132D02*
X572521Y230882D01*
X574084Y227132D01*
X571584Y228695D02*
X573459D01*
X0Y0D02*
M02*
