G05
M48
;#@! TF.GenerationSoftware,DesignSpark,DesignSpark PCB,12.0.5940
;#@! TF.CreationDate,2024-12-01T19:44:29+06:00*
;#@! TF.FileFunction,Plated,1,2,PTH
;FILE_FORMAT=3:5
;TYPE=PLATED
INCH,TZ
FMAT,2
T1C000.03500
T2C000.03543
%
T001
X0.20250Y0.70250
X0.20250Y0.80250
X0.20250Y0.90250
X0.20250Y1.00250
X0.20250Y1.10250
X0.20250Y1.20250
X0.20250Y1.30250
X0.20250Y1.40250
X0.20250Y1.50250
X0.20250Y1.60250
X0.20250Y1.70250
X0.20250Y1.80250
X0.20250Y1.90250
X0.20250Y2.00250
X0.20250Y3.20250
X0.20250Y3.30250
X0.20250Y3.40250
X0.20250Y3.50250
X0.20250Y3.60250
X0.70250Y0.70250
X0.70250Y0.80250
X0.70250Y0.90250
X0.70250Y1.00250
X0.70250Y1.10250
X0.70250Y1.20250
X0.70250Y1.30250
X0.70250Y1.40250
X0.70250Y1.50250
X0.70250Y1.60250
X0.70250Y1.70250
X0.70250Y1.80250
X0.70250Y1.90250
X0.70250Y2.00250
X0.70250Y3.20250
X0.70250Y3.30250
X0.70250Y3.40250
X0.70250Y3.50250
X0.70250Y3.60250
X1.20250Y0.40250
X1.20250Y0.50250
X1.20250Y0.60250
X1.20250Y0.70250
X1.20250Y0.80250
X1.20250Y2.30250
X1.20250Y2.40250
X1.20250Y2.50250
X1.20250Y2.60250
X1.20250Y2.70250
X1.20250Y2.80250
X1.20250Y2.90250
X1.20250Y3.00250
X1.20250Y3.10250
X1.20250Y3.20250
X1.20250Y3.30250
X1.20250Y3.40250
X1.20250Y3.50250
X1.20250Y3.60250
X1.70250Y0.40250
X1.70250Y0.50250
X1.70250Y0.60250
X1.70250Y0.70250
X1.70250Y0.80250
X1.70250Y2.30250
X1.70250Y2.40250
X1.70250Y2.50250
X1.70250Y2.60250
X1.70250Y2.70250
X1.70250Y2.80250
X1.70250Y2.90250
X1.70250Y3.00250
X1.70250Y3.10250
X1.70250Y3.20250
X1.70250Y3.30250
X1.70250Y3.40250
X1.70250Y3.50250
X1.70250Y3.60250
X2.20250Y0.20250
X2.20250Y0.30250
X2.20250Y0.40250
X2.20250Y0.50250
X2.20250Y0.60250
X2.20250Y1.10250
X2.20250Y1.20250
X2.20250Y2.50250
X2.20250Y2.60250
X2.20250Y2.70250
X2.20250Y2.80250
X2.20250Y2.90250
X2.20250Y3.00250
X2.20250Y3.10250
X2.20250Y3.20250
X2.20250Y3.30250
X2.20250Y3.40250
X2.20250Y3.50250
X2.20250Y3.60250
X2.70250Y0.20250
X2.70250Y0.30250
X2.70250Y0.40250
X2.70250Y0.50250
X2.70250Y0.60250
X2.70250Y1.10250
X2.70250Y1.20250
X2.70250Y2.50250
X2.70250Y2.60250
X2.70250Y2.70250
X2.70250Y2.80250
X2.70250Y2.90250
X2.70250Y3.00250
X2.70250Y3.10250
X2.70250Y3.20250
X2.70250Y3.30250
X2.70250Y3.40250
X2.70250Y3.50250
X2.70250Y3.60250
X3.20250Y0.20250
X3.20250Y0.70250
X3.20250Y1.20250
X3.20250Y1.70250
X3.20250Y3.10015
X3.20250Y3.60250
X3.30250Y0.20250
X3.30250Y0.70250
X3.30250Y1.20250
X3.30250Y1.70250
X3.30250Y2.50250
X3.30250Y3.10015
X3.30250Y3.60250
X3.40250Y0.20250
X3.40250Y0.70250
X3.40250Y1.20250
X3.40250Y1.70250
X3.40250Y2.50250
X3.40250Y3.10015
X3.40250Y3.60250
X3.50250Y0.20250
X3.50250Y0.70250
X3.50250Y1.20485
X3.50250Y1.70250
X3.50250Y3.10015
X3.50250Y3.60250
X3.60250Y0.20250
X3.60250Y0.70250
X3.60250Y1.20485
X3.60250Y1.70250
X3.60250Y3.10250
X3.60250Y3.60250
X3.70250Y0.20250
X3.70250Y0.70250
X3.70250Y1.20485
X3.70250Y1.70250
X3.70250Y2.10250
X3.70250Y2.60250
X3.70250Y3.10250
X3.70250Y3.60250
X3.80250Y0.20250
X3.80250Y0.70250
X3.80250Y1.20485
X3.80250Y1.70250
X3.80250Y3.10250
X3.80250Y3.60250
X3.90250Y0.20250
X3.90250Y0.70250
X3.90250Y1.20485
X3.90250Y1.70250
X3.90250Y3.10250
X3.90250Y3.60250
X4.00250Y0.20250
X4.00250Y0.70250
X4.00250Y1.20485
X4.00250Y1.70250
X4.00250Y2.20250
X4.00250Y3.10250
X4.00250Y3.60250
X4.10250Y0.20250
X4.10250Y0.70250
X4.10250Y1.20485
X4.10250Y1.70250
X4.10250Y2.20250
X4.10250Y3.10250
X4.10250Y3.60250
X4.20250Y0.20250
X4.20250Y0.70250
X4.20250Y1.20485
X4.20250Y1.70250
X4.20250Y3.10250
X4.20250Y3.60250
X4.30250Y3.10250
X4.30250Y3.60250
X4.40250Y3.10250
X4.40250Y3.60250
X4.50250Y3.10250
X4.50250Y3.60250
X4.60250Y3.10250
X4.60250Y3.60250
X4.70250Y0.60250
X4.70250Y1.40250
X4.70250Y2.20250
X4.70250Y3.10250
X4.70250Y3.60250
X4.80250Y0.60250
X4.80250Y1.40250
X4.80250Y2.20250
X4.80250Y3.10250
X4.80250Y3.60250
X4.90250Y3.10250
X4.90250Y3.60250
X5.00250Y3.10250
X5.00250Y3.60250
X5.10250Y0.20250
X5.10250Y0.70250
X5.10250Y1.00250
X5.10250Y1.50250
X5.10250Y1.80250
X5.10250Y2.30250
X5.10250Y3.10250
X5.10250Y3.60250
X5.20250Y3.10250
X5.20250Y3.60250
X5.30250Y3.10250
X5.30250Y3.60250
X5.40250Y0.30250
X5.40250Y1.10250
X5.40250Y1.90250
X5.40250Y3.10250
X5.40250Y3.60250
X5.50250Y0.30250
X5.50250Y1.10250
X5.50250Y1.90250
X5.50250Y3.10250
X5.50250Y3.60250
T002
X3.19541Y2.19305
X3.31352Y2.19305
X3.43163Y2.19305
X3.97337Y2.51195
X4.09148Y2.51195
X4.20959Y2.51195
X4.59541Y0.29305
X4.59541Y1.09305
X4.59541Y1.89305
X4.71352Y0.29305
X4.71352Y1.09305
X4.71352Y1.89305
X4.83163Y0.29305
X4.83163Y1.09305
X4.83163Y1.89305
X5.37337Y0.61195
X5.37337Y1.41195
X5.37337Y2.21195
X5.49148Y0.61195
X5.49148Y1.41195
X5.49148Y2.21195
X5.60959Y0.61195
X5.60959Y1.41195
X5.60959Y2.21195
M30
