G04 DesignSpark PCB Gerber Version 12.0 Build 5941*
G04 #@! TF.Part,Single*
%FSLAX35Y35*%
%MOIN*%
%ADD17C,0.00500*%
G04 #@! TD.AperFunction*
X0Y0D02*
D02*
D17*
X90250Y50250D02*
X250D01*
Y210250D01*
G75*
G02*
X10250Y220250I10000J0D01*
G01*
X20250D01*
G75*
G03*
X30250Y230250I0J10000D01*
G01*
Y290250D01*
G75*
G03*
X20250Y300250I-10000J0D01*
G01*
X10250D01*
G75*
G02*
X250Y310250I0J10000D01*
G01*
Y380250D01*
X90250D01*
Y310250D01*
G75*
G02*
X80250Y300250I-10000J0D01*
G01*
X70250D01*
G75*
G03*
X60250Y290250I0J-10000D01*
G01*
Y230250D01*
G75*
G03*
X70250Y220250I10000J0D01*
G01*
X80250D01*
G75*
G02*
X90250Y210250I0J-10000D01*
G01*
Y50250D01*
X100250Y380250D02*
X190250D01*
Y220250D01*
G75*
G02*
X180250Y210250I-10000J0D01*
G01*
X170250D01*
G75*
G03*
X160250Y200250I0J-10000D01*
G01*
Y110250D01*
G75*
G03*
X170250Y100250I10000J0D01*
G01*
X180250D01*
G75*
G02*
X190250Y90250I0J-10000D01*
G01*
Y20250D01*
X100250D01*
Y90250D01*
G75*
G02*
X110250Y100250I10000J0D01*
G01*
X120250D01*
G75*
G03*
X130250Y110250I0J10000D01*
G01*
Y200250D01*
G75*
G03*
X120250Y210250I-10000J0D01*
G01*
X110250D01*
G75*
G02*
X100250Y220250I0J10000D01*
G01*
Y380250D01*
X200250Y80250D02*
X290250D01*
Y250D01*
X200250D01*
Y80250D01*
X290250Y90250D02*
Y130250D01*
G75*
G03*
X280250Y140250I-10000J0D01*
G01*
X270250D01*
G75*
G02*
X260250Y150250I0J10000D01*
G01*
Y220250D01*
G75*
G02*
X270250Y230250I10000J0D01*
G01*
X280250D01*
G75*
G03*
X290250Y240250I0J10000D01*
G01*
Y380250D01*
X200250D01*
Y240250D01*
G75*
G03*
X210250Y230250I10000J0D01*
G01*
X220250D01*
G75*
G02*
X230250Y220250I0J-10000D01*
G01*
Y150250D01*
G75*
G02*
X220250Y140250I-10000J0D01*
G01*
X210250D01*
G75*
G03*
X200250Y130250I0J-10000D01*
G01*
Y90250D01*
X290250D01*
X300250Y250D02*
Y90250D01*
X440250D01*
Y250D01*
X300250D01*
X340250Y270250D02*
X320250D01*
G75*
G03*
X310250Y260250I0J-10000D01*
G01*
Y210250D01*
G75*
G03*
X320250Y200250I10000J0D01*
G01*
X370250D01*
G75*
G03*
X380250Y210250I0J10000D01*
G01*
G75*
G03*
X370250Y220250I-10000J0D01*
G01*
G75*
G02*
X350250Y240250I0J20000D01*
G01*
Y260250D01*
G75*
G03*
X340250Y270250I-10000J0D01*
G01*
X400250Y200250D02*
X420250D01*
G75*
G03*
X430250Y210250I0J10000D01*
G01*
Y260250D01*
G75*
G03*
X420250Y270250I-10000J0D01*
G01*
X370250D01*
G75*
G03*
X360250Y260250I0J-10000D01*
G01*
G75*
G03*
X370250Y250250I10000J0D01*
G01*
G75*
G02*
X390250Y230250I0J-20000D01*
G01*
Y210250D01*
G75*
G03*
X400250Y200250I10000J0D01*
G01*
X440250Y190250D02*
X300250D01*
Y100250D01*
X440250D01*
Y190250D01*
X480250Y80250D02*
X460250D01*
G75*
G03*
X450250Y70250I0J-10000D01*
G01*
Y20250D01*
G75*
G03*
X460250Y10250I10000J0D01*
G01*
X510250D01*
G75*
G03*
X520250Y20250I0J10000D01*
G01*
G75*
G03*
X510250Y30250I-10000J0D01*
G01*
G75*
G02*
X490250Y50250I0J20000D01*
G01*
Y70250D01*
G75*
G03*
X480250Y80250I-10000J0D01*
G01*
Y160250D02*
X460250D01*
G75*
G03*
X450250Y150250I0J-10000D01*
G01*
Y100250D01*
G75*
G03*
X460250Y90250I10000J0D01*
G01*
X510250D01*
G75*
G03*
X520250Y100250I0J10000D01*
G01*
G75*
G03*
X510250Y110250I-10000J0D01*
G01*
G75*
G02*
X490250Y130250I0J20000D01*
G01*
Y150250D01*
G75*
G03*
X480250Y160250I-10000J0D01*
G01*
Y240250D02*
X460250D01*
G75*
G03*
X450250Y230250I0J-10000D01*
G01*
Y180250D01*
G75*
G03*
X460250Y170250I10000J0D01*
G01*
X510250D01*
G75*
G03*
X520250Y180250I0J10000D01*
G01*
G75*
G03*
X510250Y190250I-10000J0D01*
G01*
G75*
G02*
X490250Y210250I0J20000D01*
G01*
Y230250D01*
G75*
G03*
X480250Y240250I-10000J0D01*
G01*
X540250Y10250D02*
X560250D01*
G75*
G03*
X570250Y20250I0J10000D01*
G01*
Y70250D01*
G75*
G03*
X560250Y80250I-10000J0D01*
G01*
X510250D01*
G75*
G03*
X500250Y70250I0J-10000D01*
G01*
G75*
G03*
X510250Y60250I10000J0D01*
G01*
G75*
G02*
X530250Y40250I0J-20000D01*
G01*
Y20250D01*
G75*
G03*
X540250Y10250I10000J0D01*
G01*
Y90250D02*
X560250D01*
G75*
G03*
X570250Y100250I0J10000D01*
G01*
Y150250D01*
G75*
G03*
X560250Y160250I-10000J0D01*
G01*
X510250D01*
G75*
G03*
X500250Y150250I0J-10000D01*
G01*
G75*
G03*
X510250Y140250I10000J0D01*
G01*
G75*
G02*
X530250Y120250I0J-20000D01*
G01*
Y100250D01*
G75*
G03*
X540250Y90250I10000J0D01*
G01*
Y170250D02*
X560250D01*
G75*
G03*
X570250Y180250I0J10000D01*
G01*
Y230250D01*
G75*
G03*
X560250Y240250I-10000J0D01*
G01*
X510250D01*
G75*
G03*
X500250Y230250I0J-10000D01*
G01*
G75*
G03*
X510250Y220250I10000J0D01*
G01*
G75*
G02*
X530250Y200250I0J-20000D01*
G01*
Y180250D01*
G75*
G03*
X540250Y170250I10000J0D01*
G01*
X570250Y380250D02*
X300250D01*
Y290250D01*
X570250D01*
Y380250D01*
X0Y0D02*
M02*
