G04 DesignSpark PCB Gerber Version 12.0 Build 5941*
G04 #@! TF.Part,Single*
G04 #@! TF.FileFunction,Drillmap*
G04 #@! TF.FilePolarity,Positive*
%FSLAX35Y35*%
%MOIN*%
%ADD15C,0.00500*%
G04 #@! TA.AperFunction,WasherPad*
%ADD14C,0.10000*%
G04 #@! TD.AperFunction*
X0Y0D02*
D02*
D14*
X20250Y120250D03*
Y130250D03*
Y140250D03*
Y150250D03*
Y160250D03*
Y170250D03*
Y180250D03*
Y190250D03*
Y200250D03*
Y210250D03*
Y220250D03*
Y230250D03*
X30250Y120250D03*
Y130250D03*
Y140250D03*
Y150250D03*
Y160250D03*
Y170250D03*
Y180250D03*
Y190250D03*
Y200250D03*
Y210250D03*
Y220250D03*
Y230250D03*
Y310250D03*
Y350250D03*
X40250Y310250D03*
Y350250D03*
X50250Y310250D03*
Y350250D03*
X60250Y120250D03*
Y130250D03*
Y140250D03*
Y150250D03*
Y160250D03*
Y170250D03*
Y180250D03*
Y190250D03*
Y200250D03*
Y210250D03*
Y220250D03*
Y230250D03*
Y310250D03*
Y350250D03*
X70250Y120250D03*
Y130250D03*
Y140250D03*
Y150250D03*
Y160250D03*
Y170250D03*
Y180250D03*
Y190250D03*
Y200250D03*
Y210250D03*
Y220250D03*
Y230250D03*
Y310250D03*
Y350250D03*
X80250Y310250D03*
Y350250D03*
X90250Y310250D03*
Y350250D03*
X100250Y310250D03*
Y350250D03*
X110250Y310250D03*
Y350250D03*
X120250Y220250D03*
Y260250D03*
Y310250D03*
Y350250D03*
X130250Y220250D03*
Y260250D03*
Y310250D03*
Y350250D03*
X140250Y220250D03*
Y260250D03*
Y310250D03*
Y350250D03*
X150250Y220250D03*
Y260250D03*
Y310250D03*
Y350250D03*
X160250Y220250D03*
Y260250D03*
Y310250D03*
Y350250D03*
X170250Y220250D03*
Y260250D03*
Y310250D03*
Y350250D03*
X180250Y220250D03*
Y260250D03*
Y310250D03*
Y350250D03*
X190250Y220250D03*
Y260250D03*
Y310250D03*
Y350250D03*
X200250Y220250D03*
Y260250D03*
Y310250D03*
Y350250D03*
X210250Y220250D03*
Y260250D03*
Y310250D03*
Y350250D03*
X220250Y120250D03*
Y170250D03*
Y220250D03*
Y260250D03*
Y310250D03*
Y350250D03*
X230250Y120250D03*
Y170250D03*
Y220250D03*
Y260250D03*
Y310250D03*
Y350485D03*
X240250Y120250D03*
Y170250D03*
Y220250D03*
Y260250D03*
Y310250D03*
Y350485D03*
X250250Y120250D03*
Y170250D03*
Y220250D03*
Y260250D03*
Y310250D03*
Y350485D03*
X260250Y120250D03*
Y170250D03*
Y220250D03*
Y260250D03*
Y310250D03*
Y350485D03*
X270250Y120250D03*
Y170250D03*
Y220250D03*
Y260250D03*
X280250Y120250D03*
Y170250D03*
Y220250D03*
Y260250D03*
X290250Y120250D03*
Y170250D03*
Y220250D03*
Y260250D03*
X300250Y120250D03*
Y170250D03*
Y220250D03*
Y260250D03*
X310250Y120250D03*
Y170250D03*
Y220250D03*
Y260250D03*
Y310250D03*
Y320250D03*
Y350250D03*
X320250Y120250D03*
Y170250D03*
Y220250D03*
Y260485D03*
Y310250D03*
Y320250D03*
Y350250D03*
X330250Y220250D03*
Y260485D03*
Y310250D03*
Y320250D03*
Y350250D03*
X340250Y220250D03*
Y260485D03*
Y310250D03*
Y320250D03*
Y350250D03*
X350250Y220250D03*
Y260485D03*
Y310250D03*
Y320250D03*
Y350250D03*
X360250Y310015D03*
Y320015D03*
Y350015D03*
X370250Y310015D03*
Y320015D03*
Y350015D03*
X380250Y310015D03*
Y320015D03*
Y350015D03*
X390250Y310015D03*
Y320015D03*
Y350015D03*
X400250Y220250D03*
Y250250D03*
Y260250D03*
Y310250D03*
Y320250D03*
Y350250D03*
X410250Y220250D03*
Y250250D03*
Y260250D03*
Y310250D03*
Y320250D03*
Y350250D03*
X420250Y220250D03*
Y250250D03*
Y260250D03*
Y310250D03*
Y320250D03*
Y350250D03*
X430250Y220250D03*
Y250250D03*
Y260250D03*
Y310250D03*
Y320250D03*
Y350250D03*
X440250Y220250D03*
Y250250D03*
Y260250D03*
Y310250D03*
Y320250D03*
Y350250D03*
X450250Y220250D03*
Y250250D03*
Y260250D03*
Y310250D03*
Y320250D03*
Y350250D03*
X460250Y120250D03*
Y130250D03*
Y160250D03*
Y170250D03*
Y220250D03*
Y250250D03*
Y260250D03*
X470250Y120250D03*
Y130250D03*
Y160250D03*
Y170250D03*
Y220250D03*
Y250250D03*
Y260250D03*
X480250Y120250D03*
Y130250D03*
Y160250D03*
Y170250D03*
Y220250D03*
Y250250D03*
Y260250D03*
X490250Y120250D03*
Y130250D03*
Y160250D03*
Y170250D03*
Y220250D03*
Y250250D03*
Y260250D03*
X500250Y120250D03*
Y130250D03*
Y160250D03*
Y170250D03*
Y220250D03*
Y250250D03*
Y260250D03*
Y310250D03*
Y340250D03*
Y350250D03*
X510250Y120250D03*
Y130250D03*
Y160250D03*
Y170250D03*
Y220250D03*
Y250250D03*
Y260250D03*
Y310250D03*
Y340250D03*
Y350250D03*
X520250Y120250D03*
Y130250D03*
Y160250D03*
Y170250D03*
Y220250D03*
Y250250D03*
Y260250D03*
Y310250D03*
Y340250D03*
Y350250D03*
X530250Y20250D03*
Y70250D03*
Y120250D03*
Y130250D03*
Y160250D03*
Y170250D03*
Y220250D03*
Y250250D03*
Y260250D03*
Y310250D03*
Y340250D03*
Y350250D03*
X540250Y20250D03*
Y70250D03*
Y120250D03*
Y130250D03*
Y160250D03*
Y170250D03*
Y220250D03*
Y250250D03*
Y260250D03*
Y310250D03*
Y340250D03*
Y350250D03*
X550250Y20250D03*
Y70250D03*
Y120250D03*
Y130250D03*
Y160250D03*
Y170250D03*
Y220250D03*
Y250250D03*
Y260250D03*
Y310250D03*
Y340250D03*
Y350250D03*
X560250Y20250D03*
Y70250D03*
Y120250D03*
Y130250D03*
Y160250D03*
Y170250D03*
Y220250D03*
Y250250D03*
Y260250D03*
Y310250D03*
Y340250D03*
Y350250D03*
X570250Y20250D03*
Y70250D03*
Y120250D03*
Y130250D03*
Y160250D03*
Y170250D03*
Y220250D03*
Y250250D03*
Y260250D03*
Y310250D03*
Y340250D03*
Y350250D03*
X580250Y20250D03*
Y70250D03*
Y220250D03*
Y250250D03*
Y260250D03*
Y310250D03*
Y340250D03*
Y350250D03*
X590250Y20250D03*
Y70250D03*
Y220250D03*
Y250250D03*
Y260250D03*
Y310250D03*
Y340250D03*
Y350250D03*
X600250Y20250D03*
Y70250D03*
Y220250D03*
Y250250D03*
Y260250D03*
Y310250D03*
Y340250D03*
Y350250D03*
X610250Y20250D03*
Y70250D03*
Y220250D03*
Y250250D03*
Y260250D03*
Y310250D03*
Y340250D03*
Y350250D03*
X620250Y20250D03*
Y70250D03*
Y120015D03*
Y150015D03*
Y160015D03*
Y220250D03*
Y250250D03*
Y260250D03*
Y310250D03*
Y340250D03*
Y350250D03*
X630250Y20250D03*
Y70250D03*
Y120015D03*
Y150015D03*
Y160015D03*
Y220250D03*
Y250250D03*
Y260250D03*
Y310250D03*
Y340250D03*
Y350250D03*
X640250Y20250D03*
Y70250D03*
Y120250D03*
Y150250D03*
Y160250D03*
Y220250D03*
Y250250D03*
Y260250D03*
Y310250D03*
Y340250D03*
Y350250D03*
X650250Y20250D03*
Y70250D03*
Y120250D03*
Y150250D03*
Y160250D03*
X660250Y20250D03*
Y70250D03*
Y120250D03*
Y150250D03*
Y160250D03*
X670250Y20250D03*
Y70250D03*
Y120250D03*
Y150250D03*
Y160250D03*
X680250Y20250D03*
Y70250D03*
Y120250D03*
Y150250D03*
Y160250D03*
X690250Y20250D03*
Y70250D03*
Y120250D03*
Y150250D03*
Y160250D03*
Y200250D03*
Y210250D03*
Y220250D03*
Y230250D03*
Y240250D03*
Y250250D03*
Y260250D03*
Y300250D03*
Y310250D03*
Y320250D03*
Y330250D03*
Y340250D03*
Y350250D03*
X700250Y120250D03*
Y150250D03*
Y160250D03*
Y200250D03*
Y210250D03*
Y220250D03*
Y230250D03*
Y240250D03*
Y250250D03*
Y260250D03*
Y300250D03*
Y310250D03*
Y320250D03*
Y330250D03*
Y340250D03*
Y350250D03*
X710250Y120250D03*
Y150250D03*
Y160250D03*
X720250Y120250D03*
Y150250D03*
Y160250D03*
X730250Y120250D03*
Y150250D03*
Y160250D03*
Y200250D03*
Y210250D03*
Y220250D03*
Y230250D03*
Y240250D03*
Y250250D03*
Y260250D03*
Y300250D03*
Y310250D03*
Y320250D03*
Y330250D03*
Y340250D03*
Y350250D03*
X780015Y230250D03*
Y240250D03*
Y250250D03*
Y260250D03*
Y270250D03*
X780250Y40250D03*
Y50250D03*
Y60250D03*
Y70250D03*
Y80250D03*
Y90250D03*
Y100250D03*
Y110250D03*
Y120250D03*
Y130250D03*
Y140250D03*
Y150250D03*
Y160250D03*
Y170250D03*
Y180250D03*
Y190250D03*
Y200250D03*
Y210250D03*
Y220250D03*
X810015Y230250D03*
Y240250D03*
Y250250D03*
Y260250D03*
Y270250D03*
X810250Y40250D03*
Y50250D03*
Y60250D03*
Y70250D03*
Y80250D03*
Y90250D03*
Y100250D03*
Y110250D03*
Y120250D03*
Y130250D03*
Y140250D03*
Y150250D03*
Y160250D03*
Y170250D03*
Y180250D03*
Y190250D03*
Y200250D03*
Y210250D03*
Y220250D03*
X820015Y230250D03*
Y240250D03*
Y250250D03*
Y260250D03*
Y270250D03*
X820250Y40250D03*
Y50250D03*
Y60250D03*
Y70250D03*
Y80250D03*
Y90250D03*
Y100250D03*
Y110250D03*
Y120250D03*
Y130250D03*
Y140250D03*
Y150250D03*
Y160250D03*
Y170250D03*
Y180250D03*
Y190250D03*
Y200250D03*
Y210250D03*
Y220250D03*
D02*
D15*
X32437Y128063D02*
X33063Y127750D01*
X33375Y127125D01*
X33063Y126500D01*
X32437Y126187D01*
X30250D01*
Y129937D01*
X32437D01*
X33063Y129625D01*
X33375Y129000D01*
X33063Y128375D01*
X32437Y128063D01*
X30250D01*
X32437Y138063D02*
X33063Y137750D01*
X33375Y137125D01*
X33063Y136500D01*
X32437Y136187D01*
X30250D01*
Y139937D01*
X32437D01*
X33063Y139625D01*
X33375Y139000D01*
X33063Y138375D01*
X32437Y138063D01*
X30250D01*
X32437Y148063D02*
X33063Y147750D01*
X33375Y147125D01*
X33063Y146500D01*
X32437Y146187D01*
X30250D01*
Y149937D01*
X32437D01*
X33063Y149625D01*
X33375Y149000D01*
X33063Y148375D01*
X32437Y148063D01*
X30250D01*
X32437Y158063D02*
X33063Y157750D01*
X33375Y157125D01*
X33063Y156500D01*
X32437Y156187D01*
X30250D01*
Y159937D01*
X32437D01*
X33063Y159625D01*
X33375Y159000D01*
X33063Y158375D01*
X32437Y158063D01*
X30250D01*
X32437Y168063D02*
X33063Y167750D01*
X33375Y167125D01*
X33063Y166500D01*
X32437Y166187D01*
X30250D01*
Y169937D01*
X32437D01*
X33063Y169625D01*
X33375Y169000D01*
X33063Y168375D01*
X32437Y168063D01*
X30250D01*
X32437Y178063D02*
X33063Y177750D01*
X33375Y177125D01*
X33063Y176500D01*
X32437Y176187D01*
X30250D01*
Y179937D01*
X32437D01*
X33063Y179625D01*
X33375Y179000D01*
X33063Y178375D01*
X32437Y178063D01*
X30250D01*
X32437Y188063D02*
X33063Y187750D01*
X33375Y187125D01*
X33063Y186500D01*
X32437Y186187D01*
X30250D01*
Y189937D01*
X32437D01*
X33063Y189625D01*
X33375Y189000D01*
X33063Y188375D01*
X32437Y188063D01*
X30250D01*
X32437Y198063D02*
X33063Y197750D01*
X33375Y197125D01*
X33063Y196500D01*
X32437Y196187D01*
X30250D01*
Y199937D01*
X32437D01*
X33063Y199625D01*
X33375Y199000D01*
X33063Y198375D01*
X32437Y198063D01*
X30250D01*
X32437Y208063D02*
X33063Y207750D01*
X33375Y207125D01*
X33063Y206500D01*
X32437Y206187D01*
X30250D01*
Y209937D01*
X32437D01*
X33063Y209625D01*
X33375Y209000D01*
X33063Y208375D01*
X32437Y208063D01*
X30250D01*
X32437Y218063D02*
X33063Y217750D01*
X33375Y217125D01*
X33063Y216500D01*
X32437Y216187D01*
X30250D01*
Y219937D01*
X32437D01*
X33063Y219625D01*
X33375Y219000D01*
X33063Y218375D01*
X32437Y218063D01*
X30250D01*
X32437Y228063D02*
X33063Y227750D01*
X33375Y227125D01*
X33063Y226500D01*
X32437Y226187D01*
X30250D01*
Y229937D01*
X32437D01*
X33063Y229625D01*
X33375Y229000D01*
X33063Y228375D01*
X32437Y228063D01*
X30250D01*
X32437Y238063D02*
X33063Y237750D01*
X33375Y237125D01*
X33063Y236500D01*
X32437Y236187D01*
X30250D01*
Y239937D01*
X32437D01*
X33063Y239625D01*
X33375Y239000D01*
X33063Y238375D01*
X32437Y238063D01*
X30250D01*
X42437Y128063D02*
X43063Y127750D01*
X43375Y127125D01*
X43063Y126500D01*
X42437Y126187D01*
X40250D01*
Y129937D01*
X42437D01*
X43063Y129625D01*
X43375Y129000D01*
X43063Y128375D01*
X42437Y128063D01*
X40250D01*
X42437Y138063D02*
X43063Y137750D01*
X43375Y137125D01*
X43063Y136500D01*
X42437Y136187D01*
X40250D01*
Y139937D01*
X42437D01*
X43063Y139625D01*
X43375Y139000D01*
X43063Y138375D01*
X42437Y138063D01*
X40250D01*
X42437Y148063D02*
X43063Y147750D01*
X43375Y147125D01*
X43063Y146500D01*
X42437Y146187D01*
X40250D01*
Y149937D01*
X42437D01*
X43063Y149625D01*
X43375Y149000D01*
X43063Y148375D01*
X42437Y148063D01*
X40250D01*
X42437Y158063D02*
X43063Y157750D01*
X43375Y157125D01*
X43063Y156500D01*
X42437Y156187D01*
X40250D01*
Y159937D01*
X42437D01*
X43063Y159625D01*
X43375Y159000D01*
X43063Y158375D01*
X42437Y158063D01*
X40250D01*
X42437Y168063D02*
X43063Y167750D01*
X43375Y167125D01*
X43063Y166500D01*
X42437Y166187D01*
X40250D01*
Y169937D01*
X42437D01*
X43063Y169625D01*
X43375Y169000D01*
X43063Y168375D01*
X42437Y168063D01*
X40250D01*
X42437Y178063D02*
X43063Y177750D01*
X43375Y177125D01*
X43063Y176500D01*
X42437Y176187D01*
X40250D01*
Y179937D01*
X42437D01*
X43063Y179625D01*
X43375Y179000D01*
X43063Y178375D01*
X42437Y178063D01*
X40250D01*
X42437Y188063D02*
X43063Y187750D01*
X43375Y187125D01*
X43063Y186500D01*
X42437Y186187D01*
X40250D01*
Y189937D01*
X42437D01*
X43063Y189625D01*
X43375Y189000D01*
X43063Y188375D01*
X42437Y188063D01*
X40250D01*
X42437Y198063D02*
X43063Y197750D01*
X43375Y197125D01*
X43063Y196500D01*
X42437Y196187D01*
X40250D01*
Y199937D01*
X42437D01*
X43063Y199625D01*
X43375Y199000D01*
X43063Y198375D01*
X42437Y198063D01*
X40250D01*
X42437Y208063D02*
X43063Y207750D01*
X43375Y207125D01*
X43063Y206500D01*
X42437Y206187D01*
X40250D01*
Y209937D01*
X42437D01*
X43063Y209625D01*
X43375Y209000D01*
X43063Y208375D01*
X42437Y208063D01*
X40250D01*
X42437Y218063D02*
X43063Y217750D01*
X43375Y217125D01*
X43063Y216500D01*
X42437Y216187D01*
X40250D01*
Y219937D01*
X42437D01*
X43063Y219625D01*
X43375Y219000D01*
X43063Y218375D01*
X42437Y218063D01*
X40250D01*
X42437Y228063D02*
X43063Y227750D01*
X43375Y227125D01*
X43063Y226500D01*
X42437Y226187D01*
X40250D01*
Y229937D01*
X42437D01*
X43063Y229625D01*
X43375Y229000D01*
X43063Y228375D01*
X42437Y228063D01*
X40250D01*
X42437Y238063D02*
X43063Y237750D01*
X43375Y237125D01*
X43063Y236500D01*
X42437Y236187D01*
X40250D01*
Y239937D01*
X42437D01*
X43063Y239625D01*
X43375Y239000D01*
X43063Y238375D01*
X42437Y238063D01*
X40250D01*
X42437Y318063D02*
X43063Y317750D01*
X43375Y317125D01*
X43063Y316500D01*
X42437Y316187D01*
X40250D01*
Y319937D01*
X42437D01*
X43063Y319625D01*
X43375Y319000D01*
X43063Y318375D01*
X42437Y318063D01*
X40250D01*
X42437Y358063D02*
X43063Y357750D01*
X43375Y357125D01*
X43063Y356500D01*
X42437Y356187D01*
X40250D01*
Y359937D01*
X42437D01*
X43063Y359625D01*
X43375Y359000D01*
X43063Y358375D01*
X42437Y358063D01*
X40250D01*
X52437Y318063D02*
X53063Y317750D01*
X53375Y317125D01*
X53063Y316500D01*
X52437Y316187D01*
X50250D01*
Y319937D01*
X52437D01*
X53063Y319625D01*
X53375Y319000D01*
X53063Y318375D01*
X52437Y318063D01*
X50250D01*
X52437Y358063D02*
X53063Y357750D01*
X53375Y357125D01*
X53063Y356500D01*
X52437Y356187D01*
X50250D01*
Y359937D01*
X52437D01*
X53063Y359625D01*
X53375Y359000D01*
X53063Y358375D01*
X52437Y358063D01*
X50250D01*
X62437Y318063D02*
X63063Y317750D01*
X63375Y317125D01*
X63063Y316500D01*
X62437Y316187D01*
X60250D01*
Y319937D01*
X62437D01*
X63063Y319625D01*
X63375Y319000D01*
X63063Y318375D01*
X62437Y318063D01*
X60250D01*
X62437Y358063D02*
X63063Y357750D01*
X63375Y357125D01*
X63063Y356500D01*
X62437Y356187D01*
X60250D01*
Y359937D01*
X62437D01*
X63063Y359625D01*
X63375Y359000D01*
X63063Y358375D01*
X62437Y358063D01*
X60250D01*
X72437Y128063D02*
X73063Y127750D01*
X73375Y127125D01*
X73063Y126500D01*
X72437Y126187D01*
X70250D01*
Y129937D01*
X72437D01*
X73063Y129625D01*
X73375Y129000D01*
X73063Y128375D01*
X72437Y128063D01*
X70250D01*
X72437Y138063D02*
X73063Y137750D01*
X73375Y137125D01*
X73063Y136500D01*
X72437Y136187D01*
X70250D01*
Y139937D01*
X72437D01*
X73063Y139625D01*
X73375Y139000D01*
X73063Y138375D01*
X72437Y138063D01*
X70250D01*
X72437Y148063D02*
X73063Y147750D01*
X73375Y147125D01*
X73063Y146500D01*
X72437Y146187D01*
X70250D01*
Y149937D01*
X72437D01*
X73063Y149625D01*
X73375Y149000D01*
X73063Y148375D01*
X72437Y148063D01*
X70250D01*
X72437Y158063D02*
X73063Y157750D01*
X73375Y157125D01*
X73063Y156500D01*
X72437Y156187D01*
X70250D01*
Y159937D01*
X72437D01*
X73063Y159625D01*
X73375Y159000D01*
X73063Y158375D01*
X72437Y158063D01*
X70250D01*
X72437Y168063D02*
X73063Y167750D01*
X73375Y167125D01*
X73063Y166500D01*
X72437Y166187D01*
X70250D01*
Y169937D01*
X72437D01*
X73063Y169625D01*
X73375Y169000D01*
X73063Y168375D01*
X72437Y168063D01*
X70250D01*
X72437Y178063D02*
X73063Y177750D01*
X73375Y177125D01*
X73063Y176500D01*
X72437Y176187D01*
X70250D01*
Y179937D01*
X72437D01*
X73063Y179625D01*
X73375Y179000D01*
X73063Y178375D01*
X72437Y178063D01*
X70250D01*
X72437Y188063D02*
X73063Y187750D01*
X73375Y187125D01*
X73063Y186500D01*
X72437Y186187D01*
X70250D01*
Y189937D01*
X72437D01*
X73063Y189625D01*
X73375Y189000D01*
X73063Y188375D01*
X72437Y188063D01*
X70250D01*
X72437Y198063D02*
X73063Y197750D01*
X73375Y197125D01*
X73063Y196500D01*
X72437Y196187D01*
X70250D01*
Y199937D01*
X72437D01*
X73063Y199625D01*
X73375Y199000D01*
X73063Y198375D01*
X72437Y198063D01*
X70250D01*
X72437Y208063D02*
X73063Y207750D01*
X73375Y207125D01*
X73063Y206500D01*
X72437Y206187D01*
X70250D01*
Y209937D01*
X72437D01*
X73063Y209625D01*
X73375Y209000D01*
X73063Y208375D01*
X72437Y208063D01*
X70250D01*
X72437Y218063D02*
X73063Y217750D01*
X73375Y217125D01*
X73063Y216500D01*
X72437Y216187D01*
X70250D01*
Y219937D01*
X72437D01*
X73063Y219625D01*
X73375Y219000D01*
X73063Y218375D01*
X72437Y218063D01*
X70250D01*
X72437Y228063D02*
X73063Y227750D01*
X73375Y227125D01*
X73063Y226500D01*
X72437Y226187D01*
X70250D01*
Y229937D01*
X72437D01*
X73063Y229625D01*
X73375Y229000D01*
X73063Y228375D01*
X72437Y228063D01*
X70250D01*
X72437Y238063D02*
X73063Y237750D01*
X73375Y237125D01*
X73063Y236500D01*
X72437Y236187D01*
X70250D01*
Y239937D01*
X72437D01*
X73063Y239625D01*
X73375Y239000D01*
X73063Y238375D01*
X72437Y238063D01*
X70250D01*
X72437Y318063D02*
X73063Y317750D01*
X73375Y317125D01*
X73063Y316500D01*
X72437Y316187D01*
X70250D01*
Y319937D01*
X72437D01*
X73063Y319625D01*
X73375Y319000D01*
X73063Y318375D01*
X72437Y318063D01*
X70250D01*
X72437Y358063D02*
X73063Y357750D01*
X73375Y357125D01*
X73063Y356500D01*
X72437Y356187D01*
X70250D01*
Y359937D01*
X72437D01*
X73063Y359625D01*
X73375Y359000D01*
X73063Y358375D01*
X72437Y358063D01*
X70250D01*
X82437Y128063D02*
X83063Y127750D01*
X83375Y127125D01*
X83063Y126500D01*
X82437Y126187D01*
X80250D01*
Y129937D01*
X82437D01*
X83063Y129625D01*
X83375Y129000D01*
X83063Y128375D01*
X82437Y128063D01*
X80250D01*
X82437Y138063D02*
X83063Y137750D01*
X83375Y137125D01*
X83063Y136500D01*
X82437Y136187D01*
X80250D01*
Y139937D01*
X82437D01*
X83063Y139625D01*
X83375Y139000D01*
X83063Y138375D01*
X82437Y138063D01*
X80250D01*
X82437Y148063D02*
X83063Y147750D01*
X83375Y147125D01*
X83063Y146500D01*
X82437Y146187D01*
X80250D01*
Y149937D01*
X82437D01*
X83063Y149625D01*
X83375Y149000D01*
X83063Y148375D01*
X82437Y148063D01*
X80250D01*
X82437Y158063D02*
X83063Y157750D01*
X83375Y157125D01*
X83063Y156500D01*
X82437Y156187D01*
X80250D01*
Y159937D01*
X82437D01*
X83063Y159625D01*
X83375Y159000D01*
X83063Y158375D01*
X82437Y158063D01*
X80250D01*
X82437Y168063D02*
X83063Y167750D01*
X83375Y167125D01*
X83063Y166500D01*
X82437Y166187D01*
X80250D01*
Y169937D01*
X82437D01*
X83063Y169625D01*
X83375Y169000D01*
X83063Y168375D01*
X82437Y168063D01*
X80250D01*
X82437Y178063D02*
X83063Y177750D01*
X83375Y177125D01*
X83063Y176500D01*
X82437Y176187D01*
X80250D01*
Y179937D01*
X82437D01*
X83063Y179625D01*
X83375Y179000D01*
X83063Y178375D01*
X82437Y178063D01*
X80250D01*
X82437Y188063D02*
X83063Y187750D01*
X83375Y187125D01*
X83063Y186500D01*
X82437Y186187D01*
X80250D01*
Y189937D01*
X82437D01*
X83063Y189625D01*
X83375Y189000D01*
X83063Y188375D01*
X82437Y188063D01*
X80250D01*
X82437Y198063D02*
X83063Y197750D01*
X83375Y197125D01*
X83063Y196500D01*
X82437Y196187D01*
X80250D01*
Y199937D01*
X82437D01*
X83063Y199625D01*
X83375Y199000D01*
X83063Y198375D01*
X82437Y198063D01*
X80250D01*
X82437Y208063D02*
X83063Y207750D01*
X83375Y207125D01*
X83063Y206500D01*
X82437Y206187D01*
X80250D01*
Y209937D01*
X82437D01*
X83063Y209625D01*
X83375Y209000D01*
X83063Y208375D01*
X82437Y208063D01*
X80250D01*
X82437Y218063D02*
X83063Y217750D01*
X83375Y217125D01*
X83063Y216500D01*
X82437Y216187D01*
X80250D01*
Y219937D01*
X82437D01*
X83063Y219625D01*
X83375Y219000D01*
X83063Y218375D01*
X82437Y218063D01*
X80250D01*
X82437Y228063D02*
X83063Y227750D01*
X83375Y227125D01*
X83063Y226500D01*
X82437Y226187D01*
X80250D01*
Y229937D01*
X82437D01*
X83063Y229625D01*
X83375Y229000D01*
X83063Y228375D01*
X82437Y228063D01*
X80250D01*
X82437Y238063D02*
X83063Y237750D01*
X83375Y237125D01*
X83063Y236500D01*
X82437Y236187D01*
X80250D01*
Y239937D01*
X82437D01*
X83063Y239625D01*
X83375Y239000D01*
X83063Y238375D01*
X82437Y238063D01*
X80250D01*
X82437Y318063D02*
X83063Y317750D01*
X83375Y317125D01*
X83063Y316500D01*
X82437Y316187D01*
X80250D01*
Y319937D01*
X82437D01*
X83063Y319625D01*
X83375Y319000D01*
X83063Y318375D01*
X82437Y318063D01*
X80250D01*
X82437Y358063D02*
X83063Y357750D01*
X83375Y357125D01*
X83063Y356500D01*
X82437Y356187D01*
X80250D01*
Y359937D01*
X82437D01*
X83063Y359625D01*
X83375Y359000D01*
X83063Y358375D01*
X82437Y358063D01*
X80250D01*
X92437Y318063D02*
X93063Y317750D01*
X93375Y317125D01*
X93063Y316500D01*
X92437Y316187D01*
X90250D01*
Y319937D01*
X92437D01*
X93063Y319625D01*
X93375Y319000D01*
X93063Y318375D01*
X92437Y318063D01*
X90250D01*
X92437Y358063D02*
X93063Y357750D01*
X93375Y357125D01*
X93063Y356500D01*
X92437Y356187D01*
X90250D01*
Y359937D01*
X92437D01*
X93063Y359625D01*
X93375Y359000D01*
X93063Y358375D01*
X92437Y358063D01*
X90250D01*
X102437Y318063D02*
X103063Y317750D01*
X103375Y317125D01*
X103063Y316500D01*
X102437Y316187D01*
X100250D01*
Y319937D01*
X102437D01*
X103063Y319625D01*
X103375Y319000D01*
X103063Y318375D01*
X102437Y318063D01*
X100250D01*
X102437Y358063D02*
X103063Y357750D01*
X103375Y357125D01*
X103063Y356500D01*
X102437Y356187D01*
X100250D01*
Y359937D01*
X102437D01*
X103063Y359625D01*
X103375Y359000D01*
X103063Y358375D01*
X102437Y358063D01*
X100250D01*
X112437Y318063D02*
X113063Y317750D01*
X113375Y317125D01*
X113063Y316500D01*
X112437Y316187D01*
X110250D01*
Y319937D01*
X112437D01*
X113063Y319625D01*
X113375Y319000D01*
X113063Y318375D01*
X112437Y318063D01*
X110250D01*
X112437Y358063D02*
X113063Y357750D01*
X113375Y357125D01*
X113063Y356500D01*
X112437Y356187D01*
X110250D01*
Y359937D01*
X112437D01*
X113063Y359625D01*
X113375Y359000D01*
X113063Y358375D01*
X112437Y358063D01*
X110250D01*
X122437Y318063D02*
X123063Y317750D01*
X123375Y317125D01*
X123063Y316500D01*
X122437Y316187D01*
X120250D01*
Y319937D01*
X122437D01*
X123063Y319625D01*
X123375Y319000D01*
X123063Y318375D01*
X122437Y318063D01*
X120250D01*
X122437Y358063D02*
X123063Y357750D01*
X123375Y357125D01*
X123063Y356500D01*
X122437Y356187D01*
X120250D01*
Y359937D01*
X122437D01*
X123063Y359625D01*
X123375Y359000D01*
X123063Y358375D01*
X122437Y358063D01*
X120250D01*
X132437Y228063D02*
X133063Y227750D01*
X133375Y227125D01*
X133063Y226500D01*
X132437Y226187D01*
X130250D01*
Y229937D01*
X132437D01*
X133063Y229625D01*
X133375Y229000D01*
X133063Y228375D01*
X132437Y228063D01*
X130250D01*
X132437Y268063D02*
X133063Y267750D01*
X133375Y267125D01*
X133063Y266500D01*
X132437Y266187D01*
X130250D01*
Y269937D01*
X132437D01*
X133063Y269625D01*
X133375Y269000D01*
X133063Y268375D01*
X132437Y268063D01*
X130250D01*
X132437Y318063D02*
X133063Y317750D01*
X133375Y317125D01*
X133063Y316500D01*
X132437Y316187D01*
X130250D01*
Y319937D01*
X132437D01*
X133063Y319625D01*
X133375Y319000D01*
X133063Y318375D01*
X132437Y318063D01*
X130250D01*
X132437Y358063D02*
X133063Y357750D01*
X133375Y357125D01*
X133063Y356500D01*
X132437Y356187D01*
X130250D01*
Y359937D01*
X132437D01*
X133063Y359625D01*
X133375Y359000D01*
X133063Y358375D01*
X132437Y358063D01*
X130250D01*
X142437Y228063D02*
X143063Y227750D01*
X143375Y227125D01*
X143063Y226500D01*
X142437Y226187D01*
X140250D01*
Y229937D01*
X142437D01*
X143063Y229625D01*
X143375Y229000D01*
X143063Y228375D01*
X142437Y228063D01*
X140250D01*
X142437Y268063D02*
X143063Y267750D01*
X143375Y267125D01*
X143063Y266500D01*
X142437Y266187D01*
X140250D01*
Y269937D01*
X142437D01*
X143063Y269625D01*
X143375Y269000D01*
X143063Y268375D01*
X142437Y268063D01*
X140250D01*
X142437Y318063D02*
X143063Y317750D01*
X143375Y317125D01*
X143063Y316500D01*
X142437Y316187D01*
X140250D01*
Y319937D01*
X142437D01*
X143063Y319625D01*
X143375Y319000D01*
X143063Y318375D01*
X142437Y318063D01*
X140250D01*
X142437Y358063D02*
X143063Y357750D01*
X143375Y357125D01*
X143063Y356500D01*
X142437Y356187D01*
X140250D01*
Y359937D01*
X142437D01*
X143063Y359625D01*
X143375Y359000D01*
X143063Y358375D01*
X142437Y358063D01*
X140250D01*
X152437Y228063D02*
X153063Y227750D01*
X153375Y227125D01*
X153063Y226500D01*
X152437Y226187D01*
X150250D01*
Y229937D01*
X152437D01*
X153063Y229625D01*
X153375Y229000D01*
X153063Y228375D01*
X152437Y228063D01*
X150250D01*
X152437Y268063D02*
X153063Y267750D01*
X153375Y267125D01*
X153063Y266500D01*
X152437Y266187D01*
X150250D01*
Y269937D01*
X152437D01*
X153063Y269625D01*
X153375Y269000D01*
X153063Y268375D01*
X152437Y268063D01*
X150250D01*
X152437Y318063D02*
X153063Y317750D01*
X153375Y317125D01*
X153063Y316500D01*
X152437Y316187D01*
X150250D01*
Y319937D01*
X152437D01*
X153063Y319625D01*
X153375Y319000D01*
X153063Y318375D01*
X152437Y318063D01*
X150250D01*
X152437Y358063D02*
X153063Y357750D01*
X153375Y357125D01*
X153063Y356500D01*
X152437Y356187D01*
X150250D01*
Y359937D01*
X152437D01*
X153063Y359625D01*
X153375Y359000D01*
X153063Y358375D01*
X152437Y358063D01*
X150250D01*
X162437Y228063D02*
X163063Y227750D01*
X163375Y227125D01*
X163063Y226500D01*
X162437Y226187D01*
X160250D01*
Y229937D01*
X162437D01*
X163063Y229625D01*
X163375Y229000D01*
X163063Y228375D01*
X162437Y228063D01*
X160250D01*
X162437Y268063D02*
X163063Y267750D01*
X163375Y267125D01*
X163063Y266500D01*
X162437Y266187D01*
X160250D01*
Y269937D01*
X162437D01*
X163063Y269625D01*
X163375Y269000D01*
X163063Y268375D01*
X162437Y268063D01*
X160250D01*
X162437Y318063D02*
X163063Y317750D01*
X163375Y317125D01*
X163063Y316500D01*
X162437Y316187D01*
X160250D01*
Y319937D01*
X162437D01*
X163063Y319625D01*
X163375Y319000D01*
X163063Y318375D01*
X162437Y318063D01*
X160250D01*
X162437Y358063D02*
X163063Y357750D01*
X163375Y357125D01*
X163063Y356500D01*
X162437Y356187D01*
X160250D01*
Y359937D01*
X162437D01*
X163063Y359625D01*
X163375Y359000D01*
X163063Y358375D01*
X162437Y358063D01*
X160250D01*
X172437Y228063D02*
X173063Y227750D01*
X173375Y227125D01*
X173063Y226500D01*
X172437Y226187D01*
X170250D01*
Y229937D01*
X172437D01*
X173063Y229625D01*
X173375Y229000D01*
X173063Y228375D01*
X172437Y228063D01*
X170250D01*
X172437Y268063D02*
X173063Y267750D01*
X173375Y267125D01*
X173063Y266500D01*
X172437Y266187D01*
X170250D01*
Y269937D01*
X172437D01*
X173063Y269625D01*
X173375Y269000D01*
X173063Y268375D01*
X172437Y268063D01*
X170250D01*
X172437Y318063D02*
X173063Y317750D01*
X173375Y317125D01*
X173063Y316500D01*
X172437Y316187D01*
X170250D01*
Y319937D01*
X172437D01*
X173063Y319625D01*
X173375Y319000D01*
X173063Y318375D01*
X172437Y318063D01*
X170250D01*
X172437Y358063D02*
X173063Y357750D01*
X173375Y357125D01*
X173063Y356500D01*
X172437Y356187D01*
X170250D01*
Y359937D01*
X172437D01*
X173063Y359625D01*
X173375Y359000D01*
X173063Y358375D01*
X172437Y358063D01*
X170250D01*
X182437Y228063D02*
X183063Y227750D01*
X183375Y227125D01*
X183063Y226500D01*
X182437Y226187D01*
X180250D01*
Y229937D01*
X182437D01*
X183063Y229625D01*
X183375Y229000D01*
X183063Y228375D01*
X182437Y228063D01*
X180250D01*
X182437Y268063D02*
X183063Y267750D01*
X183375Y267125D01*
X183063Y266500D01*
X182437Y266187D01*
X180250D01*
Y269937D01*
X182437D01*
X183063Y269625D01*
X183375Y269000D01*
X183063Y268375D01*
X182437Y268063D01*
X180250D01*
X182437Y318063D02*
X183063Y317750D01*
X183375Y317125D01*
X183063Y316500D01*
X182437Y316187D01*
X180250D01*
Y319937D01*
X182437D01*
X183063Y319625D01*
X183375Y319000D01*
X183063Y318375D01*
X182437Y318063D01*
X180250D01*
X182437Y358063D02*
X183063Y357750D01*
X183375Y357125D01*
X183063Y356500D01*
X182437Y356187D01*
X180250D01*
Y359937D01*
X182437D01*
X183063Y359625D01*
X183375Y359000D01*
X183063Y358375D01*
X182437Y358063D01*
X180250D01*
X192437Y228063D02*
X193063Y227750D01*
X193375Y227125D01*
X193063Y226500D01*
X192437Y226187D01*
X190250D01*
Y229937D01*
X192437D01*
X193063Y229625D01*
X193375Y229000D01*
X193063Y228375D01*
X192437Y228063D01*
X190250D01*
X192437Y268063D02*
X193063Y267750D01*
X193375Y267125D01*
X193063Y266500D01*
X192437Y266187D01*
X190250D01*
Y269937D01*
X192437D01*
X193063Y269625D01*
X193375Y269000D01*
X193063Y268375D01*
X192437Y268063D01*
X190250D01*
X192437Y318063D02*
X193063Y317750D01*
X193375Y317125D01*
X193063Y316500D01*
X192437Y316187D01*
X190250D01*
Y319937D01*
X192437D01*
X193063Y319625D01*
X193375Y319000D01*
X193063Y318375D01*
X192437Y318063D01*
X190250D01*
X192437Y358063D02*
X193063Y357750D01*
X193375Y357125D01*
X193063Y356500D01*
X192437Y356187D01*
X190250D01*
Y359937D01*
X192437D01*
X193063Y359625D01*
X193375Y359000D01*
X193063Y358375D01*
X192437Y358063D01*
X190250D01*
X202437Y228063D02*
X203063Y227750D01*
X203375Y227125D01*
X203063Y226500D01*
X202437Y226187D01*
X200250D01*
Y229937D01*
X202437D01*
X203063Y229625D01*
X203375Y229000D01*
X203063Y228375D01*
X202437Y228063D01*
X200250D01*
X202437Y268063D02*
X203063Y267750D01*
X203375Y267125D01*
X203063Y266500D01*
X202437Y266187D01*
X200250D01*
Y269937D01*
X202437D01*
X203063Y269625D01*
X203375Y269000D01*
X203063Y268375D01*
X202437Y268063D01*
X200250D01*
X202437Y318063D02*
X203063Y317750D01*
X203375Y317125D01*
X203063Y316500D01*
X202437Y316187D01*
X200250D01*
Y319937D01*
X202437D01*
X203063Y319625D01*
X203375Y319000D01*
X203063Y318375D01*
X202437Y318063D01*
X200250D01*
X202437Y358063D02*
X203063Y357750D01*
X203375Y357125D01*
X203063Y356500D01*
X202437Y356187D01*
X200250D01*
Y359937D01*
X202437D01*
X203063Y359625D01*
X203375Y359000D01*
X203063Y358375D01*
X202437Y358063D01*
X200250D01*
X212437Y228063D02*
X213063Y227750D01*
X213375Y227125D01*
X213063Y226500D01*
X212437Y226187D01*
X210250D01*
Y229937D01*
X212437D01*
X213063Y229625D01*
X213375Y229000D01*
X213063Y228375D01*
X212437Y228063D01*
X210250D01*
X212437Y268063D02*
X213063Y267750D01*
X213375Y267125D01*
X213063Y266500D01*
X212437Y266187D01*
X210250D01*
Y269937D01*
X212437D01*
X213063Y269625D01*
X213375Y269000D01*
X213063Y268375D01*
X212437Y268063D01*
X210250D01*
X212437Y318063D02*
X213063Y317750D01*
X213375Y317125D01*
X213063Y316500D01*
X212437Y316187D01*
X210250D01*
Y319937D01*
X212437D01*
X213063Y319625D01*
X213375Y319000D01*
X213063Y318375D01*
X212437Y318063D01*
X210250D01*
X212437Y358063D02*
X213063Y357750D01*
X213375Y357125D01*
X213063Y356500D01*
X212437Y356187D01*
X210250D01*
Y359937D01*
X212437D01*
X213063Y359625D01*
X213375Y359000D01*
X213063Y358375D01*
X212437Y358063D01*
X210250D01*
X222437Y228063D02*
X223063Y227750D01*
X223375Y227125D01*
X223063Y226500D01*
X222437Y226187D01*
X220250D01*
Y229937D01*
X222437D01*
X223063Y229625D01*
X223375Y229000D01*
X223063Y228375D01*
X222437Y228063D01*
X220250D01*
X222437Y268063D02*
X223063Y267750D01*
X223375Y267125D01*
X223063Y266500D01*
X222437Y266187D01*
X220250D01*
Y269937D01*
X222437D01*
X223063Y269625D01*
X223375Y269000D01*
X223063Y268375D01*
X222437Y268063D01*
X220250D01*
X222437Y318063D02*
X223063Y317750D01*
X223375Y317125D01*
X223063Y316500D01*
X222437Y316187D01*
X220250D01*
Y319937D01*
X222437D01*
X223063Y319625D01*
X223375Y319000D01*
X223063Y318375D01*
X222437Y318063D01*
X220250D01*
X222437Y358063D02*
X223063Y357750D01*
X223375Y357125D01*
X223063Y356500D01*
X222437Y356187D01*
X220250D01*
Y359937D01*
X222437D01*
X223063Y359625D01*
X223375Y359000D01*
X223063Y358375D01*
X222437Y358063D01*
X220250D01*
X232437Y128063D02*
X233063Y127750D01*
X233375Y127125D01*
X233063Y126500D01*
X232437Y126187D01*
X230250D01*
Y129937D01*
X232437D01*
X233063Y129625D01*
X233375Y129000D01*
X233063Y128375D01*
X232437Y128063D01*
X230250D01*
X232437Y178063D02*
X233063Y177750D01*
X233375Y177125D01*
X233063Y176500D01*
X232437Y176187D01*
X230250D01*
Y179937D01*
X232437D01*
X233063Y179625D01*
X233375Y179000D01*
X233063Y178375D01*
X232437Y178063D01*
X230250D01*
X232437Y228063D02*
X233063Y227750D01*
X233375Y227125D01*
X233063Y226500D01*
X232437Y226187D01*
X230250D01*
Y229937D01*
X232437D01*
X233063Y229625D01*
X233375Y229000D01*
X233063Y228375D01*
X232437Y228063D01*
X230250D01*
X232437Y268063D02*
X233063Y267750D01*
X233375Y267125D01*
X233063Y266500D01*
X232437Y266187D01*
X230250D01*
Y269937D01*
X232437D01*
X233063Y269625D01*
X233375Y269000D01*
X233063Y268375D01*
X232437Y268063D01*
X230250D01*
X232437Y318063D02*
X233063Y317750D01*
X233375Y317125D01*
X233063Y316500D01*
X232437Y316187D01*
X230250D01*
Y319937D01*
X232437D01*
X233063Y319625D01*
X233375Y319000D01*
X233063Y318375D01*
X232437Y318063D01*
X230250D01*
X232437Y358063D02*
X233063Y357750D01*
X233375Y357125D01*
X233063Y356500D01*
X232437Y356187D01*
X230250D01*
Y359937D01*
X232437D01*
X233063Y359625D01*
X233375Y359000D01*
X233063Y358375D01*
X232437Y358063D01*
X230250D01*
X242437Y128063D02*
X243063Y127750D01*
X243375Y127125D01*
X243063Y126500D01*
X242437Y126187D01*
X240250D01*
Y129937D01*
X242437D01*
X243063Y129625D01*
X243375Y129000D01*
X243063Y128375D01*
X242437Y128063D01*
X240250D01*
X242437Y178063D02*
X243063Y177750D01*
X243375Y177125D01*
X243063Y176500D01*
X242437Y176187D01*
X240250D01*
Y179937D01*
X242437D01*
X243063Y179625D01*
X243375Y179000D01*
X243063Y178375D01*
X242437Y178063D01*
X240250D01*
X242437Y228063D02*
X243063Y227750D01*
X243375Y227125D01*
X243063Y226500D01*
X242437Y226187D01*
X240250D01*
Y229937D01*
X242437D01*
X243063Y229625D01*
X243375Y229000D01*
X243063Y228375D01*
X242437Y228063D01*
X240250D01*
X242437Y268063D02*
X243063Y267750D01*
X243375Y267125D01*
X243063Y266500D01*
X242437Y266187D01*
X240250D01*
Y269937D01*
X242437D01*
X243063Y269625D01*
X243375Y269000D01*
X243063Y268375D01*
X242437Y268063D01*
X240250D01*
X242437Y318063D02*
X243063Y317750D01*
X243375Y317125D01*
X243063Y316500D01*
X242437Y316187D01*
X240250D01*
Y319937D01*
X242437D01*
X243063Y319625D01*
X243375Y319000D01*
X243063Y318375D01*
X242437Y318063D01*
X240250D01*
X242437Y358297D02*
X243063Y357985D01*
X243375Y357360D01*
X243063Y356735D01*
X242437Y356422D01*
X240250D01*
Y360172D01*
X242437D01*
X243063Y359860D01*
X243375Y359235D01*
X243063Y358610D01*
X242437Y358297D01*
X240250D01*
X252437Y128063D02*
X253063Y127750D01*
X253375Y127125D01*
X253063Y126500D01*
X252437Y126187D01*
X250250D01*
Y129937D01*
X252437D01*
X253063Y129625D01*
X253375Y129000D01*
X253063Y128375D01*
X252437Y128063D01*
X250250D01*
X252437Y178063D02*
X253063Y177750D01*
X253375Y177125D01*
X253063Y176500D01*
X252437Y176187D01*
X250250D01*
Y179937D01*
X252437D01*
X253063Y179625D01*
X253375Y179000D01*
X253063Y178375D01*
X252437Y178063D01*
X250250D01*
X252437Y228063D02*
X253063Y227750D01*
X253375Y227125D01*
X253063Y226500D01*
X252437Y226187D01*
X250250D01*
Y229937D01*
X252437D01*
X253063Y229625D01*
X253375Y229000D01*
X253063Y228375D01*
X252437Y228063D01*
X250250D01*
X252437Y268063D02*
X253063Y267750D01*
X253375Y267125D01*
X253063Y266500D01*
X252437Y266187D01*
X250250D01*
Y269937D01*
X252437D01*
X253063Y269625D01*
X253375Y269000D01*
X253063Y268375D01*
X252437Y268063D01*
X250250D01*
X252437Y318063D02*
X253063Y317750D01*
X253375Y317125D01*
X253063Y316500D01*
X252437Y316187D01*
X250250D01*
Y319937D01*
X252437D01*
X253063Y319625D01*
X253375Y319000D01*
X253063Y318375D01*
X252437Y318063D01*
X250250D01*
X252437Y358297D02*
X253063Y357985D01*
X253375Y357360D01*
X253063Y356735D01*
X252437Y356422D01*
X250250D01*
Y360172D01*
X252437D01*
X253063Y359860D01*
X253375Y359235D01*
X253063Y358610D01*
X252437Y358297D01*
X250250D01*
X262437Y128063D02*
X263063Y127750D01*
X263375Y127125D01*
X263063Y126500D01*
X262437Y126187D01*
X260250D01*
Y129937D01*
X262437D01*
X263063Y129625D01*
X263375Y129000D01*
X263063Y128375D01*
X262437Y128063D01*
X260250D01*
X262437Y178063D02*
X263063Y177750D01*
X263375Y177125D01*
X263063Y176500D01*
X262437Y176187D01*
X260250D01*
Y179937D01*
X262437D01*
X263063Y179625D01*
X263375Y179000D01*
X263063Y178375D01*
X262437Y178063D01*
X260250D01*
X262437Y228063D02*
X263063Y227750D01*
X263375Y227125D01*
X263063Y226500D01*
X262437Y226187D01*
X260250D01*
Y229937D01*
X262437D01*
X263063Y229625D01*
X263375Y229000D01*
X263063Y228375D01*
X262437Y228063D01*
X260250D01*
X262437Y268063D02*
X263063Y267750D01*
X263375Y267125D01*
X263063Y266500D01*
X262437Y266187D01*
X260250D01*
Y269937D01*
X262437D01*
X263063Y269625D01*
X263375Y269000D01*
X263063Y268375D01*
X262437Y268063D01*
X260250D01*
X262437Y318063D02*
X263063Y317750D01*
X263375Y317125D01*
X263063Y316500D01*
X262437Y316187D01*
X260250D01*
Y319937D01*
X262437D01*
X263063Y319625D01*
X263375Y319000D01*
X263063Y318375D01*
X262437Y318063D01*
X260250D01*
X262437Y358297D02*
X263063Y357985D01*
X263375Y357360D01*
X263063Y356735D01*
X262437Y356422D01*
X260250D01*
Y360172D01*
X262437D01*
X263063Y359860D01*
X263375Y359235D01*
X263063Y358610D01*
X262437Y358297D01*
X260250D01*
X272437Y128063D02*
X273063Y127750D01*
X273375Y127125D01*
X273063Y126500D01*
X272437Y126187D01*
X270250D01*
Y129937D01*
X272437D01*
X273063Y129625D01*
X273375Y129000D01*
X273063Y128375D01*
X272437Y128063D01*
X270250D01*
X272437Y178063D02*
X273063Y177750D01*
X273375Y177125D01*
X273063Y176500D01*
X272437Y176187D01*
X270250D01*
Y179937D01*
X272437D01*
X273063Y179625D01*
X273375Y179000D01*
X273063Y178375D01*
X272437Y178063D01*
X270250D01*
X272437Y228063D02*
X273063Y227750D01*
X273375Y227125D01*
X273063Y226500D01*
X272437Y226187D01*
X270250D01*
Y229937D01*
X272437D01*
X273063Y229625D01*
X273375Y229000D01*
X273063Y228375D01*
X272437Y228063D01*
X270250D01*
X272437Y268063D02*
X273063Y267750D01*
X273375Y267125D01*
X273063Y266500D01*
X272437Y266187D01*
X270250D01*
Y269937D01*
X272437D01*
X273063Y269625D01*
X273375Y269000D01*
X273063Y268375D01*
X272437Y268063D01*
X270250D01*
X272437Y318063D02*
X273063Y317750D01*
X273375Y317125D01*
X273063Y316500D01*
X272437Y316187D01*
X270250D01*
Y319937D01*
X272437D01*
X273063Y319625D01*
X273375Y319000D01*
X273063Y318375D01*
X272437Y318063D01*
X270250D01*
X272437Y358297D02*
X273063Y357985D01*
X273375Y357360D01*
X273063Y356735D01*
X272437Y356422D01*
X270250D01*
Y360172D01*
X272437D01*
X273063Y359860D01*
X273375Y359235D01*
X273063Y358610D01*
X272437Y358297D01*
X270250D01*
X282437Y128063D02*
X283063Y127750D01*
X283375Y127125D01*
X283063Y126500D01*
X282437Y126187D01*
X280250D01*
Y129937D01*
X282437D01*
X283063Y129625D01*
X283375Y129000D01*
X283063Y128375D01*
X282437Y128063D01*
X280250D01*
X282437Y178063D02*
X283063Y177750D01*
X283375Y177125D01*
X283063Y176500D01*
X282437Y176187D01*
X280250D01*
Y179937D01*
X282437D01*
X283063Y179625D01*
X283375Y179000D01*
X283063Y178375D01*
X282437Y178063D01*
X280250D01*
X282437Y228063D02*
X283063Y227750D01*
X283375Y227125D01*
X283063Y226500D01*
X282437Y226187D01*
X280250D01*
Y229937D01*
X282437D01*
X283063Y229625D01*
X283375Y229000D01*
X283063Y228375D01*
X282437Y228063D01*
X280250D01*
X282437Y268063D02*
X283063Y267750D01*
X283375Y267125D01*
X283063Y266500D01*
X282437Y266187D01*
X280250D01*
Y269937D01*
X282437D01*
X283063Y269625D01*
X283375Y269000D01*
X283063Y268375D01*
X282437Y268063D01*
X280250D01*
X292437Y128063D02*
X293063Y127750D01*
X293375Y127125D01*
X293063Y126500D01*
X292437Y126187D01*
X290250D01*
Y129937D01*
X292437D01*
X293063Y129625D01*
X293375Y129000D01*
X293063Y128375D01*
X292437Y128063D01*
X290250D01*
X292437Y178063D02*
X293063Y177750D01*
X293375Y177125D01*
X293063Y176500D01*
X292437Y176187D01*
X290250D01*
Y179937D01*
X292437D01*
X293063Y179625D01*
X293375Y179000D01*
X293063Y178375D01*
X292437Y178063D01*
X290250D01*
X292437Y228063D02*
X293063Y227750D01*
X293375Y227125D01*
X293063Y226500D01*
X292437Y226187D01*
X290250D01*
Y229937D01*
X292437D01*
X293063Y229625D01*
X293375Y229000D01*
X293063Y228375D01*
X292437Y228063D01*
X290250D01*
X292437Y268063D02*
X293063Y267750D01*
X293375Y267125D01*
X293063Y266500D01*
X292437Y266187D01*
X290250D01*
Y269937D01*
X292437D01*
X293063Y269625D01*
X293375Y269000D01*
X293063Y268375D01*
X292437Y268063D01*
X290250D01*
X302437Y128063D02*
X303063Y127750D01*
X303375Y127125D01*
X303063Y126500D01*
X302437Y126187D01*
X300250D01*
Y129937D01*
X302437D01*
X303063Y129625D01*
X303375Y129000D01*
X303063Y128375D01*
X302437Y128063D01*
X300250D01*
X302437Y178063D02*
X303063Y177750D01*
X303375Y177125D01*
X303063Y176500D01*
X302437Y176187D01*
X300250D01*
Y179937D01*
X302437D01*
X303063Y179625D01*
X303375Y179000D01*
X303063Y178375D01*
X302437Y178063D01*
X300250D01*
X302437Y228063D02*
X303063Y227750D01*
X303375Y227125D01*
X303063Y226500D01*
X302437Y226187D01*
X300250D01*
Y229937D01*
X302437D01*
X303063Y229625D01*
X303375Y229000D01*
X303063Y228375D01*
X302437Y228063D01*
X300250D01*
X302437Y268063D02*
X303063Y267750D01*
X303375Y267125D01*
X303063Y266500D01*
X302437Y266187D01*
X300250D01*
Y269937D01*
X302437D01*
X303063Y269625D01*
X303375Y269000D01*
X303063Y268375D01*
X302437Y268063D01*
X300250D01*
X312437Y128063D02*
X313063Y127750D01*
X313375Y127125D01*
X313063Y126500D01*
X312437Y126187D01*
X310250D01*
Y129937D01*
X312437D01*
X313063Y129625D01*
X313375Y129000D01*
X313063Y128375D01*
X312437Y128063D01*
X310250D01*
X312437Y178063D02*
X313063Y177750D01*
X313375Y177125D01*
X313063Y176500D01*
X312437Y176187D01*
X310250D01*
Y179937D01*
X312437D01*
X313063Y179625D01*
X313375Y179000D01*
X313063Y178375D01*
X312437Y178063D01*
X310250D01*
X312437Y228063D02*
X313063Y227750D01*
X313375Y227125D01*
X313063Y226500D01*
X312437Y226187D01*
X310250D01*
Y229937D01*
X312437D01*
X313063Y229625D01*
X313375Y229000D01*
X313063Y228375D01*
X312437Y228063D01*
X310250D01*
X312437Y268063D02*
X313063Y267750D01*
X313375Y267125D01*
X313063Y266500D01*
X312437Y266187D01*
X310250D01*
Y269937D01*
X312437D01*
X313063Y269625D01*
X313375Y269000D01*
X313063Y268375D01*
X312437Y268063D01*
X310250D01*
X322437Y128063D02*
X323063Y127750D01*
X323375Y127125D01*
X323063Y126500D01*
X322437Y126187D01*
X320250D01*
Y129937D01*
X322437D01*
X323063Y129625D01*
X323375Y129000D01*
X323063Y128375D01*
X322437Y128063D01*
X320250D01*
X322437Y178063D02*
X323063Y177750D01*
X323375Y177125D01*
X323063Y176500D01*
X322437Y176187D01*
X320250D01*
Y179937D01*
X322437D01*
X323063Y179625D01*
X323375Y179000D01*
X323063Y178375D01*
X322437Y178063D01*
X320250D01*
X322437Y228063D02*
X323063Y227750D01*
X323375Y227125D01*
X323063Y226500D01*
X322437Y226187D01*
X320250D01*
Y229937D01*
X322437D01*
X323063Y229625D01*
X323375Y229000D01*
X323063Y228375D01*
X322437Y228063D01*
X320250D01*
X322437Y268063D02*
X323063Y267750D01*
X323375Y267125D01*
X323063Y266500D01*
X322437Y266187D01*
X320250D01*
Y269937D01*
X322437D01*
X323063Y269625D01*
X323375Y269000D01*
X323063Y268375D01*
X322437Y268063D01*
X320250D01*
X322437Y318063D02*
X323063Y317750D01*
X323375Y317125D01*
X323063Y316500D01*
X322437Y316187D01*
X320250D01*
Y319937D01*
X322437D01*
X323063Y319625D01*
X323375Y319000D01*
X323063Y318375D01*
X322437Y318063D01*
X320250D01*
X322437Y328063D02*
X323063Y327750D01*
X323375Y327125D01*
X323063Y326500D01*
X322437Y326187D01*
X320250D01*
Y329937D01*
X322437D01*
X323063Y329625D01*
X323375Y329000D01*
X323063Y328375D01*
X322437Y328063D01*
X320250D01*
X322437Y358063D02*
X323063Y357750D01*
X323375Y357125D01*
X323063Y356500D01*
X322437Y356187D01*
X320250D01*
Y359937D01*
X322437D01*
X323063Y359625D01*
X323375Y359000D01*
X323063Y358375D01*
X322437Y358063D01*
X320250D01*
X332437Y128063D02*
X333063Y127750D01*
X333375Y127125D01*
X333063Y126500D01*
X332437Y126187D01*
X330250D01*
Y129937D01*
X332437D01*
X333063Y129625D01*
X333375Y129000D01*
X333063Y128375D01*
X332437Y128063D01*
X330250D01*
X332437Y178063D02*
X333063Y177750D01*
X333375Y177125D01*
X333063Y176500D01*
X332437Y176187D01*
X330250D01*
Y179937D01*
X332437D01*
X333063Y179625D01*
X333375Y179000D01*
X333063Y178375D01*
X332437Y178063D01*
X330250D01*
X332437Y228063D02*
X333063Y227750D01*
X333375Y227125D01*
X333063Y226500D01*
X332437Y226187D01*
X330250D01*
Y229937D01*
X332437D01*
X333063Y229625D01*
X333375Y229000D01*
X333063Y228375D01*
X332437Y228063D01*
X330250D01*
X332437Y268297D02*
X333063Y267985D01*
X333375Y267360D01*
X333063Y266735D01*
X332437Y266422D01*
X330250D01*
Y270172D01*
X332437D01*
X333063Y269860D01*
X333375Y269235D01*
X333063Y268610D01*
X332437Y268297D01*
X330250D01*
X332437Y318063D02*
X333063Y317750D01*
X333375Y317125D01*
X333063Y316500D01*
X332437Y316187D01*
X330250D01*
Y319937D01*
X332437D01*
X333063Y319625D01*
X333375Y319000D01*
X333063Y318375D01*
X332437Y318063D01*
X330250D01*
X332437Y328063D02*
X333063Y327750D01*
X333375Y327125D01*
X333063Y326500D01*
X332437Y326187D01*
X330250D01*
Y329937D01*
X332437D01*
X333063Y329625D01*
X333375Y329000D01*
X333063Y328375D01*
X332437Y328063D01*
X330250D01*
X332437Y358063D02*
X333063Y357750D01*
X333375Y357125D01*
X333063Y356500D01*
X332437Y356187D01*
X330250D01*
Y359937D01*
X332437D01*
X333063Y359625D01*
X333375Y359000D01*
X333063Y358375D01*
X332437Y358063D01*
X330250D01*
X342437Y228063D02*
X343063Y227750D01*
X343375Y227125D01*
X343063Y226500D01*
X342437Y226187D01*
X340250D01*
Y229937D01*
X342437D01*
X343063Y229625D01*
X343375Y229000D01*
X343063Y228375D01*
X342437Y228063D01*
X340250D01*
X342437Y268297D02*
X343063Y267985D01*
X343375Y267360D01*
X343063Y266735D01*
X342437Y266422D01*
X340250D01*
Y270172D01*
X342437D01*
X343063Y269860D01*
X343375Y269235D01*
X343063Y268610D01*
X342437Y268297D01*
X340250D01*
X342437Y318063D02*
X343063Y317750D01*
X343375Y317125D01*
X343063Y316500D01*
X342437Y316187D01*
X340250D01*
Y319937D01*
X342437D01*
X343063Y319625D01*
X343375Y319000D01*
X343063Y318375D01*
X342437Y318063D01*
X340250D01*
X342437Y328063D02*
X343063Y327750D01*
X343375Y327125D01*
X343063Y326500D01*
X342437Y326187D01*
X340250D01*
Y329937D01*
X342437D01*
X343063Y329625D01*
X343375Y329000D01*
X343063Y328375D01*
X342437Y328063D01*
X340250D01*
X342437Y358063D02*
X343063Y357750D01*
X343375Y357125D01*
X343063Y356500D01*
X342437Y356187D01*
X340250D01*
Y359937D01*
X342437D01*
X343063Y359625D01*
X343375Y359000D01*
X343063Y358375D01*
X342437Y358063D01*
X340250D01*
X352437Y228063D02*
X353063Y227750D01*
X353375Y227125D01*
X353063Y226500D01*
X352437Y226187D01*
X350250D01*
Y229937D01*
X352437D01*
X353063Y229625D01*
X353375Y229000D01*
X353063Y228375D01*
X352437Y228063D01*
X350250D01*
X352437Y268297D02*
X353063Y267985D01*
X353375Y267360D01*
X353063Y266735D01*
X352437Y266422D01*
X350250D01*
Y270172D01*
X352437D01*
X353063Y269860D01*
X353375Y269235D01*
X353063Y268610D01*
X352437Y268297D01*
X350250D01*
X352437Y318063D02*
X353063Y317750D01*
X353375Y317125D01*
X353063Y316500D01*
X352437Y316187D01*
X350250D01*
Y319937D01*
X352437D01*
X353063Y319625D01*
X353375Y319000D01*
X353063Y318375D01*
X352437Y318063D01*
X350250D01*
X352437Y328063D02*
X353063Y327750D01*
X353375Y327125D01*
X353063Y326500D01*
X352437Y326187D01*
X350250D01*
Y329937D01*
X352437D01*
X353063Y329625D01*
X353375Y329000D01*
X353063Y328375D01*
X352437Y328063D01*
X350250D01*
X352437Y358063D02*
X353063Y357750D01*
X353375Y357125D01*
X353063Y356500D01*
X352437Y356187D01*
X350250D01*
Y359937D01*
X352437D01*
X353063Y359625D01*
X353375Y359000D01*
X353063Y358375D01*
X352437Y358063D01*
X350250D01*
X362437Y228063D02*
X363063Y227750D01*
X363375Y227125D01*
X363063Y226500D01*
X362437Y226187D01*
X360250D01*
Y229937D01*
X362437D01*
X363063Y229625D01*
X363375Y229000D01*
X363063Y228375D01*
X362437Y228063D01*
X360250D01*
X362437Y268297D02*
X363063Y267985D01*
X363375Y267360D01*
X363063Y266735D01*
X362437Y266422D01*
X360250D01*
Y270172D01*
X362437D01*
X363063Y269860D01*
X363375Y269235D01*
X363063Y268610D01*
X362437Y268297D01*
X360250D01*
X362437Y318063D02*
X363063Y317750D01*
X363375Y317125D01*
X363063Y316500D01*
X362437Y316187D01*
X360250D01*
Y319937D01*
X362437D01*
X363063Y319625D01*
X363375Y319000D01*
X363063Y318375D01*
X362437Y318063D01*
X360250D01*
X362437Y328063D02*
X363063Y327750D01*
X363375Y327125D01*
X363063Y326500D01*
X362437Y326187D01*
X360250D01*
Y329937D01*
X362437D01*
X363063Y329625D01*
X363375Y329000D01*
X363063Y328375D01*
X362437Y328063D01*
X360250D01*
X362437Y358063D02*
X363063Y357750D01*
X363375Y357125D01*
X363063Y356500D01*
X362437Y356187D01*
X360250D01*
Y359937D01*
X362437D01*
X363063Y359625D01*
X363375Y359000D01*
X363063Y358375D01*
X362437Y358063D01*
X360250D01*
X372437Y317828D02*
X373063Y317515D01*
X373375Y316891D01*
X373063Y316265D01*
X372437Y315953D01*
X370250D01*
Y319703D01*
X372437D01*
X373063Y319391D01*
X373375Y318765D01*
X373063Y318141D01*
X372437Y317828D01*
X370250D01*
X372437Y327828D02*
X373063Y327515D01*
X373375Y326891D01*
X373063Y326265D01*
X372437Y325953D01*
X370250D01*
Y329703D01*
X372437D01*
X373063Y329391D01*
X373375Y328765D01*
X373063Y328141D01*
X372437Y327828D01*
X370250D01*
X372437Y357828D02*
X373063Y357515D01*
X373375Y356891D01*
X373063Y356265D01*
X372437Y355953D01*
X370250D01*
Y359703D01*
X372437D01*
X373063Y359391D01*
X373375Y358765D01*
X373063Y358141D01*
X372437Y357828D01*
X370250D01*
X382437Y317828D02*
X383063Y317515D01*
X383375Y316891D01*
X383063Y316265D01*
X382437Y315953D01*
X380250D01*
Y319703D01*
X382437D01*
X383063Y319391D01*
X383375Y318765D01*
X383063Y318141D01*
X382437Y317828D01*
X380250D01*
X382437Y327828D02*
X383063Y327515D01*
X383375Y326891D01*
X383063Y326265D01*
X382437Y325953D01*
X380250D01*
Y329703D01*
X382437D01*
X383063Y329391D01*
X383375Y328765D01*
X383063Y328141D01*
X382437Y327828D01*
X380250D01*
X382437Y357828D02*
X383063Y357515D01*
X383375Y356891D01*
X383063Y356265D01*
X382437Y355953D01*
X380250D01*
Y359703D01*
X382437D01*
X383063Y359391D01*
X383375Y358765D01*
X383063Y358141D01*
X382437Y357828D01*
X380250D01*
X392437Y317828D02*
X393063Y317515D01*
X393375Y316891D01*
X393063Y316265D01*
X392437Y315953D01*
X390250D01*
Y319703D01*
X392437D01*
X393063Y319391D01*
X393375Y318765D01*
X393063Y318141D01*
X392437Y317828D01*
X390250D01*
X392437Y327828D02*
X393063Y327515D01*
X393375Y326891D01*
X393063Y326265D01*
X392437Y325953D01*
X390250D01*
Y329703D01*
X392437D01*
X393063Y329391D01*
X393375Y328765D01*
X393063Y328141D01*
X392437Y327828D01*
X390250D01*
X392437Y357828D02*
X393063Y357515D01*
X393375Y356891D01*
X393063Y356265D01*
X392437Y355953D01*
X390250D01*
Y359703D01*
X392437D01*
X393063Y359391D01*
X393375Y358765D01*
X393063Y358141D01*
X392437Y357828D01*
X390250D01*
X402437Y317828D02*
X403063Y317515D01*
X403375Y316891D01*
X403063Y316265D01*
X402437Y315953D01*
X400250D01*
Y319703D01*
X402437D01*
X403063Y319391D01*
X403375Y318765D01*
X403063Y318141D01*
X402437Y317828D01*
X400250D01*
X402437Y327828D02*
X403063Y327515D01*
X403375Y326891D01*
X403063Y326265D01*
X402437Y325953D01*
X400250D01*
Y329703D01*
X402437D01*
X403063Y329391D01*
X403375Y328765D01*
X403063Y328141D01*
X402437Y327828D01*
X400250D01*
X402437Y357828D02*
X403063Y357515D01*
X403375Y356891D01*
X403063Y356265D01*
X402437Y355953D01*
X400250D01*
Y359703D01*
X402437D01*
X403063Y359391D01*
X403375Y358765D01*
X403063Y358141D01*
X402437Y357828D01*
X400250D01*
X412437Y228063D02*
X413063Y227750D01*
X413375Y227125D01*
X413063Y226500D01*
X412437Y226187D01*
X410250D01*
Y229937D01*
X412437D01*
X413063Y229625D01*
X413375Y229000D01*
X413063Y228375D01*
X412437Y228063D01*
X410250D01*
X412437Y258063D02*
X413063Y257750D01*
X413375Y257125D01*
X413063Y256500D01*
X412437Y256187D01*
X410250D01*
Y259937D01*
X412437D01*
X413063Y259625D01*
X413375Y259000D01*
X413063Y258375D01*
X412437Y258063D01*
X410250D01*
X412437Y268063D02*
X413063Y267750D01*
X413375Y267125D01*
X413063Y266500D01*
X412437Y266187D01*
X410250D01*
Y269937D01*
X412437D01*
X413063Y269625D01*
X413375Y269000D01*
X413063Y268375D01*
X412437Y268063D01*
X410250D01*
X412437Y318063D02*
X413063Y317750D01*
X413375Y317125D01*
X413063Y316500D01*
X412437Y316187D01*
X410250D01*
Y319937D01*
X412437D01*
X413063Y319625D01*
X413375Y319000D01*
X413063Y318375D01*
X412437Y318063D01*
X410250D01*
X412437Y328063D02*
X413063Y327750D01*
X413375Y327125D01*
X413063Y326500D01*
X412437Y326187D01*
X410250D01*
Y329937D01*
X412437D01*
X413063Y329625D01*
X413375Y329000D01*
X413063Y328375D01*
X412437Y328063D01*
X410250D01*
X412437Y358063D02*
X413063Y357750D01*
X413375Y357125D01*
X413063Y356500D01*
X412437Y356187D01*
X410250D01*
Y359937D01*
X412437D01*
X413063Y359625D01*
X413375Y359000D01*
X413063Y358375D01*
X412437Y358063D01*
X410250D01*
X422437Y228063D02*
X423063Y227750D01*
X423375Y227125D01*
X423063Y226500D01*
X422437Y226187D01*
X420250D01*
Y229937D01*
X422437D01*
X423063Y229625D01*
X423375Y229000D01*
X423063Y228375D01*
X422437Y228063D01*
X420250D01*
X422437Y258063D02*
X423063Y257750D01*
X423375Y257125D01*
X423063Y256500D01*
X422437Y256187D01*
X420250D01*
Y259937D01*
X422437D01*
X423063Y259625D01*
X423375Y259000D01*
X423063Y258375D01*
X422437Y258063D01*
X420250D01*
X422437Y268063D02*
X423063Y267750D01*
X423375Y267125D01*
X423063Y266500D01*
X422437Y266187D01*
X420250D01*
Y269937D01*
X422437D01*
X423063Y269625D01*
X423375Y269000D01*
X423063Y268375D01*
X422437Y268063D01*
X420250D01*
X422437Y318063D02*
X423063Y317750D01*
X423375Y317125D01*
X423063Y316500D01*
X422437Y316187D01*
X420250D01*
Y319937D01*
X422437D01*
X423063Y319625D01*
X423375Y319000D01*
X423063Y318375D01*
X422437Y318063D01*
X420250D01*
X422437Y328063D02*
X423063Y327750D01*
X423375Y327125D01*
X423063Y326500D01*
X422437Y326187D01*
X420250D01*
Y329937D01*
X422437D01*
X423063Y329625D01*
X423375Y329000D01*
X423063Y328375D01*
X422437Y328063D01*
X420250D01*
X422437Y358063D02*
X423063Y357750D01*
X423375Y357125D01*
X423063Y356500D01*
X422437Y356187D01*
X420250D01*
Y359937D01*
X422437D01*
X423063Y359625D01*
X423375Y359000D01*
X423063Y358375D01*
X422437Y358063D01*
X420250D01*
X432437Y228063D02*
X433063Y227750D01*
X433375Y227125D01*
X433063Y226500D01*
X432437Y226187D01*
X430250D01*
Y229937D01*
X432437D01*
X433063Y229625D01*
X433375Y229000D01*
X433063Y228375D01*
X432437Y228063D01*
X430250D01*
X432437Y258063D02*
X433063Y257750D01*
X433375Y257125D01*
X433063Y256500D01*
X432437Y256187D01*
X430250D01*
Y259937D01*
X432437D01*
X433063Y259625D01*
X433375Y259000D01*
X433063Y258375D01*
X432437Y258063D01*
X430250D01*
X432437Y268063D02*
X433063Y267750D01*
X433375Y267125D01*
X433063Y266500D01*
X432437Y266187D01*
X430250D01*
Y269937D01*
X432437D01*
X433063Y269625D01*
X433375Y269000D01*
X433063Y268375D01*
X432437Y268063D01*
X430250D01*
X432437Y318063D02*
X433063Y317750D01*
X433375Y317125D01*
X433063Y316500D01*
X432437Y316187D01*
X430250D01*
Y319937D01*
X432437D01*
X433063Y319625D01*
X433375Y319000D01*
X433063Y318375D01*
X432437Y318063D01*
X430250D01*
X432437Y328063D02*
X433063Y327750D01*
X433375Y327125D01*
X433063Y326500D01*
X432437Y326187D01*
X430250D01*
Y329937D01*
X432437D01*
X433063Y329625D01*
X433375Y329000D01*
X433063Y328375D01*
X432437Y328063D01*
X430250D01*
X432437Y358063D02*
X433063Y357750D01*
X433375Y357125D01*
X433063Y356500D01*
X432437Y356187D01*
X430250D01*
Y359937D01*
X432437D01*
X433063Y359625D01*
X433375Y359000D01*
X433063Y358375D01*
X432437Y358063D01*
X430250D01*
X442437Y228063D02*
X443063Y227750D01*
X443375Y227125D01*
X443063Y226500D01*
X442437Y226187D01*
X440250D01*
Y229937D01*
X442437D01*
X443063Y229625D01*
X443375Y229000D01*
X443063Y228375D01*
X442437Y228063D01*
X440250D01*
X442437Y258063D02*
X443063Y257750D01*
X443375Y257125D01*
X443063Y256500D01*
X442437Y256187D01*
X440250D01*
Y259937D01*
X442437D01*
X443063Y259625D01*
X443375Y259000D01*
X443063Y258375D01*
X442437Y258063D01*
X440250D01*
X442437Y268063D02*
X443063Y267750D01*
X443375Y267125D01*
X443063Y266500D01*
X442437Y266187D01*
X440250D01*
Y269937D01*
X442437D01*
X443063Y269625D01*
X443375Y269000D01*
X443063Y268375D01*
X442437Y268063D01*
X440250D01*
X442437Y318063D02*
X443063Y317750D01*
X443375Y317125D01*
X443063Y316500D01*
X442437Y316187D01*
X440250D01*
Y319937D01*
X442437D01*
X443063Y319625D01*
X443375Y319000D01*
X443063Y318375D01*
X442437Y318063D01*
X440250D01*
X442437Y328063D02*
X443063Y327750D01*
X443375Y327125D01*
X443063Y326500D01*
X442437Y326187D01*
X440250D01*
Y329937D01*
X442437D01*
X443063Y329625D01*
X443375Y329000D01*
X443063Y328375D01*
X442437Y328063D01*
X440250D01*
X442437Y358063D02*
X443063Y357750D01*
X443375Y357125D01*
X443063Y356500D01*
X442437Y356187D01*
X440250D01*
Y359937D01*
X442437D01*
X443063Y359625D01*
X443375Y359000D01*
X443063Y358375D01*
X442437Y358063D01*
X440250D01*
X452437Y228063D02*
X453063Y227750D01*
X453375Y227125D01*
X453063Y226500D01*
X452437Y226187D01*
X450250D01*
Y229937D01*
X452437D01*
X453063Y229625D01*
X453375Y229000D01*
X453063Y228375D01*
X452437Y228063D01*
X450250D01*
X452437Y258063D02*
X453063Y257750D01*
X453375Y257125D01*
X453063Y256500D01*
X452437Y256187D01*
X450250D01*
Y259937D01*
X452437D01*
X453063Y259625D01*
X453375Y259000D01*
X453063Y258375D01*
X452437Y258063D01*
X450250D01*
X452437Y268063D02*
X453063Y267750D01*
X453375Y267125D01*
X453063Y266500D01*
X452437Y266187D01*
X450250D01*
Y269937D01*
X452437D01*
X453063Y269625D01*
X453375Y269000D01*
X453063Y268375D01*
X452437Y268063D01*
X450250D01*
X452437Y318063D02*
X453063Y317750D01*
X453375Y317125D01*
X453063Y316500D01*
X452437Y316187D01*
X450250D01*
Y319937D01*
X452437D01*
X453063Y319625D01*
X453375Y319000D01*
X453063Y318375D01*
X452437Y318063D01*
X450250D01*
X452437Y328063D02*
X453063Y327750D01*
X453375Y327125D01*
X453063Y326500D01*
X452437Y326187D01*
X450250D01*
Y329937D01*
X452437D01*
X453063Y329625D01*
X453375Y329000D01*
X453063Y328375D01*
X452437Y328063D01*
X450250D01*
X452437Y358063D02*
X453063Y357750D01*
X453375Y357125D01*
X453063Y356500D01*
X452437Y356187D01*
X450250D01*
Y359937D01*
X452437D01*
X453063Y359625D01*
X453375Y359000D01*
X453063Y358375D01*
X452437Y358063D01*
X450250D01*
X462437Y228063D02*
X463063Y227750D01*
X463375Y227125D01*
X463063Y226500D01*
X462437Y226187D01*
X460250D01*
Y229937D01*
X462437D01*
X463063Y229625D01*
X463375Y229000D01*
X463063Y228375D01*
X462437Y228063D01*
X460250D01*
X462437Y258063D02*
X463063Y257750D01*
X463375Y257125D01*
X463063Y256500D01*
X462437Y256187D01*
X460250D01*
Y259937D01*
X462437D01*
X463063Y259625D01*
X463375Y259000D01*
X463063Y258375D01*
X462437Y258063D01*
X460250D01*
X462437Y268063D02*
X463063Y267750D01*
X463375Y267125D01*
X463063Y266500D01*
X462437Y266187D01*
X460250D01*
Y269937D01*
X462437D01*
X463063Y269625D01*
X463375Y269000D01*
X463063Y268375D01*
X462437Y268063D01*
X460250D01*
X462437Y318063D02*
X463063Y317750D01*
X463375Y317125D01*
X463063Y316500D01*
X462437Y316187D01*
X460250D01*
Y319937D01*
X462437D01*
X463063Y319625D01*
X463375Y319000D01*
X463063Y318375D01*
X462437Y318063D01*
X460250D01*
X462437Y328063D02*
X463063Y327750D01*
X463375Y327125D01*
X463063Y326500D01*
X462437Y326187D01*
X460250D01*
Y329937D01*
X462437D01*
X463063Y329625D01*
X463375Y329000D01*
X463063Y328375D01*
X462437Y328063D01*
X460250D01*
X462437Y358063D02*
X463063Y357750D01*
X463375Y357125D01*
X463063Y356500D01*
X462437Y356187D01*
X460250D01*
Y359937D01*
X462437D01*
X463063Y359625D01*
X463375Y359000D01*
X463063Y358375D01*
X462437Y358063D01*
X460250D01*
X472437Y128063D02*
X473063Y127750D01*
X473375Y127125D01*
X473063Y126500D01*
X472437Y126187D01*
X470250D01*
Y129937D01*
X472437D01*
X473063Y129625D01*
X473375Y129000D01*
X473063Y128375D01*
X472437Y128063D01*
X470250D01*
X472437Y138063D02*
X473063Y137750D01*
X473375Y137125D01*
X473063Y136500D01*
X472437Y136187D01*
X470250D01*
Y139937D01*
X472437D01*
X473063Y139625D01*
X473375Y139000D01*
X473063Y138375D01*
X472437Y138063D01*
X470250D01*
X472437Y168063D02*
X473063Y167750D01*
X473375Y167125D01*
X473063Y166500D01*
X472437Y166187D01*
X470250D01*
Y169937D01*
X472437D01*
X473063Y169625D01*
X473375Y169000D01*
X473063Y168375D01*
X472437Y168063D01*
X470250D01*
X472437Y178063D02*
X473063Y177750D01*
X473375Y177125D01*
X473063Y176500D01*
X472437Y176187D01*
X470250D01*
Y179937D01*
X472437D01*
X473063Y179625D01*
X473375Y179000D01*
X473063Y178375D01*
X472437Y178063D01*
X470250D01*
X472437Y228063D02*
X473063Y227750D01*
X473375Y227125D01*
X473063Y226500D01*
X472437Y226187D01*
X470250D01*
Y229937D01*
X472437D01*
X473063Y229625D01*
X473375Y229000D01*
X473063Y228375D01*
X472437Y228063D01*
X470250D01*
X472437Y258063D02*
X473063Y257750D01*
X473375Y257125D01*
X473063Y256500D01*
X472437Y256187D01*
X470250D01*
Y259937D01*
X472437D01*
X473063Y259625D01*
X473375Y259000D01*
X473063Y258375D01*
X472437Y258063D01*
X470250D01*
X472437Y268063D02*
X473063Y267750D01*
X473375Y267125D01*
X473063Y266500D01*
X472437Y266187D01*
X470250D01*
Y269937D01*
X472437D01*
X473063Y269625D01*
X473375Y269000D01*
X473063Y268375D01*
X472437Y268063D01*
X470250D01*
X482437Y128063D02*
X483063Y127750D01*
X483375Y127125D01*
X483063Y126500D01*
X482437Y126187D01*
X480250D01*
Y129937D01*
X482437D01*
X483063Y129625D01*
X483375Y129000D01*
X483063Y128375D01*
X482437Y128063D01*
X480250D01*
X482437Y138063D02*
X483063Y137750D01*
X483375Y137125D01*
X483063Y136500D01*
X482437Y136187D01*
X480250D01*
Y139937D01*
X482437D01*
X483063Y139625D01*
X483375Y139000D01*
X483063Y138375D01*
X482437Y138063D01*
X480250D01*
X482437Y168063D02*
X483063Y167750D01*
X483375Y167125D01*
X483063Y166500D01*
X482437Y166187D01*
X480250D01*
Y169937D01*
X482437D01*
X483063Y169625D01*
X483375Y169000D01*
X483063Y168375D01*
X482437Y168063D01*
X480250D01*
X482437Y178063D02*
X483063Y177750D01*
X483375Y177125D01*
X483063Y176500D01*
X482437Y176187D01*
X480250D01*
Y179937D01*
X482437D01*
X483063Y179625D01*
X483375Y179000D01*
X483063Y178375D01*
X482437Y178063D01*
X480250D01*
X482437Y228063D02*
X483063Y227750D01*
X483375Y227125D01*
X483063Y226500D01*
X482437Y226187D01*
X480250D01*
Y229937D01*
X482437D01*
X483063Y229625D01*
X483375Y229000D01*
X483063Y228375D01*
X482437Y228063D01*
X480250D01*
X482437Y258063D02*
X483063Y257750D01*
X483375Y257125D01*
X483063Y256500D01*
X482437Y256187D01*
X480250D01*
Y259937D01*
X482437D01*
X483063Y259625D01*
X483375Y259000D01*
X483063Y258375D01*
X482437Y258063D01*
X480250D01*
X482437Y268063D02*
X483063Y267750D01*
X483375Y267125D01*
X483063Y266500D01*
X482437Y266187D01*
X480250D01*
Y269937D01*
X482437D01*
X483063Y269625D01*
X483375Y269000D01*
X483063Y268375D01*
X482437Y268063D01*
X480250D01*
X492437Y128063D02*
X493063Y127750D01*
X493375Y127125D01*
X493063Y126500D01*
X492437Y126187D01*
X490250D01*
Y129937D01*
X492437D01*
X493063Y129625D01*
X493375Y129000D01*
X493063Y128375D01*
X492437Y128063D01*
X490250D01*
X492437Y138063D02*
X493063Y137750D01*
X493375Y137125D01*
X493063Y136500D01*
X492437Y136187D01*
X490250D01*
Y139937D01*
X492437D01*
X493063Y139625D01*
X493375Y139000D01*
X493063Y138375D01*
X492437Y138063D01*
X490250D01*
X492437Y168063D02*
X493063Y167750D01*
X493375Y167125D01*
X493063Y166500D01*
X492437Y166187D01*
X490250D01*
Y169937D01*
X492437D01*
X493063Y169625D01*
X493375Y169000D01*
X493063Y168375D01*
X492437Y168063D01*
X490250D01*
X492437Y178063D02*
X493063Y177750D01*
X493375Y177125D01*
X493063Y176500D01*
X492437Y176187D01*
X490250D01*
Y179937D01*
X492437D01*
X493063Y179625D01*
X493375Y179000D01*
X493063Y178375D01*
X492437Y178063D01*
X490250D01*
X492437Y228063D02*
X493063Y227750D01*
X493375Y227125D01*
X493063Y226500D01*
X492437Y226187D01*
X490250D01*
Y229937D01*
X492437D01*
X493063Y229625D01*
X493375Y229000D01*
X493063Y228375D01*
X492437Y228063D01*
X490250D01*
X492437Y258063D02*
X493063Y257750D01*
X493375Y257125D01*
X493063Y256500D01*
X492437Y256187D01*
X490250D01*
Y259937D01*
X492437D01*
X493063Y259625D01*
X493375Y259000D01*
X493063Y258375D01*
X492437Y258063D01*
X490250D01*
X492437Y268063D02*
X493063Y267750D01*
X493375Y267125D01*
X493063Y266500D01*
X492437Y266187D01*
X490250D01*
Y269937D01*
X492437D01*
X493063Y269625D01*
X493375Y269000D01*
X493063Y268375D01*
X492437Y268063D01*
X490250D01*
X502437Y128063D02*
X503063Y127750D01*
X503375Y127125D01*
X503063Y126500D01*
X502437Y126187D01*
X500250D01*
Y129937D01*
X502437D01*
X503063Y129625D01*
X503375Y129000D01*
X503063Y128375D01*
X502437Y128063D01*
X500250D01*
X502437Y138063D02*
X503063Y137750D01*
X503375Y137125D01*
X503063Y136500D01*
X502437Y136187D01*
X500250D01*
Y139937D01*
X502437D01*
X503063Y139625D01*
X503375Y139000D01*
X503063Y138375D01*
X502437Y138063D01*
X500250D01*
X502437Y168063D02*
X503063Y167750D01*
X503375Y167125D01*
X503063Y166500D01*
X502437Y166187D01*
X500250D01*
Y169937D01*
X502437D01*
X503063Y169625D01*
X503375Y169000D01*
X503063Y168375D01*
X502437Y168063D01*
X500250D01*
X502437Y178063D02*
X503063Y177750D01*
X503375Y177125D01*
X503063Y176500D01*
X502437Y176187D01*
X500250D01*
Y179937D01*
X502437D01*
X503063Y179625D01*
X503375Y179000D01*
X503063Y178375D01*
X502437Y178063D01*
X500250D01*
X502437Y228063D02*
X503063Y227750D01*
X503375Y227125D01*
X503063Y226500D01*
X502437Y226187D01*
X500250D01*
Y229937D01*
X502437D01*
X503063Y229625D01*
X503375Y229000D01*
X503063Y228375D01*
X502437Y228063D01*
X500250D01*
X502437Y258063D02*
X503063Y257750D01*
X503375Y257125D01*
X503063Y256500D01*
X502437Y256187D01*
X500250D01*
Y259937D01*
X502437D01*
X503063Y259625D01*
X503375Y259000D01*
X503063Y258375D01*
X502437Y258063D01*
X500250D01*
X502437Y268063D02*
X503063Y267750D01*
X503375Y267125D01*
X503063Y266500D01*
X502437Y266187D01*
X500250D01*
Y269937D01*
X502437D01*
X503063Y269625D01*
X503375Y269000D01*
X503063Y268375D01*
X502437Y268063D01*
X500250D01*
X512437Y128063D02*
X513063Y127750D01*
X513375Y127125D01*
X513063Y126500D01*
X512437Y126187D01*
X510250D01*
Y129937D01*
X512437D01*
X513063Y129625D01*
X513375Y129000D01*
X513063Y128375D01*
X512437Y128063D01*
X510250D01*
X512437Y138063D02*
X513063Y137750D01*
X513375Y137125D01*
X513063Y136500D01*
X512437Y136187D01*
X510250D01*
Y139937D01*
X512437D01*
X513063Y139625D01*
X513375Y139000D01*
X513063Y138375D01*
X512437Y138063D01*
X510250D01*
X512437Y168063D02*
X513063Y167750D01*
X513375Y167125D01*
X513063Y166500D01*
X512437Y166187D01*
X510250D01*
Y169937D01*
X512437D01*
X513063Y169625D01*
X513375Y169000D01*
X513063Y168375D01*
X512437Y168063D01*
X510250D01*
X512437Y178063D02*
X513063Y177750D01*
X513375Y177125D01*
X513063Y176500D01*
X512437Y176187D01*
X510250D01*
Y179937D01*
X512437D01*
X513063Y179625D01*
X513375Y179000D01*
X513063Y178375D01*
X512437Y178063D01*
X510250D01*
X512437Y228063D02*
X513063Y227750D01*
X513375Y227125D01*
X513063Y226500D01*
X512437Y226187D01*
X510250D01*
Y229937D01*
X512437D01*
X513063Y229625D01*
X513375Y229000D01*
X513063Y228375D01*
X512437Y228063D01*
X510250D01*
X512437Y258063D02*
X513063Y257750D01*
X513375Y257125D01*
X513063Y256500D01*
X512437Y256187D01*
X510250D01*
Y259937D01*
X512437D01*
X513063Y259625D01*
X513375Y259000D01*
X513063Y258375D01*
X512437Y258063D01*
X510250D01*
X512437Y268063D02*
X513063Y267750D01*
X513375Y267125D01*
X513063Y266500D01*
X512437Y266187D01*
X510250D01*
Y269937D01*
X512437D01*
X513063Y269625D01*
X513375Y269000D01*
X513063Y268375D01*
X512437Y268063D01*
X510250D01*
X512437Y318063D02*
X513063Y317750D01*
X513375Y317125D01*
X513063Y316500D01*
X512437Y316187D01*
X510250D01*
Y319937D01*
X512437D01*
X513063Y319625D01*
X513375Y319000D01*
X513063Y318375D01*
X512437Y318063D01*
X510250D01*
X512437Y348063D02*
X513063Y347750D01*
X513375Y347125D01*
X513063Y346500D01*
X512437Y346187D01*
X510250D01*
Y349937D01*
X512437D01*
X513063Y349625D01*
X513375Y349000D01*
X513063Y348375D01*
X512437Y348063D01*
X510250D01*
X512437Y358063D02*
X513063Y357750D01*
X513375Y357125D01*
X513063Y356500D01*
X512437Y356187D01*
X510250D01*
Y359937D01*
X512437D01*
X513063Y359625D01*
X513375Y359000D01*
X513063Y358375D01*
X512437Y358063D01*
X510250D01*
X522437Y128063D02*
X523063Y127750D01*
X523375Y127125D01*
X523063Y126500D01*
X522437Y126187D01*
X520250D01*
Y129937D01*
X522437D01*
X523063Y129625D01*
X523375Y129000D01*
X523063Y128375D01*
X522437Y128063D01*
X520250D01*
X522437Y138063D02*
X523063Y137750D01*
X523375Y137125D01*
X523063Y136500D01*
X522437Y136187D01*
X520250D01*
Y139937D01*
X522437D01*
X523063Y139625D01*
X523375Y139000D01*
X523063Y138375D01*
X522437Y138063D01*
X520250D01*
X522437Y168063D02*
X523063Y167750D01*
X523375Y167125D01*
X523063Y166500D01*
X522437Y166187D01*
X520250D01*
Y169937D01*
X522437D01*
X523063Y169625D01*
X523375Y169000D01*
X523063Y168375D01*
X522437Y168063D01*
X520250D01*
X522437Y178063D02*
X523063Y177750D01*
X523375Y177125D01*
X523063Y176500D01*
X522437Y176187D01*
X520250D01*
Y179937D01*
X522437D01*
X523063Y179625D01*
X523375Y179000D01*
X523063Y178375D01*
X522437Y178063D01*
X520250D01*
X522437Y228063D02*
X523063Y227750D01*
X523375Y227125D01*
X523063Y226500D01*
X522437Y226187D01*
X520250D01*
Y229937D01*
X522437D01*
X523063Y229625D01*
X523375Y229000D01*
X523063Y228375D01*
X522437Y228063D01*
X520250D01*
X522437Y258063D02*
X523063Y257750D01*
X523375Y257125D01*
X523063Y256500D01*
X522437Y256187D01*
X520250D01*
Y259937D01*
X522437D01*
X523063Y259625D01*
X523375Y259000D01*
X523063Y258375D01*
X522437Y258063D01*
X520250D01*
X522437Y268063D02*
X523063Y267750D01*
X523375Y267125D01*
X523063Y266500D01*
X522437Y266187D01*
X520250D01*
Y269937D01*
X522437D01*
X523063Y269625D01*
X523375Y269000D01*
X523063Y268375D01*
X522437Y268063D01*
X520250D01*
X522437Y318063D02*
X523063Y317750D01*
X523375Y317125D01*
X523063Y316500D01*
X522437Y316187D01*
X520250D01*
Y319937D01*
X522437D01*
X523063Y319625D01*
X523375Y319000D01*
X523063Y318375D01*
X522437Y318063D01*
X520250D01*
X522437Y348063D02*
X523063Y347750D01*
X523375Y347125D01*
X523063Y346500D01*
X522437Y346187D01*
X520250D01*
Y349937D01*
X522437D01*
X523063Y349625D01*
X523375Y349000D01*
X523063Y348375D01*
X522437Y348063D01*
X520250D01*
X522437Y358063D02*
X523063Y357750D01*
X523375Y357125D01*
X523063Y356500D01*
X522437Y356187D01*
X520250D01*
Y359937D01*
X522437D01*
X523063Y359625D01*
X523375Y359000D01*
X523063Y358375D01*
X522437Y358063D01*
X520250D01*
X532437Y128063D02*
X533063Y127750D01*
X533375Y127125D01*
X533063Y126500D01*
X532437Y126187D01*
X530250D01*
Y129937D01*
X532437D01*
X533063Y129625D01*
X533375Y129000D01*
X533063Y128375D01*
X532437Y128063D01*
X530250D01*
X532437Y138063D02*
X533063Y137750D01*
X533375Y137125D01*
X533063Y136500D01*
X532437Y136187D01*
X530250D01*
Y139937D01*
X532437D01*
X533063Y139625D01*
X533375Y139000D01*
X533063Y138375D01*
X532437Y138063D01*
X530250D01*
X532437Y168063D02*
X533063Y167750D01*
X533375Y167125D01*
X533063Y166500D01*
X532437Y166187D01*
X530250D01*
Y169937D01*
X532437D01*
X533063Y169625D01*
X533375Y169000D01*
X533063Y168375D01*
X532437Y168063D01*
X530250D01*
X532437Y178063D02*
X533063Y177750D01*
X533375Y177125D01*
X533063Y176500D01*
X532437Y176187D01*
X530250D01*
Y179937D01*
X532437D01*
X533063Y179625D01*
X533375Y179000D01*
X533063Y178375D01*
X532437Y178063D01*
X530250D01*
X532437Y228063D02*
X533063Y227750D01*
X533375Y227125D01*
X533063Y226500D01*
X532437Y226187D01*
X530250D01*
Y229937D01*
X532437D01*
X533063Y229625D01*
X533375Y229000D01*
X533063Y228375D01*
X532437Y228063D01*
X530250D01*
X532437Y258063D02*
X533063Y257750D01*
X533375Y257125D01*
X533063Y256500D01*
X532437Y256187D01*
X530250D01*
Y259937D01*
X532437D01*
X533063Y259625D01*
X533375Y259000D01*
X533063Y258375D01*
X532437Y258063D01*
X530250D01*
X532437Y268063D02*
X533063Y267750D01*
X533375Y267125D01*
X533063Y266500D01*
X532437Y266187D01*
X530250D01*
Y269937D01*
X532437D01*
X533063Y269625D01*
X533375Y269000D01*
X533063Y268375D01*
X532437Y268063D01*
X530250D01*
X532437Y318063D02*
X533063Y317750D01*
X533375Y317125D01*
X533063Y316500D01*
X532437Y316187D01*
X530250D01*
Y319937D01*
X532437D01*
X533063Y319625D01*
X533375Y319000D01*
X533063Y318375D01*
X532437Y318063D01*
X530250D01*
X532437Y348063D02*
X533063Y347750D01*
X533375Y347125D01*
X533063Y346500D01*
X532437Y346187D01*
X530250D01*
Y349937D01*
X532437D01*
X533063Y349625D01*
X533375Y349000D01*
X533063Y348375D01*
X532437Y348063D01*
X530250D01*
X532437Y358063D02*
X533063Y357750D01*
X533375Y357125D01*
X533063Y356500D01*
X532437Y356187D01*
X530250D01*
Y359937D01*
X532437D01*
X533063Y359625D01*
X533375Y359000D01*
X533063Y358375D01*
X532437Y358063D01*
X530250D01*
X542437Y28063D02*
X543063Y27750D01*
X543375Y27125D01*
X543063Y26500D01*
X542437Y26187D01*
X540250D01*
Y29937D01*
X542437D01*
X543063Y29625D01*
X543375Y29000D01*
X543063Y28375D01*
X542437Y28063D01*
X540250D01*
X542437Y78063D02*
X543063Y77750D01*
X543375Y77125D01*
X543063Y76500D01*
X542437Y76187D01*
X540250D01*
Y79937D01*
X542437D01*
X543063Y79625D01*
X543375Y79000D01*
X543063Y78375D01*
X542437Y78063D01*
X540250D01*
X542437Y128063D02*
X543063Y127750D01*
X543375Y127125D01*
X543063Y126500D01*
X542437Y126187D01*
X540250D01*
Y129937D01*
X542437D01*
X543063Y129625D01*
X543375Y129000D01*
X543063Y128375D01*
X542437Y128063D01*
X540250D01*
X542437Y138063D02*
X543063Y137750D01*
X543375Y137125D01*
X543063Y136500D01*
X542437Y136187D01*
X540250D01*
Y139937D01*
X542437D01*
X543063Y139625D01*
X543375Y139000D01*
X543063Y138375D01*
X542437Y138063D01*
X540250D01*
X542437Y168063D02*
X543063Y167750D01*
X543375Y167125D01*
X543063Y166500D01*
X542437Y166187D01*
X540250D01*
Y169937D01*
X542437D01*
X543063Y169625D01*
X543375Y169000D01*
X543063Y168375D01*
X542437Y168063D01*
X540250D01*
X542437Y178063D02*
X543063Y177750D01*
X543375Y177125D01*
X543063Y176500D01*
X542437Y176187D01*
X540250D01*
Y179937D01*
X542437D01*
X543063Y179625D01*
X543375Y179000D01*
X543063Y178375D01*
X542437Y178063D01*
X540250D01*
X542437Y228063D02*
X543063Y227750D01*
X543375Y227125D01*
X543063Y226500D01*
X542437Y226187D01*
X540250D01*
Y229937D01*
X542437D01*
X543063Y229625D01*
X543375Y229000D01*
X543063Y228375D01*
X542437Y228063D01*
X540250D01*
X542437Y258063D02*
X543063Y257750D01*
X543375Y257125D01*
X543063Y256500D01*
X542437Y256187D01*
X540250D01*
Y259937D01*
X542437D01*
X543063Y259625D01*
X543375Y259000D01*
X543063Y258375D01*
X542437Y258063D01*
X540250D01*
X542437Y268063D02*
X543063Y267750D01*
X543375Y267125D01*
X543063Y266500D01*
X542437Y266187D01*
X540250D01*
Y269937D01*
X542437D01*
X543063Y269625D01*
X543375Y269000D01*
X543063Y268375D01*
X542437Y268063D01*
X540250D01*
X542437Y318063D02*
X543063Y317750D01*
X543375Y317125D01*
X543063Y316500D01*
X542437Y316187D01*
X540250D01*
Y319937D01*
X542437D01*
X543063Y319625D01*
X543375Y319000D01*
X543063Y318375D01*
X542437Y318063D01*
X540250D01*
X542437Y348063D02*
X543063Y347750D01*
X543375Y347125D01*
X543063Y346500D01*
X542437Y346187D01*
X540250D01*
Y349937D01*
X542437D01*
X543063Y349625D01*
X543375Y349000D01*
X543063Y348375D01*
X542437Y348063D01*
X540250D01*
X542437Y358063D02*
X543063Y357750D01*
X543375Y357125D01*
X543063Y356500D01*
X542437Y356187D01*
X540250D01*
Y359937D01*
X542437D01*
X543063Y359625D01*
X543375Y359000D01*
X543063Y358375D01*
X542437Y358063D01*
X540250D01*
X552437Y28063D02*
X553063Y27750D01*
X553375Y27125D01*
X553063Y26500D01*
X552437Y26187D01*
X550250D01*
Y29937D01*
X552437D01*
X553063Y29625D01*
X553375Y29000D01*
X553063Y28375D01*
X552437Y28063D01*
X550250D01*
X552437Y78063D02*
X553063Y77750D01*
X553375Y77125D01*
X553063Y76500D01*
X552437Y76187D01*
X550250D01*
Y79937D01*
X552437D01*
X553063Y79625D01*
X553375Y79000D01*
X553063Y78375D01*
X552437Y78063D01*
X550250D01*
X552437Y128063D02*
X553063Y127750D01*
X553375Y127125D01*
X553063Y126500D01*
X552437Y126187D01*
X550250D01*
Y129937D01*
X552437D01*
X553063Y129625D01*
X553375Y129000D01*
X553063Y128375D01*
X552437Y128063D01*
X550250D01*
X552437Y138063D02*
X553063Y137750D01*
X553375Y137125D01*
X553063Y136500D01*
X552437Y136187D01*
X550250D01*
Y139937D01*
X552437D01*
X553063Y139625D01*
X553375Y139000D01*
X553063Y138375D01*
X552437Y138063D01*
X550250D01*
X552437Y168063D02*
X553063Y167750D01*
X553375Y167125D01*
X553063Y166500D01*
X552437Y166187D01*
X550250D01*
Y169937D01*
X552437D01*
X553063Y169625D01*
X553375Y169000D01*
X553063Y168375D01*
X552437Y168063D01*
X550250D01*
X552437Y178063D02*
X553063Y177750D01*
X553375Y177125D01*
X553063Y176500D01*
X552437Y176187D01*
X550250D01*
Y179937D01*
X552437D01*
X553063Y179625D01*
X553375Y179000D01*
X553063Y178375D01*
X552437Y178063D01*
X550250D01*
X552437Y228063D02*
X553063Y227750D01*
X553375Y227125D01*
X553063Y226500D01*
X552437Y226187D01*
X550250D01*
Y229937D01*
X552437D01*
X553063Y229625D01*
X553375Y229000D01*
X553063Y228375D01*
X552437Y228063D01*
X550250D01*
X552437Y258063D02*
X553063Y257750D01*
X553375Y257125D01*
X553063Y256500D01*
X552437Y256187D01*
X550250D01*
Y259937D01*
X552437D01*
X553063Y259625D01*
X553375Y259000D01*
X553063Y258375D01*
X552437Y258063D01*
X550250D01*
X552437Y268063D02*
X553063Y267750D01*
X553375Y267125D01*
X553063Y266500D01*
X552437Y266187D01*
X550250D01*
Y269937D01*
X552437D01*
X553063Y269625D01*
X553375Y269000D01*
X553063Y268375D01*
X552437Y268063D01*
X550250D01*
X552437Y318063D02*
X553063Y317750D01*
X553375Y317125D01*
X553063Y316500D01*
X552437Y316187D01*
X550250D01*
Y319937D01*
X552437D01*
X553063Y319625D01*
X553375Y319000D01*
X553063Y318375D01*
X552437Y318063D01*
X550250D01*
X552437Y348063D02*
X553063Y347750D01*
X553375Y347125D01*
X553063Y346500D01*
X552437Y346187D01*
X550250D01*
Y349937D01*
X552437D01*
X553063Y349625D01*
X553375Y349000D01*
X553063Y348375D01*
X552437Y348063D01*
X550250D01*
X552437Y358063D02*
X553063Y357750D01*
X553375Y357125D01*
X553063Y356500D01*
X552437Y356187D01*
X550250D01*
Y359937D01*
X552437D01*
X553063Y359625D01*
X553375Y359000D01*
X553063Y358375D01*
X552437Y358063D01*
X550250D01*
X562437Y28063D02*
X563063Y27750D01*
X563375Y27125D01*
X563063Y26500D01*
X562437Y26187D01*
X560250D01*
Y29937D01*
X562437D01*
X563063Y29625D01*
X563375Y29000D01*
X563063Y28375D01*
X562437Y28063D01*
X560250D01*
X562437Y78063D02*
X563063Y77750D01*
X563375Y77125D01*
X563063Y76500D01*
X562437Y76187D01*
X560250D01*
Y79937D01*
X562437D01*
X563063Y79625D01*
X563375Y79000D01*
X563063Y78375D01*
X562437Y78063D01*
X560250D01*
X562437Y128063D02*
X563063Y127750D01*
X563375Y127125D01*
X563063Y126500D01*
X562437Y126187D01*
X560250D01*
Y129937D01*
X562437D01*
X563063Y129625D01*
X563375Y129000D01*
X563063Y128375D01*
X562437Y128063D01*
X560250D01*
X562437Y138063D02*
X563063Y137750D01*
X563375Y137125D01*
X563063Y136500D01*
X562437Y136187D01*
X560250D01*
Y139937D01*
X562437D01*
X563063Y139625D01*
X563375Y139000D01*
X563063Y138375D01*
X562437Y138063D01*
X560250D01*
X562437Y168063D02*
X563063Y167750D01*
X563375Y167125D01*
X563063Y166500D01*
X562437Y166187D01*
X560250D01*
Y169937D01*
X562437D01*
X563063Y169625D01*
X563375Y169000D01*
X563063Y168375D01*
X562437Y168063D01*
X560250D01*
X562437Y178063D02*
X563063Y177750D01*
X563375Y177125D01*
X563063Y176500D01*
X562437Y176187D01*
X560250D01*
Y179937D01*
X562437D01*
X563063Y179625D01*
X563375Y179000D01*
X563063Y178375D01*
X562437Y178063D01*
X560250D01*
X562437Y228063D02*
X563063Y227750D01*
X563375Y227125D01*
X563063Y226500D01*
X562437Y226187D01*
X560250D01*
Y229937D01*
X562437D01*
X563063Y229625D01*
X563375Y229000D01*
X563063Y228375D01*
X562437Y228063D01*
X560250D01*
X562437Y258063D02*
X563063Y257750D01*
X563375Y257125D01*
X563063Y256500D01*
X562437Y256187D01*
X560250D01*
Y259937D01*
X562437D01*
X563063Y259625D01*
X563375Y259000D01*
X563063Y258375D01*
X562437Y258063D01*
X560250D01*
X562437Y268063D02*
X563063Y267750D01*
X563375Y267125D01*
X563063Y266500D01*
X562437Y266187D01*
X560250D01*
Y269937D01*
X562437D01*
X563063Y269625D01*
X563375Y269000D01*
X563063Y268375D01*
X562437Y268063D01*
X560250D01*
X562437Y318063D02*
X563063Y317750D01*
X563375Y317125D01*
X563063Y316500D01*
X562437Y316187D01*
X560250D01*
Y319937D01*
X562437D01*
X563063Y319625D01*
X563375Y319000D01*
X563063Y318375D01*
X562437Y318063D01*
X560250D01*
X562437Y348063D02*
X563063Y347750D01*
X563375Y347125D01*
X563063Y346500D01*
X562437Y346187D01*
X560250D01*
Y349937D01*
X562437D01*
X563063Y349625D01*
X563375Y349000D01*
X563063Y348375D01*
X562437Y348063D01*
X560250D01*
X562437Y358063D02*
X563063Y357750D01*
X563375Y357125D01*
X563063Y356500D01*
X562437Y356187D01*
X560250D01*
Y359937D01*
X562437D01*
X563063Y359625D01*
X563375Y359000D01*
X563063Y358375D01*
X562437Y358063D01*
X560250D01*
X572437Y28063D02*
X573063Y27750D01*
X573375Y27125D01*
X573063Y26500D01*
X572437Y26187D01*
X570250D01*
Y29937D01*
X572437D01*
X573063Y29625D01*
X573375Y29000D01*
X573063Y28375D01*
X572437Y28063D01*
X570250D01*
X572437Y78063D02*
X573063Y77750D01*
X573375Y77125D01*
X573063Y76500D01*
X572437Y76187D01*
X570250D01*
Y79937D01*
X572437D01*
X573063Y79625D01*
X573375Y79000D01*
X573063Y78375D01*
X572437Y78063D01*
X570250D01*
X572437Y128063D02*
X573063Y127750D01*
X573375Y127125D01*
X573063Y126500D01*
X572437Y126187D01*
X570250D01*
Y129937D01*
X572437D01*
X573063Y129625D01*
X573375Y129000D01*
X573063Y128375D01*
X572437Y128063D01*
X570250D01*
X572437Y138063D02*
X573063Y137750D01*
X573375Y137125D01*
X573063Y136500D01*
X572437Y136187D01*
X570250D01*
Y139937D01*
X572437D01*
X573063Y139625D01*
X573375Y139000D01*
X573063Y138375D01*
X572437Y138063D01*
X570250D01*
X572437Y168063D02*
X573063Y167750D01*
X573375Y167125D01*
X573063Y166500D01*
X572437Y166187D01*
X570250D01*
Y169937D01*
X572437D01*
X573063Y169625D01*
X573375Y169000D01*
X573063Y168375D01*
X572437Y168063D01*
X570250D01*
X572437Y178063D02*
X573063Y177750D01*
X573375Y177125D01*
X573063Y176500D01*
X572437Y176187D01*
X570250D01*
Y179937D01*
X572437D01*
X573063Y179625D01*
X573375Y179000D01*
X573063Y178375D01*
X572437Y178063D01*
X570250D01*
X572437Y228063D02*
X573063Y227750D01*
X573375Y227125D01*
X573063Y226500D01*
X572437Y226187D01*
X570250D01*
Y229937D01*
X572437D01*
X573063Y229625D01*
X573375Y229000D01*
X573063Y228375D01*
X572437Y228063D01*
X570250D01*
X572437Y258063D02*
X573063Y257750D01*
X573375Y257125D01*
X573063Y256500D01*
X572437Y256187D01*
X570250D01*
Y259937D01*
X572437D01*
X573063Y259625D01*
X573375Y259000D01*
X573063Y258375D01*
X572437Y258063D01*
X570250D01*
X572437Y268063D02*
X573063Y267750D01*
X573375Y267125D01*
X573063Y266500D01*
X572437Y266187D01*
X570250D01*
Y269937D01*
X572437D01*
X573063Y269625D01*
X573375Y269000D01*
X573063Y268375D01*
X572437Y268063D01*
X570250D01*
X572437Y318063D02*
X573063Y317750D01*
X573375Y317125D01*
X573063Y316500D01*
X572437Y316187D01*
X570250D01*
Y319937D01*
X572437D01*
X573063Y319625D01*
X573375Y319000D01*
X573063Y318375D01*
X572437Y318063D01*
X570250D01*
X572437Y348063D02*
X573063Y347750D01*
X573375Y347125D01*
X573063Y346500D01*
X572437Y346187D01*
X570250D01*
Y349937D01*
X572437D01*
X573063Y349625D01*
X573375Y349000D01*
X573063Y348375D01*
X572437Y348063D01*
X570250D01*
X572437Y358063D02*
X573063Y357750D01*
X573375Y357125D01*
X573063Y356500D01*
X572437Y356187D01*
X570250D01*
Y359937D01*
X572437D01*
X573063Y359625D01*
X573375Y359000D01*
X573063Y358375D01*
X572437Y358063D01*
X570250D01*
X582437Y28063D02*
X583063Y27750D01*
X583375Y27125D01*
X583063Y26500D01*
X582437Y26187D01*
X580250D01*
Y29937D01*
X582437D01*
X583063Y29625D01*
X583375Y29000D01*
X583063Y28375D01*
X582437Y28063D01*
X580250D01*
X582437Y78063D02*
X583063Y77750D01*
X583375Y77125D01*
X583063Y76500D01*
X582437Y76187D01*
X580250D01*
Y79937D01*
X582437D01*
X583063Y79625D01*
X583375Y79000D01*
X583063Y78375D01*
X582437Y78063D01*
X580250D01*
X582437Y128063D02*
X583063Y127750D01*
X583375Y127125D01*
X583063Y126500D01*
X582437Y126187D01*
X580250D01*
Y129937D01*
X582437D01*
X583063Y129625D01*
X583375Y129000D01*
X583063Y128375D01*
X582437Y128063D01*
X580250D01*
X582437Y138063D02*
X583063Y137750D01*
X583375Y137125D01*
X583063Y136500D01*
X582437Y136187D01*
X580250D01*
Y139937D01*
X582437D01*
X583063Y139625D01*
X583375Y139000D01*
X583063Y138375D01*
X582437Y138063D01*
X580250D01*
X582437Y168063D02*
X583063Y167750D01*
X583375Y167125D01*
X583063Y166500D01*
X582437Y166187D01*
X580250D01*
Y169937D01*
X582437D01*
X583063Y169625D01*
X583375Y169000D01*
X583063Y168375D01*
X582437Y168063D01*
X580250D01*
X582437Y178063D02*
X583063Y177750D01*
X583375Y177125D01*
X583063Y176500D01*
X582437Y176187D01*
X580250D01*
Y179937D01*
X582437D01*
X583063Y179625D01*
X583375Y179000D01*
X583063Y178375D01*
X582437Y178063D01*
X580250D01*
X582437Y228063D02*
X583063Y227750D01*
X583375Y227125D01*
X583063Y226500D01*
X582437Y226187D01*
X580250D01*
Y229937D01*
X582437D01*
X583063Y229625D01*
X583375Y229000D01*
X583063Y228375D01*
X582437Y228063D01*
X580250D01*
X582437Y258063D02*
X583063Y257750D01*
X583375Y257125D01*
X583063Y256500D01*
X582437Y256187D01*
X580250D01*
Y259937D01*
X582437D01*
X583063Y259625D01*
X583375Y259000D01*
X583063Y258375D01*
X582437Y258063D01*
X580250D01*
X582437Y268063D02*
X583063Y267750D01*
X583375Y267125D01*
X583063Y266500D01*
X582437Y266187D01*
X580250D01*
Y269937D01*
X582437D01*
X583063Y269625D01*
X583375Y269000D01*
X583063Y268375D01*
X582437Y268063D01*
X580250D01*
X582437Y318063D02*
X583063Y317750D01*
X583375Y317125D01*
X583063Y316500D01*
X582437Y316187D01*
X580250D01*
Y319937D01*
X582437D01*
X583063Y319625D01*
X583375Y319000D01*
X583063Y318375D01*
X582437Y318063D01*
X580250D01*
X582437Y348063D02*
X583063Y347750D01*
X583375Y347125D01*
X583063Y346500D01*
X582437Y346187D01*
X580250D01*
Y349937D01*
X582437D01*
X583063Y349625D01*
X583375Y349000D01*
X583063Y348375D01*
X582437Y348063D01*
X580250D01*
X582437Y358063D02*
X583063Y357750D01*
X583375Y357125D01*
X583063Y356500D01*
X582437Y356187D01*
X580250D01*
Y359937D01*
X582437D01*
X583063Y359625D01*
X583375Y359000D01*
X583063Y358375D01*
X582437Y358063D01*
X580250D01*
X592437Y28063D02*
X593063Y27750D01*
X593375Y27125D01*
X593063Y26500D01*
X592437Y26187D01*
X590250D01*
Y29937D01*
X592437D01*
X593063Y29625D01*
X593375Y29000D01*
X593063Y28375D01*
X592437Y28063D01*
X590250D01*
X592437Y78063D02*
X593063Y77750D01*
X593375Y77125D01*
X593063Y76500D01*
X592437Y76187D01*
X590250D01*
Y79937D01*
X592437D01*
X593063Y79625D01*
X593375Y79000D01*
X593063Y78375D01*
X592437Y78063D01*
X590250D01*
X592437Y228063D02*
X593063Y227750D01*
X593375Y227125D01*
X593063Y226500D01*
X592437Y226187D01*
X590250D01*
Y229937D01*
X592437D01*
X593063Y229625D01*
X593375Y229000D01*
X593063Y228375D01*
X592437Y228063D01*
X590250D01*
X592437Y258063D02*
X593063Y257750D01*
X593375Y257125D01*
X593063Y256500D01*
X592437Y256187D01*
X590250D01*
Y259937D01*
X592437D01*
X593063Y259625D01*
X593375Y259000D01*
X593063Y258375D01*
X592437Y258063D01*
X590250D01*
X592437Y268063D02*
X593063Y267750D01*
X593375Y267125D01*
X593063Y266500D01*
X592437Y266187D01*
X590250D01*
Y269937D01*
X592437D01*
X593063Y269625D01*
X593375Y269000D01*
X593063Y268375D01*
X592437Y268063D01*
X590250D01*
X592437Y318063D02*
X593063Y317750D01*
X593375Y317125D01*
X593063Y316500D01*
X592437Y316187D01*
X590250D01*
Y319937D01*
X592437D01*
X593063Y319625D01*
X593375Y319000D01*
X593063Y318375D01*
X592437Y318063D01*
X590250D01*
X592437Y348063D02*
X593063Y347750D01*
X593375Y347125D01*
X593063Y346500D01*
X592437Y346187D01*
X590250D01*
Y349937D01*
X592437D01*
X593063Y349625D01*
X593375Y349000D01*
X593063Y348375D01*
X592437Y348063D01*
X590250D01*
X592437Y358063D02*
X593063Y357750D01*
X593375Y357125D01*
X593063Y356500D01*
X592437Y356187D01*
X590250D01*
Y359937D01*
X592437D01*
X593063Y359625D01*
X593375Y359000D01*
X593063Y358375D01*
X592437Y358063D01*
X590250D01*
X602437Y28063D02*
X603063Y27750D01*
X603375Y27125D01*
X603063Y26500D01*
X602437Y26187D01*
X600250D01*
Y29937D01*
X602437D01*
X603063Y29625D01*
X603375Y29000D01*
X603063Y28375D01*
X602437Y28063D01*
X600250D01*
X602437Y78063D02*
X603063Y77750D01*
X603375Y77125D01*
X603063Y76500D01*
X602437Y76187D01*
X600250D01*
Y79937D01*
X602437D01*
X603063Y79625D01*
X603375Y79000D01*
X603063Y78375D01*
X602437Y78063D01*
X600250D01*
X602437Y228063D02*
X603063Y227750D01*
X603375Y227125D01*
X603063Y226500D01*
X602437Y226187D01*
X600250D01*
Y229937D01*
X602437D01*
X603063Y229625D01*
X603375Y229000D01*
X603063Y228375D01*
X602437Y228063D01*
X600250D01*
X602437Y258063D02*
X603063Y257750D01*
X603375Y257125D01*
X603063Y256500D01*
X602437Y256187D01*
X600250D01*
Y259937D01*
X602437D01*
X603063Y259625D01*
X603375Y259000D01*
X603063Y258375D01*
X602437Y258063D01*
X600250D01*
X602437Y268063D02*
X603063Y267750D01*
X603375Y267125D01*
X603063Y266500D01*
X602437Y266187D01*
X600250D01*
Y269937D01*
X602437D01*
X603063Y269625D01*
X603375Y269000D01*
X603063Y268375D01*
X602437Y268063D01*
X600250D01*
X602437Y318063D02*
X603063Y317750D01*
X603375Y317125D01*
X603063Y316500D01*
X602437Y316187D01*
X600250D01*
Y319937D01*
X602437D01*
X603063Y319625D01*
X603375Y319000D01*
X603063Y318375D01*
X602437Y318063D01*
X600250D01*
X602437Y348063D02*
X603063Y347750D01*
X603375Y347125D01*
X603063Y346500D01*
X602437Y346187D01*
X600250D01*
Y349937D01*
X602437D01*
X603063Y349625D01*
X603375Y349000D01*
X603063Y348375D01*
X602437Y348063D01*
X600250D01*
X602437Y358063D02*
X603063Y357750D01*
X603375Y357125D01*
X603063Y356500D01*
X602437Y356187D01*
X600250D01*
Y359937D01*
X602437D01*
X603063Y359625D01*
X603375Y359000D01*
X603063Y358375D01*
X602437Y358063D01*
X600250D01*
X612437Y28063D02*
X613063Y27750D01*
X613375Y27125D01*
X613063Y26500D01*
X612437Y26187D01*
X610250D01*
Y29937D01*
X612437D01*
X613063Y29625D01*
X613375Y29000D01*
X613063Y28375D01*
X612437Y28063D01*
X610250D01*
X612437Y78063D02*
X613063Y77750D01*
X613375Y77125D01*
X613063Y76500D01*
X612437Y76187D01*
X610250D01*
Y79937D01*
X612437D01*
X613063Y79625D01*
X613375Y79000D01*
X613063Y78375D01*
X612437Y78063D01*
X610250D01*
X612437Y228063D02*
X613063Y227750D01*
X613375Y227125D01*
X613063Y226500D01*
X612437Y226187D01*
X610250D01*
Y229937D01*
X612437D01*
X613063Y229625D01*
X613375Y229000D01*
X613063Y228375D01*
X612437Y228063D01*
X610250D01*
X612437Y258063D02*
X613063Y257750D01*
X613375Y257125D01*
X613063Y256500D01*
X612437Y256187D01*
X610250D01*
Y259937D01*
X612437D01*
X613063Y259625D01*
X613375Y259000D01*
X613063Y258375D01*
X612437Y258063D01*
X610250D01*
X612437Y268063D02*
X613063Y267750D01*
X613375Y267125D01*
X613063Y266500D01*
X612437Y266187D01*
X610250D01*
Y269937D01*
X612437D01*
X613063Y269625D01*
X613375Y269000D01*
X613063Y268375D01*
X612437Y268063D01*
X610250D01*
X612437Y318063D02*
X613063Y317750D01*
X613375Y317125D01*
X613063Y316500D01*
X612437Y316187D01*
X610250D01*
Y319937D01*
X612437D01*
X613063Y319625D01*
X613375Y319000D01*
X613063Y318375D01*
X612437Y318063D01*
X610250D01*
X612437Y348063D02*
X613063Y347750D01*
X613375Y347125D01*
X613063Y346500D01*
X612437Y346187D01*
X610250D01*
Y349937D01*
X612437D01*
X613063Y349625D01*
X613375Y349000D01*
X613063Y348375D01*
X612437Y348063D01*
X610250D01*
X612437Y358063D02*
X613063Y357750D01*
X613375Y357125D01*
X613063Y356500D01*
X612437Y356187D01*
X610250D01*
Y359937D01*
X612437D01*
X613063Y359625D01*
X613375Y359000D01*
X613063Y358375D01*
X612437Y358063D01*
X610250D01*
X622437Y28063D02*
X623063Y27750D01*
X623375Y27125D01*
X623063Y26500D01*
X622437Y26187D01*
X620250D01*
Y29937D01*
X622437D01*
X623063Y29625D01*
X623375Y29000D01*
X623063Y28375D01*
X622437Y28063D01*
X620250D01*
X622437Y78063D02*
X623063Y77750D01*
X623375Y77125D01*
X623063Y76500D01*
X622437Y76187D01*
X620250D01*
Y79937D01*
X622437D01*
X623063Y79625D01*
X623375Y79000D01*
X623063Y78375D01*
X622437Y78063D01*
X620250D01*
X622437Y228063D02*
X623063Y227750D01*
X623375Y227125D01*
X623063Y226500D01*
X622437Y226187D01*
X620250D01*
Y229937D01*
X622437D01*
X623063Y229625D01*
X623375Y229000D01*
X623063Y228375D01*
X622437Y228063D01*
X620250D01*
X622437Y258063D02*
X623063Y257750D01*
X623375Y257125D01*
X623063Y256500D01*
X622437Y256187D01*
X620250D01*
Y259937D01*
X622437D01*
X623063Y259625D01*
X623375Y259000D01*
X623063Y258375D01*
X622437Y258063D01*
X620250D01*
X622437Y268063D02*
X623063Y267750D01*
X623375Y267125D01*
X623063Y266500D01*
X622437Y266187D01*
X620250D01*
Y269937D01*
X622437D01*
X623063Y269625D01*
X623375Y269000D01*
X623063Y268375D01*
X622437Y268063D01*
X620250D01*
X622437Y318063D02*
X623063Y317750D01*
X623375Y317125D01*
X623063Y316500D01*
X622437Y316187D01*
X620250D01*
Y319937D01*
X622437D01*
X623063Y319625D01*
X623375Y319000D01*
X623063Y318375D01*
X622437Y318063D01*
X620250D01*
X622437Y348063D02*
X623063Y347750D01*
X623375Y347125D01*
X623063Y346500D01*
X622437Y346187D01*
X620250D01*
Y349937D01*
X622437D01*
X623063Y349625D01*
X623375Y349000D01*
X623063Y348375D01*
X622437Y348063D01*
X620250D01*
X622437Y358063D02*
X623063Y357750D01*
X623375Y357125D01*
X623063Y356500D01*
X622437Y356187D01*
X620250D01*
Y359937D01*
X622437D01*
X623063Y359625D01*
X623375Y359000D01*
X623063Y358375D01*
X622437Y358063D01*
X620250D01*
X632437Y28063D02*
X633063Y27750D01*
X633375Y27125D01*
X633063Y26500D01*
X632437Y26187D01*
X630250D01*
Y29937D01*
X632437D01*
X633063Y29625D01*
X633375Y29000D01*
X633063Y28375D01*
X632437Y28063D01*
X630250D01*
X632437Y78063D02*
X633063Y77750D01*
X633375Y77125D01*
X633063Y76500D01*
X632437Y76187D01*
X630250D01*
Y79937D01*
X632437D01*
X633063Y79625D01*
X633375Y79000D01*
X633063Y78375D01*
X632437Y78063D01*
X630250D01*
X632437Y127828D02*
X633063Y127515D01*
X633375Y126891D01*
X633063Y126265D01*
X632437Y125953D01*
X630250D01*
Y129703D01*
X632437D01*
X633063Y129391D01*
X633375Y128765D01*
X633063Y128141D01*
X632437Y127828D01*
X630250D01*
X632437Y157828D02*
X633063Y157515D01*
X633375Y156891D01*
X633063Y156265D01*
X632437Y155953D01*
X630250D01*
Y159703D01*
X632437D01*
X633063Y159391D01*
X633375Y158765D01*
X633063Y158141D01*
X632437Y157828D01*
X630250D01*
X632437Y167828D02*
X633063Y167515D01*
X633375Y166891D01*
X633063Y166265D01*
X632437Y165953D01*
X630250D01*
Y169703D01*
X632437D01*
X633063Y169391D01*
X633375Y168765D01*
X633063Y168141D01*
X632437Y167828D01*
X630250D01*
X632437Y228063D02*
X633063Y227750D01*
X633375Y227125D01*
X633063Y226500D01*
X632437Y226187D01*
X630250D01*
Y229937D01*
X632437D01*
X633063Y229625D01*
X633375Y229000D01*
X633063Y228375D01*
X632437Y228063D01*
X630250D01*
X632437Y258063D02*
X633063Y257750D01*
X633375Y257125D01*
X633063Y256500D01*
X632437Y256187D01*
X630250D01*
Y259937D01*
X632437D01*
X633063Y259625D01*
X633375Y259000D01*
X633063Y258375D01*
X632437Y258063D01*
X630250D01*
X632437Y268063D02*
X633063Y267750D01*
X633375Y267125D01*
X633063Y266500D01*
X632437Y266187D01*
X630250D01*
Y269937D01*
X632437D01*
X633063Y269625D01*
X633375Y269000D01*
X633063Y268375D01*
X632437Y268063D01*
X630250D01*
X632437Y318063D02*
X633063Y317750D01*
X633375Y317125D01*
X633063Y316500D01*
X632437Y316187D01*
X630250D01*
Y319937D01*
X632437D01*
X633063Y319625D01*
X633375Y319000D01*
X633063Y318375D01*
X632437Y318063D01*
X630250D01*
X632437Y348063D02*
X633063Y347750D01*
X633375Y347125D01*
X633063Y346500D01*
X632437Y346187D01*
X630250D01*
Y349937D01*
X632437D01*
X633063Y349625D01*
X633375Y349000D01*
X633063Y348375D01*
X632437Y348063D01*
X630250D01*
X632437Y358063D02*
X633063Y357750D01*
X633375Y357125D01*
X633063Y356500D01*
X632437Y356187D01*
X630250D01*
Y359937D01*
X632437D01*
X633063Y359625D01*
X633375Y359000D01*
X633063Y358375D01*
X632437Y358063D01*
X630250D01*
X642437Y28063D02*
X643063Y27750D01*
X643375Y27125D01*
X643063Y26500D01*
X642437Y26187D01*
X640250D01*
Y29937D01*
X642437D01*
X643063Y29625D01*
X643375Y29000D01*
X643063Y28375D01*
X642437Y28063D01*
X640250D01*
X642437Y78063D02*
X643063Y77750D01*
X643375Y77125D01*
X643063Y76500D01*
X642437Y76187D01*
X640250D01*
Y79937D01*
X642437D01*
X643063Y79625D01*
X643375Y79000D01*
X643063Y78375D01*
X642437Y78063D01*
X640250D01*
X642437Y127828D02*
X643063Y127515D01*
X643375Y126891D01*
X643063Y126265D01*
X642437Y125953D01*
X640250D01*
Y129703D01*
X642437D01*
X643063Y129391D01*
X643375Y128765D01*
X643063Y128141D01*
X642437Y127828D01*
X640250D01*
X642437Y157828D02*
X643063Y157515D01*
X643375Y156891D01*
X643063Y156265D01*
X642437Y155953D01*
X640250D01*
Y159703D01*
X642437D01*
X643063Y159391D01*
X643375Y158765D01*
X643063Y158141D01*
X642437Y157828D01*
X640250D01*
X642437Y167828D02*
X643063Y167515D01*
X643375Y166891D01*
X643063Y166265D01*
X642437Y165953D01*
X640250D01*
Y169703D01*
X642437D01*
X643063Y169391D01*
X643375Y168765D01*
X643063Y168141D01*
X642437Y167828D01*
X640250D01*
X642437Y228063D02*
X643063Y227750D01*
X643375Y227125D01*
X643063Y226500D01*
X642437Y226187D01*
X640250D01*
Y229937D01*
X642437D01*
X643063Y229625D01*
X643375Y229000D01*
X643063Y228375D01*
X642437Y228063D01*
X640250D01*
X642437Y258063D02*
X643063Y257750D01*
X643375Y257125D01*
X643063Y256500D01*
X642437Y256187D01*
X640250D01*
Y259937D01*
X642437D01*
X643063Y259625D01*
X643375Y259000D01*
X643063Y258375D01*
X642437Y258063D01*
X640250D01*
X642437Y268063D02*
X643063Y267750D01*
X643375Y267125D01*
X643063Y266500D01*
X642437Y266187D01*
X640250D01*
Y269937D01*
X642437D01*
X643063Y269625D01*
X643375Y269000D01*
X643063Y268375D01*
X642437Y268063D01*
X640250D01*
X642437Y318063D02*
X643063Y317750D01*
X643375Y317125D01*
X643063Y316500D01*
X642437Y316187D01*
X640250D01*
Y319937D01*
X642437D01*
X643063Y319625D01*
X643375Y319000D01*
X643063Y318375D01*
X642437Y318063D01*
X640250D01*
X642437Y348063D02*
X643063Y347750D01*
X643375Y347125D01*
X643063Y346500D01*
X642437Y346187D01*
X640250D01*
Y349937D01*
X642437D01*
X643063Y349625D01*
X643375Y349000D01*
X643063Y348375D01*
X642437Y348063D01*
X640250D01*
X642437Y358063D02*
X643063Y357750D01*
X643375Y357125D01*
X643063Y356500D01*
X642437Y356187D01*
X640250D01*
Y359937D01*
X642437D01*
X643063Y359625D01*
X643375Y359000D01*
X643063Y358375D01*
X642437Y358063D01*
X640250D01*
X652437Y28063D02*
X653063Y27750D01*
X653375Y27125D01*
X653063Y26500D01*
X652437Y26187D01*
X650250D01*
Y29937D01*
X652437D01*
X653063Y29625D01*
X653375Y29000D01*
X653063Y28375D01*
X652437Y28063D01*
X650250D01*
X652437Y78063D02*
X653063Y77750D01*
X653375Y77125D01*
X653063Y76500D01*
X652437Y76187D01*
X650250D01*
Y79937D01*
X652437D01*
X653063Y79625D01*
X653375Y79000D01*
X653063Y78375D01*
X652437Y78063D01*
X650250D01*
X652437Y128063D02*
X653063Y127750D01*
X653375Y127125D01*
X653063Y126500D01*
X652437Y126187D01*
X650250D01*
Y129937D01*
X652437D01*
X653063Y129625D01*
X653375Y129000D01*
X653063Y128375D01*
X652437Y128063D01*
X650250D01*
X652437Y158063D02*
X653063Y157750D01*
X653375Y157125D01*
X653063Y156500D01*
X652437Y156187D01*
X650250D01*
Y159937D01*
X652437D01*
X653063Y159625D01*
X653375Y159000D01*
X653063Y158375D01*
X652437Y158063D01*
X650250D01*
X652437Y168063D02*
X653063Y167750D01*
X653375Y167125D01*
X653063Y166500D01*
X652437Y166187D01*
X650250D01*
Y169937D01*
X652437D01*
X653063Y169625D01*
X653375Y169000D01*
X653063Y168375D01*
X652437Y168063D01*
X650250D01*
X652437Y228063D02*
X653063Y227750D01*
X653375Y227125D01*
X653063Y226500D01*
X652437Y226187D01*
X650250D01*
Y229937D01*
X652437D01*
X653063Y229625D01*
X653375Y229000D01*
X653063Y228375D01*
X652437Y228063D01*
X650250D01*
X652437Y258063D02*
X653063Y257750D01*
X653375Y257125D01*
X653063Y256500D01*
X652437Y256187D01*
X650250D01*
Y259937D01*
X652437D01*
X653063Y259625D01*
X653375Y259000D01*
X653063Y258375D01*
X652437Y258063D01*
X650250D01*
X652437Y268063D02*
X653063Y267750D01*
X653375Y267125D01*
X653063Y266500D01*
X652437Y266187D01*
X650250D01*
Y269937D01*
X652437D01*
X653063Y269625D01*
X653375Y269000D01*
X653063Y268375D01*
X652437Y268063D01*
X650250D01*
X652437Y318063D02*
X653063Y317750D01*
X653375Y317125D01*
X653063Y316500D01*
X652437Y316187D01*
X650250D01*
Y319937D01*
X652437D01*
X653063Y319625D01*
X653375Y319000D01*
X653063Y318375D01*
X652437Y318063D01*
X650250D01*
X652437Y348063D02*
X653063Y347750D01*
X653375Y347125D01*
X653063Y346500D01*
X652437Y346187D01*
X650250D01*
Y349937D01*
X652437D01*
X653063Y349625D01*
X653375Y349000D01*
X653063Y348375D01*
X652437Y348063D01*
X650250D01*
X652437Y358063D02*
X653063Y357750D01*
X653375Y357125D01*
X653063Y356500D01*
X652437Y356187D01*
X650250D01*
Y359937D01*
X652437D01*
X653063Y359625D01*
X653375Y359000D01*
X653063Y358375D01*
X652437Y358063D01*
X650250D01*
X662437Y28063D02*
X663063Y27750D01*
X663375Y27125D01*
X663063Y26500D01*
X662437Y26187D01*
X660250D01*
Y29937D01*
X662437D01*
X663063Y29625D01*
X663375Y29000D01*
X663063Y28375D01*
X662437Y28063D01*
X660250D01*
X662437Y78063D02*
X663063Y77750D01*
X663375Y77125D01*
X663063Y76500D01*
X662437Y76187D01*
X660250D01*
Y79937D01*
X662437D01*
X663063Y79625D01*
X663375Y79000D01*
X663063Y78375D01*
X662437Y78063D01*
X660250D01*
X662437Y128063D02*
X663063Y127750D01*
X663375Y127125D01*
X663063Y126500D01*
X662437Y126187D01*
X660250D01*
Y129937D01*
X662437D01*
X663063Y129625D01*
X663375Y129000D01*
X663063Y128375D01*
X662437Y128063D01*
X660250D01*
X662437Y158063D02*
X663063Y157750D01*
X663375Y157125D01*
X663063Y156500D01*
X662437Y156187D01*
X660250D01*
Y159937D01*
X662437D01*
X663063Y159625D01*
X663375Y159000D01*
X663063Y158375D01*
X662437Y158063D01*
X660250D01*
X662437Y168063D02*
X663063Y167750D01*
X663375Y167125D01*
X663063Y166500D01*
X662437Y166187D01*
X660250D01*
Y169937D01*
X662437D01*
X663063Y169625D01*
X663375Y169000D01*
X663063Y168375D01*
X662437Y168063D01*
X660250D01*
X672437Y28063D02*
X673063Y27750D01*
X673375Y27125D01*
X673063Y26500D01*
X672437Y26187D01*
X670250D01*
Y29937D01*
X672437D01*
X673063Y29625D01*
X673375Y29000D01*
X673063Y28375D01*
X672437Y28063D01*
X670250D01*
X672437Y78063D02*
X673063Y77750D01*
X673375Y77125D01*
X673063Y76500D01*
X672437Y76187D01*
X670250D01*
Y79937D01*
X672437D01*
X673063Y79625D01*
X673375Y79000D01*
X673063Y78375D01*
X672437Y78063D01*
X670250D01*
X672437Y128063D02*
X673063Y127750D01*
X673375Y127125D01*
X673063Y126500D01*
X672437Y126187D01*
X670250D01*
Y129937D01*
X672437D01*
X673063Y129625D01*
X673375Y129000D01*
X673063Y128375D01*
X672437Y128063D01*
X670250D01*
X672437Y158063D02*
X673063Y157750D01*
X673375Y157125D01*
X673063Y156500D01*
X672437Y156187D01*
X670250D01*
Y159937D01*
X672437D01*
X673063Y159625D01*
X673375Y159000D01*
X673063Y158375D01*
X672437Y158063D01*
X670250D01*
X672437Y168063D02*
X673063Y167750D01*
X673375Y167125D01*
X673063Y166500D01*
X672437Y166187D01*
X670250D01*
Y169937D01*
X672437D01*
X673063Y169625D01*
X673375Y169000D01*
X673063Y168375D01*
X672437Y168063D01*
X670250D01*
X682437Y28063D02*
X683063Y27750D01*
X683375Y27125D01*
X683063Y26500D01*
X682437Y26187D01*
X680250D01*
Y29937D01*
X682437D01*
X683063Y29625D01*
X683375Y29000D01*
X683063Y28375D01*
X682437Y28063D01*
X680250D01*
X682437Y78063D02*
X683063Y77750D01*
X683375Y77125D01*
X683063Y76500D01*
X682437Y76187D01*
X680250D01*
Y79937D01*
X682437D01*
X683063Y79625D01*
X683375Y79000D01*
X683063Y78375D01*
X682437Y78063D01*
X680250D01*
X682437Y128063D02*
X683063Y127750D01*
X683375Y127125D01*
X683063Y126500D01*
X682437Y126187D01*
X680250D01*
Y129937D01*
X682437D01*
X683063Y129625D01*
X683375Y129000D01*
X683063Y128375D01*
X682437Y128063D01*
X680250D01*
X682437Y158063D02*
X683063Y157750D01*
X683375Y157125D01*
X683063Y156500D01*
X682437Y156187D01*
X680250D01*
Y159937D01*
X682437D01*
X683063Y159625D01*
X683375Y159000D01*
X683063Y158375D01*
X682437Y158063D01*
X680250D01*
X682437Y168063D02*
X683063Y167750D01*
X683375Y167125D01*
X683063Y166500D01*
X682437Y166187D01*
X680250D01*
Y169937D01*
X682437D01*
X683063Y169625D01*
X683375Y169000D01*
X683063Y168375D01*
X682437Y168063D01*
X680250D01*
X692437Y28063D02*
X693063Y27750D01*
X693375Y27125D01*
X693063Y26500D01*
X692437Y26187D01*
X690250D01*
Y29937D01*
X692437D01*
X693063Y29625D01*
X693375Y29000D01*
X693063Y28375D01*
X692437Y28063D01*
X690250D01*
X692437Y78063D02*
X693063Y77750D01*
X693375Y77125D01*
X693063Y76500D01*
X692437Y76187D01*
X690250D01*
Y79937D01*
X692437D01*
X693063Y79625D01*
X693375Y79000D01*
X693063Y78375D01*
X692437Y78063D01*
X690250D01*
X692437Y128063D02*
X693063Y127750D01*
X693375Y127125D01*
X693063Y126500D01*
X692437Y126187D01*
X690250D01*
Y129937D01*
X692437D01*
X693063Y129625D01*
X693375Y129000D01*
X693063Y128375D01*
X692437Y128063D01*
X690250D01*
X692437Y158063D02*
X693063Y157750D01*
X693375Y157125D01*
X693063Y156500D01*
X692437Y156187D01*
X690250D01*
Y159937D01*
X692437D01*
X693063Y159625D01*
X693375Y159000D01*
X693063Y158375D01*
X692437Y158063D01*
X690250D01*
X692437Y168063D02*
X693063Y167750D01*
X693375Y167125D01*
X693063Y166500D01*
X692437Y166187D01*
X690250D01*
Y169937D01*
X692437D01*
X693063Y169625D01*
X693375Y169000D01*
X693063Y168375D01*
X692437Y168063D01*
X690250D01*
X702437Y28063D02*
X703063Y27750D01*
X703375Y27125D01*
X703063Y26500D01*
X702437Y26187D01*
X700250D01*
Y29937D01*
X702437D01*
X703063Y29625D01*
X703375Y29000D01*
X703063Y28375D01*
X702437Y28063D01*
X700250D01*
X702437Y78063D02*
X703063Y77750D01*
X703375Y77125D01*
X703063Y76500D01*
X702437Y76187D01*
X700250D01*
Y79937D01*
X702437D01*
X703063Y79625D01*
X703375Y79000D01*
X703063Y78375D01*
X702437Y78063D01*
X700250D01*
X702437Y128063D02*
X703063Y127750D01*
X703375Y127125D01*
X703063Y126500D01*
X702437Y126187D01*
X700250D01*
Y129937D01*
X702437D01*
X703063Y129625D01*
X703375Y129000D01*
X703063Y128375D01*
X702437Y128063D01*
X700250D01*
X702437Y158063D02*
X703063Y157750D01*
X703375Y157125D01*
X703063Y156500D01*
X702437Y156187D01*
X700250D01*
Y159937D01*
X702437D01*
X703063Y159625D01*
X703375Y159000D01*
X703063Y158375D01*
X702437Y158063D01*
X700250D01*
X702437Y168063D02*
X703063Y167750D01*
X703375Y167125D01*
X703063Y166500D01*
X702437Y166187D01*
X700250D01*
Y169937D01*
X702437D01*
X703063Y169625D01*
X703375Y169000D01*
X703063Y168375D01*
X702437Y168063D01*
X700250D01*
X702437Y208063D02*
X703063Y207750D01*
X703375Y207125D01*
X703063Y206500D01*
X702437Y206187D01*
X700250D01*
Y209937D01*
X702437D01*
X703063Y209625D01*
X703375Y209000D01*
X703063Y208375D01*
X702437Y208063D01*
X700250D01*
X702437Y218063D02*
X703063Y217750D01*
X703375Y217125D01*
X703063Y216500D01*
X702437Y216187D01*
X700250D01*
Y219937D01*
X702437D01*
X703063Y219625D01*
X703375Y219000D01*
X703063Y218375D01*
X702437Y218063D01*
X700250D01*
X702437Y228063D02*
X703063Y227750D01*
X703375Y227125D01*
X703063Y226500D01*
X702437Y226187D01*
X700250D01*
Y229937D01*
X702437D01*
X703063Y229625D01*
X703375Y229000D01*
X703063Y228375D01*
X702437Y228063D01*
X700250D01*
X702437Y238063D02*
X703063Y237750D01*
X703375Y237125D01*
X703063Y236500D01*
X702437Y236187D01*
X700250D01*
Y239937D01*
X702437D01*
X703063Y239625D01*
X703375Y239000D01*
X703063Y238375D01*
X702437Y238063D01*
X700250D01*
X702437Y248063D02*
X703063Y247750D01*
X703375Y247125D01*
X703063Y246500D01*
X702437Y246187D01*
X700250D01*
Y249937D01*
X702437D01*
X703063Y249625D01*
X703375Y249000D01*
X703063Y248375D01*
X702437Y248063D01*
X700250D01*
X702437Y258063D02*
X703063Y257750D01*
X703375Y257125D01*
X703063Y256500D01*
X702437Y256187D01*
X700250D01*
Y259937D01*
X702437D01*
X703063Y259625D01*
X703375Y259000D01*
X703063Y258375D01*
X702437Y258063D01*
X700250D01*
X702437Y268063D02*
X703063Y267750D01*
X703375Y267125D01*
X703063Y266500D01*
X702437Y266187D01*
X700250D01*
Y269937D01*
X702437D01*
X703063Y269625D01*
X703375Y269000D01*
X703063Y268375D01*
X702437Y268063D01*
X700250D01*
X702437Y308063D02*
X703063Y307750D01*
X703375Y307125D01*
X703063Y306500D01*
X702437Y306187D01*
X700250D01*
Y309937D01*
X702437D01*
X703063Y309625D01*
X703375Y309000D01*
X703063Y308375D01*
X702437Y308063D01*
X700250D01*
X702437Y318063D02*
X703063Y317750D01*
X703375Y317125D01*
X703063Y316500D01*
X702437Y316187D01*
X700250D01*
Y319937D01*
X702437D01*
X703063Y319625D01*
X703375Y319000D01*
X703063Y318375D01*
X702437Y318063D01*
X700250D01*
X702437Y328063D02*
X703063Y327750D01*
X703375Y327125D01*
X703063Y326500D01*
X702437Y326187D01*
X700250D01*
Y329937D01*
X702437D01*
X703063Y329625D01*
X703375Y329000D01*
X703063Y328375D01*
X702437Y328063D01*
X700250D01*
X702437Y338063D02*
X703063Y337750D01*
X703375Y337125D01*
X703063Y336500D01*
X702437Y336187D01*
X700250D01*
Y339937D01*
X702437D01*
X703063Y339625D01*
X703375Y339000D01*
X703063Y338375D01*
X702437Y338063D01*
X700250D01*
X702437Y348063D02*
X703063Y347750D01*
X703375Y347125D01*
X703063Y346500D01*
X702437Y346187D01*
X700250D01*
Y349937D01*
X702437D01*
X703063Y349625D01*
X703375Y349000D01*
X703063Y348375D01*
X702437Y348063D01*
X700250D01*
X702437Y358063D02*
X703063Y357750D01*
X703375Y357125D01*
X703063Y356500D01*
X702437Y356187D01*
X700250D01*
Y359937D01*
X702437D01*
X703063Y359625D01*
X703375Y359000D01*
X703063Y358375D01*
X702437Y358063D01*
X700250D01*
X712437Y128063D02*
X713063Y127750D01*
X713375Y127125D01*
X713063Y126500D01*
X712437Y126187D01*
X710250D01*
Y129937D01*
X712437D01*
X713063Y129625D01*
X713375Y129000D01*
X713063Y128375D01*
X712437Y128063D01*
X710250D01*
X712437Y158063D02*
X713063Y157750D01*
X713375Y157125D01*
X713063Y156500D01*
X712437Y156187D01*
X710250D01*
Y159937D01*
X712437D01*
X713063Y159625D01*
X713375Y159000D01*
X713063Y158375D01*
X712437Y158063D01*
X710250D01*
X712437Y168063D02*
X713063Y167750D01*
X713375Y167125D01*
X713063Y166500D01*
X712437Y166187D01*
X710250D01*
Y169937D01*
X712437D01*
X713063Y169625D01*
X713375Y169000D01*
X713063Y168375D01*
X712437Y168063D01*
X710250D01*
X712437Y208063D02*
X713063Y207750D01*
X713375Y207125D01*
X713063Y206500D01*
X712437Y206187D01*
X710250D01*
Y209937D01*
X712437D01*
X713063Y209625D01*
X713375Y209000D01*
X713063Y208375D01*
X712437Y208063D01*
X710250D01*
X712437Y218063D02*
X713063Y217750D01*
X713375Y217125D01*
X713063Y216500D01*
X712437Y216187D01*
X710250D01*
Y219937D01*
X712437D01*
X713063Y219625D01*
X713375Y219000D01*
X713063Y218375D01*
X712437Y218063D01*
X710250D01*
X712437Y228063D02*
X713063Y227750D01*
X713375Y227125D01*
X713063Y226500D01*
X712437Y226187D01*
X710250D01*
Y229937D01*
X712437D01*
X713063Y229625D01*
X713375Y229000D01*
X713063Y228375D01*
X712437Y228063D01*
X710250D01*
X712437Y238063D02*
X713063Y237750D01*
X713375Y237125D01*
X713063Y236500D01*
X712437Y236187D01*
X710250D01*
Y239937D01*
X712437D01*
X713063Y239625D01*
X713375Y239000D01*
X713063Y238375D01*
X712437Y238063D01*
X710250D01*
X712437Y248063D02*
X713063Y247750D01*
X713375Y247125D01*
X713063Y246500D01*
X712437Y246187D01*
X710250D01*
Y249937D01*
X712437D01*
X713063Y249625D01*
X713375Y249000D01*
X713063Y248375D01*
X712437Y248063D01*
X710250D01*
X712437Y258063D02*
X713063Y257750D01*
X713375Y257125D01*
X713063Y256500D01*
X712437Y256187D01*
X710250D01*
Y259937D01*
X712437D01*
X713063Y259625D01*
X713375Y259000D01*
X713063Y258375D01*
X712437Y258063D01*
X710250D01*
X712437Y268063D02*
X713063Y267750D01*
X713375Y267125D01*
X713063Y266500D01*
X712437Y266187D01*
X710250D01*
Y269937D01*
X712437D01*
X713063Y269625D01*
X713375Y269000D01*
X713063Y268375D01*
X712437Y268063D01*
X710250D01*
X712437Y308063D02*
X713063Y307750D01*
X713375Y307125D01*
X713063Y306500D01*
X712437Y306187D01*
X710250D01*
Y309937D01*
X712437D01*
X713063Y309625D01*
X713375Y309000D01*
X713063Y308375D01*
X712437Y308063D01*
X710250D01*
X712437Y318063D02*
X713063Y317750D01*
X713375Y317125D01*
X713063Y316500D01*
X712437Y316187D01*
X710250D01*
Y319937D01*
X712437D01*
X713063Y319625D01*
X713375Y319000D01*
X713063Y318375D01*
X712437Y318063D01*
X710250D01*
X712437Y328063D02*
X713063Y327750D01*
X713375Y327125D01*
X713063Y326500D01*
X712437Y326187D01*
X710250D01*
Y329937D01*
X712437D01*
X713063Y329625D01*
X713375Y329000D01*
X713063Y328375D01*
X712437Y328063D01*
X710250D01*
X712437Y338063D02*
X713063Y337750D01*
X713375Y337125D01*
X713063Y336500D01*
X712437Y336187D01*
X710250D01*
Y339937D01*
X712437D01*
X713063Y339625D01*
X713375Y339000D01*
X713063Y338375D01*
X712437Y338063D01*
X710250D01*
X712437Y348063D02*
X713063Y347750D01*
X713375Y347125D01*
X713063Y346500D01*
X712437Y346187D01*
X710250D01*
Y349937D01*
X712437D01*
X713063Y349625D01*
X713375Y349000D01*
X713063Y348375D01*
X712437Y348063D01*
X710250D01*
X712437Y358063D02*
X713063Y357750D01*
X713375Y357125D01*
X713063Y356500D01*
X712437Y356187D01*
X710250D01*
Y359937D01*
X712437D01*
X713063Y359625D01*
X713375Y359000D01*
X713063Y358375D01*
X712437Y358063D01*
X710250D01*
X722437Y128063D02*
X723063Y127750D01*
X723375Y127125D01*
X723063Y126500D01*
X722437Y126187D01*
X720250D01*
Y129937D01*
X722437D01*
X723063Y129625D01*
X723375Y129000D01*
X723063Y128375D01*
X722437Y128063D01*
X720250D01*
X722437Y158063D02*
X723063Y157750D01*
X723375Y157125D01*
X723063Y156500D01*
X722437Y156187D01*
X720250D01*
Y159937D01*
X722437D01*
X723063Y159625D01*
X723375Y159000D01*
X723063Y158375D01*
X722437Y158063D01*
X720250D01*
X722437Y168063D02*
X723063Y167750D01*
X723375Y167125D01*
X723063Y166500D01*
X722437Y166187D01*
X720250D01*
Y169937D01*
X722437D01*
X723063Y169625D01*
X723375Y169000D01*
X723063Y168375D01*
X722437Y168063D01*
X720250D01*
X732437Y128063D02*
X733063Y127750D01*
X733375Y127125D01*
X733063Y126500D01*
X732437Y126187D01*
X730250D01*
Y129937D01*
X732437D01*
X733063Y129625D01*
X733375Y129000D01*
X733063Y128375D01*
X732437Y128063D01*
X730250D01*
X732437Y158063D02*
X733063Y157750D01*
X733375Y157125D01*
X733063Y156500D01*
X732437Y156187D01*
X730250D01*
Y159937D01*
X732437D01*
X733063Y159625D01*
X733375Y159000D01*
X733063Y158375D01*
X732437Y158063D01*
X730250D01*
X732437Y168063D02*
X733063Y167750D01*
X733375Y167125D01*
X733063Y166500D01*
X732437Y166187D01*
X730250D01*
Y169937D01*
X732437D01*
X733063Y169625D01*
X733375Y169000D01*
X733063Y168375D01*
X732437Y168063D01*
X730250D01*
X742437Y128063D02*
X743063Y127750D01*
X743375Y127125D01*
X743063Y126500D01*
X742437Y126187D01*
X740250D01*
Y129937D01*
X742437D01*
X743063Y129625D01*
X743375Y129000D01*
X743063Y128375D01*
X742437Y128063D01*
X740250D01*
X742437Y158063D02*
X743063Y157750D01*
X743375Y157125D01*
X743063Y156500D01*
X742437Y156187D01*
X740250D01*
Y159937D01*
X742437D01*
X743063Y159625D01*
X743375Y159000D01*
X743063Y158375D01*
X742437Y158063D01*
X740250D01*
X742437Y168063D02*
X743063Y167750D01*
X743375Y167125D01*
X743063Y166500D01*
X742437Y166187D01*
X740250D01*
Y169937D01*
X742437D01*
X743063Y169625D01*
X743375Y169000D01*
X743063Y168375D01*
X742437Y168063D01*
X740250D01*
X742437Y208063D02*
X743063Y207750D01*
X743375Y207125D01*
X743063Y206500D01*
X742437Y206187D01*
X740250D01*
Y209937D01*
X742437D01*
X743063Y209625D01*
X743375Y209000D01*
X743063Y208375D01*
X742437Y208063D01*
X740250D01*
X742437Y218063D02*
X743063Y217750D01*
X743375Y217125D01*
X743063Y216500D01*
X742437Y216187D01*
X740250D01*
Y219937D01*
X742437D01*
X743063Y219625D01*
X743375Y219000D01*
X743063Y218375D01*
X742437Y218063D01*
X740250D01*
X742437Y228063D02*
X743063Y227750D01*
X743375Y227125D01*
X743063Y226500D01*
X742437Y226187D01*
X740250D01*
Y229937D01*
X742437D01*
X743063Y229625D01*
X743375Y229000D01*
X743063Y228375D01*
X742437Y228063D01*
X740250D01*
X742437Y238063D02*
X743063Y237750D01*
X743375Y237125D01*
X743063Y236500D01*
X742437Y236187D01*
X740250D01*
Y239937D01*
X742437D01*
X743063Y239625D01*
X743375Y239000D01*
X743063Y238375D01*
X742437Y238063D01*
X740250D01*
X742437Y248063D02*
X743063Y247750D01*
X743375Y247125D01*
X743063Y246500D01*
X742437Y246187D01*
X740250D01*
Y249937D01*
X742437D01*
X743063Y249625D01*
X743375Y249000D01*
X743063Y248375D01*
X742437Y248063D01*
X740250D01*
X742437Y258063D02*
X743063Y257750D01*
X743375Y257125D01*
X743063Y256500D01*
X742437Y256187D01*
X740250D01*
Y259937D01*
X742437D01*
X743063Y259625D01*
X743375Y259000D01*
X743063Y258375D01*
X742437Y258063D01*
X740250D01*
X742437Y268063D02*
X743063Y267750D01*
X743375Y267125D01*
X743063Y266500D01*
X742437Y266187D01*
X740250D01*
Y269937D01*
X742437D01*
X743063Y269625D01*
X743375Y269000D01*
X743063Y268375D01*
X742437Y268063D01*
X740250D01*
X742437Y308063D02*
X743063Y307750D01*
X743375Y307125D01*
X743063Y306500D01*
X742437Y306187D01*
X740250D01*
Y309937D01*
X742437D01*
X743063Y309625D01*
X743375Y309000D01*
X743063Y308375D01*
X742437Y308063D01*
X740250D01*
X742437Y318063D02*
X743063Y317750D01*
X743375Y317125D01*
X743063Y316500D01*
X742437Y316187D01*
X740250D01*
Y319937D01*
X742437D01*
X743063Y319625D01*
X743375Y319000D01*
X743063Y318375D01*
X742437Y318063D01*
X740250D01*
X742437Y328063D02*
X743063Y327750D01*
X743375Y327125D01*
X743063Y326500D01*
X742437Y326187D01*
X740250D01*
Y329937D01*
X742437D01*
X743063Y329625D01*
X743375Y329000D01*
X743063Y328375D01*
X742437Y328063D01*
X740250D01*
X742437Y338063D02*
X743063Y337750D01*
X743375Y337125D01*
X743063Y336500D01*
X742437Y336187D01*
X740250D01*
Y339937D01*
X742437D01*
X743063Y339625D01*
X743375Y339000D01*
X743063Y338375D01*
X742437Y338063D01*
X740250D01*
X742437Y348063D02*
X743063Y347750D01*
X743375Y347125D01*
X743063Y346500D01*
X742437Y346187D01*
X740250D01*
Y349937D01*
X742437D01*
X743063Y349625D01*
X743375Y349000D01*
X743063Y348375D01*
X742437Y348063D01*
X740250D01*
X742437Y358063D02*
X743063Y357750D01*
X743375Y357125D01*
X743063Y356500D01*
X742437Y356187D01*
X740250D01*
Y359937D01*
X742437D01*
X743063Y359625D01*
X743375Y359000D01*
X743063Y358375D01*
X742437Y358063D01*
X740250D01*
X792203Y238063D02*
X792828Y237750D01*
X793141Y237125D01*
X792828Y236500D01*
X792203Y236187D01*
X790015D01*
Y239937D01*
X792203D01*
X792828Y239625D01*
X793141Y239000D01*
X792828Y238375D01*
X792203Y238063D01*
X790015D01*
X792203Y248063D02*
X792828Y247750D01*
X793141Y247125D01*
X792828Y246500D01*
X792203Y246187D01*
X790015D01*
Y249937D01*
X792203D01*
X792828Y249625D01*
X793141Y249000D01*
X792828Y248375D01*
X792203Y248063D01*
X790015D01*
X792203Y258063D02*
X792828Y257750D01*
X793141Y257125D01*
X792828Y256500D01*
X792203Y256187D01*
X790015D01*
Y259937D01*
X792203D01*
X792828Y259625D01*
X793141Y259000D01*
X792828Y258375D01*
X792203Y258063D01*
X790015D01*
X792203Y268063D02*
X792828Y267750D01*
X793141Y267125D01*
X792828Y266500D01*
X792203Y266187D01*
X790015D01*
Y269937D01*
X792203D01*
X792828Y269625D01*
X793141Y269000D01*
X792828Y268375D01*
X792203Y268063D01*
X790015D01*
X792203Y278063D02*
X792828Y277750D01*
X793141Y277125D01*
X792828Y276500D01*
X792203Y276187D01*
X790015D01*
Y279937D01*
X792203D01*
X792828Y279625D01*
X793141Y279000D01*
X792828Y278375D01*
X792203Y278063D01*
X790015D01*
X792437Y48063D02*
X793063Y47750D01*
X793375Y47125D01*
X793063Y46500D01*
X792437Y46187D01*
X790250D01*
Y49937D01*
X792437D01*
X793063Y49625D01*
X793375Y49000D01*
X793063Y48375D01*
X792437Y48063D01*
X790250D01*
X792437Y58063D02*
X793063Y57750D01*
X793375Y57125D01*
X793063Y56500D01*
X792437Y56187D01*
X790250D01*
Y59937D01*
X792437D01*
X793063Y59625D01*
X793375Y59000D01*
X793063Y58375D01*
X792437Y58063D01*
X790250D01*
X792437Y68063D02*
X793063Y67750D01*
X793375Y67125D01*
X793063Y66500D01*
X792437Y66187D01*
X790250D01*
Y69937D01*
X792437D01*
X793063Y69625D01*
X793375Y69000D01*
X793063Y68375D01*
X792437Y68063D01*
X790250D01*
X792437Y78063D02*
X793063Y77750D01*
X793375Y77125D01*
X793063Y76500D01*
X792437Y76187D01*
X790250D01*
Y79937D01*
X792437D01*
X793063Y79625D01*
X793375Y79000D01*
X793063Y78375D01*
X792437Y78063D01*
X790250D01*
X792437Y88063D02*
X793063Y87750D01*
X793375Y87125D01*
X793063Y86500D01*
X792437Y86187D01*
X790250D01*
Y89937D01*
X792437D01*
X793063Y89625D01*
X793375Y89000D01*
X793063Y88375D01*
X792437Y88063D01*
X790250D01*
X792437Y98063D02*
X793063Y97750D01*
X793375Y97125D01*
X793063Y96500D01*
X792437Y96187D01*
X790250D01*
Y99937D01*
X792437D01*
X793063Y99625D01*
X793375Y99000D01*
X793063Y98375D01*
X792437Y98063D01*
X790250D01*
X792437Y108063D02*
X793063Y107750D01*
X793375Y107125D01*
X793063Y106500D01*
X792437Y106187D01*
X790250D01*
Y109937D01*
X792437D01*
X793063Y109625D01*
X793375Y109000D01*
X793063Y108375D01*
X792437Y108063D01*
X790250D01*
X792437Y118063D02*
X793063Y117750D01*
X793375Y117125D01*
X793063Y116500D01*
X792437Y116187D01*
X790250D01*
Y119937D01*
X792437D01*
X793063Y119625D01*
X793375Y119000D01*
X793063Y118375D01*
X792437Y118063D01*
X790250D01*
X792437Y128063D02*
X793063Y127750D01*
X793375Y127125D01*
X793063Y126500D01*
X792437Y126187D01*
X790250D01*
Y129937D01*
X792437D01*
X793063Y129625D01*
X793375Y129000D01*
X793063Y128375D01*
X792437Y128063D01*
X790250D01*
X792437Y138063D02*
X793063Y137750D01*
X793375Y137125D01*
X793063Y136500D01*
X792437Y136187D01*
X790250D01*
Y139937D01*
X792437D01*
X793063Y139625D01*
X793375Y139000D01*
X793063Y138375D01*
X792437Y138063D01*
X790250D01*
X792437Y148063D02*
X793063Y147750D01*
X793375Y147125D01*
X793063Y146500D01*
X792437Y146187D01*
X790250D01*
Y149937D01*
X792437D01*
X793063Y149625D01*
X793375Y149000D01*
X793063Y148375D01*
X792437Y148063D01*
X790250D01*
X792437Y158063D02*
X793063Y157750D01*
X793375Y157125D01*
X793063Y156500D01*
X792437Y156187D01*
X790250D01*
Y159937D01*
X792437D01*
X793063Y159625D01*
X793375Y159000D01*
X793063Y158375D01*
X792437Y158063D01*
X790250D01*
X792437Y168063D02*
X793063Y167750D01*
X793375Y167125D01*
X793063Y166500D01*
X792437Y166187D01*
X790250D01*
Y169937D01*
X792437D01*
X793063Y169625D01*
X793375Y169000D01*
X793063Y168375D01*
X792437Y168063D01*
X790250D01*
X792437Y178063D02*
X793063Y177750D01*
X793375Y177125D01*
X793063Y176500D01*
X792437Y176187D01*
X790250D01*
Y179937D01*
X792437D01*
X793063Y179625D01*
X793375Y179000D01*
X793063Y178375D01*
X792437Y178063D01*
X790250D01*
X792437Y188063D02*
X793063Y187750D01*
X793375Y187125D01*
X793063Y186500D01*
X792437Y186187D01*
X790250D01*
Y189937D01*
X792437D01*
X793063Y189625D01*
X793375Y189000D01*
X793063Y188375D01*
X792437Y188063D01*
X790250D01*
X792437Y198063D02*
X793063Y197750D01*
X793375Y197125D01*
X793063Y196500D01*
X792437Y196187D01*
X790250D01*
Y199937D01*
X792437D01*
X793063Y199625D01*
X793375Y199000D01*
X793063Y198375D01*
X792437Y198063D01*
X790250D01*
X792437Y208063D02*
X793063Y207750D01*
X793375Y207125D01*
X793063Y206500D01*
X792437Y206187D01*
X790250D01*
Y209937D01*
X792437D01*
X793063Y209625D01*
X793375Y209000D01*
X793063Y208375D01*
X792437Y208063D01*
X790250D01*
X792437Y218063D02*
X793063Y217750D01*
X793375Y217125D01*
X793063Y216500D01*
X792437Y216187D01*
X790250D01*
Y219937D01*
X792437D01*
X793063Y219625D01*
X793375Y219000D01*
X793063Y218375D01*
X792437Y218063D01*
X790250D01*
X792437Y228063D02*
X793063Y227750D01*
X793375Y227125D01*
X793063Y226500D01*
X792437Y226187D01*
X790250D01*
Y229937D01*
X792437D01*
X793063Y229625D01*
X793375Y229000D01*
X793063Y228375D01*
X792437Y228063D01*
X790250D01*
X822203Y238063D02*
X822828Y237750D01*
X823141Y237125D01*
X822828Y236500D01*
X822203Y236187D01*
X820015D01*
Y239937D01*
X822203D01*
X822828Y239625D01*
X823141Y239000D01*
X822828Y238375D01*
X822203Y238063D01*
X820015D01*
X822203Y248063D02*
X822828Y247750D01*
X823141Y247125D01*
X822828Y246500D01*
X822203Y246187D01*
X820015D01*
Y249937D01*
X822203D01*
X822828Y249625D01*
X823141Y249000D01*
X822828Y248375D01*
X822203Y248063D01*
X820015D01*
X822203Y258063D02*
X822828Y257750D01*
X823141Y257125D01*
X822828Y256500D01*
X822203Y256187D01*
X820015D01*
Y259937D01*
X822203D01*
X822828Y259625D01*
X823141Y259000D01*
X822828Y258375D01*
X822203Y258063D01*
X820015D01*
X822203Y268063D02*
X822828Y267750D01*
X823141Y267125D01*
X822828Y266500D01*
X822203Y266187D01*
X820015D01*
Y269937D01*
X822203D01*
X822828Y269625D01*
X823141Y269000D01*
X822828Y268375D01*
X822203Y268063D01*
X820015D01*
X822203Y278063D02*
X822828Y277750D01*
X823141Y277125D01*
X822828Y276500D01*
X822203Y276187D01*
X820015D01*
Y279937D01*
X822203D01*
X822828Y279625D01*
X823141Y279000D01*
X822828Y278375D01*
X822203Y278063D01*
X820015D01*
X822437Y48063D02*
X823063Y47750D01*
X823375Y47125D01*
X823063Y46500D01*
X822437Y46187D01*
X820250D01*
Y49937D01*
X822437D01*
X823063Y49625D01*
X823375Y49000D01*
X823063Y48375D01*
X822437Y48063D01*
X820250D01*
X822437Y58063D02*
X823063Y57750D01*
X823375Y57125D01*
X823063Y56500D01*
X822437Y56187D01*
X820250D01*
Y59937D01*
X822437D01*
X823063Y59625D01*
X823375Y59000D01*
X823063Y58375D01*
X822437Y58063D01*
X820250D01*
X822437Y68063D02*
X823063Y67750D01*
X823375Y67125D01*
X823063Y66500D01*
X822437Y66187D01*
X820250D01*
Y69937D01*
X822437D01*
X823063Y69625D01*
X823375Y69000D01*
X823063Y68375D01*
X822437Y68063D01*
X820250D01*
X822437Y78063D02*
X823063Y77750D01*
X823375Y77125D01*
X823063Y76500D01*
X822437Y76187D01*
X820250D01*
Y79937D01*
X822437D01*
X823063Y79625D01*
X823375Y79000D01*
X823063Y78375D01*
X822437Y78063D01*
X820250D01*
X822437Y88063D02*
X823063Y87750D01*
X823375Y87125D01*
X823063Y86500D01*
X822437Y86187D01*
X820250D01*
Y89937D01*
X822437D01*
X823063Y89625D01*
X823375Y89000D01*
X823063Y88375D01*
X822437Y88063D01*
X820250D01*
X822437Y98063D02*
X823063Y97750D01*
X823375Y97125D01*
X823063Y96500D01*
X822437Y96187D01*
X820250D01*
Y99937D01*
X822437D01*
X823063Y99625D01*
X823375Y99000D01*
X823063Y98375D01*
X822437Y98063D01*
X820250D01*
X822437Y108063D02*
X823063Y107750D01*
X823375Y107125D01*
X823063Y106500D01*
X822437Y106187D01*
X820250D01*
Y109937D01*
X822437D01*
X823063Y109625D01*
X823375Y109000D01*
X823063Y108375D01*
X822437Y108063D01*
X820250D01*
X822437Y118063D02*
X823063Y117750D01*
X823375Y117125D01*
X823063Y116500D01*
X822437Y116187D01*
X820250D01*
Y119937D01*
X822437D01*
X823063Y119625D01*
X823375Y119000D01*
X823063Y118375D01*
X822437Y118063D01*
X820250D01*
X822437Y128063D02*
X823063Y127750D01*
X823375Y127125D01*
X823063Y126500D01*
X822437Y126187D01*
X820250D01*
Y129937D01*
X822437D01*
X823063Y129625D01*
X823375Y129000D01*
X823063Y128375D01*
X822437Y128063D01*
X820250D01*
X822437Y138063D02*
X823063Y137750D01*
X823375Y137125D01*
X823063Y136500D01*
X822437Y136187D01*
X820250D01*
Y139937D01*
X822437D01*
X823063Y139625D01*
X823375Y139000D01*
X823063Y138375D01*
X822437Y138063D01*
X820250D01*
X822437Y148063D02*
X823063Y147750D01*
X823375Y147125D01*
X823063Y146500D01*
X822437Y146187D01*
X820250D01*
Y149937D01*
X822437D01*
X823063Y149625D01*
X823375Y149000D01*
X823063Y148375D01*
X822437Y148063D01*
X820250D01*
X822437Y158063D02*
X823063Y157750D01*
X823375Y157125D01*
X823063Y156500D01*
X822437Y156187D01*
X820250D01*
Y159937D01*
X822437D01*
X823063Y159625D01*
X823375Y159000D01*
X823063Y158375D01*
X822437Y158063D01*
X820250D01*
X822437Y168063D02*
X823063Y167750D01*
X823375Y167125D01*
X823063Y166500D01*
X822437Y166187D01*
X820250D01*
Y169937D01*
X822437D01*
X823063Y169625D01*
X823375Y169000D01*
X823063Y168375D01*
X822437Y168063D01*
X820250D01*
X822437Y178063D02*
X823063Y177750D01*
X823375Y177125D01*
X823063Y176500D01*
X822437Y176187D01*
X820250D01*
Y179937D01*
X822437D01*
X823063Y179625D01*
X823375Y179000D01*
X823063Y178375D01*
X822437Y178063D01*
X820250D01*
X822437Y188063D02*
X823063Y187750D01*
X823375Y187125D01*
X823063Y186500D01*
X822437Y186187D01*
X820250D01*
Y189937D01*
X822437D01*
X823063Y189625D01*
X823375Y189000D01*
X823063Y188375D01*
X822437Y188063D01*
X820250D01*
X822437Y198063D02*
X823063Y197750D01*
X823375Y197125D01*
X823063Y196500D01*
X822437Y196187D01*
X820250D01*
Y199937D01*
X822437D01*
X823063Y199625D01*
X823375Y199000D01*
X823063Y198375D01*
X822437Y198063D01*
X820250D01*
X822437Y208063D02*
X823063Y207750D01*
X823375Y207125D01*
X823063Y206500D01*
X822437Y206187D01*
X820250D01*
Y209937D01*
X822437D01*
X823063Y209625D01*
X823375Y209000D01*
X823063Y208375D01*
X822437Y208063D01*
X820250D01*
X822437Y218063D02*
X823063Y217750D01*
X823375Y217125D01*
X823063Y216500D01*
X822437Y216187D01*
X820250D01*
Y219937D01*
X822437D01*
X823063Y219625D01*
X823375Y219000D01*
X823063Y218375D01*
X822437Y218063D01*
X820250D01*
X822437Y228063D02*
X823063Y227750D01*
X823375Y227125D01*
X823063Y226500D01*
X822437Y226187D01*
X820250D01*
Y229937D01*
X822437D01*
X823063Y229625D01*
X823375Y229000D01*
X823063Y228375D01*
X822437Y228063D01*
X820250D01*
X832203Y238063D02*
X832828Y237750D01*
X833141Y237125D01*
X832828Y236500D01*
X832203Y236187D01*
X830015D01*
Y239937D01*
X832203D01*
X832828Y239625D01*
X833141Y239000D01*
X832828Y238375D01*
X832203Y238063D01*
X830015D01*
X832203Y248063D02*
X832828Y247750D01*
X833141Y247125D01*
X832828Y246500D01*
X832203Y246187D01*
X830015D01*
Y249937D01*
X832203D01*
X832828Y249625D01*
X833141Y249000D01*
X832828Y248375D01*
X832203Y248063D01*
X830015D01*
X832203Y258063D02*
X832828Y257750D01*
X833141Y257125D01*
X832828Y256500D01*
X832203Y256187D01*
X830015D01*
Y259937D01*
X832203D01*
X832828Y259625D01*
X833141Y259000D01*
X832828Y258375D01*
X832203Y258063D01*
X830015D01*
X832203Y268063D02*
X832828Y267750D01*
X833141Y267125D01*
X832828Y266500D01*
X832203Y266187D01*
X830015D01*
Y269937D01*
X832203D01*
X832828Y269625D01*
X833141Y269000D01*
X832828Y268375D01*
X832203Y268063D01*
X830015D01*
X832203Y278063D02*
X832828Y277750D01*
X833141Y277125D01*
X832828Y276500D01*
X832203Y276187D01*
X830015D01*
Y279937D01*
X832203D01*
X832828Y279625D01*
X833141Y279000D01*
X832828Y278375D01*
X832203Y278063D01*
X830015D01*
X832437Y48063D02*
X833063Y47750D01*
X833375Y47125D01*
X833063Y46500D01*
X832437Y46187D01*
X830250D01*
Y49937D01*
X832437D01*
X833063Y49625D01*
X833375Y49000D01*
X833063Y48375D01*
X832437Y48063D01*
X830250D01*
X832437Y58063D02*
X833063Y57750D01*
X833375Y57125D01*
X833063Y56500D01*
X832437Y56187D01*
X830250D01*
Y59937D01*
X832437D01*
X833063Y59625D01*
X833375Y59000D01*
X833063Y58375D01*
X832437Y58063D01*
X830250D01*
X832437Y68063D02*
X833063Y67750D01*
X833375Y67125D01*
X833063Y66500D01*
X832437Y66187D01*
X830250D01*
Y69937D01*
X832437D01*
X833063Y69625D01*
X833375Y69000D01*
X833063Y68375D01*
X832437Y68063D01*
X830250D01*
X832437Y78063D02*
X833063Y77750D01*
X833375Y77125D01*
X833063Y76500D01*
X832437Y76187D01*
X830250D01*
Y79937D01*
X832437D01*
X833063Y79625D01*
X833375Y79000D01*
X833063Y78375D01*
X832437Y78063D01*
X830250D01*
X832437Y88063D02*
X833063Y87750D01*
X833375Y87125D01*
X833063Y86500D01*
X832437Y86187D01*
X830250D01*
Y89937D01*
X832437D01*
X833063Y89625D01*
X833375Y89000D01*
X833063Y88375D01*
X832437Y88063D01*
X830250D01*
X832437Y98063D02*
X833063Y97750D01*
X833375Y97125D01*
X833063Y96500D01*
X832437Y96187D01*
X830250D01*
Y99937D01*
X832437D01*
X833063Y99625D01*
X833375Y99000D01*
X833063Y98375D01*
X832437Y98063D01*
X830250D01*
X832437Y108063D02*
X833063Y107750D01*
X833375Y107125D01*
X833063Y106500D01*
X832437Y106187D01*
X830250D01*
Y109937D01*
X832437D01*
X833063Y109625D01*
X833375Y109000D01*
X833063Y108375D01*
X832437Y108063D01*
X830250D01*
X832437Y118063D02*
X833063Y117750D01*
X833375Y117125D01*
X833063Y116500D01*
X832437Y116187D01*
X830250D01*
Y119937D01*
X832437D01*
X833063Y119625D01*
X833375Y119000D01*
X833063Y118375D01*
X832437Y118063D01*
X830250D01*
X832437Y128063D02*
X833063Y127750D01*
X833375Y127125D01*
X833063Y126500D01*
X832437Y126187D01*
X830250D01*
Y129937D01*
X832437D01*
X833063Y129625D01*
X833375Y129000D01*
X833063Y128375D01*
X832437Y128063D01*
X830250D01*
X832437Y138063D02*
X833063Y137750D01*
X833375Y137125D01*
X833063Y136500D01*
X832437Y136187D01*
X830250D01*
Y139937D01*
X832437D01*
X833063Y139625D01*
X833375Y139000D01*
X833063Y138375D01*
X832437Y138063D01*
X830250D01*
X832437Y148063D02*
X833063Y147750D01*
X833375Y147125D01*
X833063Y146500D01*
X832437Y146187D01*
X830250D01*
Y149937D01*
X832437D01*
X833063Y149625D01*
X833375Y149000D01*
X833063Y148375D01*
X832437Y148063D01*
X830250D01*
X832437Y158063D02*
X833063Y157750D01*
X833375Y157125D01*
X833063Y156500D01*
X832437Y156187D01*
X830250D01*
Y159937D01*
X832437D01*
X833063Y159625D01*
X833375Y159000D01*
X833063Y158375D01*
X832437Y158063D01*
X830250D01*
X832437Y168063D02*
X833063Y167750D01*
X833375Y167125D01*
X833063Y166500D01*
X832437Y166187D01*
X830250D01*
Y169937D01*
X832437D01*
X833063Y169625D01*
X833375Y169000D01*
X833063Y168375D01*
X832437Y168063D01*
X830250D01*
X832437Y178063D02*
X833063Y177750D01*
X833375Y177125D01*
X833063Y176500D01*
X832437Y176187D01*
X830250D01*
Y179937D01*
X832437D01*
X833063Y179625D01*
X833375Y179000D01*
X833063Y178375D01*
X832437Y178063D01*
X830250D01*
X832437Y188063D02*
X833063Y187750D01*
X833375Y187125D01*
X833063Y186500D01*
X832437Y186187D01*
X830250D01*
Y189937D01*
X832437D01*
X833063Y189625D01*
X833375Y189000D01*
X833063Y188375D01*
X832437Y188063D01*
X830250D01*
X832437Y198063D02*
X833063Y197750D01*
X833375Y197125D01*
X833063Y196500D01*
X832437Y196187D01*
X830250D01*
Y199937D01*
X832437D01*
X833063Y199625D01*
X833375Y199000D01*
X833063Y198375D01*
X832437Y198063D01*
X830250D01*
X832437Y208063D02*
X833063Y207750D01*
X833375Y207125D01*
X833063Y206500D01*
X832437Y206187D01*
X830250D01*
Y209937D01*
X832437D01*
X833063Y209625D01*
X833375Y209000D01*
X833063Y208375D01*
X832437Y208063D01*
X830250D01*
X832437Y218063D02*
X833063Y217750D01*
X833375Y217125D01*
X833063Y216500D01*
X832437Y216187D01*
X830250D01*
Y219937D01*
X832437D01*
X833063Y219625D01*
X833375Y219000D01*
X833063Y218375D01*
X832437Y218063D01*
X830250D01*
X832437Y228063D02*
X833063Y227750D01*
X833375Y227125D01*
X833063Y226500D01*
X832437Y226187D01*
X830250D01*
Y229937D01*
X832437D01*
X833063Y229625D01*
X833375Y229000D01*
X833063Y228375D01*
X832437Y228063D01*
X830250D01*
X0Y0D02*
M02*
