G05
M48
;#@! TF.GenerationSoftware,DesignSpark,DesignSpark PCB,12.0.5940
;#@! TF.CreationDate,2024-12-09T16:48:58+06:00*
;#@! TF.FileFunction,Plated,1,2,PTH
;FILE_FORMAT=3:5
;TYPE=PLATED
INCH,TZ
FMAT,2
T1C000.03500
%
T001
X0.20250Y1.20250
X0.20250Y1.30250
X0.20250Y1.40250
X0.20250Y1.50250
X0.20250Y1.60250
X0.20250Y1.70250
X0.20250Y1.80250
X0.20250Y1.90250
X0.20250Y2.00250
X0.20250Y2.10250
X0.20250Y2.20250
X0.20250Y2.30250
X0.30250Y1.20250
X0.30250Y1.30250
X0.30250Y1.40250
X0.30250Y1.50250
X0.30250Y1.60250
X0.30250Y1.70250
X0.30250Y1.80250
X0.30250Y1.90250
X0.30250Y2.00250
X0.30250Y2.10250
X0.30250Y2.20250
X0.30250Y2.30250
X0.30250Y3.10250
X0.30250Y3.50250
X0.40250Y3.10250
X0.40250Y3.50250
X0.50250Y3.10250
X0.50250Y3.50250
X0.60250Y1.20250
X0.60250Y1.30250
X0.60250Y1.40250
X0.60250Y1.50250
X0.60250Y1.60250
X0.60250Y1.70250
X0.60250Y1.80250
X0.60250Y1.90250
X0.60250Y2.00250
X0.60250Y2.10250
X0.60250Y2.20250
X0.60250Y2.30250
X0.60250Y3.10250
X0.60250Y3.50250
X0.70250Y1.20250
X0.70250Y1.30250
X0.70250Y1.40250
X0.70250Y1.50250
X0.70250Y1.60250
X0.70250Y1.70250
X0.70250Y1.80250
X0.70250Y1.90250
X0.70250Y2.00250
X0.70250Y2.10250
X0.70250Y2.20250
X0.70250Y2.30250
X0.70250Y3.10250
X0.70250Y3.50250
X0.80250Y3.10250
X0.80250Y3.50250
X0.90250Y3.10250
X0.90250Y3.50250
X1.00250Y3.10250
X1.00250Y3.50250
X1.10250Y3.10250
X1.10250Y3.50250
X1.20250Y2.20250
X1.20250Y2.60250
X1.20250Y3.10250
X1.20250Y3.50250
X1.30250Y2.20250
X1.30250Y2.60250
X1.30250Y3.10250
X1.30250Y3.50250
X1.40250Y2.20250
X1.40250Y2.60250
X1.40250Y3.10250
X1.40250Y3.50250
X1.50250Y2.20250
X1.50250Y2.60250
X1.50250Y3.10250
X1.50250Y3.50250
X1.60250Y2.20250
X1.60250Y2.60250
X1.60250Y3.10250
X1.60250Y3.50250
X1.70250Y2.20250
X1.70250Y2.60250
X1.70250Y3.10250
X1.70250Y3.50250
X1.80250Y2.20250
X1.80250Y2.60250
X1.80250Y3.10250
X1.80250Y3.50250
X1.90250Y2.20250
X1.90250Y2.60250
X1.90250Y3.10250
X1.90250Y3.50250
X2.00250Y2.20250
X2.00250Y2.60250
X2.00250Y3.10250
X2.00250Y3.50250
X2.10250Y2.20250
X2.10250Y2.60250
X2.10250Y3.10250
X2.10250Y3.50250
X2.20250Y1.20250
X2.20250Y1.70250
X2.20250Y2.20250
X2.20250Y2.60250
X2.20250Y3.10250
X2.20250Y3.50250
X2.30250Y1.20250
X2.30250Y1.70250
X2.30250Y2.20250
X2.30250Y2.60250
X2.30250Y3.10250
X2.30250Y3.50485
X2.40250Y1.20250
X2.40250Y1.70250
X2.40250Y2.20250
X2.40250Y2.60250
X2.40250Y3.10250
X2.40250Y3.50485
X2.50250Y1.20250
X2.50250Y1.70250
X2.50250Y2.20250
X2.50250Y2.60250
X2.50250Y3.10250
X2.50250Y3.50485
X2.60250Y1.20250
X2.60250Y1.70250
X2.60250Y2.20250
X2.60250Y2.60250
X2.60250Y3.10250
X2.60250Y3.50485
X2.70250Y1.20250
X2.70250Y1.70250
X2.70250Y2.20250
X2.70250Y2.60250
X2.80250Y1.20250
X2.80250Y1.70250
X2.80250Y2.20250
X2.80250Y2.60250
X2.90250Y1.20250
X2.90250Y1.70250
X2.90250Y2.20250
X2.90250Y2.60250
X3.00250Y1.20250
X3.00250Y1.70250
X3.00250Y2.20250
X3.00250Y2.60250
X3.10250Y1.20250
X3.10250Y1.70250
X3.10250Y2.20250
X3.10250Y2.60250
X3.10250Y3.10250
X3.10250Y3.20250
X3.10250Y3.50250
X3.20250Y1.20250
X3.20250Y1.70250
X3.20250Y2.20250
X3.20250Y2.60485
X3.20250Y3.10250
X3.20250Y3.20250
X3.20250Y3.50250
X3.30250Y2.20250
X3.30250Y2.60485
X3.30250Y3.10250
X3.30250Y3.20250
X3.30250Y3.50250
X3.40250Y2.20250
X3.40250Y2.60485
X3.40250Y3.10250
X3.40250Y3.20250
X3.40250Y3.50250
X3.50250Y2.20250
X3.50250Y2.60485
X3.50250Y3.10250
X3.50250Y3.20250
X3.50250Y3.50250
X3.60250Y3.10015
X3.60250Y3.20015
X3.60250Y3.50015
X3.70250Y3.10015
X3.70250Y3.20015
X3.70250Y3.50015
X3.80250Y3.10015
X3.80250Y3.20015
X3.80250Y3.50015
X3.90250Y3.10015
X3.90250Y3.20015
X3.90250Y3.50015
X4.00250Y2.20250
X4.00250Y2.50250
X4.00250Y2.60250
X4.00250Y3.10250
X4.00250Y3.20250
X4.00250Y3.50250
X4.10250Y2.20250
X4.10250Y2.50250
X4.10250Y2.60250
X4.10250Y3.10250
X4.10250Y3.20250
X4.10250Y3.50250
X4.20250Y2.20250
X4.20250Y2.50250
X4.20250Y2.60250
X4.20250Y3.10250
X4.20250Y3.20250
X4.20250Y3.50250
X4.30250Y2.20250
X4.30250Y2.50250
X4.30250Y2.60250
X4.30250Y3.10250
X4.30250Y3.20250
X4.30250Y3.50250
X4.40250Y2.20250
X4.40250Y2.50250
X4.40250Y2.60250
X4.40250Y3.10250
X4.40250Y3.20250
X4.40250Y3.50250
X4.50250Y2.20250
X4.50250Y2.50250
X4.50250Y2.60250
X4.50250Y3.10250
X4.50250Y3.20250
X4.50250Y3.50250
X4.60250Y1.20250
X4.60250Y1.30250
X4.60250Y1.60250
X4.60250Y1.70250
X4.60250Y2.20250
X4.60250Y2.50250
X4.60250Y2.60250
X4.70250Y1.20250
X4.70250Y1.30250
X4.70250Y1.60250
X4.70250Y1.70250
X4.70250Y2.20250
X4.70250Y2.50250
X4.70250Y2.60250
X4.80250Y1.20250
X4.80250Y1.30250
X4.80250Y1.60250
X4.80250Y1.70250
X4.80250Y2.20250
X4.80250Y2.50250
X4.80250Y2.60250
X4.90250Y1.20250
X4.90250Y1.30250
X4.90250Y1.60250
X4.90250Y1.70250
X4.90250Y2.20250
X4.90250Y2.50250
X4.90250Y2.60250
X5.00250Y1.20250
X5.00250Y1.30250
X5.00250Y1.60250
X5.00250Y1.70250
X5.00250Y2.20250
X5.00250Y2.50250
X5.00250Y2.60250
X5.00250Y3.10250
X5.00250Y3.40250
X5.00250Y3.50250
X5.10250Y1.20250
X5.10250Y1.30250
X5.10250Y1.60250
X5.10250Y1.70250
X5.10250Y2.20250
X5.10250Y2.50250
X5.10250Y2.60250
X5.10250Y3.10250
X5.10250Y3.40250
X5.10250Y3.50250
X5.20250Y1.20250
X5.20250Y1.30250
X5.20250Y1.60250
X5.20250Y1.70250
X5.20250Y2.20250
X5.20250Y2.50250
X5.20250Y2.60250
X5.20250Y3.10250
X5.20250Y3.40250
X5.20250Y3.50250
X5.30250Y0.20250
X5.30250Y0.70250
X5.30250Y1.20250
X5.30250Y1.30250
X5.30250Y1.60250
X5.30250Y1.70250
X5.30250Y2.20250
X5.30250Y2.50250
X5.30250Y2.60250
X5.30250Y3.10250
X5.30250Y3.40250
X5.30250Y3.50250
X5.40250Y0.20250
X5.40250Y0.70250
X5.40250Y1.20250
X5.40250Y1.30250
X5.40250Y1.60250
X5.40250Y1.70250
X5.40250Y2.20250
X5.40250Y2.50250
X5.40250Y2.60250
X5.40250Y3.10250
X5.40250Y3.40250
X5.40250Y3.50250
X5.50250Y0.20250
X5.50250Y0.70250
X5.50250Y1.20250
X5.50250Y1.30250
X5.50250Y1.60250
X5.50250Y1.70250
X5.50250Y2.20250
X5.50250Y2.50250
X5.50250Y2.60250
X5.50250Y3.10250
X5.50250Y3.40250
X5.50250Y3.50250
X5.60250Y0.20250
X5.60250Y0.70250
X5.60250Y1.20250
X5.60250Y1.30250
X5.60250Y1.60250
X5.60250Y1.70250
X5.60250Y2.20250
X5.60250Y2.50250
X5.60250Y2.60250
X5.60250Y3.10250
X5.60250Y3.40250
X5.60250Y3.50250
X5.70250Y0.20250
X5.70250Y0.70250
X5.70250Y1.20250
X5.70250Y1.30250
X5.70250Y1.60250
X5.70250Y1.70250
X5.70250Y2.20250
X5.70250Y2.50250
X5.70250Y2.60250
X5.70250Y3.10250
X5.70250Y3.40250
X5.70250Y3.50250
X5.80250Y0.20250
X5.80250Y0.70250
X5.80250Y2.20250
X5.80250Y2.50250
X5.80250Y2.60250
X5.80250Y3.10250
X5.80250Y3.40250
X5.80250Y3.50250
X5.90250Y0.20250
X5.90250Y0.70250
X5.90250Y2.20250
X5.90250Y2.50250
X5.90250Y2.60250
X5.90250Y3.10250
X5.90250Y3.40250
X5.90250Y3.50250
X6.00250Y0.20250
X6.00250Y0.70250
X6.00250Y2.20250
X6.00250Y2.50250
X6.00250Y2.60250
X6.00250Y3.10250
X6.00250Y3.40250
X6.00250Y3.50250
X6.10250Y0.20250
X6.10250Y0.70250
X6.10250Y2.20250
X6.10250Y2.50250
X6.10250Y2.60250
X6.10250Y3.10250
X6.10250Y3.40250
X6.10250Y3.50250
X6.20250Y0.20250
X6.20250Y0.70250
X6.20250Y1.20015
X6.20250Y1.50015
X6.20250Y1.60015
X6.20250Y2.20250
X6.20250Y2.50250
X6.20250Y2.60250
X6.20250Y3.10250
X6.20250Y3.40250
X6.20250Y3.50250
X6.30250Y0.20250
X6.30250Y0.70250
X6.30250Y1.20015
X6.30250Y1.50015
X6.30250Y1.60015
X6.30250Y2.20250
X6.30250Y2.50250
X6.30250Y2.60250
X6.30250Y3.10250
X6.30250Y3.40250
X6.30250Y3.50250
X6.40250Y0.20250
X6.40250Y0.70250
X6.40250Y1.20250
X6.40250Y1.50250
X6.40250Y1.60250
X6.40250Y2.20250
X6.40250Y2.50250
X6.40250Y2.60250
X6.40250Y3.10250
X6.40250Y3.40250
X6.40250Y3.50250
X6.50250Y0.20250
X6.50250Y0.70250
X6.50250Y1.20250
X6.50250Y1.50250
X6.50250Y1.60250
X6.60250Y0.20250
X6.60250Y0.70250
X6.60250Y1.20250
X6.60250Y1.50250
X6.60250Y1.60250
X6.70250Y0.20250
X6.70250Y0.70250
X6.70250Y1.20250
X6.70250Y1.50250
X6.70250Y1.60250
X6.80250Y0.20250
X6.80250Y0.70250
X6.80250Y1.20250
X6.80250Y1.50250
X6.80250Y1.60250
X6.90250Y0.20250
X6.90250Y0.70250
X6.90250Y1.20250
X6.90250Y1.50250
X6.90250Y1.60250
X6.90250Y2.00250
X6.90250Y2.10250
X6.90250Y2.20250
X6.90250Y2.30250
X6.90250Y2.40250
X6.90250Y2.50250
X6.90250Y2.60250
X6.90250Y3.00250
X6.90250Y3.10250
X6.90250Y3.20250
X6.90250Y3.30250
X6.90250Y3.40250
X6.90250Y3.50250
X7.00250Y1.20250
X7.00250Y1.50250
X7.00250Y1.60250
X7.00250Y2.00250
X7.00250Y2.10250
X7.00250Y2.20250
X7.00250Y2.30250
X7.00250Y2.40250
X7.00250Y2.50250
X7.00250Y2.60250
X7.00250Y3.00250
X7.00250Y3.10250
X7.00250Y3.20250
X7.00250Y3.30250
X7.00250Y3.40250
X7.00250Y3.50250
X7.10250Y1.20250
X7.10250Y1.50250
X7.10250Y1.60250
X7.20250Y1.20250
X7.20250Y1.50250
X7.20250Y1.60250
X7.30250Y1.20250
X7.30250Y1.50250
X7.30250Y1.60250
X7.30250Y2.00250
X7.30250Y2.10250
X7.30250Y2.20250
X7.30250Y2.30250
X7.30250Y2.40250
X7.30250Y2.50250
X7.30250Y2.60250
X7.30250Y3.00250
X7.30250Y3.10250
X7.30250Y3.20250
X7.30250Y3.30250
X7.30250Y3.40250
X7.30250Y3.50250
X7.80015Y2.30250
X7.80015Y2.40250
X7.80015Y2.50250
X7.80015Y2.60250
X7.80015Y2.70250
X7.80250Y0.40250
X7.80250Y0.50250
X7.80250Y0.60250
X7.80250Y0.70250
X7.80250Y0.80250
X7.80250Y0.90250
X7.80250Y1.00250
X7.80250Y1.10250
X7.80250Y1.20250
X7.80250Y1.30250
X7.80250Y1.40250
X7.80250Y1.50250
X7.80250Y1.60250
X7.80250Y1.70250
X7.80250Y1.80250
X7.80250Y1.90250
X7.80250Y2.00250
X7.80250Y2.10250
X7.80250Y2.20250
X8.10015Y2.30250
X8.10015Y2.40250
X8.10015Y2.50250
X8.10015Y2.60250
X8.10015Y2.70250
X8.10250Y0.40250
X8.10250Y0.50250
X8.10250Y0.60250
X8.10250Y0.70250
X8.10250Y0.80250
X8.10250Y0.90250
X8.10250Y1.00250
X8.10250Y1.10250
X8.10250Y1.20250
X8.10250Y1.30250
X8.10250Y1.40250
X8.10250Y1.50250
X8.10250Y1.60250
X8.10250Y1.70250
X8.10250Y1.80250
X8.10250Y1.90250
X8.10250Y2.00250
X8.10250Y2.10250
X8.10250Y2.20250
X8.20015Y2.30250
X8.20015Y2.40250
X8.20015Y2.50250
X8.20015Y2.60250
X8.20015Y2.70250
X8.20250Y0.40250
X8.20250Y0.50250
X8.20250Y0.60250
X8.20250Y0.70250
X8.20250Y0.80250
X8.20250Y0.90250
X8.20250Y1.00250
X8.20250Y1.10250
X8.20250Y1.20250
X8.20250Y1.30250
X8.20250Y1.40250
X8.20250Y1.50250
X8.20250Y1.60250
X8.20250Y1.70250
X8.20250Y1.80250
X8.20250Y1.90250
X8.20250Y2.00250
X8.20250Y2.10250
X8.20250Y2.20250
M30
