G04 DesignSpark PCB Gerber Version 12.0 Build 5941*
G04 #@! TF.Part,Single*
%FSLAX35Y35*%
%MOIN*%
%ADD15C,0.00500*%
G04 #@! TD.AperFunction*
X0Y0D02*
D02*
D15*
X10250Y290250D02*
X280250D01*
Y370250D01*
X10250D01*
Y290250D01*
X20250Y30250D02*
G75*
G03*
X60250I20000J0D01*
G01*
G75*
G03*
X20250I-20000J0D01*
G01*
X80250D02*
G75*
G03*
X120250I20000J0D01*
G01*
G75*
G03*
X80250I-20000J0D01*
G01*
X90250Y100250D02*
Y250250D01*
X250D01*
Y100250D01*
X90250D01*
X100250Y200250D02*
X370250D01*
Y280250D01*
X100250D01*
Y200250D01*
X140250Y30250D02*
G75*
G03*
X180250I20000J0D01*
G01*
G75*
G03*
X140250I-20000J0D01*
G01*
X140565Y120250D02*
G75*
G03*
X160250I9843J0D01*
G01*
G75*
G03*
X140565I-9843J0D01*
G01*
X200250Y30250D02*
G75*
G03*
X240250I20000J0D01*
G01*
G75*
G03*
X200250I-20000J0D01*
G01*
Y190250D02*
Y100250D01*
X340250D01*
Y190250D01*
X200250D01*
X260250Y30250D02*
G75*
G03*
X300250I20000J0D01*
G01*
G75*
G03*
X260250I-20000J0D01*
G01*
X320250D02*
G75*
G03*
X360250I20000J0D01*
G01*
G75*
G03*
X320250I-20000J0D01*
G01*
X380250D02*
G75*
G03*
X420250I20000J0D01*
G01*
G75*
G03*
X380250I-20000J0D01*
G01*
Y120250D02*
G75*
G03*
X399935I9843J0D01*
G01*
G75*
G03*
X380250I-9843J0D01*
G01*
Y200250D02*
X660250D01*
Y280250D01*
X380250D01*
Y200250D01*
X400250Y140250D02*
G75*
G02*
X420250Y120250I0J-20000D01*
G01*
Y100250D01*
G75*
G03*
X440250Y80250I20000J0D01*
G01*
X480250D01*
G75*
G02*
X500250Y60250I0J-20000D01*
G01*
Y20250D01*
G75*
G02*
X480250Y250I-20000J0D01*
G01*
X20250D01*
G75*
G02*
X250Y20250I0J20000D01*
G01*
Y60250D01*
G75*
G02*
X20250Y80250I20000J0D01*
G01*
X100250D01*
G75*
G03*
X120250Y100250I0J20000D01*
G01*
Y120250D01*
G75*
G02*
X140250Y140250I20000J0D01*
G01*
X160250D01*
G75*
G02*
X180250Y120250I0J-20000D01*
G01*
Y100250D01*
G75*
G03*
X200250Y80250I20000J0D01*
G01*
X340250D01*
G75*
G03*
X360250Y100250I0J20000D01*
G01*
Y120250D01*
G75*
G02*
X380250Y140250I20000J0D01*
G01*
X400250D01*
X440250Y30250D02*
G75*
G03*
X480250I20000J0D01*
G01*
G75*
G03*
X440250I-20000J0D01*
G01*
X470250Y370250D02*
X290250D01*
Y290250D01*
X470250D01*
Y370250D01*
X510250Y90250D02*
Y250D01*
X710250D01*
Y90250D01*
X510250D01*
X590250Y190250D02*
X440250D01*
Y100250D01*
X590250D01*
Y190250D01*
X660250Y370250D02*
X480250D01*
Y290250D01*
X660250D01*
Y370250D01*
X670250D02*
Y190250D01*
X750250D01*
Y370250D01*
X670250D01*
X750250Y180015D02*
X600250D01*
Y100015D01*
X750250D01*
Y180015D01*
X840250Y20250D02*
Y290250D01*
X760250D01*
Y20250D01*
X840250D01*
X0Y0D02*
M02*
