G05
M48
;#@! TF.GenerationSoftware,DesignSpark,DesignSpark PCB,12.0.5940
;#@! TF.CreationDate,2024-12-02T18:25:48+06:00*
;#@! TF.FileFunction,Plated,1,2,PTH
;FILE_FORMAT=3:5
;TYPE=PLATED
INCH,TZ
FMAT,2
T1C000.03500
%
T001
X0.20250Y1.50250
X0.20250Y1.60250
X0.20250Y1.70250
X0.20250Y2.90250
X0.20250Y3.00250
X0.20250Y3.10250
X0.20250Y3.20250
X0.20250Y3.30250
X0.20250Y3.40250
X0.20250Y3.50250
X0.20250Y3.60250
X0.20250Y3.70250
X0.70250Y1.50250
X0.70250Y1.60250
X0.70250Y1.70250
X0.70250Y2.90250
X0.70250Y3.00250
X0.70250Y3.10250
X0.70250Y3.20250
X0.70250Y3.30250
X0.70250Y3.40250
X0.70250Y3.50250
X0.70250Y3.60250
X0.70250Y3.70250
X1.00250Y0.20250
X1.00250Y0.30250
X1.00250Y0.40250
X1.00250Y0.50250
X1.00250Y0.60250
X1.00250Y0.70250
X1.00250Y0.80250
X1.00250Y0.90250
X1.00250Y1.00250
X1.00250Y2.20250
X1.00250Y2.30250
X1.00250Y2.40250
X1.20250Y3.20015
X1.20250Y3.70250
X1.30250Y3.20015
X1.30250Y3.70250
X1.40250Y3.20015
X1.40250Y3.70250
X1.50250Y0.20250
X1.50250Y0.30250
X1.50250Y0.40250
X1.50250Y0.50250
X1.50250Y0.60250
X1.50250Y0.70250
X1.50250Y0.80250
X1.50250Y0.90250
X1.50250Y1.00250
X1.50250Y2.20250
X1.50250Y2.30250
X1.50250Y2.40250
X1.50250Y3.20015
X1.50250Y3.70250
X1.60250Y3.20250
X1.60250Y3.70250
X1.70250Y3.20250
X1.70250Y3.70250
X1.80250Y3.20250
X1.80250Y3.70250
X1.90250Y3.20250
X1.90250Y3.70250
X2.00250Y0.20250
X2.00250Y0.30250
X2.00250Y0.40250
X2.00250Y0.50250
X2.00250Y0.60250
X2.00250Y0.70250
X2.00250Y0.80250
X2.00250Y0.90250
X2.00250Y1.00250
X2.00250Y2.30250
X2.00250Y2.40250
X2.00250Y2.50250
X2.00250Y3.20250
X2.00250Y3.70250
X2.10250Y3.20250
X2.10250Y3.70250
X2.20250Y3.20250
X2.20250Y3.70250
X2.30250Y3.20250
X2.30250Y3.70250
X2.40250Y3.20250
X2.40250Y3.70250
X2.50250Y0.20250
X2.50250Y0.30250
X2.50250Y0.40250
X2.50250Y0.50250
X2.50250Y0.60250
X2.50250Y0.70250
X2.50250Y0.80250
X2.50250Y0.90250
X2.50250Y1.00250
X2.50250Y2.30250
X2.50250Y2.40250
X2.50250Y2.50250
X2.50250Y3.20250
X2.50250Y3.70250
X2.60250Y3.20250
X2.60250Y3.70250
X2.70250Y3.20250
X2.70250Y3.70250
X2.80250Y3.20250
X2.80250Y3.70250
X2.90250Y3.20250
X2.90250Y3.70250
X3.00250Y0.20250
X3.00250Y0.30250
X3.00250Y0.40250
X3.00250Y0.50250
X3.00250Y0.60250
X3.00250Y0.70250
X3.00250Y0.80250
X3.00250Y0.90250
X3.00250Y1.00250
X3.00250Y2.30250
X3.00250Y2.40250
X3.00250Y2.50250
X3.00250Y3.20250
X3.00250Y3.70250
X3.10250Y3.20250
X3.10250Y3.70250
X3.20250Y3.20250
X3.20250Y3.70250
X3.30250Y3.20250
X3.30250Y3.70250
X3.40250Y3.20250
X3.40250Y3.70250
X3.50250Y0.20250
X3.50250Y0.30250
X3.50250Y0.40250
X3.50250Y0.50250
X3.50250Y0.60250
X3.50250Y0.70250
X3.50250Y0.80250
X3.50250Y0.90250
X3.50250Y1.00250
X3.50250Y2.30250
X3.50250Y2.40250
X3.50250Y2.50250
X3.50250Y3.20250
X3.50250Y3.70250
X4.00250Y0.20250
X4.00250Y0.30250
X4.00250Y0.40250
X4.00250Y0.50250
X4.00250Y0.60250
X4.00250Y0.70250
X4.00250Y0.80250
X4.00250Y0.90250
X4.00250Y1.00250
X4.00250Y1.10250
X4.00250Y1.20250
X4.00250Y1.30250
X4.00250Y1.40250
X4.00250Y2.70250
X4.00250Y2.80250
X4.00250Y2.90250
X4.50250Y0.20250
X4.50250Y0.30250
X4.50250Y0.40250
X4.50250Y0.50250
X4.50250Y0.60250
X4.50250Y0.70250
X4.50250Y0.80250
X4.50250Y0.90250
X4.50250Y1.00250
X4.50250Y1.10250
X4.50250Y1.20250
X4.50250Y1.30250
X4.50250Y1.40250
X4.50250Y2.70250
X4.50250Y2.80250
X4.50250Y2.90250
X5.00250Y1.00250
X5.00250Y1.10250
X5.00250Y1.20250
X5.00250Y2.50250
X5.00250Y2.60250
X5.00250Y2.70250
X5.00250Y2.80250
X5.00250Y2.90250
X5.00250Y3.00250
X5.00250Y3.10250
X5.00250Y3.20250
X5.00250Y3.30250
X5.00250Y3.40250
X5.00250Y3.50250
X5.00250Y3.60250
X5.00250Y3.70250
X5.50250Y1.00250
X5.50250Y1.10250
X5.50250Y1.20250
X5.50250Y2.50250
X5.50250Y2.60250
X5.50250Y2.70250
X5.50250Y2.80250
X5.50250Y2.90250
X5.50250Y3.00250
X5.50250Y3.10250
X5.50250Y3.20250
X5.50250Y3.30250
X5.50250Y3.40250
X5.50250Y3.50250
X5.50250Y3.60250
X5.50250Y3.70250
M30
