G05
M48
;#@! TF.GenerationSoftware,DesignSpark,DesignSpark PCB,12.0.5940
;#@! TF.CreationDate,2024-12-04T16:06:33+06:00*
;#@! TF.FileFunction,Plated,1,2,PTH
;FILE_FORMAT=3:5
;TYPE=PLATED
INCH,TZ
FMAT,2
T1C000.03200
T2C000.03500
T3C000.03543
T4C000.08661
%
T001
X0.90250Y1.40250
X0.90250Y1.80250
X1.00250Y1.40250
X1.00250Y1.80250
X1.20250Y0.70250
X1.20250Y1.10250
X1.60250Y0.90250
X1.60250Y1.00250
X1.90250Y0.50250
X1.90250Y0.80250
X1.90250Y1.10250
X1.90250Y1.40250
X2.00250Y0.50250
X2.00250Y0.90250
X2.00250Y1.00250
X2.00250Y1.40250
X2.00250Y1.80250
X2.10250Y1.40250
X2.10250Y1.80250
X2.40250Y0.50250
X2.60250Y0.70250
X2.60250Y1.10250
T002
X0.20250Y0.50250
X0.20250Y0.50250
X0.20250Y0.60250
X0.20250Y0.60250
X0.20250Y1.90250
X0.20250Y2.00250
X0.20250Y2.10250
X0.20250Y2.20250
X0.20250Y2.30250
X0.20250Y2.40250
X0.20250Y2.50250
X0.20250Y2.60250
X0.20250Y2.70250
X0.20250Y2.80250
X0.20250Y2.90250
X0.20250Y3.00250
X1.40250Y1.80250
X1.40250Y2.80250
X2.10250Y1.90250
X2.10250Y2.90250
X2.70250Y0.20250
X2.80250Y0.20250
X2.80250Y1.80250
X2.80250Y2.80250
X2.90250Y1.90250
X2.90250Y3.00250
X3.10250Y0.20250
X3.10250Y1.80250
X3.10250Y2.70250
X3.20250Y0.20250
X3.20250Y1.80250
X3.20250Y2.60250
X3.30250Y0.20250
X3.30250Y1.80250
X3.30250Y2.50250
X3.40250Y0.20250
X3.40250Y1.80250
X3.40250Y2.40250
X3.90250Y0.20250
X3.90250Y1.80250
X3.90250Y2.30250
X4.00250Y0.20250
X4.00250Y1.80250
X4.00250Y2.20250
X4.10250Y0.20250
X4.10250Y1.80250
X4.10250Y2.10250
X4.20250Y0.20250
X4.20250Y1.80250
X4.20250Y2.00250
X5.30250Y0.20250
X5.40250Y0.20250
X5.40250Y0.30250
X5.80250Y2.00250
X5.80250Y2.10250
X5.80250Y2.20250
X5.80250Y2.30250
X5.80250Y2.40250
X5.80250Y2.50250
X5.80250Y2.60250
X5.80250Y2.70250
X5.80250Y2.80250
X5.80250Y2.90250
X5.80250Y3.00250
X6.30250Y0.40250
X6.30250Y0.50250
X6.30250Y0.60250
X6.30250Y0.70250
X6.30250Y0.80250
X6.30250Y0.90250
X6.30250Y1.00250
X6.30250Y1.10250
X6.30250Y1.20250
X6.30250Y1.30250
X6.30250Y1.40250
X6.30250Y1.50250
X6.30250Y1.60250
X6.30250Y2.80250
X6.30250Y2.90250
X6.30250Y3.00250
X6.80250Y0.40250
X6.80250Y0.50250
X6.80250Y0.60250
X6.80250Y0.70250
X6.80250Y0.80250
X6.80250Y0.90250
X6.80250Y1.00250
X6.80250Y1.10250
X6.80250Y1.20250
X6.80250Y1.30250
X6.80250Y1.40250
X6.80250Y1.50250
X6.80250Y1.60250
X6.80250Y2.80250
X6.80250Y2.90250
X6.80250Y3.00250
X7.30250Y0.40250
X7.30250Y0.50250
X7.30250Y0.60250
X7.30250Y1.80250
X7.30250Y1.90250
X7.30250Y2.00250
X7.30250Y2.10250
X7.30250Y2.20250
X7.30250Y2.30250
X7.30250Y2.40250
X7.30250Y2.50250
X7.30250Y2.60250
X7.30250Y2.70250
X7.30250Y2.80250
X7.30250Y2.90250
X7.30250Y3.00250
X7.80250Y0.40250
X7.80250Y0.50250
X7.80250Y0.60250
X7.80250Y1.80250
X7.80250Y1.90250
X7.80250Y2.00250
X7.80250Y2.10250
X7.80250Y2.20250
X7.80250Y2.30250
X7.80250Y2.40250
X7.80250Y2.50250
X7.80250Y2.60250
X7.80250Y2.70250
X7.80250Y2.80250
X7.80250Y2.90250
X7.80250Y3.00250
X8.30250Y0.20250
X8.30250Y0.30250
X8.30250Y0.40250
X8.30250Y0.50250
X8.30250Y0.60250
X8.30250Y0.70250
X8.30250Y0.80250
X8.30250Y0.90250
X8.30250Y1.00250
X8.30250Y1.10250
X8.30250Y1.20250
X8.30250Y1.30250
X8.30250Y1.40250
X8.30250Y1.50250
X8.30250Y1.60250
X8.30250Y1.70250
X8.30250Y1.80250
X8.30250Y3.30250
X8.30250Y3.40250
X8.30250Y3.50250
X8.80250Y0.20250
X8.80250Y0.30250
X8.80250Y0.40250
X8.80250Y0.50250
X8.80250Y0.60250
X8.80250Y0.70250
X8.80250Y0.80250
X8.80250Y0.90250
X8.80250Y1.00250
X8.80250Y1.10250
X8.80250Y1.20250
X8.80250Y1.30250
X8.80250Y1.40250
X8.80250Y1.50250
X8.80250Y1.60250
X8.80250Y1.70250
X8.80250Y1.80250
X8.80250Y3.30250
X8.80250Y3.40250
X8.80250Y3.50250
T003
X2.81195Y0.69541
X2.81195Y0.81352
X2.81195Y0.93163
T004
X1.21746Y1.42140
X1.26864Y1.28360
X1.27258Y1.54738
X1.40250Y1.60250
X1.53242Y1.54344
X1.53636Y1.28360
X1.58754Y1.42140
X2.31746Y1.42140
X2.36864Y1.28360
X2.37258Y1.54738
X2.50250Y1.60250
X2.63242Y1.54344
X2.63636Y1.28360
X2.68754Y1.42140
M30
