G04 DesignSpark PCB Gerber Version 12.0 Build 5941*
G04 #@! TF.Part,Single*
%FSLAX35Y35*%
%MOIN*%
%ADD70C,0.00500*%
G04 #@! TD.AperFunction*
X0Y0D02*
D02*
D70*
X250Y330250D02*
Y250D01*
X600250D01*
Y330250D01*
X250D01*
X30250Y120250D02*
G75*
G03*
X20250Y110250I-5000J-5000D01*
G01*
G75*
G03*
X30250Y120250I5000J5000D01*
G01*
X121746Y146470D02*
G75*
G03*
Y137809I0J-4331D01*
G01*
G75*
G03*
Y146470I0J4331D01*
G01*
X126864Y132691D02*
G75*
G03*
Y124030I0J-4331D01*
G01*
G75*
G03*
Y132691I0J4331D01*
G01*
X127258Y159069D02*
G75*
G03*
Y150407I0J-4331D01*
G01*
G75*
G03*
Y159069I0J4331D01*
G01*
X140250Y164581D02*
G75*
G03*
Y155919I0J-4331D01*
G01*
G75*
G03*
Y164581I0J4331D01*
G01*
X153242Y158675D02*
G75*
G03*
Y150014I0J-4331D01*
G01*
G75*
G03*
Y158675I0J4331D01*
G01*
X153636Y132691D02*
G75*
G03*
Y124030I0J-4331D01*
G01*
G75*
G03*
Y132691I0J4331D01*
G01*
X158754Y146470D02*
G75*
G03*
Y137809I0J-4331D01*
G01*
G75*
G03*
Y146470I0J4331D01*
G01*
X231746D02*
G75*
G03*
Y137809I0J-4331D01*
G01*
G75*
G03*
Y146470I0J4331D01*
G01*
X236864Y132691D02*
G75*
G03*
Y124030I0J-4331D01*
G01*
G75*
G03*
Y132691I0J4331D01*
G01*
X237258Y159069D02*
G75*
G03*
Y150407I0J-4331D01*
G01*
G75*
G03*
Y159069I0J4331D01*
G01*
X250250Y164581D02*
G75*
G03*
Y155919I0J-4331D01*
G01*
G75*
G03*
Y164581I0J4331D01*
G01*
X263242Y158675D02*
G75*
G03*
Y150014I0J-4331D01*
G01*
G75*
G03*
Y158675I0J4331D01*
G01*
X263636Y132691D02*
G75*
G03*
Y124030I0J-4331D01*
G01*
G75*
G03*
Y132691I0J4331D01*
G01*
X268754Y146470D02*
G75*
G03*
Y137809I0J-4331D01*
G01*
G75*
G03*
Y146470I0J4331D01*
G01*
X580250Y40250D02*
G75*
G03*
X570250Y30250I-5000J-5000D01*
G01*
G75*
G03*
X580250Y40250I5000J5000D01*
G01*
X610250Y320250D02*
Y270250D01*
G75*
G03*
X620250Y260250I10000J0D01*
G01*
X630250D01*
G75*
G02*
X640250Y250250I0J-10000D01*
G01*
Y190250D01*
G75*
G02*
X630250Y180250I-10000J0D01*
G01*
X620250D01*
G75*
G03*
X610250Y170250I0J-10000D01*
G01*
Y20250D01*
X700250D01*
Y170250D01*
G75*
G03*
X690250Y180250I-10000J0D01*
G01*
X680250D01*
G75*
G02*
X670250Y190250I0J10000D01*
G01*
Y250250D01*
G75*
G02*
X680250Y260250I10000J0D01*
G01*
X690250D01*
G75*
G03*
X700250Y270250I0J10000D01*
G01*
Y320250D01*
X610250D01*
X800250Y20250D02*
Y70250D01*
G75*
G03*
X790250Y80250I-10000J0D01*
G01*
X780250D01*
G75*
G02*
X770250Y90250I0J10000D01*
G01*
Y150250D01*
G75*
G02*
X780250Y160250I10000J0D01*
G01*
X790250D01*
G75*
G03*
X800250Y170250I0J10000D01*
G01*
Y320250D01*
X710250D01*
Y170250D01*
G75*
G03*
X720250Y160250I10000J0D01*
G01*
X730250D01*
G75*
G02*
X740250Y150250I0J-10000D01*
G01*
Y90250D01*
G75*
G02*
X730250Y80250I-10000J0D01*
G01*
X720250D01*
G75*
G03*
X710250Y70250I0J-10000D01*
G01*
Y20250D01*
X800250D01*
X810250Y370250D02*
Y320250D01*
G75*
G03*
X820250Y310250I10000J0D01*
G01*
X830250D01*
G75*
G02*
X840250Y300250I0J-10000D01*
G01*
Y210250D01*
G75*
G02*
X830250Y200250I-10000J0D01*
G01*
X820250D01*
G75*
G03*
X810250Y190250I0J-10000D01*
G01*
Y250D01*
X900250D01*
Y190250D01*
G75*
G03*
X890250Y200250I-10000J0D01*
G01*
X880250D01*
G75*
G02*
X870250Y210250I0J10000D01*
G01*
Y300250D01*
G75*
G02*
X880250Y310250I10000J0D01*
G01*
X890250D01*
G75*
G03*
X900250Y320250I0J10000D01*
G01*
Y370250D01*
X810250D01*
X0Y0D02*
M02*
