G04 DesignSpark PCB Gerber Version 12.0 Build 5941*
G04 #@! TF.Part,Single*
G04 #@! TF.FilePolarity,Positive*
%FSLAX35Y35*%
%MOIN*%
G04 #@! TA.AperFunction,ComponentDrill*
%ADD18C,0.03200*%
G04 #@! TA.AperFunction,MechanicalDrill*
%ADD15C,0.03500*%
%ADD17C,0.03543*%
%ADD16C,0.08661*%
G04 #@! TD.AperFunction*
X0Y0D02*
D02*
D15*
X20250Y50250D03*
D03*
Y60250D03*
D03*
Y190250D03*
Y200250D03*
Y210250D03*
Y220250D03*
Y230250D03*
Y240250D03*
Y250250D03*
Y260250D03*
Y270250D03*
Y280250D03*
Y290250D03*
Y300250D03*
X140250Y180250D03*
Y280250D03*
X210250Y190250D03*
Y290250D03*
X270250Y20250D03*
X280250D03*
Y180250D03*
Y280250D03*
X290250Y190250D03*
Y300250D03*
X310250Y20250D03*
Y180250D03*
Y270250D03*
X320250Y20250D03*
Y180250D03*
Y260250D03*
X330250Y20250D03*
Y180250D03*
Y250250D03*
X340250Y20250D03*
Y180250D03*
Y240250D03*
X390250Y20250D03*
Y180250D03*
Y230250D03*
X400250Y20250D03*
Y180250D03*
Y220250D03*
X410250Y20250D03*
Y180250D03*
Y210250D03*
X420250Y20250D03*
Y180250D03*
Y200250D03*
X530250Y20250D03*
X540250D03*
Y30250D03*
X580250Y200250D03*
Y210250D03*
Y220250D03*
Y230250D03*
Y240250D03*
Y250250D03*
Y260250D03*
Y270250D03*
Y280250D03*
Y290250D03*
Y300250D03*
X630250Y40250D03*
Y50250D03*
Y60250D03*
Y70250D03*
Y80250D03*
Y90250D03*
Y100250D03*
Y110250D03*
Y120250D03*
Y130250D03*
Y140250D03*
Y150250D03*
Y160250D03*
Y280250D03*
Y290250D03*
Y300250D03*
X680250Y40250D03*
Y50250D03*
Y60250D03*
Y70250D03*
Y80250D03*
Y90250D03*
Y100250D03*
Y110250D03*
Y120250D03*
Y130250D03*
Y140250D03*
Y150250D03*
Y160250D03*
Y280250D03*
Y290250D03*
Y300250D03*
X730250Y40250D03*
Y50250D03*
Y60250D03*
Y180250D03*
Y190250D03*
Y200250D03*
Y210250D03*
Y220250D03*
Y230250D03*
Y240250D03*
Y250250D03*
Y260250D03*
Y270250D03*
Y280250D03*
Y290250D03*
Y300250D03*
X780250Y40250D03*
Y50250D03*
Y60250D03*
Y180250D03*
Y190250D03*
Y200250D03*
Y210250D03*
Y220250D03*
Y230250D03*
Y240250D03*
Y250250D03*
Y260250D03*
Y270250D03*
Y280250D03*
Y290250D03*
Y300250D03*
X830250Y20250D03*
Y30250D03*
Y40250D03*
Y50250D03*
Y60250D03*
Y70250D03*
Y80250D03*
Y90250D03*
Y100250D03*
Y110250D03*
Y120250D03*
Y130250D03*
Y140250D03*
Y150250D03*
Y160250D03*
Y170250D03*
Y180250D03*
Y330250D03*
Y340250D03*
Y350250D03*
X880250Y20250D03*
Y30250D03*
Y40250D03*
Y50250D03*
Y60250D03*
Y70250D03*
Y80250D03*
Y90250D03*
Y100250D03*
Y110250D03*
Y120250D03*
Y130250D03*
Y140250D03*
Y150250D03*
Y160250D03*
Y170250D03*
Y180250D03*
Y330250D03*
Y340250D03*
Y350250D03*
D02*
D16*
X121746Y142140D03*
X126864Y128360D03*
X127258Y154738D03*
X140250Y160250D03*
X153242Y154344D03*
X153636Y128360D03*
X158754Y142140D03*
X231746D03*
X236864Y128360D03*
X237258Y154738D03*
X250250Y160250D03*
X263242Y154344D03*
X263636Y128360D03*
X268754Y142140D03*
D02*
D17*
X281195Y69541D03*
Y81352D03*
Y93163D03*
D02*
D18*
X90250Y140250D03*
Y180250D03*
X100250Y140250D03*
Y180250D03*
X120250Y70250D03*
Y110250D03*
X160250Y90250D03*
Y100250D03*
X190250Y50250D03*
Y80250D03*
Y110250D03*
Y140250D03*
X200250Y50250D03*
Y90250D03*
Y100250D03*
Y140250D03*
Y180250D03*
X210250Y140250D03*
Y180250D03*
X240250Y50250D03*
X260250Y70250D03*
Y110250D03*
X0Y0D02*
M02*
