G04 DesignSpark PCB Gerber Version 12.0 Build 5941*
G04 #@! TF.Part,Single*
G04 #@! TF.FileFunction,Drillmap*
G04 #@! TF.FilePolarity,Positive*
%FSLAX35Y35*%
%MOIN*%
%ADD70C,0.00500*%
G04 #@! TA.AperFunction,WasherPad*
%ADD19C,0.10000*%
G04 #@! TD.AperFunction*
X0Y0D02*
D02*
D19*
X20250Y50250D03*
D03*
Y60250D03*
D03*
Y190250D03*
Y200250D03*
Y210250D03*
Y220250D03*
Y230250D03*
Y240250D03*
Y250250D03*
Y260250D03*
Y270250D03*
Y280250D03*
Y290250D03*
Y300250D03*
X90250Y140250D03*
Y180250D03*
X100250Y140250D03*
Y180250D03*
X120250Y70250D03*
Y110250D03*
X121746Y142140D03*
X126864Y128360D03*
X127258Y154738D03*
X140250Y160250D03*
Y180250D03*
Y280250D03*
X153242Y154344D03*
X153636Y128360D03*
X158754Y142140D03*
X160250Y90250D03*
Y100250D03*
X190250Y50250D03*
Y80250D03*
Y110250D03*
Y140250D03*
X200250Y50250D03*
Y90250D03*
Y100250D03*
Y140250D03*
Y180250D03*
X210250Y140250D03*
Y180250D03*
Y190250D03*
Y290250D03*
X231746Y142140D03*
X236864Y128360D03*
X237258Y154738D03*
X240250Y50250D03*
X250250Y160250D03*
X260250Y70250D03*
Y110250D03*
X263242Y154344D03*
X263636Y128360D03*
X268754Y142140D03*
X270250Y20250D03*
X280250D03*
Y180250D03*
Y280250D03*
X281195Y69541D03*
Y81352D03*
Y93163D03*
X290250Y190250D03*
Y300250D03*
X310250Y20250D03*
Y180250D03*
Y270250D03*
X320250Y20250D03*
Y180250D03*
Y260250D03*
X330250Y20250D03*
Y180250D03*
Y250250D03*
X340250Y20250D03*
Y180250D03*
Y240250D03*
X390250Y20250D03*
Y180250D03*
Y230250D03*
X400250Y20250D03*
Y180250D03*
Y220250D03*
X410250Y20250D03*
Y180250D03*
Y210250D03*
X420250Y20250D03*
Y180250D03*
Y200250D03*
X530250Y20250D03*
X540250D03*
Y30250D03*
X580250Y200250D03*
Y210250D03*
Y220250D03*
Y230250D03*
Y240250D03*
Y250250D03*
Y260250D03*
Y270250D03*
Y280250D03*
Y290250D03*
Y300250D03*
X630250Y40250D03*
Y50250D03*
Y60250D03*
Y70250D03*
Y80250D03*
Y90250D03*
Y100250D03*
Y110250D03*
Y120250D03*
Y130250D03*
Y140250D03*
Y150250D03*
Y160250D03*
Y280250D03*
Y290250D03*
Y300250D03*
X680250Y40250D03*
Y50250D03*
Y60250D03*
Y70250D03*
Y80250D03*
Y90250D03*
Y100250D03*
Y110250D03*
Y120250D03*
Y130250D03*
Y140250D03*
Y150250D03*
Y160250D03*
Y280250D03*
Y290250D03*
Y300250D03*
X730250Y40250D03*
Y50250D03*
Y60250D03*
Y180250D03*
Y190250D03*
Y200250D03*
Y210250D03*
Y220250D03*
Y230250D03*
Y240250D03*
Y250250D03*
Y260250D03*
Y270250D03*
Y280250D03*
Y290250D03*
Y300250D03*
X780250Y40250D03*
Y50250D03*
Y60250D03*
Y180250D03*
Y190250D03*
Y200250D03*
Y210250D03*
Y220250D03*
Y230250D03*
Y240250D03*
Y250250D03*
Y260250D03*
Y270250D03*
Y280250D03*
Y290250D03*
Y300250D03*
X830250Y20250D03*
Y30250D03*
Y40250D03*
Y50250D03*
Y60250D03*
Y70250D03*
Y80250D03*
Y90250D03*
Y100250D03*
Y110250D03*
Y120250D03*
Y130250D03*
Y140250D03*
Y150250D03*
Y160250D03*
Y170250D03*
Y180250D03*
Y330250D03*
Y340250D03*
Y350250D03*
X880250Y20250D03*
Y30250D03*
Y40250D03*
Y50250D03*
Y60250D03*
Y70250D03*
Y80250D03*
Y90250D03*
Y100250D03*
Y110250D03*
Y120250D03*
Y130250D03*
Y140250D03*
Y150250D03*
Y160250D03*
Y170250D03*
Y180250D03*
Y330250D03*
Y340250D03*
Y350250D03*
D02*
D70*
X32437Y58063D02*
X33063Y57750D01*
X33375Y57125D01*
X33063Y56500D01*
X32437Y56187D01*
X30250D01*
Y59937D01*
X32437D01*
X33063Y59625D01*
X33375Y59000D01*
X33063Y58375D01*
X32437Y58063D01*
X30250D01*
X32437D02*
X33063Y57750D01*
X33375Y57125D01*
X33063Y56500D01*
X32437Y56187D01*
X30250D01*
Y59937D01*
X32437D01*
X33063Y59625D01*
X33375Y59000D01*
X33063Y58375D01*
X32437Y58063D01*
X30250D01*
X32437Y68063D02*
X33063Y67750D01*
X33375Y67125D01*
X33063Y66500D01*
X32437Y66187D01*
X30250D01*
Y69937D01*
X32437D01*
X33063Y69625D01*
X33375Y69000D01*
X33063Y68375D01*
X32437Y68063D01*
X30250D01*
X32437D02*
X33063Y67750D01*
X33375Y67125D01*
X33063Y66500D01*
X32437Y66187D01*
X30250D01*
Y69937D01*
X32437D01*
X33063Y69625D01*
X33375Y69000D01*
X33063Y68375D01*
X32437Y68063D01*
X30250D01*
X32437Y198063D02*
X33063Y197750D01*
X33375Y197125D01*
X33063Y196500D01*
X32437Y196187D01*
X30250D01*
Y199937D01*
X32437D01*
X33063Y199625D01*
X33375Y199000D01*
X33063Y198375D01*
X32437Y198063D01*
X30250D01*
X32437Y208063D02*
X33063Y207750D01*
X33375Y207125D01*
X33063Y206500D01*
X32437Y206187D01*
X30250D01*
Y209937D01*
X32437D01*
X33063Y209625D01*
X33375Y209000D01*
X33063Y208375D01*
X32437Y208063D01*
X30250D01*
X32437Y218063D02*
X33063Y217750D01*
X33375Y217125D01*
X33063Y216500D01*
X32437Y216187D01*
X30250D01*
Y219937D01*
X32437D01*
X33063Y219625D01*
X33375Y219000D01*
X33063Y218375D01*
X32437Y218063D01*
X30250D01*
X32437Y228063D02*
X33063Y227750D01*
X33375Y227125D01*
X33063Y226500D01*
X32437Y226187D01*
X30250D01*
Y229937D01*
X32437D01*
X33063Y229625D01*
X33375Y229000D01*
X33063Y228375D01*
X32437Y228063D01*
X30250D01*
X32437Y238063D02*
X33063Y237750D01*
X33375Y237125D01*
X33063Y236500D01*
X32437Y236187D01*
X30250D01*
Y239937D01*
X32437D01*
X33063Y239625D01*
X33375Y239000D01*
X33063Y238375D01*
X32437Y238063D01*
X30250D01*
X32437Y248063D02*
X33063Y247750D01*
X33375Y247125D01*
X33063Y246500D01*
X32437Y246187D01*
X30250D01*
Y249937D01*
X32437D01*
X33063Y249625D01*
X33375Y249000D01*
X33063Y248375D01*
X32437Y248063D01*
X30250D01*
X32437Y258063D02*
X33063Y257750D01*
X33375Y257125D01*
X33063Y256500D01*
X32437Y256187D01*
X30250D01*
Y259937D01*
X32437D01*
X33063Y259625D01*
X33375Y259000D01*
X33063Y258375D01*
X32437Y258063D01*
X30250D01*
X32437Y268063D02*
X33063Y267750D01*
X33375Y267125D01*
X33063Y266500D01*
X32437Y266187D01*
X30250D01*
Y269937D01*
X32437D01*
X33063Y269625D01*
X33375Y269000D01*
X33063Y268375D01*
X32437Y268063D01*
X30250D01*
X32437Y278063D02*
X33063Y277750D01*
X33375Y277125D01*
X33063Y276500D01*
X32437Y276187D01*
X30250D01*
Y279937D01*
X32437D01*
X33063Y279625D01*
X33375Y279000D01*
X33063Y278375D01*
X32437Y278063D01*
X30250D01*
X32437Y288063D02*
X33063Y287750D01*
X33375Y287125D01*
X33063Y286500D01*
X32437Y286187D01*
X30250D01*
Y289937D01*
X32437D01*
X33063Y289625D01*
X33375Y289000D01*
X33063Y288375D01*
X32437Y288063D01*
X30250D01*
X32437Y298063D02*
X33063Y297750D01*
X33375Y297125D01*
X33063Y296500D01*
X32437Y296187D01*
X30250D01*
Y299937D01*
X32437D01*
X33063Y299625D01*
X33375Y299000D01*
X33063Y298375D01*
X32437Y298063D01*
X30250D01*
X32437Y308063D02*
X33063Y307750D01*
X33375Y307125D01*
X33063Y306500D01*
X32437Y306187D01*
X30250D01*
Y309937D01*
X32437D01*
X33063Y309625D01*
X33375Y309000D01*
X33063Y308375D01*
X32437Y308063D01*
X30250D01*
X100250Y146187D02*
Y149937D01*
X102125D01*
X102750Y149625D01*
X103063Y149313D01*
X103375Y148687D01*
Y147437D01*
X103063Y146813D01*
X102750Y146500D01*
X102125Y146187D01*
X100250D01*
Y186187D02*
Y189937D01*
X102125D01*
X102750Y189625D01*
X103063Y189313D01*
X103375Y188687D01*
Y187437D01*
X103063Y186813D01*
X102750Y186500D01*
X102125Y186187D01*
X100250D01*
X110250Y146187D02*
Y149937D01*
X112125D01*
X112750Y149625D01*
X113063Y149313D01*
X113375Y148687D01*
Y147437D01*
X113063Y146813D01*
X112750Y146500D01*
X112125Y146187D01*
X110250D01*
Y186187D02*
Y189937D01*
X112125D01*
X112750Y189625D01*
X113063Y189313D01*
X113375Y188687D01*
Y187437D01*
X113063Y186813D01*
X112750Y186500D01*
X112125Y186187D01*
X110250D01*
X130250Y76187D02*
Y79937D01*
X132125D01*
X132750Y79625D01*
X133063Y79313D01*
X133375Y78687D01*
Y77437D01*
X133063Y76813D01*
X132750Y76500D01*
X132125Y76187D01*
X130250D01*
Y116187D02*
Y119937D01*
X132125D01*
X132750Y119625D01*
X133063Y119313D01*
X133375Y118687D01*
Y117437D01*
X133063Y116813D01*
X132750Y116500D01*
X132125Y116187D01*
X130250D01*
X134871Y148702D02*
X134559Y148390D01*
X133933Y148077D01*
X132996D01*
X132371Y148390D01*
X132059Y148702D01*
X131746Y149327D01*
Y150577D01*
X132059Y151202D01*
X132371Y151515D01*
X132996Y151827D01*
X133933D01*
X134559Y151515D01*
X134871Y151202D01*
X139989Y134923D02*
X139677Y134610D01*
X139052Y134298D01*
X138114D01*
X137489Y134610D01*
X137177Y134923D01*
X136864Y135548D01*
Y136798D01*
X137177Y137423D01*
X137489Y137735D01*
X138114Y138048D01*
X139052D01*
X139677Y137735D01*
X139989Y137423D01*
X140383Y161301D02*
X140070Y160988D01*
X139445Y160676D01*
X138508D01*
X137883Y160988D01*
X137570Y161301D01*
X137258Y161926D01*
Y163176D01*
X137570Y163801D01*
X137883Y164113D01*
X138508Y164426D01*
X139445D01*
X140070Y164113D01*
X140383Y163801D01*
X153375Y166813D02*
X153063Y166500D01*
X152437Y166187D01*
X151500D01*
X150875Y166500D01*
X150563Y166813D01*
X150250Y167437D01*
Y168687D01*
X150563Y169313D01*
X150875Y169625D01*
X151500Y169937D01*
X152437D01*
X153063Y169625D01*
X153375Y169313D01*
X152437Y188063D02*
X153063Y187750D01*
X153375Y187125D01*
X153063Y186500D01*
X152437Y186187D01*
X150250D01*
Y189937D01*
X152437D01*
X153063Y189625D01*
X153375Y189000D01*
X153063Y188375D01*
X152437Y188063D01*
X150250D01*
X152437Y288063D02*
X153063Y287750D01*
X153375Y287125D01*
X153063Y286500D01*
X152437Y286187D01*
X150250D01*
Y289937D01*
X152437D01*
X153063Y289625D01*
X153375Y289000D01*
X153063Y288375D01*
X152437Y288063D01*
X150250D01*
X166367Y160907D02*
X166055Y160594D01*
X165430Y160282D01*
X164492D01*
X163867Y160594D01*
X163555Y160907D01*
X163242Y161532D01*
Y162782D01*
X163555Y163407D01*
X163867Y163720D01*
X164492Y164032D01*
X165430D01*
X166055Y163720D01*
X166367Y163407D01*
X166761Y134923D02*
X166448Y134610D01*
X165823Y134298D01*
X164886D01*
X164261Y134610D01*
X163948Y134923D01*
X163636Y135548D01*
Y136798D01*
X163948Y137423D01*
X164261Y137735D01*
X164886Y138048D01*
X165823D01*
X166448Y137735D01*
X166761Y137423D01*
X171879Y148702D02*
X171567Y148390D01*
X170941Y148077D01*
X170004D01*
X169379Y148390D01*
X169067Y148702D01*
X168754Y149327D01*
Y150577D01*
X169067Y151202D01*
X169379Y151515D01*
X170004Y151827D01*
X170941D01*
X171567Y151515D01*
X171879Y151202D01*
X170250Y96187D02*
Y99937D01*
X172125D01*
X172750Y99625D01*
X173063Y99313D01*
X173375Y98687D01*
Y97437D01*
X173063Y96813D01*
X172750Y96500D01*
X172125Y96187D01*
X170250D01*
Y106187D02*
Y109937D01*
X172125D01*
X172750Y109625D01*
X173063Y109313D01*
X173375Y108687D01*
Y107437D01*
X173063Y106813D01*
X172750Y106500D01*
X172125Y106187D01*
X170250D01*
X200250Y56187D02*
Y59937D01*
X202125D01*
X202750Y59625D01*
X203063Y59313D01*
X203375Y58687D01*
Y57437D01*
X203063Y56813D01*
X202750Y56500D01*
X202125Y56187D01*
X200250D01*
Y86187D02*
Y89937D01*
X202125D01*
X202750Y89625D01*
X203063Y89313D01*
X203375Y88687D01*
Y87437D01*
X203063Y86813D01*
X202750Y86500D01*
X202125Y86187D01*
X200250D01*
Y116187D02*
Y119937D01*
X202125D01*
X202750Y119625D01*
X203063Y119313D01*
X203375Y118687D01*
Y117437D01*
X203063Y116813D01*
X202750Y116500D01*
X202125Y116187D01*
X200250D01*
Y146187D02*
Y149937D01*
X202125D01*
X202750Y149625D01*
X203063Y149313D01*
X203375Y148687D01*
Y147437D01*
X203063Y146813D01*
X202750Y146500D01*
X202125Y146187D01*
X200250D01*
X210250Y56187D02*
Y59937D01*
X212125D01*
X212750Y59625D01*
X213063Y59313D01*
X213375Y58687D01*
Y57437D01*
X213063Y56813D01*
X212750Y56500D01*
X212125Y56187D01*
X210250D01*
Y96187D02*
Y99937D01*
X212125D01*
X212750Y99625D01*
X213063Y99313D01*
X213375Y98687D01*
Y97437D01*
X213063Y96813D01*
X212750Y96500D01*
X212125Y96187D01*
X210250D01*
Y106187D02*
Y109937D01*
X212125D01*
X212750Y109625D01*
X213063Y109313D01*
X213375Y108687D01*
Y107437D01*
X213063Y106813D01*
X212750Y106500D01*
X212125Y106187D01*
X210250D01*
Y146187D02*
Y149937D01*
X212125D01*
X212750Y149625D01*
X213063Y149313D01*
X213375Y148687D01*
Y147437D01*
X213063Y146813D01*
X212750Y146500D01*
X212125Y146187D01*
X210250D01*
Y186187D02*
Y189937D01*
X212125D01*
X212750Y189625D01*
X213063Y189313D01*
X213375Y188687D01*
Y187437D01*
X213063Y186813D01*
X212750Y186500D01*
X212125Y186187D01*
X210250D01*
X220250Y146187D02*
Y149937D01*
X222125D01*
X222750Y149625D01*
X223063Y149313D01*
X223375Y148687D01*
Y147437D01*
X223063Y146813D01*
X222750Y146500D01*
X222125Y146187D01*
X220250D01*
Y186187D02*
Y189937D01*
X222125D01*
X222750Y189625D01*
X223063Y189313D01*
X223375Y188687D01*
Y187437D01*
X223063Y186813D01*
X222750Y186500D01*
X222125Y186187D01*
X220250D01*
X222437Y198063D02*
X223063Y197750D01*
X223375Y197125D01*
X223063Y196500D01*
X222437Y196187D01*
X220250D01*
Y199937D01*
X222437D01*
X223063Y199625D01*
X223375Y199000D01*
X223063Y198375D01*
X222437Y198063D01*
X220250D01*
X222437Y298063D02*
X223063Y297750D01*
X223375Y297125D01*
X223063Y296500D01*
X222437Y296187D01*
X220250D01*
Y299937D01*
X222437D01*
X223063Y299625D01*
X223375Y299000D01*
X223063Y298375D01*
X222437Y298063D01*
X220250D01*
X244871Y148702D02*
X244559Y148390D01*
X243933Y148077D01*
X242996D01*
X242371Y148390D01*
X242059Y148702D01*
X241746Y149327D01*
Y150577D01*
X242059Y151202D01*
X242371Y151515D01*
X242996Y151827D01*
X243933D01*
X244559Y151515D01*
X244871Y151202D01*
X249989Y134923D02*
X249677Y134610D01*
X249052Y134298D01*
X248114D01*
X247489Y134610D01*
X247177Y134923D01*
X246864Y135548D01*
Y136798D01*
X247177Y137423D01*
X247489Y137735D01*
X248114Y138048D01*
X249052D01*
X249677Y137735D01*
X249989Y137423D01*
X250383Y161301D02*
X250070Y160988D01*
X249445Y160676D01*
X248508D01*
X247883Y160988D01*
X247570Y161301D01*
X247258Y161926D01*
Y163176D01*
X247570Y163801D01*
X247883Y164113D01*
X248508Y164426D01*
X249445D01*
X250070Y164113D01*
X250383Y163801D01*
X250250Y56187D02*
Y59937D01*
X252125D01*
X252750Y59625D01*
X253063Y59313D01*
X253375Y58687D01*
Y57437D01*
X253063Y56813D01*
X252750Y56500D01*
X252125Y56187D01*
X250250D01*
X263375Y166813D02*
X263063Y166500D01*
X262437Y166187D01*
X261500D01*
X260875Y166500D01*
X260563Y166813D01*
X260250Y167437D01*
Y168687D01*
X260563Y169313D01*
X260875Y169625D01*
X261500Y169937D01*
X262437D01*
X263063Y169625D01*
X263375Y169313D01*
X270250Y76187D02*
Y79937D01*
X272125D01*
X272750Y79625D01*
X273063Y79313D01*
X273375Y78687D01*
Y77437D01*
X273063Y76813D01*
X272750Y76500D01*
X272125Y76187D01*
X270250D01*
Y116187D02*
Y119937D01*
X272125D01*
X272750Y119625D01*
X273063Y119313D01*
X273375Y118687D01*
Y117437D01*
X273063Y116813D01*
X272750Y116500D01*
X272125Y116187D01*
X270250D01*
X276367Y160907D02*
X276055Y160594D01*
X275430Y160282D01*
X274492D01*
X273867Y160594D01*
X273555Y160907D01*
X273242Y161532D01*
Y162782D01*
X273555Y163407D01*
X273867Y163720D01*
X274492Y164032D01*
X275430D01*
X276055Y163720D01*
X276367Y163407D01*
X276761Y134923D02*
X276448Y134610D01*
X275823Y134298D01*
X274886D01*
X274261Y134610D01*
X273948Y134923D01*
X273636Y135548D01*
Y136798D01*
X273948Y137423D01*
X274261Y137735D01*
X274886Y138048D01*
X275823D01*
X276448Y137735D01*
X276761Y137423D01*
X281879Y148702D02*
X281567Y148390D01*
X280941Y148077D01*
X280004D01*
X279379Y148390D01*
X279067Y148702D01*
X278754Y149327D01*
Y150577D01*
X279067Y151202D01*
X279379Y151515D01*
X280004Y151827D01*
X280941D01*
X281567Y151515D01*
X281879Y151202D01*
X282437Y28063D02*
X283063Y27750D01*
X283375Y27125D01*
X283063Y26500D01*
X282437Y26187D01*
X280250D01*
Y29937D01*
X282437D01*
X283063Y29625D01*
X283375Y29000D01*
X283063Y28375D01*
X282437Y28063D01*
X280250D01*
X292437D02*
X293063Y27750D01*
X293375Y27125D01*
X293063Y26500D01*
X292437Y26187D01*
X290250D01*
Y29937D01*
X292437D01*
X293063Y29625D01*
X293375Y29000D01*
X293063Y28375D01*
X292437Y28063D01*
X290250D01*
X292437Y188063D02*
X293063Y187750D01*
X293375Y187125D01*
X293063Y186500D01*
X292437Y186187D01*
X290250D01*
Y189937D01*
X292437D01*
X293063Y189625D01*
X293375Y189000D01*
X293063Y188375D01*
X292437Y188063D01*
X290250D01*
X292437Y288063D02*
X293063Y287750D01*
X293375Y287125D01*
X293063Y286500D01*
X292437Y286187D01*
X290250D01*
Y289937D01*
X292437D01*
X293063Y289625D01*
X293375Y289000D01*
X293063Y288375D01*
X292437Y288063D01*
X290250D01*
X291195Y75479D02*
X292757Y79229D01*
X294320Y75479D01*
X291820Y77041D02*
X293695D01*
X291195Y87290D02*
X292757Y91040D01*
X294320Y87290D01*
X291820Y88852D02*
X293695D01*
X291195Y99101D02*
X292757Y102851D01*
X294320Y99101D01*
X291820Y100663D02*
X293695D01*
X302437Y198063D02*
X303063Y197750D01*
X303375Y197125D01*
X303063Y196500D01*
X302437Y196187D01*
X300250D01*
Y199937D01*
X302437D01*
X303063Y199625D01*
X303375Y199000D01*
X303063Y198375D01*
X302437Y198063D01*
X300250D01*
X302437Y308063D02*
X303063Y307750D01*
X303375Y307125D01*
X303063Y306500D01*
X302437Y306187D01*
X300250D01*
Y309937D01*
X302437D01*
X303063Y309625D01*
X303375Y309000D01*
X303063Y308375D01*
X302437Y308063D01*
X300250D01*
X322437Y28063D02*
X323063Y27750D01*
X323375Y27125D01*
X323063Y26500D01*
X322437Y26187D01*
X320250D01*
Y29937D01*
X322437D01*
X323063Y29625D01*
X323375Y29000D01*
X323063Y28375D01*
X322437Y28063D01*
X320250D01*
X322437Y188063D02*
X323063Y187750D01*
X323375Y187125D01*
X323063Y186500D01*
X322437Y186187D01*
X320250D01*
Y189937D01*
X322437D01*
X323063Y189625D01*
X323375Y189000D01*
X323063Y188375D01*
X322437Y188063D01*
X320250D01*
X322437Y278063D02*
X323063Y277750D01*
X323375Y277125D01*
X323063Y276500D01*
X322437Y276187D01*
X320250D01*
Y279937D01*
X322437D01*
X323063Y279625D01*
X323375Y279000D01*
X323063Y278375D01*
X322437Y278063D01*
X320250D01*
X332437Y28063D02*
X333063Y27750D01*
X333375Y27125D01*
X333063Y26500D01*
X332437Y26187D01*
X330250D01*
Y29937D01*
X332437D01*
X333063Y29625D01*
X333375Y29000D01*
X333063Y28375D01*
X332437Y28063D01*
X330250D01*
X332437Y188063D02*
X333063Y187750D01*
X333375Y187125D01*
X333063Y186500D01*
X332437Y186187D01*
X330250D01*
Y189937D01*
X332437D01*
X333063Y189625D01*
X333375Y189000D01*
X333063Y188375D01*
X332437Y188063D01*
X330250D01*
X332437Y268063D02*
X333063Y267750D01*
X333375Y267125D01*
X333063Y266500D01*
X332437Y266187D01*
X330250D01*
Y269937D01*
X332437D01*
X333063Y269625D01*
X333375Y269000D01*
X333063Y268375D01*
X332437Y268063D01*
X330250D01*
X342437Y28063D02*
X343063Y27750D01*
X343375Y27125D01*
X343063Y26500D01*
X342437Y26187D01*
X340250D01*
Y29937D01*
X342437D01*
X343063Y29625D01*
X343375Y29000D01*
X343063Y28375D01*
X342437Y28063D01*
X340250D01*
X342437Y188063D02*
X343063Y187750D01*
X343375Y187125D01*
X343063Y186500D01*
X342437Y186187D01*
X340250D01*
Y189937D01*
X342437D01*
X343063Y189625D01*
X343375Y189000D01*
X343063Y188375D01*
X342437Y188063D01*
X340250D01*
X342437Y258063D02*
X343063Y257750D01*
X343375Y257125D01*
X343063Y256500D01*
X342437Y256187D01*
X340250D01*
Y259937D01*
X342437D01*
X343063Y259625D01*
X343375Y259000D01*
X343063Y258375D01*
X342437Y258063D01*
X340250D01*
X352437Y28063D02*
X353063Y27750D01*
X353375Y27125D01*
X353063Y26500D01*
X352437Y26187D01*
X350250D01*
Y29937D01*
X352437D01*
X353063Y29625D01*
X353375Y29000D01*
X353063Y28375D01*
X352437Y28063D01*
X350250D01*
X352437Y188063D02*
X353063Y187750D01*
X353375Y187125D01*
X353063Y186500D01*
X352437Y186187D01*
X350250D01*
Y189937D01*
X352437D01*
X353063Y189625D01*
X353375Y189000D01*
X353063Y188375D01*
X352437Y188063D01*
X350250D01*
X352437Y248063D02*
X353063Y247750D01*
X353375Y247125D01*
X353063Y246500D01*
X352437Y246187D01*
X350250D01*
Y249937D01*
X352437D01*
X353063Y249625D01*
X353375Y249000D01*
X353063Y248375D01*
X352437Y248063D01*
X350250D01*
X402437Y28063D02*
X403063Y27750D01*
X403375Y27125D01*
X403063Y26500D01*
X402437Y26187D01*
X400250D01*
Y29937D01*
X402437D01*
X403063Y29625D01*
X403375Y29000D01*
X403063Y28375D01*
X402437Y28063D01*
X400250D01*
X402437Y188063D02*
X403063Y187750D01*
X403375Y187125D01*
X403063Y186500D01*
X402437Y186187D01*
X400250D01*
Y189937D01*
X402437D01*
X403063Y189625D01*
X403375Y189000D01*
X403063Y188375D01*
X402437Y188063D01*
X400250D01*
X402437Y238063D02*
X403063Y237750D01*
X403375Y237125D01*
X403063Y236500D01*
X402437Y236187D01*
X400250D01*
Y239937D01*
X402437D01*
X403063Y239625D01*
X403375Y239000D01*
X403063Y238375D01*
X402437Y238063D01*
X400250D01*
X412437Y28063D02*
X413063Y27750D01*
X413375Y27125D01*
X413063Y26500D01*
X412437Y26187D01*
X410250D01*
Y29937D01*
X412437D01*
X413063Y29625D01*
X413375Y29000D01*
X413063Y28375D01*
X412437Y28063D01*
X410250D01*
X412437Y188063D02*
X413063Y187750D01*
X413375Y187125D01*
X413063Y186500D01*
X412437Y186187D01*
X410250D01*
Y189937D01*
X412437D01*
X413063Y189625D01*
X413375Y189000D01*
X413063Y188375D01*
X412437Y188063D01*
X410250D01*
X412437Y228063D02*
X413063Y227750D01*
X413375Y227125D01*
X413063Y226500D01*
X412437Y226187D01*
X410250D01*
Y229937D01*
X412437D01*
X413063Y229625D01*
X413375Y229000D01*
X413063Y228375D01*
X412437Y228063D01*
X410250D01*
X422437Y28063D02*
X423063Y27750D01*
X423375Y27125D01*
X423063Y26500D01*
X422437Y26187D01*
X420250D01*
Y29937D01*
X422437D01*
X423063Y29625D01*
X423375Y29000D01*
X423063Y28375D01*
X422437Y28063D01*
X420250D01*
X422437Y188063D02*
X423063Y187750D01*
X423375Y187125D01*
X423063Y186500D01*
X422437Y186187D01*
X420250D01*
Y189937D01*
X422437D01*
X423063Y189625D01*
X423375Y189000D01*
X423063Y188375D01*
X422437Y188063D01*
X420250D01*
X422437Y218063D02*
X423063Y217750D01*
X423375Y217125D01*
X423063Y216500D01*
X422437Y216187D01*
X420250D01*
Y219937D01*
X422437D01*
X423063Y219625D01*
X423375Y219000D01*
X423063Y218375D01*
X422437Y218063D01*
X420250D01*
X432437Y28063D02*
X433063Y27750D01*
X433375Y27125D01*
X433063Y26500D01*
X432437Y26187D01*
X430250D01*
Y29937D01*
X432437D01*
X433063Y29625D01*
X433375Y29000D01*
X433063Y28375D01*
X432437Y28063D01*
X430250D01*
X432437Y188063D02*
X433063Y187750D01*
X433375Y187125D01*
X433063Y186500D01*
X432437Y186187D01*
X430250D01*
Y189937D01*
X432437D01*
X433063Y189625D01*
X433375Y189000D01*
X433063Y188375D01*
X432437Y188063D01*
X430250D01*
X432437Y208063D02*
X433063Y207750D01*
X433375Y207125D01*
X433063Y206500D01*
X432437Y206187D01*
X430250D01*
Y209937D01*
X432437D01*
X433063Y209625D01*
X433375Y209000D01*
X433063Y208375D01*
X432437Y208063D01*
X430250D01*
X542437Y28063D02*
X543063Y27750D01*
X543375Y27125D01*
X543063Y26500D01*
X542437Y26187D01*
X540250D01*
Y29937D01*
X542437D01*
X543063Y29625D01*
X543375Y29000D01*
X543063Y28375D01*
X542437Y28063D01*
X540250D01*
X552437D02*
X553063Y27750D01*
X553375Y27125D01*
X553063Y26500D01*
X552437Y26187D01*
X550250D01*
Y29937D01*
X552437D01*
X553063Y29625D01*
X553375Y29000D01*
X553063Y28375D01*
X552437Y28063D01*
X550250D01*
X552437Y38063D02*
X553063Y37750D01*
X553375Y37125D01*
X553063Y36500D01*
X552437Y36187D01*
X550250D01*
Y39937D01*
X552437D01*
X553063Y39625D01*
X553375Y39000D01*
X553063Y38375D01*
X552437Y38063D01*
X550250D01*
X592437Y208063D02*
X593063Y207750D01*
X593375Y207125D01*
X593063Y206500D01*
X592437Y206187D01*
X590250D01*
Y209937D01*
X592437D01*
X593063Y209625D01*
X593375Y209000D01*
X593063Y208375D01*
X592437Y208063D01*
X590250D01*
X592437Y218063D02*
X593063Y217750D01*
X593375Y217125D01*
X593063Y216500D01*
X592437Y216187D01*
X590250D01*
Y219937D01*
X592437D01*
X593063Y219625D01*
X593375Y219000D01*
X593063Y218375D01*
X592437Y218063D01*
X590250D01*
X592437Y228063D02*
X593063Y227750D01*
X593375Y227125D01*
X593063Y226500D01*
X592437Y226187D01*
X590250D01*
Y229937D01*
X592437D01*
X593063Y229625D01*
X593375Y229000D01*
X593063Y228375D01*
X592437Y228063D01*
X590250D01*
X592437Y238063D02*
X593063Y237750D01*
X593375Y237125D01*
X593063Y236500D01*
X592437Y236187D01*
X590250D01*
Y239937D01*
X592437D01*
X593063Y239625D01*
X593375Y239000D01*
X593063Y238375D01*
X592437Y238063D01*
X590250D01*
X592437Y248063D02*
X593063Y247750D01*
X593375Y247125D01*
X593063Y246500D01*
X592437Y246187D01*
X590250D01*
Y249937D01*
X592437D01*
X593063Y249625D01*
X593375Y249000D01*
X593063Y248375D01*
X592437Y248063D01*
X590250D01*
X592437Y258063D02*
X593063Y257750D01*
X593375Y257125D01*
X593063Y256500D01*
X592437Y256187D01*
X590250D01*
Y259937D01*
X592437D01*
X593063Y259625D01*
X593375Y259000D01*
X593063Y258375D01*
X592437Y258063D01*
X590250D01*
X592437Y268063D02*
X593063Y267750D01*
X593375Y267125D01*
X593063Y266500D01*
X592437Y266187D01*
X590250D01*
Y269937D01*
X592437D01*
X593063Y269625D01*
X593375Y269000D01*
X593063Y268375D01*
X592437Y268063D01*
X590250D01*
X592437Y278063D02*
X593063Y277750D01*
X593375Y277125D01*
X593063Y276500D01*
X592437Y276187D01*
X590250D01*
Y279937D01*
X592437D01*
X593063Y279625D01*
X593375Y279000D01*
X593063Y278375D01*
X592437Y278063D01*
X590250D01*
X592437Y288063D02*
X593063Y287750D01*
X593375Y287125D01*
X593063Y286500D01*
X592437Y286187D01*
X590250D01*
Y289937D01*
X592437D01*
X593063Y289625D01*
X593375Y289000D01*
X593063Y288375D01*
X592437Y288063D01*
X590250D01*
X592437Y298063D02*
X593063Y297750D01*
X593375Y297125D01*
X593063Y296500D01*
X592437Y296187D01*
X590250D01*
Y299937D01*
X592437D01*
X593063Y299625D01*
X593375Y299000D01*
X593063Y298375D01*
X592437Y298063D01*
X590250D01*
X592437Y308063D02*
X593063Y307750D01*
X593375Y307125D01*
X593063Y306500D01*
X592437Y306187D01*
X590250D01*
Y309937D01*
X592437D01*
X593063Y309625D01*
X593375Y309000D01*
X593063Y308375D01*
X592437Y308063D01*
X590250D01*
X642437Y48063D02*
X643063Y47750D01*
X643375Y47125D01*
X643063Y46500D01*
X642437Y46187D01*
X640250D01*
Y49937D01*
X642437D01*
X643063Y49625D01*
X643375Y49000D01*
X643063Y48375D01*
X642437Y48063D01*
X640250D01*
X642437Y58063D02*
X643063Y57750D01*
X643375Y57125D01*
X643063Y56500D01*
X642437Y56187D01*
X640250D01*
Y59937D01*
X642437D01*
X643063Y59625D01*
X643375Y59000D01*
X643063Y58375D01*
X642437Y58063D01*
X640250D01*
X642437Y68063D02*
X643063Y67750D01*
X643375Y67125D01*
X643063Y66500D01*
X642437Y66187D01*
X640250D01*
Y69937D01*
X642437D01*
X643063Y69625D01*
X643375Y69000D01*
X643063Y68375D01*
X642437Y68063D01*
X640250D01*
X642437Y78063D02*
X643063Y77750D01*
X643375Y77125D01*
X643063Y76500D01*
X642437Y76187D01*
X640250D01*
Y79937D01*
X642437D01*
X643063Y79625D01*
X643375Y79000D01*
X643063Y78375D01*
X642437Y78063D01*
X640250D01*
X642437Y88063D02*
X643063Y87750D01*
X643375Y87125D01*
X643063Y86500D01*
X642437Y86187D01*
X640250D01*
Y89937D01*
X642437D01*
X643063Y89625D01*
X643375Y89000D01*
X643063Y88375D01*
X642437Y88063D01*
X640250D01*
X642437Y98063D02*
X643063Y97750D01*
X643375Y97125D01*
X643063Y96500D01*
X642437Y96187D01*
X640250D01*
Y99937D01*
X642437D01*
X643063Y99625D01*
X643375Y99000D01*
X643063Y98375D01*
X642437Y98063D01*
X640250D01*
X642437Y108063D02*
X643063Y107750D01*
X643375Y107125D01*
X643063Y106500D01*
X642437Y106187D01*
X640250D01*
Y109937D01*
X642437D01*
X643063Y109625D01*
X643375Y109000D01*
X643063Y108375D01*
X642437Y108063D01*
X640250D01*
X642437Y118063D02*
X643063Y117750D01*
X643375Y117125D01*
X643063Y116500D01*
X642437Y116187D01*
X640250D01*
Y119937D01*
X642437D01*
X643063Y119625D01*
X643375Y119000D01*
X643063Y118375D01*
X642437Y118063D01*
X640250D01*
X642437Y128063D02*
X643063Y127750D01*
X643375Y127125D01*
X643063Y126500D01*
X642437Y126187D01*
X640250D01*
Y129937D01*
X642437D01*
X643063Y129625D01*
X643375Y129000D01*
X643063Y128375D01*
X642437Y128063D01*
X640250D01*
X642437Y138063D02*
X643063Y137750D01*
X643375Y137125D01*
X643063Y136500D01*
X642437Y136187D01*
X640250D01*
Y139937D01*
X642437D01*
X643063Y139625D01*
X643375Y139000D01*
X643063Y138375D01*
X642437Y138063D01*
X640250D01*
X642437Y148063D02*
X643063Y147750D01*
X643375Y147125D01*
X643063Y146500D01*
X642437Y146187D01*
X640250D01*
Y149937D01*
X642437D01*
X643063Y149625D01*
X643375Y149000D01*
X643063Y148375D01*
X642437Y148063D01*
X640250D01*
X642437Y158063D02*
X643063Y157750D01*
X643375Y157125D01*
X643063Y156500D01*
X642437Y156187D01*
X640250D01*
Y159937D01*
X642437D01*
X643063Y159625D01*
X643375Y159000D01*
X643063Y158375D01*
X642437Y158063D01*
X640250D01*
X642437Y168063D02*
X643063Y167750D01*
X643375Y167125D01*
X643063Y166500D01*
X642437Y166187D01*
X640250D01*
Y169937D01*
X642437D01*
X643063Y169625D01*
X643375Y169000D01*
X643063Y168375D01*
X642437Y168063D01*
X640250D01*
X642437Y288063D02*
X643063Y287750D01*
X643375Y287125D01*
X643063Y286500D01*
X642437Y286187D01*
X640250D01*
Y289937D01*
X642437D01*
X643063Y289625D01*
X643375Y289000D01*
X643063Y288375D01*
X642437Y288063D01*
X640250D01*
X642437Y298063D02*
X643063Y297750D01*
X643375Y297125D01*
X643063Y296500D01*
X642437Y296187D01*
X640250D01*
Y299937D01*
X642437D01*
X643063Y299625D01*
X643375Y299000D01*
X643063Y298375D01*
X642437Y298063D01*
X640250D01*
X642437Y308063D02*
X643063Y307750D01*
X643375Y307125D01*
X643063Y306500D01*
X642437Y306187D01*
X640250D01*
Y309937D01*
X642437D01*
X643063Y309625D01*
X643375Y309000D01*
X643063Y308375D01*
X642437Y308063D01*
X640250D01*
X692437Y48063D02*
X693063Y47750D01*
X693375Y47125D01*
X693063Y46500D01*
X692437Y46187D01*
X690250D01*
Y49937D01*
X692437D01*
X693063Y49625D01*
X693375Y49000D01*
X693063Y48375D01*
X692437Y48063D01*
X690250D01*
X692437Y58063D02*
X693063Y57750D01*
X693375Y57125D01*
X693063Y56500D01*
X692437Y56187D01*
X690250D01*
Y59937D01*
X692437D01*
X693063Y59625D01*
X693375Y59000D01*
X693063Y58375D01*
X692437Y58063D01*
X690250D01*
X692437Y68063D02*
X693063Y67750D01*
X693375Y67125D01*
X693063Y66500D01*
X692437Y66187D01*
X690250D01*
Y69937D01*
X692437D01*
X693063Y69625D01*
X693375Y69000D01*
X693063Y68375D01*
X692437Y68063D01*
X690250D01*
X692437Y78063D02*
X693063Y77750D01*
X693375Y77125D01*
X693063Y76500D01*
X692437Y76187D01*
X690250D01*
Y79937D01*
X692437D01*
X693063Y79625D01*
X693375Y79000D01*
X693063Y78375D01*
X692437Y78063D01*
X690250D01*
X692437Y88063D02*
X693063Y87750D01*
X693375Y87125D01*
X693063Y86500D01*
X692437Y86187D01*
X690250D01*
Y89937D01*
X692437D01*
X693063Y89625D01*
X693375Y89000D01*
X693063Y88375D01*
X692437Y88063D01*
X690250D01*
X692437Y98063D02*
X693063Y97750D01*
X693375Y97125D01*
X693063Y96500D01*
X692437Y96187D01*
X690250D01*
Y99937D01*
X692437D01*
X693063Y99625D01*
X693375Y99000D01*
X693063Y98375D01*
X692437Y98063D01*
X690250D01*
X692437Y108063D02*
X693063Y107750D01*
X693375Y107125D01*
X693063Y106500D01*
X692437Y106187D01*
X690250D01*
Y109937D01*
X692437D01*
X693063Y109625D01*
X693375Y109000D01*
X693063Y108375D01*
X692437Y108063D01*
X690250D01*
X692437Y118063D02*
X693063Y117750D01*
X693375Y117125D01*
X693063Y116500D01*
X692437Y116187D01*
X690250D01*
Y119937D01*
X692437D01*
X693063Y119625D01*
X693375Y119000D01*
X693063Y118375D01*
X692437Y118063D01*
X690250D01*
X692437Y128063D02*
X693063Y127750D01*
X693375Y127125D01*
X693063Y126500D01*
X692437Y126187D01*
X690250D01*
Y129937D01*
X692437D01*
X693063Y129625D01*
X693375Y129000D01*
X693063Y128375D01*
X692437Y128063D01*
X690250D01*
X692437Y138063D02*
X693063Y137750D01*
X693375Y137125D01*
X693063Y136500D01*
X692437Y136187D01*
X690250D01*
Y139937D01*
X692437D01*
X693063Y139625D01*
X693375Y139000D01*
X693063Y138375D01*
X692437Y138063D01*
X690250D01*
X692437Y148063D02*
X693063Y147750D01*
X693375Y147125D01*
X693063Y146500D01*
X692437Y146187D01*
X690250D01*
Y149937D01*
X692437D01*
X693063Y149625D01*
X693375Y149000D01*
X693063Y148375D01*
X692437Y148063D01*
X690250D01*
X692437Y158063D02*
X693063Y157750D01*
X693375Y157125D01*
X693063Y156500D01*
X692437Y156187D01*
X690250D01*
Y159937D01*
X692437D01*
X693063Y159625D01*
X693375Y159000D01*
X693063Y158375D01*
X692437Y158063D01*
X690250D01*
X692437Y168063D02*
X693063Y167750D01*
X693375Y167125D01*
X693063Y166500D01*
X692437Y166187D01*
X690250D01*
Y169937D01*
X692437D01*
X693063Y169625D01*
X693375Y169000D01*
X693063Y168375D01*
X692437Y168063D01*
X690250D01*
X692437Y288063D02*
X693063Y287750D01*
X693375Y287125D01*
X693063Y286500D01*
X692437Y286187D01*
X690250D01*
Y289937D01*
X692437D01*
X693063Y289625D01*
X693375Y289000D01*
X693063Y288375D01*
X692437Y288063D01*
X690250D01*
X692437Y298063D02*
X693063Y297750D01*
X693375Y297125D01*
X693063Y296500D01*
X692437Y296187D01*
X690250D01*
Y299937D01*
X692437D01*
X693063Y299625D01*
X693375Y299000D01*
X693063Y298375D01*
X692437Y298063D01*
X690250D01*
X692437Y308063D02*
X693063Y307750D01*
X693375Y307125D01*
X693063Y306500D01*
X692437Y306187D01*
X690250D01*
Y309937D01*
X692437D01*
X693063Y309625D01*
X693375Y309000D01*
X693063Y308375D01*
X692437Y308063D01*
X690250D01*
X742437Y48063D02*
X743063Y47750D01*
X743375Y47125D01*
X743063Y46500D01*
X742437Y46187D01*
X740250D01*
Y49937D01*
X742437D01*
X743063Y49625D01*
X743375Y49000D01*
X743063Y48375D01*
X742437Y48063D01*
X740250D01*
X742437Y58063D02*
X743063Y57750D01*
X743375Y57125D01*
X743063Y56500D01*
X742437Y56187D01*
X740250D01*
Y59937D01*
X742437D01*
X743063Y59625D01*
X743375Y59000D01*
X743063Y58375D01*
X742437Y58063D01*
X740250D01*
X742437Y68063D02*
X743063Y67750D01*
X743375Y67125D01*
X743063Y66500D01*
X742437Y66187D01*
X740250D01*
Y69937D01*
X742437D01*
X743063Y69625D01*
X743375Y69000D01*
X743063Y68375D01*
X742437Y68063D01*
X740250D01*
X742437Y188063D02*
X743063Y187750D01*
X743375Y187125D01*
X743063Y186500D01*
X742437Y186187D01*
X740250D01*
Y189937D01*
X742437D01*
X743063Y189625D01*
X743375Y189000D01*
X743063Y188375D01*
X742437Y188063D01*
X740250D01*
X742437Y198063D02*
X743063Y197750D01*
X743375Y197125D01*
X743063Y196500D01*
X742437Y196187D01*
X740250D01*
Y199937D01*
X742437D01*
X743063Y199625D01*
X743375Y199000D01*
X743063Y198375D01*
X742437Y198063D01*
X740250D01*
X742437Y208063D02*
X743063Y207750D01*
X743375Y207125D01*
X743063Y206500D01*
X742437Y206187D01*
X740250D01*
Y209937D01*
X742437D01*
X743063Y209625D01*
X743375Y209000D01*
X743063Y208375D01*
X742437Y208063D01*
X740250D01*
X742437Y218063D02*
X743063Y217750D01*
X743375Y217125D01*
X743063Y216500D01*
X742437Y216187D01*
X740250D01*
Y219937D01*
X742437D01*
X743063Y219625D01*
X743375Y219000D01*
X743063Y218375D01*
X742437Y218063D01*
X740250D01*
X742437Y228063D02*
X743063Y227750D01*
X743375Y227125D01*
X743063Y226500D01*
X742437Y226187D01*
X740250D01*
Y229937D01*
X742437D01*
X743063Y229625D01*
X743375Y229000D01*
X743063Y228375D01*
X742437Y228063D01*
X740250D01*
X742437Y238063D02*
X743063Y237750D01*
X743375Y237125D01*
X743063Y236500D01*
X742437Y236187D01*
X740250D01*
Y239937D01*
X742437D01*
X743063Y239625D01*
X743375Y239000D01*
X743063Y238375D01*
X742437Y238063D01*
X740250D01*
X742437Y248063D02*
X743063Y247750D01*
X743375Y247125D01*
X743063Y246500D01*
X742437Y246187D01*
X740250D01*
Y249937D01*
X742437D01*
X743063Y249625D01*
X743375Y249000D01*
X743063Y248375D01*
X742437Y248063D01*
X740250D01*
X742437Y258063D02*
X743063Y257750D01*
X743375Y257125D01*
X743063Y256500D01*
X742437Y256187D01*
X740250D01*
Y259937D01*
X742437D01*
X743063Y259625D01*
X743375Y259000D01*
X743063Y258375D01*
X742437Y258063D01*
X740250D01*
X742437Y268063D02*
X743063Y267750D01*
X743375Y267125D01*
X743063Y266500D01*
X742437Y266187D01*
X740250D01*
Y269937D01*
X742437D01*
X743063Y269625D01*
X743375Y269000D01*
X743063Y268375D01*
X742437Y268063D01*
X740250D01*
X742437Y278063D02*
X743063Y277750D01*
X743375Y277125D01*
X743063Y276500D01*
X742437Y276187D01*
X740250D01*
Y279937D01*
X742437D01*
X743063Y279625D01*
X743375Y279000D01*
X743063Y278375D01*
X742437Y278063D01*
X740250D01*
X742437Y288063D02*
X743063Y287750D01*
X743375Y287125D01*
X743063Y286500D01*
X742437Y286187D01*
X740250D01*
Y289937D01*
X742437D01*
X743063Y289625D01*
X743375Y289000D01*
X743063Y288375D01*
X742437Y288063D01*
X740250D01*
X742437Y298063D02*
X743063Y297750D01*
X743375Y297125D01*
X743063Y296500D01*
X742437Y296187D01*
X740250D01*
Y299937D01*
X742437D01*
X743063Y299625D01*
X743375Y299000D01*
X743063Y298375D01*
X742437Y298063D01*
X740250D01*
X742437Y308063D02*
X743063Y307750D01*
X743375Y307125D01*
X743063Y306500D01*
X742437Y306187D01*
X740250D01*
Y309937D01*
X742437D01*
X743063Y309625D01*
X743375Y309000D01*
X743063Y308375D01*
X742437Y308063D01*
X740250D01*
X792437Y48063D02*
X793063Y47750D01*
X793375Y47125D01*
X793063Y46500D01*
X792437Y46187D01*
X790250D01*
Y49937D01*
X792437D01*
X793063Y49625D01*
X793375Y49000D01*
X793063Y48375D01*
X792437Y48063D01*
X790250D01*
X792437Y58063D02*
X793063Y57750D01*
X793375Y57125D01*
X793063Y56500D01*
X792437Y56187D01*
X790250D01*
Y59937D01*
X792437D01*
X793063Y59625D01*
X793375Y59000D01*
X793063Y58375D01*
X792437Y58063D01*
X790250D01*
X792437Y68063D02*
X793063Y67750D01*
X793375Y67125D01*
X793063Y66500D01*
X792437Y66187D01*
X790250D01*
Y69937D01*
X792437D01*
X793063Y69625D01*
X793375Y69000D01*
X793063Y68375D01*
X792437Y68063D01*
X790250D01*
X792437Y188063D02*
X793063Y187750D01*
X793375Y187125D01*
X793063Y186500D01*
X792437Y186187D01*
X790250D01*
Y189937D01*
X792437D01*
X793063Y189625D01*
X793375Y189000D01*
X793063Y188375D01*
X792437Y188063D01*
X790250D01*
X792437Y198063D02*
X793063Y197750D01*
X793375Y197125D01*
X793063Y196500D01*
X792437Y196187D01*
X790250D01*
Y199937D01*
X792437D01*
X793063Y199625D01*
X793375Y199000D01*
X793063Y198375D01*
X792437Y198063D01*
X790250D01*
X792437Y208063D02*
X793063Y207750D01*
X793375Y207125D01*
X793063Y206500D01*
X792437Y206187D01*
X790250D01*
Y209937D01*
X792437D01*
X793063Y209625D01*
X793375Y209000D01*
X793063Y208375D01*
X792437Y208063D01*
X790250D01*
X792437Y218063D02*
X793063Y217750D01*
X793375Y217125D01*
X793063Y216500D01*
X792437Y216187D01*
X790250D01*
Y219937D01*
X792437D01*
X793063Y219625D01*
X793375Y219000D01*
X793063Y218375D01*
X792437Y218063D01*
X790250D01*
X792437Y228063D02*
X793063Y227750D01*
X793375Y227125D01*
X793063Y226500D01*
X792437Y226187D01*
X790250D01*
Y229937D01*
X792437D01*
X793063Y229625D01*
X793375Y229000D01*
X793063Y228375D01*
X792437Y228063D01*
X790250D01*
X792437Y238063D02*
X793063Y237750D01*
X793375Y237125D01*
X793063Y236500D01*
X792437Y236187D01*
X790250D01*
Y239937D01*
X792437D01*
X793063Y239625D01*
X793375Y239000D01*
X793063Y238375D01*
X792437Y238063D01*
X790250D01*
X792437Y248063D02*
X793063Y247750D01*
X793375Y247125D01*
X793063Y246500D01*
X792437Y246187D01*
X790250D01*
Y249937D01*
X792437D01*
X793063Y249625D01*
X793375Y249000D01*
X793063Y248375D01*
X792437Y248063D01*
X790250D01*
X792437Y258063D02*
X793063Y257750D01*
X793375Y257125D01*
X793063Y256500D01*
X792437Y256187D01*
X790250D01*
Y259937D01*
X792437D01*
X793063Y259625D01*
X793375Y259000D01*
X793063Y258375D01*
X792437Y258063D01*
X790250D01*
X792437Y268063D02*
X793063Y267750D01*
X793375Y267125D01*
X793063Y266500D01*
X792437Y266187D01*
X790250D01*
Y269937D01*
X792437D01*
X793063Y269625D01*
X793375Y269000D01*
X793063Y268375D01*
X792437Y268063D01*
X790250D01*
X792437Y278063D02*
X793063Y277750D01*
X793375Y277125D01*
X793063Y276500D01*
X792437Y276187D01*
X790250D01*
Y279937D01*
X792437D01*
X793063Y279625D01*
X793375Y279000D01*
X793063Y278375D01*
X792437Y278063D01*
X790250D01*
X792437Y288063D02*
X793063Y287750D01*
X793375Y287125D01*
X793063Y286500D01*
X792437Y286187D01*
X790250D01*
Y289937D01*
X792437D01*
X793063Y289625D01*
X793375Y289000D01*
X793063Y288375D01*
X792437Y288063D01*
X790250D01*
X792437Y298063D02*
X793063Y297750D01*
X793375Y297125D01*
X793063Y296500D01*
X792437Y296187D01*
X790250D01*
Y299937D01*
X792437D01*
X793063Y299625D01*
X793375Y299000D01*
X793063Y298375D01*
X792437Y298063D01*
X790250D01*
X792437Y308063D02*
X793063Y307750D01*
X793375Y307125D01*
X793063Y306500D01*
X792437Y306187D01*
X790250D01*
Y309937D01*
X792437D01*
X793063Y309625D01*
X793375Y309000D01*
X793063Y308375D01*
X792437Y308063D01*
X790250D01*
X842437Y28063D02*
X843063Y27750D01*
X843375Y27125D01*
X843063Y26500D01*
X842437Y26187D01*
X840250D01*
Y29937D01*
X842437D01*
X843063Y29625D01*
X843375Y29000D01*
X843063Y28375D01*
X842437Y28063D01*
X840250D01*
X842437Y38063D02*
X843063Y37750D01*
X843375Y37125D01*
X843063Y36500D01*
X842437Y36187D01*
X840250D01*
Y39937D01*
X842437D01*
X843063Y39625D01*
X843375Y39000D01*
X843063Y38375D01*
X842437Y38063D01*
X840250D01*
X842437Y48063D02*
X843063Y47750D01*
X843375Y47125D01*
X843063Y46500D01*
X842437Y46187D01*
X840250D01*
Y49937D01*
X842437D01*
X843063Y49625D01*
X843375Y49000D01*
X843063Y48375D01*
X842437Y48063D01*
X840250D01*
X842437Y58063D02*
X843063Y57750D01*
X843375Y57125D01*
X843063Y56500D01*
X842437Y56187D01*
X840250D01*
Y59937D01*
X842437D01*
X843063Y59625D01*
X843375Y59000D01*
X843063Y58375D01*
X842437Y58063D01*
X840250D01*
X842437Y68063D02*
X843063Y67750D01*
X843375Y67125D01*
X843063Y66500D01*
X842437Y66187D01*
X840250D01*
Y69937D01*
X842437D01*
X843063Y69625D01*
X843375Y69000D01*
X843063Y68375D01*
X842437Y68063D01*
X840250D01*
X842437Y78063D02*
X843063Y77750D01*
X843375Y77125D01*
X843063Y76500D01*
X842437Y76187D01*
X840250D01*
Y79937D01*
X842437D01*
X843063Y79625D01*
X843375Y79000D01*
X843063Y78375D01*
X842437Y78063D01*
X840250D01*
X842437Y88063D02*
X843063Y87750D01*
X843375Y87125D01*
X843063Y86500D01*
X842437Y86187D01*
X840250D01*
Y89937D01*
X842437D01*
X843063Y89625D01*
X843375Y89000D01*
X843063Y88375D01*
X842437Y88063D01*
X840250D01*
X842437Y98063D02*
X843063Y97750D01*
X843375Y97125D01*
X843063Y96500D01*
X842437Y96187D01*
X840250D01*
Y99937D01*
X842437D01*
X843063Y99625D01*
X843375Y99000D01*
X843063Y98375D01*
X842437Y98063D01*
X840250D01*
X842437Y108063D02*
X843063Y107750D01*
X843375Y107125D01*
X843063Y106500D01*
X842437Y106187D01*
X840250D01*
Y109937D01*
X842437D01*
X843063Y109625D01*
X843375Y109000D01*
X843063Y108375D01*
X842437Y108063D01*
X840250D01*
X842437Y118063D02*
X843063Y117750D01*
X843375Y117125D01*
X843063Y116500D01*
X842437Y116187D01*
X840250D01*
Y119937D01*
X842437D01*
X843063Y119625D01*
X843375Y119000D01*
X843063Y118375D01*
X842437Y118063D01*
X840250D01*
X842437Y128063D02*
X843063Y127750D01*
X843375Y127125D01*
X843063Y126500D01*
X842437Y126187D01*
X840250D01*
Y129937D01*
X842437D01*
X843063Y129625D01*
X843375Y129000D01*
X843063Y128375D01*
X842437Y128063D01*
X840250D01*
X842437Y138063D02*
X843063Y137750D01*
X843375Y137125D01*
X843063Y136500D01*
X842437Y136187D01*
X840250D01*
Y139937D01*
X842437D01*
X843063Y139625D01*
X843375Y139000D01*
X843063Y138375D01*
X842437Y138063D01*
X840250D01*
X842437Y148063D02*
X843063Y147750D01*
X843375Y147125D01*
X843063Y146500D01*
X842437Y146187D01*
X840250D01*
Y149937D01*
X842437D01*
X843063Y149625D01*
X843375Y149000D01*
X843063Y148375D01*
X842437Y148063D01*
X840250D01*
X842437Y158063D02*
X843063Y157750D01*
X843375Y157125D01*
X843063Y156500D01*
X842437Y156187D01*
X840250D01*
Y159937D01*
X842437D01*
X843063Y159625D01*
X843375Y159000D01*
X843063Y158375D01*
X842437Y158063D01*
X840250D01*
X842437Y168063D02*
X843063Y167750D01*
X843375Y167125D01*
X843063Y166500D01*
X842437Y166187D01*
X840250D01*
Y169937D01*
X842437D01*
X843063Y169625D01*
X843375Y169000D01*
X843063Y168375D01*
X842437Y168063D01*
X840250D01*
X842437Y178063D02*
X843063Y177750D01*
X843375Y177125D01*
X843063Y176500D01*
X842437Y176187D01*
X840250D01*
Y179937D01*
X842437D01*
X843063Y179625D01*
X843375Y179000D01*
X843063Y178375D01*
X842437Y178063D01*
X840250D01*
X842437Y188063D02*
X843063Y187750D01*
X843375Y187125D01*
X843063Y186500D01*
X842437Y186187D01*
X840250D01*
Y189937D01*
X842437D01*
X843063Y189625D01*
X843375Y189000D01*
X843063Y188375D01*
X842437Y188063D01*
X840250D01*
X842437Y338063D02*
X843063Y337750D01*
X843375Y337125D01*
X843063Y336500D01*
X842437Y336187D01*
X840250D01*
Y339937D01*
X842437D01*
X843063Y339625D01*
X843375Y339000D01*
X843063Y338375D01*
X842437Y338063D01*
X840250D01*
X842437Y348063D02*
X843063Y347750D01*
X843375Y347125D01*
X843063Y346500D01*
X842437Y346187D01*
X840250D01*
Y349937D01*
X842437D01*
X843063Y349625D01*
X843375Y349000D01*
X843063Y348375D01*
X842437Y348063D01*
X840250D01*
X842437Y358063D02*
X843063Y357750D01*
X843375Y357125D01*
X843063Y356500D01*
X842437Y356187D01*
X840250D01*
Y359937D01*
X842437D01*
X843063Y359625D01*
X843375Y359000D01*
X843063Y358375D01*
X842437Y358063D01*
X840250D01*
X892437Y28063D02*
X893063Y27750D01*
X893375Y27125D01*
X893063Y26500D01*
X892437Y26187D01*
X890250D01*
Y29937D01*
X892437D01*
X893063Y29625D01*
X893375Y29000D01*
X893063Y28375D01*
X892437Y28063D01*
X890250D01*
X892437Y38063D02*
X893063Y37750D01*
X893375Y37125D01*
X893063Y36500D01*
X892437Y36187D01*
X890250D01*
Y39937D01*
X892437D01*
X893063Y39625D01*
X893375Y39000D01*
X893063Y38375D01*
X892437Y38063D01*
X890250D01*
X892437Y48063D02*
X893063Y47750D01*
X893375Y47125D01*
X893063Y46500D01*
X892437Y46187D01*
X890250D01*
Y49937D01*
X892437D01*
X893063Y49625D01*
X893375Y49000D01*
X893063Y48375D01*
X892437Y48063D01*
X890250D01*
X892437Y58063D02*
X893063Y57750D01*
X893375Y57125D01*
X893063Y56500D01*
X892437Y56187D01*
X890250D01*
Y59937D01*
X892437D01*
X893063Y59625D01*
X893375Y59000D01*
X893063Y58375D01*
X892437Y58063D01*
X890250D01*
X892437Y68063D02*
X893063Y67750D01*
X893375Y67125D01*
X893063Y66500D01*
X892437Y66187D01*
X890250D01*
Y69937D01*
X892437D01*
X893063Y69625D01*
X893375Y69000D01*
X893063Y68375D01*
X892437Y68063D01*
X890250D01*
X892437Y78063D02*
X893063Y77750D01*
X893375Y77125D01*
X893063Y76500D01*
X892437Y76187D01*
X890250D01*
Y79937D01*
X892437D01*
X893063Y79625D01*
X893375Y79000D01*
X893063Y78375D01*
X892437Y78063D01*
X890250D01*
X892437Y88063D02*
X893063Y87750D01*
X893375Y87125D01*
X893063Y86500D01*
X892437Y86187D01*
X890250D01*
Y89937D01*
X892437D01*
X893063Y89625D01*
X893375Y89000D01*
X893063Y88375D01*
X892437Y88063D01*
X890250D01*
X892437Y98063D02*
X893063Y97750D01*
X893375Y97125D01*
X893063Y96500D01*
X892437Y96187D01*
X890250D01*
Y99937D01*
X892437D01*
X893063Y99625D01*
X893375Y99000D01*
X893063Y98375D01*
X892437Y98063D01*
X890250D01*
X892437Y108063D02*
X893063Y107750D01*
X893375Y107125D01*
X893063Y106500D01*
X892437Y106187D01*
X890250D01*
Y109937D01*
X892437D01*
X893063Y109625D01*
X893375Y109000D01*
X893063Y108375D01*
X892437Y108063D01*
X890250D01*
X892437Y118063D02*
X893063Y117750D01*
X893375Y117125D01*
X893063Y116500D01*
X892437Y116187D01*
X890250D01*
Y119937D01*
X892437D01*
X893063Y119625D01*
X893375Y119000D01*
X893063Y118375D01*
X892437Y118063D01*
X890250D01*
X892437Y128063D02*
X893063Y127750D01*
X893375Y127125D01*
X893063Y126500D01*
X892437Y126187D01*
X890250D01*
Y129937D01*
X892437D01*
X893063Y129625D01*
X893375Y129000D01*
X893063Y128375D01*
X892437Y128063D01*
X890250D01*
X892437Y138063D02*
X893063Y137750D01*
X893375Y137125D01*
X893063Y136500D01*
X892437Y136187D01*
X890250D01*
Y139937D01*
X892437D01*
X893063Y139625D01*
X893375Y139000D01*
X893063Y138375D01*
X892437Y138063D01*
X890250D01*
X892437Y148063D02*
X893063Y147750D01*
X893375Y147125D01*
X893063Y146500D01*
X892437Y146187D01*
X890250D01*
Y149937D01*
X892437D01*
X893063Y149625D01*
X893375Y149000D01*
X893063Y148375D01*
X892437Y148063D01*
X890250D01*
X892437Y158063D02*
X893063Y157750D01*
X893375Y157125D01*
X893063Y156500D01*
X892437Y156187D01*
X890250D01*
Y159937D01*
X892437D01*
X893063Y159625D01*
X893375Y159000D01*
X893063Y158375D01*
X892437Y158063D01*
X890250D01*
X892437Y168063D02*
X893063Y167750D01*
X893375Y167125D01*
X893063Y166500D01*
X892437Y166187D01*
X890250D01*
Y169937D01*
X892437D01*
X893063Y169625D01*
X893375Y169000D01*
X893063Y168375D01*
X892437Y168063D01*
X890250D01*
X892437Y178063D02*
X893063Y177750D01*
X893375Y177125D01*
X893063Y176500D01*
X892437Y176187D01*
X890250D01*
Y179937D01*
X892437D01*
X893063Y179625D01*
X893375Y179000D01*
X893063Y178375D01*
X892437Y178063D01*
X890250D01*
X892437Y188063D02*
X893063Y187750D01*
X893375Y187125D01*
X893063Y186500D01*
X892437Y186187D01*
X890250D01*
Y189937D01*
X892437D01*
X893063Y189625D01*
X893375Y189000D01*
X893063Y188375D01*
X892437Y188063D01*
X890250D01*
X892437Y338063D02*
X893063Y337750D01*
X893375Y337125D01*
X893063Y336500D01*
X892437Y336187D01*
X890250D01*
Y339937D01*
X892437D01*
X893063Y339625D01*
X893375Y339000D01*
X893063Y338375D01*
X892437Y338063D01*
X890250D01*
X892437Y348063D02*
X893063Y347750D01*
X893375Y347125D01*
X893063Y346500D01*
X892437Y346187D01*
X890250D01*
Y349937D01*
X892437D01*
X893063Y349625D01*
X893375Y349000D01*
X893063Y348375D01*
X892437Y348063D01*
X890250D01*
X892437Y358063D02*
X893063Y357750D01*
X893375Y357125D01*
X893063Y356500D01*
X892437Y356187D01*
X890250D01*
Y359937D01*
X892437D01*
X893063Y359625D01*
X893375Y359000D01*
X893063Y358375D01*
X892437Y358063D01*
X890250D01*
X0Y0D02*
M02*
