G04 DesignSpark PCB Gerber Version 12.0 Build 5941*
G04 #@! TF.Part,Single*
G04 #@! TF.FileFunction,Copper,L2,Bot*
G04 #@! TF.FilePolarity,Positive*
%FSLAX35Y35*%
%MOIN*%
%ADD10C,0.03937*%
G04 #@! TA.AperFunction,WasherPad*
%ADD14C,0.06000*%
%ADD11C,0.06890*%
%ADD12C,0.07087*%
%ADD13C,0.11811*%
G04 #@! TD.AperFunction*
X0Y0D02*
D02*
D10*
X20250Y60250D02*
X110250D01*
X20250Y200250D02*
X410250D01*
X20250Y210250D02*
X410250D01*
X20250Y220250D02*
X400250D01*
X20250Y230250D02*
X390250D01*
X20250Y240250D02*
X340250D01*
X20250Y250250D02*
X330250D01*
X20250Y260250D02*
X320250D01*
X90250Y180250D02*
G75*
G02*
X100250Y190250I10000J0D01*
G01*
X110250D01*
X100250Y180250D02*
G75*
G02*
X110250Y190250I10000J0D01*
G01*
Y60250D02*
X130250D01*
X110250Y190250D02*
X190250D01*
X120250Y70250D02*
G75*
G03*
X130250Y60250I10000J0D01*
G01*
X120250Y70250D02*
G75*
G02*
X110250Y60250I-10000J0D01*
G01*
X120250Y120250D02*
G75*
G02*
X110250Y110250I-10000J0D01*
G01*
X90250D01*
G75*
G02*
X80250Y120250I0J10000D01*
G01*
Y180250D01*
G75*
G03*
X70250Y190250I-10000J0D01*
G01*
X20250D01*
X120250Y120250D02*
Y110250D01*
X121746Y142140D02*
Y141746D01*
G75*
G03*
X110250Y130250I0J-11496D01*
G01*
G75*
G02*
X100250Y120250I-10000J0D01*
G01*
G75*
G02*
X90250Y130250I0J10000D01*
G01*
Y140250D01*
X121746Y142140D02*
Y140250D01*
X126864Y128360D02*
Y126864D01*
G75*
G03*
X120250Y120250I0J-6614D01*
G01*
X126864Y128360D02*
X128360D01*
G75*
G02*
X140250Y140250I11890J0D01*
G01*
X156864D01*
X158754Y142140D01*
X127258Y154738D02*
X114738D01*
G75*
G03*
X100250Y140250I0J-14488D01*
G01*
X130250Y60250D02*
X150250D01*
X140250Y160250D02*
Y180250D01*
Y280250D02*
X20250D01*
X150250Y60250D02*
X170250D01*
X158754Y142140D02*
X162140D01*
X160250Y70250D02*
G75*
G03*
X170250Y60250I10000J0D01*
G01*
X160250Y70250D02*
G75*
G02*
X150250Y60250I-10000J0D01*
G01*
X160250Y90250D02*
Y70250D01*
Y100250D02*
G75*
G03*
X170250Y110250I0J10000D01*
G01*
Y120250D01*
G75*
G03*
X160250Y130250I-10000J0D01*
G01*
X155526D01*
X153636Y128360D01*
X190250Y80250D02*
Y90250D01*
Y100250D01*
Y110250D01*
Y190250D02*
X200250D01*
Y50250D02*
X190250D01*
X200250Y90250D02*
G75*
G03*
X190250Y80250I0J-10000D01*
G01*
X200250Y90250D02*
G75*
G02*
X190250Y100250I0J10000D01*
G01*
X200250D02*
G75*
G03*
X190250Y90250I0J-10000D01*
G01*
X200250Y100250D02*
G75*
G02*
X190250Y110250I0J10000D01*
G01*
X200250Y180250D02*
G75*
G03*
X190250Y190250I-10000J0D01*
G01*
X200250D02*
G75*
G02*
X210250Y180250I0J-10000D01*
G01*
Y190250D01*
X200250D01*
X210250Y290250D02*
X20250D01*
X231746Y142140D02*
Y141746D01*
G75*
G03*
X220250Y130250I0J-11496D01*
G01*
G75*
G02*
X210250Y120250I-10000J0D01*
G01*
G75*
G02*
X200250Y130250I0J10000D01*
G01*
Y140250D01*
X231746Y142140D02*
Y140250D01*
X236864Y128360D02*
Y126864D01*
G75*
G03*
X230250Y120250I0J-6614D01*
G01*
Y70250D01*
G75*
G02*
X220250Y60250I-10000J0D01*
G01*
X170250D01*
X236864Y128360D02*
X238360D01*
G75*
G02*
X250250Y140250I11890J0D01*
G01*
X266864D01*
X268754Y142140D01*
X237258Y154738D02*
X204738D01*
G75*
G03*
X190250Y140250I0J-14488D01*
G01*
X237258Y154738D02*
X224738D01*
G75*
G03*
X210250Y140250I0J-14488D01*
G01*
X240250Y50250D02*
G75*
G02*
X250250Y40250I0J-10000D01*
G01*
Y30250D01*
G75*
G03*
X260250Y20250I10000J0D01*
G01*
X270250D01*
X250250Y160250D02*
G75*
G03*
X240250Y170250I-10000J0D01*
G01*
X160250D01*
G75*
G03*
X153242Y163242I0J-7008D01*
G01*
Y154344D01*
X263242D02*
Y180250D01*
G75*
G02*
X273242Y190250I10000J0D01*
G01*
X280250D01*
X263636Y128360D02*
Y126864D01*
X260250Y123478D01*
Y110250D01*
X268754Y142140D02*
X272140D01*
G75*
G03*
X280250Y150250I0J8110D01*
G01*
Y180250D01*
Y20250D02*
X270250D01*
X280250Y190250D02*
G75*
G02*
X290250Y180250I0J-10000D01*
G01*
X280250Y190250D02*
X290250D01*
X280250Y280250D02*
X580250D01*
X280250D02*
X140250D01*
X281195Y69541D02*
X289541D01*
G75*
G03*
X300250Y80250I0J10709D01*
G01*
Y130250D01*
X281195Y81352D02*
X271352D01*
G75*
G03*
X260250Y70250I0J-11102D01*
G01*
X281195Y93163D02*
X283163D01*
G75*
G03*
X290250Y100250I0J7087D01*
G01*
Y180250D01*
Y190250D01*
Y300250D02*
X580250D01*
X290250D02*
X20250D01*
X310250Y180250D02*
Y20250D01*
Y270250D02*
X580250D01*
X310250D02*
X20250D01*
X320250Y20250D02*
Y180250D01*
X330250D02*
Y20250D01*
Y250250D02*
X580250D01*
X340250Y20250D02*
Y180250D01*
X390250Y20250D02*
Y180250D01*
Y230250D02*
X580250D01*
X400250Y180250D02*
Y20250D01*
X410250D02*
Y180250D01*
Y210250D02*
X580250D01*
X420250Y180250D02*
Y20250D01*
Y200250D02*
X580250D01*
X420250D02*
X410250D01*
X530250Y20250D02*
X440250D01*
G75*
G02*
X430250Y30250I0J10000D01*
G01*
Y180250D01*
G75*
G03*
X420250Y190250I-10000J0D01*
G01*
X310250D01*
G75*
G03*
X300250Y180250I0J-10000D01*
G01*
Y130250D01*
X530250Y20250D02*
X540250D01*
Y30250D02*
Y20250D01*
Y30250D02*
G75*
G02*
X530250Y20250I-10000J0D01*
G01*
X580250Y220250D02*
X400250D01*
X580250Y240250D02*
X340250D01*
X580250Y260250D02*
X320250D01*
X580250Y290250D02*
X210250D01*
X630250Y40250D02*
X680250D01*
X630250Y60250D02*
X680250D01*
X630250Y80250D02*
X680250D01*
X630250Y100250D02*
X680250D01*
X630250Y120250D02*
X680250D01*
X630250Y140250D02*
X680250D01*
X630250Y160250D02*
X680250D01*
X630250Y280250D02*
X680250D01*
X630250Y300250D02*
X680250D01*
Y50250D02*
X630250D01*
X680250Y70250D02*
X630250D01*
X680250Y90250D02*
X630250D01*
X680250Y110250D02*
X630250D01*
X680250Y130250D02*
X630250D01*
X680250Y150250D02*
X630250D01*
X680250Y290250D02*
X630250D01*
X730250Y50250D02*
X780250D01*
X730250Y190250D02*
X780250D01*
X730250Y210250D02*
X780250D01*
X730250Y230250D02*
X780250D01*
X730250Y250250D02*
X780250D01*
X730250Y270250D02*
X780250D01*
X730250Y290250D02*
X780250D01*
Y40250D02*
X730250D01*
X780250Y60250D02*
X730250D01*
X780250Y180250D02*
X730250D01*
X780250Y200250D02*
X730250D01*
X780250Y220250D02*
X730250D01*
X780250Y240250D02*
X730250D01*
X780250Y260250D02*
X730250D01*
X780250Y280250D02*
X730250D01*
X780250Y300250D02*
X730250D01*
X830250Y20250D02*
X880250D01*
X830250Y40250D02*
X880250D01*
X830250Y60250D02*
X880250D01*
X830250Y80250D02*
X880250D01*
X830250Y100250D02*
X880250D01*
X830250Y120250D02*
X880250D01*
X830250Y140250D02*
X880250D01*
X830250Y160250D02*
X880250D01*
X830250Y180250D02*
X880250D01*
X830250Y330250D02*
X880250D01*
X830250Y350250D02*
X880250D01*
Y30250D02*
X830250D01*
X880250Y50250D02*
X830250D01*
X880250Y70250D02*
X830250D01*
X880250Y90250D02*
X830250D01*
X880250Y110250D02*
X830250D01*
X880250Y130250D02*
X830250D01*
X880250Y150250D02*
X830250D01*
X880250Y170250D02*
X830250D01*
X880250Y340250D02*
X830250D01*
D02*
D11*
X20250Y50250D03*
D03*
Y60250D03*
D03*
Y200250D03*
Y210250D03*
Y220250D03*
Y230250D03*
Y240250D03*
Y250250D03*
Y260250D03*
Y270250D03*
Y280250D03*
Y290250D03*
Y300250D03*
X140250Y180250D03*
Y280250D03*
X210250Y190250D03*
Y290250D03*
X280250Y180250D03*
Y280250D03*
X290250Y190250D03*
Y300250D03*
X310250Y180250D03*
Y270250D03*
X320250Y180250D03*
Y260250D03*
X330250Y180250D03*
Y250250D03*
X340250Y180250D03*
Y240250D03*
X390250Y180250D03*
Y230250D03*
X400250Y180250D03*
Y220250D03*
X410250Y180250D03*
Y210250D03*
X580250Y200250D03*
Y210250D03*
Y220250D03*
Y230250D03*
Y240250D03*
Y250250D03*
Y260250D03*
Y270250D03*
Y280250D03*
Y290250D03*
Y300250D03*
X630250Y40250D03*
Y50250D03*
Y60250D03*
Y70250D03*
Y80250D03*
Y90250D03*
Y100250D03*
Y110250D03*
Y120250D03*
Y130250D03*
Y140250D03*
Y150250D03*
Y160250D03*
Y280250D03*
Y290250D03*
Y300250D03*
X680250Y40250D03*
Y50250D03*
Y60250D03*
Y70250D03*
Y80250D03*
Y90250D03*
Y100250D03*
Y110250D03*
Y120250D03*
Y130250D03*
Y140250D03*
Y150250D03*
Y160250D03*
Y280250D03*
Y290250D03*
Y300250D03*
X730250Y40250D03*
Y50250D03*
Y60250D03*
Y180250D03*
Y190250D03*
Y200250D03*
Y210250D03*
Y220250D03*
Y230250D03*
Y240250D03*
Y250250D03*
Y260250D03*
Y270250D03*
Y280250D03*
Y290250D03*
Y300250D03*
X780250Y40250D03*
Y50250D03*
Y60250D03*
Y180250D03*
Y190250D03*
Y200250D03*
Y210250D03*
Y220250D03*
Y230250D03*
Y240250D03*
Y250250D03*
Y260250D03*
Y270250D03*
Y280250D03*
Y290250D03*
Y300250D03*
X830250Y20250D03*
Y30250D03*
Y40250D03*
Y50250D03*
Y60250D03*
Y70250D03*
Y80250D03*
Y90250D03*
Y100250D03*
Y110250D03*
Y120250D03*
Y130250D03*
Y140250D03*
Y150250D03*
Y160250D03*
Y170250D03*
Y180250D03*
Y330250D03*
Y340250D03*
Y350250D03*
X880250Y20250D03*
Y30250D03*
Y40250D03*
Y50250D03*
Y60250D03*
Y70250D03*
Y80250D03*
Y90250D03*
Y100250D03*
Y110250D03*
Y120250D03*
Y130250D03*
Y140250D03*
Y150250D03*
Y160250D03*
Y170250D03*
Y180250D03*
Y330250D03*
Y340250D03*
Y350250D03*
D02*
D12*
X20250Y190250D03*
X270250Y20250D03*
X280250D03*
X310250D03*
X320250D03*
X330250D03*
X340250D03*
X390250D03*
X400250D03*
X410250D03*
X420250D03*
Y180250D03*
Y200250D03*
X530250Y20250D03*
X540250D03*
Y30250D03*
D02*
D13*
X121746Y142140D03*
X126864Y128360D03*
X127258Y154738D03*
X140250Y160250D03*
X153242Y154344D03*
X153636Y128360D03*
X158754Y142140D03*
X231746D03*
X236864Y128360D03*
X237258Y154738D03*
X250250Y160250D03*
X263242Y154344D03*
X263636Y128360D03*
X268754Y142140D03*
D02*
D14*
X90250Y140250D03*
Y180250D03*
X100250Y140250D03*
Y180250D03*
X120250Y70250D03*
Y110250D03*
X160250Y90250D03*
Y100250D03*
X190250Y50250D03*
Y80250D03*
Y110250D03*
Y140250D03*
X200250Y50250D03*
Y90250D03*
Y100250D03*
Y140250D03*
Y180250D03*
X210250Y140250D03*
Y180250D03*
X240250Y50250D03*
X260250Y70250D03*
Y110250D03*
X281195Y69541D03*
Y81352D03*
Y93163D03*
X0Y0D02*
M02*
